<?xml version="1.0" encoding="UTF-8"?>
<!DOCTYPE svg PUBLIC "-//W3C//DTD SVG 1.1//EN" "http://www.w3.org/Graphics/SVG/1.1/DTD/svg11.dtd">
<!-- Creator: CorelDRAW 2019 (64-Bit) -->
<svg xmlns="http://www.w3.org/2000/svg" xml:space="preserve" width="1041px" height="89px" version="1.1" style="shape-rendering:geometricPrecision; text-rendering:geometricPrecision; image-rendering:optimizeQuality; fill-rule:evenodd; clip-rule:evenodd"
viewBox="0 0 1035.7 88.76"
 xmlns:xlink="http://www.w3.org/1999/xlink">
 <defs>
  <style type="text/css">
   <![CDATA[
    .fil0 {fill:white;fill-rule:nonzero}
   ]]>
  </style>
 </defs>
 <g id="Layer_x0020_1">
  <metadata id="CorelCorpID_0Corel-Layer"/>
  <path class="fil0" d="M0 4.5c0,-0.81 0.22,-1.44 0.66,-1.91 0.45,-0.46 0.98,-0.71 1.59,-0.75l55.2 0c0.88,0 1.54,0.25 1.98,0.75 0.45,0.5 0.67,1.17 0.67,2.01l0 14.27c0,0.65 -0.23,1.27 -0.69,1.86 -0.46,0.6 -1.14,0.9 -2.02,0.9l-35.07 0 0 17.87 25.9 0c0.73,0 1.34,0.21 1.84,0.61 0.5,0.41 0.75,1.05 0.75,1.94l0 13.78c0,0.65 -0.22,1.27 -0.66,1.87 -0.44,0.6 -1.05,0.9 -1.82,0.9l-26.01 0 0 26.41c0,1.65 -0.89,2.48 -2.65,2.48l-17.59 0c-1.39,-0.19 -2.08,-1 -2.08,-2.42l0 -80.57z"/>
  <path class="fil0" d="M80.34 4.38c0,-0.69 0.21,-1.28 0.64,-1.79 0.42,-0.5 1.05,-0.75 1.9,-0.75l16.95 0c0.58,0 1.2,0.24 1.85,0.7 0.65,0.46 0.98,1.07 0.98,1.84l0 80.57c0,1.69 -0.94,2.54 -2.83,2.54l-16.95 0c-1.7,0 -2.54,-0.85 -2.54,-2.54l0 -80.57z"/>
  <path class="fil0" d="M224.7 59.81c0.66,0.54 1.49,1.26 2.51,2.16 1.02,0.9 2.18,1.8 3.49,2.68 1.96,1.31 3.9,2.33 5.83,3.06 1.92,0.73 3.94,1.1 6.05,1.1 1.96,0 3.61,-0.23 4.93,-0.67 1.33,-0.44 2.38,-1.03 3.14,-1.75 0.78,-0.74 1.32,-1.58 1.65,-2.54 0.32,-0.96 0.49,-1.98 0.49,-3.06 0,-1.19 -0.45,-2.25 -1.36,-3.19 -0.9,-0.94 -2.01,-1.78 -3.31,-2.51 -1.31,-0.73 -2.68,-1.36 -4.1,-1.87 -1.42,-0.52 -2.65,-0.95 -3.69,-1.3 -4.61,-1.61 -8.65,-3.35 -12.11,-5.22 -3.46,-1.86 -6.35,-3.93 -8.65,-6.22 -2.31,-2.29 -4.04,-4.8 -5.19,-7.55 -1.16,-2.74 -1.73,-5.81 -1.73,-9.19 0,-3.57 0.72,-6.82 2.16,-9.74 1.44,-2.92 3.5,-5.42 6.17,-7.49 2.67,-2.07 5.89,-3.68 9.66,-4.81 3.77,-1.14 7.98,-1.7 12.63,-1.7 3.5,0 6.86,0.39 10.07,1.18 3.21,0.79 6.37,2.05 9.49,3.78 1.3,0.77 2.55,1.56 3.71,2.39 1.18,0.83 2.21,1.63 3.09,2.4 0.89,0.77 1.59,1.5 2.11,2.19 0.52,0.69 0.78,1.28 0.78,1.78 0,0.51 -0.13,0.97 -0.38,1.39 -0.25,0.42 -0.63,0.9 -1.12,1.44l-8.83 9.4c-0.65,0.65 -1.3,0.98 -1.96,0.98 -0.54,0 -1.03,-0.15 -1.47,-0.46 -0.44,-0.31 -0.93,-0.69 -1.47,-1.16l-0.52 -0.45c-0.77,-0.66 -1.63,-1.33 -2.57,-2.02 -0.94,-0.7 -1.95,-1.32 -3.03,-1.88 -1.07,-0.55 -2.21,-1.01 -3.4,-1.38 -1.19,-0.37 -2.4,-0.55 -3.63,-0.55 -1.27,0 -2.46,0.11 -3.58,0.32 -1.11,0.21 -2.09,0.55 -2.94,1.01 -0.84,0.46 -1.52,1.06 -2.02,1.81 -0.5,0.75 -0.75,1.67 -0.75,2.74 0,1.08 0.27,2.01 0.81,2.8 0.54,0.79 1.34,1.52 2.42,2.19 1.08,0.68 2.42,1.31 4.01,1.91 1.6,0.59 3.45,1.24 5.57,1.93 4.07,1.35 7.83,2.76 11.27,4.24 3.44,1.48 6.41,3.23 8.91,5.25 2.5,2.02 4.45,4.43 5.86,7.23 1.4,2.81 2.1,6.21 2.1,10.21 0,4.23 -0.86,8.07 -2.59,11.51 -1.73,3.44 -4.11,6.37 -7.13,8.79 -3.01,2.43 -6.56,4.3 -10.64,5.63 -4.07,1.33 -8.45,1.99 -13.15,1.99 -4.42,0 -8.76,-0.79 -13.03,-2.37 -4.27,-1.58 -8.25,-3.7 -11.94,-6.37 -1.54,-1.12 -2.84,-2.21 -3.89,-3.3 -1.06,-1.07 -1.9,-1.94 -2.51,-2.6l-0.18 -0.17c-0.03,-0.08 -0.07,-0.12 -0.11,-0.14 -0.04,-0.02 -0.08,-0.05 -0.12,-0.09 -0.03,-0.08 -0.07,-0.13 -0.11,-0.15 -0.04,-0.02 -0.08,-0.05 -0.12,-0.08 -0.88,-0.96 -1.32,-1.74 -1.32,-2.32 0,-0.65 0.44,-1.39 1.32,-2.19l9.98 -9.52c0.81,-0.58 1.46,-0.87 1.96,-0.87 0.35,0 0.71,0.12 1.1,0.35 0.38,0.23 0.84,0.57 1.38,1.04z"/>
  <path class="fil0" d="M290.68 4.37c0,-0.76 0.26,-1.37 0.78,-1.84 0.52,-0.45 1.16,-0.69 1.93,-0.69l62.06 0c0.69,0 1.3,0.22 1.85,0.64 0.54,0.42 0.84,1.05 0.92,1.89l0 14.32c0,0.69 -0.24,1.35 -0.72,1.99 -0.48,0.63 -1.17,0.95 -2.05,0.95l-19.9 0 0 63.15c0,0.69 -0.24,1.32 -0.75,1.87 -0.5,0.56 -1.14,0.84 -1.96,0.84l-16.91 0c-0.65,0 -1.26,-0.26 -1.84,-0.78 -0.57,-0.52 -0.85,-1.16 -0.85,-1.93l0 -63.15 -19.85 0c-0.77,0 -1.41,-0.25 -1.93,-0.75 -0.52,-0.5 -0.78,-1.23 -0.78,-2.19l0 -14.32z"/>
  <path class="fil0" d="M554.18 8.07c0.65,0.39 1.13,0.89 1.44,1.5 0.3,0.62 0.25,1.35 -0.17,2.19l-9.75 13.85c-0.43,0.65 -0.88,1.02 -1.36,1.12 -0.48,0.09 -1.07,-0.07 -1.76,-0.49 -1.88,-1.42 -3.96,-2.52 -6.23,-3.29 -2.27,-0.77 -4.67,-1.15 -7.2,-1.15 -3.16,0 -6.06,0.59 -8.72,1.79 -2.65,1.19 -4.93,2.82 -6.86,4.9 -1.92,2.08 -3.42,4.5 -4.49,7.27 -1.08,2.76 -1.62,5.73 -1.62,8.88 0,3.15 0.54,6.1 1.62,8.85 1.07,2.75 2.57,5.15 4.49,7.21 1.93,2.06 4.21,3.68 6.86,4.87 2.66,1.19 5.56,1.79 8.72,1.79 2.53,0 4.95,-0.39 7.26,-1.18 2.31,-0.79 4.4,-1.9 6.29,-3.32 0.69,-0.42 1.27,-0.59 1.73,-0.52 0.46,0.08 0.92,0.43 1.38,1.04l9.87 14.19c0.42,0.85 0.47,1.55 0.17,2.13 -0.31,0.58 -0.79,1.06 -1.44,1.45 -3.62,2.42 -7.51,4.29 -11.68,5.62 -4.18,1.32 -8.57,1.99 -13.18,1.99 -4.08,0 -7.99,-0.52 -11.74,-1.56 -3.75,-1.04 -7.26,-2.52 -10.53,-4.44 -3.26,-1.92 -6.23,-4.22 -8.9,-6.89 -2.68,-2.67 -4.97,-5.63 -6.9,-8.88 -1.92,-3.25 -3.4,-6.75 -4.44,-10.5 -1.03,-3.75 -1.56,-7.66 -1.56,-11.74 0,-4.07 0.53,-7.99 1.56,-11.73 1.04,-3.75 2.52,-7.27 4.44,-10.56 1.93,-3.28 4.22,-6.28 6.9,-8.97 2.67,-2.69 5.64,-4.99 8.9,-6.89 3.27,-1.9 6.78,-3.38 10.53,-4.44 3.75,-1.06 7.66,-1.59 11.74,-1.59 4.61,0 8.97,0.64 13.06,1.94 4.1,1.28 7.95,3.14 11.57,5.56z"/>
  <path class="fil0" d="M691.33 22.49l0 44.35 4.84 0c0.88,0 1.75,-0.03 2.6,-0.09 0.84,-0.05 1.68,-0.12 2.53,-0.2 2.88,-0.23 5.58,-0.93 8.07,-2.1 2.5,-1.17 4.68,-2.71 6.55,-4.61 1.87,-1.91 3.33,-4.15 4.39,-6.72 1.05,-2.58 1.58,-5.39 1.58,-8.43 0,-3.23 -0.61,-6.19 -1.82,-8.91 -1.21,-2.71 -2.85,-5.05 -4.93,-7.03 -2.07,-1.98 -4.51,-3.52 -7.29,-4.62 -2.79,-1.09 -5.76,-1.64 -8.91,-1.64l-7.61 0zm52.76 22.26c0,4.08 -0.51,7.95 -1.55,11.63 -1.04,3.66 -2.52,7.09 -4.44,10.26 -1.93,3.17 -4.22,6.05 -6.89,8.62 -2.68,2.58 -5.64,4.77 -8.89,6.58 -3.25,1.81 -6.75,3.2 -10.52,4.18 -3.77,0.98 -7.67,1.47 -11.71,1.47l-28.43 0c-0.7,0 -1.31,-0.15 -1.85,-0.46 -0.54,-0.31 -0.81,-0.96 -0.81,-1.96l0 -80.57c0,-0.81 0.22,-1.47 0.67,-1.97 0.44,-0.49 1.1,-0.74 1.99,-0.74l28.43 0c4.04,0 7.93,0.49 11.68,1.49 3.75,1.01 7.25,2.43 10.5,4.27 3.25,1.85 6.22,4.06 8.91,6.64 2.69,2.57 4.98,5.45 6.89,8.65 1.9,3.19 3.38,6.63 4.44,10.32 1.05,3.69 1.58,7.55 1.58,11.59z"/>
  <path class="fil0" d="M764.92 4.5c0,-0.81 0.22,-1.46 0.66,-1.94 0.44,-0.48 1.06,-0.72 1.87,-0.72l57.22 0c0.85,0 1.5,0.25 1.96,0.75 0.46,0.5 0.69,1.17 0.69,2.01l0 14.27c0,0.65 -0.23,1.27 -0.69,1.86 -0.46,0.6 -1.14,0.9 -2.02,0.9l-37.37 0 0 14.3 28.84 0c0.73,0 1.33,0.17 1.81,0.52 0.48,0.34 0.72,0.92 0.72,1.73l0 12.45c0,0.54 -0.21,1.06 -0.63,1.56 -0.42,0.5 -1.04,0.75 -1.85,0.75l-28.89 0 0 14.77 38.76 0c1.72,0 2.59,0.88 2.59,2.64l0 14.49c0,0.39 -0.15,0.73 -0.46,1.04 -0.15,1.07 -0.94,1.61 -2.36,1.61l-58.32 0c-0.76,0 -1.38,-0.2 -1.84,-0.61 -0.46,-0.4 -0.69,-1.02 -0.69,-1.87l0 -80.51z"/>
  <path class="fil0" d="M853.33 4.38c0.07,-0.69 0.35,-1.29 0.81,-1.79 0.46,-0.5 1.11,-0.75 1.96,-0.75l19.95 0c1.43,0 2.35,0.73 2.77,2.19l15.69 52.37 15.81 -52.37c0.53,-1.46 1.51,-2.19 2.94,-2.19l19.72 0c0.69,0 1.32,0.24 1.87,0.72 0.56,0.48 0.88,1.09 0.95,1.82 1.36,13.54 2.73,26.96 4.13,40.29 1.4,13.32 2.78,26.75 4.13,40.28l0 0.29c0,1.5 -0.85,2.25 -2.54,2.25l-16.32 0c-1.77,0 -2.7,-0.85 -2.77,-2.54l-5.02 -44.58 -12.98 44.87c-0.08,0.38 -0.35,0.85 -0.83,1.38 -0.49,0.54 -0.96,0.81 -1.42,0.81l-15.17 0c-0.46,0 -0.95,-0.26 -1.47,-0.78 -0.52,-0.52 -0.8,-0.98 -0.83,-1.41l-12.98 -44.75 -5.02 44.46c-0.07,1.69 -1.02,2.54 -2.82,2.54l-16.33 0c-1.65,0 -2.47,-0.85 -2.47,-2.54l8.24 -80.57z"/>
  <path class="fil0" d="M996.51 33.45l13.93 -29.82c0.23,-0.46 0.42,-0.8 0.58,-1.01 0.15,-0.21 0.3,-0.37 0.46,-0.46 0.15,-0.1 0.31,-0.15 0.48,-0.17 0.18,-0.02 0.38,-0.07 0.61,-0.15l22.21 0c0.27,0 0.49,0.09 0.66,0.26 0.17,0.18 0.26,0.37 0.26,0.61 0,0.42 -0.27,0.9 -0.81,1.44l-27.34 48.39 0 32.24c0,1.81 -0.88,2.71 -2.64,2.71l-17.26 0c-0.77,0 -1.36,-0.24 -1.78,-0.72 -0.43,-0.48 -0.64,-1.15 -0.64,-1.99l0 -32.35 -27.28 -48.28c-0.49,-0.5 -0.74,-0.98 -0.74,-1.44 0,-0.24 0.07,-0.43 0.22,-0.61 0.16,-0.17 0.37,-0.26 0.64,-0.26l22.2 0c0.27,0.08 0.48,0.13 0.64,0.15 0.15,0.02 0.31,0.07 0.46,0.17 0.15,0.09 0.31,0.25 0.46,0.46 0.15,0.21 0.37,0.55 0.63,1.01l14.05 29.82z"/>
  <path class="fil0" d="M478.5 84.9l-30.27 -78.1 -1.45 -3.29c-0.23,-0.3 -0.57,-0.66 -1.03,-1.06 -0.47,-0.41 -1.02,-0.61 -1.68,-0.61l-14.76 0c-0.31,0 -0.63,0.07 -0.98,0.2 -0.35,0.14 -0.68,0.32 -0.98,0.55 -0.31,0.23 -0.57,0.48 -0.78,0.75 -0.21,0.27 -0.34,0.52 -0.38,0.75l-31.31 81.09c-0.31,0.77 -0.22,1.35 0.26,1.73 0.48,0.39 1.08,0.58 1.81,0.58l17.02 0c1.45,0 2.44,-0.71 2.94,-2.14 0.72,-1.96 1.47,-3.91 2.22,-5.85 0.13,-0.32 0.24,-0.64 0.37,-0.96l8.32 -23.41 -0.01 0c0.73,-1.96 1.47,-4.06 2.22,-6.31 0.75,-2.25 1.49,-4.53 2.22,-6.84 0.73,-2.3 1.47,-4.59 2.22,-6.86 0.75,-2.27 1.49,-4.38 2.22,-6.34l8.83 26.35 -13.53 15.98c-0.85,1 -0.13,2.54 1.18,2.54l18.33 0c1.74,4.46 4.15,9.74 4.92,11.7 0.26,0.78 0.64,1.32 1.12,1.65 0.48,0.32 1.17,0.49 2.05,0.49l16.55 0c1.04,0 1.77,-0.24 2.19,-0.72 0.43,-0.48 0.48,-1.1 0.17,-1.87z"/>
  <path class="fil0" d="M652.68 84.87l-30.27 -78.1 -1.45 -3.28c-0.23,-0.31 -0.57,-0.67 -1.04,-1.07 -0.46,-0.41 -1.02,-0.6 -1.67,-0.6l-14.77 0c-0.3,0 -0.63,0.06 -0.98,0.19 -0.34,0.14 -0.67,0.32 -0.97,0.55 -0.31,0.23 -0.57,0.48 -0.78,0.75 -0.21,0.27 -0.34,0.52 -0.38,0.75l-31.31 81.1c-0.31,0.76 -0.23,1.34 0.25,1.72 0.49,0.39 1.09,0.58 1.82,0.58l17.02 0c1.45,0 2.44,-0.71 2.93,-2.13 0.73,-1.96 1.48,-3.91 2.23,-5.86 0.12,-0.32 0.24,-0.64 0.36,-0.96l8.32 -23.41 0 0c0.73,-1.95 1.47,-4.06 2.21,-6.31 0.76,-2.25 1.5,-4.53 2.23,-6.84 0.73,-2.3 1.47,-4.59 2.22,-6.86 0.75,-2.27 1.49,-4.38 2.22,-6.34l8.83 26.35 -13.53 15.98c-0.85,1 -0.13,2.54 1.18,2.54l18.32 0c1.74,4.46 4.15,9.74 4.92,11.71 0.27,0.77 0.65,1.31 1.13,1.64 0.48,0.33 1.16,0.49 2.04,0.49l16.56 0c1.04,0 1.77,-0.24 2.19,-0.72 0.42,-0.48 0.48,-1.1 0.17,-1.87z"/>
  <path class="fil0" d="M196.96 83.68c-0.42,-0.72 -0.77,-1.36 -1.04,-1.9l-14.82 -27.91c2.07,-1.19 3.99,-2.63 5.74,-4.3 1.75,-1.67 3.26,-3.54 4.53,-5.59 1.26,-2.06 2.25,-4.27 2.97,-6.64 0.71,-2.36 1.06,-4.85 1.06,-7.46 0,-3.85 -0.74,-7.48 -2.22,-10.88 -1.48,-3.4 -3.51,-6.37 -6.08,-8.91 -2.58,-2.54 -5.6,-4.54 -9.06,-6.02 -3.46,-1.48 -7.17,-2.23 -11.13,-2.23l-37.26 0c-0.85,0 -1.48,0.24 -1.9,0.73 -0.42,0.48 -0.63,1.12 -0.63,1.93l0 80.51c0,0.85 0.23,1.47 0.69,1.87 0.46,0.41 1.07,0.61 1.84,0.61l17.13 0c1.77,0 2.66,-0.83 2.66,-2.48l0 -65.52 7.95 0c1.12,0 2.15,0.03 3.09,0.09 0.94,0.06 1.95,0.12 3.03,0.2 1.3,0.19 2.5,0.61 3.58,1.27 1.07,0.65 2,1.46 2.76,2.42 0.77,0.97 1.37,2.02 1.79,3.18 0.42,1.15 0.64,2.3 0.64,3.46 0,1.23 -0.2,2.43 -0.58,3.6 -0.38,1.17 -0.94,2.23 -1.67,3.17 -0.73,0.95 -1.64,1.73 -2.72,2.37 -1.07,0.63 -2.28,1.03 -3.63,1.18 -0.65,0.08 -1.25,0.14 -1.79,0.17 -0.54,0.04 -0.88,0.06 -1.57,0.06l-1.75 0 0 17.8c0,0.36 0.09,0.71 0.26,1.01l13.96 25.89c0.16,0.65 0.49,1.17 1.01,1.55 0.52,0.39 1.11,0.58 1.76,0.58l19.78 0c0.7,0 1.24,-0.16 1.65,-0.49 0.4,-0.32 0.6,-0.8 0.6,-1.41 0,-0.54 -0.21,-1.18 -0.63,-1.91z"/>
 </g>
</svg>
