<?xml version="1.0" encoding="UTF-8" standalone="no" ?>
<!DOCTYPE svg PUBLIC "-//W3C//DTD SVG 1.1//EN" "http://www.w3.org/Graphics/SVG/1.1/DTD/svg11.dtd">
<svg xmlns="http://www.w3.org/2000/svg" xmlns:xlink="http://www.w3.org/1999/xlink" version="1.1" width="1080" height="1080" viewBox="0 0 1080 1080" xml:space="preserve">
<desc>Created with Fabric.js 5.2.4</desc>
<defs>
</defs>
<rect x="0" y="0" width="100%" height="100%" fill="transparent"></rect>
<g transform="matrix(1 0 0 1 540 540)" id="f0b4dcb7-5b55-4aba-8c98-7cd5bdc1c623"  >
</g>
<g transform="matrix(1 0 0 1 540 540)" id="79850bee-fa0f-4970-aba9-5d257932f520"  >
<rect style="stroke: none; stroke-width: 1; stroke-dasharray: none; stroke-linecap: butt; stroke-dashoffset: 0; stroke-linejoin: miter; stroke-miterlimit: 4; fill: rgb(255,255,255); fill-rule: nonzero; opacity: 1; visibility: hidden;" vector-effect="non-scaling-stroke"  x="-540" y="-540" rx="0" ry="0" width="1080" height="1080" />
</g>
<g transform="matrix(0.08 0 0 0.08 761.41 514.26)"  >
<path style="stroke: none; stroke-width: 1; stroke-dasharray: none; stroke-linecap: butt; stroke-dashoffset: 0; stroke-linejoin: miter; stroke-miterlimit: 4; fill: rgb(0,0,0); fill-rule: nonzero; opacity: 1;" vector-effect="non-scaling-stroke"  transform=" translate(-7531.81, -1163.25)" d="M 8125.43 587.15 C 8049.200000000001 587.15 7947.6900000000005 621 7947.6900000000005 734.97 C 7947.6900000000005 830.1800000000001 8039.4800000000005 849.58 8066.700000000001 855.22 C 8090.43 860.23 8114.93 863.33 8139.040000000001 866.46 C 8171.710000000001 870.85 8216.44 876.5 8216.44 911.58 C 8216.44 942.2700000000001 8178.710000000001 962.9200000000001 8134.76 962.9200000000001 C 8109.09 962.9200000000001 8079.150000000001 957.32 8049.59 941.6400000000001 C 8027.81 929.7500000000001 8018.4800000000005 919.7 8007.2 907.1700000000001 L 7923.19 960.4300000000001 C 7950.8099999999995 992.36 8000.19 1049.96 8124.66 1049.96 C 8186.88 1049.96 8250.67 1036.81 8290.73 990.49 C 8314.06 963.58 8325.73 928.48 8325.73 896.53 C 8325.73 846.42 8300.06 807 8249.5 788.21 C 8224.61 779.44 8161.21 767.49 8114.15 761.85 C 8095.48 759.34 8057.75 754.35 8057.75 720.53 C 8057.75 699.23 8079.53 674.1899999999999 8123.48 674.1899999999999 C 8151.87 674.1899999999999 8179.879999999999 684.8699999999999 8195.43 693.64 C 8212.93 703.66 8225.77 715.59 8239.37 729.35 L 8321.050000000001 671.09 C 8282.54 636.63 8227.310000000001 587.1500000000001 8125.420000000001 587.1500000000001 L 8125.420000000001 587.1500000000001 z M 6340.900000000001 597.18 L 6340.900000000001 671.6999999999999 L 6436.070000000001 671.6999999999999 L 6436.070000000001 597.18 L 6340.900000000001 597.18 z M 5816.47 597.79 L 5652.38 1040 L 5770.11 1039.96 L 5792.08 969.21 L 5954.93 969.21 L 5976.83 1039.96 L 6094.5599999999995 1039.96 L 5931.709999999999 597.75 L 5816.469999999999 597.77 L 5816.469999999999 597.79 z M 8373.58 618.4499999999999 L 8373.58 719.93 L 8325.74 719.93 L 8325.74 778.8 L 8373.58 778.8 L 8373.58 936.63 C 8373.58 967.98 8373.96 991.16 8387.19 1010.5699999999999 C 8407.810000000001 1040.6399999999999 8444.36 1042.46 8477.42 1042.46 C 8494.92 1042.46 8507.37 1040.5900000000001 8528.37 1037.45 L 8528.37 962.35 L 8493.76 963.63 C 8468.09 963.63 8468.09 946.67 8468.87 926.63 L 8468.87 779.41 L 8532.650000000001 779.41 L 8532.650000000001 720.54 L 8469.250000000002 720.54 L 8469.250000000002 618.4499999999999 L 8373.580000000002 618.4499999999999 z M 8907.97 618.4499999999999 L 8907.97 719.93 L 8860.13 719.93 L 8860.13 778.8 L 8907.97 778.8 L 8907.97 936.63 C 8907.97 967.98 8908.359999999999 991.16 8921.58 1010.5699999999999 C 8942.19 1040.6399999999999 8978.75 1042.46 9011.81 1042.46 C 9029.31 1042.46 9041.75 1040.5900000000001 9062.359999999999 1037.45 L 9062.359999999999 962.35 L 9028.14 963.63 C 9002.47 963.63 9002.47 946.67 9002.859999999999 926.63 L 9002.859999999999 779.41 L 9066.65 779.41 L 9066.65 720.54 L 9003.64 720.54 L 9003.64 618.4499999999999 L 8907.96 618.4499999999999 z M 9247.119999999999 702.3899999999999 C 9118.38 702.3899999999999 9079.49 803.8699999999999 9079.49 882.7999999999998 C 9079.49 989.9299999999998 9147.55 1051.8799999999999 9244.78 1051.8799999999999 C 9297.29 1051.8799999999999 9340.070000000002 1031.85 9368.08 1005.5599999999998 C 9385.19 989.8899999999999 9396.47 973.6299999999999 9407.75 956.7199999999998 L 9335.01 919.7299999999998 C 9322.960000000001 942.9099999999997 9304.67 977.3799999999998 9252.17 977.3799999999998 C 9200.44 977.3799999999998 9177.1 936.6499999999997 9177.88 895.9599999999998 L 9411.24 895.9499999999998 C 9410.07 858.9999999999998 9407.75 795.1199999999998 9364.96 749.4199999999998 C 9322.949999999999 704.3199999999998 9266.56 702.4099999999999 9247.109999999999 702.4099999999999 L 9247.119999999999 702.4099999999999 z M 6958.259999999998 702.7699999999999 C 6848.109999999999 706.1799999999998 6792.499999999998 781.9399999999998 6792.499999999998 875.8899999999999 C 6792.499999999998 996.7799999999999 6876.579999999998 1049.3999999999999 6968.369999999998 1049.3999999999999 C 7096.329999999998 1049.3999999999999 7143.769999999998 958.5899999999999 7143.769999999998 875.8899999999999 C 7143.769999999998 816.3799999999999 7114.609999999998 710.5199999999999 6981.199999999998 702.9999999999999 C 6973.039999999998 702.5599999999998 6965.639999999998 702.5399999999998 6958.259999999998 702.7699999999999 L 6958.259999999998 702.7699999999999 z M 5872.209999999998 702.9999999999999 L 5929.8899999999985 889.6399999999999 L 5817.769999999999 889.6399999999999 C 5827.799999999998 856.4399999999998 5844.6799999999985 804.4899999999999 5854.049999999998 771.2899999999998 C 5860.309999999999 748.7399999999999 5866.569999999999 725.5299999999999 5872.209999999998 702.9999999999999 L 5872.209999999998 702.9999999999999 z M 7656.3899999999985 704.2999999999998 C 7617.879999999998 704.2999999999998 7579.379999999998 709.2799999999999 7549.039999999998 733.0899999999998 C 7519.869999999998 756.2499999999998 7516.759999999998 783.2399999999998 7514.819999999998 805.7999999999998 L 7611.269999999998 805.7999999999998 C 7613.599999999998 793.8999999999999 7619.439999999998 767.5899999999998 7661.829999999998 767.5899999999998 C 7696.439999999998 767.5899999999998 7697.609999999998 792.5899999999998 7698.779999999998 807.6199999999998 L 7698.779999999998 825.1699999999997 C 7658.329999999998 832.6899999999997 7596.099999999998 843.9799999999997 7569.659999999998 855.2499999999998 C 7542.819999999998 866.5299999999997 7500.819999999998 896.5999999999998 7500.819999999998 949.2299999999998 C 7500.819999999998 994.9299999999998 7532.7199999999975 1048.7899999999997 7608.169999999998 1048.7899999999997 C 7656.399999999998 1048.7899999999997 7684.009999999998 1028.0599999999997 7708.119999999998 1009.8999999999997 L 7708.119999999998 1039.9999999999998 L 7802.619999999998 1039.9999999999998 C 7795.229999999998 1028.7199999999998 7793.279999999998 1023.6999999999998 7793.279999999998 988.6199999999998 L 7793.279999999998 798.2699999999998 C 7793.279999999998 713.7099999999998 7696.439999999998 704.2999999999997 7656.379999999998 704.2999999999997 L 7656.3899999999985 704.2999999999997 z M 8703.779999999999 704.2999999999998 C 8665.269999999999 704.2999999999998 8626.38 709.2799999999999 8596.439999999999 733.0899999999998 C 8566.88 756.2499999999998 8563.759999999998 783.2399999999998 8562.21 805.7999999999998 L 8658.269999999999 805.7999999999998 C 8660.999999999998 793.8999999999999 8666.439999999999 767.5899999999998 8709.22 767.5899999999998 C 8743.449999999999 767.5899999999998 8745 792.5899999999998 8746.17 807.6199999999998 L 8746.17 825.1699999999997 C 8705.34 832.6899999999997 8643.5 843.9799999999997 8617.05 855.2499999999998 C 8590.21 866.5299999999997 8548.21 896.5999999999998 8548.21 949.2299999999998 C 8548.21 994.9299999999998 8580.099999999999 1048.7899999999997 8655.169999999998 1048.7899999999997 C 8703.399999999998 1048.7899999999997 8731.009999999998 1028.0599999999997 8755.509999999998 1009.8999999999997 L 8755.509999999998 1039.9999999999998 L 8850.019999999999 1039.9999999999998 C 8842.63 1028.7199999999998 8840.679999999998 1023.6999999999998 8840.679999999998 988.6199999999998 L 8840.679999999998 798.2699999999998 C 8840.679999999998 713.7099999999998 8743.839999999998 704.2999999999997 8703.769999999999 704.2999999999997 L 8703.779999999999 704.2999999999997 z M 7365.469999999999 704.8999999999999 C 7342.53 704.8999999999999 7321.139999999999 710.5599999999998 7305.959999999999 716.8299999999998 C 7289.239999999999 724.9699999999998 7283.009999999999 732.4699999999998 7273.679999999999 742.5099999999998 L 7273.679999999999 713.6399999999998 L 7176.45 713.6499999999997 L 7176.45 1039.9999999999998 L 7272.9 1039.9999999999998 L 7272.9 863.3599999999998 C 7272.9 822.6499999999997 7272.9 781.9399999999998 7323.46 781.9399999999998 C 7342.52 781.9399999999998 7359.24 789.4799999999998 7367.02 807.0099999999999 C 7370.52 815.7799999999999 7371.3 826.4099999999999 7371.3 855.8499999999999 L 7371.3 1040 L 7466.9800000000005 1040 L 7466.9800000000005 816.4300000000001 C 7466.9800000000005 765.7 7458.43 736.2 7423.81 718.0600000000001 C 7407.09 708.6600000000001 7384.92 704.9200000000001 7365.47 704.9200000000001 L 7365.47 704.9100000000001 z M 6307.74 709.3099999999998 C 6257.61 714.3199999999998 6234.42 728.6899999999998 6213.15 746.8399999999998 L 6213.15 712.4299999999998 L 6119.179999999999 712.4299999999998 L 6119.179999999999 1039.9899999999998 L 6215.629999999999 1039.9899999999998 L 6215.629999999999 855.8399999999998 C 6215.629999999999 814.4999999999998 6229.4 807.6099999999998 6275.719999999999 799.4699999999998 L 6307.73 794.4599999999998 L 6307.73 709.3099999999998 L 6307.73 709.3099999999998 z M 6340.92 712.4299999999998 L 6340.92 1039.9899999999998 L 6436.09 1039.9899999999998 L 6436.09 712.4299999999998 L 6340.92 712.4299999999998 z M 6494.97 713.0299999999999 L 6494.97 786.9399999999998 L 6652.84 786.9399999999998 L 6476.22 967.3299999999998 L 6476.22 1039.9799999999998 L 6774.96 1039.9899999999998 L 6774.96 964.8499999999998 L 6600.88 964.8499999999998 L 6774.96 786.9399999999998 L 6774.96 713.0299999999999 L 6494.97 713.0299999999999 z M 9246.74 771.2899999999998 C 9263.46 771.2899999999998 9281.74 777.5199999999999 9293.8 789.4399999999998 C 9307.41 803.8299999999998 9310.13 821.9999999999998 9311.689999999999 835.7799999999999 L 9178.289999999999 835.7799999999999 C 9181.4 821.9999999999999 9184.509999999998 806.9599999999998 9197.73 792.5599999999998 C 9207.07 782.5499999999998 9223.4 771.2899999999998 9246.74 771.2899999999998 z M 6974.6 779.1099999999999 C 6987.820000000001 779.6399999999999 7004.160000000001 783.4799999999999 7019.33 797.5699999999999 C 7037.61 815.1099999999999 7046.17 843.3499999999999 7046.17 879.68 C 7046.17 931.04 7020.5 972.9699999999999 6968.38 972.9699999999999 C 6914.7 972.9699999999999 6889.43 927.2699999999999 6889.43 875.28 C 6889.43 852.73 6894.1 830.18 6905.77 811.39 C 6918.990000000001 790.74 6935.320000000001 781.31 6962.9400000000005 779.41 C 6966.43 779.0899999999999 6970.330000000001 778.93 6974.6 779.1 L 6974.6 779.1 z M 7698.900000000001 883.4099999999999 C 7698.52 917.2299999999999 7696.960000000001 947.3399999999998 7665.070000000001 967.3299999999998 C 7654.960000000001 973.6299999999998 7643.68 977.9799999999998 7632.01 977.9799999999998 C 7609.45 977.9799999999998 7595.45 960.4399999999998 7595.45 944.7699999999998 C 7595.45 919.7299999999998 7620.73 910.3299999999997 7637.07 904.0699999999997 L 7698.91 883.3999999999997 L 7698.91 883.3999999999997 z M 8746.300000000001 883.4099999999999 C 8745.52 917.2299999999999 8744.35 947.3399999999998 8712.460000000001 967.3299999999998 C 8702.35 973.6299999999998 8691.070000000002 977.9799999999998 8679.400000000001 977.9799999999998 C 8656.840000000002 977.9799999999998 8642.840000000002 960.4399999999998 8642.840000000002 944.7699999999998 C 8642.840000000002 919.7299999999998 8668.120000000003 910.3299999999997 8684.460000000003 904.0699999999997 L 8746.300000000003 883.3999999999997 L 8746.300000000003 883.3999999999997 z M 6435.460000000001 1184.3999999999999 L 6435.460000000001 1258.9999999999998 L 6530.710000000001 1258.9999999999998 L 6530.710000000001 1184.3999999999999 L 6435.460000000001 1184.3999999999999 z M 7770.470000000001 1184.3999999999999 L 7770.470000000001 1258.9999999999998 L 7865.3600000000015 1258.9999999999998 L 7865.3600000000015 1184.3999999999999 L 7770.470000000001 1184.3999999999999 z M 5666.9400000000005 1185.06 L 5666.9400000000005 1431.8 C 5666.320000000001 1491.93 5666.320000000001 1569.6399999999999 5751.490000000001 1613.5 C 5781.52 1629.14 5821.000000000001 1637.27 5854.170000000001 1637.27 C 5872.990000000001 1637.27 5971.350000000001 1633.45 6018.960000000001 1557.07 C 6043.350000000001 1516.97 6043.930000000001 1474.3799999999999 6044.550000000001 1431.79 L 6044.550000000001 1185.05 L 5933.710000000001 1185.05 L 5933.710000000001 1459.9499999999998 C 5933.090000000001 1494.4099999999999 5933.090000000001 1545.7899999999997 5857.900000000001 1545.7899999999997 C 5830.360000000001 1545.7899999999997 5800.3 1538.9099999999996 5786.500000000001 1515.7199999999998 C 5778.990000000001 1501.9499999999998 5778.370000000001 1483.2099999999998 5778.370000000001 1460.6499999999999 L 5778.370000000001 1185.0499999999997 L 5666.9400000000005 1185.0499999999997 z M 7947.050000000001 1205.71 L 7947.050000000001 1307.22 L 7899.210000000001 1307.22 L 7899.210000000001 1365.99 L 7947.050000000001 1365.99 L 7947.050000000001 1523.85 C 7947.050000000001 1555.1999999999998 7947.430000000001 1578.34 7960.660000000001 1597.75 C 7981.27 1627.82 8017.830000000001 1629.76 8050.89 1629.76 C 8068.39 1629.76 8080.84 1627.85 8101.450000000001 1624.75 L 8101.450000000001 1549.61 L 8067.220000000001 1550.81 C 8041.550000000001 1550.81 8041.550000000001 1533.97 8042.330000000001 1513.8999999999999 L 8042.330000000001 1366.6899999999998 L 8106.120000000001 1366.6899999999998 L 8106.120000000001 1307.7999999999997 L 8042.720000000001 1307.7999999999997 L 8042.720000000001 1205.7099999999998 L 7947.050000000001 1205.7099999999998 z M 7038.110000000001 1289.69 C 6908.990000000001 1289.69 6870.1 1391.1200000000001 6870.1 1470.08 C 6870.1 1577.1899999999998 6938.55 1639.11 7035.400000000001 1639.11 C 7088.290000000001 1639.11 7130.6900000000005 1619.1599999999999 7159.070000000001 1592.83 C 7175.8 1577.1899999999998 7187.080000000001 1560.86 7198.360000000001 1543.9399999999998 L 7125.620000000001 1506.9899999999998 C 7113.960000000001 1530.1699999999998 7095.680000000001 1564.5899999999997 7043.170000000001 1564.5899999999997 C 6991.050000000001 1564.5899999999997 6967.720000000001 1523.8299999999997 6968.490000000001 1483.1499999999996 L 7202.240000000001 1483.1499999999996 C 7201.070000000001 1446.1999999999996 7198.35 1382.3399999999997 7155.960000000001 1336.6399999999996 C 7113.960000000001 1291.5199999999998 7057.560000000001 1289.6999999999996 7038.120000000001 1289.6999999999996 L 7038.120000000001 1289.6999999999996 z M 7588.06 1289.69 C 7496.660000000001 1289.69 7450.370000000001 1345.42 7450.370000000001 1399.29 C 7450.370000000001 1423.72 7460.1 1446.27 7474.490000000001 1460.6599999999999 C 7488.880000000001 1475.05 7509.1 1483.1799999999998 7528.9400000000005 1488.86 C 7543.330000000001 1493.2199999999998 7558.490000000001 1496.37 7572.88 1498.85 C 7591.55 1502 7614.11 1503.87 7628.5 1511.4199999999998 C 7634.33 1514.5299999999997 7641.33 1518.8899999999999 7641.33 1530.1599999999999 C 7641.33 1554.59 7605.94 1562.06 7582.99 1562.06 C 7546.429999999999 1562.06 7514.15 1542.73 7487.7 1517.02 L 7427.03 1572.1 C 7447.65 1591.54 7494.71 1635.3799999999999 7585.32 1635.3799999999999 C 7662.33 1635.3799999999999 7740.12 1597.81 7740.12 1520.7599999999998 C 7740.12 1443.0899999999997 7663.88 1425.5499999999997 7598.16 1413.6499999999999 C 7566.66 1408.0099999999998 7546.05 1404.28 7546.05 1385.4499999999998 C 7546.05 1376.08 7554.6 1361.0599999999997 7592.33 1361.0599999999997 C 7614.89 1361.0599999999997 7643.67 1369.8099999999997 7674.39 1393.5699999999997 L 7733.900000000001 1338.4999999999998 C 7711.34 1322.8599999999997 7665.06 1289.6899999999998 7588.05 1289.6899999999998 L 7588.04 1289.6999999999998 z M 6283.900000000001 1292.17 C 6260.72 1292.17 6239.400000000001 1297.77 6224.360000000001 1304.04 C 6207.4400000000005 1312.1599999999999 6201.250000000001 1319.67 6191.84 1329.71 L 6191.84 1300.92 L 6094.6900000000005 1300.92 L 6094.6900000000005 1627.24 L 6191.18 1627.24 L 6191.18 1450.62 C 6191.18 1409.8999999999999 6191.18 1369.1799999999998 6241.900000000001 1369.1799999999998 C 6260.6900000000005 1369.1799999999998 6277.610000000001 1376.7199999999998 6285.150000000001 1394.2699999999998 C 6288.88 1403.0599999999997 6289.540000000001 1413.6699999999998 6289.540000000001 1443.1199999999997 L 6289.540000000001 1627.2399999999998 L 6385.340000000001 1627.2399999999998 L 6385.340000000001 1403.6099999999997 C 6385.340000000001 1352.8899999999996 6376.550000000001 1323.4499999999996 6342.090000000001 1305.3299999999997 C 6325.210000000001 1295.9199999999996 6303.350000000001 1292.1799999999996 6283.910000000001 1292.1799999999996 L 6283.910000000001 1292.1799999999996 z M 7429.380000000001 1296.49 C 7379.210000000001 1301.5 7356.260000000001 1315.97 7334.870000000001 1334.1 L 7334.870000000001 1299.6699999999998 L 7241.130000000001 1299.6699999999998 L 7241.130000000001 1627.2299999999998 L 7337.590000000001 1627.2299999999998 L 7337.590000000001 1443.1099999999997 C 7337.590000000001 1401.7299999999996 7351.200000000001 1394.8799999999997 7397.480000000001 1386.7499999999998 L 7429.380000000001 1381.7399999999998 L 7429.380000000001 1296.4899999999998 z M 6435.470000000001 1299.67 L 6435.470000000001 1627.23 L 6530.720000000001 1627.23 L 6530.720000000001 1299.67 L 6435.470000000001 1299.67 z M 7770.480000000001 1299.67 L 7770.480000000001 1627.23 L 7865.370000000002 1627.23 L 7865.370000000002 1299.67 L 7770.480000000001 1299.67 z M 6558.920000000002 1300.29 L 6664.710000000002 1627.22 L 6765.600000000002 1627.22 L 6871.2800000000025 1300.28 L 6772.450000000003 1300.29 L 6752.380000000003 1380.45 C 6732.970000000003 1457.49 6731.150000000003 1465.6200000000001 6717.950000000003 1538.28 C 6707.330000000003 1475.66 6700.410000000003 1445.6 6660.310000000002 1300.29 L 6558.920000000002 1300.29 z M 8128.690000000002 1300.29 L 8226.310000000003 1615.98 C 8228.260000000004 1622.8700000000001 8230.590000000004 1630.96 8230.590000000004 1639.09 C 8230.590000000004 1662.27 8206.090000000004 1662.35 8190.530000000003 1662.9299999999998 L 8156.680000000003 1662.9299999999998 L 8156.680000000003 1739.35 L 8226.300000000003 1739.35 C 8251.190000000002 1738.73 8273.360000000002 1737.48 8295.920000000004 1713.06 C 8312.260000000004 1694.8999999999999 8318.870000000004 1674.83 8326.650000000003 1653.52 L 8441.770000000004 1300.29 L 8339.100000000004 1300.29 L 8285.040000000005 1534.54 L 8231.370000000004 1300.29 L 8128.690000000004 1300.29 z M 7037.350000000002 1358.55 C 7054.460000000002 1358.55 7072.350000000002 1364.81 7084.410000000003 1376.71 C 7098.020000000002 1391.1000000000001 7100.7400000000025 1409.26 7102.690000000002 1423.03 L 6969.2800000000025 1423.03 C 6972.400000000002 1409.26 6975.510000000002 1394.24 6988.730000000002 1379.82 C 6998.070000000002 1369.82 7014.400000000002 1358.54 7037.350000000002 1358.54 L 7037.350000000002 1358.55 z" stroke-linecap="round" />
</g>
<g transform="matrix(0.08 0 0 0.08 402.55 518.62)"  >
<path style="stroke: none; stroke-width: 1; stroke-dasharray: none; stroke-linecap: butt; stroke-dashoffset: 0; stroke-linejoin: miter; stroke-miterlimit: 4; fill: rgb(0,0,0); fill-rule: evenodd; opacity: 1;" vector-effect="non-scaling-stroke"  transform=" translate(-2879.76, -1193.42)" d="M 5498.85 2241.29 C 5418.1900000000005 2154.99 5422.76 2063.69 5422.76 2063.69 L 5422.76 0.1799999999998363 L 4638.56 0.1799999999998363 L 4638.56 1650.3799999999999 C 4628.820000000001 1806.77 4475.64 1846.6699999999998 4390.700000000001 1844 C 4269.030000000001 1840.15 4198.620000000001 1772.15 4198.620000000001 1655.37 L 4198.4800000000005 0.8199999999999363 L 3434.6200000000003 0.8199999999999363 L 3434.5400000000004 0.1699999999999363 C 3255.8700000000003 0.1699999999999363 3115.6200000000003 0.8199999999999363 2896.26 0.8199999999999363 C 2478.36 0.8199999999999363 2083.6600000000003 64.71999999999994 1950.7200000000003 411.38999999999993 L 1871.7900000000002 104.07999999999993 C 1852.4200000000003 43.739999999999924 1786.4300000000003 0.24999999999992895 1721.3000000000002 0.24999999999992895 L 1618.7600000000002 0.23999999999992894 L 596.8000000000002 0.31999999999992895 L 355.4100000000002 0.31999999999992895 C 335.7900000000002 0.31999999999992895 328.7000000000002 6.459999999999929 338.9800000000002 20.36999999999993 C 338.9800000000002 20.36999999999993 375.9300000000002 55.84999999999992 443.08000000000015 132.36999999999992 C 536.3500000000001 238.57999999999993 499.72000000000014 380.6599999999999 499.72000000000014 380.6599999999999 L 0.010000000000161435 2374.23 L 727.6700000000001 2374.23 L 832.6200000000001 1936.23 L 1534.8700000000001 1936.23 L 1644.3100000000002 2374.31 L 2602.76 2374.31 C 2995.9700000000003 2374.31 3315.79 2334.2999999999997 3473.9800000000005 2089.38 C 3591.9800000000005 2312.59 3845.7700000000004 2417.54 4293.4400000000005 2379.01 C 4449.43 2365.6000000000004 4602.540000000001 2292.6800000000003 4668.320000000001 2177.1200000000003 L 4698.580000000001 2273.1900000000005 C 4724.780000000001 2331.1300000000006 4778.050000000001 2373.9800000000005 4853.930000000001 2373.9800000000005 L 5586.480000000001 2373.9800000000005 C 5606.000000000002 2373.9800000000005 5613.1500000000015 2368.2300000000005 5602.830000000002 2354.2800000000007 C 5602.830000000002 2354.2400000000007 5563.800000000002 2310.8200000000006 5498.850000000002 2241.2800000000007 z M 943.9200000000001 1507.01 L 1186.43 532.53 L 1430.27 1507.01 L 943.92 1507.01 z M 5514.76 144.55999999999995 L 5535.5 144.55999999999995 L 5535.5 18.219999999999942 L 5580.43 18.219999999999942 L 5580.43 -5.684341886080802e-14 L 5469.84 -5.684341886080802e-14 L 5469.84 18.219999999999942 L 5514.76 18.219999999999942 L 5514.76 144.55999999999995 z M 5725.320000000001 -5.684341886080802e-14 L 5680.750000000001 120.07999999999994 L 5635.460000000001 -5.684341886080802e-14 L 5601.280000000001 -5.684341886080802e-14 L 5601.280000000001 144.55999999999995 L 5621.9800000000005 144.55999999999995 L 5621.9800000000005 19.449999999999946 L 5622.410000000001 19.449999999999946 L 5670.220000000001 144.55999999999995 L 5690.560000000001 144.55999999999995 L 5738.370000000002 19.449999999999946 L 5738.800000000002 19.449999999999946 L 5738.800000000002 144.55999999999995 L 5759.510000000002 144.55999999999995 L 5759.510000000002 -5.684341886080802e-14 L 5725.330000000002 -5.684341886080802e-14 z" stroke-linecap="round" />
</g>
<g transform="matrix(0.08 0 0 0.08 391.35 518.37)"  >
<path style="stroke: none; stroke-width: 1; stroke-dasharray: none; stroke-linecap: butt; stroke-dashoffset: 0; stroke-linejoin: miter; stroke-miterlimit: 4; fill: rgb(151,144,144); fill-rule: evenodd; opacity: 1;" vector-effect="non-scaling-stroke"  transform=" translate(-2800.81, -1197)" d="M 1921.64 576.92 L 1922.2900000000002 571.8499999999999 C 1925.13 550.8999999999999 1928.8700000000001 529.9799999999999 1933.4 509.4199999999999 L 1933.8000000000002 507.5799999999999 L 1802.64 428.2899999999999 C 1799.99 426.5199999999999 1796.8600000000001 425.5799999999999 1793.68 425.5799999999999 C 1789.47 425.5799999999999 1785.42 427.2199999999999 1782.4 430.1599999999999 C 1780.16 432.5199999999999 1778.91 435.6699999999999 1778.91 438.9299999999999 C 1778.91 439.2599999999999 1778.93 439.5999999999999 1778.95 439.9299999999999 C 1779.31 443.4499999999999 1781.29 446.7599999999999 1783.8700000000001 449.1699999999999 L 1921.64 576.9099999999999 L 1921.64 576.9199999999998 z M 1918.94 790.9499999999999 L 1918.3300000000002 785.42 C 1915.4800000000002 758.2099999999999 1914.0300000000002 730.4599999999999 1914.0300000000002 703.01 C 1914.0300000000002 699.8199999999999 1914.13 696.4399999999999 1914.13 693.34 L 1668.96 595.25 C 1662.21 592.31 1653.25 594.35 1649.41 600.46 C 1648.0500000000002 602.48 1647.3500000000001 604.84 1647.3500000000001 607.26 C 1647.3500000000001 608.3199999999999 1647.4900000000002 609.38 1647.7500000000002 610.41 C 1648.7500000000002 614 1651.1700000000003 617.04 1654.4400000000003 618.8299999999999 L 1918.9400000000003 790.9599999999999 L 1918.9400000000003 790.9599999999999 z M 1559.6200000000001 805.66 L 1974.69 987.31 L 1971.6000000000001 980.8 C 1953.97 943.2099999999999 1940.3300000000002 903.55 1931.19 862.99 L 1930.8400000000001 861.33 L 1569.3200000000002 780.75 C 1562.0200000000002 778.85 1554.0000000000002 782.08 1551.3500000000001 788.66 C 1550.71 790.1899999999999 1550.39 791.79 1550.39 793.41 C 1550.39 795.23 1550.8000000000002 797.04 1551.5800000000002 798.6899999999999 C 1553.13 801.92 1556.0100000000002 804.51 1559.64 805.66 z M 2595.3100000000004 1399.76 C 2367.76 1321.66 2109.8 1233.02 1986.5100000000004 1009.8499999999999 L 1985.8300000000004 1008.56 L 1507.9300000000003 978.4699999999999 C 1500.3900000000003 977.6399999999999 1492.6200000000003 982.4599999999999 1491.2500000000002 989.4699999999999 C 1491.0900000000001 990.2699999999999 1491.0100000000002 991.0899999999999 1491.0100000000002 991.91 C 1491.0100000000002 994.49 1491.8200000000002 997.01 1493.3400000000001 999.1 C 1495.64 1002.28 1499.1100000000001 1004.45 1502.9800000000002 1005.1 L 1981.88 1128.06 C 1983.3500000000001 1128.35 1985.15 1128.8899999999999 1985.8300000000002 1130.08 C 1986.2600000000002 1130.74 1986.4900000000002 1131.53 1986.4900000000002 1132.32 C 1986.4900000000002 1132.45 1986.4800000000002 1132.58 1986.4700000000003 1132.7 C 1986.2900000000002 1135.25 1983.9200000000003 1136.73 1981.1800000000003 1136.51 L 1485.3100000000004 1182.98 C 1477.6900000000005 1183.38 1470.9700000000005 1189.34 1470.9700000000005 1196.57 C 1471.0000000000005 1199.97 1472.4000000000005 1203.21 1474.8600000000006 1205.55 C 1477.4800000000005 1208.28 1481.4000000000005 1209.86 1485.2800000000007 1210.05 L 1980.5700000000006 1256.56 C 1983.1600000000005 1256.6699999999998 1985.3900000000006 1257.96 1985.6400000000006 1260.19 C 1985.6600000000005 1260.3600000000001 1985.6700000000005 1260.54 1985.6700000000005 1260.72 C 1985.6700000000005 1261.79 1985.3000000000006 1262.82 1984.6300000000006 1263.64 C 1983.8800000000006 1264.51 1982.9800000000005 1264.8300000000002 1981.7900000000006 1265.0800000000002 L 1501.8100000000006 1388.2600000000002 C 1498.3100000000006 1388.9600000000003 1495.2400000000007 1391.0500000000002 1493.2900000000006 1394.0500000000002 C 1491.7500000000007 1396.17 1490.9100000000005 1398.7300000000002 1490.9100000000005 1401.3500000000001 C 1490.9100000000005 1402.13 1490.9900000000005 1402.92 1491.1300000000006 1403.68 C 1492.5300000000007 1410.6100000000001 1500.4700000000005 1415.15 1507.8800000000006 1414.6100000000001 L 2004.2500000000005 1383.42 C 2006.9500000000005 1382.95 2009.4600000000005 1384.0700000000002 2010.1500000000005 1386.3000000000002 C 2010.2500000000005 1386.6800000000003 2010.2900000000006 1387.0800000000002 2010.2900000000006 1387.4800000000002 C 2010.2900000000006 1388.3000000000002 2010.0800000000006 1389.1100000000004 2009.6800000000007 1389.8100000000002 C 2009.1000000000008 1390.7800000000002 2008.1700000000008 1391.4900000000002 2007.0900000000008 1391.7900000000002 L 1559.6000000000008 1587.17 C 1556.000000000001 1588.65 1553.0500000000009 1591.39 1551.2900000000009 1594.8700000000001 C 1550.5400000000009 1596.45 1550.1600000000008 1598.18 1550.1600000000008 1599.92 C 1550.1600000000008 1601.52 1550.4800000000007 1603.1000000000001 1551.1100000000008 1604.5700000000002 C 1553.8100000000009 1611.14 1562.3600000000008 1614.3400000000001 1569.8400000000008 1612.7600000000002 L 2052.0500000000006 1504.6400000000003 C 2056.330000000001 1503.7700000000004 2057.9800000000005 1504.9300000000003 2059.0500000000006 1507.1500000000003 C 2059.310000000001 1507.6200000000003 2059.4400000000005 1508.1500000000003 2059.4400000000005 1508.6900000000003 C 2059.4400000000005 1509.1100000000004 2059.3600000000006 1509.5300000000002 2059.1900000000005 1509.9200000000003 C 2058.7400000000007 1511.1600000000003 2057.7700000000004 1512.1400000000003 2056.5300000000007 1512.6200000000003 L 1654.5100000000007 1774.1700000000003 C 1651.0800000000006 1776.0200000000002 1648.5500000000006 1779.1700000000003 1647.4600000000007 1782.9000000000003 C 1647.1800000000007 1783.9500000000003 1647.0400000000006 1785.0300000000004 1647.0400000000006 1786.1200000000003 C 1647.0400000000006 1788.5200000000004 1647.7400000000007 1790.8700000000003 1649.0400000000006 1792.8900000000003 C 1652.9600000000007 1798.9700000000003 1662.5200000000007 1801.2300000000002 1669.0200000000007 1797.8900000000003 L 2122.580000000001 1616.5900000000004 C 2124.7000000000007 1615.2600000000004 2127.870000000001 1615.7200000000005 2129.340000000001 1617.6700000000003 C 2130.020000000001 1618.5200000000002 2130.3900000000012 1619.5800000000004 2130.3900000000012 1620.6700000000003 C 2130.3900000000012 1620.9700000000003 2130.360000000001 1621.2800000000002 2130.300000000001 1621.5800000000004 C 2130.200000000001 1622.4900000000005 2129.710000000001 1623.3100000000004 2128.940000000001 1623.8100000000004 L 1783.640000000001 1943.8500000000004 C 1780.880000000001 1946.4600000000003 1779.060000000001 1949.9300000000003 1778.500000000001 1953.7000000000003 C 1778.180000000001 1957.3000000000002 1779.470000000001 1960.4200000000003 1781.910000000001 1963.1200000000003 C 1786.940000000001 1968.4100000000003 1796.830000000001 1969.2300000000002 1802.580000000001 1964.8800000000003 L 2214.1200000000013 1715.7200000000003 C 2215.090000000001 1714.9100000000003 2216.3100000000013 1714.4700000000003 2217.5800000000013 1714.4700000000003 C 2218.8400000000015 1714.4700000000003 2220.0600000000013 1714.9100000000003 2221.030000000001 1715.7200000000003 C 2223.260000000001 1717.7700000000002 2222.930000000001 1718.9200000000003 2222.860000000001 1719.3900000000003 C 2222.790000000001 1720.6500000000003 2221.720000000001 1722.1200000000003 2221.720000000001 1722.1200000000003 L 1942.9800000000012 2092.2200000000003 C 1941.290000000001 2094.26 1940.350000000001 2096.8300000000004 1940.350000000001 2099.4800000000005 C 1940.350000000001 2100.0000000000005 1940.390000000001 2100.5200000000004 1940.460000000001 2101.0300000000007 C 1940.870000000001 2104.6800000000007 1942.8300000000008 2107.9900000000007 1945.850000000001 2110.0900000000006 C 1951.710000000001 2114.5900000000006 1961.200000000001 2113.4700000000007 1966.2300000000012 2108.6500000000005 L 2323.2900000000013 1799.3300000000006 C 2324.8300000000013 1797.3900000000006 2328.3200000000015 1796.6300000000006 2330.3300000000013 1798.0300000000007 C 2332.050000000001 1799.2100000000007 2332.8400000000015 1800.5800000000006 2332.9600000000014 1801.8000000000006 C 2332.930000000001 1802.8200000000006 2332.6300000000015 1803.8300000000006 2332.0900000000015 1804.7100000000007 L 2130.0600000000013 2210.8200000000006 C 2128.9200000000014 2212.8800000000006 2128.3100000000013 2215.1900000000005 2128.3100000000013 2217.5400000000004 C 2128.3100000000013 2218.6300000000006 2128.4400000000014 2219.7200000000003 2128.6900000000014 2220.7700000000004 C 2129.7000000000016 2224.4600000000005 2132.2200000000016 2227.5500000000006 2135.6200000000013 2229.2900000000004 C 2142.3100000000013 2232.78 2151.720000000001 2230.4400000000005 2155.570000000001 2224.51 C 2155.570000000001 2224.51 2449.260000000001 1861.8500000000001 2449.940000000001 1862.1400000000003 C 2508.810000000001 1889.2400000000002 2566.530000000001 1906.5600000000004 2612.650000000001 1910.9800000000002 C 2751.740000000001 1924.3900000000003 2881.790000000001 1893.1500000000003 2952.020000000001 1829.3900000000003 C 2988.460000000001 1796.2100000000003 3006.9700000000007 1756.5300000000004 3006.9700000000007 1711.3900000000003 C 3007.0100000000007 1541.1700000000003 2816.1600000000008 1475.6100000000004 2595.250000000001 1399.7300000000002 L 2595.250000000001 1399.7300000000002 z M 3546.8600000000006 1944.87 L 3545.3100000000004 1949.76 C 3538.8900000000003 1970 3531.4300000000003 1990.16 3523.1500000000005 2009.76 L 3522.3200000000006 2011.6 L 3635.140000000001 2109.72 C 3638.080000000001 2112.2 3641.830000000001 2113.58 3645.7000000000007 2113.58 C 3649.140000000001 2113.58 3652.5100000000007 2112.49 3655.3000000000006 2110.48 C 3658.2700000000004 2108.23 3660.1700000000005 2104.84 3660.5500000000006 2101.13 C 3660.5700000000006 2100.84 3660.580000000001 2100.54 3660.580000000001 2100.23 C 3660.580000000001 2097.11 3659.500000000001 2094.09 3657.5300000000007 2091.68 L 3546.8600000000006 1944.8899999999999 L 3546.8600000000006 1944.8899999999999 z M 3584.0600000000004 1727.81 L 3583.6300000000006 1733.4199999999998 C 3581.5500000000006 1764.6799999999998 3578.0300000000007 1796.09 3573.4300000000007 1827.1 L 3573.140000000001 1828.79 L 3799.2600000000007 1965.73 C 3805.0100000000007 1970.04 3814.140000000001 1968.82 3819.140000000001 1963.5 C 3821.4100000000008 1961.17 3822.670000000001 1958.04 3822.670000000001 1954.79 C 3822.670000000001 1954.44 3822.650000000001 1954.07 3822.620000000001 1953.71 C 3822.290000000001 1950.29 3820.650000000001 1947.1200000000001 3818.0500000000006 1944.8700000000001 L 3584.0600000000004 1727.8100000000002 z M 3578.6300000000006 1535.12 L 3579.4600000000005 1540.9799999999998 C 3584.2400000000007 1573.1799999999998 3586.6100000000006 1606.8599999999997 3586.6100000000006 1641.3299999999997 L 3586.4000000000005 1659.8099999999997 L 3932.8500000000004 1798.6499999999996 C 3939.4600000000005 1801.6699999999996 3948.3100000000004 1799.3999999999996 3952.2200000000003 1793.3999999999996 C 3953.5000000000005 1791.3799999999997 3954.19 1789.0399999999997 3954.19 1786.6499999999996 C 3954.19 1785.5699999999997 3954.05 1784.4899999999996 3953.77 1783.4399999999996 C 3952.7599999999998 1779.9499999999996 3950.47 1776.9599999999996 3947.38 1775.0699999999997 L 3578.6400000000003 1535.1099999999997 z M 4126.6900000000005 1188.1999999999998 C 4123.960000000001 1185.5599999999997 4120.38 1183.9599999999998 4116.59 1183.6999999999998 L 3620.9 1137.1899999999998 C 3618.39 1137.4099999999999 3616.34 1135.7499999999998 3616.12 1133.4599999999998 C 3616.1099999999997 1133.3199999999997 3616.1 1133.1699999999998 3616.1 1133.0399999999997 C 3616.1 1131.9699999999998 3616.45 1130.9299999999998 3617.0899999999997 1130.0799999999997 C 3617.8099999999995 1129.2699999999998 3618.8099999999995 1128.7699999999998 3619.89 1128.6799999999996 L 4098.8 1005.8999999999996 C 4102.64 1005.1799999999996 4106.070000000001 1002.9999999999997 4108.35 999.8199999999996 C 4109.870000000001 997.6899999999996 4110.6900000000005 995.1399999999996 4110.6900000000005 992.5199999999996 C 4110.6900000000005 991.7399999999997 4110.610000000001 990.9599999999997 4110.47 990.1899999999996 C 4109.070000000001 983.2199999999996 4101.56 978.7199999999996 4093.61 979.2599999999996 L 3596.81 1010.5299999999996 C 3594.2999999999997 1011.1399999999996 3591.89 1009.8799999999997 3591.21 1007.6199999999997 C 3591.07 1007.2099999999997 3591.01 1006.7899999999996 3591.01 1006.3599999999997 C 3591.01 1005.5899999999997 3591.2200000000003 1004.8199999999997 3591.63 1004.1699999999996 C 3592.12 1003.2899999999996 3592.96 1002.6499999999996 3593.9300000000003 1002.4099999999996 L 4042.17 806.7699999999996 C 4045.77 805.5399999999996 4048.7000000000003 802.8699999999997 4050.26 799.4099999999996 C 4051.05 797.7599999999996 4051.46 795.9499999999996 4051.46 794.1199999999997 C 4051.46 792.5299999999996 4051.15 790.9599999999997 4050.54 789.4799999999997 C 4047.88 782.8699999999997 4039.12 779.9299999999997 4031.81 781.6499999999996 L 3548.35 889.5899999999997 C 3545.91 890.6999999999997 3542.5299999999997 890.0599999999997 3541.56 888.1099999999997 C 3541.2799999999997 887.5299999999996 3541.13 886.8999999999996 3541.13 886.2599999999996 C 3541.13 885.7399999999997 3541.23 885.2199999999997 3541.42 884.7299999999997 C 3541.9500000000003 883.7099999999997 3542.75 882.8399999999997 3543.7200000000003 882.2199999999997 L 3947.51 619.6999999999997 C 3950.76 617.7999999999997 3953.17 614.7199999999997 3954.26 611.1099999999997 C 3954.5200000000004 610.0999999999997 3954.6400000000003 609.0499999999997 3954.6400000000003 608.0199999999996 C 3954.6400000000003 605.5899999999997 3953.9500000000003 603.2099999999997 3952.6400000000003 601.1599999999996 C 3948.8 595.1199999999997 3939.9200000000005 592.9999999999997 3932.9100000000003 596.0499999999996 L 3477.0800000000004 778.1399999999996 C 3474.8900000000003 779.5399999999996 3472.1600000000003 779.2199999999997 3470.76 777.3499999999997 C 3470.1000000000004 776.5299999999996 3469.7400000000002 775.5099999999996 3469.7400000000002 774.4699999999997 C 3469.7400000000002 774.2599999999996 3469.76 774.0399999999997 3469.7900000000004 773.8299999999997 C 3469.9600000000005 772.8899999999996 3470.5200000000004 772.0599999999997 3471.3300000000004 771.5599999999997 L 3818.3300000000004 449.8799999999997 C 3820.9700000000003 447.5099999999997 3822.6900000000005 444.2699999999997 3823.1800000000003 440.7499999999997 C 3823.2000000000003 440.4299999999997 3823.2200000000003 440.09999999999974 3823.2200000000003 439.7799999999997 C 3823.2200000000003 436.4999999999997 3821.9700000000003 433.3599999999997 3819.7300000000005 430.9699999999997 C 3814.7300000000005 425.6499999999997 3806.1800000000003 424.42999999999967 3800.4200000000005 428.73999999999967 L 3385.4600000000005 679.4399999999996 C 3384.5300000000007 680.2199999999996 3383.3500000000004 680.6499999999996 3382.1200000000003 680.6499999999996 C 3380.8500000000004 680.6499999999996 3379.61 680.1799999999996 3378.6600000000003 679.3199999999996 C 3377.9100000000003 678.5699999999996 3377.4 677.7799999999996 3377.4 676.7799999999996 C 3377.4 675.7699999999996 3377.83 674.5099999999996 3378.59 673.6899999999996 L 3657.79 303.0899999999996 C 3659.93 300.4499999999996 3661.1 297.1499999999996 3661.1 293.7499999999996 C 3661.1 293.5999999999996 3661.0899999999997 293.4599999999996 3661.0899999999997 293.3099999999996 C 3660.8199999999997 289.5899999999996 3658.91 286.1799999999996 3655.8799999999997 283.9999999999996 C 3649.8399999999997 279.4999999999996 3640.0999999999995 280.3299999999996 3635.2499999999995 285.5099999999996 L 3276.5399999999995 596.2699999999995 C 3274.9299999999994 598.2799999999995 3272.0499999999997 599.2099999999996 3269.9299999999994 597.8499999999996 C 3268.7499999999995 597.1299999999995 3267.9599999999996 596.3399999999996 3267.7399999999993 595.1199999999995 C 3267.7199999999993 594.9099999999995 3267.709999999999 594.6999999999996 3267.709999999999 594.4999999999995 C 3267.709999999999 593.6999999999996 3267.869999999999 592.9099999999995 3268.169999999999 592.1799999999995 L 3471.6799999999994 183.1799999999995 C 3472.8499999999995 181.1999999999995 3473.4599999999996 178.9299999999995 3473.4599999999996 176.6399999999995 C 3473.4599999999996 175.49999999999952 3473.3099999999995 174.3699999999995 3473.0199999999995 173.2699999999995 C 3471.9999999999995 169.5699999999995 3469.4499999999994 166.4799999999995 3466.0099999999993 164.7799999999995 C 3459.3199999999993 161.3299999999995 3450.0899999999992 163.2999999999995 3446.2799999999993 169.2799999999995 L 3146.729999999999 537.5099999999995 C 3063.879999999999 497.13999999999953 2925.399999999999 473.2799999999995 2861.099999999999 473.2799999999995 C 2859.949999999999 473.2799999999995 2857.969999999999 473.2399999999995 2855.419999999999 473.13999999999953 C 2723.769999999999 469.8999999999995 2625.8199999999993 495.85999999999956 2572.159999999999 548.2199999999996 C 2541.139999999999 578.4399999999996 2525.3999999999987 617.5499999999996 2525.3999999999987 664.3099999999996 C 2525.3999999999987 728.6499999999996 2561.739999999999 781.3399999999996 2639.589999999999 830.1499999999996 C 2709.2499999999986 873.8199999999996 2805.929999999999 910.2699999999996 2908.409999999999 949.0199999999996 C 3042.009999999999 999.4499999999996 3193.509999999999 1056.6599999999996 3317.539999999999 1142.2099999999996 C 3459.909999999999 1240.2999999999995 3543.659999999999 1360.2699999999995 3573.999999999999 1509.1099999999997 L 3574.289999999999 1510.7999999999997 L 4033.059999999999 1613.5299999999997 C 4034.289999999999 1613.8499999999997 4035.549999999999 1614.0199999999998 4036.8199999999993 1614.0199999999998 C 4042.689999999999 1614.0199999999998 4047.999999999999 1610.5099999999998 4050.309999999999 1605.1099999999997 C 4050.929999999999 1603.6399999999996 4051.249999999999 1602.0599999999997 4051.249999999999 1600.4599999999996 C 4051.249999999999 1598.6399999999996 4050.829999999999 1596.8299999999995 4050.019999999999 1595.1899999999996 C 4048.2799999999993 1591.9899999999996 4045.459999999999 1589.5099999999995 4042.079999999999 1588.1799999999996 L 3594.699999999999 1392.5399999999995 C 3593.6499999999987 1392.2499999999995 3592.739999999999 1391.5499999999995 3592.1899999999987 1390.5999999999995 C 3591.7499999999986 1389.8599999999994 3591.509999999999 1389.0299999999995 3591.509999999999 1388.1699999999994 C 3591.509999999999 1387.7399999999993 3591.569999999999 1387.3099999999995 3591.679999999999 1386.8999999999994 C 3592.3999999999987 1384.6699999999994 3594.989999999999 1383.3799999999994 3597.579999999999 1384.0199999999993 L 4094.0899999999992 1415.4699999999993 C 4101.819999999999 1416.1199999999994 4108.98 1411.3999999999994 4110.379999999999 1404.3599999999994 C 4110.529999999999 1403.5799999999995 4110.609999999999 1402.7899999999995 4110.609999999999 1401.9899999999996 C 4110.609999999999 1399.3799999999997 4109.789999999999 1396.8399999999995 4108.259999999998 1394.7299999999996 C 4106.029999999999 1391.6499999999996 4102.719999999998 1389.5299999999995 4098.979999999999 1388.7999999999995 L 3620.299999999999 1265.8699999999994 C 3619.0199999999986 1265.7799999999995 3617.829999999999 1265.1799999999994 3616.989999999999 1264.2199999999993 C 3616.389999999999 1263.5299999999993 3616.059999999999 1262.6599999999994 3616.059999999999 1261.7499999999993 C 3616.059999999999 1261.5899999999992 3616.0699999999993 1261.4299999999994 3616.0899999999992 1261.2699999999993 C 3616.4099999999994 1258.9499999999994 3618.399999999999 1257.2199999999993 3620.749999999999 1257.2199999999993 C 3620.909999999999 1257.2199999999993 3621.0699999999993 1257.2299999999993 3621.219999999999 1257.2499999999993 L 4116.329999999999 1210.7699999999993 C 4120.319999999999 1210.5199999999993 4124.129999999999 1208.9799999999993 4126.719999999999 1206.3899999999992 C 4129.299999999999 1203.7999999999993 4130.639999999999 1200.5999999999992 4130.639999999999 1197.2899999999993 C 4130.639999999999 1193.9799999999993 4129.3099999999995 1190.7499999999993 4126.69 1188.1899999999994 L 4126.69 1188.1999999999994 z" stroke-linecap="round" />
</g>
</svg>