<?xml version="1.0" encoding="UTF-8" standalone="no" ?>
<!DOCTYPE svg PUBLIC "-//W3C//DTD SVG 1.1//EN" "http://www.w3.org/Graphics/SVG/1.1/DTD/svg11.dtd">
<svg xmlns="http://www.w3.org/2000/svg" xmlns:xlink="http://www.w3.org/1999/xlink" version="1.1" width="1080" height="1080" viewBox="0 0 1080 1080" xml:space="preserve">
<desc>Created with Fabric.js 5.2.4</desc>
<defs>
</defs>
<rect x="0" y="0" width="100%" height="100%" fill="transparent"></rect>
<g transform="matrix(1 0 0 1 540 540)" id="92f5c52b-5881-4802-a583-6f31291c12d8"  >
<rect style="stroke: none; stroke-width: 1; stroke-dasharray: none; stroke-linecap: butt; stroke-dashoffset: 0; stroke-linejoin: miter; stroke-miterlimit: 4; fill: rgb(255,255,255); fill-rule: nonzero; opacity: 1; visibility: hidden;" vector-effect="non-scaling-stroke"  x="-540" y="-540" rx="0" ry="0" width="1080" height="1080" />
</g>
<g transform="matrix(1 0 0 1 540 540)" id="af5fd1e3-897f-4495-b8d7-52955d9d1da8"  >
</g>
<g transform="matrix(2.31 0 0 2.31 540 509.04)"  >
<g style="" vector-effect="non-scaling-stroke"   >
		<g transform="matrix(0.05 0 0 0.05 68.34 0.14)"  >
<path style="stroke: none; stroke-width: 1; stroke-dasharray: none; stroke-linecap: butt; stroke-dashoffset: 0; stroke-linejoin: miter; stroke-miterlimit: 4; fill: rgb(0,0,0); fill-rule: evenodd; opacity: 1;" vector-effect="non-scaling-stroke"  transform=" translate(-5002, -1080.14)" d="M 2574.2 994.34 L 2574.2 80.73000000000002 L 2907.33 80.73000000000002 C 2977.97 80.73000000000002 3023.43 95.87000000000002 3063.81 111.01000000000002 C 3154.67 156.43 3195.0099999999998 242.26000000000002 3195.0099999999998 317.94000000000005 C 3195.0099999999998 403.7800000000001 3159.68 464.32000000000005 3088.9799999999996 509.75000000000006 C 3195.0099999999998 534.98 3255.5899999999997 605.6500000000001 3255.5899999999997 716.6800000000001 C 3255.5899999999997 842.8600000000001 3179.8599999999997 933.69 3053.6499999999996 974.1200000000001 C 3008.24 989.2400000000001 2957.7699999999995 994.3000000000001 2882.0399999999995 994.3000000000001 L 2574.1899999999996 994.3000000000001 L 2574.1899999999996 994.35 z M 2983.0299999999997 237.21000000000004 C 2957.7799999999997 227.11000000000004 2932.56 222.06000000000003 2897.1899999999996 222.06000000000003 L 2725.5899999999997 222.06000000000003 L 2725.5899999999997 459.27000000000004 L 2887.0999999999995 459.27000000000004 C 2932.5199999999995 459.27000000000004 2962.8299999999995 454.21000000000004 2988.0499999999993 439.09000000000003 C 3022.7799999999993 419.73 3044.0899999999992 382.91 3043.5699999999993 343.16 C 3043.5699999999993 297.79 3018.3399999999992 257.39000000000004 2983.019999999999 237.21000000000004 z M 3028.4799999999996 615.75 C 3008.2799999999997 605.65 2977.9699999999993 600.6 2927.4999999999995 600.6 L 2725.6099999999997 600.6 L 2725.6099999999997 852.95 L 2912.37 852.95 C 2972.92 852.95 3003.24 842.85 3028.47 832.7700000000001 C 3073.8799999999997 812.58 3094.0699999999997 772.1700000000001 3094.0699999999997 721.7200000000001 C 3094.0699999999997 671.2500000000001 3073.8799999999997 635.9700000000001 3028.47 615.7400000000001 z M 4164.11 994.3399999999999 L 4164.11 80.7299999999999 L 4320.62 80.7299999999999 L 4320.62 994.3399999999999 L 4164.11 994.3399999999999 z M 5299.79 994.3399999999999 L 5299.79 80.7299999999999 L 5456.33 80.7299999999999 L 5456.33 994.3399999999999 L 5299.79 994.3399999999999 z M 5956 75.67999999999995 C 6056.86 75.67999999999995 6157.87 100.90999999999995 6213.4 126.17999999999995 L 6208.32 277.60999999999996 C 6127.5599999999995 237.23999999999995 6051.94 211.95999999999995 5956.049999999999 211.95999999999995 C 5870.159999999999 211.95999999999995 5794.529999999999 237.20999999999995 5794.529999999999 307.89 C 5794.529999999999 494.64 6263.899999999999 418.9 6263.899999999999 726.8 C 6263.899999999999 898.41 6122.589999999998 1004.42 5910.619999999999 1004.42 C 5769.249999999999 1004.42 5673.319999999999 964.0699999999999 5602.659999999999 923.64 L 5668.289999999999 797.45 C 5723.879999999999 832.7700000000001 5814.739999999999 868.11 5915.639999999999 868.11 C 6011.469999999999 868.11 6097.36 832.77 6097.36 752.03 C 6097.36 555.15 5633.0199999999995 640.98 5633.0199999999995 333.08 C 5632.959999999999 166.55999999999997 5764.129999999999 75.68 5956 75.68 z M 7000.82 994.3399999999999 L 7000.82 600.6599999999999 L 6561.599999999999 600.6599999999999 L 6561.599999999999 994.3399999999999 L 6405.16 994.3399999999999 L 6405.16 80.7299999999999 L 6561.599999999999 80.7299999999999 L 6561.599999999999 454.2799999999999 L 7000.82 454.2799999999999 L 7000.82 80.7299999999999 L 7157.21 80.7299999999999 L 7157.21 994.3399999999999 L 7000.82 994.3399999999999 z M 2917.4199999999996 1150.81 C 3013.2899999999995 1150.81 3089.0199999999995 1171.01 3169.7499999999995 1206.31 L 3124.3499999999995 1337.56 C 3078.9299999999994 1317.32 3018.3399999999992 1292.1399999999999 2932.5499999999993 1292.1399999999999 C 2760.939999999999 1292.1399999999999 2654.9299999999994 1438.52 2654.9299999999994 1615.1799999999998 C 2654.9299999999994 1796.9299999999998 2755.879999999999 1943.2599999999998 2932.5499999999993 1943.2599999999998 C 3018.3499999999995 1943.2599999999998 3078.9299999999994 1918.0399999999997 3124.3499999999995 1897.8399999999997 L 3169.7499999999995 2029.0399999999997 C 3088.9699999999993 2064.3599999999997 3013.2899999999995 2084.6 2917.4199999999996 2084.6 C 2644.8299999999995 2084.6 2488.3699999999994 1892.81 2488.3699999999994 1620.23 C 2488.3699999999994 1362.79 2644.8299999999995 1150.81 2917.4199999999996 1150.81 z M 6329.53 1150.81 C 6430.44 1150.81 6506.17 1171.01 6581.8 1206.31 L 6536.43 1337.56 C 6491 1317.32 6430.450000000001 1292.1399999999999 6344.66 1292.1399999999999 C 6172.99 1292.1399999999999 6067.0599999999995 1438.52 6067.0599999999995 1615.1799999999998 C 6067.0599999999995 1796.9299999999998 6168.009999999999 1943.2599999999998 6344.66 1943.2599999999998 C 6430.44 1943.2599999999998 6491 1918.0399999999997 6536.43 1897.8399999999997 L 6581.8 2029.0399999999997 C 6506.12 2064.3599999999997 6430.4400000000005 2084.6 6329.53 2084.6 C 6056.9 2084.6 5900.469999999999 1892.81 5900.469999999999 1620.23 C 5900.469999999999 1362.79 6056.909999999999 1150.81 6329.53 1150.81 z M 4058.0899999999997 1615.1499999999999 C 4058.0899999999997 1887.7199999999998 3886.5099999999998 2084.6099999999997 3629.0899999999997 2084.6099999999997 C 3371.66 2084.6099999999997 3200.0299999999997 1892.8199999999997 3200.0299999999997 1620.2399999999998 C 3200.0299999999997 1347.6699999999998 3371.7 1150.8199999999997 3629.0899999999997 1150.8199999999997 C 3891.5599999999995 1150.8199999999997 4058.0899999999997 1342.6299999999997 4058.0899999999997 1615.1599999999996 z M 3896.5699999999997 1615.1499999999999 C 3896.5699999999997 1418.29 3780.5599999999995 1292.11 3629.0899999999997 1292.11 C 3477.66 1292.11 3361.5899999999997 1418.29 3361.5899999999997 1620.1899999999998 C 3361.5899999999997 1817.06 3477.7 1943.2299999999998 3629.0899999999997 1943.2299999999998 C 3780.5599999999995 1943.2299999999998 3896.5699999999997 1817.0599999999997 3896.5699999999997 1615.1499999999999 z M 4164.099999999999 1726.2099999999998 L 4164.099999999999 1160.9099999999999 L 4320.61 1160.9099999999999 L 4320.61 1731.2599999999998 C 4320.61 1887.7199999999998 4401.389999999999 1943.2399999999998 4532.589999999999 1943.2399999999998 C 4663.789999999999 1943.2399999999998 4744.569999999999 1887.7199999999998 4744.569999999999 1731.2599999999998 L 4744.569999999999 1160.9099999999999 L 4900.989999999999 1160.9099999999999 L 4900.989999999999 1726.2099999999998 C 4900.989999999999 1973.5499999999997 4759.659999999999 2084.6099999999997 4532.579999999999 2084.6099999999997 C 4305.419999999999 2084.6099999999997 4164.089999999999 1973.5499999999997 4164.089999999999 1726.2099999999996 z M 5193.75 1408.2199999999998 L 5188.77 1408.2199999999998 C 5193.75 1438.4899999999998 5193.75 1488.9999999999998 5193.75 1529.36 L 5193.75 2069.43 L 5037.33 2069.43 L 5037.33 1160.9199999999998 L 5208.98 1160.9199999999998 L 5627.839999999999 1781.77 L 5632.969999999999 1781.77 C 5627.839999999999 1751.48 5627.839999999999 1700.99 5627.839999999999 1660.61 L 5627.839999999999 1160.9199999999998 L 5784.379999999999 1160.9199999999998 L 5784.379999999999 2069.43 L 5648.039999999999 2069.43 L 5193.749999999999 1408.2299999999998 z M 6703.01 2069.42 L 6703.01 1160.91 L 6859.45 1160.91 L 6859.45 2069.42 L 6703.01 2069.42 z M 7000.820000000001 2069.42 L 7000.820000000001 1160.91 L 7157.210000000001 1160.91 L 7157.210000000001 1928.1200000000001 L 7515.620000000001 1928.1200000000001 L 7515.620000000001 2069.42 L 7000.820000000001 2069.42 z M 5178.67 85.82000000000016 L 4441.73 85.82000000000016 L 4441.73 227.12000000000018 L 4734.49 227.12000000000018 L 4734.49 994.3500000000001 L 4891.01 994.3500000000001 L 4891.01 227.12000000000012 L 5178.67 227.12000000000012 L 5178.67 85.8200000000001 z M 3886.5600000000004 994.3500000000001 C 3755.2700000000004 716.7200000000001 3719.9500000000003 641.0300000000002 3664.4500000000003 641.0300000000002 L 3518.07 641.0300000000002 L 3518.07 994.3500000000001 L 3361.59 994.3500000000001 L 3361.59 85.82000000000016 L 3669.5 85.82000000000016 C 3906.7 85.82000000000016 3992.57 206.98000000000016 3992.57 343.2300000000002 C 3992.57 469.4200000000002 3926.94 550.1600000000002 3825.96 580.4300000000002 C 3866.39 605.6600000000002 3911.84 691.4900000000002 4063.25 994.3500000000001 L 3886.56 994.3500000000001 z M 3679.55 222.08000000000015 L 3518.02 222.08000000000015 L 3518.02 499.71000000000015 L 3674.5 499.71000000000015 C 3785.56 499.71000000000015 3835.97 444.19000000000017 3835.97 358.3600000000001 C 3836.02 282.6800000000001 3790.6 222.08000000000013 3679.5499999999997 222.08000000000013 z" stroke-linecap="round" />
</g>
		<g transform="matrix(0.05 0 0 0.05 -147.21 0)"  >
<path style="stroke: none; stroke-width: 1; stroke-dasharray: none; stroke-linecap: butt; stroke-dashoffset: 0; stroke-linejoin: miter; stroke-miterlimit: 4; fill: rgb(0,0,0); fill-rule: evenodd; opacity: 1;" vector-effect="non-scaling-stroke"  transform=" translate(-1077.63, -1077.63)" d="M 1044.79 519.88 C 1044.79 807.5899999999999 807.5899999999999 1039.76 519.88 1039.76 C 237.20999999999998 1039.76 0 807.55 0 519.88 C 0 232.2 237.21 0.009999999999990905 519.88 0.009999999999990905 C 807.5899999999999 0.009999999999990905 1044.79 232.16 1044.79 519.88 z M 2155.25 519.88 C 2155.44 657.81 2100.72 790.16 2003.2 887.71 C 1905.65 985.25 1773.31 1039.95 1635.3700000000001 1039.76 C 1347.65 1039.76 1115.48 807.55 1115.48 519.88 C 1115.48 232.2 1347.69 0.009999999999990905 1635.37 0.009999999999990905 C 1773.3 -0.2000000000000091 1905.6499999999999 54.50999999999999 2003.1999999999998 152.06 C 2100.71 249.60000000000002 2155.43 381.93 2155.25 519.88 z M 1044.79 1635.38 C 1044.79 1923.0900000000001 807.5899999999999 2155.25 519.88 2155.25 C 237.20999999999998 2155.25 0 1923.04 0 1635.38 C 0 1347.6100000000001 237.21 1115.48 519.88 1115.48 C 807.5899999999999 1115.48 1044.79 1347.6100000000001 1044.79 1635.38 z M 2155.25 1635.38 C 2155.44 1773.3100000000002 2100.72 1905.66 2003.2 2003.19 C 1905.65 2100.73 1773.31 2155.44 1635.3700000000001 2155.25 C 1497.42 2155.44 1365.0800000000002 2100.73 1267.5400000000002 2003.19 C 1170.0000000000002 1905.66 1115.2900000000002 1773.31 1115.4800000000002 1635.38 C 1115.2900000000002 1497.43 1170.0000000000002 1365.0900000000001 1267.5400000000002 1267.5500000000002 C 1365.0800000000002 1170.0100000000002 1497.4100000000003 1115.3000000000002 1635.3700000000001 1115.4800000000002 C 1773.3000000000002 1115.2800000000002 1905.65 1169.9900000000002 2003.2 1267.5300000000002 C 2100.73 1365.0700000000002 2155.45 1497.42 2155.25 1635.3700000000001 z" stroke-linecap="round" />
</g>
</g>
</g>
</svg>