<?xml version="1.0" encoding="UTF-8"?>
<!DOCTYPE svg PUBLIC "-//W3C//DTD SVG 1.0//EN" "http://www.w3.org/TR/2001/REC-SVG-20010904/DTD/svg10.dtd">
<!-- Creator: CorelDRAW 2020 (64-Bit) -->
<svg xmlns="http://www.w3.org/2000/svg" xml:space="preserve" width="400px" height="400px" version="1.0" style="shape-rendering:geometricPrecision; text-rendering:geometricPrecision; image-rendering:optimizeQuality; fill-rule:evenodd; clip-rule:evenodd"
viewBox="0 0 605.03 605.03"
 xmlns:xlink="http://www.w3.org/1999/xlink"
 xmlns:xodm="http://www.corel.com/coreldraw/odm/2003">
 <defs>
  <style type="text/css">
   <![CDATA[
    .fil1 {fill:#F1F1F1}
    .fil0 {fill:#F2F2F2}
    .fil2 {fill:whitesmoke}
   ]]>
  </style>
 </defs>
 <g id="Layer_x0020_1">
  <metadata id="CorelCorpID_0Corel-Layer"/>
  <g id="_1456836161328">
   <path class="fil0" d="M100.91 370.58c17.43,7.44 4.71,-2.28 20,12.18l5.04 5.57c26.3,34.72 48.31,1.5 54.06,-4.18 1.1,-1.08 0.64,-0.42 2.39,-2.11 13.66,-13.26 3.19,-4.63 19.2,-11.46 -8.61,-5.52 -18.31,6.65 -21.34,9.32 -0.24,0.21 -0.61,0.47 -0.85,0.68l-3.72 3.86c-0.19,0.25 -0.42,0.64 -0.61,0.9l-4.33 4.74c-2.13,2.03 -3.16,3.68 -5.08,5.5 -6.15,5.83 -22.29,6.81 -29.55,-0.79l-7.41 -7.7c-5.26,-6.24 -18.1,-22.72 -27.8,-16.51z"/>
   <path class="fil0" d="M297.33 605.03l10.37 0c8.16,-3.86 15.21,-7.28 21.75,-16.94 11.72,-17.35 14.58,-9.46 23.52,-16.34 -5.3,-1.74 -8.59,-0.12 -15.29,3.41 -7.87,4.14 -5.29,4.37 -10.36,10.85 -11.29,14.43 -24.99,23.38 -41.04,9.54 -12.88,-11.11 -7.78,-15.01 -20.94,-21.38 -15.94,-7.72 -12.83,-1.56 -13.6,-0.26 15.42,-0.22 18.89,7.55 24.45,15.08 8.44,11.45 14.26,12.79 21.14,16.04z"/>
   <path class="fil0" d="M403.43 68.07c15.9,6.79 5.62,-1.76 19.2,11.46 8.58,8.35 24.14,32.25 45.76,16.79 6.68,-4.78 14.15,-15.09 20.91,-21.55 5.02,-4.8 8.67,-4.08 14.82,-6.7 -1.31,-0.84 -2.21,-1.85 -7.21,-0.92 -3.19,0.6 -4.87,1.62 -7.24,3.5 -2.06,1.64 -3.74,3.86 -5.28,5.32 -2.04,1.91 -1.61,1.34 -2.46,2.1l-13.02 14.21c-7.26,7.59 -23.4,6.62 -29.55,0.79l-13.75 -15c-0.23,-0.21 -0.6,-0.48 -0.84,-0.69 -4.55,-4 -6.75,-8.19 -12.92,-9.92 -5.98,-1.67 -6.78,-0.38 -8.42,0.61z"/>
   <path class="fil0" d="M448.59 605.03l10.36 0c8.17,-3.86 15.22,-7.28 21.75,-16.94 11.73,-17.35 14.59,-9.46 23.52,-16.34 -3.8,-1.25 -2.88,-1.37 -8.1,0.2 -20.97,6.32 -20.9,31.53 -43.81,30.31 -20.76,-1.11 -23.83,-29.03 -43.2,-31.06 -9.3,-0.97 -3.8,-1.21 -6.11,2.71 15.42,-0.22 18.89,7.55 24.45,15.08 8.44,11.45 14.25,12.79 21.14,16.04z"/>
   <path class="fil0" d="M25.07 42.35c8.96,6.76 8.84,-3.21 24.28,17.22 6.15,8.15 14.48,15.48 24.81,15.94 28.22,1.28 25.1,-31.14 52.24,-31 -0.16,-0.3 2.25,-7.97 -13.71,0.05 -7.03,3.53 -7.25,4.72 -10.89,10.37 -2.83,4.4 -1.17,1.8 -4.8,5.71 -6.12,6.6 -7.95,11.27 -19.92,11.83 -12.4,0.57 -15.98,-4.14 -21.37,-10.23 -8.71,-9.83 -14.02,-21.74 -29.48,-20.11 -0.26,0.03 -0.78,0.11 -1.16,0.22z"/>
   <path class="fil0" d="M478.95 193.61c9.12,8.03 9.56,-3.04 24.03,17.3l6.14 6.12c0.23,0.22 0.54,0.54 0.77,0.75 6.9,6.55 9.13,9.03 19.51,9.03 6.05,0 10.17,-0.78 14.86,-4.64 0.39,-0.31 2.3,-2.09 2.45,-2.24l3.05 -3.11c20.89,-20.59 -0.19,-9.59 28.05,-22.14l2.04 -1.07c-13.3,-4.21 -22.84,10.91 -29.93,18.95 -2.26,2.58 -2.13,2.97 -5.03,5.63 -15.42,14.14 -30.44,1.56 -40.32,-10.38 -6.42,-7.77 -11.93,-16.26 -24.48,-14.47 -0.25,0.04 -0.77,0.15 -1.14,0.27z"/>
   <path class="fil0" d="M328.01 93.78c26.8,5.72 26.04,32.61 50.13,32.61 24.01,0 23.23,-26.86 50.13,-32.61 -2.22,-2.37 6.45,-4.68 -7.2,-1.45 -4.76,1.12 -9.62,5.68 -12.64,9.04 -11.05,12.3 -21.7,31.34 -45.5,16.65l-14.37 -15.84c-3.31,-3.71 -6.96,-7.64 -12.14,-9.43 -12.77,-4.4 -7.46,0.02 -8.41,1.03z"/>
   <path class="fil0" d="M176.43 193.61c2.66,2.33 -0.21,0.44 3.49,2.15 13.86,6.43 8.46,-1.84 20.55,15.15l6.13 6.12c0.23,0.22 0.55,0.54 0.78,0.75 10.89,10.34 24.31,12.84 34.34,4.39 2.03,-1.7 3.55,-3.56 5.4,-5.35 1.7,-1.63 4.37,-3.64 5.52,-5.04 8.73,-10.56 1.17,-8.83 20.46,-16.21l4.24 -1.96c-1.23,-0.39 0.97,-0.54 -3.45,-0.63 -10.72,-0.23 -16.45,7.67 -21.51,13.99 -18.3,22.86 -31.84,23.18 -50.32,0.84 -5.08,-6.14 -8.21,-11.94 -17.51,-14.3l-5.82 -0.39c-0.32,0.03 -0.89,0.19 -1.15,0.22 -0.26,0.04 -0.77,0.15 -1.15,0.27z"/>
   <path class="fil0" d="M478.84 42.35c8.96,6.76 8.84,-3.21 24.28,17.22 16.17,21.41 33.67,21.4 51.19,1.67 7.03,-7.91 8.61,-16.82 25.86,-16.73 -0.16,-0.3 2.25,-7.97 -13.71,0.05 -9.7,4.87 -9.29,10.28 -20.69,21.76 -4.17,4.19 -7.7,5.81 -14.92,6.15 -12.4,0.57 -15.98,-4.14 -21.37,-10.23 -9.21,-10.4 -10.23,-16.6 -22.51,-19.75l-5.81 -0.54c-0.31,0.02 -0.9,0.15 -1.16,0.18 -0.26,0.03 -0.78,0.11 -1.16,0.22z"/>
   <path class="fil0" d="M100.8 269.24l2.19 1.18c20.95,9.26 9.46,0.79 22.6,16.91 16.53,20.28 35.9,20.97 51.99,-0.85 4.35,-5.89 2.63,-6.83 9.93,-11.18 5.99,-3.57 11.13,-3.7 14.2,-6.06 -3.8,-1.25 -2.89,-1.37 -8.11,0.2 -12.87,3.87 -13.84,9.33 -17.54,14.05 -6.23,7.97 -13.86,16.3 -24.8,16.3 -22.27,0 -22.21,-25.78 -43.45,-30.68 -5.6,-1.29 -3.3,-1.09 -7.01,0.13z"/>
   <path class="fil0" d="M252.06 269.24c0.33,0.25 0.83,0.48 1.09,0.61l14.04 6.01c6.99,4.5 5.08,5.85 9.66,11.47 16.52,20.28 35.9,20.97 51.99,-0.85 4.34,-5.89 2.62,-6.83 9.93,-11.18 5.99,-3.57 11.13,-3.7 14.2,-6.06 -3.81,-1.25 -2.89,-1.37 -8.11,0.2 -12.87,3.87 -13.84,9.33 -17.54,14.05 -17.23,22.03 -33.31,22.08 -50.26,-0.85 -4.93,-6.66 -2.26,-6.27 -10.72,-10.5 -7.29,-3.64 -9.38,-4.51 -14.28,-2.9z"/>
   <path class="fil0" d="M146.07 605.03l10.37 0c8.17,-3.86 15.22,-7.28 21.75,-16.94 4.61,-6.83 5.02,-9.59 16.72,-13.54l6.8 -2.8c-3.8,-1.25 -2.89,-1.37 -8.11,0.2 -17.46,5.26 -13.94,14.32 -27.8,24.91 -26.26,20.05 -35.11,-14.65 -51.72,-22.69 -15.94,-7.72 -12.83,-1.56 -13.6,-0.26 15.42,-0.22 18.89,7.55 24.45,15.08 8.44,11.45 14.26,12.79 21.14,16.04z"/>
   <path class="fil0" d="M176.33 42.35c8.96,6.76 8.84,-3.21 24.27,17.22 6.16,8.15 14.49,15.48 24.82,15.94 5.28,0.24 11.4,-0.86 15.53,-3.95 18.57,-13.91 15.37,-27.16 36.71,-27.05 -0.17,-0.3 2.25,-7.97 -13.71,0.05 -7.04,3.53 -7.26,4.72 -10.89,10.37 -9.52,14.79 -27.01,24.82 -40.99,12.87 -10.5,-8.97 -15.16,-25.05 -31.09,-25.93l-3.49 0.26c-0.26,0.03 -0.78,0.11 -1.16,0.22z"/>
   <path class="fil0" d="M40.26 502.65c8.18,5.7 15.72,26.67 35.37,26.67 12.07,0 13.96,-3.89 21.1,-10.73l5.3 -5.16c3.17,-4.34 3.18,-7.21 9.87,-11.38l14.18 -5.93c-0.37,-0.12 -0.89,-0.23 -1.15,-0.26 -23.49,-3.37 -24.75,30.47 -49.3,30.47 -23.97,0 -29.05,-36.97 -50.45,-30.21l15.08 6.53z"/>
   <path class="fil0" d="M176.43 496.12c2.27,1.99 0.78,1.05 4.64,2.67 0.46,0.2 2.91,0.89 3.35,1.02 18.12,5.27 19.26,29.51 42.47,29.51 10.19,0 20.4,-7.69 26.4,-15.89 5.41,-7.4 4.02,-9.9 17.44,-14.54 0.22,-0.08 3.31,-1.13 3.5,-1.21l-1.51 -2.21c-10.52,0.3 -16.16,8.99 -21.01,14.85 -1.93,2.33 -2.97,3.24 -5,5.58 -17.47,20.11 -32.84,9.16 -45.32,-6.41 -5.06,-6.33 -10.79,-14.23 -21.51,-14 -4.42,0.1 -2.22,0.25 -3.45,0.63z"/>
   <path class="fil0" d="M329.6 497.16c18.82,8.45 8.82,-0.39 22.77,17.13 0.58,0.73 4.75,4.56 5.49,5.26 17.88,16.84 29.23,11.31 44.54,-3.74 1.92,-1.89 0.57,-0.22 2.15,-2.38 9.91,-13.56 4.5,-9.17 20.94,-15.75l3.1 -1.56c-5.44,-1.72 -10.68,0.11 -15.41,3.19 -4.66,3.03 -6.66,6.72 -10.21,11.01 -9.88,11.94 -24.9,24.53 -40.32,10.39 -2.9,-2.66 -2.76,-3.06 -5.03,-5.63 -7.08,-8.04 -16.63,-23.16 -29.93,-18.96l1.91 1.04z"/>
   <path class="fil0" d="M327.69 193.61c4.12,2.84 11.08,3.74 15.09,6.53 8.14,5.66 3.04,5.4 15.08,16.74 1.89,1.78 3.41,3.58 5.45,5.29 7.7,6.47 22.13,6.64 30.53,-0.73 22.85,-20.05 5.6,-15.85 31.65,-26.27 0.3,-0.13 0.82,-0.39 1.07,-0.49l2.03 -1.07c-0.37,-0.12 -0.89,-0.23 -1.14,-0.27 -5.47,-0.78 -8.75,-0.14 -14.27,3.45l-15.22 16.6c-1.85,2.13 -2.93,3.68 -5.12,5.52 -3.39,2.83 -9.09,4.91 -14.7,4.91 -23.96,0 -29.05,-36.98 -50.45,-30.21z"/>
   <path class="fil0" d="M327.58 42.35l7.05 2.76c2.71,0.83 5.19,1.61 7.37,3.16 3.88,2.77 10.14,12.41 19.66,21.13 9.03,8.29 23.21,7.66 30.55,2.16 17.91,-13.43 15.54,-27.16 36.71,-27.05 -0.17,-0.3 2.24,-7.97 -13.71,0.05 -7.04,3.53 -7.26,4.72 -10.89,10.37 -11.26,17.49 -29.35,26.23 -46.1,7.31 -9.21,-10.4 -10.23,-16.6 -22.51,-19.75l-8.13 -0.14z"/>
   <path class="fil0" d="M327.8 294.95c13.72,6.79 10.08,-0.81 24.98,17.75 16.88,21.01 36.71,19.34 51.36,-0.86 2.58,-3.56 2.33,-2.68 4.99,-5.62 10.55,-11.65 6.88,-5.1 19.36,-11.27 -1.89,-1.12 -0.42,-1.04 -4.79,-0.96 -0.36,0.01 -3.59,0.65 -3.59,0.65 -1.86,0.5 -4.53,1.61 -6.82,3.63 -10.49,9.23 -8.29,9.08 -18.6,19.33 -10.04,9.98 -24.76,8.48 -31.65,1.61 -9.3,-9.28 -24.31,-30.76 -35.24,-24.26z"/>
   <path class="fil0" d="M403.32 269.24l4.45 2.09c0.63,0.24 2.29,0.63 3.51,1.06 12.7,4.47 12.75,9.95 16.82,14.94l10.68 10.56c7.48,6.04 22.82,6.32 30.79,-0.7 23.01,-20.26 4.81,-15.97 31.36,-26.28 2.7,-1.05 1.78,-0.51 3.29,-1.67 -3.8,-1.25 -2.88,-1.37 -8.1,0.2 -12.87,3.87 -13.85,9.33 -17.54,14.05 -31.88,40.76 -45.44,-3.58 -60.98,-11.35 -7.29,-3.64 -9.39,-4.51 -14.28,-2.9z"/>
   <path class="fil0" d="M252.17 68.07c5.39,2.3 9.6,2.13 14.05,5.97l7.54 7.6c1.73,1.7 1.2,1.14 2.82,3.25 3.4,4.45 0.36,1.51 5.1,5.73 17.39,15.51 31.94,13.36 46.15,-4.84 1.66,-2.12 -0.28,-0.08 1.95,-2.61 1.24,-1.42 1.69,-1.6 3.08,-2.92 15.17,-14.38 2.74,-4.82 20,-12.18 -9.3,-6.48 -22.7,10.45 -27.79,16.5 -4.28,5.08 -10.34,13.03 -22.56,13.03 -10.98,0 -15.42,-5.19 -21.84,-12.22l-13.24 -14.02c-3.99,-3.51 -10.7,-6.22 -15.26,-3.29z"/>
   <path class="fil0" d="M252.17 370.58c6.14,2.62 9.79,1.9 14.82,6.7 11.9,11.38 19.48,26.39 35.55,26.14 5.75,-0.1 12.08,-2.52 15.43,-5.22 6.9,-5.57 14.81,-16.45 20.84,-21.65 4.45,-3.83 8.66,-3.67 14.05,-5.97 -4.3,-3 -11.45,-0.08 -15.27,3.3l-12.52 13.21c-7.26,8.62 -12.06,13.03 -22.56,13.03 -14.1,0 -19.61,-10 -25.07,-16.55 -2.68,-3.21 0.42,0.11 -3.08,-2.99l-7.75 -7.42c-3.87,-3.08 -10.19,-5.3 -14.44,-2.58z"/>
   <path class="fil0" d="M100.91 68.07c5.39,2.3 9.6,2.13 14.05,5.97l10.36 10.85c21.12,27.65 38.07,15.85 53.2,-1.73 11.66,-13.56 13.92,-11.18 23.08,-15.09 -9.09,-5.83 -22.26,9.45 -27.14,15.64l-2.91 3.15c-6.52,6.32 -7.81,10.74 -20.29,10.74 -10.53,0 -16.3,-5.13 -23.21,-13.89l-11.88 -12.35c-3.98,-3.51 -10.69,-6.22 -15.26,-3.29z"/>
   <path class="fil0" d="M25.18 193.61c7.74,6.18 -5.09,-1.26 6.49,2.74 16.84,5.8 9.89,8.91 28.32,25.1 9.68,8.5 23.87,7.58 34.5,-3.08 0.23,-0.22 0.53,-0.55 0.76,-0.78 0.22,-0.22 0.52,-0.55 0.74,-0.77 12.83,-12.65 8.84,-15.37 22.28,-20.06 0.49,-0.17 3.57,-1.16 3.57,-1.16l4.24 -1.99c-4.98,-1.58 -9.82,-0.12 -14.46,2.6 -12.2,7.16 -16.6,27.61 -35.99,27.61 -12.04,0 -18.13,-7.92 -24.83,-16.01 -3.55,-4.29 -5.55,-7.99 -10.2,-11.02 -2.3,-1.49 -4.53,-2.57 -7.3,-3.28l-8.12 0.1z"/>
   <path class="fil0" d="M25.28 294.95c5.23,2.59 10.78,2.82 15.13,6.51l7.91 8.63c1.1,1.31 1.41,1.94 1.95,2.61 10.87,13.53 26.36,20.71 41.03,10.04 3.76,-2.73 -0.61,0.65 3.15,-2.92 0.22,-0.22 0.54,-0.54 0.76,-0.75l6.42 -7.23c11.33,-15.63 14.84,-12.19 24.34,-16.89 -2.1,-1.25 -3.63,-1.59 -8.37,-0.31 -6.67,1.81 -8.07,5.49 -12.13,8.96 -4.27,3.65 -2.06,0.55 -5.34,5.28 -6.12,8.83 -13,15.46 -24.5,15.46 -13.43,0 -18.32,-7.42 -25.11,-16.38l-10.85 -10.4c-3.77,-2.92 -10.51,-4.92 -14.39,-2.61z"/>
   <path class="fil0" d="M453.73 501.5c-22.57,0.81 -36.33,-43.01 -50.09,-29.58 23.93,4.99 20.23,18.91 34.92,27.35 4.26,2.45 8.98,4.31 15.21,4.31 27.76,0 21.65,-25.73 50.13,-31.66 -3.36,-4.07 -9.45,-0.88 -13.55,1.7 -12.49,7.84 -16.47,27.16 -36.62,27.88z"/>
   <path class="fil0" d="M252.38 169.41c28.43,5.92 22.61,31.65 50.13,31.65 27.19,0 21.91,-25.77 50.13,-31.65 -3.36,-4.07 -9.45,-0.88 -13.54,1.69 -12,7.53 -18.16,28.54 -36.55,27.88 -22.85,-0.82 -33.51,-37.62 -48.63,-30.73l-1.54 1.16z"/>
   <path class="fil0" d="M479.05 294.95c13.72,6.79 10.08,-0.81 24.99,17.75 10.87,13.53 26.36,20.71 41.03,10.04l10.33 -10.9c11.33,-15.63 14.84,-12.19 24.34,-16.89 -8.43,-5.02 -18.31,6.78 -20.5,8.65 -10.26,8.78 -2.94,4.83 -10.01,11.13 -2.14,1.9 -0.78,0.39 -3.28,2.87 -0.93,0.93 -1.27,1.55 -2.18,2.4 -6.13,5.71 -21.9,6.76 -29.47,-0.79 -9.31,-9.28 -24.32,-30.76 -35.25,-24.26z"/>
   <path class="fil0" d="M302.55 501.5c-24.32,-0.87 -36.44,-42.98 -50.17,-29.58 16.64,3.47 16.53,8.12 24.19,16.83 6.11,6.94 11.56,14.83 25.94,14.83 27.76,0 21.65,-25.73 50.13,-31.66 -3.36,-4.07 -9.45,-0.88 -13.54,1.7 -6.27,3.93 -5.99,5.67 -10.6,10.69 -5.84,6.37 -12.33,17.68 -25.95,17.19z"/>
   <path class="fil0" d="M479.27 95.28c21.19,-7.26 30.19,48.33 65.23,25.74 11.34,-7.31 20.65,-30.66 35.03,-25.74 -2.98,-5.03 7.28,-5.74 -7.2,-3.06 -9.72,1.79 -22.58,22.35 -26.79,25.24 -10.99,7.55 -19.95,7.6 -31.35,0.56l-15.08 -16.65c-2.72,-3.03 -7.26,-7.36 -11.43,-8.73 -14.53,-4.75 -6.94,0.16 -8.41,2.64z"/>
   <path class="fil0" d="M176.33 344.87l8.21 3.07c9.95,3.13 11.9,9.11 16.73,15.01 1,1.22 4.32,4.31 5.29,5.25 1.66,1.62 3.56,3.65 5.43,5.18 13.39,11.02 30.57,2.74 41.18,-11.3 5.83,-7.72 6.89,-11.3 17.23,-14.45l7.05 -2.76c-0.38,-0.11 -0.91,-0.2 -1.17,-0.23l-6.97 0.36c-12.26,3.15 -14.1,9.79 -17.44,14.25 -1.61,2.15 -3.09,3.28 -5.06,5.51 -5.23,5.89 -8.31,10.26 -19.92,10.26 -12.3,0 -15.01,-4.86 -20.64,-11.08 -5.24,-5.78 -15.37,-23.25 -29.92,-19.07z"/>
   <path class="fil0" d="M327.58 344.87l8.21 3.07c17.74,5.58 29.95,51.51 63.44,19.52 11.75,-11.22 9.1,-15.77 22.43,-19.83 1.18,-0.36 2.38,-0.63 3.57,-1.07 2.8,-1.03 1.85,-0.47 3.47,-1.69 -0.38,-0.11 -0.9,-0.2 -1.16,-0.23 -0.26,-0.02 -0.84,-0.15 -1.16,-0.17 -11.88,-0.78 -17.33,6.88 -23.26,14.78 -10.64,14.22 -27.11,22.93 -40.58,10.34 -9.64,-9.01 -18.52,-29.44 -34.96,-24.72z"/>
   <path class="fil0" d="M486.69 499.26c18.41,6.39 19.84,30.06 42.71,30.06 9.35,0 12.47,-2.02 18.86,-8.43 0.39,-0.39 2.05,-2.12 2.24,-2.3 1.83,-1.76 2.16,-1.8 3.16,-2.78 5.73,-5.64 3.8,-8.64 12.01,-13.76 1.65,-1.03 5.54,-2.46 7.57,-3.16 0.22,-0.08 3.31,-1.13 3.5,-1.21 0.31,-0.12 0.83,-0.38 1.07,-0.49l2.04 -1.07c-0.37,-0.12 -0.89,-0.23 -1.15,-0.26l-14.27 3.45c-4.65,3.03 -6.65,6.72 -10.21,11.01 -6.69,8.09 -12.78,16.01 -24.82,16.01 -22.5,0 -24.31,-27.06 -43.48,-30.58l-6.97 0.37 7.74 3.14z"/>
   <path class="fil0" d="M25.5 95.28c21.25,-7.28 30.24,48.29 65.23,25.74 7.68,-4.95 5.15,-4.29 10.42,-10.76 4.37,-5.37 14.47,-18.45 24.61,-14.98 -2.98,-5.03 7.28,-5.74 -7.2,-3.06 -6.26,1.15 -13.9,10.54 -17.7,14.65 -7.09,7.66 -17.41,25.37 -40.44,11.15 -6.11,-3.77 -16.18,-22 -26.51,-25.38 -14.53,-4.75 -6.94,0.16 -8.41,2.64z"/>
   <path class="fil0" d="M176.76 397.8c14.3,-4.9 23.78,18.42 35.02,25.73 34.88,22.67 44.11,-32.97 65.24,-25.73 -1.47,-2.48 6.11,-7.39 -8.41,-2.64 -10.34,3.37 -20.41,21.61 -26.52,25.38 -23.03,14.21 -33.35,-3.5 -40.43,-11.15 -1.81,-1.96 -3,-3.21 -5.06,-5.51 -2.9,-3.22 -8.75,-8.43 -12.65,-9.15 -14.48,-2.67 -4.22,-1.96 -7.19,3.07z"/>
   <path class="fil0" d="M25.07 344.87l3.47 1.69c25.39,9.77 10.04,8.59 32.19,26.82 7.72,6.36 22.28,6.6 30.6,-0.72 2.38,-2.09 8.19,-7.41 10.58,-10.58 15.44,-20.43 15.31,-10.45 24.28,-17.21 -0.38,-0.11 -0.91,-0.2 -1.17,-0.23l-14.27 3.5c-7.85,4.61 -5.39,4.77 -10.14,11.11 -1.61,2.15 -3.09,3.28 -5.06,5.51 -5.22,5.89 -8.3,10.26 -19.92,10.26 -24,0 -22.42,-26.17 -43.57,-30.31l-6.99 0.16z"/>
   <path class="fil0" d="M25.5 397.8c10.14,-3.48 20.25,9.61 24.59,14.98 4.92,6.1 3.45,6.21 10.43,10.75 34.88,22.67 44.11,-32.97 65.24,-25.73 -1.47,-2.48 6.11,-7.39 -8.41,-2.64 -1.41,0.46 -5.45,3.02 -6.89,4.17l-19.62 21.21c-28.05,17.3 -38.17,-12.42 -50.9,-21.86 -0.79,-0.59 -6.62,-3.83 -7.24,-3.95 -14.48,-2.67 -4.22,-1.96 -7.2,3.07z"/>
   <path class="fil0" d="M478.84 344.87l4.66 2.1c3.59,1.25 6.68,1.35 10.61,4.48 5.42,4.34 6.53,8.57 14.96,16.75 11.05,10.72 24.74,14.4 36.03,4.46 2.38,-2.09 8.19,-7.41 10.58,-10.58 5.84,-7.72 6.89,-11.3 17.23,-14.45l7.05 -2.76c-0.38,-0.11 -0.91,-0.2 -1.17,-0.23l-6.96 0.36c-2.69,0.69 -4.99,1.78 -7.31,3.14 -7.85,4.61 -5.39,4.77 -10.14,11.11 -10.65,14.22 -27.11,22.93 -40.58,10.34 -9.64,-9.01 -18.52,-29.44 -34.96,-24.72z"/>
   <path class="fil0" d="M403.64 169.41c28.54,5.94 22.31,31.65 50.13,31.65 13.88,0 19.5,-7.43 25.94,-14.8 7.63,-8.74 7.57,-13.39 24.19,-16.85 -6.99,-8.82 -22.61,10.71 -24.15,12.39 -6.9,7.53 -11.35,16.66 -26.02,17.18 -21.47,0.77 -25.61,-27.34 -43.96,-31.15 -7.48,-1.56 -6.11,1.57 -6.13,1.58z"/>
   <path class="fil0" d="M403.64 16.64c5.13,6.17 7.98,-1.62 21.01,13.98 7.67,9.17 13.3,20.02 29.12,20.02 15.84,0 22.11,-12.06 25.49,-16.07 0.9,-1.07 1.16,-1.16 2.2,-2.33 17.35,-19.45 16.65,-8.62 22.44,-15.6 -12.27,-1.51 -19.5,8.38 -24.27,13.77 -7.49,8.45 -17.5,26.5 -41.15,12.1 -6.04,-3.68 -4.61,-5.49 -9.83,-11.33 -4.71,-5.26 -12.26,-16.11 -25.01,-14.54z"/>
   <path class="fil0" d="M328.01 396.29c13.72,2.93 17.77,7.91 24.59,16.49 11.3,14.2 23.32,22.29 41.57,10.16 12.44,-8.28 10.99,-21.71 34.1,-26.65 -0.94,-1 4.37,-5.42 -8.41,-1.02 -2.05,0.7 -5.07,2.61 -6.88,4.06 -1.85,1.48 -2.11,1.9 -3.11,2.94l-2.14 2.43c-1.76,1.97 -2.86,3.07 -4.36,4.69 -4.88,5.27 -4.46,7.72 -10.02,11.15 -32.38,19.98 -39.25,-21.23 -58.14,-25.7 -13.65,-3.23 -4.98,-0.92 -7.2,1.45z"/>
   <path class="fil0" d="M176.76 95.28c10.09,-3.45 20.31,9.61 24.59,14.99 10.5,13.21 22.58,22.39 40.64,10.75 11.34,-7.31 20.65,-30.66 35.03,-25.74 -2.98,-5.03 7.28,-5.74 -7.2,-3.06 -6.26,1.15 -13.9,10.54 -17.71,14.65 -7.08,7.66 -17.4,25.37 -40.43,11.15 -5.57,-3.43 -5.14,-5.88 -10.02,-11.15l-6.5 -7.11c-1.01,-1.06 -1.27,-1.46 -3.11,-2.94 -1.43,-1.15 -5.47,-3.72 -6.88,-4.18 -14.53,-4.75 -6.94,0.16 -8.41,2.64z"/>
   <path class="fil1" d="M176.69 446.21c5.42,2.23 10.32,2.97 14.8,6.64 7.83,6.41 27.21,42.43 54.12,18.11l6.99 -8.06c9.67,-13.69 17.54,-13.83 24.48,-16.69 -11.91,-6.78 -23.18,13.56 -30.18,19.94 -18.75,17.1 -31.78,11.1 -45.4,-6.67l-10.47 -10.76c-3.74,-2.84 -10.61,-4.89 -14.34,-2.51z"/>
   <path class="fil0" d="M479.27 397.8c14.43,-4.95 23.4,18.25 35.03,25.73 35.1,22.56 43.95,-33.02 65.23,-25.73 -1.47,-2.48 6.12,-7.39 -8.41,-2.64l-9.99 7.11c-5.73,6.03 -12.86,16.01 -16.52,18.27 -28.04,17.3 -38.17,-12.42 -50.9,-21.86 -0.78,-0.59 -6.62,-3.83 -7.24,-3.95 -14.48,-2.67 -4.22,-1.96 -7.2,3.07z"/>
   <path class="fil0" d="M176.54 294.95c13.44,6.65 8.04,-0.99 20.08,12.04l10.16 11.06c10.96,11.28 25.31,12.3 35.78,4.69l3.91 -3.67c6.48,-6.12 11.93,-14.93 16.47,-18.28 3.86,-2.85 9.65,-3.54 14.29,-5.84 -8.43,-5.02 -18.32,6.78 -20.5,8.65 -4.27,3.65 -2.06,0.55 -5.34,5.28 -3.19,4.6 0.22,1.49 -4.68,5.85 -2.13,1.9 -0.78,0.39 -3.27,2.87 -0.93,0.93 -1.27,1.55 -2.19,2.4 -3.73,3.47 -7.61,4.34 -14.36,4.34 -11.19,0 -12.44,-2.5 -20.66,-10.29 -6.03,-5.71 1.34,-0.94 -10.01,-11.14 -2.3,-2.07 -2.92,-3.5 -5.29,-5.35l-10.82 -3.53c-4.31,0.18 -1.52,-0.3 -3.57,0.92z"/>
   <path class="fil0" d="M125.4 332.92c-4.78,-5.38 -12,-15.28 -24.27,-13.77l3.63 2.24c0.39,0.17 2.9,0.93 3.6,1.18 19.16,6.87 19.28,30.58 42.9,30.58 13.88,0 19.56,-8.11 24.16,-14.4 14.3,-19.56 21.98,-14.8 25.97,-19.6 -18.63,-2.29 -26.37,20.71 -34.84,25.87 -23.65,14.4 -33.66,-3.64 -41.15,-12.1z"/>
   <path class="fil0" d="M125.27 484.31c-1.54,-1.68 -17.15,-21.21 -24.14,-12.39 23.93,4.99 20.23,18.91 34.92,27.35 18.64,10.71 30.91,1.21 41.15,-10.5 7.63,-8.73 7.57,-13.39 24.19,-16.85 -3.27,-4.12 -9.48,-0.86 -13.55,1.7 -12.49,7.83 -16.47,27.16 -36.62,27.88 -13.61,0.49 -20.11,-10.82 -25.95,-17.19z"/>
   <path class="fil0" d="M101.06 117.98c8.36,5.8 10.8,-1.01 24.11,17.02 30.03,40.7 54.93,-5.71 61.38,-10.44 1.88,-1.38 4.06,-2.37 7.14,-3.48l7.76 -3.1c-20.92,-6.08 -27.12,30.6 -50.19,30.6 -6.23,0 -10.78,-1.94 -14.86,-5.12 -10.33,-8.03 -11.37,-16.81 -20.43,-21.98 -4.61,-2.63 -9.91,-4.95 -14.91,-3.5z"/>
   <path class="fil0" d="M252.38 16.64c5.13,6.17 7.98,-1.62 21.02,13.98 7.66,9.17 13.29,20.02 29.11,20.02 20.59,0 24.05,-18.55 35.72,-26.99 5.73,-4.15 11.61,-3.63 14.41,-7.01 -26.92,-3.32 -29.23,47.91 -65.42,25.87 -8.47,-5.17 -16.21,-28.17 -34.84,-25.87z"/>
   <path class="fil1" d="M327.95 446.21c5.42,2.23 10.32,2.97 14.79,6.64 11.11,9.09 7.61,10.43 16.68,18.26l4.11 3.31c8.93,5.72 21.53,5.63 30.12,-0.6l10.21 -10.92c2.2,-3.12 8.12,-8.89 10.54,-10.73 6.34,-4.84 7.81,-3.43 13.94,-5.96 -4.17,-2.66 -11.72,0.19 -15.17,3.21 -2.42,2.11 -2.54,3.11 -5.06,5.54 -3.42,3.31 -1.96,0.93 -5.2,5.43l-10.31 10.94c-2.98,2.42 -8.36,4.61 -14.46,4.61 -22.64,0 -34.81,-39.52 -50.19,-29.73z"/>
   <path class="fil0" d="M101.13 169.41c16.64,3.46 16.53,8.12 24.19,16.83 4.63,5.27 3.96,6.45 9.77,9.98 18.36,11.14 31.06,2.68 42.11,-9.96 7.63,-8.74 7.57,-13.39 24.19,-16.85 -6.99,-8.82 -22.61,10.71 -24.15,12.39 -5.84,6.36 -12.33,17.67 -25.94,17.18 -20.16,-0.72 -24.14,-20.06 -36.63,-27.88 -5.54,-3.47 -8.56,-4.69 -12.78,-2.3 -0.15,0.08 -0.44,0.55 -0.76,0.61z"/>
   <path class="fil0" d="M317.8 345.02c-36.19,22.05 -38.49,-29.18 -65.42,-25.87l3.64 2.24c0.39,0.17 2.9,0.93 3.6,1.18 15.41,5.52 16.84,19.03 27.57,25.54 4.6,2.8 9.62,5.04 15.32,5.04 13.89,0 19.57,-8.11 24.16,-14.4l12.44 -13.2c5.4,-3.57 10.75,-3.04 13.53,-6.4 -18.62,-2.29 -26.36,20.71 -34.84,25.87z"/>
   <path class="fil1" d="M176.69 143.69c6.13,2.53 7.6,1.13 13.94,5.97 9.89,7.55 9.07,11.02 16.74,18.06l4.01 3.59c9.44,6.84 23.52,6.42 32.67,-1.39l3.15 -2.9c15.1,-13.88 2.54,-12.06 29.88,-23.33 -2.06,-1.31 0.85,-0.73 -3.39,-0.96 -1.08,-0.06 -2.62,0.07 -3.6,0.25 -2.7,0.52 -4.92,1.38 -7.35,3.23 -3.25,2.46 -2.25,2.59 -5.12,5.5 -8.64,8.78 -6.38,8.32 -15.49,16.39 -12.33,10.91 -25.46,4.48 -35.26,-4.46 -4.47,-4.08 -1.56,-1.31 -4.76,-5.76 -3.23,-4.51 -1.77,-2.13 -5.19,-5.43 -5.62,-5.44 -12,-13.44 -20.23,-8.76z"/>
   <path class="fil0" d="M403.57 117.98l6.65 2.72c20.94,7.44 20.03,30.3 43.55,30.3 6.14,0 10.53,-1.13 14.79,-4.57 13.08,-10.6 12.7,-16.15 20.5,-21.87l14.91 -6.58c-20.92,-6.08 -27.13,30.6 -50.2,30.6 -20.17,0 -23.28,-20.25 -35.28,-27.1 -4.61,-2.63 -9.92,-4.95 -14.92,-3.5z"/>
   <path class="fil0" d="M101.13 16.64c5.12,6.17 7.97,-1.62 21.01,13.98l7.31 9.31c7.23,9.98 22.59,14.5 37.13,5.67 7.47,-4.54 4.88,-4.97 12.37,-13.36 1.04,-1.17 1.43,-1.72 2.75,-3.35 9.19,-11.28 15.63,-7.36 19.69,-12.25 -26.93,-3.32 -29.23,47.91 -65.42,25.87 -8.48,-5.17 -16.21,-28.17 -34.84,-25.87z"/>
   <path class="fil1" d="M327.95 143.69c6.73,2.78 15,3.14 24.47,16.64 3.22,4.58 0.07,1.82 4.61,6.21l1.6 1.37c10.04,8.86 22.75,11.4 34.12,4.02l4.91 -4.21c15.94,-14.64 3.53,-12.84 30.68,-24.03 -4.05,-2.3 0.56,-2.03 -6.99,-0.67 -7.76,1.39 -9.25,5.42 -12.48,8.69 -8.63,8.78 -6.37,8.32 -15.48,16.39 -8,7.08 -22.12,6.86 -29.7,0.72 -9.91,-8.03 -7.51,-8.63 -15.51,-16.37 -1.77,-1.71 -11.75,-14.16 -20.23,-8.76z"/>
   <path class="fil1" d="M479.2 143.69c7.03,2.9 14.68,2.95 24.48,16.65l6.99 8.11c11.07,10.07 25.84,10.36 36.68,0.74l2.36 -2.17c6.91,-6.34 5.38,-8.73 15.09,-16.69 4.47,-3.66 9.37,-4.4 14.8,-6.64 -1.07,-0.68 -1.31,-1.78 -6.99,-0.71 -7.8,1.48 -9.25,5.45 -12.48,8.73 -2.87,2.92 -2.76,1.89 -5.34,5.26l-10.15 11.13c-13.25,11.73 -29.75,4.08 -40.01,-10.22 -5.04,-7.03 -16.7,-19.15 -25.43,-14.19z"/>
   <path class="fil1" d="M479.2 446.21c5.43,2.23 10.33,2.97 14.8,6.64 11.1,9.09 7.61,10.43 16.67,18.26 10.19,8.79 23.69,10.36 34.24,2.71l4.01 -3.58c8.27,-7.52 6.51,-10.26 16.73,-18.07 6.34,-4.84 7.82,-3.43 13.95,-5.96 -1.89,-1.2 -0.29,-1.05 -4.58,-1.03 -8.64,0.06 -12.59,6.82 -15.65,9.78 -9.14,8.83 -14.36,20.98 -29.97,20.98 -18.48,0 -24.87,-18.87 -35.85,-27.22 -3.75,-2.84 -10.62,-4.89 -14.35,-2.51z"/>
   <path class="fil1" d="M403.67 370.58c10.34,4.17 11.05,1.18 23.01,14.96 1.67,1.93 0.85,1.18 1.96,2.6 17.5,22.32 36.16,18.64 50.89,-0.85l5.13 -5.48c1.96,-1.95 2.94,-3.53 5.24,-5.45 4.72,-3.92 8.32,-3.5 13.97,-5.78 -2.64,-1.6 3.15,-1.07 -4.49,-1.03 -3.74,0.03 -7.79,2.25 -10.42,4.48 -14.8,12.62 -18.13,26.38 -35.19,26.38 -21.36,0 -26.92,-27.25 -43.19,-30.55 -8.3,-1.69 -4.3,-0.76 -6.91,0.72z"/>
   <path class="fil1" d="M25.43 143.69c6.73,2.78 15,3.14 24.48,16.64 3.27,4.66 -0.05,2.08 6.2,7.58 0.23,0.2 0.57,0.49 0.79,0.68 10.99,9.49 25.4,10.28 35.89,1.33 0.24,-0.2 0.55,-0.52 0.78,-0.73 10.46,-9.3 7.18,-10.44 17.46,-18.86 4.47,-3.66 9.37,-4.4 14.8,-6.64 -4.06,-2.3 0.56,-2.03 -6.99,-0.67 -6.49,1.16 -14.44,9.53 -17.82,13.95 -2.8,3.64 -0.99,2.55 -4.56,5.97 -33.19,31.8 -45.46,-15.02 -62.85,-19.65 -5,-1.33 -6.25,-0.82 -8.18,0.4z"/>
   <path class="fil0" d="M403.57 521.84c6.3,2.73 9.29,1.49 14.87,6.5l20.65 21.81c17.93,11.49 31.06,-0.01 40.34,-11.72 12.41,-15.67 15.78,-12.79 24.54,-16.59l-2.26 -0.84c-8.65,-1.71 6.49,-0.23 -2.34,-0.36 -11.22,-0.16 -18.82,15.29 -31.13,26.25 -7.83,6.96 -21.2,7.2 -29.69,-0.76l-10.07 -11.13c-4.72,-6.14 -13.13,-14.96 -21.49,-14.26 -0.33,0.03 -0.9,0.22 -1.16,0.26 -0.26,0.04 -0.95,0.74 -1.14,0.38 -0.19,-0.36 -0.77,0.25 -1.12,0.46z"/>
   <path class="fil0" d="M101.06 420.49l7.77 3.1c10.82,3.92 11.46,7.9 16.98,14.8 11.22,14.02 27.59,21.64 41.06,9.84 10.87,-9.52 14.19,-17.61 20.57,-21.78l14.01 -5.96c-5.42,-1.38 -10.52,1 -14.91,3.51 -7.14,4.08 -5.7,5.2 -10.27,10.94 -7.04,8.85 -13.04,16.16 -25.01,16.16 -23.53,0 -28.34,-36.2 -50.2,-30.61z"/>
   <path class="fil0" d="M252.32 420.49l4.36 1.96c0.81,0.31 2.34,0.76 3.4,1.14 3.08,1.12 5.26,2.11 7.14,3.48 5.87,4.3 7.4,9.18 15.1,16.8 6.36,6.3 9.68,9.65 20.19,9.65 23.35,0 22.7,-22.89 43.56,-30.3l6.64 -2.73c-12.64,-3.67 -22.08,10.55 -25.18,14.45 -7.04,8.85 -13.04,16.16 -25.02,16.16 -23.53,0 -28.34,-36.2 -50.19,-30.61z"/>
   <path class="fil1" d="M25.43 446.21c9.95,4.1 16.15,4.6 25.07,17.57l10.52 10.66c15.62,10.15 30.46,2.22 40.33,-11.58 9.8,-13.71 17.45,-13.76 24.48,-16.65 -1.93,-1.23 -3.18,-1.74 -8.18,-0.4 -2.64,0.7 -4.99,1.85 -6.99,3.61 -11.51,10.07 -17.39,26.52 -35.03,26.52 -23.65,0 -28.09,-31.75 -46.81,-30.7 -4.24,0.24 -1.32,-0.35 -3.39,0.97z"/>
   <path class="fil0" d="M252.32 219.32c9.21,4 12.16,0.78 25.17,17.47l10.34 10.85c17.93,11.49 31.06,-0.02 40.34,-11.73 12.41,-15.66 15.79,-12.79 24.54,-16.59 -7.98,-5.48 -21.31,8.14 -25.52,14.07 -5.72,8.07 -13.05,16.08 -24.68,16.08 -21.73,0 -26.49,-27.72 -43.18,-31.1 -11.08,-2.24 -5.28,-0.24 -7.01,0.95z"/>
   <path class="fil0" d="M101.06 219.32c9.21,4 12.16,0.78 25.18,17.47l10.34 10.85c17.93,11.49 31.05,-0.02 40.33,-11.73 12.41,-15.66 15.79,-12.79 24.54,-16.59 -6.25,-3.83 -3.63,-1.18 -4.6,-1.19 -17.22,-0.25 -23.02,31.34 -45.59,31.34 -22.17,0 -34.66,-39.68 -50.2,-30.15z"/>
   <path class="fil0" d="M469.06 345.02c-36.19,22.05 -38.49,-29.18 -65.42,-25.87 2.82,0.82 14.86,6.34 19.68,12.26l4.96 5.67c5.43,6.45 2.17,6.35 10.35,10.86 8.31,4.59 14.66,7.5 24.51,3.11 2.32,-1.03 2.16,-1.17 3.84,-2.09 0.86,-0.46 2.3,-1.17 2.91,-1.53 6.53,-3.77 3.23,-2.09 8.04,-8.67 14.18,-19.44 22.05,-14.88 25.97,-19.61 -12.75,-1.57 -20.3,9.28 -25,14.54 -5.22,5.84 -3.8,7.65 -9.84,11.33z"/>
   <path class="fil0" d="M403.57 420.49c0.33,0.23 0.83,0.43 1.08,0.55l13.83 6.03c9.84,7.22 15.52,26.45 35.29,26.45 23.35,0 22.7,-22.89 43.56,-30.3l6.64 -2.73c-12.64,-3.67 -22.08,10.55 -25.19,14.45 -32.35,40.64 -47.74,-4.28 -61.28,-11.47 -4.92,-2.62 -9.29,-4.32 -13.93,-2.98z"/>
   <path class="fil0" d="M403.57 219.32c9.22,4 12.16,0.78 25.18,17.47 2.55,3.27 2.4,2.88 4.97,5.65l5.37 5.2c8.67,5.55 22.05,5.44 30.26,-0.6l10.08 -11.13c2.25,-2.85 8.32,-9.04 10.47,-10.79 5.02,-4.1 8.43,-3.35 14.07,-5.8 -3.05,-1.86 -3.51,-1.91 -8.19,-0.59 -1.76,0.49 -5.96,2.84 -7.04,3.76 -2.15,1.84 -8.89,8.93 -10.29,10.9 -13.3,18.75 -27.81,22.45 -45.51,5.19 -3.67,-3.58 -13.55,-21.39 -25.95,-20.35 -0.33,0.02 -0.9,0.21 -1.16,0.25 -0.26,0.04 -0.95,0.75 -1.14,0.39 -0.19,-0.37 -0.77,0.24 -1.12,0.45z"/>
   <path class="fil0" d="M252.32 117.98c1.67,1.16 -0.19,0.18 3.24,1.54 0.69,0.27 2.61,0.9 3.4,1.18 2.22,0.79 6.07,2.37 7.38,3.23 5.04,3.31 7.33,7.38 10.08,11.08 2.35,3.16 8.18,8.69 10.48,10.71 13.47,11.79 29.85,4.17 41.06,-9.84 16.88,-21.1 13.41,-10.04 24.75,-17.9 -11.08,-3.22 -19.98,7.56 -24.52,13.6 -2.51,3.33 -7.49,9.1 -9.98,11.2 -25.25,21.27 -41.75,-16.03 -50.98,-21.3 -4.61,-2.63 -9.91,-4.95 -14.91,-3.5z"/>
   <path class="fil0" d="M101.06 521.84c9.21,4 12.16,0.78 25.18,17.47 2.54,3.26 2.4,2.87 4.97,5.64l2.86 3.21c8.64,8.14 25.48,9.47 37.24,-3.21 0.21,-0.23 0.52,-0.54 0.74,-0.77 3.31,-3.54 2.28,-2.49 4.86,-5.75 12.41,-15.67 15.79,-12.79 24.54,-16.59 -6.25,-3.83 -3.63,-1.18 -4.6,-1.2l-10.63 4.37c-2.15,1.84 -8.89,8.93 -10.28,10.9 -8.93,12.58 -25.2,24.01 -39.91,10.22 -9.91,-9.29 -23.99,-31.03 -34.97,-24.29z"/>
   <path class="fil0" d="M252.32 521.84c6.29,2.73 9.28,1.49 14.87,6.5 3.17,2.86 7.37,7.2 10.3,10.97 9.72,12.46 24.7,21.94 40.6,10.25l10.08 -11.13c12.41,-15.67 15.79,-12.79 24.54,-16.59 -3.97,-2.44 -11.8,0.38 -15.21,3.16 -8.1,6.6 -27.78,42.17 -50.21,21.13 -2.29,-2.14 -3.45,-2.92 -5.61,-5.03 -2.28,-2.22 -17.58,-26.48 -29.36,-19.26z"/>
   <path class="fil0" d="M38.14 287.39c5.49,1.73 7.28,2.31 10.87,5.51l3.96 3.56c5.45,4.67 8,15.4 22.66,15.4 13.84,0 18.08,-10.75 19.53,-12.51 3.09,-3.77 0.49,-0.58 3.97,-3.56l1.61 -1.4c4.49,-4.06 4.37,-4.48 12.38,-7 -1.49,-1.62 4.5,-4.04 -6.43,-1.05 -4.25,1.16 -10.34,7.06 -12.71,10.34 -20.36,28.16 -34.93,1.08 -41.12,-4.73 -3.53,-3.33 -0.5,-1.17 -4.09,-3.53 -12.3,-8.08 -10.62,-1.05 -10.63,-1.03z"/>
   <path class="fil0" d="M189.39 287.39c9.3,2.92 7.96,3.23 14,8.4l4.61 4.43c3.93,5.37 0.94,4.61 7.02,8.06 20.06,11.41 28.26,-6.01 36.98,-13.89l1.51 -1.49c0.23,-0.21 0.53,-0.54 0.77,-0.74 2.78,-2.31 5.59,-3.36 10.1,-4.77 -1.49,-1.62 4.49,-4.04 -6.44,-1.05 -0.03,0.01 -4.81,2.52 -5.08,2.72 -1.9,1.4 -0.92,0.77 -2.42,2.14 -0.24,0.22 -0.56,0.53 -0.79,0.75l-4.41 4.73c-20.36,28.16 -34.94,1.08 -41.12,-4.73 -3.54,-3.33 -0.5,-1.17 -4.09,-3.53 -12.3,-8.08 -10.62,-1.05 -10.64,-1.03z"/>
   <path class="fil0" d="M25.62 245.04c18.12,4.46 15.22,6.31 24.42,16.53 19.46,21.61 31.72,21.61 51.18,0 9.2,-10.22 6.3,-12.07 24.42,-16.53 -0.1,-0.1 0.45,-7.77 -15.03,3.16 -8.51,6.01 -12.81,16.79 -19.64,21.22 -21.14,13.74 -31.99,-1 -40.69,-11.17 -3.81,-4.45 -10.4,-12.48 -17.57,-14.31 -12.78,-3.24 -5.36,-0.59 -7.09,1.1z"/>
   <path class="fil0" d="M491.91 287.39c9.29,2.92 7.95,3.23 13.99,8.4 10.95,9.39 3.2,7.7 11.63,12.49 20.07,11.41 28.26,-6.01 36.98,-13.89 4.49,-4.06 4.37,-4.48 12.38,-7 -1.48,-1.62 4.5,-4.04 -6.43,-1.05 -0.03,0.01 -4.82,2.52 -5.09,2.72 -1.9,1.4 -0.91,0.77 -2.42,2.14l-5.2 5.48c-2.68,3.72 -1.51,4.29 -6.9,8.2 -16.05,11.66 -26.04,-3.47 -30.44,-9.08 -2.01,-2.58 -0.92,-1.17 -3.77,-3.85 -3.54,-3.33 -0.51,-1.17 -4.1,-3.53 -12.3,-8.08 -10.62,-1.05 -10.63,-1.03z"/>
   <path class="fil0" d="M479.39 547.55c18.12,4.46 15.22,6.31 24.42,16.53 19.46,21.62 31.72,21.62 51.18,0 9.2,-10.22 6.3,-12.07 24.42,-16.53 -0.88,-0.85 3.13,-4.7 -8.26,-0.66 -12.82,4.54 -18.75,20.07 -26.41,25.05 -21.14,13.73 -31.99,-1 -40.69,-11.17 -3.51,-4.11 -5.8,-7.52 -10.52,-10.65 -0.69,-0.46 -6.3,-3.47 -7.05,-3.66 -12.78,-3.25 -5.36,-0.59 -7.09,1.09z"/>
   <path class="fil0" d="M479.39 245.04c18.12,4.46 15.22,6.31 24.42,16.53 19.46,21.61 31.72,21.61 51.18,0 9.2,-10.22 6.3,-12.07 24.42,-16.53 -0.88,-0.86 3.13,-4.7 -8.26,-0.67 -7.1,2.52 -11.79,8.5 -16.4,13.88 -4.43,5.19 -4.69,7.72 -10.01,11.17 -21.14,13.74 -31.99,-1 -40.69,-11.17 -3.51,-4.1 -5.8,-7.52 -10.52,-10.65 -0.69,-0.46 -6.3,-3.46 -7.05,-3.66 -12.78,-3.24 -5.36,-0.59 -7.09,1.1z"/>
   <path class="fil0" d="M328.13 547.55c18.12,4.46 15.22,6.31 24.42,16.53 19.46,21.62 31.72,21.62 51.18,0 9.2,-10.22 6.3,-12.07 24.42,-16.53 -0.88,-0.85 3.13,-4.7 -8.25,-0.66 -7.11,2.51 -11.8,8.49 -16.41,13.88 -4.43,5.18 -4.69,7.72 -10.01,11.17 -21.14,13.73 -31.99,-1 -40.69,-11.17 -3.81,-4.46 -10.39,-12.49 -17.57,-14.31 -12.78,-3.25 -5.36,-0.59 -7.09,1.09z"/>
   <path class="fil0" d="M340.65 287.39c9.3,2.92 7.96,3.23 13.99,8.4 10.96,9.39 3.2,7.7 11.63,12.49 8.1,4.6 16.79,4.61 24.68,-0.53 5.01,-3.26 3.14,-4.04 6.72,-8.4l7.87 -7.19c2.78,-2.31 5.59,-3.36 10.09,-4.77 -1.48,-1.62 4.5,-4.04 -6.43,-1.05 -0.03,0.01 -4.81,2.52 -5.09,2.72 -9.21,6.81 -7.7,10.86 -14.51,15.82 -16.06,11.66 -26.05,-3.47 -30.44,-9.08l-7.88 -7.38c-12.29,-8.08 -10.61,-1.05 -10.63,-1.03z"/>
   <path class="fil0" d="M176.88 245.04c18.12,4.46 15.22,6.31 24.41,16.53 19.47,21.61 31.72,21.61 51.19,0 9.2,-10.22 6.3,-12.07 24.41,-16.53 -0.09,-0.1 0.46,-7.77 -15.02,3.16 -10.19,7.2 -23.56,40.33 -51.25,20.63 -5.61,-4 -14.81,-21.88 -26.66,-24.89 -12.77,-3.24 -5.35,-0.59 -7.08,1.1z"/>
   <path class="fil0" d="M328.13 245.04c18.12,4.46 15.22,6.31 24.42,16.53 19.46,21.61 31.72,21.61 51.18,0 9.2,-10.22 6.3,-12.07 24.42,-16.53 -0.88,-0.86 3.13,-4.7 -8.25,-0.67 -12.83,4.55 -18.75,20.08 -26.42,25.05 -31.37,20.38 -39.73,-20.77 -58.26,-25.48 -12.78,-3.24 -5.36,-0.59 -7.09,1.1z"/>
   <path class="fil0" d="M176.88 547.55c18.12,4.46 15.22,6.31 24.41,16.53 19.47,21.62 31.72,21.62 51.19,0 9.2,-10.22 6.3,-12.07 24.41,-16.53 -0.87,-0.85 3.14,-4.7 -8.25,-0.66 -12.82,4.54 -18.75,20.07 -26.41,25.05 -31.38,20.38 -39.74,-20.77 -58.27,-25.48 -12.77,-3.25 -5.35,-0.59 -7.08,1.09z"/>
   <path class="fil0" d="M416.28 514.27c6.3,1.84 6.7,1.41 10.97,5.33 10.35,9.5 10.96,19.01 26.52,19.01 19.66,0 17.2,-16.61 32.09,-22.71 1.78,-0.73 3.58,-1.1 5.4,-1.63 -1.31,-1.39 4.42,-4.17 -6.44,-1.02 -3.53,1.02 -10.32,7.69 -12.59,10.39 -18.47,22.05 -25.8,12.22 -37.63,-0.81l-7.82 -7.36c-0.56,-0.41 -3.61,-2.27 -5.2,-2.52 -10.82,-1.73 -2.57,-1.58 -5.3,1.32z"/>
   <path class="fil0" d="M25.62 547.55c18.12,4.46 15.22,6.31 24.42,16.53 19.46,21.62 31.72,21.62 51.18,0 9.2,-10.22 6.3,-12.07 24.42,-16.53 -0.88,-0.85 3.13,-4.7 -8.26,-0.66 -7.1,2.51 -11.79,8.49 -16.4,13.88 -4.43,5.18 -4.69,7.72 -10.01,11.17 -31.37,20.38 -39.73,-20.77 -58.26,-25.48 -12.78,-3.25 -5.36,-0.59 -7.09,1.09z"/>
   <path class="fil0" d="M264.91 412.93c3.87,2.32 9,3.57 11.4,5.07 5.09,3.19 20.52,38.19 45.7,8.37 3.59,-4.25 2.15,-5.96 7.68,-8.89 2.87,-1.52 6.73,-2.33 10.42,-4.55 0,0 0.32,-4.51 -11.37,2.05 -5.92,3.32 -3.64,2.62 -7.55,7.54 -12.4,15.64 -20.16,17.49 -33.69,3.91 -8.41,-8.43 -4.03,-7.76 -12.2,-11.97 -12.01,-6.18 -10.01,-1.77 -10.39,-1.53z"/>
   <path class="fil0" d="M416.17 110.42c3.69,2.22 7.55,3.03 10.42,4.55 5.54,2.93 4.09,4.64 7.68,8.89 25.18,29.81 40.62,-5.19 45.71,-8.37 2.4,-1.5 7.53,-2.75 11.39,-5.07 -0.38,-0.24 1.62,-4.66 -10.38,1.53 -10.44,5.38 -13.47,20.49 -27.22,20.49 -7.76,0 -12.12,-4.17 -18.68,-12.43 -2.41,-3.05 -4.25,-7.5 -12.7,-9.92 -8.27,-2.38 -4.88,-0.53 -6.22,0.33z"/>
   <path class="fil0" d="M416.17 412.93c3.87,2.32 9,3.57 11.39,5.07 4.59,2.87 5.17,8.75 15.14,16.74 10.76,8.61 23.18,0.38 30.57,-8.37 3.59,-4.25 2.15,-5.96 7.68,-8.89 2.87,-1.52 6.73,-2.33 10.42,-4.55 -1.34,-0.86 2.06,-2.7 -6.22,-0.33 -8.45,2.43 -10.28,6.87 -12.7,9.92 -1.97,2.48 0.14,0.02 -2.13,2.42l-6.07 6.12c-4.6,4.29 -3.37,3.9 -10.48,3.9 -13.75,0 -16.78,-15.12 -27.22,-20.5 -12,-6.18 -10,-1.77 -10.38,-1.53z"/>
   <path class="fil0" d="M113.66 110.42c3.69,2.22 7.55,3.03 10.42,4.55 5.53,2.93 4.09,4.64 7.68,8.89 1.34,1.59 6.44,6.54 7.62,7.62 9.96,9.07 22.41,3 31.38,-7.62 3.3,-3.92 2.15,-5.52 6.7,-8.37 2.4,-1.5 7.53,-2.75 11.4,-5.07 -2.56,-1.64 4.36,-2.47 -5.14,-0.64 -0.68,0.13 -4.24,1.65 -5.25,2.17 -6.75,3.47 -6.87,6.86 -15.96,15.82 -9.98,9.83 -17.72,4.7 -25.5,-3.1 -7.96,-7.99 -5.47,-8.56 -11.98,-12.21 -11.69,-6.55 -11.37,-2.04 -11.37,-2.04z"/>
   <path class="fil0" d="M113.66 412.93c3.86,2.32 8.99,3.57 11.39,5.07 4.58,2.87 5.17,8.75 15.14,16.74 3.69,2.95 6.2,2.97 11.07,2.97 17.12,0 18.94,-15.87 27.17,-20.23 2.88,-1.52 6.73,-2.33 10.43,-4.55 -1.35,-0.86 2.05,-2.7 -6.22,-0.33 -8.45,2.43 -10.29,6.87 -12.71,9.92l-8.19 8.54c-11,10.24 -21.97,0.53 -29.16,-8.54 -4.3,-5.42 -1.78,-4.57 -8.54,-8.06 -12.01,-6.18 -10.01,-1.77 -10.38,-1.53z"/>
   <path class="fil0" d="M264.91 110.42c3.7,2.22 7.56,3.03 10.43,4.55 8.23,4.36 10.05,20.23 27.17,20.23 16.71,0 19.32,-15.4 26.21,-19.71 2.4,-1.5 7.53,-2.75 11.39,-5.07 -0.37,-0.24 1.63,-4.66 -10.38,1.53 -8.18,4.21 -3.79,3.54 -12.2,11.97 -7.54,7.56 -15.83,13.62 -25.5,4.63 -9.81,-9.13 -11.05,-15.64 -20.9,-18.46 -8.27,-2.38 -4.87,-0.53 -6.22,0.33z"/>
   <path class="fil0" d="M189.29 34.79c3.11,2.05 6.68,2.16 10.51,4.42 4.61,2.72 5.3,7.36 15.16,16.62 5.85,5.51 18.25,4.71 23.07,0.76 9.98,-8.16 10.48,-13.68 15,-16.8 3.31,-2.28 8.41,-2.99 11.45,-5 -0.01,-0.01 1.37,-5.32 -10.41,1.36 -9.31,5.28 -2.76,3.03 -11.32,11.46 -1.42,1.39 -2.18,2.12 -3.77,3.77 -7.26,7.52 -16.09,8.22 -23.47,0.79 -9.24,-9.3 -8.85,-11.8 -14.83,-15.45 -11.03,-6.73 -11.39,-1.93 -11.39,-1.93z"/>
   <path class="fil0" d="M415.96 260.16c2.75,2.46 -3.5,0.39 5.32,3.99 2.99,1.22 1.97,0.03 5.34,1.88 7.76,4.26 9.63,20.28 27.15,20.28 17.85,0 18.5,-15.86 28.16,-20.73 6.2,-3.12 7.09,-0.71 9.66,-5.42 -13.12,1.26 -13.61,3.85 -18.82,11.45 -6.89,10.05 -20.02,17.03 -30.2,7.38 -16.41,-15.56 -10.8,-17.32 -26.61,-18.83z"/>
   <path class="fil0" d="M113.77 211.76c6.3,1.83 6.7,1.41 10.97,5.32 13.72,12.6 5.84,10.75 14.63,15.68 3.24,1.82 7.39,3.34 11.89,3.34 14.54,0 17.85,-9.78 19.64,-12.25 1.2,-1.66 6.22,-6.31 7.64,-7.52 3.77,-3.24 3.69,-2.68 10.21,-4.57 -1.31,-1.39 4.41,-4.18 -6.45,-1.02 -1.63,0.47 -3.63,1.87 -4.89,2.91 -0.87,0.73 -6.71,6.3 -7.69,7.48 -4.36,5.2 -7.85,12.4 -18.46,12.4 -15.52,0 -20.7,-21.27 -32.19,-23.1 -10.82,-1.72 -2.57,-1.57 -5.3,1.33z"/>
   <path class="fil0" d="M340.54 34.79c3.11,2.05 6.69,2.16 10.51,4.42 7.4,4.36 10.46,20.41 27.09,20.41 16.36,0 19.61,-15.32 26.15,-19.83 3.3,-2.28 8.4,-2.99 11.45,-5 -0.01,-0.01 1.37,-5.32 -10.41,1.36 -6.76,3.83 -3.84,2.04 -7.79,7.47l-7.3 7.76c-11.69,12.12 -22.56,3.86 -30.87,-6.87 -1.44,-1.85 -4.23,-8.04 -12.61,-10.42 -7.4,-2.11 -5.27,0.08 -6.22,0.7z"/>
   <path class="fil0" d="M265.02 211.76c6.31,1.83 6.71,1.41 10.97,5.32 10.35,9.51 10.97,19.02 26.52,19.02 14.55,0 17.86,-9.78 19.65,-12.25 2.8,-3.87 7.75,-8.54 12.45,-10.46 1.77,-0.73 3.57,-1.1 5.4,-1.63 -1.32,-1.39 4.41,-4.18 -6.45,-1.02 -3.53,1.02 -10.32,7.69 -12.58,10.39 -4.37,5.2 -7.85,12.4 -18.47,12.4 -7.21,0 -12.21,-4.07 -15.91,-8.84 -1.3,-1.68 -0.67,-1.14 -1.88,-2.7l-1.37 -1.68c-2.42,-2.66 -9.09,-9.25 -13.02,-9.88 -10.83,-1.72 -2.58,-1.57 -5.31,1.33z"/>
   <path class="fil0" d="M416.28 211.76c24.1,7 15.33,24.34 37.49,24.34 19.23,0 17.49,-15.83 30.98,-22.26 2.07,-0.98 4.31,-1.44 6.51,-2.08 -2.73,-2.9 5.52,-3.05 -5.3,-1.33 -5.73,0.91 -12.86,9.84 -16.28,14.26 -0.86,1.11 -2.25,2.73 -3.62,3.95 -20.14,18.04 -31.63,-14.51 -43.33,-17.9 -10.87,-3.16 -5.14,-0.37 -6.45,1.02z"/>
   <path class="fil0" d="M38.03 34.79c3.11,2.05 6.69,2.16 10.51,4.42 7.4,4.36 10.45,20.41 27.09,20.41 9.23,0 13.6,-4.36 19.53,-11.39 3.35,-3.96 1.91,-5.2 6.62,-8.44 3.3,-2.28 8.4,-2.99 11.45,-5 -0.02,-0.01 1.37,-5.32 -10.41,1.36 -6.76,3.83 -3.84,2.04 -7.8,7.47 -7.14,9.79 -19.09,20.3 -30.76,8.55 -2.12,-2.13 -5.58,-5.3 -7.4,-7.66 -4.13,-5.32 -0.69,-3.67 -7.44,-7.79 -11.03,-6.73 -11.39,-1.93 -11.39,-1.93z"/>
   <path class="fil0" d="M264.7 260.16c2.75,2.46 -3.5,0.39 5.33,3.99 2.98,1.22 1.96,0.03 5.33,1.88 7.76,4.26 9.64,20.28 27.15,20.28 17.89,0 18.79,-16.04 28.04,-20.99 6.15,-3.29 6.85,0.23 9.78,-5.16 -13.12,1.26 -13.61,3.85 -18.82,11.45 -6.89,10.05 -20.02,17.03 -30.2,7.38 -16.41,-15.56 -10.8,-17.32 -26.61,-18.83z"/>
   <path class="fil0" d="M340.54 337.3c3.76,2.69 8.12,2.81 11.46,5.02 4.54,3 3.34,4.56 6.61,8.43 9.24,10.94 22.05,16.45 31.46,7.6 1.33,-1.25 6.19,-5.92 7.61,-7.6 3.62,-4.29 1.89,-5.69 7.55,-9.03 3.83,-2.25 7.4,-2.37 10.51,-4.42 -0.95,-0.62 1.18,-2.81 -6.22,-0.7 -8.38,2.38 -11.17,8.57 -12.6,10.42 -23.91,30.87 -33.21,-1.12 -45.96,-8.36 -11.79,-6.68 -10.4,-1.37 -10.42,-1.36z"/>
   <path class="fil0" d="M415.96 562.68c3.42,2.89 -2.32,0.55 5.42,3.54 16.47,6.37 12.97,22.61 32.39,22.61 17.88,0 18.79,-16.05 28.03,-21 6.16,-3.29 6.85,0.24 9.79,-5.15 -13.12,1.25 -13.61,3.85 -18.82,11.44 -6.89,10.05 -20.02,17.03 -30.2,7.38 -16.41,-15.55 -10.8,-17.31 -26.61,-18.82z"/>
   <path class="fil0" d="M189.29 337.3c3.05,2.01 8.15,2.73 11.45,5 6.54,4.51 9.79,19.83 26.15,19.83 16.63,0 19.69,-16.05 27.08,-20.41 3.83,-2.25 7.4,-2.37 10.51,-4.42 -0.94,-0.62 1.19,-2.81 -6.21,-0.7 -8.38,2.38 -11.18,8.57 -12.61,10.42 -14.94,19.3 -23.32,14.24 -34.63,3.1 -8.57,-8.43 -2.02,-6.18 -11.33,-11.46 -1.87,-1.06 -3.16,-1.99 -5.29,-2.35 -9.2,-1.56 -3.17,-0.29 -5.12,0.99z"/>
   <path class="fil0" d="M113.77 514.27c2.2,0.65 4.44,1.1 6.51,2.08 9.77,4.66 11.74,14.8 19.09,18.93 8.11,4.55 16.89,4.39 24.74,-0.55 5.84,-3.67 3.23,-3.47 6.79,-8.37 2.8,-3.86 7.75,-8.53 12.45,-10.46 1.78,-0.73 3.57,-1.1 5.4,-1.63 -1.31,-1.39 4.41,-4.17 -6.45,-1.02 -13.25,3.84 -24.59,42.22 -48.84,11.25 -2.32,-2.95 -10.12,-10.87 -14.39,-11.55 -10.82,-1.73 -2.57,-1.58 -5.3,1.32z"/>
   <path class="fil0" d="M265.02 514.27c19.24,5.59 15.75,15.47 25.61,21.01 8.11,4.55 16.89,4.39 24.74,-0.55 5.84,-3.67 3.23,-3.47 6.79,-8.37 2.8,-3.86 7.75,-8.53 12.45,-10.46 1.77,-0.73 3.57,-1.1 5.4,-1.63 -1.32,-1.39 4.41,-4.17 -6.45,-1.02 -3.53,1.02 -10.32,7.69 -12.58,10.39 -5,5.97 -16.07,20.67 -30.76,7.52 -3.12,-2.79 -12.6,-17.05 -19.89,-18.21 -10.83,-1.73 -2.58,-1.58 -5.31,1.32z"/>
   <path class="fil0" d="M491.8 34.79c3.11,2.05 6.69,2.16 10.51,4.42 7.4,4.36 10.45,20.41 27.09,20.41 4.52,0 8.13,-0.56 11.15,-3.03 9.97,-8.16 10.47,-13.68 15,-16.8 3.3,-2.28 8.4,-2.99 11.45,-5 -0.02,-0.01 1.37,-5.32 -10.41,1.36 -12.76,7.23 -22.06,39.23 -45.96,8.36 -1.44,-1.85 -4.23,-8.04 -12.61,-10.42 -7.4,-2.11 -5.27,0.08 -6.22,0.7z"/>
   <path class="fil0" d="M491.8 337.3c3.75,2.69 8.12,2.81 11.45,5.02 6.44,4.24 9.69,19.81 26.15,19.81 16.64,0 19.69,-16.05 27.09,-20.41 3.82,-2.25 7.4,-2.37 10.51,-4.42 -0.95,-0.62 1.18,-2.81 -6.22,-0.7 -8.38,2.38 -11.17,8.57 -12.61,10.42 -23.9,30.87 -33.2,-1.12 -45.96,-8.36 -11.78,-6.68 -10.4,-1.37 -10.41,-1.36z"/>
   <path class="fil0" d="M113.44 260.16c2.76,2.46 -3.5,0.39 5.33,3.99 2.99,1.22 1.97,0.03 5.33,1.88 7.76,4.26 9.64,20.28 27.16,20.28 17.88,0 18.78,-16.04 28.03,-20.99 6.15,-3.29 6.85,0.23 9.78,-5.16 -13.11,1.26 -13.6,3.85 -18.82,11.45 -6.89,10.05 -20.02,17.03 -30.2,7.38 -3.58,-3.4 -5.11,-3.48 -7.79,-7.38 -5.21,-7.6 -5.7,-10.19 -18.82,-11.45z"/>
   <path class="fil0" d="M340.65 235.96l5.71 3.26c9.74,3.8 9.84,11 20.67,18.48 7.41,5.12 15.89,4.74 23.1,-0.62l10 -9.71c11.83,-13.78 10.15,-5.26 15.5,-11.41 -16.03,-4.23 -19.26,22.37 -37.49,22.37 -18.23,0 -21.45,-26.6 -37.49,-22.37z"/>
   <path class="fil0" d="M38.03 337.3c3.05,2.01 8.15,2.73 11.45,5 6.54,4.51 9.8,19.83 26.15,19.83 16.64,0 19.69,-16.05 27.09,-20.41 3.82,-2.25 7.4,-2.37 10.51,-4.42 -0.95,-0.62 1.18,-2.81 -6.22,-0.7 -16.12,4.59 -25.42,44.31 -50.78,9.53 -2.26,-3.1 -5.8,-8.59 -13.07,-9.82 -9.21,-1.56 -3.17,-0.29 -5.13,0.99z"/>
   <path class="fil0" d="M189.39 235.96c1.66,1.9 -0.11,0.5 2.63,2.03 2.48,1.38 1.22,0.5 3.09,1.23 7.85,3.07 7.28,5.97 16.52,15.04 10.1,9.91 21.34,9.31 31.25,-0.79l5.27 -5.3c0.21,-0.23 0.52,-0.56 0.72,-0.8 11.83,-13.78 10.15,-5.26 15.51,-11.41 -16.04,-4.23 -19.27,22.37 -37.49,22.37 -11.3,0 -13.37,-6.53 -19.01,-12.43 -3.26,-3.41 -9.73,-12.25 -18.49,-9.94z"/>
   <path class="fil0" d="M259.95 0l-3.47 0 -18.71 20.03c-4.93,2.35 -15.65,2.37 -20.72,0.43 -6.57,-2.52 -12.4,-11.42 -16.6,-16.74l-3.16 -3.72 -3.47 0 9.01 11.91c18.23,20.08 35.23,16.56 50.65,-3.53 3.68,-4.8 4.02,-1.73 6.47,-8.38z"/>
   <path class="fil0" d="M491.91 235.96l5.71 3.26c7.86,3.07 7.28,5.97 16.53,15.04 7.85,7.71 17.76,9.87 27.24,2.82l9.99 -9.71c11.83,-13.78 10.16,-5.26 15.51,-11.41 -16.03,-4.23 -19.26,22.37 -37.49,22.37 -18.23,0 -21.46,-26.6 -37.49,-22.37z"/>
   <path class="fil0" d="M416.28 311.59l5.82 3.17c15.53,6.75 24.08,40.25 51.37,10.46 12.61,-13.76 3.33,-5.3 16,-12.31l1.79 -1.32c-15.26,-5.49 -19.35,22.57 -37.49,22.57 -10.95,0 -13.92,-7.34 -19.04,-12.61 -3.64,-3.74 -9.57,-13.15 -18.45,-9.96z"/>
   <path class="fil0" d="M189.39 538.48c4.13,4.73 5.04,1.17 10.68,5.57l5.55 6.63c0.21,0.23 0.53,0.54 0.75,0.76 13.93,14.42 22.65,18.38 38.72,2.2l2.31 -2.2c0.22,-0.22 0.54,-0.53 0.75,-0.76 0.21,-0.23 0.52,-0.56 0.72,-0.8 6.14,-7.15 0.75,-4.29 10.86,-8.49 2.75,-1.15 0.78,-0.22 2.93,-1.49l1.72 -1.42c-16.04,-4.24 -19.27,22.37 -37.49,22.37 -18.23,0 -21.46,-26.61 -37.5,-22.37z"/>
   <path class="fil0" d="M264.7 562.68c7.52,6.36 5.01,2.08 10.75,5.72 8.1,5.13 9.69,20.43 27.06,20.43 17.89,0 18.79,-16.05 28.04,-21 6.15,-3.29 6.85,0.24 9.78,-5.15 -13.12,1.25 -13.61,3.85 -18.82,11.44 -6.89,10.05 -20.02,17.03 -30.2,7.38 -3.58,-3.39 -5.12,-3.48 -7.79,-7.38 -5.22,-7.59 -5.7,-10.19 -18.82,-11.44z"/>
   <path class="fil0" d="M38.14 235.96c1.65,1.9 -0.11,0.5 2.63,2.03 2.47,1.38 1.22,0.5 3.08,1.23 16.1,6.29 22.55,39.51 49.98,11.91l3.07 -2.96c0.21,-0.23 0.51,-0.56 0.71,-0.8 10.89,-12.68 4.17,-4.34 13.79,-9.98l1.72 -1.43c-8.76,-2.31 -15.23,6.53 -18.48,9.94 -5.64,5.9 -7.72,12.43 -19.01,12.43 -11.3,0 -13.37,-6.53 -19.01,-12.43 -3.26,-3.41 -9.73,-12.25 -18.48,-9.94z"/>
   <path class="fil0" d="M113.44 562.68c3.42,2.89 -2.32,0.55 5.42,3.54 12.04,4.66 6.71,4.23 12.9,11.48 0.51,0.61 8.18,8.16 8.34,8.3 4.61,3.77 17.38,4.63 23.09,-0.76 1.84,-1.74 6.76,-6.46 8.24,-8.4 3.18,-4.16 2.13,-5.94 7.86,-9.01 6.15,-3.29 6.85,0.24 9.78,-5.15 -13.11,1.25 -13.6,3.85 -18.82,11.44 -10.88,15.87 -27.11,15.87 -37.99,0 -5.21,-7.59 -5.7,-10.19 -18.82,-11.44z"/>
   <path class="fil0" d="M491.91 538.48l5.71 3.25c14.29,5.59 22.91,33.38 43.77,17.86 2.16,-1.6 1.97,-1.53 4,-3.6l4.53 -4.55c14.04,-14.53 0.09,-2.65 15.25,-11.54l1.72 -1.42c-16.03,-4.24 -19.26,22.37 -37.49,22.37 -11.29,0 -13.37,-6.53 -19.01,-12.44 -3.25,-3.41 -9.72,-12.25 -18.48,-9.93z"/>
   <path class="fil0" d="M265.02 9.08c2.31,2.42 6.78,3.08 9.74,5.05 1.66,1.11 2.68,2.27 3.9,3.67 1.93,2.21 1.74,2.28 4.15,4.91 14.5,15.82 24.91,15.82 39.4,0 2.13,-2.32 1.58,-1.81 3.48,-4.07 8.16,-9.7 9.55,-4.56 14.32,-9.56 -8.88,-3.2 -14.81,6.21 -18.45,9.96 -5.12,5.26 -8.09,12.6 -19.05,12.6 -18.14,0 -22.22,-28.06 -37.49,-22.56z"/>
   <path class="fil0" d="M340.65 538.48c4.13,4.73 5.04,1.17 10.68,5.57l11.56 12.73c10.1,9.91 21.33,9.31 31.25,-0.79l5.27 -5.31c3.35,-3.66 2.8,-4.93 6.42,-7.26 3.77,-2.42 6.93,-1.64 9.8,-4.94 -8.75,-2.32 -15.22,6.52 -18.48,9.93 -5.64,5.91 -7.71,12.44 -19.01,12.44 -18.23,0 -21.45,-26.61 -37.49,-22.37z"/>
   <path class="fil0" d="M38.14 538.48l5.71 3.25c8.8,3.44 4.69,2.6 10.51,8.95l3.81 3.73c15.44,15.79 25.73,10.46 38.73,-3.73 0.21,-0.23 0.51,-0.56 0.71,-0.8 1.27,-1.47 0.62,-0.91 1.96,-2.6 5.71,-7.2 5.6,-3.72 11.83,-7.38l1.72 -1.42c-16.04,-4.24 -19.26,22.37 -37.49,22.37 -11.3,0 -13.37,-6.53 -19.01,-12.44 -3.26,-3.41 -9.73,-12.25 -18.48,-9.93z"/>
   <path class="fil0" d="M411.2 0l-3.46 0 -5.1 6.42c-7.62,11.66 -19.46,19.74 -34.33,14.04 -6.52,-2.5 -3.44,-2.4 -7.44,-6.19l-11.52 -13.3c-0.18,-0.22 -0.57,-0.62 -0.81,-0.97l-3.46 0c2.27,6.15 1.89,3.04 5.77,7.55 8.4,9.76 18.22,23.28 38.02,15.24 6.75,-2.74 4.44,-2.13 8.82,-6.28 2.48,-2.35 1.83,-1.09 3.98,-3.55 1.88,-2.16 1.52,-2.57 3.06,-4.58 3.69,-4.8 4.03,-1.73 6.47,-8.38z"/>
   <path class="fil1" d="M491.96 488.56c3.47,2.15 8.39,2.75 11.38,4.86 3.83,2.7 22.46,39.06 46.13,7.69 11.48,-15.22 6.01,-5.5 17.37,-12.55 -16.78,-10.17 -27.16,47.58 -57.05,9.04 -2.72,-3.51 -3.15,-4.94 -7.55,-7.69 -9.73,-6.07 -10.14,-1.43 -10.28,-1.35z"/>
   <path class="fil0" d="M113.77 9.08l1.79 1.32c5.94,3.28 6.73,1.54 11.85,7.4 17.18,19.7 26.76,24.94 47.02,0.84 1.78,-2.12 1.08,-1.86 3.71,-3.87 5.58,-4.29 7.01,-1.92 10.61,-5.69 -8.88,-3.2 -14.81,6.21 -18.45,9.96 -5.12,5.26 -8.09,12.6 -19.04,12.6 -18.14,0 -22.23,-28.06 -37.49,-22.56z"/>
   <path class="fil1" d="M38.19 488.56c3.46,2.15 8.39,2.75 11.38,4.86 3.83,2.7 22.46,39.06 46.13,7.69 11.48,-15.22 6.01,-5.5 17.37,-12.55 -7.27,-4.4 -14.13,4.55 -18.48,9.91 -24.09,29.7 -35.69,-2.04 -46.12,-8.56 -9.73,-6.07 -10.14,-1.43 -10.28,-1.35z"/>
   <path class="fil0" d="M416.28 9.08l4.78 2.78c3.06,1.36 2.32,0.51 4.96,2.27 1.66,1.11 2.67,2.27 3.9,3.67 32.99,37.82 37.14,2.43 55.52,-5.55l5.82 -3.17c-15.26,-5.5 -19.35,22.56 -37.49,22.56 -18.14,0 -22.22,-28.06 -37.49,-22.56z"/>
   <path class="fil0" d="M265.02 311.59l5.82 3.17c2.8,1.22 2.55,-0.68 8.5,6.4 20.26,24.09 29.84,18.85 47.02,-0.84 5.68,-6.51 12.25,-6.43 12.76,-8.05 0.14,-0.46 0.63,-0.41 0.89,-0.68 -8.88,-3.19 -14.81,6.22 -18.45,9.96 -5.12,5.27 -8.09,12.61 -19.05,12.61 -18.14,0 -22.22,-28.06 -37.49,-22.57z"/>
   <path class="fil0" d="M113.77 311.59l5.82 3.17c2.79,1.22 2.54,-0.68 8.49,6.4 20.26,24.09 29.85,18.85 47.03,-0.84 5.68,-6.51 12.24,-6.43 12.75,-8.05 0.14,-0.46 0.63,-0.41 0.89,-0.68 -15.27,-5.49 -19.35,22.57 -37.49,22.57 -10.95,0 -13.93,-7.34 -19.04,-12.61 -3.65,-3.74 -9.58,-13.15 -18.45,-9.96z"/>
   <path class="fil1" d="M189.45 488.56c3.46,2.15 8.38,2.75 11.37,4.86 3.83,2.7 22.46,39.06 46.14,7.69 11.48,-15.22 6,-5.5 17.36,-12.55 -16.78,-10.17 -27.15,47.58 -57.04,9.04 -2.75,-3.54 -6.53,-8.95 -12.79,-9.87 -8.45,-1.24 -3.33,-0.21 -5.04,0.83z"/>
   <path class="fil1" d="M38.19 186.05c11.36,7.04 5.88,-2.67 17.37,12.54 23.67,31.38 42.3,-4.99 46.13,-7.69 2.99,-2.11 7.91,-2.71 11.38,-4.85 -0.17,-0.1 -0.27,-4.48 -10.22,1.42 -10.56,6.25 -22,38.3 -46.19,8.48 -4.34,-5.35 -11.2,-14.31 -18.47,-9.9z"/>
   <path class="fil0" d="M108.69 0l-3.46 0c-0.24,0.35 -0.68,0.39 -0.81,0.97 -0.08,0.31 -12,16.24 -17.9,19.06 -4.94,2.35 -15.65,2.37 -20.73,0.43 -6.56,-2.52 -12.4,-11.42 -16.6,-16.74l-3.16 -3.72 -3.46 0c2.26,6.15 1.89,3.04 5.77,7.55 8.4,9.76 18.22,23.28 38.01,15.24 8.06,-3.27 20.7,-18.33 22.34,-22.79z"/>
   <path class="fil1" d="M340.89 438.65c23.64,7.41 17.18,24.32 37.25,24.32 20.02,0 13.54,-16.88 37.25,-24.32 -0.5,-0.52 3.58,-3.96 -6.14,-1.02 -1.47,0.44 -3.76,2.14 -4.87,3.02 -13.75,10.88 -11.86,19.85 -26.24,19.85 -11.69,0 -15.31,-8.23 -19.16,-13.32 -2.03,-2.68 -4.92,-5.03 -7.93,-7.23 -11.38,-8.33 -10.09,-1.38 -10.16,-1.3z"/>
   <path class="fil1" d="M491.96 186.05c11.36,7.04 5.89,-2.67 17.37,12.54 23.67,31.38 42.3,-4.99 46.13,-7.69 2.99,-2.11 7.91,-2.71 11.38,-4.85 -1.72,-1.04 3.4,-2.07 -5.05,-0.84 -15.04,2.21 -24.74,43.56 -51.35,10.74 -4.35,-5.35 -11.21,-14.31 -18.48,-9.9z"/>
   <path class="fil0" d="M113.66 160.33l1.82 1.07c14.88,7.22 4.74,0.29 16.07,12.58 27.31,29.63 37.03,-4.38 51.36,-10.79 0.73,-0.32 2.5,-0.98 3.17,-1.3l2.78 -1.56c-16.12,-3.87 -20.17,22.52 -37.6,22.52 -17.43,0 -21.49,-26.39 -37.6,-22.52z"/>
   <path class="fil1" d="M340.7 488.56c3.47,2.15 8.39,2.75 11.38,4.86 3.68,2.59 3.73,5 6.66,8.55 12.96,15.7 27.3,15.27 39.48,-0.86 11.48,-15.22 6,-5.5 17.36,-12.55 -1.35,-0.82 -3.25,-3.58 -11.19,1.98 -9.5,6.65 -21.96,37.87 -45.86,7.06 -2.75,-3.54 -6.52,-8.95 -12.78,-9.87 -8.45,-1.24 -3.33,-0.21 -5.05,0.83z"/>
   <path class="fil1" d="M189.64 136.13c23.71,7.44 17.23,24.33 37.25,24.33 20.06,0 13.61,-16.91 37.25,-24.33 -0.08,-0.07 1.22,-7.02 -10.16,1.3 -10.39,7.6 -24.83,38.43 -45.64,8.15 -2.72,-3.96 0.06,-0.67 -3.62,-3.98 -0.72,-0.65 -3.06,-2.66 -4.07,-3.47 -1.11,-0.87 -3.41,-2.57 -4.87,-3.02 -9.72,-2.93 -5.64,0.5 -6.14,1.02z"/>
   <path class="fil0" d="M264.91 462.85l1.82 1.07c13.65,6.9 4.25,-0.26 16.07,12.57 26.14,28.36 37.49,-1.96 47.33,-8.72l9.08 -4.38c0.14,-0.42 0.63,-0.32 0.9,-0.54 -16.11,-3.88 -20.16,22.52 -37.6,22.52 -17.43,0 -21.48,-26.4 -37.6,-22.52z"/>
   <path class="fil0" d="M113.66 462.85l1.82 1.07c0.24,0.12 0.68,0.36 0.96,0.49l8.08 4.01c9.5,7.53 20.95,35.73 46.45,8.07 11.32,-12.28 1.18,-5.35 16.07,-12.57l1.82 -1.07c-16.12,-3.88 -20.17,22.52 -37.6,22.52 -17.43,0 -21.49,-26.4 -37.6,-22.52z"/>
   <path class="fil1" d="M189.64 438.65c5.87,1.84 7.02,1.55 10.95,5.09 10.87,9.81 12.08,19.23 26.3,19.23 20.01,0 13.53,-16.88 37.25,-24.32 -0.51,-0.52 3.57,-3.96 -6.15,-1.02 -4.13,1.25 -10.39,7.31 -12.56,10.46 -20.81,30.28 -35.25,-0.55 -45.63,-8.14 -11.39,-8.33 -10.09,-1.38 -10.16,-1.3z"/>
   <path class="fil0" d="M416.17 462.85l1.82 1.07c0.25,0.12 0.69,0.36 0.96,0.49l8.08 4.01c3.69,2.92 3.54,4.29 7.03,8.07 26.14,28.36 37.49,-1.96 47.32,-8.72l9.09 -4.38c0.14,-0.42 0.63,-0.32 0.9,-0.54 -16.11,-3.88 -20.17,22.52 -37.6,22.52 -17.43,0 -21.49,-26.4 -37.6,-22.52z"/>
   <path class="fil0" d="M264.91 160.33c0.28,0.23 0.77,0.13 0.91,0.55l9.08 4.38c9.84,6.75 21.19,37.07 47.32,8.72 10.07,-10.92 1.81,-5.74 15.11,-12.09l2.78 -1.56c-16.11,-3.87 -20.16,22.52 -37.6,22.52 -17.43,0 -21.48,-26.39 -37.6,-22.52z"/>
   <path class="fil1" d="M189.45 186.05c3.3,2.04 7.24,2.37 10.45,4.27 6.35,3.76 21.82,38.88 46.39,9.14 2.93,-3.55 2.98,-5.96 6.66,-8.56 2.99,-2.11 7.91,-2.71 11.37,-4.85 -0.13,-0.09 -0.55,-4.72 -10.27,1.35 -10.44,6.51 -22.03,38.26 -46.13,8.55 -4.34,-5.35 -11.21,-14.31 -18.47,-9.9z"/>
   <path class="fil0" d="M416.17 160.33c0.27,0.23 0.77,0.13 0.9,0.55l9.09 4.38c9.83,6.75 21.19,37.07 47.32,8.72 5.59,-6.07 3.71,-7.1 11.95,-10.79 0.73,-0.32 2.49,-0.98 3.16,-1.3l2.78 -1.56c-16.11,-3.87 -20.17,22.52 -37.6,22.52 -17.43,0 -21.49,-26.39 -37.6,-22.52z"/>
   <path class="fil1" d="M492.15 136.13c4.78,1.5 7.05,1.8 10.16,4.35 6.61,5.41 25.07,37.73 46.03,8.53 6.14,-8.54 10.33,-10.37 18.31,-12.88 -0.07,-0.07 1.22,-7.02 -10.16,1.3 -10.38,7.6 -24.82,38.43 -45.64,8.15 -2.17,-3.16 -8.42,-9.22 -12.56,-10.47 -9.72,-2.93 -5.64,0.5 -6.14,1.02z"/>
   <path class="fil1" d="M340.7 186.05c3.3,2.04 7.25,2.37 10.45,4.27 6.36,3.76 21.83,38.88 46.39,9.14 2.93,-3.55 2.98,-5.96 6.67,-8.56 2.98,-2.11 7.91,-2.71 11.37,-4.85 -1.72,-1.04 3.41,-2.07 -5.05,-0.84 -6.25,0.92 -10.03,6.34 -12.78,9.88 -26.2,33.78 -36.74,-6.04 -50.89,-9.64 -6.77,-1.72 -5.12,-0.03 -6.16,0.6z"/>
   <path class="fil0" d="M416.52 60.5c25.83,9.19 16.65,24.33 37.25,24.33 20.51,0 11.68,-15.23 37.25,-24.33 -1.68,-1.87 4.64,-3.31 -5.04,-1.13 -0.96,0.21 -4.86,2.76 -4.93,2.81 -15.83,11.6 -12.13,19.91 -27.28,19.91 -14.79,0 -11.7,-7.98 -26.45,-19.25 -12.38,-9.47 -10.76,-2.38 -10.8,-2.34z"/>
   <path class="fil0" d="M562.46 0l-3.46 0c-4.03,6.03 -13.94,18.23 -19.77,20.46 -5.07,1.94 -15.78,1.92 -20.72,-0.43 -5.24,-2.5 -11.18,-10.51 -14.84,-15.44l-3.87 -4.59 -3.46 0c2.26,6.15 1.89,3.04 5.77,7.55l7.23 7.94c8.32,8.53 17.86,12.55 30.78,7.3 8.06,-3.27 20.7,-18.33 22.34,-22.79z"/>
   <path class="fil0" d="M265.26 363.02c5.64,2 6.94,1.81 10.93,5.14 7.76,6.47 23.85,36.93 45.82,6.81 5.1,-7.01 9.87,-9.15 17.75,-11.95 -0.64,-0.72 3.54,-4.29 -6.13,-0.76 -13.39,4.88 -14.21,22.35 -31.12,22.35 -12.09,0 -14.25,-7.03 -19.16,-13.02 -1.78,-2.18 -6.3,-5.57 -8.12,-6.9 -11.73,-8.6 -9.91,-1.73 -9.97,-1.67z"/>
   <path class="fil1" d="M38.38 136.13c4.78,1.5 7.05,1.8 10.16,4.35 0.82,0.67 6.57,6.41 7.52,7.65 22.43,29.12 37.04,1.05 45.87,-6.9 3.93,-3.55 5.07,-3.25 10.95,-5.1 -0.07,-0.07 1.22,-7.02 -10.16,1.3 -10.39,7.6 -24.82,38.43 -45.64,8.15 -2.17,-3.16 -8.42,-9.22 -12.56,-10.47 -9.72,-2.93 -5.64,0.5 -6.14,1.02z"/>
   <path class="fil1" d="M492.15 438.65c5.88,1.84 7.02,1.55 10.95,5.09 8.83,7.96 23.44,36.02 45.87,6.9 5.59,-7.26 9.22,-9.34 17.68,-11.99 -0.5,-0.52 3.58,-3.96 -6.14,-1.02 -1.47,0.44 -3.77,2.14 -4.87,3.02 -1.02,0.8 -3.35,2.82 -4.08,3.47 -7.25,6.51 -8.65,16.38 -22.16,16.38 -11.7,0 -15.31,-8.23 -19.17,-13.32 -2.03,-2.68 -4.91,-5.03 -7.92,-7.23 -11.38,-8.33 -10.09,-1.38 -10.16,-1.3z"/>
   <path class="fil0" d="M340.54 84.7l1.82 1.4c13.33,7.44 2.94,-1.11 15.94,12.35 28.84,29.87 34.67,-3.66 51.56,-10.53l5.88 -3.22c-16.72,-5.26 -25.16,36.34 -48.98,18.96 -4.53,-3.3 -14.82,-22.54 -26.22,-18.96z"/>
   <path class="fil0" d="M491.8 84.7c2.59,2.78 7.14,3.17 9.86,5 10.1,6.79 20.46,36.85 47.58,8.75 17.38,-18 3.64,-5.68 14.99,-11.77 2.67,-1.43 1.07,-0.16 2.77,-1.98 -11.12,-3.49 -22.29,15.7 -25.35,18.3 -16.93,14.42 -30.95,-8.01 -31.3,-8.36 -3.16,-3.16 -10.54,-12.46 -18.55,-9.94z"/>
   <path class="fil0" d="M38.03 387.22c1.7,1.82 0.1,0.54 2.77,1.98 11.35,6.08 -2.39,-6.24 14.99,11.77 27.12,28.1 37.48,-1.97 47.58,-8.76l8.95 -4.27c0.15,-0.48 0.64,-0.44 0.91,-0.72 -8.01,-2.52 -15.39,6.78 -18.55,9.93 -5.37,5.37 -2.54,5.29 -7.67,9.03 -17.19,12.53 -29.23,-7.83 -30.43,-9.03 -3.16,-3.15 -10.54,-12.45 -18.55,-9.93z"/>
   <path class="fil0" d="M491.8 387.22c1.7,1.82 0.1,0.54 2.77,1.98 11.35,6.08 -2.39,-6.24 14.99,11.77 27.12,28.1 37.48,-1.97 47.58,-8.76l9.86 -4.99c-11.4,-3.59 -21.69,15.66 -26.22,18.96 -17.19,12.53 -29.23,-7.83 -30.43,-9.03 -3.16,-3.15 -10.54,-12.45 -18.55,-9.93z"/>
   <path class="fil0" d="M340.54 387.22c1.7,1.82 0.1,0.54 2.78,1.98 11.34,6.08 -2.4,-6.24 14.98,11.77 27.12,28.1 37.49,-1.97 47.58,-8.76 2.73,-1.83 7.27,-2.22 9.86,-4.99 -11.4,-3.59 -21.69,15.66 -26.21,18.96 -23.83,17.37 -32.26,-24.22 -48.99,-18.96z"/>
   <path class="fil0" d="M189.29 387.22c1.7,1.82 0.09,0.54 2.77,1.98 11.34,6.08 -2.4,-6.24 14.98,11.77 27.13,28.1 37.49,-1.97 47.58,-8.76 2.73,-1.83 7.27,-2.22 9.86,-4.99 -11.4,-3.59 -21.68,15.66 -26.21,18.96 -23.83,17.37 -32.26,-24.22 -48.98,-18.96z"/>
   <path class="fil0" d="M114.01 60.5c25.82,9.19 16.65,24.33 37.25,24.33 15.22,0 14.86,-9.62 26.32,-19.19 3.99,-3.33 5.29,-3.13 10.93,-5.14 -1.68,-1.87 4.64,-3.31 -5.05,-1.13 -12.35,2.77 -15.87,22.72 -32.2,22.72 -11.36,0 -14.21,-6.36 -18.52,-12.15l-12.59 -10.19c-9.68,-3.53 -5.5,0.04 -6.14,0.75z"/>
   <path class="fil1" d="M38.38 438.65c5.87,1.84 7.02,1.55 10.95,5.09 8.83,7.96 23.44,36.02 45.87,6.9 5.59,-7.26 9.22,-9.34 17.68,-11.99 -0.51,-0.52 3.58,-3.96 -6.14,-1.02l-8.95 6.49c-7.25,6.51 -8.65,16.38 -22.16,16.38 -11.7,0 -15.31,-8.23 -19.17,-13.32 -2.03,-2.68 -4.91,-5.03 -7.92,-7.23 -11.38,-8.33 -10.09,-1.38 -10.16,-1.3z"/>
   <path class="fil1" d="M340.89 136.13c4.78,1.5 7.05,1.8 10.16,4.35 6.62,5.41 25.07,37.73 46.03,8.53 6.14,-8.54 10.33,-10.37 18.31,-12.88 -1.93,-1.98 4.89,-2.94 -5.02,-1.31 -1.89,0.31 -3.67,1.54 -5.14,2.61 -3.01,2.2 -5.89,4.56 -7.92,7.24 -3.85,5.08 -7.47,13.32 -19.17,13.32 -13.51,0 -14.91,-9.87 -22.16,-16.39l-8.94 -6.49c-9.72,-2.93 -5.64,0.5 -6.15,1.02z"/>
   <path class="fil0" d="M189.29 84.7l4.82 2.87c2.1,0.88 2.82,0.64 5.04,2.13 3.75,2.53 4.17,4.89 7.89,8.75 26.27,27.21 36.76,-0.11 46.72,-8.11 5.32,-4.26 0.52,-0.66 4.85,-2.42l5.87 -3.22c-11.12,-3.49 -22.28,15.7 -25.34,18.3 -6.46,5.5 -16.79,5.66 -23.64,0.66 -4.52,-3.3 -14.81,-22.54 -26.21,-18.96z"/>
   <path class="fil0" d="M114.01 363.02c5.63,2 6.93,1.81 10.92,5.14 2.54,2.12 5.52,4.9 7.43,7.71 10.81,15.96 25.95,16.15 38.39,-0.9 5.11,-7.01 9.87,-9.15 17.76,-11.95 -0.65,-0.72 3.53,-4.29 -6.14,-0.76 -13.39,4.88 -14.2,22.35 -31.11,22.35 -15.15,0 -11.45,-8.31 -27.28,-19.92 -11.74,-8.6 -9.92,-1.73 -9.97,-1.67z"/>
   <path class="fil0" d="M38.03 84.7c2.59,2.78 7.14,3.17 9.86,5 10.09,6.79 20.46,36.85 47.58,8.75 6.77,-7.01 3.26,-7.02 11.88,-10.53l5.88 -3.22c-11.12,-3.49 -22.29,15.7 -25.35,18.3 -16.93,14.42 -30.95,-8.01 -31.3,-8.36 -3.16,-3.16 -10.54,-12.46 -18.55,-9.94z"/>
   <path class="fil0" d="M416.52 363.02c25.58,9.09 16.74,24.32 37.25,24.32 15.94,0 14.98,-10.59 27.14,-19.89 3.12,-2.39 5.53,-2.8 10.11,-4.43 -0.64,-0.72 3.54,-4.29 -6.14,-0.76l-12.59 10.2c-4.31,5.78 -7.16,12.15 -18.52,12.15 -15.15,0 -11.45,-8.31 -27.28,-19.92 -0.07,-0.05 -3.97,-2.59 -4.92,-2.81 -9.69,-2.18 -3.37,-0.73 -5.05,1.14z"/>
   <path class="fil0" d="M265.26 60.5c4.59,1.63 6.99,2.05 10.12,4.44 12.15,9.29 11.2,19.89 27.13,19.89 15.23,0 14.86,-9.62 26.33,-19.19 3.99,-3.33 5.29,-3.13 10.92,-5.14 -1.68,-1.87 4.64,-3.31 -5.04,-1.13l-13.05 9.7c-4.9,6 -7.06,13.02 -19.16,13.02 -16.91,0 -17.72,-17.46 -31.11,-22.34 -9.67,-3.53 -5.49,0.04 -6.14,0.75z"/>
   <path class="fil0" d="M353.4 178.48c8.77,5.62 5.68,0.17 11.18,9.06 6.42,10.38 20.7,10.38 27.13,0 5.5,-8.89 2.41,-3.44 11.18,-9.06 -1.13,-1.34 2.2,-3.78 -5.36,-0.5 -2.82,1.21 -4.22,3.07 -5.95,4.87l-9.34 9.25 -8.2 0.08c-1.74,-2.13 -2.4,-3.02 -3.73,-4.23 -1.88,-1.69 -0.87,-0.57 -2.53,-2.03 -3.19,-2.81 0.35,0.48 -3.08,-3.07 -10.78,-11.2 -10.91,-4.84 -11.3,-4.37z"/>
   <path class="fil0" d="M202.25 228.4c1.95,2.24 10.57,6.37 19.02,17.28l11.23 -0.43c4.4,-5.24 4.8,-4.89 9.53,-9.31l9.49 -7.54c-4.02,-2.75 -10.01,3.65 -13.35,6.72l-1.5 1.51c-17.98,18.42 -23.85,-15.46 -34.42,-8.23z"/>
   <path class="fil0" d="M599.85 605.03l5.18 0 0 -2.38c-6.72,-1.3 -11.02,-2.98 -15.39,-6.44 -11.41,-9.01 -11.43,-20.64 -28.1,-24.72 -9.51,-2.33 -5.49,-0.64 -7.29,2.42 15.47,-0.22 18.87,7.53 24.42,15.12 1.48,2.01 3.71,3.72 5.29,5.27 12.09,11.92 4.74,5.47 15.89,10.73z"/>
   <path class="fil0" d="M50.88 178.48c8.77,5.62 5.68,0.17 11.18,9.06 6.43,10.38 20.71,10.38 27.14,0 5.5,-8.89 2.4,-3.44 11.17,-9.06 -0.05,-0.07 -0.24,-7.11 -11.3,4.37l-9.34 9.25 -8.17 0.08 -14.32 -13.66c-7.23,-4.03 -4.64,-2.08 -6.36,-0.04z"/>
   <path class="fil0" d="M126.51 353.94c0.15,0.21 0.47,0.46 0.57,0.54l16.52 14.8c4.95,2.76 11.96,2.33 16.27,-0.57 5.55,-3.73 1.42,-1.43 5.1,-5.6 4.77,-5.39 10,-7.73 11.03,-9.17 -5.68,-1.76 -10.84,2.7 -12.75,5.97 -2.94,5.06 -2.54,8.47 -11.99,8.47 -14.96,0 -10.91,-18.72 -24.75,-14.44z"/>
   <path class="fil0" d="M202.14 178.48c8.77,5.62 5.68,0.17 11.18,9.06 6.43,10.38 20.7,10.38 27.13,0 5.5,-8.89 2.41,-3.44 11.18,-9.06 -0.06,-0.07 -0.25,-7.11 -11.31,4.37l-9.33 9.25 -8.2 0.08 -14.3 -13.66c-7.22,-4.03 -4.63,-2.08 -6.35,-0.04z"/>
   <path class="fil0" d="M353.4 481c8.77,5.62 5.68,0.17 11.18,9.05 6.42,10.38 20.7,10.38 27.13,0 5.5,-8.88 2.41,-3.43 11.18,-9.05 -1.72,-2.05 0.87,-4 -6.36,0.03l-14.3 13.67 -8.19 -0.09 -7.08 -6.88c-1.59,-1.48 -0.48,-0.52 -2.26,-2.37 -11.05,-11.48 -11.25,-4.43 -11.3,-4.36z"/>
   <path class="fil0" d="M429.02 353.94c0.16,0.21 0.47,0.46 0.57,0.54l2.16 1.58c0.23,0.16 0.65,0.38 0.89,0.56l8.09 7.32c5.32,6.34 13.04,10.57 21.65,4.77 5.55,-3.73 2.33,-4.23 10.71,-10.8l3.52 -2.38c2.06,-1.45 0.6,0.24 1.91,-1.59 -13.9,-4.3 -9.7,14.44 -24.75,14.44 -14.95,0 -10.9,-18.72 -24.75,-14.44z"/>
   <path class="fil0" d="M605.03 301.87l0 -1.74c-12.2,-2.36 -18.16,-7.58 -25.47,-17.47 -4.99,-6.74 -2.12,-6.21 -10.72,-10.5 -2.36,-1.18 -5.11,-2.65 -7.3,-3.19 -9.51,-2.32 -5.49,-0.63 -7.29,2.43 26.48,-0.37 24.92,32.1 50.78,30.47z"/>
   <path class="fil0" d="M126.51 102.85c18.29,7.91 9.19,16.37 24.75,16.37 15.55,0 6.46,-8.46 24.74,-16.37 -11.79,-8.72 -15.76,29.24 -37.45,5.15 -2.21,-2.45 -6.72,-9.08 -12.04,-5.15z"/>
   <path class="fil0" d="M277.77 51.43l11.03 9.17c3.68,4.17 -0.45,1.86 5.1,5.6 13.63,9.16 22.58,-6.36 27.06,-10.07l5.73 -4.17c0.1,-0.08 0.42,-0.32 0.57,-0.53 -13.61,-4.21 -10.97,15.11 -24.75,15.11 -13.81,0 -11.11,-19.33 -24.74,-15.11z"/>
   <path class="fil0" d="M504.65 278.31c4.01,5.15 3.08,-1.57 11.68,10.04 15.05,20.3 28.18,-3.9 32.03,-6.48 3.93,-2.64 3.06,-0.06 5.79,-3.56 -5.33,-1.73 -10.06,1.53 -12.69,6.02 -3.02,5.16 -2.84,8.22 -12.06,8.22 -14.94,0 -11.38,-18.58 -24.75,-14.24z"/>
   <path class="fil0" d="M306.61 267.72c-16.29,1.19 -11.64,-8.08 -22.42,-13.79 -7.64,-4.05 -5.58,-0.73 -6.74,0.61 7.47,2.32 8.18,2.97 11.79,8.32 0.02,0.04 2.48,3.54 2.53,3.59 2.02,2.13 -0.18,0.46 2.47,2.04 4.32,2.58 12.23,2.58 16.54,0 8.51,-5.08 -2.16,-3.96 16.59,-14.38 -5.7,-5.95 -10.36,4.74 -16.6,9.92 -1.58,1.31 -1.8,1.35 -4.16,3.69z"/>
   <path class="fil0" d="M429.02 102.85c18.29,7.91 9.2,16.37 24.75,16.37 7.01,0 9.78,-2.31 13.38,-7.52 5.16,-7.47 1.97,-4.78 11.37,-8.85 -5.32,-3.93 -9.83,2.7 -12.04,5.15 -21.69,24.09 -25.66,-13.87 -37.46,-5.15z"/>
   <path class="fil0" d="M202.25 530.91c1.95,2.24 10.57,6.37 19.02,17.29l11.23 -0.43c8.69,-10.34 17.41,-15.01 19.02,-16.86 -4.02,-2.75 -10.01,3.65 -13.35,6.72 -4.33,4 -9.6,12.34 -18.93,3.9l-5.3 -5.27c-2.2,-1.85 -7.54,-8.19 -11.69,-5.35z"/>
   <path class="fil0" d="M605.03 453.56l0 -2.38c-24.61,-4.02 -21.67,-20.71 -36.12,-27.88 -5.37,-2.67 -9.61,-4.25 -14.33,-2.81l15.05 6.71c6.37,4.56 7.17,8.27 9.71,11.42 1.15,1.42 4.11,3.93 5.38,5.18 6.98,6.89 8.31,9.6 20.31,9.76z"/>
   <path class="fil0" d="M306.61 570.24c-6.94,0.5 -5.7,1.89 -11.67,-2.96l-4.57 -4.54c-1.94,-2.44 -2.33,-4.26 -6.18,-6.3 -7.64,-4.05 -5.58,-0.73 -6.74,0.62 12.21,3.79 9.68,7.02 14.32,11.91 2.02,2.13 -0.18,0.45 2.47,2.03 4.32,2.58 12.23,2.58 16.54,0 8.51,-5.08 -2.16,-3.95 16.59,-14.37 -1.53,-1.6 -0.1,-3.59 -6.52,-0.16 -2.57,1.37 -3.55,2.77 -4.95,4.5l-9.29 9.27z"/>
   <path class="fil0" d="M428.92 202.68c2.93,3.35 2.64,1.16 6.77,4.32 2.01,1.54 3.94,4.21 5.08,5.64 15.47,19.53 27.51,-3.23 32,-6.28 4.24,-2.88 2.87,-0.27 5.85,-3.68 -10.98,-5.7 -12.3,14.89 -24.85,14.89 -12.5,0 -13.84,-20.6 -24.85,-14.89z"/>
   <path class="fil0" d="M504.65 580.83c2.8,3.59 2.66,1.07 6.73,4.2 2.89,2.21 15.77,26.48 31.72,4.94 7.34,-9.92 7.41,-4.48 11.05,-9.14 -5.33,-1.73 -10.06,1.52 -12.69,6.01 -3.02,5.16 -2.84,8.23 -12.06,8.23 -14.94,0 -11.38,-18.58 -24.75,-14.24z"/>
   <path class="fil0" d="M0 300.13l0 1.74c10.95,0.69 20,-6.69 26.35,-15.36 4.38,-5.97 2.49,-6.79 9.91,-11.2 6.94,-4.13 10.56,-3.28 14.19,-6.07l-2.37 -0.5c-22.23,-1.61 -20.23,26 -48.08,31.39z"/>
   <path class="fil0" d="M429.02 51.43l7.96 6.19c1.46,1.33 1.79,1.52 3.07,2.98 3.04,3.43 9.88,12.58 21.38,6.17 6.2,-3.45 3.25,-5.16 12.56,-12.05 0.26,-0.19 0.66,-0.44 0.91,-0.62 0.25,-0.17 0.66,-0.4 0.89,-0.56l2.16 -1.58c0.1,-0.08 0.42,-0.32 0.57,-0.53 -13.84,-4.29 -9.79,14.44 -24.75,14.44 -9.45,0 -9.06,-3.42 -12,-8.47 -1.9,-3.27 -7.06,-7.73 -12.75,-5.97z"/>
   <path class="fil0" d="M202.14 580.83c2.8,3.59 2.65,1.07 6.73,4.2 2.89,2.21 15.77,26.48 31.71,4.94 7.35,-9.92 7.42,-4.48 11.05,-9.14 -2.24,-0.73 -4.03,-0.39 -7.03,0.87 -11.04,4.64 -2.86,13.37 -17.71,13.37 -14.94,0 -11.38,-18.58 -24.75,-14.24z"/>
   <path class="fil0" d="M353.4 580.83c2.79,3.59 2.65,1.07 6.72,4.2 2.89,2.21 15.77,26.48 31.72,4.94 7.34,-9.92 7.42,-4.48 11.05,-9.14 -2.25,-0.73 -4.04,-0.39 -7.03,0.87 -11.04,4.64 -2.87,13.37 -17.72,13.37 -14.93,0 -11.38,-18.58 -24.74,-14.24z"/>
   <path class="fil0" d="M429.02 405.37c18.29,7.9 9.2,16.36 24.75,16.36 15.56,0 6.46,-8.46 24.75,-16.36 -5.32,-3.94 -9.84,2.7 -12.04,5.15 -18.01,19.98 -20.31,-0.11 -31.08,-5.01 -4.67,-2.12 -3.83,-2.03 -6.38,-0.14z"/>
   <path class="fil0" d="M429.02 152.77l11.23 9.06c12,10.9 15.04,10.9 27.04,0l11.23 -9.06c-10.59,-6.32 -17.05,24.41 -32.5,10.68 -2.03,-1.8 -0.07,-0.19 -2.12,-2.33l-2.23 -2.26c-2.92,-2.79 -7.82,-8.97 -12.65,-6.09z"/>
   <path class="fil0" d="M126.4 202.68c2.94,3.35 2.64,1.16 6.78,4.32 4.19,3.21 15.37,25.35 31.74,4.78 1.78,-2.24 3.8,-4.37 5.34,-5.42 4.24,-2.88 2.87,-0.27 5.85,-3.68 -10.98,-5.7 -12.3,14.89 -24.85,14.89 -12.51,0 -13.84,-20.6 -24.86,-14.89z"/>
   <path class="fil0" d="M0 148.66l0 2.38c23.35,-0.3 23.77,-22.87 42.53,-29.74 0.82,-0.3 3.02,-0.98 3.39,-1.13 0.38,-0.15 0.8,-0.28 1.16,-0.44l2.25 -1.11c0.28,-0.14 0.78,-0.39 1.12,-0.64 -5.21,-1.41 -9.26,0.28 -14.33,2.8 -7.71,3.83 -6.79,5.8 -15.56,16.25 -2.65,3.15 -1.52,2.61 -5.02,5.58 -5.33,4.52 -8.11,4.84 -15.54,6.05z"/>
   <path class="fil0" d="M155.36 267.72c-16.3,1.19 -11.65,-8.08 -22.43,-13.79 -7.64,-4.05 -5.58,-0.73 -6.74,0.61 7.48,2.32 8.18,2.97 11.79,8.32l5.01 5.63c4.32,2.58 12.22,2.58 16.54,0 8.5,-5.08 -2.17,-3.96 16.58,-14.38 -1.53,-1.59 -0.09,-3.58 -6.52,-0.15l-14.23 13.76z"/>
   <path class="fil0" d="M605.03 251.74l0 -2.38c-13.03,-1.23 -11.1,-3.13 -18.11,-8.96 -8.47,-7.06 -13.19,-19.28 -25.04,-21.81l-6.11 0.21c-0.22,-0.39 -0.83,0.29 -1.19,0.52 6.03,2.77 9.67,1.76 14.94,6.7l16.11 17.31c0.59,0.67 3.71,8.04 19.4,8.41z"/>
   <path class="fil0" d="M353.4 278.31c4.01,5.15 3.07,-1.57 11.67,10.04 7.87,10.6 18.38,10.43 26.77,-0.9 0.08,-0.11 2.56,-3.31 2.68,-3.43 1.87,-1.89 0.45,-0.72 2.58,-2.15 3.93,-2.64 3.06,-0.06 5.79,-3.56 -2.25,-0.73 -4.04,-0.38 -7.03,0.88 -11.04,4.63 -2.87,13.36 -17.72,13.36 -14.93,0 -11.38,-18.58 -24.74,-14.24z"/>
   <path class="fil0" d="M50.88 580.83c4.01,5.15 3.08,-1.57 11.68,10.03 7.86,10.61 18.38,10.44 26.76,-0.89 7.35,-9.92 7.42,-4.48 11.05,-9.14 -2.24,-0.73 -4.03,-0.39 -7.03,0.87 -11.04,4.64 -2.86,13.37 -17.71,13.37 -14.94,0 -11.38,-18.58 -24.75,-14.24z"/>
   <path class="fil0" d="M504.55 127.06c2.48,2.94 1.97,1.41 5.73,3.83 5.4,3.46 17.96,25.5 31.98,6.01 6.45,-8.95 8.01,-5.13 11.99,-9.84 -12.58,-5.01 -10.32,14.33 -24.85,14.33 -14.71,0 -12.14,-19.4 -24.85,-14.33z"/>
   <path class="fil0" d="M277.77 405.37c9.4,4.06 6.21,1.38 11.36,8.84 3.6,5.21 6.38,7.52 13.38,7.52 15.56,0 6.46,-8.46 24.75,-16.36 -5.32,-3.94 -9.83,2.7 -12.04,5.15 -3.37,3.74 -6.63,6.95 -12.71,9.11 -8.87,0 -16.22,-20.57 -24.74,-14.26z"/>
   <path class="fil0" d="M202.14 278.31c2.8,3.59 2.65,1.08 6.73,4.2 2.08,1.6 3.86,4.36 4.95,5.84 7.86,10.6 18.38,10.43 26.76,-0.9 7.35,-9.92 7.42,-4.47 11.05,-9.14 -2.24,-0.73 -4.03,-0.38 -7.03,0.88 -11.04,4.63 -2.86,13.36 -17.71,13.36 -14.94,0 -11.38,-18.58 -24.75,-14.24z"/>
   <path class="fil0" d="M428.92 505.2c4.11,4.7 3.32,-0.8 11.85,9.95 8.63,10.9 18.09,9.9 26.66,-0.86 7.07,-8.88 7.58,-4.97 11.19,-9.09 -10.98,-5.7 -12.3,14.89 -24.85,14.89 -12.5,0 -13.84,-20.61 -24.85,-14.89z"/>
   <path class="fil0" d="M277.66 202.68c4.12,4.7 3.33,-0.8 11.85,9.96 8.63,10.89 18.1,9.9 26.66,-0.86 7.07,-8.88 7.58,-4.97 11.2,-9.1 -10.99,-5.7 -12.3,14.89 -24.86,14.89 -12.5,0 -13.84,-20.6 -24.85,-14.89z"/>
   <path class="fil0" d="M126.51 405.37c9.4,4.06 6.21,1.38 11.37,8.84 3.6,5.21 6.37,7.52 13.38,7.52 15.55,0 6.46,-8.46 24.74,-16.36 -2.54,-1.89 -1.7,-1.98 -6.37,0.14 -10.77,4.9 -13.08,24.99 -31.08,5.01 -3.32,-3.69 -0.12,-2.49 -5.66,-5.01 -4.67,-2.12 -3.83,-2.03 -6.38,-0.14z"/>
   <path class="fil0" d="M277.77 102.85c9.4,4.07 6.21,1.38 11.36,8.85 7.21,10.42 19.56,10.42 26.76,0 5.16,-7.47 1.97,-4.78 11.37,-8.85 -11.8,-8.72 -15.76,29.24 -37.45,5.15 -2.21,-2.45 -6.72,-9.08 -12.04,-5.15z"/>
   <path class="fil0" d="M155.36 570.24c-6.94,0.5 -5.7,1.89 -11.68,-2.96l-4.57 -4.54c-1.94,-2.44 -2.33,-4.26 -6.18,-6.3 -7.64,-4.05 -5.58,-0.73 -6.74,0.62 7.48,2.32 8.18,2.97 11.79,8.32 6.04,8.95 15.21,9.41 21.55,5.62 8.5,-5.08 -2.17,-3.95 16.58,-14.37 -1.53,-1.6 -0.09,-3.59 -6.52,-0.16l-14.23 13.77z"/>
   <path class="fil0" d="M50.88 278.31c2.8,3.59 2.66,1.08 6.73,4.2 2.89,2.22 15.77,26.49 31.71,4.94 7.35,-9.92 7.42,-4.47 11.05,-9.14 -2.24,-0.73 -4.03,-0.38 -7.03,0.88 -11.04,4.63 -2.86,13.36 -17.71,13.36 -10.31,0 -9.06,-3.88 -12.6,-9.22 -2.06,-3.09 -7.62,-6.49 -12.15,-5.02z"/>
   <path class="fil0" d="M478.41 0l-3.46 0c-27.45,22.31 -14.91,22.31 -42.35,0l-3.47 0c1.6,6.42 -1.79,-1.58 10.3,9.82 12.9,12.18 16.03,11.53 27.9,0.72 11.13,-10.14 9.9,-5.79 11.08,-10.54z"/>
   <path class="fil0" d="M457.87 570.24c-16.29,1.18 -11.64,-8.09 -22.42,-13.8 -7.65,-4.05 -5.58,-0.73 -6.75,0.62 12.22,3.79 9.69,7.02 14.32,11.91 2.03,2.13 -0.17,0.45 2.48,2.03 4.32,2.58 12.22,2.58 16.54,0l5.01 -5.62c4.9,-7.27 3.04,-4.01 11.57,-8.75 -3.26,-3.42 -6.57,-1.72 -11.46,4.34 -1.94,2.4 -0.39,1.12 -2.61,3.43l-6.68 5.84z"/>
   <path class="fil0" d="M0 451.18l0 2.38c13.47,-0.18 20.67,-8.51 28.61,-19.6 7.61,-10.62 16.91,-9.83 21.84,-13.47 -14.55,-3.92 -23.69,11.96 -25.57,14.35l-10.18 10.96c-5.08,3.99 -7.64,4.22 -14.7,5.38z"/>
   <path class="fil0" d="M50.77 429.57c2.45,2.9 2.74,1.71 6.72,4.45 5.69,3.9 16.21,25.04 31.6,4.48 4.85,-6.49 8.16,-5.1 11.39,-8.93 -12.72,-5.06 -10.14,14.33 -24.85,14.33 -14.53,0 -12.27,-19.34 -24.86,-14.33z"/>
   <path class="fil0" d="M126.51 51.43c1.31,1.82 -0.16,0.14 1.91,1.59l3.52 2.38c1.35,1.06 1.3,1.11 2.53,2.22 1.46,1.33 1.78,1.52 3.07,2.98 3.03,3.43 9.88,12.58 21.38,6.17 5.44,-3.03 2.78,-2.25 5.38,-5.34l10.52 -8.94c0.13,-0.1 0.51,-0.44 0.62,-0.53 0.1,-0.08 0.41,-0.32 0.56,-0.53 -5.04,-1.56 -10.42,2.36 -12.21,4.98 -2.9,4.27 -2.89,10.13 -12.53,10.13 -8.67,0 -9.46,-4.82 -12,-9.15 -1.9,-3.26 -7.07,-7.72 -12.75,-5.96z"/>
   <path class="fil0" d="M126.51 455.28l11.22 9.07c2.8,2.54 8.12,8.16 13.53,8.16 4.46,0 24.64,-17.12 24.74,-17.23 -4.92,-2.94 -10.99,4.28 -14.88,8.35 -2.04,2.15 -0.09,0.54 -2.11,2.34 -15.46,13.72 -21.91,-17.01 -32.5,-10.69z"/>
   <path class="fil0" d="M277.77 152.77c0.09,0.09 20.37,17.28 24.74,17.28 6.59,-1.04 9.83,-4.86 13.53,-8.22l11.22 -9.06c-10.59,-6.32 -17.04,24.41 -32.49,10.68 -3.94,-3.49 -11.02,-14.25 -17,-10.68z"/>
   <path class="fil0" d="M457.87 267.72c-6.76,0.5 -5.95,2.02 -12.51,-3.66 -5.92,-5.11 -4.8,-7.42 -9.91,-10.13 -7.65,-4.05 -5.58,-0.73 -6.75,0.61 7.48,2.32 8.19,2.97 11.79,8.32l5.01 5.63c1.31,0.78 6.06,2.07 8.27,2.07 15.75,0 8.15,-10.76 25.07,-16.02 -1.16,-1.34 0.9,-4.66 -6.75,-0.61 -4.13,2.19 -5.1,5.42 -7.54,7.95l-6.68 5.84z"/>
   <path class="fil0" d="M277.66 505.2c4.12,4.7 3.33,-0.8 11.85,9.95 8.63,10.9 18.1,9.9 26.66,-0.86 7.07,-8.88 7.58,-4.97 11.2,-9.09 -4.94,-2.57 -11.03,2.89 -12.85,5.93 -2.45,4.11 -3.8,8.96 -12.01,8.96 -12.5,0 -13.84,-20.61 -24.85,-14.89z"/>
   <path class="fil0" d="M202.03 429.57c3.98,4.72 5.55,0.89 11.99,9.84 14.03,19.49 26.58,-2.54 31.98,-6.01 3.77,-2.42 3.26,-0.89 5.74,-3.83 -12.72,-5.06 -10.14,14.33 -24.85,14.33 -10.52,0 -8.88,-4.07 -12.62,-9.31 -1.89,-2.64 -7.42,-6.94 -12.24,-5.02z"/>
   <path class="fil0" d="M202.03 127.06c3.23,3.83 6.54,2.44 11.4,8.92 8.48,11.34 18.83,11.33 26.32,0.92 6.44,-8.95 8.01,-5.13 11.99,-9.84 -12.59,-5.01 -10.32,14.33 -24.85,14.33 -14.72,0 -12.14,-19.4 -24.86,-14.33z"/>
   <path class="fil0" d="M0 350.69l0 2.38c26.79,-1.26 20.37,-25.27 50.02,-32.41 -1.72,-2.25 -0.77,-2.7 -6.03,-1.47 -20.63,4.81 -16.73,26.88 -43.99,31.5z"/>
   <path class="fil0" d="M50.77 127.06c3.23,3.83 6.55,2.44 11.4,8.92 8.48,11.34 18.83,11.33 26.32,0.92 2.76,-3.83 0.09,-1.84 5.28,-5.4 3.98,-2.73 4.27,-1.54 6.71,-4.44 -12.58,-5.01 -10.32,14.33 -24.85,14.33 -14.72,0 -12.14,-19.4 -24.86,-14.33z"/>
   <path class="fil0" d="M277.77 353.94l5.43 3.97c0.27,0.21 0.61,0.51 0.87,0.73l5.4 5.3c15.47,18.42 25.65,-1.27 34.18,-7.32l3.61 -2.68c-13.63,-4.22 -10.93,15.11 -24.75,15.11 -9.64,0 -9.63,-5.85 -12.53,-10.12 -1.79,-2.63 -7.17,-6.55 -12.21,-4.99z"/>
   <path class="fil0" d="M126.51 152.77c2.97,3.03 1.89,0.81 5.74,3.89 13.25,10.61 15.15,20.96 32.53,5.17l11.22 -9.06c-4.82,-2.88 -10.49,3.8 -14.17,7.57 -6.01,6.17 -10.17,10.35 -18.32,3.11 -3.94,-3.49 -11.02,-14.25 -17,-10.68z"/>
   <path class="fil0" d="M605.03 503.47l0 -1.73c-22.63,-3.16 -23.18,-19.69 -36.59,-28.12 -6.71,-4.22 -10.12,-5.04 -13.54,-1.7 28.95,6.03 21.47,30.97 50.13,31.55z"/>
   <path class="fil0" d="M429.02 455.28c2.98,3.04 1.89,0.82 5.74,3.9 4.87,3.89 11.85,13.33 19.01,13.33 4.47,0 24.65,-17.12 24.75,-17.23 -4.79,-2.85 -9.97,3.41 -13.43,6.83 -9.05,8.95 -11.46,11.46 -21.9,0.74 -3.67,-3.77 -9.34,-10.45 -14.17,-7.57z"/>
   <path class="fil0" d="M504.55 429.57c2.44,2.9 2.73,1.71 6.71,4.45 5.69,3.9 16.21,25.04 31.6,4.48 1.74,-2.33 2.41,-3.02 5.65,-5.1 3.77,-2.42 3.26,-0.89 5.74,-3.83 -5.29,-2.11 -10.72,2.64 -12.81,5.97 -3.23,5.14 -2.41,8.36 -12.04,8.36 -14.53,0 -12.27,-19.34 -24.85,-14.33z"/>
   <path class="fil0" d="M353.29 429.57c2.45,2.9 2.74,1.71 6.71,4.45 5.69,3.9 16.21,25.04 31.6,4.48 4.86,-6.49 8.17,-5.1 11.4,-8.93 -5.3,-2.11 -10.73,2.64 -12.82,5.97 -3.23,5.14 -2.41,8.36 -12.04,8.36 -14.53,0 -12.27,-19.34 -24.85,-14.33z"/>
   <path class="fil0" d="M605.03 554.25l0 -2.38c-15.06,-1.42 -19.41,-10.66 -30.59,-22.15 -2.73,-2.81 -1.88,-3.45 -5.04,-5.65 -1.7,-1.19 -6.19,-2.68 -7.52,-2.97l-7.3 0.74c7.79,3.58 13.09,1.44 25.26,17.62l5.07 5.56c0.22,0.23 0.51,0.58 0.72,0.82 0.59,0.67 3.71,8.04 19.4,8.41z"/>
   <path class="fil0" d="M0 501.74l0 1.73c28.66,-0.58 20.96,-25.47 50.13,-31.55 -3.27,-4.12 -9.48,-0.86 -13.55,1.7 -14.15,8.92 -12.54,23.91 -36.58,28.12z"/>
   <path class="fil0" d="M353.29 127.06c3.23,3.83 6.54,2.44 11.39,8.92 15.39,20.57 25.91,-0.57 31.6,-4.48 3.98,-2.73 4.27,-1.54 6.72,-4.44 -4.82,-1.92 -10.35,2.37 -12.24,5.02 -3.74,5.23 -2.1,9.31 -12.62,9.31 -14.71,0 -12.13,-19.4 -24.85,-14.33z"/>
   <path class="fil0" d="M327.15 0l-3.46 0c-27.44,22.31 -14.91,22.31 -42.35,0l-3.46 0c1.59,6.42 -1.79,-1.58 10.29,9.82 18.73,17.69 20.89,5.17 33.36,-4.56 5.32,-4.15 4.21,0.44 5.62,-5.26z"/>
   <path class="fil0" d="M126.4 505.2c2.94,3.35 2.64,1.15 6.78,4.32 4.19,3.21 15.37,25.34 31.74,4.77 7.06,-8.88 7.58,-4.97 11.19,-9.09 -4.94,-2.57 -11.02,2.89 -12.84,5.93 -2.45,4.11 -3.8,8.96 -12.01,8.96 -9.28,0 -9.89,-6.05 -12.56,-9.94 -1.6,-2.33 -7.8,-7.28 -12.3,-4.95z"/>
   <path class="fil0" d="M605.03 151.04l0 -2.38c-7.06,-1.15 -9.62,-1.38 -14.7,-5.37 -3.38,-2.65 -2.67,-2.34 -5.2,-5.42 -7.78,-9.44 -14.85,-21.28 -28.21,-20.35l4.47 3.41c1.57,0.56 6.64,2.7 7.34,3.14l7.69 7.38c7.94,11.08 15.14,19.42 28.61,19.59z"/>
   <path class="fil0" d="M277.77 455.28c0.1,0.11 20.28,17.23 24.74,17.23 4.47,0 24.65,-17.12 24.75,-17.23 -4.83,-2.88 -9.55,3.22 -11.84,5.38 -9.7,9.14 -11.85,14.13 -23.48,2.19 -3.68,-3.77 -9.35,-10.45 -14.17,-7.57z"/>
   <path class="fil1" d="M51.04 530.91c2.27,2.32 3.13,1.23 11.2,8.85 12.35,11.65 14.43,11.65 26.77,0 8.08,-7.62 8.94,-6.53 11.2,-8.85 -4.38,-3.24 -8.89,3.19 -11.47,5.5l-2.36 2.17c-19.64,20.04 -24.34,-14.5 -35.34,-7.67z"/>
   <path class="fil1" d="M51.04 379.66l11.28 8.82c12.5,11.55 14.11,11.55 26.62,0l11.27 -8.82c-4.71,-3.36 -9.33,3.33 -11.42,5.53 -23.61,24.88 -26.37,-13.65 -37.75,-5.53z"/>
   <path class="fil0" d="M605.03 200.96l0 -1.74c-16.34,-2.27 -17.81,-8.68 -26,-17.41 -4.74,-5.06 -4.1,-6.62 -10.59,-10.7 -2.12,-1.33 -4.53,-2.65 -7.33,-3.28 -5.17,-1.18 -4.31,-0.28 -6.21,1.58 17.2,3.58 16.21,7.98 24.19,16.82 5.64,6.27 9.99,14.4 25.94,14.73z"/>
   <path class="fil0" d="M0 199.22l0 1.74c15.24,-0.31 19.73,-7.77 25.94,-14.71 7.93,-8.87 7.03,-13.27 24.19,-16.84 -7.27,-8.81 -23,11.2 -24.14,12.4 -8.18,8.73 -9.65,15.14 -25.99,17.41z"/>
   <path class="fil0" d="M175.9 0l-3.47 0c-17.26,14.03 -18.36,23.96 -31.83,9.12l-10.3 -9.12 -3.68 0c1.59,6.42 -1.79,-1.58 10.29,9.82 18.74,17.69 20.89,5.17 33.36,-4.56 5.32,-4.15 4.21,0.44 5.63,-5.26z"/>
   <path class="fil1" d="M507.09 483.17c13.18,2.29 6.32,14.23 22.31,14.23 15.99,0 9.12,-11.94 22.3,-14.23 2.32,-1.69 -3.63,-1.82 3.03,-1.04 -2.3,-2.27 2.5,-3.68 -2.65,-1.7 -7,1.4 -13.87,8.89 -18.53,14.44l-8.3 -0.07c-3.55,-4.16 -4.48,-4.09 -7.99,-7.68 -4.39,-4.5 -2.91,-5.17 -10.54,-6.69 -6.19,1.22 1.5,-2.39 -2.65,1.7 3.84,-0.45 2.49,-1.07 3.02,1.04z"/>
   <path class="fil1" d="M51.04 228.4c2.49,2.55 3.35,1.99 5.73,3.7 13.7,9.8 13.59,22.75 32.24,5.14 8.08,-7.61 8.94,-6.52 11.2,-8.84 -5.42,-4.01 -12.71,6.56 -13.08,6.91 -12.59,12.22 -13.34,8.61 -24.61,-1.43 -2.1,-1.87 -7.31,-8.07 -11.48,-5.48z"/>
   <path class="fil1" d="M353.56 379.66c1.97,2.06 3.67,2.44 5.6,3.81 14.06,9.92 13.72,22.17 32.29,5.01l11.28 -8.82c-11.38,-8.12 -14.14,30.41 -37.75,5.53 -2.09,-2.2 -6.71,-8.89 -11.42,-5.53z"/>
   <path class="fil1" d="M504.81 379.66c1.97,2.06 3.67,2.44 5.61,3.81 14.06,9.92 13.72,22.17 32.29,5.01l11.27 -8.82c-4.7,-3.36 -9.33,3.33 -11.42,5.53 -23.6,24.88 -26.37,-13.65 -37.75,-5.53z"/>
   <path class="fil1" d="M202.3 379.66l11.28 8.82c12.5,11.55 14.11,11.55 26.61,0l11.28 -8.82c-4.71,-3.36 -9.33,3.33 -11.42,5.53 -11.5,12.12 -14.83,12.12 -26.33,0 -2.08,-2.2 -6.71,-8.89 -11.42,-5.53z"/>
   <path class="fil1" d="M0 400.64l0 2.46c6.16,0.26 11.72,-2.14 15.36,-5.06l8.48 -7.93c13.52,-16.4 9.41,-12.74 26.26,-19.53 -8.59,-5.19 -21.83,9.26 -26.08,14.94l-9.46 10.25c-4.01,3.69 -7.93,3.99 -14.56,4.87z"/>
   <path class="fil1" d="M51.04 77.14l11.28 8.82c12.5,11.56 14.11,11.56 26.62,0l11.27 -8.82c-7.67,-5.47 -13.78,14.36 -24.58,14.36 -10.8,0 -16.92,-19.83 -24.59,-14.36z"/>
   <path class="fil1" d="M504.81 77.14l11.28 8.82c12.51,11.56 14.11,11.56 26.62,0l11.27 -8.82c-7.67,-5.47 -13.78,14.36 -24.58,14.36 -10.8,0 -16.91,-19.83 -24.59,-14.36z"/>
   <path class="fil1" d="M353.56 228.4c2.49,2.55 3.34,1.99 5.72,3.7 3.4,2.43 2.5,2.33 5.48,5.14 12.34,11.65 14.42,11.65 26.77,0 8.07,-7.61 8.93,-6.52 11.2,-8.84 -4.46,-2.77 -12.15,6 -13.08,6.9 -8.18,7.96 -11.39,11.86 -22.26,0.77 -4.12,-4.2 -9.64,-10.77 -13.83,-7.67z"/>
   <path class="fil1" d="M0 249.57l0 2.09c6.11,-0.15 11.77,-1.79 15.6,-4.59l8.15 -8.51c16.19,-19.72 13.09,-13.44 26.45,-19.24 -0.35,-0.21 -0.84,-0.42 -1.1,-0.5 -19.38,-5.43 -22.88,27.94 -49.1,30.75z"/>
   <path class="fil1" d="M353.56 530.91c2.26,2.32 3.13,1.23 11.2,8.85 12.34,11.65 14.42,11.65 26.77,0 8.07,-7.62 8.93,-6.53 11.2,-8.85 -4.87,-3.02 -14.54,8.44 -14.56,8.47 -11.43,12.06 -16.28,3.16 -23.14,-2.97 -2.58,-2.31 -7.09,-8.74 -11.47,-5.5z"/>
   <path class="fil1" d="M504.81 329.74c9.49,5.4 5.02,-0.28 11.29,8.75 7.38,10.63 19.22,10.63 26.6,0 6.27,-9.03 1.8,-3.35 11.28,-8.75 -6.67,-7.1 -13.81,13.91 -24.58,13.91 -10.77,0 -17.91,-21.01 -24.59,-13.91z"/>
   <path class="fil1" d="M51.04 329.74c9.49,5.4 5.02,-0.28 11.29,8.75 7.38,10.63 19.22,10.63 26.6,0 6.27,-9.03 1.8,-3.35 11.28,-8.75 -6.67,-7.1 -13.81,13.91 -24.58,13.91 -10.78,0 -17.91,-21.01 -24.59,-13.91z"/>
   <path class="fil1" d="M353.56 329.74c9.48,5.4 5.01,-0.28 11.28,8.75 7.38,10.63 19.22,10.63 26.6,0 6.27,-9.03 1.8,-3.35 11.29,-8.75 -6.68,-7.1 -13.81,13.91 -24.59,13.91 -10.77,0 -17.91,-21.01 -24.58,-13.91z"/>
   <path class="fil1" d="M202.3 329.74c9.49,5.4 5.02,-0.28 11.29,8.75 7.38,10.63 19.21,10.63 26.6,0 6.26,-9.03 1.79,-3.35 11.28,-8.75 -6.68,-7.1 -13.81,13.91 -24.58,13.91 -10.78,0 -17.91,-21.01 -24.59,-13.91z"/>
   <path class="fil1" d="M504.81 27.23c9.49,5.39 5.02,-0.28 11.29,8.74 7.38,10.63 19.22,10.63 26.6,0 6.27,-9.02 1.8,-3.35 11.28,-8.74 -6.67,-7.1 -13.81,13.91 -24.58,13.91 -10.77,0 -17.91,-21.01 -24.59,-13.91z"/>
   <path class="fil1" d="M202.3 27.23c9.49,5.39 5.02,-0.28 11.29,8.74 7.38,10.63 19.21,10.63 26.6,0 6.26,-9.02 1.79,-3.35 11.28,-8.74 -6.68,-7.1 -13.81,13.91 -24.58,13.91 -10.78,0 -17.91,-21.01 -24.59,-13.91z"/>
   <path class="fil1" d="M51.04 27.23c9.49,5.39 5.02,-0.28 11.29,8.74 7.38,10.63 19.22,10.63 26.6,0 6.27,-9.02 1.8,-3.35 11.28,-8.74 -6.67,-7.1 -13.81,13.91 -24.58,13.91 -10.78,0 -17.91,-21.01 -24.59,-13.91z"/>
   <path class="fil1" d="M353.56 27.23c9.48,5.39 5.01,-0.28 11.28,8.74 7.38,10.63 19.22,10.63 26.6,0 6.27,-9.02 1.8,-3.35 11.29,-8.74 -6.68,-7.1 -13.81,13.91 -24.59,13.91 -10.77,0 -17.91,-21.01 -24.58,-13.91z"/>
   <path class="fil1" d="M507.09 180.65c8.79,1.53 5.75,2.64 10.17,8.51 5.84,7.75 18.44,7.75 24.28,0 4.42,-5.87 1.38,-6.98 10.16,-8.51 2.32,-1.68 -3.63,-1.81 3.03,-1.04 -2.3,-2.26 2.5,-3.67 -2.65,-1.7 -6.99,1.4 -13.84,8.87 -18.53,14.37l-8.3 0.08c-4.66,-5.56 -11.53,-13.05 -18.53,-14.45 -6.19,1.22 1.5,-2.38 -2.65,1.7 3.84,-0.45 2.49,-1.06 3.02,1.04z"/>
   <path class="fil1" d="M53.32 483.17c8.79,1.52 5.75,2.64 10.17,8.5 5.84,7.76 18.44,7.76 24.28,0 4.42,-5.86 1.38,-6.98 10.16,-8.5 2.32,-1.69 -3.63,-1.82 3.03,-1.04 -2.3,-2.27 2.5,-3.68 -2.65,-1.7 -7,1.4 -13.88,8.89 -18.53,14.44l-8.31 -0.07c-4.69,-5.51 -11.53,-12.98 -18.52,-14.37 -6.19,1.22 1.5,-2.39 -2.65,1.7 3.83,-0.45 2.49,-1.07 3.02,1.04z"/>
   <path class="fil0" d="M429.13 304.03c2.88,2.89 2.2,0.94 5.65,3.71 13.1,10.48 14.69,21.59 32.55,5.32l11.08 -9.03c-9.68,-6.44 -18.04,25.59 -32.57,11.01 -2.41,-2.43 -11.02,-14.79 -16.71,-11.01z"/>
   <path class="fil0" d="M277.88 304.03l11.08 9.03c17.86,16.27 19.45,5.16 32.54,-5.32 3.46,-2.77 2.77,-0.82 5.65,-3.71 -9.68,-6.44 -18.04,25.59 -32.56,11.01 -2.42,-2.43 -11.03,-14.79 -16.71,-11.01z"/>
   <path class="fil0" d="M605.03 50.56l0 -2.38c-9.81,-1.66 -16.54,-4.64 -21.16,-11.88 -2.95,-4.61 -0.87,-1.59 -4.73,-5.86 -3.36,-3.73 -18.25,-19.98 -24.13,-12.29 9.54,2.3 13.51,3.15 19.57,10.74 8.54,10.71 14.44,20.92 30.45,21.67z"/>
   <path class="fil0" d="M605.03 353.07l0 -2.38c-18.68,-3.16 -18.57,-9.63 -25.89,-17.74 -5.34,-5.92 -3.61,-5.45 -10.92,-10.26 -5.74,-3.77 -10.18,-5.98 -13.21,-2.03 14.32,3.45 16.33,6.81 24.56,16.4 2.65,3.1 8.69,15.23 25.46,16.01z"/>
   <path class="fil1" d="M353.56 77.14l11.28 8.82c18.56,17.16 18.22,4.92 32.28,-5 1.94,-1.37 3.64,-1.75 5.61,-3.82 -7.67,-5.47 -13.79,14.36 -24.59,14.36 -10.8,0 -16.91,-19.83 -24.58,-14.36z"/>
   <path class="fil0" d="M0 48.18l0 2.38c6.22,-0.29 11.02,-2.94 15.11,-5.15 8.62,-4.66 11.74,-14.82 19.75,-21.12 4.42,-3.47 8.85,-4.62 15.16,-6.14 -8.41,-10.99 -31.37,22.21 -33.77,23.81 -3.79,2.51 -9.83,5.13 -16.25,6.22z"/>
   <path class="fil1" d="M504.81 228.4c2.5,2.55 3.35,1.99 5.73,3.7 13.7,9.8 13.59,22.75 32.24,5.14 8.08,-7.61 8.94,-6.52 11.2,-8.84 -5.25,-3.89 -13.69,8.2 -16.7,10.87 -15.04,13.33 -23.1,-16.69 -32.47,-10.87z"/>
   <path class="fil1" d="M605.03 100.59l0 -2.46c-6.63,-0.89 -10.56,-1.18 -14.57,-4.88l-10.05 -11.15c-3.03,-3.97 -2.13,-2.34 -5.34,-5.3 -1.64,-1.52 -3.32,-3.65 -5.23,-5.28 -3.73,-3.2 -10.37,-6.2 -14.91,-3.45 8.88,3.57 14.44,3.4 24.35,16.64 6.13,8.2 14.17,15.98 25.75,15.88z"/>
   <path class="fil1" d="M0 552.09l0 2.08c6.11,-0.14 11.77,-1.79 15.6,-4.59l8.15 -8.5c16.19,-19.73 13.09,-13.44 26.45,-19.24 -2.98,-1.82 -3.59,-1.94 -8.21,-0.59 -7.18,2.1 -9.32,6.66 -12.08,9.3 -8.97,8.6 -3.09,5.15 -15.44,16.35 -4.24,3.85 -7.4,4.43 -14.47,5.19z"/>
   <path class="fil0" d="M204.58 483.17c9.48,1.64 5.75,3.43 10.83,9.35 5.07,5.91 17.1,8.97 25.37,-3.67 4.74,-7.24 3.04,-3.38 10.78,-7.85 -1.92,-2.08 -0.01,-3.36 -6.19,0.18l-14.28 13.69 -8.36 -0.07c-4.69,-5.51 -11.53,-12.98 -18.53,-14.37 -6.18,1.22 1.51,-2.39 -2.64,1.7 3.83,-0.45 2.48,-1.07 3.02,1.04z"/>
   <path class="fil1" d="M202.3 77.14c1.97,2.07 3.67,2.45 5.6,3.82 2.82,1.98 3.13,2.65 5.68,5 18.56,17.16 18.23,4.92 32.29,-5 1.93,-1.37 3.63,-1.75 5.6,-3.82 -7.67,-5.47 -13.78,14.36 -24.58,14.36 -10.81,0 -16.92,-19.83 -24.59,-14.36z"/>
   <path class="fil1" d="M504.81 530.91c2.27,2.32 3.13,1.23 11.21,8.85 18.65,17.6 18.54,4.66 32.24,-5.15 2.38,-1.7 3.23,-1.14 5.72,-3.7 -4.38,-3.24 -8.89,3.19 -11.47,5.5l-5.23 5.37c-5.15,4.56 -10.62,4.56 -15.76,0 -2.95,-2.62 -11.4,-14.16 -16.71,-10.87z"/>
   <path class="fil1" d="M605.03 403.1l0 -2.46c-14.13,-1.89 -11.87,-2.62 -20.52,-11.07 -2.96,-2.88 -0.94,-0.62 -2.9,-3.15 -4.82,-6.24 -17.74,-21.25 -26.68,-15.84 6.23,2.51 9.64,1.74 14.76,6.49l8.28 8.42c7.17,8.31 13.01,17.74 27.06,17.61z"/>
   <path class="fil0" d="M0 602.65l0 2.38 5.18 0c29.22,-13.79 17.15,-23.6 38.47,-30.51l-8.47 0.65c-7.05,3.67 -7.02,6.74 -15.28,16.48 -5.38,6.33 -10.02,9.09 -19.9,11z"/>
   <path class="fil1" d="M0 98.13l0 2.46c5.73,0.24 10.6,-1.6 14.52,-4.42l20.82 -21.62c5.12,-4.75 8.53,-3.97 14.76,-6.48 -4.16,-2.52 -10.26,-0.21 -14.09,2.75 -2.22,1.71 -3.65,3.69 -5.28,5.25 -14.14,13.61 -13.18,19.71 -30.73,22.06z"/>
   <path class="fil0" d="M605.03 538.48l0 -1.95c-17.34,-4.37 -15.38,-12.49 -26.95,-21.07 -0.58,-0.44 -3.68,-2.28 -5.23,-2.6 -10.34,-2.12 -3.28,-0.75 -5.31,1.41 2.21,0.65 4.52,1.11 6.59,2.06l11.89 10.9c3.06,4.86 5.56,10.77 19.01,11.25z"/>
   <path class="fil0" d="M605.03 84.92l0 -2.38c-14.84,-4.3 -11.6,-3.38 -18.26,-12.85 -2.79,-3.97 -2.55,-2.51 -8.18,-6.86 -13.53,-10.46 -10.94,-2.34 -10.95,-2.33 27.3,10.43 14.7,23.45 37.39,24.42z"/>
   <path class="fil0" d="M605.03 387.43l0 -2.38c-22.55,-6.52 -8.54,-6.76 -23.02,-17.14 -18.91,-13.56 -13.95,-5.4 -14.37,-4.89 5.12,1.95 7.38,2.23 10.84,5.35 13.71,12.37 10.52,18.38 26.55,19.06z"/>
   <path class="fil0" d="M0 82.54l0 2.38c22.51,-0.96 10.59,-14.18 37.38,-24.42 -0.41,-0.5 4.55,-8.67 -14.36,4.89 -3.47,2.49 -1.8,0.5 -4.15,3.41 -7.94,9.84 -1.95,8.84 -18.87,13.74z"/>
   <path class="fil0" d="M126.67 304.03c2.82,2.51 2.41,0.91 5.77,3.49 2.99,2.3 2.67,2.72 5.45,5.38 11.46,11 15.27,11 26.74,0 10.71,-10.27 7.38,-5.44 11.21,-8.87 -4.01,-2.19 -9.59,3.67 -11.47,5.47 -4.24,4.07 -5.54,9.1 -13.11,9.1 -9.8,0 -17.08,-19.16 -24.59,-14.57z"/>
   <path class="fil0" d="M605.03 134.84l0 -1.74c-17.2,-3.05 -16.33,-18.1 -31.35,-23.02 -8.27,-2.71 -5.32,-0.26 -6.25,0.34 3.81,2.29 7.44,2.98 10.45,4.51 5.69,2.9 4.06,4.94 7.56,9.02l7.67 7.54c3.99,3.8 6.44,3.74 11.92,3.35z"/>
   <path class="fil0" d="M0 385.05l0 2.38c17.3,-0.73 12.55,-7.61 27.29,-19.81 2.44,-2.02 6.23,-3.13 10.09,-4.6 -0.08,-0.1 4.36,-8.62 -13.45,4.27 -16.27,11.77 -0.96,11.11 -23.93,17.76z"/>
   <path class="fil0" d="M0 234.01l0 1.95c23.42,-0.83 12.87,-17.04 37.49,-24.2 -0.9,-0.95 4.05,-4.46 -6.49,-1.01 -1.54,0.5 -3.68,1.85 -4.88,2.87l-7.74 7.42c-5.71,6.95 -4.18,9.4 -18.38,12.97z"/>
   <path class="fil0" d="M605.03 235.96l0 -1.95c-15.07,-3.79 -10.78,-5.41 -23.17,-17.26 -1.64,-1.58 -4.42,-5.46 -9.01,-6.41 -10.34,-2.11 -3.28,-0.75 -5.31,1.42 10.63,3.09 7.3,1.75 10.93,5.34 11.71,11.59 11.1,18.31 26.56,18.86z"/>
   <path class="fil0" d="M0 536.53l0 1.95c16.36,-0.59 14.07,-7.48 27.26,-19.67 3.44,-3.18 3.77,-2.66 10.23,-4.54 -0.9,-0.95 4.05,-4.45 -6.49,-1.01 -4.38,1.43 -6.18,4.5 -8.62,6.73 -11.12,10.16 -6.16,12.45 -22.38,16.54z"/>
   <path class="fil0" d="M0 334.28l0 2.38c10.75,-0.26 14.63,-6.17 19.71,-11.43 14.33,-14.84 2.32,-4.72 16.08,-12.16l1.7 -1.48c-11.8,-4.25 -19.78,14.3 -26.35,18.67 -2.85,1.9 -6.71,3.46 -11.14,4.02z"/>
   <path class="fil0" d="M605.03 588.61l0 -1.96c-7.14,-1.01 -15.32,-6.76 -19.06,-12.47 -3.5,-5.35 -3.48,-10.04 -18.76,-11.5 3,5.69 5.66,3.03 10.67,5.79 5.49,3.03 4.12,5.34 7.56,9.33 1.79,2.09 2.88,2.09 4.9,4.12 4.04,4.05 2.69,6.95 14.69,6.69z"/>
   <path class="fil0" d="M605.03 286.1l0 -1.96c-7.14,-1.01 -15.32,-6.76 -19.06,-12.47 -3.5,-5.35 -3.48,-10.05 -18.76,-11.51 3,5.7 5.66,3.03 10.67,5.8 5.49,3.03 4.12,5.33 7.56,9.33 1.79,2.09 2.88,2.08 4.9,4.11 4.04,4.05 2.69,6.96 14.69,6.7z"/>
   <path class="fil0" d="M0 435.61l0 1.75c15.87,1.11 19.69,-16.12 27.15,-19.91 3.01,-1.54 6.64,-2.23 10.45,-4.52 -0.93,-0.59 2.01,-3.05 -6.25,-0.34 -10.34,3.39 -9.28,6.88 -16.37,13.81 -1.7,1.66 -2.02,2.11 -3.73,3.83 -3.89,3.9 -4.77,4.23 -11.25,5.38z"/>
   <path class="fil0" d="M605.03 437.36l0 -1.75c-9.24,-1.64 -9.16,-3.47 -15.77,-9.94 -8.6,-8.42 -2.48,-6.63 -11.48,-11.15 -12.82,-6.46 -9.83,-1.92 -10.35,-1.59 3.91,2.36 8.97,3.53 11.43,5.02 6.3,3.83 10.63,20.5 26.17,19.41z"/>
   <path class="fil0" d="M0 133.1l0 1.74c15.54,1.09 19.87,-15.58 26.17,-19.4 2.46,-1.5 7.51,-2.67 11.43,-5.02 -0.52,-0.33 2.47,-4.88 -10.36,1.58 -8.99,4.53 -2.87,2.74 -11.48,11.16l-3.78 3.79c-4,4.1 -4.92,4.9 -11.98,6.15z"/>
   <path class="fil0" d="M605.03 34.14l0 -2.38c-4.44,-0.55 -8.29,-2.11 -11.15,-4.01 -6.56,-4.37 -14.54,-22.92 -26.34,-18.67 0.26,0.27 0.68,0.3 0.83,0.77 0.14,0.46 0.66,0.59 0.87,0.7 8.94,4.84 5.39,-0.38 13.9,9.84 1.94,2.32 0.03,0.09 2.18,2.33 5.08,5.26 8.96,11.17 19.71,11.42z"/>
   <path class="fil0" d="M605.03 336.66l0 -2.38c-20.59,-2.59 -22.25,-28.17 -37.49,-22.69 2.7,2.84 2.65,1.89 5.84,3.14 12.76,4.99 14.17,21.51 31.65,21.93z"/>
   <path class="fil0" d="M0 485.54l0 2.38c19.17,-1.16 18.01,-16.65 32.76,-22.63 2.81,-1.15 -0.02,0.21 3.11,-1.27l1.73 -1.17c-16.02,-3.86 -17.62,19.84 -37.6,22.69z"/>
   <path class="fil0" d="M0 183.02l0 2.38c11.09,-0.67 14.38,-5.92 19.71,-11.42 9.91,-10.21 0.2,-5.02 15.21,-11.99 2.18,-1.02 1.5,-0.69 2.68,-1.66 -16.02,-3.85 -17.62,19.84 -37.6,22.69z"/>
   <path class="fil0" d="M0 31.76l0 2.38c17.47,-0.41 18.89,-16.94 31.65,-21.93 1.45,-0.57 1.59,-0.25 3.19,-1.09 2.51,-1.3 1.39,-0.72 2.65,-2.04 -11.5,-4.14 -20.23,14.1 -25.42,18.08 -2.77,2.13 -7.17,3.99 -12.07,4.6z"/>
   <path class="fil0" d="M605.03 487.92l0 -2.38c-19.98,-2.85 -21.58,-26.55 -37.6,-22.69 5.11,4.22 7.75,0.75 14.46,9.53 2.18,2.86 0.84,1.46 3.42,4.11 5.34,5.5 8.63,10.76 19.72,11.43z"/>
   <path class="fil0" d="M0 284.14l0 1.96c17.29,0.37 18.82,-15.85 28.01,-20.81 6.16,-3.32 6.83,0.35 9.8,-5.13 -15.31,1.47 -15.23,6.19 -18.78,11.48 -2.68,3.99 -4.22,3.82 -7.86,7.32 -4.44,4.27 -4.09,4.17 -11.17,5.18z"/>
   <path class="fil0" d="M0 586.65l0 1.96c17.29,0.38 18.82,-15.84 28.01,-20.81 6.16,-3.32 6.83,0.35 9.8,-5.12 -22.79,2.18 -17.3,21.06 -37.81,23.97z"/>
   <path class="fil0" d="M605.03 185.4l0 -2.38c-11.64,-1.66 -12.9,-6.16 -19.04,-12.71 -3.3,-3.52 -9.54,-12.15 -18.56,-9.98 4.41,3.65 8.05,1.38 13.83,8.65 6.06,7.62 11.52,15.68 23.77,16.42z"/>
   <path class="fil0" d="M394.78 0l-3.59 0c-2.94,5.52 0.13,2.48 -5.16,4.74 -6.76,2.89 -16.95,2.74 -20.94,-4.74l-3.59 0c5.37,11.93 27.92,11.93 33.28,0z"/>
   <path class="fil0" d="M243.52 0l-3.59 0c-2.93,5.52 0.13,2.48 -5.16,4.74 -6.76,2.89 -16.95,2.74 -20.93,-4.74l-3.59 0c5.36,11.93 27.91,11.93 33.27,0z"/>
   <path class="fil0" d="M546.04 0l-3.59 0c-2.88,5.41 -0.15,2.24 -4.12,4.29 -5.23,2.7 -11.3,2.81 -16.82,0.45 -5.28,-2.26 -2.22,0.78 -5.16,-4.74l-3.59 0c5.36,11.93 27.92,11.93 33.28,0z"/>
   <path class="fil0" d="M92.27 0l-3.59 0c-2.89,5.41 -0.15,2.24 -4.12,4.29 -5.23,2.7 -11.31,2.81 -16.82,0.45 -5.28,-2.26 -2.22,0.78 -5.16,-4.74l-3.59 0c5.36,11.93 27.91,11.93 33.28,0z"/>
   <path class="fil0" d="M0 117.11l0 2.38c20.44,-4.01 4.59,-7.92 24.75,-16.64 -7.84,-5.79 -11.85,9.67 -24.75,14.26z"/>
   <path class="fil0" d="M605.03 170.05l0 -2.38c-13.23,-4.96 -17.09,-19.47 -24.75,-14.9l11.23 9.07c3.74,3.36 6.89,7.16 13.52,8.21z"/>
   <path class="fil0" d="M0 217.6l0 2.38c8.76,-0.74 9.67,-3.23 13.64,-8.22 7.4,-9.29 7.45,-4.78 11.21,-9.08 -11.05,-5.73 -10.44,12.94 -24.85,14.92z"/>
   <path class="fil0" d="M0 520.11l0 2.38c13.09,-1.1 11.44,-8.65 18.94,-13.66 4.32,-2.88 2.88,-0.17 5.91,-3.63 -11.05,-5.74 -10.44,12.93 -24.85,14.91z"/>
   <path class="fil0" d="M0 470.19l0 2.38c6.63,-1.06 9.78,-4.86 13.52,-8.22l11.23 -9.07c-4.88,-2.91 -9.48,3.25 -11.84,5.4l-5.14 5.31c-1.7,1.55 -4.55,2.99 -7.77,4.2z"/>
   <path class="fil0" d="M0 419.63l0 2.38c20.44,-4.02 4.59,-7.93 24.75,-16.64 -2.59,-1.91 -1.74,-1.96 -6.41,0.16 -7.17,3.26 -6.53,9.9 -18.34,14.1z"/>
   <path class="fil0" d="M605.03 573.26l0 -2.38c-6.69,-1.31 -2.33,0.38 -7.51,-3.68 -8.25,-6.45 -4.72,-7.41 -10.79,-10.73 -7.56,-4.13 -5.63,-0.74 -6.77,0.59 18.7,5.8 5.45,12.92 25.07,16.2z"/>
   <path class="fil0" d="M0 167.67l0 2.38c8.9,-1.41 13.48,-9.02 18.98,-13.42 3.91,-3.13 2.69,-0.72 5.77,-3.86 -4.68,-2.8 -10.41,3.62 -14.22,7.53 -3.3,3.4 -2.79,4.47 -10.53,7.37z"/>
   <path class="fil0" d="M605.03 472.57l0 -2.38c-7.74,-2.91 -7.23,-3.98 -10.54,-7.37 -1.17,-1.21 -1.28,-1.14 -2.37,-2.14 -2.36,-2.15 -6.96,-8.31 -11.84,-5.4 3.08,3.15 1.86,0.73 5.77,3.86 5.5,4.41 10.07,12.01 18.98,13.43z"/>
   <path class="fil0" d="M0 16.42l0 2.38c6.85,-1.09 9.68,-4.76 13.57,-8.25 2.92,-2.61 2.44,-3.06 5.39,-5.34 5.32,-4.13 4.23,0.64 5.68,-5.21l-3.46 0c-3.74,3.04 -6.79,5.23 -9.81,8.3 -3.67,3.72 -3.6,5.94 -11.37,8.12z"/>
   <path class="fil0" d="M605.03 219.98l0 -2.38c-10.77,-1.48 -8.87,-4.58 -12.52,-10 -1.59,-2.37 -7.93,-7.2 -12.34,-4.92 3,3.42 2.75,1.15 6.83,4.29 6.86,5.27 5.39,11.94 18.03,13.01z"/>
   <path class="fil0" d="M605.03 522.49l0 -2.38c-10.77,-1.48 -8.87,-4.57 -12.52,-10 -1.59,-2.36 -7.93,-7.2 -12.34,-4.91 3,3.41 2.75,1.15 6.83,4.28 6.86,5.28 5.39,11.94 18.03,13.01z"/>
   <path class="fil0" d="M605.03 18.8l0 -2.38c-10.49,-2.94 -4.51,-2.46 -15.4,-11.51l-5.56 -4.91 -3.68 0c1.46,5.88 -0.2,1.09 4.79,4.6 3.18,2.23 3.27,3.17 5.49,5.25 4.06,3.82 7.72,7.89 14.36,8.95z"/>
   <path class="fil0" d="M0 66.74l0 1.89c11.57,-0.47 10.52,-6.98 19.14,-13.45 3.84,-2.88 3.11,-0.64 5.54,-3.75 -4.86,-1.36 -10.07,2.62 -11.9,5.23 -6.14,8.82 0.25,5.74 -12.78,10.08z"/>
   <path class="fil0" d="M605.03 371.14l0 -1.88c-13.03,-4.35 -6.64,-1.27 -12.79,-10.08 -1.82,-2.61 -7.03,-6.6 -11.89,-5.24 2.11,2.7 5.44,2.46 11.18,8.98 2.1,2.38 3.56,7.82 13.5,8.22z"/>
   <path class="fil0" d="M0 369.26l0 1.88c11.57,-0.46 10.52,-6.97 19.14,-13.44 3.84,-2.88 3.11,-0.65 5.54,-3.76 -5.47,-1.53 -10.53,3.02 -12.46,6.2 -5.08,8.36 -1.12,5.42 -12.22,9.12z"/>
   <path class="fil0" d="M605.03 68.63l0 -1.89c-11.1,-3.7 -7.14,-0.75 -12.22,-9.12 -1.93,-3.17 -6.99,-7.72 -12.46,-6.19 2.11,2.7 5.44,2.46 11.18,8.97 2.1,2.39 3.56,7.83 13.5,8.23z"/>
   <path class="fil0" d="M0 268.48l0 2.08c7.78,-1.17 8.85,-1.55 13.11,-7.84 4.77,-7.04 3.13,-4.31 11.66,-8.61 -7.66,-7.35 -10.58,11.62 -24.77,14.37z"/>
   <path class="fil0" d="M0 570.99l0 2.09c7.78,-1.17 8.85,-1.56 13.11,-7.85 4.77,-7.03 3.13,-4.3 11.66,-8.6 -7.66,-7.35 -10.58,11.62 -24.77,14.36z"/>
   <path class="fil0" d="M605.03 119.3l0 -2.08c-13.29,-4.17 -17.14,-19.41 -24.68,-14.37 19.47,7.73 5.4,13.07 24.68,16.45z"/>
   <path class="fil1" d="M511.62 605.03l3.23 0c-1.5,-1.45 -8.26,-12.9 -15.3,-15.84 -7.5,-3.14 -7.49,0.7 -7.49,0.71 8.02,2.36 16.24,7.68 19.56,15.13z"/>
   <path class="fil1" d="M57.85 605.03l3.22 0c-1.49,-1.45 -8.26,-12.9 -15.29,-15.84 -7.5,-3.14 -7.49,0.7 -7.5,0.71 6.66,1.96 7.33,1.9 11.65,6.05 3.89,3.74 5.81,4.34 7.92,9.08z"/>
   <path class="fil1" d="M543.95 605.03l3.22 0c3.29,-7.37 11.83,-12.85 19.57,-15.13 -5.1,-5.06 -12.08,2.12 -16.76,6.95 -4.67,4.81 -2.07,4.36 -6.03,8.18z"/>
   <path class="fil1" d="M209.11 605.03l3.22 0c-4.5,-4.34 0.26,-1.93 -9.17,-11.09 -2.32,-2.26 -2.91,-3.41 -6.12,-4.75 -7.5,-3.14 -7.49,0.7 -7.5,0.71 6.66,1.96 7.32,1.9 11.65,6.05 3.89,3.74 5.81,4.34 7.92,9.08z"/>
   <path class="fil0" d="M605.03 270.56l0 -2.08c-7.12,-1.38 -8.92,-3.88 -12.91,-9 -3.76,-4.84 -7.97,-9.11 -11.86,-5.37 8.52,4.3 6.89,1.57 11.65,8.61 4.27,6.29 5.34,6.67 13.12,7.84z"/>
   <path class="fil0" d="M605.03 421.82l0 -2.09c-6.16,-1.93 -9.44,-5.1 -12.9,-9.04 -2.24,-2.56 -7.16,-8.41 -11.78,-5.32 9.32,3.69 6.45,1.53 11.47,8.7 4.36,6.22 5.58,6.41 13.21,7.75z"/>
   <path class="fil0" d="M0 318.96l0 2.08c7.03,-0.97 9.49,-4.44 13.38,-8.12 11.22,-10.62 7.26,-5.37 11.21,-8.89 -7.34,-4 -12.5,11.88 -24.59,14.93z"/>
   <path class="fil1" d="M360.37 605.03l3.22 0c-4.37,-4.21 -0.69,-2.9 -6.83,-8.9 -0.32,-0.31 -1.28,-1.13 -1.59,-1.44 -2.22,-2.14 -6.07,-6.79 -11.59,-6.35 -5.02,0.4 -0.22,-1.03 -2.78,1.56 8.02,2.36 16.25,7.68 19.57,15.13z"/>
   <path class="fil1" d="M90.18 605.03l3.22 0c2.03,-4.54 0.46,-2.57 3.84,-5.59 5.8,-5.19 7.4,-7.09 15.73,-9.54 -4.49,-4.45 -9.77,0.3 -13.61,4.04l-3.15 2.91c-4.67,4.81 -2.07,4.36 -6.03,8.18z"/>
   <path class="fil1" d="M392.7 605.03l3.22 0c2.83,-6.36 1.17,-2.89 6.39,-7.55 0.26,-0.23 2.24,-2.31 2.25,-2.32 3.5,-3.27 5.53,-3.67 10.93,-5.26 -0.56,-0.55 -0.62,-3.59 -7.5,-0.71l-7.65 6.24c-0.23,0.22 -0.59,0.48 -0.81,0.7 -5.97,5.82 -2.58,4.8 -6.83,8.9z"/>
   <path class="fil0" d="M605.03 321.04l0 -2.08c-12.09,-3.05 -17.25,-18.93 -24.59,-14.93 2.88,2.57 2.45,0.88 5.81,3.45 5.27,4.04 8.92,12.2 18.78,13.56z"/>
   <path class="fil1" d="M241.44 605.03l3.22 0c3.29,-7.37 11.82,-12.85 19.57,-15.13 -0.55,-0.55 -0.62,-3.59 -7.5,-0.71l-11.38 10.14c-2.46,3.49 -0.52,2.42 -3.91,5.7z"/>
   <path class="fil0" d="M40.84 605.03l3.68 0c-1.96,-1.85 -3.52,-4.82 -7.62,-6.68 -13.52,-6.14 -11.26,-1.1 -11.62,-0.88 6.61,3.27 10.86,2.12 15.56,7.56z"/>
   <path class="fil0" d="M343.35 605.03l3.68 0c-1.96,-1.85 -3.52,-4.82 -7.62,-6.68 -13.52,-6.14 -11.26,-1.1 -11.61,-0.88 6.61,3.27 10.86,2.12 15.55,7.56z"/>
   <path class="fil0" d="M192.1 605.03l3.67 0c-1.95,-1.85 -3.51,-4.82 -7.61,-6.68 -13.52,-6.14 -11.27,-1.1 -11.62,-0.88 6.61,3.27 10.86,2.12 15.56,7.56z"/>
   <path class="fil0" d="M494.61 605.03l3.68 0c-1.96,-1.85 -3.52,-4.82 -7.62,-6.68 -13.52,-6.14 -11.26,-1.1 -11.62,-0.88 6.62,3.27 10.86,2.12 15.56,7.56z"/>
   <path class="fil0" d="M106.74 605.03l3.68 0c4.7,-5.44 8.94,-4.29 15.55,-7.56 -0.32,-0.2 1.76,-5.19 -11.61,0.88 -4.1,1.86 -5.66,4.83 -7.62,6.68z"/>
   <path class="fil0" d="M560.51 605.03l3.68 0c4.7,-5.44 8.94,-4.29 15.55,-7.56 -3.26,-1.95 5.68,-2.83 -6.05,-0.89 -8.15,1.35 -10.44,5.87 -13.18,8.45z"/>
   <path class="fil0" d="M409.25 605.03l3.68 0c4.7,-5.44 8.95,-4.29 15.56,-7.56 -3.27,-1.95 5.68,-2.83 -6.05,-0.89 -8.16,1.35 -10.45,5.87 -13.19,8.45z"/>
   <path class="fil0" d="M258 605.03l3.67 0c4.7,-5.44 8.95,-4.29 15.56,-7.56 -3.27,-1.95 5.68,-2.83 -6.05,-0.89 -1.09,0.18 -5.39,1.69 -5.56,1.77 -4.11,1.86 -5.66,4.83 -7.62,6.68z"/>
   <path class="fil2" d="M53.32 483.17c-0.53,-2.11 0.81,-1.49 -3.02,-1.04 4.15,-4.09 -3.54,-0.48 2.65,-1.7 -2.03,-2.48 -1.19,-1.12 -2.63,0.8l3 1.94z"/>
   <path class="fil2" d="M507.09 483.17c-0.53,-2.11 0.82,-1.49 -3.02,-1.04 4.15,-4.09 -3.54,-0.48 2.65,-1.7 -2.03,-2.48 -1.19,-1.12 -2.63,0.8l3 1.94z"/>
   <path class="fil2" d="M204.58 483.17c-0.54,-2.11 0.81,-1.49 -3.02,-1.04 4.15,-4.09 -3.54,-0.48 2.64,-1.7 -2.02,-2.48 -1.18,-1.12 -2.62,0.8l3 1.94z"/>
   <path class="fil2" d="M507.09 180.65c-0.53,-2.1 0.82,-1.49 -3.02,-1.04 4.15,-4.08 -3.54,-0.48 2.65,-1.7l-2.08 -1.03c0.52,3.02 -2.33,0.65 2.45,3.77z"/>
   <path class="fil2" d="M551.7 180.65l3.01 -1.93c-1.44,-1.93 -0.6,-3.28 -2.63,-0.81 5.15,-1.97 0.35,-0.56 2.65,1.7 -6.66,-0.77 -0.71,-0.64 -3.03,1.04z"/>
   <path class="fil2" d="M97.93 483.17c4.78,-3.13 1.94,-0.75 2.45,-3.78l-2.07 1.04c5.15,-1.98 0.35,-0.57 2.65,1.7 -6.66,-0.78 -0.71,-0.65 -3.03,1.04z"/>
   <path class="fil2" d="M551.7 483.17c4.78,-3.13 1.94,-0.75 2.45,-3.78l-2.07 1.04c5.15,-1.98 0.35,-0.57 2.65,1.7 -6.66,-0.78 -0.71,-0.65 -3.03,1.04z"/>
  </g>
 </g>
</svg>
