<?xml version="1.0" encoding="UTF-8"?>
<!DOCTYPE svg PUBLIC "-//W3C//DTD SVG 1.1//EN" "http://www.w3.org/Graphics/SVG/1.1/DTD/svg11.dtd">
<!-- Creator: CorelDRAW 2020 (64-Bit) -->
<svg xmlns="http://www.w3.org/2000/svg" xml:space="preserve" width="703px" height="1000px" version="1.1" style="shape-rendering:geometricPrecision; text-rendering:geometricPrecision; image-rendering:optimizeQuality; fill-rule:evenodd; clip-rule:evenodd"
viewBox="0 0 265.163 376.881"
 xmlns:xlink="http://www.w3.org/1999/xlink"
 xmlns:xodm="http://www.corel.com/coreldraw/odm/2003">
 <defs>
  <style type="text/css">
   <![CDATA[
    .fil0 {fill:#F4CA14}
    .fil1 {fill:#FEFEFE;fill-rule:nonzero}
   ]]>
  </style>
 </defs>
 <g id="Layer_x0020_1">
  <metadata id="CorelCorpID_0Corel-Layer"/>
  <rect class="fil0" width="265.163" height="376.881"/>
  <path class="fil1" d="M58.823 92.891c-0.55,0.957 -1.308,1.441 -2.265,1.441l-8.216 0c-0.968,0 -1.54,-0.484 -1.727,-1.441l-7.831 -46.095c-0.044,-0.429 0.044,-0.792 0.253,-1.067 0.22,-0.275 0.561,-0.407 1.023,-0.407l10.404 0c0.946,0 1.485,0.495 1.617,1.474l4.059 28.563 15.189 -28.563c0.253,-0.484 0.583,-0.847 0.979,-1.1 0.406,-0.253 0.857,-0.374 1.363,-0.374l11.164 0c0.275,0 0.484,0.055 0.627,0.187 0.132,0.121 0.198,0.286 0.198,0.495 0,0.209 -0.077,0.473 -0.231,0.792l-9.899 17.224 1.914 12.681 17.674 -29.905c0.572,-0.979 1.353,-1.474 2.332,-1.474l10.801 0c0.275,0 0.484,0.055 0.649,0.165 0.154,0.121 0.242,0.275 0.242,0.484 0,0.231 -0.11,0.506 -0.308,0.825l-28.256 46.095c-0.571,0.957 -1.341,1.441 -2.309,1.441l-8.073 0c-0.979,0 -1.573,-0.484 -1.749,-1.441l-2.266 -12.714 -7.358 12.714z"/>
  <path id="1" class="fil1" d="M115.048 46.796c0.088,-0.385 0.297,-0.737 0.605,-1.034 0.308,-0.297 0.693,-0.44 1.155,-0.44l21.205 0c2.65,0 4.971,0.616 6.94,1.859 1.969,1.232 3.486,2.882 4.531,4.95 1.056,2.056 1.584,4.311 1.584,6.764 0,1.033 -0.077,1.99 -0.242,2.892 -0.528,3.025 -1.782,5.697 -3.762,8.04 -1.979,2.332 -4.366,4.158 -7.16,5.466l5.698 17.598c0.044,0.176 0.077,0.308 0.077,0.374 0,0.297 -0.11,0.55 -0.319,0.759 -0.198,0.209 -0.484,0.308 -0.858,0.308l-10.856 0c-0.462,0 -0.792,-0.088 -0.979,-0.275 -0.198,-0.187 -0.373,-0.55 -0.539,-1.1l-4.641 -14.914 -6.357 0 -3.157 14.848c-0.209,0.957 -0.78,1.441 -1.726,1.441l-9.855 0c-0.803,0 -1.21,-0.319 -1.21,-0.957 0,-0.099 0.022,-0.253 0.077,-0.484l9.789 -46.095zm8.359 20.688l7.655 0c1.121,0 2.188,-0.275 3.2,-0.835 1.012,-0.561 1.859,-1.298 2.563,-2.222 0.693,-0.913 1.155,-1.881 1.353,-2.882 0.099,-0.396 0.143,-0.836 0.143,-1.342 0,-1.308 -0.385,-2.408 -1.155,-3.321 -0.77,-0.902 -1.848,-1.353 -3.245,-1.353l-8.007 0 -2.507 11.955z"/>
  <path id="2" class="fil1" d="M43.283 125.986c0.208,-0.979 0.802,-1.474 1.792,-1.474l9.866 0c0.77,0 1.166,0.33 1.166,0.99 0,0.098 -0.022,0.253 -0.066,0.484l-9.8 46.094c-0.209,0.957 -0.781,1.441 -1.716,1.441l-9.865 0c-0.825,0 -1.243,-0.33 -1.243,-1.001 0,-0.066 0.022,-0.209 0.077,-0.44l9.789 -46.094z"/>
  <path id="3" class="fil1" d="M64.048 125.986c0.209,-0.979 0.803,-1.474 1.792,-1.474l35.812 0c0.781,0 1.165,0.33 1.165,0.99 0,0.098 -0.022,0.253 -0.066,0.484l-1.748 8.347c-0.209,0.99 -0.792,1.485 -1.76,1.485l-11.714 0 -7.732 36.262c-0.208,0.957 -0.791,1.441 -1.759,1.441l-9.514 0c-0.825,0 -1.243,-0.33 -1.243,-1.001 0,-0.066 0.022,-0.209 0.066,-0.44l7.732 -36.262 -11.647 0c-0.803,0 -1.199,-0.33 -1.199,-1.001 0,-0.088 0.022,-0.253 0.066,-0.484l1.749 -8.347z"/>
  <path id="4" class="fil1" d="M110.758 125.986c0.209,-0.979 0.803,-1.474 1.793,-1.474l9.866 0c0.77,0 1.166,0.33 1.166,0.99 0,0.098 -0.022,0.253 -0.066,0.484l-9.8 46.094c-0.209,0.957 -0.781,1.441 -1.716,1.441l-9.865 0c-0.825,0 -1.243,-0.33 -1.243,-1.001 0,-0.066 0.022,-0.209 0.077,-0.44l9.788 -46.094z"/>
  <path id="5" class="fil1" d="M45.757 251.27c-0.198,0.956 -0.836,1.44 -1.892,1.44l-9.205 0c-0.825,0 -1.243,-0.33 -1.243,-1.001 0,-0.066 0.022,-0.208 0.077,-0.439l9.789 -46.095c0.098,-0.407 0.296,-0.759 0.626,-1.045 0.319,-0.286 0.704,-0.429 1.166,-0.429l9.998 0c0.913,0 1.584,0.495 1.991,1.474l11.306 27.771 5.917 -27.771c0.088,-0.407 0.297,-0.759 0.616,-1.045 0.319,-0.286 0.726,-0.429 1.21,-0.429l9.173 0c0.319,0 0.616,0.11 0.891,0.341 0.275,0.231 0.418,0.506 0.418,0.825 0,0.132 -0.011,0.242 -0.033,0.308l-9.8 46.095c-0.209,0.956 -0.836,1.44 -1.892,1.44l-9.657 0c-1.011,0 -1.704,-0.484 -2.1,-1.44l-11.274 -28.564 -6.082 28.564z"/>
  <path id="6" class="fil1" d="M111.748 241.228c1.65,0 3.245,-0.22 4.773,-0.649l1.859 -8.733c0.187,-0.957 0.759,-1.441 1.716,-1.441l9.217 0c0.319,0 0.605,0.077 0.836,0.22 0.242,0.154 0.363,0.407 0.363,0.77 0,0.077 -0.022,0.22 -0.066,0.451l-3.399 15.948c-0.077,0.341 -0.198,0.638 -0.363,0.891 -0.176,0.253 -0.429,0.473 -0.77,0.66 -4.729,2.705 -9.986,4.058 -15.783,4.058 -4.003,0 -7.611,-0.913 -10.789,-2.716 -3.19,-1.815 -5.675,-4.345 -7.479,-7.578 -1.793,-3.245 -2.695,-6.918 -2.695,-11.021 0,-1.309 0.099,-2.651 0.308,-4.025 0.66,-4.829 2.42,-9.151 5.28,-12.968 2.848,-3.816 6.434,-6.786 10.734,-8.919 4.311,-2.134 8.931,-3.201 13.858,-3.201 2.838,0 5.335,0.44 7.49,1.309 2.156,0.869 4.191,2.145 6.115,3.816 0.319,0.275 0.484,0.561 0.484,0.858 0,0.297 -0.165,0.627 -0.484,0.99l-6.39 7.358c-0.363,0.396 -0.759,0.583 -1.166,0.583 -0.33,0 -0.616,-0.11 -0.869,-0.341 -0.89,-0.781 -1.924,-1.386 -3.09,-1.837 -1.166,-0.451 -2.453,-0.671 -3.85,-0.671 -2.496,0 -4.817,0.572 -6.973,1.716 -2.155,1.144 -3.959,2.717 -5.411,4.697 -1.463,1.979 -2.453,4.19 -2.981,6.61 -0.22,1.154 -0.341,2.166 -0.341,3.068 0,1.925 0.407,3.641 1.21,5.169 0.792,1.518 1.947,2.728 3.432,3.608 1.485,0.88 3.234,1.32 5.224,1.32z"/>
  <path id="7" class="fil1" d="M40.533 284.364c0.209,-0.979 0.803,-1.474 1.793,-1.474l35.811 0c0.781,0 1.166,0.33 1.166,0.99 0,0.099 -0.022,0.253 -0.066,0.484l-1.749 8.348c-0.209,0.99 -0.792,1.485 -1.76,1.485l-11.713 0 -7.732 36.262c-0.209,0.957 -0.792,1.441 -1.76,1.441l-9.514 0c-0.825,0 -1.243,-0.33 -1.243,-1.001 0,-0.066 0.022,-0.209 0.066,-0.44l7.732 -36.262 -11.647 0c-0.803,0 -1.199,-0.33 -1.199,-1.001 0,-0.088 0.022,-0.253 0.066,-0.484l1.749 -8.348z"/>
  <path id="8" class="fil1" d="M84.527 300.763c-0.363,0 -0.583,-0.099 -0.671,-0.297 -0.077,-0.198 -0.11,-0.385 -0.099,-0.583 0.011,-0.198 0.022,-0.319 0.022,-0.363 0.297,-3.069 1.221,-5.961 2.761,-8.689 1.55,-2.727 3.706,-4.949 6.478,-6.654 2.771,-1.705 6.038,-2.563 9.799,-2.563 2.563,0 4.928,0.473 7.083,1.43 2.145,0.946 3.872,2.354 5.148,4.224 1.287,1.869 1.924,4.124 1.924,6.753 0,0.99 -0.098,2.056 -0.307,3.2 -0.429,2.497 -1.342,4.708 -2.728,6.632 -1.386,1.925 -2.86,3.564 -4.421,4.917l-13.782 12.274 14.683 0c0.495,0 0.858,0.066 1.078,0.22 0.22,0.143 0.33,0.418 0.33,0.803 0,0.275 -0.022,0.506 -0.077,0.693l-1.606 7.622c-0.121,0.528 -0.319,0.913 -0.605,1.155 -0.285,0.242 -0.703,0.363 -1.253,0.363l-30.18 0c-0.462,0 -0.858,-0.077 -1.199,-0.22 -0.352,-0.154 -0.517,-0.418 -0.517,-0.814 0,-0.132 0.011,-0.253 0.033,-0.341l0.957 -4.532c0.143,-0.605 0.286,-1.033 0.451,-1.308 0.165,-0.275 0.495,-0.671 1.001,-1.166l23.503 -22.206c0.803,-0.737 1.452,-1.408 1.947,-2.035 0.484,-0.616 0.847,-1.441 1.078,-2.475 0.044,-0.176 0.066,-0.44 0.066,-0.792 0,-1.022 -0.407,-1.858 -1.232,-2.507 -0.825,-0.638 -1.793,-0.957 -2.892,-0.957 -1.947,0 -3.443,0.66 -4.499,1.991 -1.056,1.33 -1.825,3.079 -2.298,5.257 -0.121,0.462 -0.308,0.748 -0.572,0.858 -0.264,0.121 -0.627,0.165 -1.078,0.143l-8.326 -0.033z"/>
  <path class="fil1" d="M224.406 320.742c-0.42,0 -0.63,-0.201 -0.63,-0.603l0 -8.375c0,-0.777 0.148,-1.505 0.438,-2.188 0.29,-0.683 0.683,-1.276 1.183,-1.781 0.5,-0.504 1.089,-0.902 1.772,-1.192 0.679,-0.29 1.411,-0.433 2.197,-0.433 0.723,0 1.397,0.129 2.022,0.388 0.625,0.259 1.174,0.617 1.648,1.072 0.268,-0.366 0.58,-0.697 0.928,-0.991 0.349,-0.295 0.724,-0.549 1.125,-0.759 0.402,-0.215 0.826,-0.38 1.277,-0.496 0.451,-0.12 0.916,-0.178 1.389,-0.178 0.794,0 1.549,0.147 2.263,0.446 0.719,0.299 1.349,0.705 1.893,1.219 0.545,0.513 0.973,1.12 1.291,1.817 0.316,0.696 0.477,1.442 0.477,2.237l0 9.214c0,0.179 -0.044,0.322 -0.138,0.434 -0.094,0.111 -0.241,0.169 -0.438,0.169l-18.697 0zm13.246 -11.572c-0.303,0 -0.598,0.054 -0.888,0.161 -0.291,0.107 -0.554,0.254 -0.786,0.442 -0.232,0.187 -0.424,0.411 -0.581,0.669 -0.156,0.26 -0.263,0.541 -0.316,0.844 -0.027,0.179 -0.05,0.357 -0.072,0.541 -0.022,0.183 -0.036,0.37 -0.036,0.558l0 4.473 5.438 0 0 -4.473c0,-0.188 -0.004,-0.371 -0.018,-0.55 -0.013,-0.178 -0.04,-0.357 -0.076,-0.535 -0.044,-0.304 -0.147,-0.585 -0.308,-0.844 -0.16,-0.259 -0.361,-0.487 -0.602,-0.679 -0.241,-0.192 -0.509,-0.339 -0.808,-0.446 -0.3,-0.107 -0.617,-0.161 -0.947,-0.161zm-8.21 0.884c-0.34,0 -0.656,0.058 -0.951,0.179 -0.295,0.12 -0.549,0.29 -0.764,0.504 -0.214,0.214 -0.379,0.469 -0.5,0.768 -0.12,0.299 -0.183,0.625 -0.183,0.982l0 4.371 4.849 0 0 -4.33c0,-0.358 -0.063,-0.688 -0.188,-0.992 -0.125,-0.303 -0.294,-0.562 -0.513,-0.781 -0.219,-0.219 -0.478,-0.388 -0.777,-0.513 -0.299,-0.125 -0.625,-0.188 -0.973,-0.188z"/>
  <path id="1" class="fil1" d="M243.184 303.585c-0.179,-0.045 -0.344,-0.098 -0.496,-0.156 -0.152,-0.058 -0.29,-0.107 -0.415,-0.152l-17.988 -7.219c-0.098,-0.027 -0.205,-0.103 -0.326,-0.223 -0.12,-0.121 -0.183,-0.282 -0.183,-0.487l0 -2.156c0,-0.215 0.054,-0.371 0.161,-0.465 0.107,-0.094 0.201,-0.161 0.281,-0.205l1.045 -0.442 17.706 -7.072c0.027,0 0.072,-0.009 0.139,-0.022 0.067,-0.014 0.125,-0.018 0.169,-0.018 0.268,0 0.402,0.196 0.402,0.589l0 2.639c0,0.196 -0.04,0.348 -0.12,0.455 -0.081,0.107 -0.206,0.197 -0.375,0.268l-0.616 0.241c-0.429,0.17 -0.858,0.339 -1.286,0.509 -0.429,0.17 -0.862,0.335 -1.3,0.496l0 8.263c0.626,0.233 1.215,0.456 1.764,0.675 0.549,0.218 1.027,0.406 1.438,0.558 0.33,0.125 0.495,0.357 0.495,0.696l0 2.679c0,0.169 -0.031,0.303 -0.094,0.406 -0.062,0.103 -0.156,0.156 -0.281,0.156 -0.053,0 -0.094,-0.004 -0.12,-0.013zm-14.305 -9.322c1.232,0.482 2.509,0.96 3.831,1.438 1.321,0.477 2.594,0.959 3.817,1.442l0 -5.706 -7.648 2.826z"/>
  <path id="2" class="fil1" d="M224.379 282.088c-0.17,0 -0.312,-0.053 -0.429,-0.156 -0.116,-0.103 -0.174,-0.245 -0.174,-0.433l0 -3.081c0,-0.124 0.032,-0.241 0.09,-0.352 0.058,-0.112 0.147,-0.215 0.272,-0.304 2.179,-1.522 4.344,-3.036 6.496,-4.531 2.147,-1.5 4.313,-3.014 6.491,-4.536l-12.84 0c-0.16,-0.027 -0.285,-0.094 -0.375,-0.201 -0.089,-0.107 -0.134,-0.237 -0.134,-0.389l0 -2.584c0,-0.179 0.054,-0.335 0.161,-0.465 0.107,-0.129 0.25,-0.192 0.429,-0.192l18.764 0c0.366,0 0.549,0.21 0.549,0.63l0 2.902c0,0.196 -0.12,0.379 -0.361,0.549 -2.277,1.571 -4.554,3.134 -6.831,4.692 -2.273,1.554 -4.554,3.112 -6.84,4.674l13.443 0c0.196,0 0.344,0.045 0.442,0.139 0.098,0.093 0.147,0.254 0.147,0.477l0 2.572c0,0.205 -0.049,0.353 -0.152,0.446 -0.102,0.094 -0.245,0.143 -0.424,0.143l-18.724 0z"/>
  <path id="3" class="fil1" d="M233.746 243.475c0.933,0 1.821,0.12 2.674,0.361 0.857,0.241 1.652,0.581 2.388,1.018 0.737,0.438 1.402,0.964 2.005,1.576 0.598,0.612 1.107,1.295 1.531,2.045 0.424,0.75 0.755,1.558 0.987,2.42 0.232,0.861 0.348,1.763 0.348,2.701l0 6.433c0,0.161 -0.036,0.304 -0.107,0.429 -0.071,0.125 -0.223,0.187 -0.455,0.187l-18.711 0c-0.42,0 -0.63,-0.205 -0.63,-0.616l0 -6.433c0,-1.42 0.259,-2.746 0.773,-3.974 0.513,-1.232 1.219,-2.299 2.116,-3.21 0.897,-0.915 1.951,-1.629 3.161,-2.152 1.214,-0.522 2.518,-0.785 3.92,-0.785zm-6.3 13.286l12.563 0 0 -1.268c0,-0.67 -0.013,-1.335 -0.04,-2.004 -0.027,-0.88 -0.21,-1.697 -0.545,-2.443 -0.334,-0.75 -0.785,-1.397 -1.348,-1.946 -0.562,-0.545 -1.223,-0.973 -1.978,-1.282 -0.759,-0.307 -1.571,-0.459 -2.437,-0.459 -0.92,0 -1.764,0.165 -2.532,0.5 -0.763,0.335 -1.419,0.79 -1.964,1.37 -0.545,0.576 -0.969,1.255 -1.268,2.032 -0.299,0.772 -0.451,1.598 -0.451,2.469l0 3.031z"/>
  <path id="4" class="fil1" d="M233.746 214.384c0.933,0 1.821,0.12 2.674,0.361 0.857,0.242 1.652,0.581 2.388,1.018 0.737,0.438 1.402,0.965 2.005,1.576 0.598,0.612 1.107,1.295 1.531,2.045 0.424,0.75 0.755,1.558 0.987,2.42 0.232,0.862 0.348,1.763 0.348,2.701l0 6.433c0,0.161 -0.036,0.304 -0.107,0.429 -0.071,0.125 -0.223,0.187 -0.455,0.187l-18.711 0c-0.42,0 -0.63,-0.205 -0.63,-0.616l0 -6.433c0,-1.42 0.259,-2.746 0.773,-3.974 0.513,-1.232 1.219,-2.299 2.116,-3.21 0.897,-0.915 1.951,-1.629 3.161,-2.151 1.214,-0.523 2.518,-0.786 3.92,-0.786zm-6.3 13.286l12.563 0 0 -1.268c0,-0.669 -0.013,-1.335 -0.04,-2.004 -0.027,-0.88 -0.21,-1.697 -0.545,-2.442 -0.334,-0.75 -0.785,-1.398 -1.348,-1.947 -0.562,-0.545 -1.223,-0.973 -1.978,-1.281 -0.759,-0.308 -1.571,-0.46 -2.437,-0.46 -0.92,0 -1.764,0.165 -2.532,0.5 -0.763,0.335 -1.419,0.79 -1.964,1.371 -0.545,0.575 -0.969,1.254 -1.268,2.031 -0.299,0.772 -0.451,1.598 -0.451,2.469l0 3.031z"/>
  <path id="5" class="fil1" d="M224.419 210.754c-0.428,0 -0.643,-0.196 -0.643,-0.589l0 -12.925c0,-0.232 0.067,-0.397 0.197,-0.496 0.129,-0.098 0.29,-0.147 0.491,-0.147l2.366 0c0.161,0 0.304,0.054 0.429,0.165 0.125,0.112 0.187,0.282 0.187,0.505l0 9.523 4.072 0 0 -7.34c-0.018,-0.179 0.022,-0.322 0.116,-0.429 0.094,-0.107 0.25,-0.16 0.473,-0.16l2.438 0c0.16,0 0.303,0.044 0.428,0.134 0.125,0.089 0.188,0.232 0.188,0.428l0 7.367 4.848 0 0 -9.871c0,-0.25 0.054,-0.416 0.161,-0.496 0.107,-0.08 0.272,-0.121 0.5,-0.121l2.447 0c0.375,0 0.562,0.197 0.562,0.59l0 13.273c0,0.161 -0.044,0.299 -0.134,0.415 -0.089,0.116 -0.232,0.174 -0.428,0.174l-18.698 0z"/>
  <path id="6" class="fil1" d="M229.08 181.77c0,0.117 -0.027,0.224 -0.085,0.322 -0.058,0.098 -0.138,0.21 -0.236,0.335l-0.014 0.027c-0.169,0.169 -0.357,0.388 -0.562,0.656 -0.206,0.268 -0.398,0.567 -0.576,0.897 -0.179,0.331 -0.331,0.683 -0.455,1.063 -0.125,0.379 -0.188,0.768 -0.188,1.16 0,0.501 0.058,0.943 0.17,1.326 0.111,0.384 0.263,0.706 0.455,0.965 0.192,0.259 0.415,0.455 0.674,0.589 0.264,0.134 0.54,0.201 0.835,0.201 0.322,0 0.603,-0.098 0.844,-0.299 0.241,-0.201 0.455,-0.473 0.643,-0.817 0.187,-0.344 0.361,-0.737 0.518,-1.183 0.156,-0.447 0.312,-0.915 0.464,-1.407 0.17,-0.562 0.353,-1.12 0.549,-1.669 0.197,-0.554 0.42,-1.085 0.665,-1.59 0.246,-0.5 0.518,-0.973 0.817,-1.41 0.299,-0.438 0.643,-0.813 1.032,-1.13 0.388,-0.317 0.821,-0.567 1.303,-0.75 0.478,-0.183 1.018,-0.272 1.616,-0.272 0.974,0 1.853,0.196 2.643,0.589 0.786,0.393 1.46,0.933 2.018,1.625 0.558,0.692 0.987,1.505 1.286,2.438 0.299,0.933 0.451,1.937 0.451,3.009 0,0.687 -0.08,1.37 -0.241,2.049 -0.161,0.679 -0.388,1.33 -0.683,1.955 -0.295,0.625 -0.647,1.215 -1.063,1.773 -0.415,0.558 -0.884,1.058 -1.402,1.495l0.014 0 -0.054 0.027c-0.223,0.197 -0.428,0.295 -0.616,0.295 -0.098,0 -0.192,-0.027 -0.281,-0.08 -0.089,-0.054 -0.188,-0.134 -0.295,-0.242l-0.442 -0.442c-0.116,-0.133 -0.245,-0.276 -0.388,-0.428 -0.143,-0.152 -0.273,-0.304 -0.388,-0.455 -0.117,-0.152 -0.215,-0.295 -0.295,-0.425 -0.081,-0.129 -0.121,-0.232 -0.121,-0.312 0,-0.125 0.04,-0.241 0.121,-0.348 0.08,-0.107 0.156,-0.197 0.228,-0.268l0.053 -0.054 0 0.014c0.295,-0.313 0.576,-0.666 0.844,-1.054 0.268,-0.388 0.509,-0.786 0.719,-1.197 0.21,-0.41 0.375,-0.821 0.495,-1.227 0.121,-0.407 0.179,-0.786 0.179,-1.143 0,-0.491 -0.063,-0.951 -0.188,-1.38 -0.125,-0.428 -0.303,-0.799 -0.531,-1.111 -0.228,-0.313 -0.5,-0.559 -0.826,-0.737 -0.321,-0.179 -0.678,-0.268 -1.071,-0.268 -0.393,0 -0.733,0.116 -1.014,0.348 -0.281,0.232 -0.527,0.536 -0.737,0.911 -0.209,0.375 -0.392,0.795 -0.544,1.264 -0.152,0.468 -0.295,0.942 -0.429,1.415 -0.33,1.089 -0.687,2.04 -1.071,2.857 -0.384,0.817 -0.817,1.5 -1.295,2.045 -0.478,0.545 -1.018,0.951 -1.612,1.223 -0.593,0.272 -1.263,0.411 -2.004,0.411 -0.831,0 -1.59,-0.17 -2.273,-0.505 -0.687,-0.334 -1.272,-0.812 -1.759,-1.428 -0.486,-0.621 -0.866,-1.362 -1.138,-2.233 -0.272,-0.866 -0.411,-1.834 -0.411,-2.906 0,-0.812 0.13,-1.638 0.384,-2.478 0.255,-0.839 0.603,-1.616 1.049,-2.33 0.134,-0.215 0.286,-0.433 0.456,-0.656 0.169,-0.224 0.343,-0.429 0.518,-0.617 0.174,-0.187 0.343,-0.343 0.508,-0.464 0.166,-0.12 0.304,-0.178 0.42,-0.178 0.107,0 0.219,0.026 0.331,0.08 0.111,0.053 0.209,0.12 0.299,0.201l0.428 0.402 -0.013 0c0.143,0.133 0.29,0.272 0.442,0.415 0.152,0.143 0.29,0.285 0.411,0.428 0.12,0.143 0.218,0.273 0.299,0.389 0.08,0.116 0.12,0.214 0.12,0.294z"/>
  <path id="7" class="fil1" d="M225.227 160.448c0.063,-0.107 0.143,-0.197 0.232,-0.268 0.09,-0.071 0.197,-0.107 0.322,-0.107 0.098,0 0.201,0.027 0.308,0.08l2.214 1.299c0.206,0.152 0.308,0.313 0.308,0.483 0,0.053 -0.009,0.116 -0.031,0.187 -0.022,0.072 -0.058,0.143 -0.103,0.214 -0.401,0.563 -0.714,1.166 -0.937,1.808 -0.223,0.643 -0.335,1.326 -0.335,2.05 0,0.91 0.17,1.745 0.514,2.504 0.343,0.759 0.812,1.416 1.401,1.969 0.585,0.554 1.277,0.982 2.072,1.29 0.795,0.308 1.647,0.465 2.554,0.465 0.901,0 1.75,-0.157 2.536,-0.465 0.79,-0.308 1.482,-0.736 2.067,-1.29 0.589,-0.553 1.053,-1.21 1.393,-1.969 0.339,-0.759 0.508,-1.594 0.508,-2.504 0,-0.724 -0.111,-1.416 -0.334,-2.072 -0.224,-0.656 -0.536,-1.259 -0.938,-1.812 -0.054,-0.072 -0.089,-0.148 -0.107,-0.224 -0.018,-0.076 -0.031,-0.138 -0.04,-0.192 0,-0.151 0.098,-0.308 0.294,-0.468l2.242 -1.326c0.107,-0.054 0.205,-0.081 0.294,-0.081 0.125,0 0.228,0.036 0.308,0.112 0.081,0.076 0.161,0.165 0.232,0.263 0.563,0.84 1.001,1.741 1.308,2.71 0.309,0.969 0.465,1.991 0.465,3.063 0,0.946 -0.121,1.853 -0.362,2.723 -0.241,0.871 -0.585,1.688 -1.031,2.447 -0.446,0.759 -0.982,1.451 -1.603,2.071 -0.62,0.625 -1.308,1.161 -2.062,1.608 -0.755,0.446 -1.567,0.794 -2.443,1.035 -0.87,0.241 -1.776,0.362 -2.727,0.362 -0.947,0 -1.853,-0.121 -2.724,-0.362 -0.87,-0.241 -1.692,-0.589 -2.455,-1.035 -0.764,-0.447 -1.456,-0.983 -2.085,-1.608 -0.625,-0.62 -1.156,-1.312 -1.599,-2.071 -0.441,-0.759 -0.785,-1.576 -1.031,-2.447 -0.245,-0.87 -0.37,-1.777 -0.37,-2.723 0,-1.063 0.151,-2.072 0.451,-3.027 0.299,-0.955 0.732,-1.853 1.294,-2.692z"/>
  <path id="8" class="fil1" d="M224.406 156.457c-0.42,0 -0.63,-0.197 -0.63,-0.59l0 -8.205c0,-0.902 0.17,-1.746 0.509,-2.532 0.34,-0.786 0.799,-1.473 1.38,-2.058 0.58,-0.585 1.263,-1.045 2.054,-1.38 0.785,-0.334 1.62,-0.504 2.504,-0.504 0.616,0 1.206,0.085 1.768,0.254 0.563,0.17 1.085,0.407 1.572,0.71 0.482,0.304 0.915,0.665 1.303,1.085 0.389,0.42 0.719,0.884 0.987,1.393l6.875 -3.496c0.09,-0.018 0.179,-0.049 0.268,-0.093 0.089,-0.045 0.183,-0.067 0.281,-0.067 0.268,0 0.402,0.156 0.402,0.468l0 3.121c0,0.322 -0.165,0.536 -0.495,0.643l-6.443 3.255c0,0.142 0.005,0.294 0.014,0.46 0.009,0.169 0.013,0.397 0.013,0.687 0,0.29 0,0.674 0,1.143 0,0.469 0,1.076 0,1.821l6.335 0c0.384,0 0.576,0.206 0.576,0.617l0 2.678c0,0.179 -0.044,0.322 -0.138,0.429 -0.094,0.107 -0.241,0.161 -0.438,0.161l-18.697 0zm5.83 -11.305c-0.379,0 -0.754,0.072 -1.111,0.215 -0.362,0.143 -0.688,0.343 -0.969,0.607 -0.286,0.259 -0.518,0.567 -0.696,0.924 -0.179,0.362 -0.282,0.75 -0.308,1.17 -0.009,0.317 -0.014,0.62 -0.018,0.924 -0.005,0.299 -0.009,0.612 -0.009,0.933l0 2.647 6.214 0 0 -3.549c0,-0.178 0,-0.348 0,-0.504 0,-0.157 -0.009,-0.326 -0.026,-0.505 -0.027,-0.419 -0.125,-0.808 -0.295,-1.161 -0.17,-0.352 -0.393,-0.656 -0.674,-0.906 -0.282,-0.254 -0.603,-0.446 -0.965,-0.585 -0.357,-0.138 -0.741,-0.21 -1.143,-0.21z"/>
  <path id="9" class="fil1" d="M224.366 137.799c-0.161,0 -0.299,-0.049 -0.416,-0.147 -0.116,-0.098 -0.174,-0.246 -0.174,-0.442l0 -2.665c0,-0.152 0.054,-0.295 0.161,-0.429 0.107,-0.134 0.25,-0.201 0.429,-0.201l18.724 0c0.393,0 0.589,0.21 0.589,0.63l0 2.665c0,0.393 -0.196,0.589 -0.589,0.589l-18.724 0z"/>
  <path id="10" class="fil1" d="M224.406 129.723c-0.42,0 -0.63,-0.201 -0.63,-0.603l0 -7.598c0,-0.902 0.179,-1.732 0.532,-2.491 0.352,-0.759 0.821,-1.411 1.41,-1.96 0.594,-0.549 1.268,-0.974 2.032,-1.277 0.768,-0.304 1.562,-0.456 2.393,-0.456 0.817,0 1.598,0.148 2.357,0.447 0.755,0.299 1.424,0.719 2.009,1.259 0.585,0.54 1.054,1.183 1.406,1.933 0.353,0.75 0.532,1.567 0.532,2.46l0 4.402 6.656 0c0.384,0 0.576,0.201 0.576,0.603l0 2.692c0,0.393 -0.192,0.589 -0.576,0.589l-18.697 0zm5.705 -10.5c-0.37,0 -0.732,0.071 -1.089,0.214 -0.353,0.143 -0.67,0.339 -0.946,0.589 -0.273,0.25 -0.496,0.554 -0.666,0.902 -0.174,0.348 -0.258,0.728 -0.258,1.139l0 3.772 5.919 0 0 -3.772c0,-0.402 -0.08,-0.777 -0.245,-1.125 -0.161,-0.349 -0.38,-0.652 -0.652,-0.907 -0.277,-0.254 -0.589,-0.455 -0.946,-0.598 -0.358,-0.143 -0.728,-0.214 -1.117,-0.214z"/>
  <path id="11" class="fil1" d="M224.366 113.303c-0.179,0 -0.322,-0.058 -0.429,-0.174 -0.107,-0.117 -0.161,-0.264 -0.161,-0.442l0 -14.077c0,-0.161 0.049,-0.308 0.148,-0.438 0.098,-0.129 0.245,-0.201 0.442,-0.218l2.352 0c0.184,0 0.34,0.053 0.474,0.165 0.134,0.111 0.201,0.277 0.201,0.491l0 5.089 15.67 0c0.161,0 0.304,0.054 0.429,0.166 0.125,0.111 0.187,0.268 0.187,0.464l0 2.625c0,0.161 -0.058,0.308 -0.174,0.438 -0.116,0.129 -0.263,0.192 -0.442,0.192l-15.67 0 0 5.103c0,0.178 -0.058,0.325 -0.17,0.442 -0.112,0.116 -0.277,0.174 -0.505,0.174l-2.352 0z"/>
  <path id="12" class="fil1" d="M233.728 91.699c0.902,0 1.745,-0.161 2.531,-0.487 0.786,-0.326 1.469,-0.772 2.049,-1.339 0.581,-0.563 1.041,-1.232 1.38,-2.005 0.339,-0.768 0.509,-1.602 0.509,-2.504 0,-0.893 -0.17,-1.724 -0.509,-2.492 -0.339,-0.772 -0.799,-1.441 -1.38,-2.013 -0.58,-0.571 -1.263,-1.018 -2.049,-1.344 -0.786,-0.326 -1.629,-0.486 -2.531,-0.486 -0.893,0 -1.732,0.16 -2.518,0.486 -0.786,0.326 -1.469,0.773 -2.054,1.344 -0.585,0.572 -1.049,1.241 -1.388,2.013 -0.34,0.768 -0.509,1.599 -0.509,2.492 0,0.902 0.169,1.736 0.509,2.504 0.339,0.773 0.803,1.442 1.388,2.005 0.585,0.567 1.268,1.013 2.054,1.339 0.786,0.326 1.625,0.487 2.518,0.487zm0.027 3.884c-0.938,0 -1.844,-0.121 -2.719,-0.362 -0.875,-0.241 -1.692,-0.584 -2.451,-1.031 -0.759,-0.446 -1.451,-0.978 -2.076,-1.598 -0.625,-0.616 -1.157,-1.308 -1.599,-2.067 -0.442,-0.755 -0.785,-1.572 -1.031,-2.438 -0.246,-0.87 -0.37,-1.777 -0.37,-2.723 0,-0.938 0.124,-1.84 0.37,-2.71 0.246,-0.866 0.589,-1.683 1.031,-2.438 0.442,-0.759 0.974,-1.451 1.599,-2.076 0.625,-0.625 1.317,-1.156 2.076,-1.598 0.759,-0.442 1.576,-0.786 2.451,-1.031 0.875,-0.246 1.786,-0.367 2.732,-0.367 0.946,0 1.853,0.121 2.719,0.367 0.866,0.245 1.678,0.589 2.437,1.031 0.759,0.442 1.452,0.973 2.072,1.598 0.621,0.625 1.152,1.317 1.594,2.076 0.442,0.755 0.781,1.572 1.022,2.438 0.241,0.87 0.362,1.777 0.362,2.723 0,0.947 -0.121,1.853 -0.362,2.723 -0.241,0.867 -0.585,1.684 -1.031,2.438 -0.446,0.759 -0.978,1.451 -1.598,2.067 -0.621,0.621 -1.308,1.152 -2.063,1.594 -0.755,0.442 -1.567,0.781 -2.438,1.022 -0.87,0.241 -1.781,0.362 -2.727,0.362z"/>
  <path id="13" class="fil1" d="M224.406 71.622c-0.42,0 -0.63,-0.196 -0.63,-0.589l0 -8.206c0,-0.902 0.17,-1.746 0.509,-2.532 0.34,-0.785 0.799,-1.473 1.38,-2.058 0.58,-0.585 1.263,-1.044 2.054,-1.379 0.785,-0.335 1.62,-0.505 2.504,-0.505 0.616,0 1.206,0.085 1.768,0.255 0.563,0.169 1.085,0.406 1.572,0.71 0.482,0.303 0.915,0.665 1.303,1.084 0.389,0.42 0.719,0.885 0.987,1.393l6.875 -3.495c0.09,-0.018 0.179,-0.049 0.268,-0.094 0.089,-0.045 0.183,-0.067 0.281,-0.067 0.268,0 0.402,0.156 0.402,0.469l0 3.12c0,0.322 -0.165,0.536 -0.495,0.643l-6.443 3.255c0,0.143 0.005,0.295 0.014,0.46 0.009,0.169 0.013,0.397 0.013,0.687 0,0.291 0,0.675 0,1.143 0,0.469 0,1.076 0,1.822l6.335 0c0.384,0 0.576,0.205 0.576,0.616l0 2.679c0,0.178 -0.044,0.321 -0.138,0.428 -0.094,0.107 -0.241,0.161 -0.438,0.161l-18.697 0zm5.83 -11.304c-0.379,0 -0.754,0.071 -1.111,0.214 -0.362,0.143 -0.688,0.344 -0.969,0.607 -0.286,0.259 -0.518,0.567 -0.696,0.924 -0.179,0.362 -0.282,0.75 -0.308,1.17 -0.009,0.317 -0.014,0.621 -0.018,0.924 -0.005,0.299 -0.009,0.612 -0.009,0.933l0 2.648 6.214 0 0 -3.55c0,-0.178 0,-0.348 0,-0.504 0,-0.156 -0.009,-0.326 -0.026,-0.504 -0.027,-0.42 -0.125,-0.809 -0.295,-1.161 -0.17,-0.353 -0.393,-0.657 -0.674,-0.907 -0.282,-0.254 -0.603,-0.446 -0.965,-0.584 -0.357,-0.139 -0.741,-0.21 -1.143,-0.21z"/>
 </g>
</svg>
