<?xml version="1.0" encoding="UTF-8"?>
<!DOCTYPE svg PUBLIC "-//W3C//DTD SVG 1.1//EN" "http://www.w3.org/Graphics/SVG/1.1/DTD/svg11.dtd">
<!-- Creator: CorelDRAW 2020 (64-Bit) -->
<svg xmlns="http://www.w3.org/2000/svg" xml:space="preserve" width="703px" height="1000px" version="1.1" style="shape-rendering:geometricPrecision; text-rendering:geometricPrecision; image-rendering:optimizeQuality; fill-rule:evenodd; clip-rule:evenodd"
viewBox="0 0 445.197 632.767"
 xmlns:xlink="http://www.w3.org/1999/xlink"
 xmlns:xodm="http://www.corel.com/coreldraw/odm/2003">
 <defs>
  <style type="text/css">
   <![CDATA[
    .fil0 {fill:#F45E42}
    .fil1 {fill:#FEFEFE;fill-rule:nonzero}
   ]]>
  </style>
 </defs>
 <g id="Layer_x0020_1">
  <metadata id="CorelCorpID_0Corel-Layer"/>
  <rect class="fil0" width="445.197" height="632.767"/>
  <path class="fil1" d="M57.269 145.157c-0.739,-1.034 -1.09,-1.865 -1.09,-2.474 0,-0.813 0.499,-1.625 1.496,-2.419l10.322 -8.901c0.665,-0.536 1.293,-0.794 1.902,-0.794 0.739,0 1.478,0.425 2.253,1.274 1.662,1.718 3.121,3.158 4.414,4.284 1.292,1.145 2.844,2.142 4.653,3.029 1.81,0.886 3.749,1.329 5.817,1.329 6.426,0 10.23,-2.566 11.375,-7.737 0.037,-0.185 0.055,-0.48 0.055,-0.849 0,-1.773 -0.904,-3.214 -2.714,-4.34 -1.81,-1.108 -4.136,-2.216 -6.98,-3.287 -7.35,-2.77 -12.853,-5.927 -16.509,-9.491 -3.656,-3.564 -5.466,-7.793 -5.466,-12.723 0,-1.349 0.185,-2.974 0.573,-4.912 0.997,-4.58 2.936,-8.587 5.816,-12.022 2.9,-3.453 6.611,-6.094 11.172,-7.959 4.561,-1.865 9.769,-2.806 15.604,-2.806 4.931,0 9.787,1.052 14.551,3.176 4.765,2.105 8.606,4.838 11.486,8.199 0.499,0.609 0.739,1.218 0.739,1.846 0,1.034 -0.646,2.105 -1.958,3.232l-8.937 8.236c-0.739,0.591 -1.385,0.868 -1.957,0.868 -0.813,0 -1.681,-0.499 -2.604,-1.496 -0.739,-0.85 -1.828,-1.718 -3.269,-2.604 -1.44,-0.868 -2.936,-1.643 -4.469,-2.308 -1.421,-0.536 -3.176,-0.794 -5.244,-0.794 -2.382,0 -4.524,0.443 -6.389,1.329 -1.865,0.887 -3.01,2.29 -3.435,4.21 -0.074,0.462 -0.11,0.776 -0.11,0.979 0,1.071 0.443,2.031 1.311,2.862 0.849,0.813 2.049,1.57 3.564,2.235 1.532,0.683 3.637,1.477 6.315,2.4 4.579,1.662 8.402,3.417 11.43,5.282 3.047,1.865 5.411,4.099 7.11,6.721 1.68,2.622 2.53,5.762 2.53,9.4 0,1.975 -0.203,3.914 -0.628,5.835 -1.127,5.355 -3.287,9.934 -6.5,13.738 -3.213,3.805 -7.276,6.704 -12.169,8.717 -4.912,1.994 -10.434,2.991 -16.601,2.991 -3.657,0 -7.22,-0.628 -10.692,-1.902 -3.49,-1.274 -6.666,-2.973 -9.529,-5.134 -2.862,-2.16 -5.281,-4.561 -7.238,-7.22z"/>
  <path id="1" class="fil1" d="M144.188 78.569c0.185,-0.776 0.554,-1.367 1.09,-1.81 0.535,-0.443 1.163,-0.665 1.846,-0.665l34.975 0c4.339,0 8.088,1.053 11.227,3.139 3.121,2.106 5.503,4.876 7.128,8.31 1.607,3.453 2.419,7.165 2.419,11.172 0,1.422 -0.111,2.862 -0.351,4.321 -0.775,5.004 -2.603,9.529 -5.484,13.591 -2.881,4.063 -6.5,7.239 -10.84,9.547 -4.357,2.308 -9.011,3.472 -13.978,3.472l-17.543 0 -5.595 26.314c-0.351,1.606 -1.348,2.419 -2.992,2.419l-16.453 0c-1.348,0 -2.013,-0.536 -2.013,-1.607 0,-0.166 0.037,-0.424 0.111,-0.812l16.453 -77.391zm14.238 33.589l13.11 0c1.699,0 3.287,-0.443 4.765,-1.292 1.477,-0.868 2.714,-2.013 3.711,-3.435 0.997,-1.422 1.662,-2.936 1.958,-4.506 0.166,-0.923 0.24,-1.606 0.24,-2.031 0,-1.994 -0.591,-3.693 -1.754,-5.096 -1.182,-1.404 -2.844,-2.106 -5.005,-2.106l-13.092 0 -3.933 18.466z"/>
  <path id="2" class="fil1" d="M72.503 211.524c0.351,-1.643 1.348,-2.474 2.992,-2.474l55.121 0c1.311,0 1.957,0.554 1.957,1.662 0,0.166 -0.037,0.424 -0.111,0.812l-3.01 14.201c-0.332,1.606 -1.329,2.419 -2.936,2.419l-36.119 0 -2.899 13.683 27.422 0c1.532,0 2.308,0.591 2.308,1.791 0,0.111 -0.037,0.351 -0.111,0.739l-2.493 11.43c-0.351,1.625 -1.403,2.419 -3.176,2.419l-27.403 0 -3.066 14.145 37.172 0c1.385,0 2.068,0.591 2.068,1.791 0,0.259 -0.018,0.48 -0.055,0.628l-3.047 14.145c-0.351,1.607 -1.329,2.419 -2.954,2.419l-56.156 0c-1.385,0 -2.068,-0.554 -2.068,-1.68 0,-0.111 0.037,-0.351 0.111,-0.739l16.453 -77.391z"/>
  <path id="3" class="fil1" d="M170.318 211.524c0.96,-1.643 2.289,-2.474 3.97,-2.474l13.573 0c1.569,0 2.493,0.831 2.769,2.474l13.794 77.391c0.038,0.148 0.056,0.37 0.056,0.628 0,1.2 -0.702,1.791 -2.087,1.791l-15.917 0c-1.662,0 -2.604,-0.812 -2.826,-2.419l-1.569 -10.858 -30.229 0 -6.057 10.858c-0.849,1.607 -2.124,2.419 -3.823,2.419l-17.081 0c-1.071,0 -1.606,-0.351 -1.606,-1.034 0,-0.351 0.166,-0.812 0.517,-1.385l46.516 -77.391zm9.233 48.713l-3.583 -25.169 -14.089 25.169 17.672 0z"/>
  <path id="4" class="fil1" d="M127.44 421.686c0.221,0.462 0.35,0.886 0.35,1.274 0,0.886 -0.553,1.33 -1.625,1.33l-19.278 0c-0.757,0 -1.367,-0.185 -1.773,-0.573 -0.424,-0.388 -0.812,-0.997 -1.163,-1.847l-12.169 -28.456 -10.563 10.101 -3.933 18.355c-0.333,1.607 -1.311,2.42 -2.881,2.42l-16.564 0c-1.348,0 -2.013,-0.536 -2.013,-1.607 0,-0.166 0.037,-0.425 0.111,-0.813l16.453 -77.391c0.37,-1.643 1.367,-2.474 2.936,-2.474l16.324 0c0.499,0 1.016,0.221 1.533,0.683 0.517,0.462 0.702,1.071 0.554,1.791l-6.001 28.512 29.305 -29.14c0.85,-0.812 1.57,-1.329 2.142,-1.532 0.573,-0.222 1.367,-0.314 2.364,-0.314l20.663 0c0.72,0 1.09,0.24 1.09,0.738 0,0.555 -0.332,1.164 -1.034,1.847l-34.735 33.479 19.907 43.617z"/>
  <path id="5" class="fil1" d="M157.318 344.479c0.35,-1.643 1.347,-2.474 3.01,-2.474l16.563 0c1.293,0 1.958,0.554 1.958,1.662 0,0.166 -0.037,0.425 -0.111,0.812l-16.453 77.391c-0.351,1.607 -1.311,2.42 -2.881,2.42l-16.564 0c-1.385,0 -2.087,-0.555 -2.087,-1.681 0,-0.111 0.037,-0.351 0.13,-0.739l16.435 -77.391z"/>
  <path id="6" class="fil1" d="M76.824 554.826c-0.332,1.606 -1.403,2.419 -3.176,2.419l-15.456 0c-1.385,0 -2.087,-0.554 -2.087,-1.681 0,-0.11 0.037,-0.35 0.13,-0.738l16.434 -77.391c0.166,-0.683 0.499,-1.274 1.053,-1.755 0.536,-0.48 1.182,-0.72 1.957,-0.72l16.786 0c1.533,0 2.659,0.831 3.342,2.475l18.983 46.627 9.935 -46.627c0.148,-0.683 0.499,-1.274 1.034,-1.755 0.536,-0.48 1.219,-0.72 2.031,-0.72l15.401 0c0.536,0 1.034,0.185 1.496,0.573 0.461,0.388 0.702,0.849 0.702,1.385 0,0.221 -0.019,0.406 -0.056,0.517l-16.453 77.391c-0.351,1.606 -1.403,2.419 -3.176,2.419l-16.213 0c-1.699,0 -2.863,-0.813 -3.527,-2.419l-18.928 -47.956 -10.212 47.956z"/>
  <path id="7" class="fil1" d="M187.62 537.966c2.77,0 5.448,-0.369 8.014,-1.089l3.121 -14.662c0.314,-1.607 1.274,-2.419 2.881,-2.419l15.475 0c0.535,0 1.015,0.129 1.403,0.369 0.406,0.259 0.609,0.683 0.609,1.293 0,0.129 -0.037,0.369 -0.11,0.757l-5.706 26.776c-0.13,0.572 -0.333,1.071 -0.61,1.495 -0.295,0.425 -0.72,0.794 -1.292,1.108 -7.941,4.543 -16.768,6.814 -26.499,6.814 -6.722,0 -12.779,-1.533 -18.115,-4.561 -5.355,-3.047 -9.529,-7.294 -12.557,-12.723 -3.01,-5.447 -4.524,-11.615 -4.524,-18.503 0,-2.197 0.166,-4.45 0.517,-6.759 1.108,-8.106 4.062,-15.363 8.863,-21.771 4.783,-6.408 10.803,-11.393 18.023,-14.976 7.239,-3.582 14.994,-5.373 23.267,-5.373 4.765,0 8.956,0.738 12.576,2.197 3.619,1.459 7.035,3.601 10.267,6.408 0.535,0.461 0.812,0.942 0.812,1.44 0,0.499 -0.277,1.053 -0.812,1.662l-10.729 12.354c-0.609,0.664 -1.274,0.979 -1.957,0.979 -0.554,0 -1.034,-0.185 -1.459,-0.573 -1.496,-1.311 -3.232,-2.327 -5.189,-3.084 -1.958,-0.757 -4.118,-1.126 -6.463,-1.126 -4.192,0 -8.088,0.96 -11.708,2.881 -3.619,1.92 -6.647,4.561 -9.085,7.884 -2.456,3.324 -4.118,7.036 -5.004,11.098 -0.37,1.939 -0.573,3.638 -0.573,5.152 0,3.232 0.683,6.113 2.032,8.679 1.329,2.549 3.268,4.58 5.761,6.058 2.493,1.477 5.429,2.215 8.771,2.215z"/>
  <path class="fil1" d="M376.768 538.512c-0.705,0 -1.057,-0.337 -1.057,-1.012l0 -14.062c0,-1.304 0.247,-2.526 0.734,-3.673 0.487,-1.147 1.147,-2.144 1.987,-2.991 0.839,-0.847 1.829,-1.514 2.975,-2.001 1.14,-0.487 2.369,-0.727 3.688,-0.727 1.215,0 2.346,0.217 3.396,0.652 1.049,0.435 1.971,1.035 2.766,1.799 0.449,-0.615 0.974,-1.169 1.559,-1.664 0.585,-0.495 1.214,-0.922 1.889,-1.274 0.674,-0.36 1.387,-0.637 2.144,-0.832 0.757,-0.203 1.536,-0.3 2.331,-0.3 1.334,0 2.601,0.247 3.8,0.749 1.207,0.503 2.264,1.185 3.178,2.047 0.915,0.862 1.634,1.881 2.167,3.051 0.532,1.169 0.802,2.421 0.802,3.755l0 15.471c0,0.3 -0.075,0.54 -0.233,0.727 -0.157,0.188 -0.404,0.285 -0.734,0.285l-31.392 0zm22.239 -19.429c-0.509,0 -1.004,0.09 -1.491,0.27 -0.487,0.18 -0.93,0.427 -1.32,0.742 -0.389,0.315 -0.712,0.69 -0.974,1.124 -0.262,0.435 -0.442,0.907 -0.532,1.417 -0.045,0.3 -0.083,0.6 -0.12,0.907 -0.038,0.307 -0.06,0.622 -0.06,0.937l0 7.511 9.13 0 0 -7.511c0,-0.315 -0.008,-0.622 -0.03,-0.922 -0.023,-0.3 -0.068,-0.6 -0.128,-0.899 -0.075,-0.51 -0.247,-0.982 -0.517,-1.417 -0.27,-0.435 -0.607,-0.817 -1.012,-1.14 -0.405,-0.322 -0.854,-0.569 -1.357,-0.749 -0.502,-0.18 -1.034,-0.27 -1.589,-0.27zm-13.784 1.484c-0.57,0 -1.102,0.098 -1.597,0.3 -0.495,0.202 -0.922,0.487 -1.282,0.847 -0.359,0.36 -0.637,0.787 -0.839,1.289 -0.202,0.503 -0.308,1.05 -0.308,1.649l0 7.339 8.141 0 0 -7.271c0,-0.6 -0.105,-1.154 -0.315,-1.664 -0.21,-0.51 -0.495,-0.945 -0.862,-1.312 -0.367,-0.367 -0.802,-0.652 -1.304,-0.862 -0.503,-0.21 -1.05,-0.315 -1.634,-0.315z"/>
  <path id="1" class="fil1" d="M408.295 509.706c-0.3,-0.075 -0.578,-0.165 -0.832,-0.263 -0.255,-0.097 -0.488,-0.179 -0.697,-0.254l-30.201 -12.121c-0.165,-0.045 -0.345,-0.172 -0.547,-0.375 -0.202,-0.202 -0.307,-0.472 -0.307,-0.817l0 -3.62c0,-0.36 0.089,-0.622 0.269,-0.78 0.18,-0.157 0.338,-0.27 0.473,-0.345l1.754 -0.742 29.728 -11.873c0.045,0 0.12,-0.015 0.232,-0.038 0.113,-0.022 0.21,-0.029 0.285,-0.029 0.45,0 0.675,0.329 0.675,0.989l0 4.43c0,0.33 -0.068,0.585 -0.203,0.765 -0.135,0.179 -0.345,0.329 -0.629,0.449l-1.035 0.405c-0.719,0.285 -1.439,0.57 -2.158,0.855 -0.72,0.284 -1.447,0.562 -2.182,0.832l0 13.874c1.05,0.39 2.039,0.765 2.961,1.132 0.922,0.367 1.724,0.682 2.414,0.937 0.554,0.21 0.832,0.6 0.832,1.169l0 4.498c0,0.285 -0.053,0.509 -0.158,0.682 -0.105,0.172 -0.262,0.262 -0.472,0.262 -0.09,0 -0.157,-0.007 -0.202,-0.022zm-24.017 -15.651c2.069,0.809 4.213,1.611 6.432,2.413 2.218,0.802 4.355,1.612 6.409,2.421l0 -9.579 -12.841 4.745z"/>
  <path id="2" class="fil1" d="M376.723 473.614c-0.285,0 -0.525,-0.09 -0.72,-0.262 -0.195,-0.173 -0.292,-0.413 -0.292,-0.728l0 -5.172c0,-0.209 0.052,-0.404 0.15,-0.592 0.097,-0.187 0.247,-0.36 0.457,-0.51 3.658,-2.555 7.293,-5.097 10.906,-7.608 3.606,-2.518 7.241,-5.059 10.899,-7.615l-21.558 0c-0.27,-0.045 -0.48,-0.158 -0.63,-0.338 -0.149,-0.179 -0.224,-0.397 -0.224,-0.652l0 -4.34c0,-0.3 0.089,-0.562 0.269,-0.779 0.18,-0.218 0.42,-0.323 0.72,-0.323l31.505 0c0.614,0 0.922,0.353 0.922,1.057l0 4.872c0,0.33 -0.203,0.637 -0.608,0.922 -3.822,2.639 -7.645,5.262 -11.468,7.878 -3.815,2.609 -7.646,5.225 -11.483,7.848l22.569 0c0.33,0 0.577,0.075 0.742,0.233 0.165,0.157 0.248,0.427 0.248,0.802l0 4.317c0,0.345 -0.083,0.593 -0.255,0.75 -0.173,0.157 -0.412,0.24 -0.712,0.24l-31.437 0z"/>
  <path id="3" class="fil1" d="M392.449 408.783c1.566,0 3.058,0.203 4.49,0.607 1.439,0.405 2.773,0.975 4.01,1.709 1.237,0.735 2.353,1.619 3.365,2.646 1.005,1.027 1.859,2.174 2.571,3.433 0.713,1.26 1.267,2.616 1.657,4.063 0.39,1.447 0.585,2.961 0.585,4.535l0 10.801c0,0.27 -0.06,0.51 -0.18,0.72 -0.12,0.21 -0.375,0.315 -0.765,0.315l-31.414 0c-0.705,0 -1.057,-0.345 -1.057,-1.035l0 -10.801c0,-2.384 0.434,-4.61 1.297,-6.671 0.862,-2.069 2.046,-3.861 3.552,-5.39 1.507,-1.536 3.276,-2.736 5.307,-3.613 2.039,-0.877 4.228,-1.319 6.582,-1.319zm-10.577 22.307l21.093 0 0 -2.128c0,-1.125 -0.022,-2.242 -0.067,-3.366 -0.045,-1.477 -0.353,-2.848 -0.915,-4.1 -0.562,-1.259 -1.319,-2.346 -2.264,-3.268 -0.944,-0.915 -2.053,-1.634 -3.32,-2.152 -1.274,-0.517 -2.639,-0.772 -4.093,-0.772 -1.544,0 -2.961,0.278 -4.25,0.84 -1.282,0.562 -2.384,1.327 -3.298,2.301 -0.914,0.967 -1.627,2.107 -2.129,3.411 -0.502,1.296 -0.757,2.683 -0.757,4.145l0 5.089z"/>
  <path id="4" class="fil1" d="M392.449 359.941c1.566,0 3.058,0.202 4.49,0.607 1.439,0.405 2.773,0.975 4.01,1.709 1.237,0.735 2.353,1.619 3.365,2.646 1.005,1.027 1.859,2.174 2.571,3.433 0.713,1.259 1.267,2.616 1.657,4.063 0.39,1.447 0.585,2.961 0.585,4.535l0 10.801c0,0.27 -0.06,0.51 -0.18,0.72 -0.12,0.21 -0.375,0.314 -0.765,0.314l-31.414 0c-0.705,0 -1.057,-0.344 -1.057,-1.034l0 -10.801c0,-2.384 0.434,-4.61 1.297,-6.671 0.862,-2.069 2.046,-3.861 3.552,-5.39 1.507,-1.536 3.276,-2.736 5.307,-3.613 2.039,-0.877 4.228,-1.319 6.582,-1.319zm-10.577 22.307l21.093 0 0 -2.129c0,-1.124 -0.022,-2.241 -0.067,-3.365 -0.045,-1.477 -0.353,-2.849 -0.915,-4.1 -0.562,-1.26 -1.319,-2.346 -2.264,-3.268 -0.944,-0.915 -2.053,-1.635 -3.32,-2.152 -1.274,-0.517 -2.639,-0.772 -4.093,-0.772 -1.544,0 -2.961,0.278 -4.25,0.84 -1.282,0.562 -2.384,1.327 -3.298,2.301 -0.914,0.967 -1.627,2.106 -2.129,3.41 -0.502,1.297 -0.757,2.684 -0.757,4.146l0 5.089z"/>
  <path id="5" class="fil1" d="M376.79 353.847c-0.72,0 -1.079,-0.33 -1.079,-0.99l0 -21.7c0,-0.39 0.112,-0.667 0.329,-0.832 0.218,-0.165 0.488,-0.247 0.825,-0.247l3.973 0c0.27,0 0.509,0.09 0.719,0.277 0.21,0.188 0.315,0.472 0.315,0.847l0 15.989 6.836 0 0 -12.323c-0.03,-0.3 0.038,-0.54 0.195,-0.72 0.158,-0.18 0.42,-0.27 0.795,-0.27l4.092 0c0.27,0 0.51,0.075 0.72,0.225 0.21,0.15 0.315,0.39 0.315,0.72l0 12.368 8.14 0 0 -16.573c0,-0.42 0.09,-0.698 0.27,-0.832 0.18,-0.135 0.457,-0.203 0.839,-0.203l4.108 0c0.63,0 0.945,0.33 0.945,0.99l0 22.284c0,0.27 -0.075,0.503 -0.225,0.698 -0.15,0.194 -0.39,0.292 -0.72,0.292l-31.392 0z"/>
  <path id="6" class="fil1" d="M384.616 305.185c0,0.195 -0.045,0.374 -0.143,0.539 -0.097,0.165 -0.232,0.352 -0.397,0.563l-0.023 0.045c-0.285,0.284 -0.599,0.651 -0.944,1.101 -0.345,0.45 -0.667,0.952 -0.967,1.507 -0.3,0.555 -0.555,1.147 -0.765,1.784 -0.209,0.637 -0.314,1.289 -0.314,1.949 0,0.839 0.097,1.581 0.284,2.226 0.188,0.645 0.443,1.184 0.765,1.619 0.322,0.435 0.697,0.765 1.132,0.99 0.442,0.224 0.907,0.337 1.402,0.337 0.539,0 1.012,-0.165 1.416,-0.502 0.405,-0.338 0.765,-0.795 1.08,-1.372 0.314,-0.577 0.607,-1.237 0.869,-1.986 0.262,-0.75 0.525,-1.537 0.78,-2.362 0.284,-0.944 0.592,-1.881 0.922,-2.803 0.329,-0.93 0.704,-1.821 1.117,-2.668 0.412,-0.84 0.869,-1.634 1.371,-2.369 0.502,-0.735 1.08,-1.364 1.732,-1.896 0.652,-0.533 1.379,-0.952 2.189,-1.26 0.802,-0.307 1.709,-0.457 2.713,-0.457 1.634,0 3.111,0.33 4.437,0.989 1.32,0.66 2.452,1.567 3.388,2.729 0.938,1.162 1.657,2.526 2.159,4.092 0.503,1.567 0.757,3.254 0.757,5.053 0,1.154 -0.134,2.301 -0.404,3.44 -0.27,1.14 -0.653,2.234 -1.147,3.283 -0.495,1.05 -1.087,2.039 -1.784,2.976 -0.697,0.937 -1.484,1.777 -2.354,2.511l0.023 0 -0.09 0.045c-0.375,0.33 -0.72,0.495 -1.035,0.495 -0.165,0 -0.322,-0.045 -0.472,-0.135 -0.15,-0.09 -0.315,-0.225 -0.495,-0.405l-0.742 -0.742c-0.195,-0.225 -0.412,-0.465 -0.652,-0.719 -0.24,-0.255 -0.457,-0.51 -0.652,-0.765 -0.195,-0.255 -0.36,-0.495 -0.495,-0.712 -0.135,-0.218 -0.202,-0.39 -0.202,-0.525 0,-0.21 0.067,-0.405 0.202,-0.584 0.135,-0.18 0.263,-0.33 0.383,-0.45l0.09 -0.09 0 0.022c0.494,-0.524 0.966,-1.117 1.416,-1.769 0.45,-0.652 0.855,-1.319 1.207,-2.009 0.352,-0.689 0.63,-1.379 0.832,-2.061 0.202,-0.682 0.3,-1.319 0.3,-1.919 0,-0.824 -0.105,-1.596 -0.315,-2.316 -0.21,-0.72 -0.51,-1.342 -0.892,-1.866 -0.382,-0.525 -0.84,-0.938 -1.387,-1.237 -0.539,-0.3 -1.139,-0.45 -1.799,-0.45 -0.659,0 -1.229,0.195 -1.701,0.585 -0.472,0.389 -0.885,0.899 -1.237,1.529 -0.352,0.629 -0.66,1.334 -0.914,2.121 -0.255,0.787 -0.495,1.582 -0.72,2.376 -0.555,1.829 -1.154,3.426 -1.799,4.798 -0.645,1.371 -1.372,2.518 -2.174,3.432 -0.802,0.915 -1.709,1.597 -2.706,2.054 -0.997,0.458 -2.121,0.69 -3.365,0.69 -1.395,0 -2.669,-0.285 -3.816,-0.847 -1.154,-0.562 -2.136,-1.364 -2.953,-2.399 -0.817,-1.042 -1.454,-2.286 -1.911,-3.748 -0.458,-1.454 -0.69,-3.08 -0.69,-4.879 0,-1.364 0.217,-2.751 0.645,-4.16 0.427,-1.409 1.012,-2.714 1.761,-3.913 0.225,-0.36 0.48,-0.727 0.765,-1.102 0.285,-0.375 0.577,-0.72 0.869,-1.034 0.293,-0.315 0.577,-0.578 0.855,-0.78 0.277,-0.202 0.509,-0.3 0.704,-0.3 0.18,0 0.368,0.045 0.555,0.135 0.187,0.09 0.352,0.202 0.502,0.337l0.72 0.675 -0.023 0c0.24,0.225 0.487,0.457 0.742,0.697 0.255,0.24 0.488,0.48 0.69,0.72 0.202,0.24 0.367,0.457 0.502,0.652 0.135,0.195 0.203,0.36 0.203,0.495z"/>
  <path id="7" class="fil1" d="M378.147 269.385c0.105,-0.18 0.24,-0.33 0.39,-0.45 0.15,-0.12 0.329,-0.18 0.539,-0.18 0.165,0 0.338,0.045 0.517,0.135l3.718 2.181c0.345,0.255 0.517,0.525 0.517,0.81 0,0.09 -0.015,0.195 -0.052,0.315 -0.037,0.12 -0.097,0.24 -0.172,0.36 -0.675,0.944 -1.2,1.956 -1.574,3.035 -0.375,1.08 -0.563,2.227 -0.563,3.441 0,1.529 0.285,2.931 0.862,4.205 0.577,1.274 1.365,2.376 2.354,3.306 0.982,0.929 2.144,1.649 3.478,2.166 1.334,0.517 2.766,0.779 4.288,0.779 1.514,0 2.938,-0.262 4.257,-0.779 1.327,-0.517 2.489,-1.237 3.471,-2.166 0.989,-0.93 1.769,-2.032 2.338,-3.306 0.57,-1.274 0.855,-2.676 0.855,-4.205 0,-1.214 -0.187,-2.376 -0.562,-3.478 -0.375,-1.102 -0.9,-2.114 -1.574,-3.043 -0.09,-0.12 -0.15,-0.248 -0.18,-0.375 -0.03,-0.128 -0.053,-0.232 -0.068,-0.322 0,-0.255 0.165,-0.518 0.495,-0.787l3.763 -2.227c0.18,-0.09 0.345,-0.135 0.495,-0.135 0.209,0 0.382,0.06 0.517,0.188 0.135,0.127 0.27,0.277 0.39,0.442 0.944,1.409 1.679,2.923 2.196,4.55 0.517,1.627 0.779,3.343 0.779,5.142 0,1.589 -0.202,3.111 -0.607,4.572 -0.405,1.462 -0.982,2.834 -1.731,4.108 -0.75,1.274 -1.649,2.436 -2.691,3.478 -1.042,1.05 -2.197,1.949 -3.463,2.698 -1.267,0.75 -2.631,1.335 -4.1,1.74 -1.462,0.404 -2.984,0.607 -4.58,0.607 -1.589,0 -3.111,-0.203 -4.573,-0.607 -1.461,-0.405 -2.841,-0.99 -4.122,-1.74 -1.282,-0.749 -2.444,-1.648 -3.501,-2.698 -1.049,-1.042 -1.941,-2.204 -2.683,-3.478 -0.742,-1.274 -1.32,-2.646 -1.732,-4.108 -0.412,-1.461 -0.622,-2.983 -0.622,-4.572 0,-1.784 0.255,-3.478 0.757,-5.082 0.502,-1.604 1.229,-3.111 2.174,-4.52z"/>
  <path id="8" class="fil1" d="M376.768 262.684c-0.705,0 -1.057,-0.33 -1.057,-0.99l0 -13.777c0,-1.514 0.284,-2.931 0.854,-4.25 0.57,-1.319 1.342,-2.474 2.316,-3.455 0.975,-0.982 2.122,-1.754 3.448,-2.317 1.32,-0.562 2.721,-0.847 4.205,-0.847 1.035,0 2.024,0.143 2.969,0.428 0.944,0.284 1.821,0.682 2.638,1.191 0.81,0.51 1.537,1.117 2.189,1.822 0.652,0.704 1.207,1.484 1.657,2.338l11.543 -5.869c0.15,-0.03 0.3,-0.082 0.45,-0.157 0.15,-0.075 0.307,-0.112 0.472,-0.112 0.45,0 0.675,0.262 0.675,0.787l0 5.239c0,0.54 -0.278,0.9 -0.832,1.08l-10.817 5.464c0,0.24 0.008,0.495 0.023,0.772 0.015,0.285 0.022,0.667 0.022,1.154 0,0.487 0,1.132 0,1.919 0,0.787 0,1.807 0,3.058l10.637 0c0.644,0 0.967,0.345 0.967,1.035l0 4.497c0,0.3 -0.075,0.54 -0.233,0.72 -0.157,0.18 -0.404,0.27 -0.734,0.27l-31.392 0zm9.789 -18.979c-0.637,0 -1.267,0.119 -1.866,0.359 -0.608,0.24 -1.155,0.577 -1.627,1.02 -0.48,0.435 -0.87,0.952 -1.169,1.551 -0.3,0.608 -0.473,1.26 -0.518,1.964 -0.015,0.532 -0.022,1.042 -0.03,1.552 -0.007,0.502 -0.015,1.027 -0.015,1.566l0 4.445 10.435 0 0 -5.959c0,-0.3 0,-0.584 0,-0.847 0,-0.262 -0.016,-0.547 -0.045,-0.847 -0.045,-0.704 -0.21,-1.356 -0.495,-1.949 -0.285,-0.592 -0.66,-1.102 -1.132,-1.521 -0.472,-0.427 -1.012,-0.75 -1.619,-0.982 -0.6,-0.233 -1.244,-0.352 -1.919,-0.352z"/>
  <path id="9" class="fil1" d="M376.7 231.359c-0.27,0 -0.502,-0.082 -0.697,-0.247 -0.195,-0.165 -0.292,-0.413 -0.292,-0.742l0 -4.475c0,-0.255 0.089,-0.495 0.269,-0.72 0.18,-0.225 0.42,-0.337 0.72,-0.337l31.437 0c0.66,0 0.99,0.352 0.99,1.057l0 4.475c0,0.659 -0.33,0.989 -0.99,0.989l-31.437 0z"/>
  <path id="10" class="fil1" d="M376.768 217.799c-0.705,0 -1.057,-0.337 -1.057,-1.011l0 -12.758c0,-1.514 0.3,-2.909 0.892,-4.183 0.592,-1.274 1.379,-2.368 2.368,-3.29 0.997,-0.922 2.129,-1.635 3.411,-2.144 1.289,-0.51 2.623,-0.765 4.017,-0.765 1.372,0 2.684,0.248 3.958,0.75 1.267,0.502 2.391,1.207 3.373,2.114 0.982,0.907 1.769,1.986 2.362,3.245 0.592,1.26 0.892,2.631 0.892,4.13l0 7.391 11.176 0c0.644,0 0.967,0.338 0.967,1.012l0 4.52c0,0.66 -0.323,0.989 -0.967,0.989l-31.392 0zm9.579 -17.63c-0.622,0 -1.229,0.121 -1.829,0.36 -0.592,0.24 -1.124,0.57 -1.589,0.99 -0.457,0.419 -0.832,0.929 -1.117,1.514 -0.292,0.584 -0.435,1.222 -0.435,1.911l0 6.334 9.94 0 0 -6.334c0,-0.674 -0.135,-1.304 -0.412,-1.889 -0.27,-0.584 -0.638,-1.094 -1.095,-1.521 -0.465,-0.427 -0.989,-0.765 -1.589,-1.005 -0.6,-0.239 -1.222,-0.36 -1.874,-0.36z"/>
  <path id="11" class="fil1" d="M376.7 190.23c-0.3,0 -0.54,-0.097 -0.72,-0.292 -0.18,-0.195 -0.269,-0.442 -0.269,-0.742l0 -23.634c0,-0.27 0.082,-0.517 0.247,-0.735 0.165,-0.217 0.412,-0.337 0.742,-0.367l3.95 0c0.308,0 0.57,0.09 0.795,0.277 0.225,0.187 0.337,0.465 0.337,0.825l0 8.545 26.31 0c0.27,0 0.51,0.09 0.72,0.277 0.21,0.188 0.315,0.45 0.315,0.78l0 4.407c0,0.27 -0.098,0.518 -0.293,0.735 -0.194,0.217 -0.442,0.322 -0.742,0.322l-26.31 0 0 8.568c0,0.3 -0.097,0.547 -0.285,0.742 -0.187,0.195 -0.464,0.292 -0.847,0.292l-3.95 0z"/>
  <path id="12" class="fil1" d="M392.419 153.959c1.514,0 2.931,-0.27 4.25,-0.818 1.319,-0.547 2.466,-1.296 3.44,-2.248 0.975,-0.945 1.747,-2.069 2.317,-3.366 0.569,-1.289 0.854,-2.691 0.854,-4.205 0,-1.499 -0.285,-2.893 -0.854,-4.183 -0.57,-1.297 -1.342,-2.421 -2.317,-3.38 -0.974,-0.96 -2.121,-1.709 -3.44,-2.257 -1.319,-0.547 -2.736,-0.817 -4.25,-0.817 -1.499,0 -2.909,0.27 -4.228,0.817 -1.319,0.548 -2.466,1.297 -3.448,2.257 -0.982,0.959 -1.761,2.083 -2.331,3.38 -0.57,1.29 -0.855,2.684 -0.855,4.183 0,1.514 0.285,2.916 0.855,4.205 0.57,1.297 1.349,2.421 2.331,3.366 0.982,0.952 2.129,1.701 3.448,2.248 1.319,0.548 2.729,0.818 4.228,0.818zm0.045 6.521c-1.575,0 -3.096,-0.203 -4.565,-0.608 -1.469,-0.404 -2.841,-0.981 -4.115,-1.731 -1.275,-0.75 -2.437,-1.641 -3.486,-2.683 -1.049,-1.035 -1.941,-2.197 -2.684,-3.471 -0.741,-1.267 -1.319,-2.639 -1.731,-4.093 -0.412,-1.461 -0.622,-2.983 -0.622,-4.572 0,-1.574 0.21,-3.088 0.622,-4.55 0.412,-1.454 0.99,-2.826 1.731,-4.093 0.743,-1.274 1.635,-2.436 2.684,-3.485 1.049,-1.05 2.211,-1.942 3.486,-2.684 1.274,-0.742 2.646,-1.319 4.115,-1.731 1.469,-0.412 2.998,-0.615 4.587,-0.615 1.589,0 3.111,0.203 4.565,0.615 1.454,0.412 2.818,0.989 4.093,1.731 1.274,0.742 2.436,1.634 3.478,2.684 1.042,1.049 1.934,2.211 2.676,3.485 0.742,1.267 1.311,2.639 1.716,4.093 0.405,1.462 0.607,2.983 0.607,4.572 0,1.59 -0.202,3.111 -0.607,4.573 -0.405,1.454 -0.982,2.826 -1.731,4.093 -0.75,1.274 -1.642,2.436 -2.684,3.47 -1.042,1.042 -2.196,1.934 -3.463,2.676 -1.267,0.742 -2.631,1.312 -4.092,1.716 -1.462,0.405 -2.991,0.608 -4.58,0.608z"/>
  <path id="13" class="fil1" d="M376.768 120.25c-0.705,0 -1.057,-0.33 -1.057,-0.989l0 -13.777c0,-1.515 0.284,-2.931 0.854,-4.251 0.57,-1.319 1.342,-2.473 2.316,-3.455 0.975,-0.982 2.122,-1.754 3.448,-2.316 1.32,-0.563 2.721,-0.847 4.205,-0.847 1.035,0 2.024,0.142 2.969,0.427 0.944,0.285 1.821,0.682 2.638,1.192 0.81,0.51 1.537,1.117 2.189,1.821 0.652,0.705 1.207,1.484 1.657,2.339l11.543 -5.869c0.15,-0.03 0.3,-0.083 0.45,-0.158 0.15,-0.075 0.307,-0.112 0.472,-0.112 0.45,0 0.675,0.262 0.675,0.787l0 5.239c0,0.54 -0.278,0.9 -0.832,1.08l-10.817 5.464c0,0.24 0.008,0.495 0.023,0.772 0.015,0.285 0.022,0.667 0.022,1.155 0,0.487 0,1.132 0,1.919 0,0.787 0,1.806 0,3.058l10.637 0c0.644,0 0.967,0.345 0.967,1.034l0 4.498c0,0.3 -0.075,0.539 -0.233,0.719 -0.157,0.18 -0.404,0.27 -0.734,0.27l-31.392 0zm9.789 -18.979c-0.637,0 -1.267,0.12 -1.866,0.36 -0.608,0.239 -1.155,0.577 -1.627,1.019 -0.48,0.435 -0.87,0.952 -1.169,1.552 -0.3,0.607 -0.473,1.259 -0.518,1.964 -0.015,0.532 -0.022,1.042 -0.03,1.551 -0.007,0.502 -0.015,1.027 -0.015,1.567l0 4.445 10.435 0 0 -5.959c0,-0.3 0,-0.585 0,-0.847 0,-0.263 -0.016,-0.547 -0.045,-0.847 -0.045,-0.705 -0.21,-1.357 -0.495,-1.949 -0.285,-0.592 -0.66,-1.102 -1.132,-1.522 -0.472,-0.427 -1.012,-0.749 -1.619,-0.982 -0.6,-0.232 -1.244,-0.352 -1.919,-0.352z"/>
 </g>
</svg>
