<?xml version="1.0" encoding="UTF-8"?>
<!DOCTYPE svg PUBLIC "-//W3C//DTD SVG 1.1//EN" "http://www.w3.org/Graphics/SVG/1.1/DTD/svg11.dtd">
<!-- Creator: CorelDRAW 2020 (64-Bit) -->
<svg xmlns="http://www.w3.org/2000/svg" xml:space="preserve" width="703px" height="1000px" version="1.1" style="shape-rendering:geometricPrecision; text-rendering:geometricPrecision; image-rendering:optimizeQuality; fill-rule:evenodd; clip-rule:evenodd"
viewBox="0 0 1320.025 1876.177"
 xmlns:xlink="http://www.w3.org/1999/xlink"
 xmlns:xodm="http://www.corel.com/coreldraw/odm/2003">
 <defs>
  <style type="text/css">
   <![CDATA[
    .fil0 {fill:#4DC5F2}
    .fil1 {fill:#FEFEFE;fill-rule:nonzero}
   ]]>
  </style>
 </defs>
 <g id="Layer_x0020_1">
  <metadata id="CorelCorpID_0Corel-Layer"/>
  <rect class="fil0" width="1320.025" height="1876.177"/>
  <path class="fil1" d="M292.833 462.427c-2.738,4.763 -6.516,7.172 -11.279,7.172l-40.901 0c-4.818,0 -7.665,-2.409 -8.596,-7.172l-38.983 -229.468c-0.219,-2.135 0.219,-3.942 1.259,-5.311 1.095,-1.369 2.792,-2.026 5.092,-2.026l51.795 0c4.709,0 7.392,2.464 8.049,7.337l20.204 142.192 75.613 -142.192c1.259,-2.409 2.902,-4.215 4.873,-5.475 2.026,-1.259 4.271,-1.862 6.789,-1.862l55.574 0c1.369,0 2.409,0.274 3.121,0.931 0.657,0.602 0.985,1.424 0.985,2.464 0,1.04 -0.383,2.354 -1.149,3.942l-49.278 85.743 9.527 63.129 87.988 -148.872c2.847,-4.873 6.734,-7.337 11.607,-7.337l53.767 0c1.369,0 2.409,0.274 3.231,0.822 0.766,0.602 1.204,1.368 1.204,2.409 0,1.15 -0.547,2.518 -1.533,4.106l-140.659 229.468c-2.847,4.763 -6.68,7.172 -11.498,7.172l-40.189 0c-4.872,0 -7.829,-2.409 -8.705,-7.172l-11.279 -63.294 -36.629 63.294z"/>
  <path id="1" class="fil1" d="M572.727 232.959c0.438,-1.916 1.478,-3.668 3.011,-5.147 1.533,-1.478 3.45,-2.19 5.75,-2.19l105.562 0c13.195,0 24.748,3.066 34.549,9.254 9.801,6.132 17.357,14.345 22.558,24.638 5.256,10.239 7.885,21.463 7.885,33.673 0,5.147 -0.384,9.91 -1.205,14.4 -2.628,15.057 -8.87,28.361 -18.725,40.024 -9.856,11.607 -21.737,20.696 -35.644,27.212l28.362 87.604c0.218,0.876 0.383,1.533 0.383,1.861 0,1.478 -0.548,2.738 -1.588,3.778 -0.986,1.04 -2.409,1.533 -4.271,1.533l-54.041 0c-2.299,0 -3.942,-0.437 -4.872,-1.369 -0.986,-0.931 -1.862,-2.737 -2.683,-5.475l-23.105 -74.244 -31.647 0 -15.715 73.916c-1.04,4.763 -3.887,7.172 -8.596,7.172l-49.058 0c-3.997,0 -6.023,-1.587 -6.023,-4.763 0,-0.493 0.11,-1.259 0.383,-2.409l48.73 -229.468zm41.612 102.989l38.108 0c5.585,0 10.896,-1.368 15.933,-4.16 5.037,-2.793 9.253,-6.461 12.757,-11.06 3.45,-4.545 5.749,-9.363 6.735,-14.346 0.492,-1.971 0.711,-4.161 0.711,-6.68 0,-6.515 -1.916,-11.99 -5.749,-16.535 -3.832,-4.489 -9.198,-6.734 -16.152,-6.734l-39.86 0 -12.483 59.515z"/>
  <path id="2" class="fil1" d="M215.468 627.177c1.04,-4.873 3.996,-7.337 8.924,-7.337l49.113 0c3.833,0 5.804,1.643 5.804,4.928 0,0.492 -0.11,1.259 -0.329,2.409l-48.784 229.467c-1.04,4.764 -3.888,7.173 -8.542,7.173l-49.113 0c-4.106,0 -6.187,-1.643 -6.187,-4.983 0,-0.328 0.11,-1.04 0.384,-2.19l48.73 -229.467z"/>
  <path id="3" class="fil1" d="M318.84 627.177c1.04,-4.873 3.997,-7.337 8.925,-7.337l178.274 0c3.887,0 5.803,1.643 5.803,4.928 0,0.492 -0.109,1.259 -0.328,2.409l-8.706 41.557c-1.04,4.927 -3.942,7.392 -8.76,7.392l-58.312 0 -38.491 180.518c-1.04,4.764 -3.942,7.173 -8.76,7.173l-47.36 0c-4.107,0 -6.188,-1.643 -6.188,-4.983 0,-0.328 0.11,-1.04 0.329,-2.19l38.491 -180.518 -57.983 0c-3.997,0 -5.968,-1.643 -5.968,-4.983 0,-0.438 0.109,-1.259 0.329,-2.409l8.705 -41.557z"/>
  <path id="4" class="fil1" d="M551.374 627.177c1.04,-4.873 3.997,-7.337 8.925,-7.337l49.112 0c3.833,0 5.804,1.643 5.804,4.928 0,0.492 -0.11,1.259 -0.329,2.409l-48.784 229.467c-1.04,4.764 -3.887,7.173 -8.542,7.173l-49.112 0c-4.107,0 -6.187,-1.643 -6.187,-4.983 0,-0.328 0.11,-1.04 0.383,-2.19l48.73 -229.467z"/>
  <path id="5" class="fil1" d="M227.787 1250.862c-0.986,4.763 -4.162,7.172 -9.418,7.172l-45.828 0c-4.106,0 -6.187,-1.643 -6.187,-4.982 0,-0.329 0.11,-1.04 0.384,-2.19l48.73 -229.467c0.492,-2.026 1.478,-3.779 3.12,-5.202 1.588,-1.424 3.504,-2.136 5.804,-2.136l49.77 0c4.545,0 7.885,2.464 9.91,7.338l56.286 138.25 29.457 -138.25c0.438,-2.026 1.478,-3.779 3.066,-5.202 1.587,-1.424 3.613,-2.136 6.022,-2.136l45.664 0c1.588,0 3.066,0.548 4.435,1.698 1.368,1.15 2.081,2.518 2.081,4.106 0,0.657 -0.055,1.205 -0.165,1.534l-48.784 229.467c-1.041,4.763 -4.161,7.172 -9.418,7.172l-48.072 0c-5.038,0 -8.487,-2.409 -10.458,-7.172l-56.121 -142.192 -30.278 142.192z"/>
  <path id="6" class="fil1" d="M556.301 1200.873c8.213,0 16.152,-1.095 23.762,-3.23l9.254 -43.474c0.931,-4.764 3.778,-7.173 8.541,-7.173l45.883 0c1.588,0 3.011,0.383 4.161,1.096 1.205,0.766 1.807,2.026 1.807,3.832 0,0.383 -0.11,1.095 -0.328,2.245l-16.919 79.391c-0.383,1.698 -0.985,3.176 -1.807,4.435 -0.876,1.259 -2.135,2.354 -3.833,3.285 -23.543,13.469 -49.715,20.204 -78.569,20.204 -19.93,0 -37.889,-4.545 -53.713,-13.524 -15.878,-9.034 -28.251,-21.627 -37.231,-37.724 -8.924,-16.152 -13.414,-34.44 -13.414,-54.863 0,-6.515 0.492,-13.195 1.533,-20.039 3.285,-24.036 12.045,-45.554 26.281,-64.553 14.181,-18.999 32.03,-33.782 53.438,-44.404 21.463,-10.622 44.459,-15.933 68.988,-15.933 14.126,0 26.555,2.19 37.286,6.516 10.732,4.325 20.861,10.676 30.443,18.998 1.588,1.369 2.409,2.793 2.409,4.271 0,1.479 -0.821,3.121 -2.409,4.928l-31.811 36.629c-1.807,1.971 -3.778,2.902 -5.804,2.902 -1.643,0 -3.066,-0.547 -4.325,-1.697 -4.435,-3.888 -9.582,-6.899 -15.386,-9.144 -5.804,-2.245 -12.209,-3.34 -19.163,-3.34 -12.429,0 -23.982,2.848 -34.713,8.542 -10.732,5.694 -19.711,13.524 -26.938,23.379 -7.283,9.855 -12.21,20.861 -14.838,32.906 -1.096,5.749 -1.698,10.786 -1.698,15.276 0,9.581 2.026,18.123 6.023,25.733 3.942,7.557 9.691,13.579 17.083,17.96 7.392,4.38 16.097,6.57 26.007,6.57z"/>
  <path id="7" class="fil1" d="M201.779 1415.612c1.04,-4.873 3.997,-7.337 8.925,-7.337l178.274 0c3.887,0 5.803,1.643 5.803,4.928 0,0.492 -0.109,1.259 -0.328,2.409l-8.705 41.557c-1.041,4.927 -3.943,7.392 -8.761,7.392l-58.312 0 -38.491 180.518c-1.04,4.764 -3.942,7.173 -8.76,7.173l-47.36 0c-4.107,0 -6.187,-1.643 -6.187,-4.983 0,-0.328 0.109,-1.04 0.328,-2.19l38.491 -180.518 -57.983 0c-3.997,0 -5.968,-1.643 -5.968,-4.983 0,-0.438 0.11,-1.259 0.329,-2.409l8.705 -41.557z"/>
  <path id="8" class="fil1" d="M506.532 1408.275c2.737,0 4.106,1.095 4.106,3.231 0,0.328 -0.164,1.368 -0.493,3.065l-49.113 230.508c-0.821,4.764 -3.833,7.173 -9.089,7.173l-46.539 0c-4.107,0 -6.133,-1.588 -6.133,-4.764 0,-0.93 0.056,-1.642 0.165,-2.08l38.491 -180.847 -29.457 11.771c-1.095,0.383 -2.026,0.548 -2.738,0.548 -1.478,0 -2.026,-0.931 -1.697,-2.738l8.541 -40.571c0.603,-2.409 1.205,-4.161 1.916,-5.366 0.658,-1.204 2.026,-2.191 4.107,-3.011l25.624 -11.991c7.337,-3.285 13.634,-4.928 19,-4.928l43.309 0z"/>
  <path class="fil1" d="M1117.13 1596.708c-2.089,0 -3.134,-0.999 -3.134,-3l0 -41.695c0,-3.866 0.733,-7.489 2.178,-10.89 1.445,-3.4 3.4,-6.356 5.89,-8.868 2.489,-2.511 5.423,-4.489 8.823,-5.934 3.379,-1.444 7.024,-2.156 10.935,-2.156 3.6,0 6.956,0.645 10.068,1.934 3.112,1.289 5.845,3.067 8.201,5.334 1.333,-1.823 2.889,-3.467 4.623,-4.934 1.734,-1.467 3.601,-2.734 5.6,-3.778 2.001,-1.067 4.113,-1.889 6.357,-2.467 2.245,-0.6 4.556,-0.889 6.912,-0.889 3.956,0 7.712,0.733 11.268,2.222 3.578,1.489 6.712,3.512 9.424,6.068 2.711,2.556 4.845,5.578 6.423,9.046 1.578,3.466 2.378,7.178 2.378,11.134l0 45.873c0,0.889 -0.222,1.6 -0.689,2.156 -0.467,0.555 -1.2,0.844 -2.178,0.844l-93.079 0zm65.942 -57.607c-1.511,0 -2.978,0.266 -4.423,0.8 -1.444,0.533 -2.756,1.267 -3.912,2.2 -1.155,0.934 -2.111,2.045 -2.889,3.334 -0.777,1.289 -1.311,2.689 -1.578,4.201 -0.133,0.888 -0.244,1.777 -0.356,2.689 -0.11,0.911 -0.177,1.844 -0.177,2.778l0 22.269 27.07 0 0 -22.269c0,-0.934 -0.022,-1.845 -0.089,-2.734 -0.066,-0.889 -0.2,-1.778 -0.378,-2.667 -0.222,-1.511 -0.733,-2.911 -1.534,-4.201 -0.799,-1.289 -1.799,-2.422 -3,-3.378 -1.2,-0.955 -2.533,-1.689 -4.022,-2.222 -1.489,-0.534 -3.068,-0.8 -4.712,-0.8zm-40.872 4.401c-1.69,0 -3.267,0.288 -4.734,0.888 -1.467,0.601 -2.734,1.445 -3.8,2.512 -1.067,1.067 -1.89,2.333 -2.49,3.822 -0.6,1.489 -0.911,3.112 -0.911,4.89l0 21.758 24.137 0 0 -21.558c0,-1.778 -0.312,-3.422 -0.934,-4.934 -0.622,-1.511 -1.467,-2.8 -2.556,-3.89 -1.089,-1.089 -2.378,-1.933 -3.867,-2.555 -1.489,-0.623 -3.112,-0.933 -4.845,-0.933z"/>
  <path id="1" class="fil1" d="M1210.609 1511.297c-0.889,-0.223 -1.711,-0.489 -2.467,-0.778 -0.756,-0.289 -1.445,-0.534 -2.067,-0.756l-89.545 -35.938c-0.489,-0.133 -1.022,-0.511 -1.623,-1.111 -0.6,-0.6 -0.911,-1.401 -0.911,-2.423l0 -10.734c0,-1.067 0.267,-1.845 0.8,-2.312 0.533,-0.467 1,-0.8 1.4,-1.022l5.201 -2.201 88.145 -35.204c0.133,0 0.356,-0.045 0.689,-0.112 0.334,-0.066 0.622,-0.088 0.844,-0.088 1.334,0 2.001,0.978 2.001,2.934l0 13.135c0,0.977 -0.2,1.733 -0.6,2.267 -0.4,0.533 -1.022,0.977 -1.867,1.333l-3.067 1.2c-2.134,0.845 -4.268,1.689 -6.401,2.534 -2.134,0.844 -4.289,1.667 -6.468,2.467l0 41.139c3.112,1.155 6.045,2.267 8.779,3.356 2.734,1.089 5.112,2.022 7.157,2.778 1.645,0.622 2.467,1.778 2.467,3.467l0 13.335c0,0.844 -0.155,1.511 -0.467,2.023 -0.311,0.511 -0.777,0.778 -1.4,0.778 -0.267,0 -0.467,-0.023 -0.6,-0.067zm-71.21 -46.406c6.135,2.4 12.491,4.778 19.069,7.156 6.579,2.379 12.913,4.778 19.003,7.179l0 -28.404 -38.072 14.069z"/>
  <path id="2" class="fil1" d="M1116.997 1404.283c-0.845,0 -1.556,-0.266 -2.134,-0.778 -0.578,-0.511 -0.867,-1.222 -0.867,-2.156l0 -15.335c0,-0.622 0.156,-1.2 0.445,-1.756 0.288,-0.555 0.733,-1.067 1.355,-1.512 10.846,-7.578 21.626,-15.112 32.338,-22.558 10.69,-7.468 21.47,-15.002 32.315,-22.581l-63.919 0c-0.8,-0.133 -1.423,-0.466 -1.867,-0.999 -0.444,-0.534 -0.667,-1.179 -0.667,-1.934l0 -12.868c0,-0.89 0.267,-1.667 0.8,-2.312 0.533,-0.644 1.245,-0.956 2.134,-0.956l93.412 0c1.822,0 2.734,1.045 2.734,3.134l0 14.446c0,0.978 -0.6,1.889 -1.801,2.734 -11.334,7.823 -22.669,15.602 -34.004,23.359 -11.312,7.734 -22.669,15.49 -34.049,23.269l66.92 0c0.978,0 1.712,0.222 2.2,0.689 0.489,0.467 0.734,1.267 0.734,2.379l0 12.801c0,1.023 -0.245,1.756 -0.756,2.223 -0.511,0.467 -1.222,0.711 -2.111,0.711l-93.212 0z"/>
  <path id="3" class="fil1" d="M1163.625 1212.057c4.645,0 9.068,0.6 13.313,1.801 4.267,1.2 8.223,2.889 11.89,5.067 3.667,2.178 6.979,4.8 9.979,7.845 2.978,3.045 5.512,6.445 7.623,10.179 2.112,3.734 3.757,7.757 4.912,12.046 1.156,4.29 1.734,8.779 1.734,13.447l0 32.026c0,0.8 -0.178,1.511 -0.534,2.134 -0.355,0.622 -1.11,0.933 -2.267,0.933l-93.145 0c-2.089,0 -3.134,-1.022 -3.134,-3.067l0 -32.026c0,-7.068 1.289,-13.669 3.845,-19.781 2.556,-6.134 6.068,-11.446 10.535,-15.98 4.467,-4.556 9.712,-8.112 15.735,-10.712 6.046,-2.601 12.535,-3.912 19.514,-3.912zm-31.36 66.142l62.541 0 0 -6.312c0,-3.333 -0.066,-6.645 -0.2,-9.979 -0.132,-4.378 -1.044,-8.446 -2.711,-12.157 -1.667,-3.734 -3.911,-6.956 -6.712,-9.69 -2.8,-2.712 -6.089,-4.845 -9.846,-6.379 -3.778,-1.533 -7.823,-2.289 -12.134,-2.289 -4.579,0 -8.78,0.823 -12.602,2.489 -3.801,1.667 -7.068,3.934 -9.779,6.824 -2.711,2.866 -4.823,6.245 -6.312,10.112 -1.489,3.845 -2.245,7.956 -2.245,12.291l0 15.09z"/>
  <path id="4" class="fil1" d="M1163.625 1067.238c4.645,0 9.068,0.601 13.313,1.801 4.267,1.2 8.223,2.889 11.89,5.067 3.667,2.178 6.979,4.8 9.979,7.846 2.978,3.044 5.512,6.444 7.623,10.179 2.112,3.733 3.757,7.756 4.912,12.046 1.156,4.289 1.734,8.778 1.734,13.446l0 32.026c0,0.801 -0.178,1.511 -0.534,2.134 -0.355,0.622 -1.11,0.933 -2.267,0.933l-93.145 0c-2.089,0 -3.134,-1.022 -3.134,-3.067l0 -32.026c0,-7.068 1.289,-13.668 3.845,-19.78 2.556,-6.135 6.068,-11.446 10.535,-15.981 4.467,-4.555 9.712,-8.112 15.735,-10.712 6.046,-2.601 12.535,-3.912 19.514,-3.912zm-31.36 66.142l62.541 0 0 -6.312c0,-3.333 -0.066,-6.645 -0.2,-9.979 -0.132,-4.378 -1.044,-8.445 -2.711,-12.157 -1.667,-3.733 -3.911,-6.956 -6.712,-9.69 -2.8,-2.711 -6.089,-4.845 -9.846,-6.379 -3.778,-1.533 -7.823,-2.289 -12.134,-2.289 -4.579,0 -8.78,0.823 -12.602,2.489 -3.801,1.667 -7.068,3.934 -9.779,6.824 -2.711,2.866 -4.823,6.245 -6.312,10.112 -1.489,3.845 -2.245,7.956 -2.245,12.291l0 15.09z"/>
  <path id="5" class="fil1" d="M1117.197 1049.169c-2.134,0 -3.201,-0.978 -3.201,-2.933l0 -64.342c0,-1.156 0.333,-1.978 0.978,-2.467 0.644,-0.489 1.444,-0.734 2.445,-0.734l11.779 0c0.8,0 1.512,0.267 2.134,0.823 0.622,0.555 0.933,1.4 0.933,2.511l0 47.406 20.269 0 0 -36.538c-0.088,-0.889 0.112,-1.6 0.579,-2.134 0.466,-0.533 1.244,-0.8 2.355,-0.8l12.135 0c0.8,0 1.512,0.223 2.134,0.667 0.622,0.445 0.933,1.156 0.933,2.134l0 36.671 24.136 0 0 -49.139c0,-1.245 0.267,-2.067 0.801,-2.468 0.533,-0.4 1.356,-0.6 2.489,-0.6l12.179 0c1.867,0 2.801,0.979 2.801,2.934l0 66.076c0,0.8 -0.222,1.489 -0.667,2.067 -0.445,0.577 -1.156,0.866 -2.134,0.866l-93.078 0z"/>
  <path id="6" class="fil1" d="M1140.4 904.884c0,0.578 -0.134,1.111 -0.422,1.6 -0.29,0.489 -0.69,1.044 -1.179,1.667l-0.066 0.133c-0.845,0.845 -1.778,1.933 -2.801,3.267 -1.022,1.334 -1.978,2.823 -2.867,4.468 -0.888,1.644 -1.645,3.4 -2.267,5.289 -0.622,1.889 -0.933,3.823 -0.933,5.779 0,2.489 0.289,4.689 0.845,6.6 0.555,1.912 1.311,3.512 2.266,4.801 0.956,1.289 2.067,2.267 3.356,2.934 1.312,0.667 2.689,1 4.156,1 1.601,0 3.001,-0.489 4.201,-1.489 1.2,-1 2.267,-2.356 3.2,-4.068 0.934,-1.711 1.801,-3.666 2.578,-5.889 0.778,-2.222 1.557,-4.556 2.312,-7.001 0.844,-2.8 1.756,-5.578 2.733,-8.312 0.979,-2.756 2.09,-5.401 3.312,-7.912 1.223,-2.489 2.578,-4.845 4.067,-7.024 1.489,-2.177 3.201,-4.045 5.134,-5.622 1.934,-1.579 4.09,-2.823 6.49,-3.734 2.378,-0.911 5.067,-1.356 8.045,-1.356 4.845,0 9.224,0.978 13.158,2.934 3.912,1.956 7.268,4.645 10.046,8.09 2.778,3.445 4.911,7.489 6.4,12.134 1.49,4.645 2.246,9.647 2.246,14.98 0,3.423 -0.401,6.823 -1.201,10.202 -0.8,3.378 -1.934,6.623 -3.401,9.734 -1.466,3.112 -3.222,6.046 -5.289,8.824 -2.067,2.778 -4.401,5.267 -6.979,7.445l0.067 0 -0.267 0.134c-1.111,0.978 -2.133,1.467 -3.066,1.467 -0.49,0 -0.957,-0.134 -1.401,-0.401 -0.444,-0.266 -0.933,-0.666 -1.467,-1.2l-2.2 -2.2c-0.578,-0.667 -1.222,-1.378 -1.934,-2.133 -0.711,-0.757 -1.356,-1.512 -1.933,-2.268 -0.578,-0.755 -1.067,-1.467 -1.467,-2.111 -0.4,-0.645 -0.6,-1.156 -0.6,-1.556 0,-0.622 0.2,-1.2 0.6,-1.733 0.4,-0.534 0.778,-0.978 1.134,-1.334l0.266 -0.267 0 0.067c1.467,-1.556 2.867,-3.311 4.201,-5.245 1.333,-1.934 2.534,-3.912 3.578,-5.957 1.045,-2.044 1.867,-4.089 2.467,-6.111 0.6,-2.023 0.889,-3.912 0.889,-5.69 0,-2.444 -0.311,-4.734 -0.934,-6.867 -0.622,-2.134 -1.511,-3.979 -2.644,-5.534 -1.134,-1.556 -2.49,-2.779 -4.112,-3.668 -1.6,-0.889 -3.378,-1.333 -5.334,-1.333 -1.955,0 -3.645,0.578 -5.045,1.733 -1.4,1.156 -2.622,2.668 -3.667,4.534 -1.045,1.867 -1.956,3.956 -2.712,6.29 -0.755,2.334 -1.467,4.69 -2.133,7.046 -1.645,5.422 -3.423,10.156 -5.334,14.223 -1.912,4.068 -4.068,7.468 -6.446,10.179 -2.378,2.712 -5.067,4.735 -8.023,6.09 -2.956,1.356 -6.29,2.045 -9.979,2.045 -4.134,0 -7.912,-0.844 -11.313,-2.511 -3.422,-1.667 -6.334,-4.045 -8.756,-7.113 -2.423,-3.089 -4.312,-6.778 -5.668,-11.112 -1.355,-4.312 -2.044,-9.135 -2.044,-14.469 0,-4.045 0.644,-8.156 1.911,-12.334 1.267,-4.179 3.001,-8.046 5.223,-11.602 0.667,-1.067 1.422,-2.156 2.267,-3.267 0.844,-1.112 1.711,-2.134 2.578,-3.067 0.867,-0.934 1.711,-1.711 2.533,-2.312 0.823,-0.6 1.512,-0.888 2.089,-0.888 0.534,0 1.09,0.133 1.646,0.4 0.555,0.266 1.044,0.599 1.489,0.999l2.133 2.001 -0.066 0c0.71,0.666 1.444,1.355 2.199,2.067 0.757,0.711 1.445,1.422 2.046,2.134 0.6,0.71 1.088,1.355 1.489,1.933 0.4,0.578 0.6,1.067 0.6,1.467z"/>
  <path id="7" class="fil1" d="M1121.219 798.737c0.311,-0.534 0.711,-0.979 1.156,-1.334 0.445,-0.356 0.978,-0.533 1.6,-0.533 0.489,0 1.001,0.133 1.533,0.4l11.024 6.467c1.023,0.756 1.534,1.556 1.534,2.401 0,0.266 -0.045,0.577 -0.155,0.933 -0.112,0.356 -0.289,0.711 -0.512,1.066 -2,2.801 -3.556,5.801 -4.667,9.002 -1.112,3.201 -1.667,6.601 -1.667,10.201 0,4.534 0.845,8.69 2.556,12.468 1.711,3.779 4.045,7.046 6.979,9.802 2.911,2.756 6.356,4.889 10.312,6.423 3.956,1.533 8.201,2.311 12.713,2.311 4.49,0 8.712,-0.778 12.624,-2.311 3.934,-1.534 7.378,-3.667 10.29,-6.423 2.934,-2.756 5.245,-6.023 6.935,-9.802 1.689,-3.778 2.533,-7.934 2.533,-12.468 0,-3.6 -0.556,-7.045 -1.667,-10.313 -1.111,-3.266 -2.667,-6.267 -4.667,-9.023 -0.267,-0.355 -0.444,-0.733 -0.534,-1.111 -0.088,-0.378 -0.155,-0.689 -0.2,-0.955 0,-0.757 0.49,-1.534 1.467,-2.334l11.157 -6.601c0.534,-0.267 1.023,-0.4 1.467,-0.4 0.622,0 1.134,0.177 1.533,0.555 0.4,0.378 0.8,0.823 1.157,1.312 2.8,4.178 4.978,8.667 6.511,13.49 1.534,4.823 2.312,9.912 2.312,15.247 0,4.712 -0.6,9.223 -1.801,13.557 -1.2,4.334 -2.911,8.401 -5.133,12.179 -2.223,3.779 -4.89,7.224 -7.979,10.313 -3.09,3.112 -6.513,5.778 -10.268,8.001 -3.756,2.222 -7.801,3.956 -12.157,5.156 -4.335,1.201 -8.846,1.801 -13.58,1.801 -4.712,0 -9.223,-0.6 -13.557,-1.801 -4.334,-1.2 -8.424,-2.934 -12.224,-5.156 -3.801,-2.223 -7.246,-4.889 -10.379,-8.001 -3.112,-3.089 -5.757,-6.534 -7.957,-10.313 -2.2,-3.778 -3.912,-7.845 -5.134,-12.179 -1.222,-4.334 -1.844,-8.845 -1.844,-13.557 0,-5.29 0.755,-10.313 2.244,-15.069 1.489,-4.756 3.645,-9.223 6.445,-13.401z"/>
  <path id="8" class="fil1" d="M1117.13 778.867c-2.089,0 -3.134,-0.978 -3.134,-2.933l0 -40.85c0,-4.49 0.845,-8.69 2.534,-12.602 1.689,-3.912 3.978,-7.335 6.867,-10.246 2.89,-2.911 6.29,-5.2 10.224,-6.867 3.911,-1.667 8.068,-2.512 12.468,-2.512 3.067,0 6.001,0.422 8.801,1.267 2.801,0.845 5.401,2.023 7.823,3.534 2.401,1.511 4.557,3.311 6.49,5.4 1.934,2.089 3.579,4.401 4.912,6.935l34.227 -17.402c0.444,-0.09 0.889,-0.245 1.333,-0.467 0.445,-0.222 0.912,-0.333 1.4,-0.333 1.334,0 2.001,0.777 2.001,2.333l0 15.535c0,1.6 -0.822,2.667 -2.467,3.201l-32.071 16.202c0,0.711 0.022,1.467 0.067,2.289 0.044,0.844 0.067,1.978 0.067,3.423 0,1.444 0,3.356 0,5.689 0,2.334 0,5.357 0,9.068l31.537 0c1.911,0 2.867,1.023 2.867,3.068l0 13.335c0,0.889 -0.222,1.6 -0.689,2.133 -0.467,0.533 -1.2,0.8 -2.178,0.8l-93.079 0zm29.026 -56.274c-1.889,0 -3.756,0.356 -5.534,1.067 -1.801,0.711 -3.423,1.711 -4.823,3.023 -1.423,1.289 -2.578,2.822 -3.467,4.6 -0.889,1.8 -1.4,3.734 -1.534,5.823 -0.044,1.578 -0.066,3.09 -0.088,4.601 -0.023,1.489 -0.045,3.044 -0.045,4.645l0 13.179 30.937 0 0 -17.669c0,-0.889 0,-1.733 0,-2.511 0,-0.778 -0.044,-1.623 -0.133,-2.511 -0.133,-2.089 -0.622,-4.023 -1.467,-5.779 -0.844,-1.756 -1.956,-3.267 -3.356,-4.512 -1.4,-1.267 -3,-2.222 -4.8,-2.911 -1.778,-0.689 -3.69,-1.045 -5.69,-1.045z"/>
  <path id="9" class="fil1" d="M1116.93 685.988c-0.8,0 -1.489,-0.244 -2.067,-0.732 -0.578,-0.49 -0.867,-1.223 -0.867,-2.201l0 -13.268c0,-0.756 0.267,-1.467 0.8,-2.134 0.533,-0.667 1.245,-1 2.134,-1l93.212 0c1.956,0 2.934,1.045 2.934,3.134l0 13.268c0,1.956 -0.978,2.933 -2.934,2.933l-93.212 0z"/>
  <path id="10" class="fil1" d="M1117.13 645.783c-2.089,0 -3.134,-0.999 -3.134,-3l0 -37.827c0,-4.489 0.889,-8.624 2.645,-12.402 1.756,-3.778 4.089,-7.023 7.023,-9.757 2.956,-2.733 6.312,-4.845 10.112,-6.356 3.823,-1.511 7.779,-2.267 11.913,-2.267 4.067,0 7.957,0.734 11.735,2.223 3.756,1.489 7.09,3.578 10.001,6.267 2.912,2.689 5.245,5.89 7.002,9.624 1.755,3.734 2.644,7.801 2.644,12.246l0 21.914 33.138 0c1.911,0 2.867,1 2.867,3l0 13.402c0,1.956 -0.956,2.933 -2.867,2.933l-93.079 0zm28.404 -52.273c-1.845,0 -3.645,0.356 -5.423,1.067 -1.756,0.711 -3.334,1.689 -4.712,2.934 -1.356,1.244 -2.467,2.756 -3.312,4.489 -0.867,1.733 -1.289,3.622 -1.289,5.668l0 18.78 29.471 0 0 -18.78c0,-2.001 -0.4,-3.868 -1.222,-5.601 -0.801,-1.734 -1.89,-3.245 -3.245,-4.512 -1.379,-1.267 -2.934,-2.267 -4.712,-2.978 -1.778,-0.711 -3.623,-1.067 -5.556,-1.067z"/>
  <path id="11" class="fil1" d="M1116.93 564.04c-0.889,0 -1.601,-0.289 -2.134,-0.867 -0.533,-0.578 -0.8,-1.312 -0.8,-2.2l0 -70.077c0,-0.799 0.245,-1.533 0.733,-2.177 0.49,-0.645 1.223,-1.001 2.201,-1.089l11.712 0c0.912,0 1.689,0.266 2.356,0.822 0.667,0.555 1.001,1.378 1.001,2.444l0 25.337 78.01 0c0.8,0 1.511,0.267 2.133,0.822 0.622,0.557 0.934,1.334 0.934,2.312l0 13.069c0,0.8 -0.289,1.533 -0.867,2.177 -0.577,0.645 -1.311,0.956 -2.2,0.956l-78.01 0 0 25.404c0,0.888 -0.289,1.622 -0.845,2.2 -0.556,0.578 -1.378,0.867 -2.512,0.867l-11.712 0z"/>
  <path id="12" class="fil1" d="M1163.536 456.493c4.489,0 8.69,-0.8 12.602,-2.423 3.911,-1.623 7.312,-3.845 10.201,-6.668 2.89,-2.8 5.179,-6.134 6.868,-9.979 1.689,-3.823 2.533,-7.978 2.533,-12.468 0,-4.445 -0.844,-8.579 -2.533,-12.402 -1.689,-3.845 -3.978,-7.178 -6.868,-10.024 -2.889,-2.844 -6.29,-5.067 -10.201,-6.689 -3.912,-1.622 -8.113,-2.423 -12.602,-2.423 -4.445,0 -8.623,0.801 -12.535,2.423 -3.912,1.622 -7.312,3.845 -10.224,6.689 -2.911,2.846 -5.222,6.179 -6.911,10.024 -1.689,3.823 -2.534,7.957 -2.534,12.402 0,4.49 0.845,8.645 2.534,12.468 1.689,3.845 4,7.179 6.911,9.979 2.912,2.823 6.312,5.045 10.224,6.668 3.912,1.623 8.09,2.423 12.535,2.423zm0.134 19.335c-4.668,0 -9.18,-0.6 -13.536,-1.8 -4.356,-1.2 -8.423,-2.911 -12.202,-5.134 -3.778,-2.222 -7.222,-4.867 -10.334,-7.956 -3.112,-3.068 -5.756,-6.512 -7.957,-10.291 -2.2,-3.756 -3.911,-7.823 -5.134,-12.135 -1.222,-4.334 -1.844,-8.845 -1.844,-13.557 0,-4.668 0.622,-9.157 1.844,-13.491 1.223,-4.312 2.934,-8.378 5.134,-12.135 2.201,-3.778 4.845,-7.223 7.957,-10.335 3.112,-3.111 6.556,-5.756 10.334,-7.956 3.779,-2.201 7.846,-3.912 12.202,-5.134 4.356,-1.222 8.891,-1.822 13.602,-1.822 4.712,0 9.224,0.6 13.535,1.822 4.312,1.222 8.357,2.933 12.135,5.134 3.778,2.2 7.224,4.845 10.312,7.956 3.09,3.112 5.735,6.557 7.935,10.335 2.2,3.757 3.889,7.823 5.089,12.135 1.201,4.334 1.801,8.846 1.801,13.558 0,4.711 -0.6,9.223 -1.801,13.557 -1.2,4.311 -2.911,8.379 -5.133,12.135 -2.223,3.778 -4.868,7.223 -7.957,10.29 -3.089,3.09 -6.512,5.734 -10.268,7.935 -3.756,2.2 -7.801,3.889 -12.135,5.089 -4.334,1.2 -8.868,1.8 -13.579,1.8z"/>
  <path id="13" class="fil1" d="M1117.13 356.546c-2.089,0 -3.134,-0.978 -3.134,-2.933l0 -40.85c0,-4.49 0.845,-8.69 2.534,-12.602 1.689,-3.912 3.978,-7.335 6.867,-10.246 2.89,-2.911 6.29,-5.2 10.224,-6.867 3.911,-1.668 8.068,-2.512 12.468,-2.512 3.067,0 6.001,0.422 8.801,1.267 2.801,0.844 5.401,2.023 7.823,3.534 2.401,1.511 4.557,3.311 6.49,5.4 1.934,2.089 3.579,4.401 4.912,6.934l34.227 -17.401c0.444,-0.09 0.889,-0.245 1.333,-0.467 0.445,-0.222 0.912,-0.334 1.4,-0.334 1.334,0 2.001,0.778 2.001,2.334l0 15.535c0,1.6 -0.822,2.667 -2.467,3.201l-32.071 16.202c0,0.711 0.022,1.467 0.067,2.289 0.044,0.844 0.067,1.978 0.067,3.423 0,1.444 0,3.356 0,5.689 0,2.334 0,5.357 0,9.068l31.537 0c1.911,0 2.867,1.022 2.867,3.068l0 13.335c0,0.888 -0.222,1.6 -0.689,2.133 -0.467,0.533 -1.2,0.8 -2.178,0.8l-93.079 0zm29.026 -56.274c-1.889,0 -3.756,0.355 -5.534,1.067 -1.801,0.711 -3.423,1.711 -4.823,3.023 -1.423,1.289 -2.578,2.822 -3.467,4.6 -0.889,1.8 -1.4,3.734 -1.534,5.823 -0.044,1.578 -0.066,3.09 -0.088,4.601 -0.023,1.489 -0.045,3.044 -0.045,4.645l0 13.179 30.937 0 0 -17.669c0,-0.889 0,-1.733 0,-2.511 0,-0.778 -0.044,-1.623 -0.133,-2.511 -0.133,-2.09 -0.622,-4.023 -1.467,-5.779 -0.844,-1.756 -1.956,-3.268 -3.356,-4.512 -1.4,-1.267 -3,-2.222 -4.8,-2.911 -1.778,-0.69 -3.69,-1.045 -5.69,-1.045z"/>
 </g>
</svg>
