<?xml version="1.0" encoding="UTF-8"?>
<!DOCTYPE svg PUBLIC "-//W3C//DTD SVG 1.1//EN" "http://www.w3.org/Graphics/SVG/1.1/DTD/svg11.dtd">
<!-- Creator: CorelDRAW 2020 (64-Bit) -->
<svg xmlns="http://www.w3.org/2000/svg" xml:space="preserve" width="703px" height="1000px" version="1.1" style="shape-rendering:geometricPrecision; text-rendering:geometricPrecision; image-rendering:optimizeQuality; fill-rule:evenodd; clip-rule:evenodd"
viewBox="0 0 151.916 215.921"
 xmlns:xlink="http://www.w3.org/1999/xlink"
 xmlns:xodm="http://www.corel.com/coreldraw/odm/2003">
 <defs>
  <style type="text/css">
   <![CDATA[
    .fil0 {fill:#394550}
    .fil1 {fill:#FEFEFE;fill-rule:nonzero}
   ]]>
  </style>
 </defs>
 <g id="Layer_x0020_1">
  <metadata id="CorelCorpID_0Corel-Layer"/>
  <rect class="fil0" width="151.916" height="215.921"/>
  <path class="fil1" d="M33.701 53.219c-0.315,0.548 -0.75,0.825 -1.298,0.825l-4.707 0c-0.555,0 -0.882,-0.277 -0.99,-0.825l-4.486 -26.409c-0.025,-0.246 0.025,-0.453 0.145,-0.611 0.126,-0.157 0.321,-0.233 0.586,-0.233l5.961 0c0.542,0 0.851,0.283 0.926,0.844l2.325 16.365 8.702 -16.365c0.145,-0.277 0.334,-0.485 0.561,-0.63 0.233,-0.145 0.492,-0.214 0.781,-0.214l6.396 0c0.158,0 0.277,0.031 0.359,0.107 0.076,0.069 0.114,0.164 0.114,0.284 0,0.119 -0.044,0.271 -0.133,0.453l-5.671 9.868 1.097 7.265 10.126 -17.133c0.328,-0.561 0.775,-0.844 1.336,-0.844l6.188 0c0.157,0 0.277,0.031 0.371,0.094 0.089,0.07 0.139,0.158 0.139,0.278 0,0.132 -0.063,0.29 -0.177,0.472l-16.187 26.409c-0.328,0.548 -0.769,0.825 -1.324,0.825l-4.625 0c-0.561,0 -0.901,-0.277 -1.002,-0.825l-1.298 -7.285 -4.215 7.285z"/>
  <path id="1" class="fil1" d="M65.913 26.81c0.05,-0.22 0.17,-0.422 0.346,-0.592 0.177,-0.17 0.397,-0.252 0.662,-0.252l12.149 0c1.518,0 2.848,0.353 3.976,1.065 1.128,0.706 1.997,1.651 2.596,2.835 0.605,1.179 0.907,2.47 0.907,3.876 0,0.592 -0.044,1.14 -0.138,1.657 -0.303,1.733 -1.021,3.264 -2.155,4.606 -1.135,1.336 -2.502,2.382 -4.102,3.132l3.264 10.082c0.025,0.101 0.044,0.176 0.044,0.214 0,0.17 -0.063,0.315 -0.183,0.435 -0.114,0.119 -0.277,0.176 -0.492,0.176l-6.219 0c-0.265,0 -0.454,-0.05 -0.561,-0.157 -0.113,-0.108 -0.214,-0.315 -0.308,-0.63l-2.66 -8.545 -3.642 0 -1.808 8.507c-0.12,0.548 -0.448,0.825 -0.989,0.825l-5.646 0c-0.46,0 -0.693,-0.183 -0.693,-0.548 0,-0.057 0.012,-0.145 0.044,-0.277l5.608 -26.409zm4.789 11.853l4.385 0c0.643,0 1.254,-0.158 1.834,-0.479 0.58,-0.321 1.065,-0.744 1.468,-1.273 0.397,-0.523 0.662,-1.077 0.775,-1.651 0.057,-0.227 0.082,-0.479 0.082,-0.769 0,-0.749 -0.22,-1.379 -0.662,-1.902 -0.441,-0.517 -1.058,-0.776 -1.858,-0.776l-4.588 0 -1.436 6.85z"/>
  <path id="2" class="fil1" d="M24.797 72.179c0.12,-0.561 0.46,-0.844 1.027,-0.844l5.653 0c0.441,0 0.667,0.189 0.667,0.567 0,0.057 -0.012,0.145 -0.037,0.277l-5.615 26.409c-0.119,0.548 -0.447,0.825 -0.983,0.825l-5.652 0c-0.473,0 -0.712,-0.189 -0.712,-0.573 0,-0.038 0.013,-0.12 0.044,-0.252l5.608 -26.409z"/>
  <path id="3" class="fil1" d="M36.694 72.179c0.12,-0.561 0.46,-0.844 1.027,-0.844l20.517 0c0.447,0 0.668,0.189 0.668,0.567 0,0.057 -0.013,0.145 -0.038,0.277l-1.002 4.783c-0.12,0.567 -0.454,0.85 -1.008,0.85l-6.711 0 -4.43 20.776c-0.119,0.548 -0.453,0.825 -1.008,0.825l-5.45 0c-0.473,0 -0.712,-0.189 -0.712,-0.573 0,-0.038 0.012,-0.12 0.037,-0.252l4.43 -20.776 -6.673 0c-0.46,0 -0.687,-0.189 -0.687,-0.573 0,-0.05 0.013,-0.145 0.038,-0.277l1.002 -4.783z"/>
  <path id="4" class="fil1" d="M63.455 72.179c0.12,-0.561 0.46,-0.844 1.027,-0.844l5.653 0c0.441,0 0.668,0.189 0.668,0.567 0,0.057 -0.013,0.145 -0.038,0.277l-5.615 26.409c-0.119,0.548 -0.447,0.825 -0.983,0.825l-5.652 0c-0.473,0 -0.712,-0.189 -0.712,-0.573 0,-0.038 0.013,-0.12 0.044,-0.252l5.608 -26.409z"/>
  <path id="5" class="fil1" d="M26.215 143.956c-0.113,0.549 -0.479,0.826 -1.084,0.826l-5.274 0c-0.473,0 -0.712,-0.189 -0.712,-0.574 0,-0.037 0.013,-0.119 0.044,-0.252l5.608 -26.408c0.057,-0.233 0.17,-0.435 0.359,-0.599 0.183,-0.164 0.404,-0.245 0.668,-0.245l5.728 0c0.523,0 0.908,0.283 1.141,0.844l6.477 15.911 3.39 -15.911c0.051,-0.233 0.171,-0.435 0.353,-0.599 0.183,-0.164 0.416,-0.245 0.693,-0.245l5.256 0c0.182,0 0.352,0.063 0.51,0.195 0.157,0.132 0.239,0.29 0.239,0.472 0,0.076 -0.006,0.139 -0.018,0.177l-5.615 26.408c-0.12,0.549 -0.479,0.826 -1.084,0.826l-5.532 0c-0.58,0 -0.977,-0.277 -1.204,-0.826l-6.458 -16.364 -3.485 16.364z"/>
  <path id="6" class="fil1" d="M64.022 138.203c0.945,0 1.859,-0.126 2.735,-0.371l1.065 -5.004c0.107,-0.548 0.435,-0.825 0.983,-0.825l5.28 0c0.183,0 0.347,0.044 0.479,0.126 0.139,0.088 0.208,0.233 0.208,0.441 0,0.044 -0.012,0.126 -0.038,0.258l-1.947 9.137c-0.044,0.195 -0.113,0.366 -0.208,0.511 -0.1,0.144 -0.245,0.271 -0.441,0.378 -2.709,1.55 -5.721,2.325 -9.042,2.325 -2.294,0 -4.36,-0.523 -6.181,-1.557 -1.828,-1.039 -3.252,-2.489 -4.285,-4.341 -1.027,-1.859 -1.544,-3.964 -1.544,-6.314 0,-0.75 0.057,-1.519 0.176,-2.306 0.378,-2.766 1.387,-5.243 3.025,-7.429 1.632,-2.187 3.686,-3.888 6.15,-5.111 2.47,-1.222 5.116,-1.833 7.94,-1.833 1.625,0 3.056,0.252 4.291,0.75 1.235,0.497 2.4,1.228 3.503,2.186 0.183,0.158 0.277,0.321 0.277,0.492 0,0.17 -0.094,0.359 -0.277,0.567l-3.661 4.215c-0.208,0.227 -0.435,0.334 -0.668,0.334 -0.189,0 -0.353,-0.063 -0.498,-0.195 -0.51,-0.448 -1.102,-0.794 -1.77,-1.053 -0.668,-0.258 -1.405,-0.384 -2.206,-0.384 -1.43,0 -2.76,0.328 -3.995,0.983 -1.235,0.655 -2.268,1.556 -3.1,2.691 -0.838,1.134 -1.405,2.4 -1.708,3.787 -0.126,0.661 -0.195,1.241 -0.195,1.758 0,1.102 0.233,2.085 0.693,2.961 0.454,0.87 1.116,1.563 1.966,2.067 0.851,0.504 1.853,0.756 2.993,0.756z"/>
  <path id="7" class="fil1" d="M23.222 162.917c0.12,-0.561 0.46,-0.845 1.027,-0.845l20.517 0c0.447,0 0.668,0.189 0.668,0.567 0,0.057 -0.013,0.145 -0.038,0.278l-1.002 4.782c-0.12,0.567 -0.454,0.851 -1.008,0.851l-6.711 0 -4.43 20.775c-0.119,0.548 -0.453,0.826 -1.008,0.826l-5.45 0c-0.473,0 -0.713,-0.189 -0.713,-0.574 0,-0.038 0.013,-0.12 0.038,-0.252l4.43 -20.775 -6.673 0c-0.46,0 -0.687,-0.189 -0.687,-0.573 0,-0.051 0.013,-0.145 0.038,-0.278l1.002 -4.782z"/>
  <path id="8" class="fil1" d="M58.295 162.072c0.315,0 0.472,0.126 0.472,0.372 0,0.038 -0.019,0.158 -0.057,0.353l-5.652 26.528c-0.094,0.548 -0.441,0.826 -1.046,0.826l-5.356 0c-0.472,0 -0.706,-0.183 -0.706,-0.549 0,-0.107 0.007,-0.189 0.019,-0.239l4.43 -20.813 -3.39 1.355c-0.126,0.044 -0.233,0.063 -0.315,0.063 -0.17,0 -0.233,-0.107 -0.195,-0.315l0.983 -4.669c0.069,-0.278 0.138,-0.479 0.22,-0.618 0.076,-0.139 0.233,-0.252 0.473,-0.347l2.949 -1.38c0.844,-0.378 1.569,-0.567 2.186,-0.567l4.985 0z"/>
  <path class="fil1" d="M122.935 183.758c-0.369,0 -0.554,-0.169 -0.554,-0.507l0 -11.127c0,-0.199 0.058,-0.342 0.169,-0.426 0.112,-0.085 0.25,-0.127 0.423,-0.127l2.037 0c0.139,0 0.262,0.046 0.369,0.142 0.108,0.096 0.162,0.242 0.162,0.434l0 8.198 3.505 0 0 -6.318c-0.016,-0.154 0.019,-0.277 0.1,-0.369 0.08,-0.092 0.215,-0.138 0.407,-0.138l2.099 0c0.138,0 0.261,0.038 0.369,0.115 0.107,0.077 0.161,0.2 0.161,0.369l0 6.341 4.174 0 0 -8.497c0,-0.216 0.046,-0.358 0.138,-0.427 0.092,-0.069 0.235,-0.104 0.431,-0.104l2.106 0c0.323,0 0.484,0.169 0.484,0.508l0 11.426c0,0.138 -0.038,0.257 -0.115,0.357 -0.077,0.1 -0.2,0.15 -0.369,0.15l-16.096 0z"/>
  <path id="1" class="fil1" d="M139.181 163.488c-0.162,0.085 -0.327,0.162 -0.492,0.231 -0.165,0.069 -0.335,0.138 -0.511,0.207l-15.174 6.054c-0.023,0 -0.054,0.004 -0.096,0.015 -0.042,0.012 -0.096,0.019 -0.158,0.019 -0.246,0 -0.369,-0.157 -0.369,-0.472l0 -2.468c0,-0.292 0.146,-0.492 0.438,-0.599 0.485,-0.169 1.054,-0.377 1.703,-0.619 0.65,-0.242 1.338,-0.5 2.064,-0.773 0.726,-0.273 1.472,-0.553 2.233,-0.841 0.761,-0.289 1.499,-0.569 2.218,-0.842 0.715,-0.273 1.383,-0.527 2.01,-0.761 0.63,-0.235 1.164,-0.431 1.61,-0.592 -0.446,-0.169 -0.98,-0.369 -1.61,-0.6 -0.627,-0.23 -1.295,-0.48 -2.01,-0.745 -0.719,-0.265 -1.457,-0.538 -2.218,-0.823 -0.761,-0.284 -1.507,-0.561 -2.233,-0.83 -0.726,-0.269 -1.414,-0.526 -2.064,-0.769 -0.649,-0.242 -1.218,-0.449 -1.703,-0.626 -0.292,-0.108 -0.438,-0.315 -0.438,-0.623l0 -2.421c0,-0.346 0.127,-0.519 0.381,-0.519 0.054,0 0.104,0.004 0.15,0.016 0.046,0.011 0.077,0.019 0.092,0.019l15.174 6.042c0.153,0.061 0.307,0.123 0.465,0.184 0.157,0.062 0.311,0.131 0.457,0.208 0.2,0.107 0.319,0.249 0.357,0.426 0.039,0.177 0.058,0.388 0.058,0.634l0 1.326c0,0.177 -0.034,0.3 -0.104,0.373 -0.069,0.073 -0.146,0.131 -0.23,0.169z"/>
  <path id="2" class="fil1" d="M139.088 152.973c-0.153,-0.039 -0.295,-0.085 -0.426,-0.135 -0.131,-0.05 -0.25,-0.092 -0.358,-0.13l-15.485 -6.215c-0.084,-0.023 -0.176,-0.089 -0.28,-0.192 -0.104,-0.104 -0.158,-0.242 -0.158,-0.419l0 -1.857c0,-0.184 0.046,-0.319 0.139,-0.399 0.092,-0.081 0.173,-0.139 0.242,-0.177l0.899 -0.381 15.243 -6.088c0.023,0 0.062,-0.007 0.119,-0.019 0.058,-0.011 0.108,-0.015 0.146,-0.015 0.231,0 0.346,0.169 0.346,0.507l0 2.272c0,0.169 -0.034,0.299 -0.104,0.392 -0.069,0.092 -0.176,0.169 -0.323,0.23l-0.53 0.208c-0.369,0.146 -0.738,0.292 -1.107,0.438 -0.369,0.146 -0.742,0.288 -1.118,0.427l0 7.114c0.538,0.2 1.045,0.392 1.518,0.58 0.473,0.188 0.884,0.35 1.237,0.48 0.285,0.108 0.427,0.308 0.427,0.6l0 2.306c0,0.146 -0.027,0.261 -0.081,0.35 -0.053,0.088 -0.134,0.134 -0.242,0.134 -0.046,0 -0.08,-0.004 -0.104,-0.011zm-12.314 -8.025c1.061,0.415 2.16,0.826 3.298,1.237 1.138,0.412 2.233,0.827 3.286,1.242l0 -4.912 -6.584 2.433z"/>
  <path id="3" class="fil1" d="M122.889 134.467c-0.139,0 -0.258,-0.046 -0.358,-0.138 -0.1,-0.093 -0.15,-0.223 -0.15,-0.392l0 -2.295c0,-0.138 0.046,-0.261 0.135,-0.365 0.088,-0.104 0.211,-0.154 0.373,-0.154l13.467 0 0 -7.218c0,-0.138 0.05,-0.257 0.146,-0.357 0.096,-0.1 0.223,-0.15 0.384,-0.15l2.11 0c0.139,0 0.262,0.046 0.365,0.138 0.104,0.093 0.154,0.216 0.154,0.369l0 10.055c0,0.338 -0.169,0.507 -0.507,0.507l-16.119 0z"/>
  <path id="4" class="fil1" d="M132.551 117.898c0.646,0 1.226,-0.092 1.741,-0.277 0.515,-0.184 0.953,-0.445 1.311,-0.78 0.357,-0.338 0.63,-0.738 0.818,-1.203 0.189,-0.469 0.281,-0.988 0.281,-1.556 0,-0.6 -0.1,-1.142 -0.3,-1.618 -0.2,-0.481 -0.48,-0.881 -0.846,-1.211 -0.365,-0.327 -0.803,-0.577 -1.314,-0.75 -0.511,-0.173 -1.076,-0.261 -1.691,-0.261l-9.662 0c-0.139,0 -0.258,-0.05 -0.358,-0.15 -0.1,-0.1 -0.15,-0.227 -0.15,-0.38l0 -2.237c0,-0.162 0.05,-0.3 0.15,-0.411 0.1,-0.112 0.219,-0.166 0.358,-0.166l9.796 0c1.192,0 2.233,0.193 3.121,0.577 0.888,0.384 1.63,0.903 2.222,1.556 0.592,0.654 1.034,1.415 1.326,2.283 0.292,0.869 0.438,1.788 0.438,2.756 0,0.969 -0.158,1.887 -0.469,2.756 -0.311,0.868 -0.765,1.629 -1.364,2.283 -0.6,0.653 -1.346,1.172 -2.23,1.556 -0.884,0.385 -1.898,0.577 -3.044,0.577l-9.796 0c-0.123,0 -0.239,-0.042 -0.346,-0.131 -0.108,-0.088 -0.162,-0.2 -0.162,-0.338l0 -2.337c0,-0.115 0.05,-0.234 0.15,-0.353 0.1,-0.123 0.219,-0.185 0.358,-0.185l9.662 0z"/>
  <path id="5" class="fil1" d="M139.088 104.65c-0.153,-0.038 -0.295,-0.085 -0.426,-0.135 -0.131,-0.05 -0.25,-0.092 -0.358,-0.13l-15.485 -6.215c-0.084,-0.023 -0.176,-0.088 -0.28,-0.192 -0.104,-0.104 -0.158,-0.242 -0.158,-0.419l0 -1.856c0,-0.185 0.046,-0.319 0.139,-0.4 0.092,-0.081 0.173,-0.138 0.242,-0.177l0.899 -0.38 15.243 -6.088c0.023,0 0.062,-0.008 0.119,-0.02 0.058,-0.011 0.108,-0.015 0.146,-0.015 0.231,0 0.346,0.169 0.346,0.507l0 2.272c0,0.169 -0.034,0.3 -0.104,0.392 -0.069,0.092 -0.176,0.169 -0.323,0.231l-0.53 0.207c-0.369,0.146 -0.738,0.292 -1.107,0.438 -0.369,0.146 -0.742,0.288 -1.118,0.427l0 7.114c0.538,0.2 1.045,0.392 1.518,0.58 0.473,0.189 0.884,0.35 1.237,0.481 0.285,0.107 0.427,0.307 0.427,0.599l0 2.306c0,0.146 -0.027,0.262 -0.081,0.35 -0.053,0.088 -0.134,0.135 -0.242,0.135 -0.046,0 -0.08,-0.004 -0.104,-0.012zm-12.314 -8.025c1.061,0.415 2.16,0.826 3.298,1.238 1.138,0.411 2.233,0.826 3.286,1.241l0 -4.912 -6.584 2.433z"/>
  <path id="6" class="fil1" d="M122.889 88.773c-0.154,0 -0.277,-0.05 -0.369,-0.15 -0.093,-0.1 -0.139,-0.227 -0.139,-0.38l0 -12.119c0,-0.138 0.043,-0.265 0.127,-0.376 0.085,-0.112 0.212,-0.173 0.381,-0.189l2.025 0c0.158,0 0.292,0.047 0.407,0.143 0.116,0.096 0.173,0.238 0.173,0.422l0 4.382 13.491 0c0.138,0 0.261,0.046 0.369,0.142 0.107,0.096 0.161,0.231 0.161,0.4l0 2.26c0,0.138 -0.05,0.265 -0.15,0.376 -0.1,0.112 -0.227,0.166 -0.38,0.166l-13.491 0 0 4.393c0,0.153 -0.049,0.28 -0.146,0.38 -0.096,0.1 -0.238,0.15 -0.434,0.15l-2.025 0z"/>
  <path id="7" class="fil1" d="M122.889 72.827c-0.139,0 -0.258,-0.042 -0.358,-0.127 -0.1,-0.085 -0.15,-0.211 -0.15,-0.38l0 -2.295c0,-0.131 0.046,-0.254 0.139,-0.369 0.092,-0.115 0.215,-0.173 0.369,-0.173l16.119 0c0.338,0 0.507,0.181 0.507,0.542l0 2.295c0,0.338 -0.169,0.507 -0.507,0.507l-16.119 0z"/>
  <path id="8" class="fil1" d="M130.948 63.084c0.777,0 1.503,-0.138 2.179,-0.419 0.677,-0.281 1.265,-0.665 1.765,-1.153 0.499,-0.484 0.895,-1.061 1.187,-1.726 0.292,-0.661 0.438,-1.38 0.438,-2.156 0,-0.769 -0.146,-1.483 -0.438,-2.144 -0.292,-0.665 -0.688,-1.242 -1.187,-1.734 -0.5,-0.492 -1.088,-0.876 -1.765,-1.157 -0.676,-0.28 -1.402,-0.419 -2.179,-0.419 -0.768,0 -1.491,0.139 -2.167,0.419 -0.677,0.281 -1.265,0.665 -1.768,1.157 -0.504,0.492 -0.904,1.069 -1.196,1.734 -0.292,0.661 -0.438,1.375 -0.438,2.144 0,0.776 0.146,1.495 0.438,2.156 0.292,0.665 0.692,1.242 1.196,1.726 0.503,0.488 1.091,0.872 1.768,1.153 0.676,0.281 1.399,0.419 2.167,0.419zm0.023 3.344c-0.807,0 -1.587,-0.104 -2.34,-0.312 -0.754,-0.207 -1.457,-0.503 -2.11,-0.888 -0.654,-0.384 -1.249,-0.841 -1.787,-1.375 -0.539,-0.531 -0.996,-1.127 -1.376,-1.78 -0.381,-0.65 -0.677,-1.353 -0.888,-2.098 -0.212,-0.75 -0.319,-1.53 -0.319,-2.345 0,-0.807 0.107,-1.583 0.319,-2.333 0.211,-0.745 0.507,-1.449 0.888,-2.098 0.38,-0.654 0.837,-1.249 1.376,-1.787 0.538,-0.539 1.133,-0.996 1.787,-1.376 0.653,-0.381 1.356,-0.677 2.11,-0.888 0.753,-0.212 1.537,-0.315 2.352,-0.315 0.815,0 1.595,0.103 2.34,0.315 0.746,0.211 1.446,0.507 2.099,0.888 0.653,0.38 1.249,0.837 1.783,1.376 0.534,0.538 0.992,1.133 1.372,1.787 0.381,0.649 0.673,1.353 0.88,2.098 0.208,0.75 0.312,1.53 0.312,2.345 0,0.814 -0.104,1.595 -0.312,2.344 -0.207,0.746 -0.503,1.449 -0.887,2.099 -0.385,0.653 -0.842,1.249 -1.376,1.779 -0.534,0.534 -1.126,0.992 -1.776,1.372 -0.649,0.381 -1.349,0.673 -2.098,0.88 -0.75,0.208 -1.534,0.312 -2.349,0.312z"/>
  <path id="9" class="fil1" d="M122.9 45.777c-0.146,0 -0.269,-0.046 -0.369,-0.134 -0.1,-0.089 -0.15,-0.212 -0.15,-0.373l0 -2.652c0,-0.108 0.027,-0.208 0.077,-0.304 0.05,-0.096 0.127,-0.184 0.235,-0.261 1.875,-1.311 3.739,-2.614 5.592,-3.901 1.848,-1.292 3.712,-2.594 5.588,-3.905l-11.054 0c-0.138,-0.023 -0.246,-0.081 -0.322,-0.173 -0.077,-0.092 -0.116,-0.204 -0.116,-0.334l0 -2.226c0,-0.153 0.046,-0.288 0.139,-0.399 0.092,-0.112 0.215,-0.166 0.369,-0.166l16.153 0c0.316,0 0.473,0.181 0.473,0.542l0 2.498c0,0.17 -0.104,0.327 -0.311,0.473 -1.96,1.353 -3.92,2.698 -5.881,4.04 -1.956,1.337 -3.92,2.678 -5.888,4.024l11.573 0c0.169,0 0.296,0.038 0.38,0.119 0.085,0.08 0.127,0.219 0.127,0.411l0 2.214c0,0.177 -0.042,0.303 -0.131,0.384 -0.088,0.081 -0.211,0.123 -0.365,0.123l-16.119 0z"/>
 </g>
</svg>
