<?xml version="1.0" encoding="UTF-8" standalone="no" ?>
<!DOCTYPE svg PUBLIC "-//W3C//DTD SVG 1.1//EN" "http://www.w3.org/Graphics/SVG/1.1/DTD/svg11.dtd">
<svg xmlns="http://www.w3.org/2000/svg" xmlns:xlink="http://www.w3.org/1999/xlink" version="1.1" width="1080" height="1080" viewBox="0 0 1080 1080" xml:space="preserve">
<desc>Created with Fabric.js 5.2.4</desc>
<defs>
</defs>
<rect x="0" y="0" width="100%" height="100%" fill="transparent"></rect>
<g transform="matrix(1 0 0 1 540 540)" id="92f5c52b-5881-4802-a583-6f31291c12d8"  >
<rect style="stroke: none; stroke-width: 1; stroke-dasharray: none; stroke-linecap: butt; stroke-dashoffset: 0; stroke-linejoin: miter; stroke-miterlimit: 4; fill: rgb(255,255,255); fill-rule: nonzero; opacity: 1; visibility: hidden;" vector-effect="non-scaling-stroke"  x="-540" y="-540" rx="0" ry="0" width="1080" height="1080" />
</g>
<g transform="matrix(1 0 0 1 540 540)" id="af5fd1e3-897f-4495-b8d7-52955d9d1da8"  >
</g>
<g transform="matrix(0.45 0 0 0.45 540 473.73)"  >
<g style="" vector-effect="non-scaling-stroke"   >
		<g transform="matrix(0.97 0 0 0.97 91.85 3.11)"  >
<polygon style="stroke: none; stroke-width: 1; stroke-dasharray: none; stroke-linecap: butt; stroke-dashoffset: 0; stroke-linejoin: miter; stroke-miterlimit: 4; fill: rgb(0,0,0); fill-rule: nonzero; opacity: 1;" vector-effect="non-scaling-stroke"  points="-29.07,-99.33 -107.71,-99.33 -99.51,-142.19 107.71,-142.19 99.14,-99.33 20.5,-99.33 -25.35,142.18 -74.54,142.18 " />
</g>
		<g transform="matrix(0.97 0 0 0.97 301.12 3.29)"  >
<path style="stroke: none; stroke-width: 1; stroke-dasharray: none; stroke-linecap: butt; stroke-dashoffset: 0; stroke-linejoin: miter; stroke-miterlimit: 4; fill: rgb(0,0,0); fill-rule: nonzero; opacity: 1;" vector-effect="non-scaling-stroke"  transform=" translate(-1428.7, -309.13)" d="M 1408.21 455.98 C 1334.41 455.98 1296.39 401.94 1296.39 338.58000000000004 C 1295.65 287.89000000000004 1314.66 238.70000000000005 1349.69 201.80000000000004 C 1376.52 176.08000000000004 1412.3 161.92000000000004 1449.5700000000002 162.29000000000005 C 1525.2300000000002 162.29000000000005 1561.0100000000002 215.59000000000003 1561.0100000000002 280.07000000000005 C 1561.7600000000002 329.64000000000004 1543.5000000000002 378.09000000000003 1509.9500000000003 414.61 C 1483.1200000000003 441.08000000000004 1446.5900000000004 455.61 1408.5800000000004 455.24 L 1408.2100000000005 455.98 z M 1415.66 414.61 C 1436.53 414.24 1456.28 405.67 1470.8200000000002 390.39 C 1495.42 365.78999999999996 1509.2100000000003 317.34 1509.2100000000003 281.56 C 1509.2100000000003 245.78 1496.1600000000003 203.66 1443.6100000000004 203.66 C 1422.3700000000003 204.03 1401.8700000000003 212.60999999999999 1387.3300000000004 228.26 C 1361.9900000000005 258.45 1348.2000000000003 296.46999999999997 1348.5700000000004 335.96999999999997 C 1348.5700000000004 378.83 1367.5800000000004 414.60999999999996 1415.2900000000004 414.60999999999996 L 1415.6600000000003 414.60999999999996 z" stroke-linecap="round" />
</g>
		<g transform="matrix(0.97 0 0 0.97 540.76 3.83)"  >
<polygon style="stroke: none; stroke-width: 1; stroke-dasharray: none; stroke-linecap: butt; stroke-dashoffset: 0; stroke-linejoin: miter; stroke-miterlimit: 4; fill: rgb(0,0,0); fill-rule: nonzero; opacity: 1;" vector-effect="non-scaling-stroke"  points="69.69,15.1 -32.43,15.1 -48.08,100.07 66.71,100.07 58.51,141.81 -105.85,141.81 -51.81,-141.81 105.85,-141.81 97.65,-100.06 -10.44,-100.06 -24.6,-25.52 77.89,-25.52 " />
</g>
		<g transform="matrix(0.97 0 0 0.97 737.57 3.29)"  >
<polygon style="stroke: none; stroke-width: 1; stroke-dasharray: none; stroke-linecap: butt; stroke-dashoffset: 0; stroke-linejoin: miter; stroke-miterlimit: 4; fill: rgb(0,0,0); fill-rule: nonzero; opacity: 1;" vector-effect="non-scaling-stroke"  points="-51.25,-142 105.29,-142 97.09,-100.26 -9.88,-100.26 -25.53,-20.5 73.98,-20.5 65.78,20.87 -32.62,20.87 -55.35,142 -105.29,142 " />
</g>
		<g transform="matrix(0.97 0 0 0.97 911.78 3.29)"  >
<polygon style="stroke: none; stroke-width: 1; stroke-dasharray: none; stroke-linecap: butt; stroke-dashoffset: 0; stroke-linejoin: miter; stroke-miterlimit: 4; fill: rgb(0,0,0); fill-rule: nonzero; opacity: 1;" vector-effect="non-scaling-stroke"  points="-30.38,-142 18.45,-142 -27.02,99.14 84.42,99.14 76.22,142 -84.42,142 " />
</g>
		<g transform="matrix(0.97 0 0 0.97 1049.85 107.57)"  >
<path style="stroke: none; stroke-width: 1; stroke-dasharray: none; stroke-linecap: butt; stroke-dashoffset: 0; stroke-linejoin: miter; stroke-miterlimit: 4; fill: rgb(0,0,0); fill-rule: nonzero; opacity: 1;" vector-effect="non-scaling-stroke"  transform=" translate(-2200.76, -416.66)" d="M 2224.43 440.33 C 2212.5 454.49 2191.2599999999998 456.36 2177.1 444.43 C 2162.93 432.5 2161.0699999999997 411.26 2173 397.1 C 2174.11 395.61 2175.61 394.12 2177.1 393 C 2189.02 378.83 2210.27 376.97 2224.43 388.9 C 2238.5899999999997 400.82 2240.46 422.07 2228.5299999999997 436.22999999999996 C 2227.41 437.34999999999997 2225.9199999999996 438.84 2224.43 440.33 z M 2180.45 395.97999999999996 C 2169.27 407.15999999999997 2169.27 425.41999999999996 2180.45 436.59999999999997 C 2191.6299999999997 447.78999999999996 2209.8999999999996 447.78999999999996 2221.08 436.59999999999997 C 2232.2599999999998 425.41999999999996 2232.2599999999998 407.15999999999997 2221.08 395.97999999999996 C 2215.86 390.75999999999993 2208.4 387.78 2200.95 387.40999999999997 C 2193.12 387.40999999999997 2185.2999999999997 390.39 2180.45 395.97999999999996 L 2180.45 395.97999999999996 z M 2199.83 397.84 C 2203.19 397.46999999999997 2206.54 398.21999999999997 2209.9 398.96 C 2213.62 400.45 2215.86 404.18 2215.48 408.28 C 2215.86 411.26 2214.37 413.86999999999995 2211.76 415.35999999999996 C 2210.2700000000004 416.47999999999996 2208.4 416.84999999999997 2206.5400000000004 417.21999999999997 C 2209.1500000000005 417.59999999999997 2211.3900000000003 418.71 2212.8800000000006 420.95 C 2213.9900000000007 422.44 2214.7400000000007 424.68 2214.7400000000007 426.53999999999996 L 2214.7400000000007 429.15 C 2214.7400000000007 429.9 2214.7400000000007 431.01 2214.7400000000007 431.76 C 2214.7400000000007 432.5 2214.7400000000007 432.88 2214.7400000000007 433.62 L 2214.7400000000007 433.62 L 2208.4000000000005 433.62 L 2208.4000000000005 430.27 C 2208.7800000000007 426.90999999999997 2207.6600000000008 423.56 2205.0500000000006 421.69 C 2202.810000000001 420.58 2200.2100000000005 420.21 2197.9700000000007 420.58 L 2192.750000000001 420.58 L 2192.750000000001 435.10999999999996 L 2186.420000000001 435.10999999999996 L 2186.420000000001 397.46999999999997 L 2199.830000000001 397.46999999999997 L 2199.830000000001 397.84 z M 2206.91 403.81 C 2204.2999999999997 402.69 2201.69 402.31 2199.0899999999997 402.31 L 2192.7499999999995 402.31 L 2192.7499999999995 415.73 L 2198.7099999999996 415.73 C 2200.9499999999994 415.73 2202.8099999999995 415.73 2204.6799999999994 414.99 C 2208.0299999999993 413.5 2209.5199999999995 409.40000000000003 2208.0299999999993 406.04 C 2207.6599999999994 404.92 2206.9099999999994 404.18 2206.169999999999 403.43 L 2206.909999999999 403.43 L 2206.909999999999 403.81 z" stroke-linecap="round" />
</g>
		<g transform="matrix(0.97 0 0 0.97 -718.38 40.2)"  >
<path style="stroke: none; stroke-width: 1; stroke-dasharray: none; stroke-linecap: butt; stroke-dashoffset: 0; stroke-linejoin: miter; stroke-miterlimit: 4; fill: rgb(0,0,0); fill-rule: nonzero; opacity: 1;" vector-effect="non-scaling-stroke"  transform=" translate(-377.43, -347.2)" d="M 751.5 434.74 L 750.38 435.49 C 671.74 495.49 592.35 532.02 493.21 553.63 C 341.15 586.8 199.89999999999998 567.05 123.85999999999996 502.2 C 89.56999999999996 473.13 70.56999999999996 436.23 67.20999999999995 393.37 C 57.89999999999995 283.05 141.00999999999993 168.63 288.9699999999999 87.75 L 290.4599999999999 87.01 L 288.5999999999999 82.91000000000001 L 287.1099999999999 83.65 C 113.4299999999999 153.72 -8.820000000000107 284.17 0.4999999999998863 407.90999999999997 C 4.229999999999887 458.59 26.959999999999887 503.31999999999994 66.08999999999989 537.6099999999999 C 146.5999999999999 608.05 289.7199999999999 629.6699999999998 448.4899999999999 595.7499999999999 C 576.3299999999999 568.5399999999998 678.0799999999999 511.51999999999987 753.3599999999999 439.9599999999999 L 754.8499999999999 438.4699999999999 L 751.4999999999999 434.7399999999999 z" stroke-linecap="round" />
</g>
		<g transform="matrix(0.97 0 0 0.97 -523.47 -88.23)"  >
<path style="stroke: none; stroke-width: 1; stroke-dasharray: none; stroke-linecap: butt; stroke-dashoffset: 0; stroke-linejoin: miter; stroke-miterlimit: 4; fill: rgb(0,0,0); fill-rule: nonzero; opacity: 1;" vector-effect="non-scaling-stroke"  transform=" translate(-578.42, -214.76)" d="M 867.04 134.71 C 836.8499999999999 67.25000000000001 770.51 21.78 680.31 5.760000000000019 C 534.5799999999999 -19.95999999999998 359.78999999999996 43.03000000000002 272.19999999999993 144.4 L 271.0799999999999 145.52 L 273.68999999999994 149.25 L 275.17999999999995 148.13 C 333.31999999999994 99.67999999999999 419.41999999999996 62.78 505.51 49.739999999999995 C 633.35 30.349999999999994 740.69 62.41 792.5 135.82999999999998 C 842.81 207.01999999999998 828.65 344.53999999999996 762.31 424.3 L 761.1899999999999 425.79 L 764.55 429.52000000000004 L 766.04 428.40000000000003 C 866.67 332.99 915.12 242.42000000000004 867.04 134.71000000000004 z" stroke-linecap="round" />
</g>
		<g transform="matrix(0.97 0 0 0.97 -831.46 3.29)"  >
<polygon style="stroke: none; stroke-width: 1; stroke-dasharray: none; stroke-linecap: butt; stroke-dashoffset: 0; stroke-linejoin: miter; stroke-miterlimit: 4; fill: rgb(0,0,0); fill-rule: nonzero; opacity: 1;" vector-effect="non-scaling-stroke"  points="69.14,19.38 -27.39,19.38 -37.83,74.91 69.88,74.91 61.31,120.38 -100.07,120.38 -54.97,-120.38 100.07,-120.38 91.13,-74.92 -9.5,-74.92 -18.82,-25.72 77.71,-25.72 " />
</g>
		<g transform="matrix(0.97 0 0 0.97 -623.26 2.75)"  >
<path style="stroke: none; stroke-width: 1; stroke-dasharray: none; stroke-linecap: butt; stroke-dashoffset: 0; stroke-linejoin: miter; stroke-miterlimit: 4; fill: rgb(0,0,0); fill-rule: nonzero; opacity: 1;" vector-effect="non-scaling-stroke"  transform=" translate(-475.51, -308.58)" d="M 427.99 234.22 L 368.73 234.22 L 377.68 188.38 L 582.29 188.38 C 569.99 190.99 559.18 198.45 549.12 208.51 C 537.5600000000001 220.06 535.33 233.85 535.33 233.85 L 481.66 233.85 L 445.14000000000004 428.78 L 391.47 428.78 L 427.99 234.21999999999997 z" stroke-linecap="round" />
</g>
		<g transform="matrix(0.97 0 0 0.97 -487.9 3.11)"  >
<path style="stroke: none; stroke-width: 1; stroke-dasharray: none; stroke-linecap: butt; stroke-dashoffset: 0; stroke-linejoin: miter; stroke-miterlimit: 4; fill: rgb(0,0,0); fill-rule: nonzero; opacity: 1;" vector-effect="non-scaling-stroke"  transform=" translate(-615.09, -308.95)" d="M 537.19 370.64 C 553.59 380.33 576.33 388.15 601.6700000000001 388.15 C 621.4300000000001 388.15 640.8100000000001 379.95 640.8100000000001 360.95 C 640.8100000000001 348.27 629.62 339.33 605.4000000000001 328.89 C 577.45 316.96999999999997 548.7500000000001 297.96 548.7500000000001 263.29999999999995 C 548.7500000000001 213.72999999999996 594.9600000000002 184.65999999999997 648.6300000000001 184.65999999999997 C 681.4300000000001 184.65999999999997 700.8100000000001 191.73999999999998 712.7400000000001 197.69999999999996 L 695.2200000000001 242.04999999999995 C 687.0200000000001 237.94999999999996 666.9000000000001 229.74999999999994 644.1600000000001 230.12999999999997 C 618.44 230.12999999999997 605.7700000000001 242.04999999999995 605.7700000000001 253.22999999999996 C 605.7700000000001 268.14 624.0300000000001 276.71 644.5300000000001 286.4 C 676.96 300.57 698.57 319.95 698.57 351.63 C 698.57 406.78999999999996 650.5 433.25 594.22 433.25 C 557.69 432.51 530.86 423.19 517.44 413.12 L 537.19 370.64 z" stroke-linecap="round" />
</g>
		<g transform="matrix(0.97 0 0 0.97 -278.79 152.2)"  >
<path style="stroke: none; stroke-width: 1; stroke-dasharray: none; stroke-linecap: butt; stroke-dashoffset: 0; stroke-linejoin: miter; stroke-miterlimit: 4; fill: rgb(0,0,0); fill-rule: nonzero; opacity: 1;" vector-effect="non-scaling-stroke"  transform=" translate(-830.71, -462.69)" d="M 854.37 486.17 C 848.03 492.51 840.2 495.86 830.89 495.86 C 821.5699999999999 495.86 814.11 492.51 807.41 486.17 C 801.0699999999999 479.84000000000003 797.7199999999999 472.01 797.7199999999999 462.69 C 797.7199999999999 453.75 801.0699999999999 445.92 807.41 439.21 C 813.74 432.88 821.5699999999999 429.52 830.51 429.52 C 839.83 429.52 847.66 432.88 853.99 439.21 C 860.33 445.54999999999995 863.6800000000001 453.38 863.6800000000001 462.69 C 864.0600000000001 471.64 860.7 479.46 854.3700000000001 486.17 z M 810.76 442.57 C 805.17 448.15999999999997 802.56 454.87 802.56 462.69 C 802.56 470.52 805.17 477.23 810.76 482.82 C 816.35 488.40999999999997 823.06 491.39 830.89 491.39 C 838.71 491.39 845.42 488.78 851.01 482.82 C 856.6 477.23 859.21 470.52 859.21 462.69 C 859.21 454.87 856.6 448.16 851.01 442.57 C 845.42 436.98 838.71 433.99 830.89 433.99 C 823.06 433.99 816.35 436.98 810.76 442.57 z M 830.14 444.43 C 834.61 444.43 837.97 444.8 840.1999999999999 445.55 C 843.93 447.04 845.79 450.02000000000004 845.79 454.87 C 845.79 458.22 844.67 460.46 842.0699999999999 461.95 C 840.9499999999999 462.69 839.0799999999999 463.44 836.8499999999999 463.81 C 839.8299999999999 464.18 841.6899999999999 465.3 843.18 467.54 C 844.67 469.40000000000003 845.05 471.27000000000004 845.05 473.13 L 845.05 475.74 C 845.05 476.48 845.05 477.6 845.05 478.35 C 845.05 479.46000000000004 845.05 479.84000000000003 845.42 480.21000000000004 L 845.79 480.58000000000004 L 839.8299999999999 480.58000000000004 C 839.8299999999999 480.58000000000004 839.8299999999999 480.21000000000004 839.8299999999999 480.21000000000004 C 839.8299999999999 480.21000000000004 839.8299999999999 479.84000000000003 839.8299999999999 479.84000000000003 L 839.8299999999999 478.72 L 839.8299999999999 475.74 C 839.8299999999999 471.64 838.7099999999999 468.66 836.4799999999999 467.54 C 834.9799999999999 466.79 832.7499999999999 466.42 829.3899999999999 466.42 L 824.1799999999998 466.42 L 824.1799999999998 480.58000000000004 L 817.8399999999998 480.58000000000004 L 817.8399999999998 444.43000000000006 L 830.1399999999998 444.43000000000006 L 830.1399999999998 444.43000000000006 z M 837.22 450.02 C 835.73 449.28 833.12 448.53 829.39 448.53 L 823.8 448.53 L 823.8 461.58 L 829.39 461.58 C 832 461.58 834.24 461.2 835.36 460.83 C 837.97 459.71 839.08 457.84999999999997 839.08 455.24 C 839.46 452.63 838.71 450.77 837.22 450.02 z" stroke-linecap="round" />
</g>
</g>
</g>
</svg>