<?xml version="1.0" encoding="UTF-8"?>
<!DOCTYPE svg PUBLIC "-//W3C//DTD SVG 1.1//EN" "http://www.w3.org/Graphics/SVG/1.1/DTD/svg11.dtd">
<!-- Creator: CorelDRAW 2019 (64-Bit) -->
<svg xmlns="http://www.w3.org/2000/svg" xml:space="preserve" width="199px" height="35px" version="1.1" style="shape-rendering:geometricPrecision; text-rendering:geometricPrecision; image-rendering:optimizeQuality; fill-rule:evenodd; clip-rule:evenodd"
viewBox="0 0 509.43 89.4"
 xmlns:xlink="http://www.w3.org/1999/xlink">
 <defs>
  <style type="text/css">
   <![CDATA[
    .fil3 {fill:#FEFEFE;fill-rule:nonzero}
    .fil2 {fill:white;fill-rule:nonzero}
    .fil0 {fill:white;fill-rule:nonzero;fill-opacity:0.619608}
    .fil1 {fill:white;fill-rule:nonzero}
   ]]>
  </style>
 </defs>
 <g id="Layer_x0020_1">
  <metadata id="CorelCorpID_0Corel-Layer"/>
  <polygon class="fil0" points="16.53,13.19 0,22 0,67.7 16.51,58.89 "/>
  <polygon class="fil1" points="81.43,48.99 81.43,67.69 40.71,89.4 40.71,70.71 "/>
  <polygon class="fil0" points="16.49,76.47 16.5,58.89 0.03,67.67 "/>
  <polygon class="fil2" points="0,40.7 0,22 40.71,0.29 40.71,18.99 "/>
  <path class="fil3" d="M104.17 30.3c0,-0.31 0.08,-0.56 0.26,-0.74 0.17,-0.18 0.38,-0.28 0.62,-0.29l21.59 0c0.35,0 0.61,0.09 0.78,0.29 0.18,0.19 0.26,0.45 0.26,0.79l0 5.58c0,0.25 -0.09,0.49 -0.27,0.73 -0.18,0.23 -0.44,0.35 -0.79,0.35l-13.72 0 0 6.99 10.13 0c0.29,0 0.53,0.08 0.73,0.24 0.19,0.16 0.29,0.41 0.29,0.76l0 5.39c0,0.25 -0.09,0.5 -0.26,0.73 -0.17,0.24 -0.41,0.35 -0.71,0.35l-10.18 0 0 10.34c0,0.64 -0.35,0.97 -1.04,0.97l-6.88 0c-0.54,-0.08 -0.81,-0.39 -0.81,-0.95l0 -31.53z"/>
  <path class="fil3" d="M135.6 30.26c0,-0.27 0.09,-0.5 0.25,-0.7 0.17,-0.2 0.42,-0.29 0.75,-0.29l6.63 0c0.23,0 0.47,0.09 0.72,0.27 0.26,0.18 0.39,0.42 0.39,0.72l0 31.52c0,0.67 -0.37,1 -1.11,1l-6.63 0c-0.67,0 -1,-0.33 -1,-1l0 -31.52z"/>
  <path class="fil3" d="M192.09 51.95c0.26,0.21 0.58,0.49 0.98,0.84 0.4,0.36 0.86,0.7 1.37,1.05 0.76,0.51 1.53,0.91 2.28,1.2 0.75,0.28 1.54,0.43 2.37,0.43 0.76,0 1.41,-0.09 1.93,-0.26 0.52,-0.18 0.93,-0.41 1.23,-0.69 0.3,-0.29 0.51,-0.62 0.64,-0.99 0.13,-0.38 0.19,-0.78 0.19,-1.2 0,-0.46 -0.18,-0.88 -0.53,-1.25 -0.35,-0.37 -0.79,-0.69 -1.3,-0.98 -0.51,-0.29 -1.04,-0.53 -1.6,-0.73 -0.56,-0.21 -1.04,-0.37 -1.44,-0.51 -1.81,-0.63 -3.39,-1.31 -4.74,-2.04 -1.36,-0.73 -2.49,-1.54 -3.39,-2.44 -0.9,-0.89 -1.58,-1.88 -2.03,-2.95 -0.45,-1.08 -0.68,-2.27 -0.68,-3.6 0,-1.4 0.29,-2.67 0.85,-3.81 0.56,-1.14 1.37,-2.12 2.42,-2.93 1.04,-0.81 2.3,-1.44 3.77,-1.88 1.48,-0.45 3.13,-0.67 4.95,-0.67 1.37,0 2.68,0.16 3.94,0.47 1.25,0.3 2.49,0.8 3.71,1.47 0.51,0.31 1,0.62 1.45,0.94 0.46,0.32 0.87,0.64 1.21,0.94 0.35,0.3 0.62,0.58 0.83,0.85 0.2,0.28 0.3,0.51 0.3,0.7 0,0.2 -0.05,0.38 -0.15,0.55 -0.09,0.16 -0.24,0.35 -0.44,0.56l-3.45 3.68c-0.26,0.25 -0.51,0.38 -0.77,0.38 -0.21,0 -0.4,-0.06 -0.57,-0.18 -0.18,-0.12 -0.37,-0.27 -0.58,-0.45l-0.2 -0.18c-0.3,-0.26 -0.64,-0.52 -1.01,-0.79 -0.36,-0.27 -0.76,-0.52 -1.18,-0.73 -0.42,-0.22 -0.87,-0.4 -1.33,-0.55 -0.47,-0.14 -0.94,-0.21 -1.42,-0.21 -0.5,0 -0.97,0.04 -1.4,0.12 -0.44,0.09 -0.82,0.22 -1.15,0.4 -0.33,0.18 -0.6,0.42 -0.79,0.71 -0.2,0.29 -0.3,0.65 -0.3,1.07 0,0.42 0.11,0.79 0.32,1.1 0.21,0.31 0.52,0.59 0.95,0.85 0.42,0.27 0.94,0.52 1.56,0.75 0.63,0.23 1.35,0.48 2.18,0.75 1.6,0.53 3.07,1.09 4.41,1.66 1.35,0.58 2.51,1.27 3.49,2.06 0.98,0.79 1.74,1.73 2.29,2.83 0.55,1.1 0.83,2.43 0.83,3.99 0,1.66 -0.34,3.16 -1.02,4.51 -0.68,1.34 -1.61,2.49 -2.79,3.44 -1.18,0.95 -2.57,1.68 -4.16,2.2 -1.6,0.52 -3.31,0.78 -5.15,0.78 -1.73,0 -3.43,-0.31 -5.1,-0.93 -1.67,-0.62 -3.22,-1.45 -4.67,-2.49 -0.6,-0.44 -1.11,-0.87 -1.52,-1.29 -0.41,-0.42 -0.74,-0.76 -0.98,-1.02l-0.07 -0.07c-0.02,-0.03 -0.03,-0.05 -0.05,-0.05 -0.01,-0.01 -0.03,-0.02 -0.04,-0.04 -0.02,-0.03 -0.03,-0.05 -0.05,-0.05 -0.01,-0.01 -0.03,-0.02 -0.04,-0.04 -0.35,-0.37 -0.52,-0.68 -0.52,-0.9 0,-0.26 0.17,-0.55 0.52,-0.86l3.9 -3.73c0.32,-0.22 0.57,-0.34 0.77,-0.34 0.14,0 0.28,0.05 0.43,0.14 0.15,0.09 0.33,0.22 0.54,0.41z"/>
  <path class="fil3" d="M217.91 30.25c0,-0.29 0.1,-0.53 0.3,-0.72 0.21,-0.17 0.46,-0.26 0.76,-0.26l24.28 0c0.27,0 0.51,0.08 0.72,0.24 0.22,0.17 0.33,0.42 0.36,0.74l0 5.61c0,0.27 -0.09,0.53 -0.28,0.77 -0.19,0.25 -0.45,0.38 -0.8,0.38l-7.79 0 0 24.71c0,0.27 -0.09,0.51 -0.29,0.73 -0.19,0.22 -0.45,0.33 -0.76,0.33l-6.62 0c-0.26,0 -0.5,-0.1 -0.72,-0.31 -0.23,-0.2 -0.34,-0.45 -0.34,-0.75l0 -24.71 -7.76 0c-0.3,0 -0.55,-0.1 -0.76,-0.3 -0.2,-0.19 -0.3,-0.48 -0.3,-0.85l0 -5.61z"/>
  <path class="fil3" d="M321.01 31.7c0.26,0.15 0.44,0.35 0.56,0.59 0.12,0.24 0.1,0.53 -0.06,0.86l-3.82 5.41c-0.16,0.26 -0.34,0.4 -0.53,0.44 -0.19,0.04 -0.42,-0.02 -0.69,-0.19 -0.73,-0.56 -1.55,-0.99 -2.43,-1.29 -0.89,-0.3 -1.83,-0.45 -2.82,-0.45 -1.24,0 -2.37,0.24 -3.41,0.7 -1.04,0.47 -1.93,1.11 -2.69,1.92 -0.75,0.81 -1.34,1.76 -1.76,2.84 -0.42,1.09 -0.63,2.25 -0.63,3.48 0,1.23 0.21,2.39 0.63,3.46 0.42,1.08 1.01,2.02 1.76,2.82 0.76,0.81 1.65,1.44 2.69,1.91 1.04,0.47 2.17,0.7 3.41,0.7 0.99,0 1.94,-0.15 2.84,-0.46 0.9,-0.31 1.72,-0.74 2.46,-1.3 0.27,-0.16 0.5,-0.23 0.68,-0.2 0.18,0.03 0.36,0.16 0.54,0.4l3.86 5.56c0.16,0.33 0.18,0.6 0.06,0.83 -0.12,0.23 -0.3,0.42 -0.56,0.57 -1.41,0.94 -2.94,1.68 -4.57,2.2 -1.63,0.51 -3.35,0.77 -5.15,0.77 -1.6,0 -3.13,-0.2 -4.6,-0.6 -1.47,-0.41 -2.84,-0.99 -4.12,-1.74 -1.28,-0.75 -2.44,-1.65 -3.48,-2.7 -1.05,-1.05 -1.95,-2.2 -2.7,-3.47 -0.75,-1.28 -1.33,-2.65 -1.74,-4.11 -0.4,-1.47 -0.61,-3 -0.61,-4.6 0,-1.59 0.21,-3.12 0.61,-4.59 0.41,-1.47 0.99,-2.84 1.74,-4.13 0.75,-1.28 1.65,-2.45 2.7,-3.51 1.04,-1.05 2.2,-1.95 3.48,-2.69 1.28,-0.75 2.65,-1.33 4.12,-1.74 1.47,-0.42 3,-0.62 4.6,-0.62 1.8,0 3.5,0.25 5.11,0.75 1.6,0.51 3.11,1.23 4.52,2.18z"/>
  <path class="fil3" d="M374.68 37.34l0 17.36 1.89 0c0.35,0 0.69,-0.01 1.02,-0.04 0.33,-0.02 0.66,-0.04 0.99,-0.08 1.13,-0.08 2.18,-0.36 3.16,-0.82 0.98,-0.46 1.83,-1.06 2.56,-1.8 0.73,-0.75 1.3,-1.62 1.72,-2.63 0.41,-1.01 0.62,-2.11 0.62,-3.3 0,-1.26 -0.24,-2.42 -0.72,-3.49 -0.47,-1.05 -1.11,-1.97 -1.92,-2.75 -0.82,-0.77 -1.77,-1.37 -2.86,-1.8 -1.09,-0.43 -2.25,-0.65 -3.49,-0.65l-2.97 0zm20.64 8.71c0,1.6 -0.2,3.12 -0.61,4.55 -0.4,1.44 -0.98,2.78 -1.73,4.02 -0.76,1.24 -1.65,2.37 -2.7,3.37 -1.05,1.01 -2.2,1.87 -3.47,2.57 -1.28,0.71 -2.65,1.26 -4.12,1.64 -1.48,0.39 -3,0.58 -4.59,0.58l-11.12 0c-0.27,0 -0.51,-0.06 -0.72,-0.18 -0.21,-0.12 -0.32,-0.38 -0.32,-0.77l0 -31.53c0,-0.31 0.09,-0.57 0.26,-0.77 0.17,-0.19 0.43,-0.29 0.78,-0.29l11.12 0c1.59,0 3.11,0.2 4.58,0.59 1.46,0.39 2.83,0.95 4.1,1.67 1.27,0.72 2.44,1.59 3.49,2.59 1.05,1.01 1.95,2.14 2.7,3.39 0.74,1.25 1.32,2.59 1.73,4.04 0.42,1.44 0.62,2.95 0.62,4.53z"/>
  <path class="fil3" d="M403.47 30.3c0,-0.31 0.09,-0.57 0.26,-0.75 0.17,-0.19 0.42,-0.29 0.73,-0.29l22.39 0c0.33,0 0.59,0.1 0.77,0.3 0.18,0.19 0.27,0.45 0.27,0.78l0 5.59c0,0.25 -0.09,0.49 -0.27,0.73 -0.18,0.23 -0.45,0.35 -0.79,0.35l-14.62 0 0 5.59 11.28 0c0.29,0 0.52,0.07 0.71,0.21 0.19,0.13 0.28,0.36 0.28,0.67l0 4.88c0,0.21 -0.08,0.41 -0.24,0.61 -0.17,0.19 -0.41,0.29 -0.73,0.29l-11.3 0 0 5.78 15.16 0c0.68,0 1.02,0.34 1.02,1.03l0 5.67c0,0.15 -0.06,0.29 -0.18,0.41 -0.06,0.42 -0.37,0.63 -0.93,0.63l-22.82 0c-0.3,0 -0.54,-0.08 -0.72,-0.24 -0.18,-0.16 -0.27,-0.4 -0.27,-0.73l0 -31.51z"/>
  <path class="fil3" d="M438.07 30.26c0.03,-0.27 0.13,-0.51 0.31,-0.7 0.18,-0.2 0.44,-0.3 0.77,-0.3l7.81 0c0.56,0 0.92,0.29 1.08,0.86l6.14 20.49 6.18 -20.49c0.22,-0.57 0.6,-0.86 1.16,-0.86l7.71 0c0.27,0 0.52,0.1 0.74,0.29 0.22,0.18 0.34,0.42 0.37,0.71 0.53,5.29 1.06,10.55 1.61,15.76 0.55,5.21 1.09,10.47 1.62,15.76l0 0.12c0,0.58 -0.33,0.88 -1,0.88l-6.38 0c-0.7,0 -1.06,-0.33 -1.09,-1l-1.96 -17.44 -5.08 17.56c-0.03,0.15 -0.14,0.33 -0.32,0.54 -0.19,0.21 -0.38,0.31 -0.56,0.31l-5.93 0c-0.18,0 -0.38,-0.1 -0.58,-0.3 -0.2,-0.2 -0.31,-0.39 -0.33,-0.55l-5.07 -17.51 -1.97 17.39c-0.03,0.67 -0.4,1 -1.1,1l-6.39 0c-0.65,0 -0.97,-0.33 -0.97,-1l3.23 -31.52z"/>
  <path class="fil3" d="M494.09 41.63l5.45 -11.67c0.09,-0.18 0.17,-0.31 0.23,-0.39 0.06,-0.08 0.12,-0.14 0.18,-0.18 0.06,-0.04 0.12,-0.06 0.19,-0.07 0.07,-0.01 0.15,-0.03 0.24,-0.06l8.68 0c0.11,0 0.2,0.04 0.27,0.11 0.06,0.06 0.1,0.14 0.1,0.23 0,0.17 -0.11,0.36 -0.32,0.57l-10.7 18.93 0 12.62c0,0.7 -0.34,1.06 -1.03,1.06l-6.76 0c-0.3,0 -0.53,-0.1 -0.69,-0.28 -0.17,-0.19 -0.25,-0.45 -0.25,-0.78l0 -12.66 -10.68 -18.89c-0.19,-0.2 -0.29,-0.39 -0.29,-0.57 0,-0.09 0.03,-0.17 0.09,-0.23 0.06,-0.07 0.14,-0.11 0.25,-0.11l8.69 0c0.1,0.03 0.19,0.05 0.25,0.06 0.06,0.01 0.12,0.03 0.18,0.07 0.06,0.04 0.12,0.1 0.18,0.18 0.06,0.08 0.14,0.21 0.25,0.39l5.49 11.67z"/>
  <path class="fil3" d="M291.4 61.76l-11.85 -30.55 -0.56 -1.29c-0.09,-0.12 -0.23,-0.26 -0.41,-0.42 -0.18,-0.16 -0.4,-0.24 -0.65,-0.24l-5.78 0c-0.12,0 -0.25,0.03 -0.38,0.08 -0.14,0.06 -0.27,0.13 -0.39,0.22 -0.12,0.09 -0.22,0.19 -0.3,0.29 -0.08,0.11 -0.13,0.2 -0.15,0.29l-12.25 31.73c-0.12,0.31 -0.09,0.53 0.1,0.68 0.19,0.15 0.42,0.23 0.71,0.23l6.66 0c0.57,0 0.95,-0.28 1.15,-0.84 0.28,-0.76 0.57,-1.53 0.87,-2.29 0.05,-0.12 0.09,-0.25 0.14,-0.38l3.26 -9.15 0 0c0.28,-0.77 0.57,-1.59 0.86,-2.47 0.3,-0.88 0.59,-1.78 0.87,-2.68 0.29,-0.9 0.58,-1.8 0.87,-2.68 0.3,-0.89 0.58,-1.72 0.87,-2.49l3.45 10.32 -5.29 6.25c-0.33,0.39 -0.05,0.99 0.46,0.99l7.17 0c0.68,1.75 1.63,3.81 1.93,4.58 0.1,0.3 0.25,0.52 0.44,0.65 0.19,0.12 0.45,0.19 0.8,0.19l6.48 0c0.4,0 0.69,-0.1 0.85,-0.28 0.17,-0.19 0.19,-0.44 0.07,-0.74z"/>
  <path class="fil3" d="M359.56 61.75l-11.85 -30.56 -0.57 -1.28c-0.09,-0.12 -0.22,-0.26 -0.4,-0.42 -0.18,-0.16 -0.4,-0.24 -0.66,-0.24l-5.78 0c-0.12,0 -0.24,0.03 -0.38,0.08 -0.13,0.06 -0.26,0.13 -0.38,0.22 -0.12,0.09 -0.22,0.18 -0.31,0.29 -0.08,0.1 -0.13,0.2 -0.14,0.29l-12.26 31.73c-0.12,0.3 -0.08,0.53 0.1,0.68 0.19,0.15 0.43,0.23 0.72,0.23l6.65 0c0.57,0 0.96,-0.28 1.15,-0.84 0.29,-0.77 0.58,-1.53 0.87,-2.29 0.05,-0.12 0.1,-0.25 0.14,-0.38l3.26 -9.16 0 0c0.28,-0.76 0.57,-1.58 0.87,-2.47 0.29,-0.87 0.58,-1.77 0.87,-2.67 0.28,-0.9 0.57,-1.8 0.87,-2.68 0.29,-0.89 0.58,-1.72 0.86,-2.49l3.46 10.31 -5.29 6.26c-0.34,0.39 -0.06,0.99 0.46,0.99l7.17 0c0.68,1.75 1.62,3.81 1.92,4.58 0.11,0.3 0.26,0.52 0.44,0.64 0.19,0.13 0.46,0.2 0.8,0.2l6.48 0c0.41,0 0.69,-0.1 0.86,-0.29 0.16,-0.18 0.19,-0.43 0.07,-0.73z"/>
  <path class="fil3" d="M181.24 61.29c-0.17,-0.29 -0.31,-0.54 -0.41,-0.75l-5.8 -10.92c0.81,-0.46 1.56,-1.03 2.24,-1.68 0.69,-0.65 1.28,-1.38 1.78,-2.19 0.49,-0.8 0.88,-1.67 1.16,-2.59 0.28,-0.93 0.42,-1.9 0.42,-2.93 0,-1.5 -0.29,-2.92 -0.87,-4.25 -0.58,-1.33 -1.38,-2.49 -2.38,-3.49 -1.01,-0.99 -2.19,-1.78 -3.55,-2.36 -1.35,-0.57 -2.8,-0.86 -4.35,-0.86l-14.58 0c-0.33,0 -0.58,0.09 -0.75,0.28 -0.16,0.19 -0.24,0.44 -0.24,0.75l0 31.51c0,0.33 0.09,0.57 0.27,0.73 0.18,0.16 0.42,0.24 0.72,0.24l6.7 0c0.69,0 1.04,-0.33 1.04,-0.97l0 -25.64 3.11 0c0.44,0 0.84,0.01 1.21,0.03 0.37,0.03 0.76,0.05 1.19,0.08 0.51,0.08 0.97,0.24 1.4,0.5 0.42,0.26 0.78,0.57 1.08,0.95 0.3,0.38 0.53,0.79 0.7,1.24 0.16,0.45 0.25,0.9 0.25,1.35 0,0.49 -0.08,0.95 -0.23,1.41 -0.15,0.46 -0.37,0.88 -0.65,1.24 -0.29,0.37 -0.64,0.68 -1.06,0.93 -0.42,0.25 -0.9,0.4 -1.43,0.46 -0.25,0.03 -0.49,0.06 -0.7,0.07 -0.21,0.02 -0.34,0.02 -0.61,0.02l-0.69 0 0 6.97c0,0.14 0.04,0.27 0.11,0.39l5.46 10.13c0.06,0.26 0.19,0.46 0.39,0.61 0.21,0.15 0.44,0.23 0.69,0.23l7.74 0c0.27,0 0.49,-0.07 0.65,-0.19 0.15,-0.13 0.23,-0.32 0.23,-0.56 0,-0.21 -0.08,-0.46 -0.24,-0.74z"/>
  <polygon class="fil0" points="81.43,40.41 81.43,21.71 40.71,0 40.71,18.7 "/>
  <polygon class="fil0" points="81.43,67.74 81.43,49.04 40.71,27.32 40.71,46.02 "/>
  <polygon class="fil2" points="0,67.93 0,49.23 40.71,27.52 40.71,46.22 "/>
 </g>
</svg>
