<?xml version="1.0" encoding="UTF-8"?>
<!DOCTYPE svg PUBLIC "-//W3C//DTD SVG 1.1//EN" "http://www.w3.org/Graphics/SVG/1.1/DTD/svg11.dtd">
<!-- Creator: CorelDRAW 2020 (64-Bit) -->
<svg xmlns="http://www.w3.org/2000/svg" xml:space="preserve" width="109.219mm" height="31.3208mm" version="1.1" style="shape-rendering:geometricPrecision; text-rendering:geometricPrecision; image-rendering:optimizeQuality; fill-rule:evenodd; clip-rule:evenodd"
viewBox="0 0 7515.63 2155.25"
 xmlns:xlink="http://www.w3.org/1999/xlink"
 xmlns:xodm="http://www.corel.com/coreldraw/odm/2003">
 <defs>
  <style type="text/css">
   <![CDATA[
    .fil1 {fill:#1E78C2}
    .fil0 {fill:#A1D2F8}
   ]]>
  </style>
 </defs>
 <g id="Layer_x0020_1">
  <metadata id="CorelCorpID_0Corel-Layer"/>
  <path class="fil0" d="M2574.2 994.34l0 -913.61 333.13 0c70.64,0 116.1,15.14 156.48,30.28 90.86,45.42 131.2,131.25 131.2,206.93 0,85.84 -35.33,146.38 -106.03,191.81 106.03,25.23 166.61,95.9 166.61,206.93 0,126.18 -75.73,217.01 -201.94,257.44 -45.41,15.12 -95.88,20.18 -171.61,20.18l-307.85 0 0 0.05zm408.83 -757.13c-25.25,-10.1 -50.47,-15.15 -85.84,-15.15l-171.6 0 0 237.21 161.51 0c45.42,0 75.73,-5.06 100.95,-20.18 34.73,-19.36 56.04,-56.18 55.52,-95.93 0,-45.37 -25.23,-85.77 -60.55,-105.95zm45.45 378.54c-20.2,-10.1 -50.51,-15.15 -100.98,-15.15l-201.89 0 0 252.35 186.76 0c60.55,0 90.87,-10.1 116.1,-20.18 45.41,-20.19 65.6,-60.6 65.6,-111.05 0,-50.47 -20.19,-85.75 -65.6,-105.98zm1135.63 378.59l0 -913.61 156.51 0 0 913.61 -156.51 0zm1135.68 0l0 -913.61 156.54 0 0 913.61 -156.54 0zm656.21 -918.66c100.86,0 201.87,25.23 257.4,50.5l-5.08 151.43c-80.76,-40.37 -156.38,-65.65 -252.27,-65.65 -85.89,0 -161.52,25.25 -161.52,95.93 0,186.75 469.37,111.01 469.37,418.91 0,171.61 -141.31,277.62 -353.28,277.62 -141.37,0 -237.3,-40.35 -307.96,-80.78l65.63 -126.19c55.59,35.32 146.45,70.66 247.35,70.66 95.83,0 181.72,-35.34 181.72,-116.08 0,-196.88 -464.34,-111.05 -464.34,-418.95 -0.06,-166.52 131.11,-257.4 322.98,-257.4zm1044.82 918.66l0 -393.68 -439.22 0 0 393.68 -156.44 0 0 -913.61 156.44 0 0 373.55 439.22 0 0 -373.55 156.39 0 0 913.61 -156.39 0zm-4083.4 156.47c95.87,0 171.6,20.2 252.33,55.5l-45.4 131.25c-45.42,-20.24 -106.01,-45.42 -191.8,-45.42 -171.61,0 -277.62,146.38 -277.62,323.04 0,181.75 100.95,328.08 277.62,328.08 85.8,0 146.38,-25.22 191.8,-45.42l45.4 131.2c-80.78,35.32 -156.46,55.56 -252.33,55.56 -272.59,0 -429.05,-191.79 -429.05,-464.37 0,-257.44 156.46,-469.42 429.05,-469.42zm3412.11 0c100.91,0 176.64,20.2 252.27,55.5l-45.37 131.25c-45.43,-20.24 -105.98,-45.42 -191.77,-45.42 -171.67,0 -277.6,146.38 -277.6,323.04 0,181.75 100.95,328.08 277.6,328.08 85.78,0 146.34,-25.22 191.77,-45.42l45.37 131.2c-75.68,35.32 -151.36,55.56 -252.27,55.56 -272.63,0 -429.06,-191.79 -429.06,-464.37 0,-257.44 156.44,-469.42 429.06,-469.42zm-2271.44 464.34c0,272.57 -171.58,469.46 -429,469.46 -257.43,0 -429.06,-191.79 -429.06,-464.37 0,-272.57 171.67,-469.42 429.06,-469.42 262.47,0 429,191.81 429,464.34zm-161.52 0c0,-196.86 -116.01,-323.04 -267.48,-323.04 -151.43,0 -267.5,126.18 -267.5,328.08 0,196.87 116.11,323.04 267.5,323.04 151.47,0 267.48,-126.17 267.48,-328.08zm267.53 111.06l0 -565.3 156.51 0 0 570.35c0,156.46 80.78,211.98 211.98,211.98 131.2,0 211.98,-55.52 211.98,-211.98l0 -570.35 156.42 0 0 565.3c0,247.34 -141.33,358.4 -368.41,358.4 -227.16,0 -368.49,-111.06 -368.49,-358.4zm1029.65 -317.99l-4.98 0c4.98,30.27 4.98,80.78 4.98,121.14l0 540.07 -156.42 0 0 -908.51 171.65 0 418.86 620.85 5.13 0c-5.13,-30.29 -5.13,-80.78 -5.13,-121.16l0 -499.69 156.54 0 0 908.51 -136.34 0 -454.29 -661.2zm1509.26 661.2l0 -908.51 156.44 0 0 908.51 -156.44 0zm297.81 0l0 -908.51 156.39 0 0 767.21 358.41 0 0 141.3 -514.8 0zm-1822.15 -1983.6l-736.94 0 0 141.3 292.76 0 0 767.23 156.52 0 0 -767.23 287.66 0 0 -141.3zm-1292.11 908.53c-131.29,-277.63 -166.61,-353.32 -222.11,-353.32l-146.38 0 0 353.32 -156.48 0 0 -908.53 307.91 0c237.2,0 323.07,121.16 323.07,257.41 0,126.19 -65.63,206.93 -166.61,237.2 40.43,25.23 85.88,111.06 237.29,413.92l-176.69 0zm-207.01 -772.27l-161.53 0 0 277.63 156.48 0c111.06,0 161.47,-55.52 161.47,-141.35 0.05,-75.68 -45.37,-136.28 -156.42,-136.28z"/>
  <path class="fil1" d="M1044.79 519.88c0,287.71 -237.2,519.88 -524.91,519.88 -282.67,0 -519.88,-232.21 -519.88,-519.88 0,-287.68 237.21,-519.87 519.88,-519.87 287.71,0 524.91,232.15 524.91,519.87zm1110.46 0c0.19,137.93 -54.53,270.28 -152.05,367.83 -97.55,97.54 -229.89,152.24 -367.83,152.05 -287.72,0 -519.89,-232.21 -519.89,-519.88 0,-287.68 232.21,-519.87 519.89,-519.87 137.93,-0.21 270.28,54.5 367.83,152.05 97.51,97.54 152.23,229.87 152.05,367.82zm-1110.46 1115.5c0,287.71 -237.2,519.87 -524.91,519.87 -282.67,0 -519.88,-232.21 -519.88,-519.87 0,-287.77 237.21,-519.9 519.88,-519.9 287.71,0 524.91,232.13 524.91,519.9zm1110.46 0c0.19,137.93 -54.53,270.28 -152.05,367.81 -97.55,97.54 -229.89,152.25 -367.83,152.06 -137.95,0.19 -270.29,-54.52 -367.83,-152.06 -97.54,-97.53 -152.25,-229.88 -152.06,-367.81 -0.19,-137.95 54.52,-270.29 152.06,-367.83 97.54,-97.54 229.87,-152.25 367.83,-152.07 137.93,-0.2 270.28,54.51 367.83,152.05 97.53,97.54 152.25,229.89 152.05,367.84z"/>
 </g>
</svg>
