<?xml version="1.0" encoding="UTF-8"?>
<!DOCTYPE svg PUBLIC "-//W3C//DTD SVG 1.1//EN" "http://www.w3.org/Graphics/SVG/1.1/DTD/svg11.dtd">
<!-- Creator: CorelDRAW 2020 (64-Bit) -->
<svg xmlns="http://www.w3.org/2000/svg" xml:space="preserve" width="394px" height="281px" version="1.1" style="shape-rendering:geometricPrecision; text-rendering:geometricPrecision; image-rendering:optimizeQuality; fill-rule:evenodd; clip-rule:evenodd"
viewBox="0 0 779.43 555.504"
 xmlns:xlink="http://www.w3.org/1999/xlink"
 xmlns:xodm="http://www.corel.com/coreldraw/odm/2003">
 <defs>
  <style type="text/css">
   <![CDATA[
    .fil0 {fill:#48867C}
    .fil1 {fill:#FEFEFE;fill-rule:nonzero}
   ]]>
  </style>
 </defs>
 <g id="Layer_x0020_1">
  <metadata id="CorelCorpID_0Corel-Layer"/>
  <rect class="fil0" width="779.43" height="555.504"/>
  <path class="fil1" d="M86.132 248.424c0,-1.266 0.387,-2.357 1.16,-3.272 0.774,-0.913 1.934,-1.371 3.482,-1.371l20.996 0c1.195,0 2.321,0.422 3.376,1.266 1.055,0.844 1.583,1.969 1.583,3.377l0 147.498c0,3.094 -1.653,4.642 -4.959,4.642l-20.996 0c-3.094,0 -4.642,-1.548 -4.642,-4.642l0 -147.498z"/>
  <path id="1" class="fil1" d="M150.807 248.845c0,-3.376 1.548,-5.064 4.643,-5.064l101.813 0c1.829,0 3.13,0.528 3.904,1.548 0.774,1.02 1.16,2.286 1.16,3.868l0 18.639c0,1.267 -0.421,2.392 -1.301,3.377 -0.879,0.985 -2.215,1.477 -3.973,1.477l-75.016 0 0 32.074 57.818 0c1.406,-0.141 2.532,0.176 3.376,0.914 0.844,0.739 1.266,1.97 1.266,3.728l0 19.202c0,1.267 -0.352,2.392 -1.055,3.377 -0.703,0.984 -1.828,1.476 -3.376,1.476l-58.029 0 0 38.194 77.759 0c1.969,0 3.27,0.422 3.903,1.266 0.633,0.844 0.95,2.145 0.95,3.939l0 19.272c0,2.954 -1.548,4.432 -4.642,4.432l-104.557 0c-1.266,0 -2.357,-0.351 -3.271,-1.055 -0.915,-0.704 -1.372,-1.829 -1.372,-3.377l0 -147.287z"/>
  <path id="2" class="fil1" d="M289.97 248.424c0,-1.266 0.423,-2.357 1.267,-3.272 0.843,-0.913 2.039,-1.371 3.586,-1.371l20.996 0c1.267,0 2.392,0.422 3.341,1.231 0.95,0.809 1.407,1.934 1.407,3.412l0 123.231 66.047 0c1.266,0 2.356,0.422 3.271,1.301 0.914,0.88 1.372,2.075 1.372,3.553l0 19.307c0,1.266 -0.423,2.356 -1.267,3.306 -0.843,0.949 -1.969,1.442 -3.376,1.442l-92.002 0c-3.094,0 -4.642,-1.548 -4.642,-4.642l0 -147.498z"/>
  <path id="3" class="fil1" d="M402.44 248.424c0,-1.408 0.457,-2.533 1.372,-3.377 0.914,-0.844 2.075,-1.266 3.482,-1.266l110.887 0c1.266,0 2.427,0.387 3.447,1.161 1.019,0.773 1.582,1.934 1.723,3.482l0 18.533c0,1.442 -0.422,2.673 -1.302,3.728 -0.879,1.055 -2.18,1.583 -3.868,1.583l-40.093 0 0 123.443c0,1.266 -0.421,2.391 -1.301,3.375 -0.879,0.985 -2.11,1.478 -3.657,1.478l-20.68 0c-1.266,0 -2.427,-0.457 -3.447,-1.371 -1.019,-0.915 -1.511,-2.076 -1.511,-3.482l0 -123.443 -40.198 0c-1.407,0 -2.568,-0.457 -3.482,-1.336 -0.915,-0.879 -1.372,-2.181 -1.372,-3.975l0 -18.533z"/>
  <path id="4" class="fil1" d="M637.509 285.562c-0.914,0 -1.759,-0.246 -2.532,-0.704 -0.774,-0.457 -1.653,-1.055 -2.638,-1.829l-0.211 -0.105c-1.336,-1.336 -3.06,-2.814 -5.17,-4.431 -2.11,-1.618 -4.466,-3.13 -7.069,-4.537 -2.602,-1.407 -5.38,-2.602 -8.37,-3.587 -2.989,-0.985 -6.049,-1.478 -9.144,-1.478 -3.939,0 -7.42,0.458 -10.445,1.337 -3.024,0.88 -5.557,2.075 -7.596,3.588 -2.04,1.511 -3.588,3.27 -4.643,5.31 -1.055,2.075 -1.582,4.256 -1.582,6.576 0,2.533 0.773,4.748 2.356,6.647 1.583,1.899 3.728,3.588 6.436,5.064 2.708,1.478 5.803,2.849 9.32,4.08 3.516,1.231 7.209,2.462 11.078,3.658 4.431,1.336 8.828,2.779 13.153,4.325 4.361,1.548 8.546,3.272 12.52,5.241 3.939,1.934 7.667,4.079 11.114,6.435 3.446,2.357 6.401,5.065 8.897,8.125 2.497,3.059 4.467,6.471 5.908,10.269 1.443,3.763 2.146,7.983 2.146,12.731 0,7.667 -1.548,14.595 -4.642,20.82 -3.095,6.19 -7.351,11.5 -12.802,15.897 -5.451,4.395 -11.852,7.772 -19.202,10.128 -7.351,2.356 -15.263,3.552 -23.704,3.552 -5.415,0 -10.797,-0.633 -16.143,-1.899 -5.345,-1.266 -10.48,-3.06 -15.403,-5.381 -4.924,-2.321 -9.566,-5.135 -13.963,-8.405 -4.395,-3.271 -8.334,-6.929 -11.781,-11.008l0 0.105 -0.211 -0.421c-1.547,-1.759 -2.321,-3.377 -2.321,-4.854 0,-0.774 0.211,-1.512 0.633,-2.216 0.422,-0.703 1.055,-1.477 1.899,-2.321l3.482 -3.482c1.055,-0.914 2.18,-1.934 3.376,-3.059 1.195,-1.125 2.392,-2.145 3.587,-3.06 1.196,-0.914 2.321,-1.688 3.341,-2.321 1.021,-0.633 1.829,-0.95 2.462,-0.95 0.985,0 1.899,0.317 2.743,0.95 0.844,0.633 1.548,1.231 2.11,1.793l0.423 0.423 -0.106 0c2.462,2.321 5.24,4.536 8.3,6.647 3.059,2.11 6.19,3.974 9.425,5.627 3.236,1.652 6.471,2.954 9.671,3.904 3.201,0.949 6.19,1.441 9.004,1.441 3.868,0 7.491,-0.492 10.867,-1.477 3.376,-0.984 6.295,-2.391 8.757,-4.185 2.462,-1.794 4.396,-3.939 5.803,-6.506 1.407,-2.532 2.11,-5.346 2.11,-8.44 0,-3.096 -0.914,-5.769 -2.743,-7.984 -1.829,-2.216 -4.221,-4.15 -7.175,-5.803 -2.954,-1.653 -6.26,-3.095 -9.952,-4.29 -3.693,-1.196 -7.421,-2.322 -11.149,-3.377 -8.581,-2.602 -16.072,-5.416 -22.508,-8.44 -6.436,-3.025 -11.817,-6.436 -16.107,-10.199 -4.291,-3.764 -7.491,-8.019 -9.637,-12.696 -2.145,-4.678 -3.235,-9.953 -3.235,-15.791 0,-6.541 1.336,-12.52 3.974,-17.901 2.638,-5.416 6.401,-10.023 11.254,-13.856 4.888,-3.834 10.726,-6.823 17.585,-8.968 6.822,-2.146 14.454,-3.236 22.895,-3.236 6.4,0 12.906,0.985 19.518,2.989 6.612,2.005 12.731,4.783 18.358,8.3 1.688,1.055 3.411,2.251 5.17,3.588 1.759,1.336 3.376,2.673 4.853,4.044 1.478,1.372 2.708,2.708 3.658,4.009 0.949,1.302 1.406,2.427 1.406,3.341 0,0.844 -0.211,1.689 -0.632,2.568 -0.423,0.878 -0.95,1.687 -1.583,2.391l-3.165 3.376 0 -0.106c-1.055,1.126 -2.146,2.287 -3.271,3.482 -1.125,1.196 -2.251,2.251 -3.376,3.2 -1.126,0.95 -2.146,1.759 -3.06,2.392 -0.915,0.634 -1.688,0.95 -2.321,0.95z"/>
  <path class="fil1" d="M118.586 179.588l16.584 0.991c-0.783,7.227 -3.459,12.771 -8.026,16.629 -4.568,3.857 -10.184,5.794 -16.851,5.794 -8.026,0 -14.5,-2.661 -19.422,-7.968 -4.937,-5.306 -7.406,-12.652 -7.406,-21.994 0,-9.268 2.336,-16.747 7.006,-22.438 4.671,-5.691 11.19,-8.529 19.556,-8.529 7.819,0 13.835,2.158 18.033,6.474 4.184,4.316 6.564,10.052 7.11,17.176l-16.939 0.917c0,-3.947 -0.754,-6.785 -2.262,-8.544 -1.507,-1.759 -3.296,-2.631 -5.336,-2.631 -5.691,0 -8.543,5.75 -8.543,17.264 0,6.445 0.738,10.835 2.217,13.141 1.493,2.321 3.576,3.474 6.252,3.474 4.774,0 7.45,-3.252 8.027,-9.756z"/>
  <path id="1" class="fil1" d="M184.082 158.037l0 44.078 -15.964 0 0 -7.243c-2.335,5.425 -6.903,8.13 -13.702,8.13 -4.184,0 -7.42,-1.168 -9.726,-3.488 -2.292,-2.321 -3.445,-5.647 -3.445,-9.978l0 -31.499 17.295 0 0 27.73c0,1.744 0.236,2.956 0.709,3.666 0.488,0.709 1.419,1.064 2.809,1.064 1.478,0 2.675,-0.533 3.607,-1.582 0.93,-1.049 1.389,-2.543 1.389,-4.449l0 -26.429 17.028 0z"/>
  <path id="2" class="fil1" d="M189.27 189.61l13.658 -1.863c0.783,3.193 3.888,4.789 9.312,4.789 4.494,0 6.74,-0.871 6.74,-2.601 0,-0.754 -0.428,-1.33 -1.301,-1.759 -0.871,-0.414 -2.941,-0.843 -6.178,-1.271 -9.002,-1.241 -14.604,-3.178 -16.836,-5.824 -2.232,-2.631 -3.355,-5.572 -3.355,-8.81 0,-4.508 1.877,-8.159 5.646,-10.938 3.77,-2.793 8.707,-4.183 14.826,-4.183 10.716,0 17.546,3.843 20.502,11.544l-13.037 2.469c-1.227,-2.602 -3.814,-3.902 -7.746,-3.902 -1.862,0 -3.266,0.251 -4.183,0.754 -0.917,0.517 -1.375,1.004 -1.375,1.507 0,1.434 1.39,2.321 4.168,2.631 7.229,0.813 12.136,1.626 14.708,2.469 2.572,0.827 4.775,2.365 6.592,4.582 1.819,2.231 2.735,4.922 2.735,8.07 0,4.819 -2.01,8.648 -6.045,11.485 -4.036,2.824 -9.594,4.243 -16.674,4.243 -11.943,0 -19.319,-4.464 -22.157,-13.392z"/>
  <path id="3" class="fil1" d="M267.818 158.037l0 11.175 -8.78 0 0 16.244c0,2.232 0.413,3.548 1.256,3.962 0.827,0.428 1.7,0.635 2.587,0.635 1.389,0 3.03,-0.236 4.937,-0.709l0 12.328c-3.4,0.65 -6.756,0.975 -10.037,0.975 -5.321,0 -9.224,-1.138 -11.722,-3.429 -2.483,-2.276 -3.74,-5.927 -3.74,-10.923l0.045 -5.159 0 -13.924 -6.563 0 0 -11.175 6.563 0 0.266 -14.368 16.408 -0.265 0 14.633 8.78 0z"/>
  <path id="4" class="fil1" d="M295.089 203.002c-7.302,0 -13.096,-2.276 -17.397,-6.815 -4.302,-4.552 -6.46,-9.888 -6.46,-16.008 0,-6.577 2.246,-12.061 6.74,-16.451 4.479,-4.39 10.317,-6.578 17.516,-6.578 7.243,0 13.067,2.158 17.472,6.489 4.405,4.331 6.607,9.756 6.607,16.289 0,6.577 -2.232,12.062 -6.696,16.466 -4.464,4.406 -10.376,6.608 -17.782,6.608zm0.266 -10.466c2.661,0 4.301,-1.389 4.878,-4.182 0.591,-2.779 0.887,-5.692 0.887,-8.721 0,-4.139 -0.414,-7.111 -1.242,-8.928 -0.842,-1.819 -2.32,-2.735 -4.478,-2.735 -1.982,0 -3.43,0.946 -4.346,2.823 -0.916,1.877 -1.375,4.967 -1.375,9.268 0,5.055 0.473,8.396 1.419,10.022 0.946,1.641 2.365,2.453 4.257,2.453z"/>
  <path id="5" class="fil1" d="M392.926 202.115l-16.761 0 0 -27.567c0,-1.848 -0.266,-3.134 -0.799,-3.873 -0.531,-0.739 -1.463,-1.108 -2.808,-1.108 -3.208,0 -4.819,2.35 -4.819,7.065l0 25.483 -16.584 0 0 -27.538c0,-3.518 -1.36,-5.276 -4.065,-5.276 -2.794,0 -4.184,1.758 -4.184,5.276l0 27.538 -16.673 0 0 -44.078 15.52 0 0 5.971c2.779,-4.567 6.8,-6.858 12.092,-6.858 5.676,0 9.815,2.291 12.372,6.858 2.852,-4.567 7.243,-6.858 13.14,-6.858 2.824,0 5.307,0.591 7.45,1.774 2.158,1.182 3.71,2.705 4.671,4.567 0.961,1.862 1.448,4.745 1.448,8.647l0 29.977z"/>
  <path id="6" class="fil1" d="M419.4 141.098l0 13.658 -17.294 0 0 -13.658 17.294 0zm0 16.939l0 44.078 -17.294 0 0 -44.078 17.294 0z"/>
  <path id="7" class="fil1" d="M424.574 189.61l13.658 -1.863c0.783,3.193 3.888,4.789 9.312,4.789 4.494,0 6.74,-0.871 6.74,-2.601 0,-0.754 -0.428,-1.33 -1.301,-1.759 -0.871,-0.414 -2.941,-0.843 -6.178,-1.271 -9.002,-1.241 -14.604,-3.178 -16.836,-5.824 -2.232,-2.631 -3.355,-5.572 -3.355,-8.81 0,-4.508 1.877,-8.159 5.646,-10.938 3.77,-2.793 8.707,-4.183 14.826,-4.183 10.716,0 17.546,3.843 20.502,11.544l-13.037 2.469c-1.227,-2.602 -3.814,-3.902 -7.746,-3.902 -1.862,0 -3.266,0.251 -4.183,0.754 -0.917,0.517 -1.375,1.004 -1.375,1.507 0,1.434 1.39,2.321 4.168,2.631 7.229,0.813 12.136,1.626 14.708,2.469 2.572,0.827 4.775,2.365 6.592,4.582 1.819,2.231 2.735,4.922 2.735,8.07 0,4.819 -2.01,8.648 -6.045,11.485 -4.036,2.824 -9.594,4.243 -16.674,4.243 -11.943,0 -19.319,-4.464 -22.157,-13.392z"/>
  <path id="8" class="fil1" d="M504.644 186.24l16.053 1.079c-0.946,4.346 -3.385,8.041 -7.302,11.101 -3.902,3.059 -9.194,4.582 -15.861,4.582 -7.42,0 -13.333,-2.143 -17.752,-6.43 -4.42,-4.287 -6.622,-9.608 -6.622,-15.949 0,-6.593 2.173,-12.15 6.534,-16.674 4.36,-4.537 10.184,-6.799 17.456,-6.799 7.036,0 12.727,2.129 17.072,6.4 4.346,4.272 6.519,10.081 6.519,17.428 0,0.605 -0.014,1.448 -0.044,2.512l-29.445 0c0.059,2.794 0.547,4.864 1.478,6.223 0.917,1.345 2.676,2.026 5.277,2.026 3.77,0 5.972,-1.834 6.637,-5.499zm-1.241 -11.441c-0.03,-2.941 -0.621,-4.922 -1.775,-5.928 -1.152,-1.019 -2.586,-1.522 -4.3,-1.522 -4.05,0 -6.076,2.483 -6.076,7.45l12.151 0z"/>
  <path id="9" class="fil1" d="M570.495 202.115l-16.23 0 0 -5.854c-2.394,4.494 -6.341,6.741 -11.84,6.741 -5.07,0 -9.178,-1.981 -12.342,-5.942 -3.148,-3.976 -4.73,-9.741 -4.73,-17.294 0,-7.066 1.582,-12.683 4.759,-16.837 3.164,-4.153 7.362,-6.222 12.579,-6.222 4.361,0 7.953,1.655 10.776,4.981l0 -18.728 17.028 0 0 59.155zm-17.028 -28.307c0,-3.946 -1.625,-5.927 -4.863,-5.927 -2.276,0 -3.754,1.257 -4.464,3.769 -0.694,2.513 -1.049,5.588 -1.049,9.224 0,7.125 1.803,10.687 5.424,10.687 1.375,0 2.543,-0.562 3.504,-1.685 0.96,-1.124 1.448,-2.853 1.448,-5.159l0 -10.909z"/>
 </g>
</svg>
