<?xml version="1.0" encoding="UTF-8"?>
<!DOCTYPE svg PUBLIC "-//W3C//DTD SVG 1.1//EN" "http://www.w3.org/Graphics/SVG/1.1/DTD/svg11.dtd">
<!-- Creator: CorelDRAW 2020 (64-Bit) -->
<svg xmlns="http://www.w3.org/2000/svg" xml:space="preserve" width="394px" height="281px" version="1.1" style="shape-rendering:geometricPrecision; text-rendering:geometricPrecision; image-rendering:optimizeQuality; fill-rule:evenodd; clip-rule:evenodd"
viewBox="0 0 364.404 259.713"
 xmlns:xlink="http://www.w3.org/1999/xlink"
 xmlns:xodm="http://www.corel.com/coreldraw/odm/2003">
 <defs>
  <style type="text/css">
   <![CDATA[
    .fil0 {fill:#F45E42}
    .fil1 {fill:#FEFEFE;fill-rule:nonzero}
   ]]>
  </style>
 </defs>
 <g id="Layer_x0020_1">
  <metadata id="CorelCorpID_0Corel-Layer"/>
  <rect class="fil0" width="364.404" height="259.713"/>
  <path class="fil1" d="M45.319 97.87c0,-0.636 0.194,-1.184 0.583,-1.644 0.389,-0.459 0.972,-0.689 1.75,-0.689l10.549 0c0.601,0 1.167,0.212 1.697,0.636 0.53,0.424 0.795,0.99 0.795,1.697l0 74.113c0,1.555 -0.83,2.333 -2.492,2.333l-10.549 0c-1.556,0 -2.333,-0.778 -2.333,-2.333l0 -74.113z"/>
  <path id="1" class="fil1" d="M77.817 98.082c0,-1.697 0.777,-2.545 2.332,-2.545l51.159 0c0.918,0 1.572,0.265 1.961,0.778 0.389,0.512 0.583,1.148 0.583,1.943l0 9.366c0,0.636 -0.212,1.202 -0.653,1.697 -0.442,0.495 -1.114,0.742 -1.997,0.742l-37.693 0 0 16.116 29.051 0c0.707,-0.071 1.273,0.088 1.697,0.46 0.424,0.371 0.636,0.989 0.636,1.873l0 9.648c0,0.636 -0.177,1.202 -0.53,1.697 -0.354,0.495 -0.919,0.742 -1.697,0.742l-29.157 0 0 19.191 39.071 0c0.989,0 1.644,0.212 1.962,0.636 0.318,0.424 0.477,1.078 0.477,1.98l0 9.683c0,1.485 -0.778,2.227 -2.333,2.227l-52.537 0c-0.636,0 -1.184,-0.177 -1.643,-0.53 -0.46,-0.354 -0.689,-0.919 -0.689,-1.697l0 -74.007z"/>
  <path id="2" class="fil1" d="M147.742 97.87c0,-0.636 0.212,-1.184 0.636,-1.644 0.424,-0.459 1.025,-0.689 1.803,-0.689l10.549 0c0.637,0 1.202,0.212 1.679,0.619 0.478,0.406 0.707,0.972 0.707,1.714l0 61.92 33.187 0c0.636,0 1.184,0.212 1.643,0.654 0.46,0.442 0.69,1.043 0.69,1.785l0 9.701c0,0.636 -0.213,1.184 -0.637,1.661 -0.424,0.477 -0.989,0.725 -1.696,0.725l-46.228 0c-1.555,0 -2.333,-0.778 -2.333,-2.333l0 -74.113z"/>
  <path id="3" class="fil1" d="M204.255 97.87c0,-0.707 0.229,-1.273 0.689,-1.697 0.459,-0.424 1.043,-0.636 1.749,-0.636l55.718 0c0.636,0 1.219,0.194 1.732,0.583 0.512,0.389 0.795,0.972 0.866,1.75l0 9.312c0,0.725 -0.212,1.343 -0.654,1.874 -0.442,0.53 -1.096,0.795 -1.944,0.795l-20.145 0 0 62.026c0,0.637 -0.212,1.202 -0.654,1.697 -0.442,0.494 -1.06,0.742 -1.838,0.742l-10.391 0c-0.636,0 -1.219,-0.23 -1.731,-0.689 -0.513,-0.46 -0.76,-1.043 -0.76,-1.75l0 -62.026 -20.199 0c-0.706,0 -1.29,-0.23 -1.749,-0.672 -0.46,-0.441 -0.689,-1.095 -0.689,-1.997l0 -9.312z"/>
  <path id="4" class="fil1" d="M322.37 116.531c-0.46,0 -0.884,-0.124 -1.273,-0.354 -0.388,-0.229 -0.83,-0.53 -1.325,-0.919l-0.106 -0.053c-0.672,-0.671 -1.537,-1.413 -2.598,-2.226 -1.06,-0.813 -2.244,-1.573 -3.552,-2.28 -1.307,-0.707 -2.703,-1.308 -4.205,-1.802 -1.502,-0.495 -3.04,-0.742 -4.595,-0.742 -1.979,0 -3.729,0.229 -5.248,0.671 -1.52,0.442 -2.792,1.042 -3.817,1.802 -1.025,0.76 -1.803,1.644 -2.333,2.669 -0.53,1.042 -0.795,2.138 -0.795,3.304 0,1.273 0.389,2.386 1.184,3.34 0.795,0.954 1.873,1.803 3.234,2.545 1.36,0.742 2.916,1.431 4.683,2.05 1.767,0.618 3.622,1.237 5.566,1.838 2.227,0.671 4.436,1.396 6.609,2.173 2.191,0.778 4.294,1.644 6.291,2.633 1.98,0.972 3.852,2.05 5.584,3.234 1.732,1.184 3.217,2.545 4.471,4.082 1.255,1.538 2.244,3.251 2.969,5.16 0.725,1.891 1.078,4.012 1.078,6.397 0,3.853 -0.778,7.334 -2.333,10.461 -1.555,3.111 -3.693,5.779 -6.432,7.988 -2.739,2.209 -5.955,3.905 -9.649,5.089 -3.693,1.184 -7.669,1.785 -11.91,1.785 -2.722,0 -5.425,-0.318 -8.111,-0.954 -2.686,-0.636 -5.266,-1.538 -7.74,-2.704 -2.474,-1.166 -4.807,-2.58 -7.016,-4.223 -2.209,-1.644 -4.188,-3.481 -5.92,-5.531l0 0.053 -0.106 -0.212c-0.777,-0.884 -1.166,-1.697 -1.166,-2.439 0,-0.389 0.106,-0.76 0.318,-1.113 0.212,-0.354 0.53,-0.743 0.954,-1.167l1.75 -1.749c0.53,-0.46 1.095,-0.972 1.696,-1.538 0.601,-0.565 1.202,-1.077 1.803,-1.537 0.601,-0.459 1.166,-0.848 1.679,-1.166 0.512,-0.318 0.918,-0.477 1.236,-0.477 0.495,0 0.955,0.159 1.379,0.477 0.424,0.318 0.777,0.618 1.06,0.901l0.212 0.212 -0.053 0c1.237,1.166 2.633,2.28 4.171,3.34 1.537,1.06 3.11,1.997 4.735,2.827 1.626,0.831 3.252,1.485 4.86,1.962 1.608,0.477 3.11,0.724 4.524,0.724 1.944,0 3.764,-0.247 5.46,-0.742 1.697,-0.495 3.163,-1.201 4.401,-2.103 1.237,-0.901 2.208,-1.979 2.915,-3.269 0.707,-1.272 1.061,-2.686 1.061,-4.241 0,-1.555 -0.46,-2.898 -1.379,-4.011 -0.919,-1.114 -2.12,-2.086 -3.605,-2.916 -1.484,-0.831 -3.145,-1.555 -5.001,-2.156 -1.855,-0.601 -3.728,-1.166 -5.601,-1.696 -4.312,-1.308 -8.076,-2.722 -11.31,-4.242 -3.234,-1.519 -5.938,-3.233 -8.094,-5.124 -2.155,-1.891 -3.764,-4.029 -4.841,-6.38 -1.078,-2.35 -1.626,-5 -1.626,-7.934 0,-3.287 0.671,-6.291 1.997,-8.995 1.325,-2.721 3.216,-5.036 5.654,-6.962 2.457,-1.926 5.39,-3.428 8.836,-4.506 3.428,-1.078 7.263,-1.626 11.504,-1.626 3.216,0 6.485,0.495 9.808,1.502 3.322,1.007 6.397,2.403 9.224,4.17 0.848,0.53 1.714,1.131 2.598,1.803 0.883,0.671 1.696,1.343 2.438,2.032 0.743,0.689 1.361,1.361 1.838,2.014 0.477,0.654 0.707,1.22 0.707,1.679 0,0.424 -0.106,0.848 -0.318,1.29 -0.212,0.442 -0.477,0.849 -0.795,1.202l-1.591 1.696 0 -0.053c-0.53,0.566 -1.078,1.149 -1.643,1.75 -0.566,0.601 -1.131,1.131 -1.697,1.608 -0.565,0.477 -1.077,0.884 -1.537,1.202 -0.459,0.318 -0.848,0.477 -1.166,0.477z"/>
  <polygon class="fil1" points="59.746,72.677 55.062,72.677 52.656,67.431 51.208,69.454 51.208,72.677 47.169,72.677 47.169,58.718 51.208,58.718 51.208,64.477 55.045,58.718 58.888,58.718 55.369,63.818 "/>
  <path id="1" class="fil1" d="M72.823 72.677l-3.495 0 -3.837 -6.156c-0.495,-0.792 -0.98,-1.754 -1.461,-2.899 0.226,0.9 0.338,1.664 0.338,2.292l0 6.763 -3.474 0 0 -13.959 4.039 0 3.254 5.114c0.649,1.015 1.137,1.911 1.469,2.682 -0.22,-1.193 -0.328,-2.414 -0.328,-3.662l0 -4.134 3.495 0 0 13.959z"/>
  <path id="2" class="fil1" d="M81.281 72.887c-1.964,0 -3.565,-0.653 -4.803,-1.954 -1.239,-1.301 -1.856,-3.041 -1.856,-5.221 0,-2.083 0.593,-3.806 1.776,-5.166 1.182,-1.357 2.825,-2.037 4.925,-2.037 1.942,0 3.529,0.642 4.754,1.922 1.224,1.28 1.834,2.989 1.834,5.127 0,2.215 -0.617,3.991 -1.852,5.326 -1.235,1.336 -2.825,2.003 -4.778,2.003zm-0.018 -3.161c0.726,0 1.249,-0.317 1.566,-0.948 0.318,-0.632 0.478,-1.786 0.478,-3.464 0,-2.431 -0.655,-3.645 -1.964,-3.645 -1.412,0 -2.117,1.385 -2.117,4.158 0,2.598 0.68,3.899 2.037,3.899z"/>
  <polygon id="3" class="fil1" points="106.826,58.718 103.129,72.677 99.533,72.677 97.576,64.972 95.728,72.677 91.978,72.677 88.284,58.718 92.313,58.718 94.256,66.737 96.181,58.718 99.533,58.718 101.594,66.755 103.548,58.718 "/>
  <polygon id="4" class="fil1" points="128.588,58.718 128.588,72.677 124.611,72.677 124.611,62.695 122.013,72.677 119.295,72.677 116.617,62.695 116.617,72.677 113.415,72.677 113.415,58.718 118.999,58.718 121.022,66.134 122.954,58.718 "/>
  <path id="5" class="fil1" d="M137.042 72.887c-1.963,0 -3.564,-0.653 -4.803,-1.954 -1.238,-1.301 -1.855,-3.041 -1.855,-5.221 0,-2.083 0.593,-3.806 1.775,-5.166 1.183,-1.357 2.825,-2.037 4.925,-2.037 1.943,0 3.53,0.642 4.754,1.922 1.224,1.28 1.835,2.989 1.835,5.127 0,2.215 -0.618,3.991 -1.852,5.326 -1.235,1.336 -2.826,2.003 -4.779,2.003zm-0.017 -3.161c0.725,0 1.249,-0.317 1.566,-0.948 0.317,-0.632 0.478,-1.786 0.478,-3.464 0,-2.431 -0.656,-3.645 -1.964,-3.645 -1.413,0 -2.117,1.385 -2.117,4.158 0,2.598 0.68,3.899 2.037,3.899z"/>
  <path id="6" class="fil1" d="M157.883 72.677l-4.747 0 -2.055 -5.336 -1.318 0 0 5.336 -4.291 0 0 -13.959 7.29 0c1.608,0 2.857,0.377 3.746,1.131 0.89,0.753 1.333,1.747 1.333,2.982 0,0.805 -0.164,1.517 -0.492,2.134 -0.328,0.618 -0.991,1.162 -1.992,1.633l2.526 6.079zm-8.12 -8.308l1.831 0c0.537,0 0.97,-0.112 1.298,-0.338 0.327,-0.227 0.491,-0.559 0.491,-0.998 0,-0.897 -0.547,-1.343 -1.646,-1.343l-1.974 0 0 2.679z"/>
  <polygon id="7" class="fil1" points="170.418,69.35 170.418,72.677 159.912,72.677 159.912,58.718 170.418,58.718 170.418,61.941 164.119,61.941 164.119,63.971 169.205,63.971 169.205,67.068 164.119,67.068 164.119,69.35 "/>
  <path id="8" class="fil1" d="M185.047 72.677l-0.771 -2.741 -3.798 0 -0.824 2.741 -3.474 0 4.318 -13.959 4.528 0 4.391 13.959 -4.37 0zm-3.792 -5.797l2.233 0 -1.12 -4.042 -1.113 4.042z"/>
  <path id="9" class="fil1" d="M190.68 72.677l0 -13.959 7.087 0c1.472,0 2.547,0.37 3.223,1.113 0.673,0.743 1.012,1.591 1.012,2.543 0,0.694 -0.196,1.322 -0.586,1.883 -0.388,0.562 -0.97,0.949 -1.741,1.162 1.803,0.436 2.703,1.52 2.703,3.254 0,1.04 -0.317,1.964 -0.955,2.78 -0.639,0.816 -2.003,1.224 -4.092,1.224l-6.651 0zm3.934 -8.622l1.999 0c0.502,0 0.854,-0.126 1.06,-0.377 0.206,-0.251 0.31,-0.519 0.31,-0.805 0,-0.775 -0.481,-1.162 -1.444,-1.162l-1.925 0 0 2.344zm0 5.525l2.103 0c0.523,0 0.907,-0.129 1.151,-0.387 0.244,-0.255 0.367,-0.548 0.367,-0.869 0,-0.324 -0.119,-0.621 -0.356,-0.889 -0.238,-0.272 -0.673,-0.408 -1.305,-0.408l-1.96 0 0 2.553z"/>
  <path id="10" class="fil1" d="M210.156 72.887c-1.963,0 -3.564,-0.653 -4.803,-1.954 -1.238,-1.301 -1.855,-3.041 -1.855,-5.221 0,-2.083 0.593,-3.806 1.775,-5.166 1.183,-1.357 2.825,-2.037 4.925,-2.037 1.943,0 3.53,0.642 4.754,1.922 1.224,1.28 1.835,2.989 1.835,5.127 0,2.215 -0.618,3.991 -1.852,5.326 -1.235,1.336 -2.826,2.003 -4.779,2.003zm-0.017 -3.161c0.725,0 1.249,-0.317 1.566,-0.948 0.317,-0.632 0.478,-1.786 0.478,-3.464 0,-2.431 -0.656,-3.645 -1.964,-3.645 -1.413,0 -2.117,1.385 -2.117,4.158 0,2.598 0.68,3.899 2.037,3.899z"/>
  <path id="11" class="fil1" d="M229.908 58.718l0 9.24c0,1.751 -0.519,3.01 -1.559,3.777 -1.039,0.768 -2.396,1.152 -4.067,1.152 -1.761,0 -3.174,-0.37 -4.241,-1.106 -1.067,-0.736 -1.601,-1.933 -1.601,-3.596l0 -9.467 4.353 0 0 8.961c0,0.67 0.143,1.154 0.426,1.461 0.282,0.307 0.735,0.461 1.357,0.461 0.516,0 0.941,-0.112 1.273,-0.332 0.331,-0.223 0.53,-0.471 0.593,-0.753 0.066,-0.279 0.097,-0.823 0.097,-1.632l0 -8.166 3.369 0z"/>
  <polygon id="12" class="fil1" points="237.92,62.067 237.92,72.677 233.86,72.677 233.86,62.067 230.972,62.067 230.972,58.718 240.808,58.718 240.808,62.067 "/>
 </g>
</svg>
