<?xml version="1.0" encoding="UTF-8"?>
<!DOCTYPE svg PUBLIC "-//W3C//DTD SVG 1.1//EN" "http://www.w3.org/Graphics/SVG/1.1/DTD/svg11.dtd">
<!-- Creator: CorelDRAW 2020 (64-Bit) -->
<svg xmlns="http://www.w3.org/2000/svg" xml:space="preserve" width="394px" height="281px" version="1.1" style="shape-rendering:geometricPrecision; text-rendering:geometricPrecision; image-rendering:optimizeQuality; fill-rule:evenodd; clip-rule:evenodd"
viewBox="0 0 792.426 564.766"
 xmlns:xlink="http://www.w3.org/1999/xlink"
 xmlns:xodm="http://www.corel.com/coreldraw/odm/2003">
 <defs>
  <style type="text/css">
   <![CDATA[
    .fil0 {fill:#FC665C}
    .fil1 {fill:#FEFEFE;fill-rule:nonzero}
   ]]>
  </style>
 </defs>
 <g id="Layer_x0020_1">
  <metadata id="CorelCorpID_0Corel-Layer"/>
  <rect class="fil0" width="792.426" height="564.766"/>
  <path class="fil1" d="M66.404 277.237c0,-0.894 0.29,-1.609 0.872,-2.146 0.58,-0.536 1.318,-0.804 2.212,-0.804l70.46 0c0.805,0 1.542,0.245 2.19,0.737 0.648,0.492 1.005,1.229 1.095,2.213l0 11.776c0,0.917 -0.268,1.699 -0.827,2.37 -0.559,0.67 -1.385,1.005 -2.458,1.005l-25.476 0 0 78.438c0,0.804 -0.268,1.52 -0.826,2.145 -0.559,0.626 -1.341,0.939 -2.325,0.939l-13.14 0c-0.804,0 -1.541,-0.29 -2.19,-0.872 -0.648,-0.581 -0.961,-1.318 -0.961,-2.212l0 -78.438 -25.542 0c-0.894,0 -1.632,-0.291 -2.212,-0.85 -0.582,-0.558 -0.872,-1.385 -0.872,-2.525l0 -11.776z"/>
  <path id="1" class="fil1" d="M158.988 277.438c0,-2.101 0.983,-3.151 2.949,-3.151l41.074 0c4.514,0 8.738,0.849 12.671,2.547 3.933,1.699 7.374,4.001 10.302,6.905 2.927,2.906 5.229,6.325 6.905,10.281 1.676,3.933 2.525,8.111 2.525,12.536 0,3.084 -0.424,6.033 -1.273,8.85 -0.85,2.815 -2.034,5.429 -3.554,7.843 -1.519,2.436 -3.329,4.603 -5.43,6.548 -2.101,1.944 -4.424,3.598 -6.972,4.939l17.498 34.414c0.089,0.447 0.245,0.894 0.469,1.341 0.223,0.447 0.335,0.916 0.335,1.408 0,1.341 -0.782,2.011 -2.346,2.011l-15.621 0c-1.609,0 -2.682,-0.827 -3.218,-2.48l-16.291 -32.248c-0.715,0 -1.475,0.023 -2.301,0.067 -0.85,0.045 -1.99,0.068 -3.442,0.068 -1.453,0 -3.375,0 -5.721,0 -2.346,0 -5.386,0 -9.117,0l0 31.71c0,1.922 -1.028,2.883 -3.084,2.883l-13.409 0c-0.894,0 -1.609,-0.246 -2.145,-0.715 -0.537,-0.469 -0.804,-1.185 -0.804,-2.168l0 -93.589zm56.582 29.185c0,-1.9 -0.358,-3.777 -1.072,-5.564 -0.715,-1.81 -1.721,-3.442 -3.04,-4.849 -1.296,-1.431 -2.838,-2.593 -4.625,-3.487 -1.81,-0.893 -3.755,-1.408 -5.855,-1.542 -1.587,-0.045 -3.107,-0.089 -4.626,-0.112 -1.497,-0.022 -3.062,-0.022 -4.671,-0.022l-13.251 0 0 31.107 17.765 0c0.894,0 1.744,0 2.525,0 0.782,0 1.632,-0.045 2.525,-0.134 2.102,-0.134 4.046,-0.626 5.811,-1.475 1.765,-0.849 3.285,-1.966 4.537,-3.374 1.273,-1.408 2.234,-3.017 2.927,-4.827 0.692,-1.788 1.05,-3.71 1.05,-5.721z"/>
  <path id="2" class="fil1" d="M245.404 371.43c0.224,-0.894 0.491,-1.721 0.782,-2.481 0.291,-0.76 0.536,-1.452 0.76,-2.078l36.135 -90.037c0.134,-0.491 0.514,-1.028 1.117,-1.631 0.604,-0.603 1.408,-0.916 2.436,-0.916l10.794 0c1.073,0 1.855,0.268 2.324,0.804 0.469,0.537 0.804,1.006 1.028,1.408l2.212 5.23 35.398 88.628c0,0.134 0.044,0.357 0.111,0.693 0.068,0.335 0.09,0.625 0.09,0.849 0,1.341 -0.983,2.011 -2.95,2.011l-13.207 0c-0.983,0 -1.743,-0.201 -2.279,-0.604 -0.537,-0.402 -0.984,-1.027 -1.341,-1.876l-1.207 -3.084c-0.849,-2.145 -1.698,-4.291 -2.547,-6.437 -0.849,-2.145 -1.676,-4.313 -2.481,-6.503l-41.364 0c-1.162,3.129 -2.28,6.056 -3.375,8.805 -1.095,2.749 -2.033,5.162 -2.793,7.219 -0.625,1.653 -1.788,2.48 -3.486,2.48l-13.408 0c-0.849,0 -1.52,-0.157 -2.034,-0.469 -0.514,-0.313 -0.783,-0.782 -0.783,-1.408 0,-0.268 0.023,-0.47 0.068,-0.603zm46.66 -71.601c-2.413,6.168 -4.804,12.56 -7.195,19.174 -2.392,6.615 -4.805,12.984 -7.218,19.107l28.559 0 -14.146 -38.281z"/>
  <path id="3" class="fil1" d="M353.005 277.237c0,-0.805 0.246,-1.498 0.737,-2.078 0.492,-0.582 1.23,-0.872 2.212,-0.872l13.342 0c0.76,0 1.475,0.268 2.145,0.804 0.67,0.537 1.006,1.252 1.006,2.146l0 93.723c0,1.966 -1.05,2.95 -3.151,2.95l-13.342 0c-1.966,0 -2.949,-0.984 -2.949,-2.95l0 -93.723z"/>
  <path id="4" class="fil1" d="M394.236 277.304c0,-0.849 0.268,-1.565 0.782,-2.145 0.514,-0.582 1.229,-0.872 2.167,-0.872l15.42 0c0.625,0 1.207,0.134 1.766,0.425 0.558,0.29 1.072,0.759 1.519,1.385 7.62,10.906 15.195,21.744 22.682,32.515 7.509,10.749 15.085,21.587 22.704,32.492l0 -64.27c0.135,-0.804 0.47,-1.43 1.006,-1.877 0.537,-0.447 1.184,-0.67 1.945,-0.67l12.938 0c0.894,0 1.676,0.268 2.325,0.804 0.647,0.537 0.96,1.252 0.96,2.146l0 93.924c0,1.833 -1.05,2.749 -3.15,2.749l-14.526 0c-0.983,0 -1.9,-0.604 -2.749,-1.81 -7.866,-11.397 -15.687,-22.794 -23.486,-34.191 -7.777,-11.375 -15.576,-22.794 -23.398,-34.235l0 67.286c0,0.983 -0.223,1.721 -0.693,2.213 -0.469,0.491 -1.273,0.737 -2.391,0.737l-12.872 0c-1.028,0 -1.765,-0.268 -2.234,-0.782 -0.47,-0.514 -0.715,-1.207 -0.715,-2.101l0 -93.723z"/>
  <path id="5" class="fil1" d="M502.239 277.237c0,-0.805 0.245,-1.498 0.737,-2.078 0.492,-0.582 1.229,-0.872 2.212,-0.872l13.341 0c0.761,0 1.475,0.268 2.146,0.804 0.67,0.537 1.005,1.252 1.005,2.146l0 93.723c0,1.966 -1.049,2.95 -3.151,2.95l-13.341 0c-1.966,0 -2.949,-0.984 -2.949,-2.95l0 -93.723z"/>
  <path id="6" class="fil1" d="M543.469 277.304c0,-0.849 0.269,-1.565 0.782,-2.145 0.514,-0.582 1.23,-0.872 2.168,-0.872l15.419 0c0.626,0 1.207,0.134 1.766,0.425 0.559,0.29 1.073,0.759 1.52,1.385 7.619,10.906 15.195,21.744 22.682,32.515 7.509,10.749 15.084,21.587 22.704,32.492l0 -64.27c0.135,-0.804 0.47,-1.43 1.006,-1.877 0.536,-0.447 1.184,-0.67 1.944,-0.67l12.939 0c0.894,0 1.676,0.268 2.324,0.804 0.648,0.537 0.961,1.252 0.961,2.146l0 93.924c0,1.833 -1.05,2.749 -3.151,2.749l-14.525 0c-0.983,0 -1.9,-0.604 -2.749,-1.81 -7.866,-11.397 -15.687,-22.794 -23.487,-34.191 -7.777,-11.375 -15.576,-22.794 -23.397,-34.235l0 67.286c0,0.983 -0.223,1.721 -0.693,2.213 -0.469,0.491 -1.274,0.737 -2.391,0.737l-12.872 0c-1.028,0 -1.765,-0.268 -2.234,-0.782 -0.47,-0.514 -0.716,-1.207 -0.716,-2.101l0 -93.723z"/>
  <path id="7" class="fil1" d="M713.284 332.143c0,-0.893 0.246,-1.609 0.737,-2.145 0.492,-0.536 1.229,-0.805 2.213,-0.805l10.927 0c0.76,0 1.476,0.269 2.146,0.805 0.671,0.536 1.006,1.252 1.006,2.145l0 30.817c0,0.536 -0.135,1.051 -0.403,1.542 -0.268,0.514 -0.759,0.983 -1.475,1.43 -0.045,0 -0.067,0 -0.067,0.022 0,0.023 -0.022,0.045 -0.066,0.045 -2.102,1.475 -4.358,2.816 -6.772,3.978 -2.413,1.184 -4.939,2.145 -7.576,2.949 -2.637,0.783 -5.34,1.386 -8.111,1.811 -2.772,0.424 -5.542,0.648 -8.313,0.648 -4.693,0 -9.23,-0.603 -13.61,-1.81 -4.38,-1.207 -8.447,-2.928 -12.224,-5.162 -3.776,-2.235 -7.218,-4.917 -10.324,-8.023 -3.106,-3.106 -5.788,-6.548 -8.023,-10.324 -2.234,-3.777 -3.955,-7.844 -5.162,-12.202 -1.206,-4.358 -1.81,-8.894 -1.81,-13.631 0,-4.694 0.604,-9.23 1.81,-13.587 1.207,-4.358 2.928,-8.425 5.162,-12.224 2.235,-3.8 4.917,-7.263 8.023,-10.392 3.106,-3.128 6.57,-5.81 10.369,-8.044 3.799,-2.235 7.889,-3.978 12.246,-5.207 4.358,-1.23 8.917,-1.833 13.655,-1.833 3.172,0 6.346,0.29 9.497,0.849 3.151,0.559 6.19,1.386 9.162,2.525 1.117,0.447 2.436,1.006 3.978,1.676 1.541,0.671 3.017,1.408 4.402,2.212 1.386,0.805 2.548,1.632 3.509,2.504 0.961,0.849 1.452,1.676 1.452,2.48 0,0.358 -0.201,0.939 -0.603,1.721 -0.402,0.782 -0.894,1.676 -1.498,2.659 -0.602,0.984 -1.296,1.989 -2.055,3.039 -0.76,1.051 -1.498,2.011 -2.213,2.86 -0.715,0.85 -1.363,1.543 -1.944,2.102 -0.581,0.558 -1.028,0.849 -1.34,0.849 -0.269,0 -0.582,-0.067 -0.961,-0.179 -0.38,-0.112 -0.783,-0.313 -1.185,-0.626 -2.816,-1.966 -5.989,-3.531 -9.52,-4.693 -3.531,-1.162 -7.128,-1.743 -10.793,-1.743 -4.783,0 -9.163,0.894 -13.141,2.682 -3.977,1.765 -7.396,4.179 -10.257,7.218 -2.86,3.017 -5.095,6.526 -6.704,10.525 -1.609,3.978 -2.414,8.18 -2.414,12.582 0,4.558 0.849,8.827 2.57,12.804 1.721,4.001 4.045,7.464 6.973,10.437 2.927,2.95 6.346,5.296 10.279,7.017 3.933,1.721 8.09,2.57 12.514,2.57 1.655,0 3.286,-0.134 4.895,-0.38 1.609,-0.246 3.106,-0.559 4.514,-0.939 1.408,-0.38 2.659,-0.804 3.776,-1.274 1.118,-0.469 2.034,-0.916 2.749,-1.362l0 -20.918z"/>
  <path class="fil1" d="M69.992 173.69c0,-1.502 0.689,-2.253 2.066,-2.253l45.286 0c0.813,0 1.392,0.235 1.736,0.689 0.344,0.453 0.516,1.016 0.516,1.72l0 8.291c0,0.563 -0.188,1.063 -0.578,1.502 -0.392,0.438 -0.986,0.657 -1.768,0.657l-33.367 0 0 14.266 25.717 0c0.626,-0.063 1.127,0.078 1.502,0.407 0.376,0.328 0.563,0.875 0.563,1.658l0 8.541c0,0.563 -0.156,1.063 -0.469,1.502 -0.313,0.438 -0.814,0.657 -1.502,0.657l-25.811 0 0 16.987 34.587 0c0.876,0 1.454,0.188 1.736,0.564 0.282,0.375 0.422,0.954 0.422,1.752l0 8.572c0,1.314 -0.688,1.971 -2.064,1.971l-46.506 0c-0.564,0 -1.048,-0.156 -1.455,-0.469 -0.407,-0.313 -0.611,-0.813 -0.611,-1.502l0 -65.512z"/>
  <path id="1" class="fil1" d="M131.892 173.549c0,-0.595 0.187,-1.095 0.547,-1.502 0.359,-0.406 0.86,-0.61 1.517,-0.61l10.793 0c0.439,0 0.846,0.094 1.236,0.297 0.392,0.204 0.752,0.532 1.064,0.97 5.335,7.634 10.638,15.221 15.878,22.76 5.256,7.524 10.558,15.112 15.893,22.746l0 -44.99c0.094,-0.563 0.329,-1.001 0.704,-1.313 0.376,-0.314 0.829,-0.47 1.361,-0.47l9.057 0c0.626,0 1.174,0.188 1.627,0.563 0.454,0.376 0.672,0.877 0.672,1.502l0 65.747c0,1.283 -0.735,1.924 -2.205,1.924l-10.168 0c-0.688,0 -1.33,-0.423 -1.924,-1.267 -5.506,-7.978 -10.981,-15.956 -16.441,-23.933 -5.443,-7.963 -10.903,-15.956 -16.378,-23.966l0 47.102c0,0.688 -0.157,1.204 -0.485,1.548 -0.328,0.344 -0.892,0.516 -1.674,0.516l-9.01 0c-0.72,0 -1.236,-0.188 -1.564,-0.547 -0.329,-0.36 -0.5,-0.845 -0.5,-1.471l0 -65.606z"/>
  <path id="2" class="fil1" d="M250.762 211.936c0,-0.625 0.172,-1.126 0.516,-1.501 0.344,-0.376 0.86,-0.563 1.549,-0.563l7.649 0c0.532,0 1.033,0.187 1.502,0.563 0.469,0.375 0.704,0.876 0.704,1.501l0 21.572c0,0.375 -0.094,0.736 -0.282,1.079 -0.187,0.361 -0.532,0.689 -1.032,1.001 -0.032,0 -0.047,0 -0.047,0.016 0,0.016 -0.016,0.031 -0.047,0.031 -1.47,1.033 -3.051,1.972 -4.74,2.785 -1.69,0.829 -3.457,1.502 -5.303,2.065 -1.846,0.548 -3.739,0.969 -5.678,1.267 -1.94,0.297 -3.88,0.453 -5.82,0.453 -3.284,0 -6.46,-0.421 -9.526,-1.267 -3.065,-0.844 -5.913,-2.048 -8.557,-3.613 -2.643,-1.564 -5.053,-3.442 -7.227,-5.616 -2.174,-2.175 -4.051,-4.583 -5.616,-7.226 -1.564,-2.644 -2.768,-5.492 -3.613,-8.542 -0.845,-3.05 -1.267,-6.226 -1.267,-9.542 0,-3.285 0.422,-6.46 1.267,-9.511 0.845,-3.05 2.049,-5.897 3.613,-8.557 1.565,-2.659 3.442,-5.084 5.616,-7.274 2.174,-2.19 4.599,-4.066 7.259,-5.631 2.659,-1.564 5.522,-2.784 8.572,-3.645 3.051,-0.86 6.242,-1.282 9.558,-1.282 2.221,0 4.443,0.203 6.648,0.594 2.206,0.391 4.333,0.969 6.413,1.768 0.783,0.313 1.705,0.704 2.785,1.173 1.079,0.469 2.112,0.985 3.081,1.549 0.97,0.562 1.784,1.141 2.457,1.751 0.672,0.595 1.017,1.174 1.017,1.737 0,0.25 -0.141,0.657 -0.423,1.204 -0.281,0.548 -0.626,1.174 -1.048,1.862 -0.422,0.688 -0.907,1.392 -1.439,2.127 -0.532,0.735 -1.049,1.408 -1.549,2.003 -0.501,0.594 -0.954,1.079 -1.36,1.47 -0.407,0.391 -0.72,0.594 -0.939,0.594 -0.188,0 -0.407,-0.046 -0.673,-0.124 -0.266,-0.079 -0.547,-0.219 -0.829,-0.439 -1.971,-1.376 -4.192,-2.471 -6.664,-3.285 -2.472,-0.813 -4.99,-1.22 -7.556,-1.22 -3.347,0 -6.413,0.626 -9.197,1.877 -2.785,1.236 -5.178,2.925 -7.181,5.053 -2.002,2.112 -3.566,4.568 -4.692,7.368 -1.127,2.784 -1.69,5.725 -1.69,8.806 0,3.192 0.594,6.18 1.799,8.964 1.204,2.8 2.832,5.225 4.88,7.305 2.05,2.065 4.444,3.707 7.197,4.912 2.752,1.205 5.662,1.799 8.76,1.799 1.157,0 2.299,-0.094 3.425,-0.266 1.127,-0.172 2.175,-0.391 3.16,-0.657 0.986,-0.265 1.862,-0.563 2.644,-0.892 0.782,-0.328 1.424,-0.641 1.924,-0.954l0 -14.642z"/>
  <path id="3" class="fil1" d="M277.324 173.502c0,-0.563 0.187,-1.048 0.563,-1.455 0.375,-0.406 0.907,-0.61 1.595,-0.61l9.339 0c0.563,0 1.063,0.188 1.486,0.548 0.423,0.359 0.626,0.86 0.626,1.517l0 54.812 29.377 0c0.563,0 1.048,0.188 1.455,0.58 0.407,0.39 0.61,0.922 0.61,1.579l0 8.588c0,0.564 -0.188,1.049 -0.564,1.471 -0.374,0.422 -0.875,0.641 -1.501,0.641l-40.922 0c-1.376,0 -2.064,-0.688 -2.064,-2.064l0 -65.607z"/>
  <path id="4" class="fil1" d="M331.902 173.502c0,-0.563 0.172,-1.048 0.516,-1.455 0.344,-0.406 0.86,-0.61 1.548,-0.61l9.34 0c0.531,0 1.032,0.188 1.501,0.563 0.469,0.376 0.704,0.877 0.704,1.502l0 65.607c0,1.376 -0.735,2.064 -2.205,2.064l-9.34 0c-1.376,0 -2.064,-0.688 -2.064,-2.064l0 -65.607z"/>
  <path id="5" class="fil1" d="M400.418 190.021c-0.407,0 -0.782,-0.109 -1.127,-0.313 -0.344,-0.203 -0.735,-0.469 -1.173,-0.813l-0.094 -0.048c-0.594,-0.594 -1.36,-1.251 -2.299,-1.971 -0.939,-0.719 -1.986,-1.392 -3.144,-2.017 -1.158,-0.626 -2.394,-1.158 -3.723,-1.596 -1.33,-0.438 -2.691,-0.657 -4.067,-0.657 -1.752,0 -3.302,0.203 -4.646,0.594 -1.346,0.392 -2.472,0.924 -3.379,1.596 -0.908,0.673 -1.596,1.455 -2.065,2.362 -0.469,0.923 -0.704,1.893 -0.704,2.925 0,1.127 0.344,2.112 1.048,2.957 0.704,0.845 1.658,1.595 2.863,2.253 1.204,0.656 2.58,1.267 4.145,1.814 1.564,0.547 3.207,1.095 4.928,1.627 1.97,0.594 3.926,1.236 5.85,1.924 1.94,0.689 3.801,1.455 5.569,2.33 1.752,0.861 3.41,1.816 4.943,2.863 1.533,1.048 2.847,2.253 3.957,3.614 1.111,1.361 1.987,2.879 2.628,4.568 0.642,1.674 0.955,3.55 0.955,5.662 0,3.411 -0.689,6.493 -2.065,9.261 -1.377,2.753 -3.27,5.115 -5.694,7.071 -2.425,1.955 -5.272,3.457 -8.541,4.505 -3.269,1.048 -6.789,1.58 -10.543,1.58 -2.409,0 -4.803,-0.282 -7.181,-0.845 -2.377,-0.563 -4.661,-1.361 -6.851,-2.393 -2.19,-1.033 -4.255,-2.285 -6.21,-3.739 -1.955,-1.455 -3.708,-3.081 -5.241,-4.896l0 0.046 -0.093 -0.187c-0.689,-0.782 -1.033,-1.502 -1.033,-2.159 0,-0.344 0.094,-0.672 0.282,-0.985 0.187,-0.313 0.469,-0.657 0.844,-1.033l1.549 -1.548c0.469,-0.407 0.97,-0.86 1.502,-1.361 0.532,-0.501 1.063,-0.954 1.595,-1.361 0.532,-0.407 1.033,-0.751 1.486,-1.032 0.454,-0.282 0.814,-0.423 1.095,-0.423 0.439,0 0.845,0.141 1.221,0.423 0.375,0.281 0.688,0.547 0.938,0.797l0.188 0.188 -0.047 0c1.095,1.032 2.331,2.018 3.691,2.956 1.361,0.939 2.754,1.768 4.193,2.503 1.439,0.735 2.878,1.315 4.301,1.736 1.424,0.423 2.754,0.642 4.005,0.642 1.721,0 3.332,-0.219 4.834,-0.657 1.502,-0.438 2.8,-1.064 3.895,-1.861 1.095,-0.799 1.956,-1.753 2.581,-2.894 0.626,-1.127 0.939,-2.378 0.939,-3.755 0,-1.376 -0.407,-2.565 -1.221,-3.55 -0.813,-0.986 -1.877,-1.847 -3.191,-2.582 -1.314,-0.735 -2.784,-1.376 -4.426,-1.909 -1.643,-0.531 -3.302,-1.032 -4.96,-1.501 -3.816,-1.158 -7.148,-2.409 -10.011,-3.754 -2.862,-1.346 -5.256,-2.863 -7.164,-4.537 -1.909,-1.674 -3.332,-3.566 -4.287,-5.647 -0.954,-2.081 -1.439,-4.426 -1.439,-7.023 0,-2.91 0.595,-5.57 1.768,-7.963 1.173,-2.409 2.847,-4.458 5.006,-6.163 2.174,-1.705 4.771,-3.034 7.821,-3.989 3.035,-0.954 6.43,-1.439 10.184,-1.439 2.847,0 5.741,0.438 8.682,1.329 2.941,0.892 5.662,2.128 8.165,3.692 0.751,0.469 1.518,1.002 2.3,1.596 0.782,0.594 1.501,1.189 2.159,1.798 0.656,0.611 1.204,1.205 1.626,1.784 0.423,0.579 0.626,1.079 0.626,1.486 0,0.375 -0.094,0.751 -0.281,1.142 -0.188,0.391 -0.423,0.751 -0.704,1.064l-1.408 1.502 0 -0.047c-0.47,0.5 -0.955,1.016 -1.455,1.548 -0.501,0.532 -1.001,1.001 -1.502,1.424 -0.5,0.422 -0.954,0.782 -1.361,1.063 -0.406,0.282 -0.751,0.423 -1.032,0.423z"/>
  <path id="6" class="fil1" d="M422.756 173.502c0,-0.532 0.188,-1.001 0.547,-1.424 0.36,-0.422 0.845,-0.641 1.47,-0.641l9.387 0c0.531,0 1.032,0.204 1.501,0.61 0.469,0.407 0.704,0.892 0.704,1.455l0 24.309 31.442 0 0 -24.309c0,-0.563 0.188,-1.048 0.563,-1.455 0.376,-0.406 0.877,-0.61 1.502,-0.61l9.245 0c0.626,0 1.173,0.188 1.627,0.548 0.454,0.359 0.673,0.844 0.673,1.47l0 65.654c0,1.376 -0.735,2.064 -2.206,2.064l-9.339 0c-1.376,0 -2.065,-0.688 -2.065,-2.064l0 -28.439 -31.442 0 0 28.439c0,1.376 -0.766,2.064 -2.3,2.064l-9.292 0c-1.345,0 -2.017,-0.641 -2.017,-1.924l0 -65.747z"/>
 </g>
</svg>
