<?xml version="1.0" encoding="UTF-8"?>
<!DOCTYPE svg PUBLIC "-//W3C//DTD SVG 1.1//EN" "http://www.w3.org/Graphics/SVG/1.1/DTD/svg11.dtd">
<!-- Creator: CorelDRAW 2020 (64-Bit) -->
<svg xmlns="http://www.w3.org/2000/svg" xml:space="preserve" width="394px" height="281px" version="1.1" style="shape-rendering:geometricPrecision; text-rendering:geometricPrecision; image-rendering:optimizeQuality; fill-rule:evenodd; clip-rule:evenodd"
viewBox="0 0 149.387 106.469"
 xmlns:xlink="http://www.w3.org/1999/xlink"
 xmlns:xodm="http://www.corel.com/coreldraw/odm/2003">
 <defs>
  <style type="text/css">
   <![CDATA[
    .fil0 {fill:#F4CA14}
    .fil1 {fill:#0E82BD;fill-rule:nonzero}
   ]]>
  </style>
 </defs>
 <g id="Layer_x0020_1">
  <metadata id="CorelCorpID_0Corel-Layer"/>
  <rect class="fil0" width="149.387" height="106.469"/>
  <path class="fil1" d="M17.643 38.425c0,-0.918 0.439,-1.377 1.318,-1.377l16.614 0c1.971,0 3.787,0.391 5.446,1.162 1.66,0.771 3.085,1.796 4.285,3.085 1.201,1.298 2.128,2.772 2.792,4.441 0.664,1.679 0.996,3.416 0.996,5.232 0,1.786 -0.322,3.494 -0.976,5.154 -0.654,1.65 -1.572,3.114 -2.753,4.392 -1.181,1.279 -2.587,2.304 -4.227,3.075 -1.64,0.771 -3.426,1.162 -5.378,1.162l-9.625 0 0 14.554c0,0.839 -0.439,1.259 -1.317,1.259l-5.886 0c-0.86,0 -1.289,-0.42 -1.289,-1.259l0 -40.88zm22.959 12.475c0,-0.811 -0.157,-1.601 -0.469,-2.382 -0.312,-0.771 -0.742,-1.464 -1.288,-2.07 -0.547,-0.595 -1.211,-1.083 -1.972,-1.454 -0.762,-0.381 -1.591,-0.566 -2.489,-0.566l-8.249 0 0 12.943 8.249 0c0.878,0 1.698,-0.175 2.459,-0.537 0.762,-0.351 1.426,-0.829 1.982,-1.425 0.556,-0.605 0.996,-1.288 1.308,-2.069 0.312,-0.781 0.469,-1.591 0.469,-2.44z"/>
  <path id="1" class="fil1" d="M53.545 38.337c0,-0.391 0.127,-0.703 0.381,-0.937 0.253,-0.235 0.576,-0.352 0.966,-0.352l30.777 0c0.352,0 0.674,0.108 0.957,0.323 0.283,0.214 0.439,0.536 0.478,0.966l0 5.144c0,0.4 -0.117,0.742 -0.361,1.035 -0.244,0.293 -0.605,0.439 -1.074,0.439l-11.128 0 0 34.262c0,0.351 -0.117,0.664 -0.361,0.937 -0.244,0.273 -0.585,0.41 -1.015,0.41l-5.74 0c-0.351,0 -0.673,-0.127 -0.956,-0.381 -0.283,-0.253 -0.42,-0.575 -0.42,-0.966l0 -34.262 -11.157 0c-0.39,0 -0.713,-0.127 -0.966,-0.371 -0.254,-0.244 -0.381,-0.605 -0.381,-1.103l0 -5.144z"/>
  <path id="2" class="fil1" d="M93.986 38.454c0,-0.937 0.429,-1.406 1.288,-1.406l28.259 0c0.508,0 0.869,0.147 1.084,0.43 0.215,0.283 0.322,0.634 0.322,1.074l0 5.173c0,0.351 -0.117,0.664 -0.361,0.937 -0.244,0.273 -0.615,0.41 -1.103,0.41l-20.821 0 0 8.902 16.047 0c0.391,-0.039 0.703,0.049 0.938,0.254 0.234,0.205 0.351,0.547 0.351,1.035l0 5.33c0,0.351 -0.098,0.663 -0.293,0.937 -0.195,0.273 -0.507,0.41 -0.937,0.41l-16.106 0 0 10.6 21.582 0c0.547,0 0.908,0.117 1.084,0.352 0.175,0.234 0.263,0.595 0.263,1.093l0 5.349c0,0.82 -0.429,1.23 -1.288,1.23l-29.021 0c-0.351,0 -0.654,-0.097 -0.907,-0.293 -0.254,-0.195 -0.381,-0.507 -0.381,-0.937l0 -40.88z"/>
  <polygon class="fil1" points="26.628,22.462 24.708,22.462 23.722,20.311 23.128,21.14 23.128,22.462 21.472,22.462 21.472,16.739 23.128,16.739 23.128,19.1 24.701,16.739 26.277,16.739 24.834,18.83 "/>
  <path id="1" class="fil1" d="M31.989 22.462l-1.433 0 -1.573 -2.524c-0.203,-0.325 -0.401,-0.719 -0.599,-1.188 0.093,0.369 0.139,0.682 0.139,0.939l0 2.773 -1.424 0 0 -5.723 1.656 0 1.334 2.097c0.266,0.416 0.466,0.783 0.602,1.099 -0.091,-0.489 -0.135,-0.989 -0.135,-1.501l0 -1.695 1.433 0 0 5.723z"/>
  <path id="2" class="fil1" d="M35.456 22.547c-0.805,0 -1.461,-0.267 -1.969,-0.8 -0.507,-0.534 -0.76,-1.247 -0.76,-2.141 0,-0.853 0.243,-1.56 0.728,-2.117 0.484,-0.557 1.158,-0.836 2.018,-0.836 0.797,0 1.448,0.264 1.949,0.788 0.502,0.525 0.752,1.226 0.752,2.102 0,0.908 -0.253,1.636 -0.759,2.184 -0.506,0.547 -1.158,0.82 -1.959,0.82zm-0.007 -1.295c0.298,0 0.512,-0.13 0.642,-0.389 0.13,-0.259 0.196,-0.732 0.196,-1.42 0,-0.996 -0.269,-1.494 -0.805,-1.494 -0.579,0 -0.868,0.568 -0.868,1.704 0,1.066 0.279,1.599 0.835,1.599z"/>
  <polygon id="3" class="fil1" points="45.929,16.739 44.413,22.462 42.939,22.462 42.137,19.303 41.379,22.462 39.842,22.462 38.327,16.739 39.979,16.739 40.775,20.027 41.565,16.739 42.939,16.739 43.784,20.034 44.585,16.739 "/>
  <polygon id="4" class="fil1" points="54.85,16.739 54.85,22.462 53.22,22.462 53.22,18.369 52.154,22.462 51.04,22.462 49.942,18.369 49.942,22.462 48.63,22.462 48.63,16.739 50.919,16.739 51.748,19.779 52.54,16.739 "/>
  <path id="5" class="fil1" d="M58.316 22.547c-0.805,0 -1.462,-0.267 -1.969,-0.8 -0.508,-0.534 -0.761,-1.247 -0.761,-2.141 0,-0.853 0.243,-1.56 0.728,-2.117 0.485,-0.557 1.158,-0.836 2.019,-0.836 0.796,0 1.447,0.264 1.949,0.788 0.502,0.525 0.752,1.226 0.752,2.102 0,0.908 -0.253,1.636 -0.759,2.184 -0.507,0.547 -1.159,0.82 -1.959,0.82zm-0.008 -1.295c0.298,0 0.512,-0.13 0.643,-0.389 0.13,-0.259 0.195,-0.732 0.195,-1.42 0,-0.996 -0.268,-1.494 -0.805,-1.494 -0.579,0 -0.868,0.568 -0.868,1.704 0,1.066 0.279,1.599 0.835,1.599z"/>
  <path id="6" class="fil1" d="M66.859 22.462l-1.946 0 -0.842 -2.188 -0.541 0 0 2.188 -1.758 0 0 -5.723 2.988 0c0.659,0 1.171,0.155 1.536,0.464 0.364,0.308 0.546,0.716 0.546,1.222 0,0.33 -0.067,0.622 -0.202,0.875 -0.134,0.253 -0.406,0.476 -0.816,0.669l1.035 2.493zm-3.329 -3.406l0.751 0c0.22,0 0.398,-0.046 0.532,-0.139 0.134,-0.093 0.202,-0.229 0.202,-0.409 0,-0.368 -0.225,-0.55 -0.675,-0.55l-0.81 0 0 1.098z"/>
  <polygon id="7" class="fil1" points="71.998,21.098 71.998,22.462 67.691,22.462 67.691,16.739 71.998,16.739 71.998,18.061 69.416,18.061 69.416,18.893 71.501,18.893 71.501,20.162 69.416,20.162 69.416,21.098 "/>
  <path id="8" class="fil1" d="M77.995 22.462l-0.316 -1.124 -1.557 0 -0.338 1.124 -1.424 0 1.77 -5.723 1.856 0 1.801 5.723 -1.792 0zm-1.554 -2.377l0.915 0 -0.459 -1.657 -0.456 1.657z"/>
  <path id="9" class="fil1" d="M80.304 22.462l0 -5.723 2.906 0c0.603,0 1.044,0.152 1.321,0.456 0.276,0.305 0.415,0.652 0.415,1.043 0,0.284 -0.08,0.542 -0.241,0.772 -0.158,0.23 -0.397,0.389 -0.713,0.476 0.739,0.179 1.108,0.623 1.108,1.334 0,0.426 -0.13,0.805 -0.392,1.14 -0.261,0.334 -0.821,0.502 -1.677,0.502l-2.727 0zm1.613 -3.535l0.819 0c0.206,0 0.351,-0.052 0.435,-0.154 0.084,-0.103 0.127,-0.213 0.127,-0.331 0,-0.317 -0.197,-0.476 -0.592,-0.476l-0.789 0 0 0.961zm0 2.265l0.862 0c0.215,0 0.372,-0.053 0.472,-0.159 0.1,-0.104 0.15,-0.224 0.15,-0.356 0,-0.133 -0.048,-0.254 -0.146,-0.364 -0.097,-0.112 -0.276,-0.168 -0.534,-0.168l-0.804 0 0 1.047z"/>
  <path id="10" class="fil1" d="M88.289 22.547c-0.805,0 -1.462,-0.267 -1.969,-0.8 -0.508,-0.534 -0.761,-1.247 -0.761,-2.141 0,-0.853 0.243,-1.56 0.728,-2.117 0.485,-0.557 1.158,-0.836 2.019,-0.836 0.796,0 1.447,0.264 1.949,0.788 0.502,0.525 0.752,1.226 0.752,2.102 0,0.908 -0.253,1.636 -0.759,2.184 -0.507,0.547 -1.159,0.82 -1.959,0.82zm-0.008 -1.295c0.298,0 0.512,-0.13 0.643,-0.389 0.13,-0.259 0.195,-0.732 0.195,-1.42 0,-0.996 -0.268,-1.494 -0.805,-1.494 -0.579,0 -0.868,0.568 -0.868,1.704 0,1.066 0.279,1.599 0.835,1.599z"/>
  <path id="11" class="fil1" d="M96.386 16.739l0 3.788c0,0.718 -0.213,1.234 -0.639,1.549 -0.426,0.314 -0.982,0.471 -1.667,0.471 -0.722,0 -1.302,-0.151 -1.739,-0.453 -0.438,-0.302 -0.656,-0.792 -0.656,-1.474l0 -3.881 1.784 0 0 3.674c0,0.274 0.059,0.473 0.174,0.599 0.116,0.126 0.302,0.188 0.557,0.188 0.211,0 0.386,-0.045 0.522,-0.135 0.135,-0.092 0.217,-0.193 0.243,-0.309 0.027,-0.115 0.04,-0.338 0.04,-0.669l0 -3.348 1.381 0z"/>
  <polygon id="12" class="fil1" points="99.67,18.112 99.67,22.462 98.006,22.462 98.006,18.112 96.822,18.112 96.822,16.739 100.854,16.739 100.854,18.112 "/>
 </g>
</svg>
