<?xml version="1.0" encoding="UTF-8"?>
<!DOCTYPE svg PUBLIC "-//W3C//DTD SVG 1.1//EN" "http://www.w3.org/Graphics/SVG/1.1/DTD/svg11.dtd">
<!-- Creator: CorelDRAW 2020 (64-Bit) -->
<svg xmlns="http://www.w3.org/2000/svg" xml:space="preserve" width="125.865mm" height="33.9002mm" version="1.1" style="shape-rendering:geometricPrecision; text-rendering:geometricPrecision; image-rendering:optimizeQuality; fill-rule:evenodd; clip-rule:evenodd"
viewBox="0 0 10141.24 2731.41"
 xmlns:xlink="http://www.w3.org/1999/xlink"
 xmlns:xodm="http://www.corel.com/coreldraw/odm/2003">
 <defs>
  <style type="text/css">
   <![CDATA[
    .fil2 {fill:#1E78C2}
    .fil1 {fill:#1E78C2}
    .fil4 {fill:#999A9A}
    .fil0 {fill:#A1D2F8}
    .fil3 {fill:#A1D2F8}
   ]]>
  </style>
 </defs>
 <g id="Layer_x0020_1">
  <metadata id="CorelCorpID_0Corel-Layer"/>
  <path class="fil0" d="M1928.49 2055.03c-78.35,53.48 -4.64,110.64 -4.64,110.65l-192.95 171.66 -140.38 40.12c-11.94,-52.94 -4.17,-62.87 13.83,-101.16 24.03,-51.13 5.66,-45.28 46.44,-71.79 57.17,-43.15 87.45,10.8 129.81,-44.66 21.54,-28.21 4.19,-86.93 5.33,-132.51 -27.54,31.02 -140.94,123.53 -160.73,166.89 -90.98,-40.52 -18.7,-50.66 -117.43,-2.24 -9.92,-80.6 1.74,-48.74 16.57,-99.64 31.01,-106.48 -33.05,6.75 -3.13,-66.15 91.82,-67.7 115.65,63.82 147.33,-17.11 15.22,-38.88 -0.03,-66.18 -34.52,-71.89 -43.16,-7.14 -51.76,20.01 -71.93,35.65 -43.25,-82.57 -30.3,-151.77 -47.05,-245.84 -25.29,-142.01 -18.65,-56.74 0.52,-98.68 22.82,-49.9 15.8,-48.57 11.76,-101.55 71.72,19.93 86.78,60.11 108.35,134.12 22.83,78.28 7.73,26.15 -15.61,84.76 -20.92,52.57 -6.66,72.72 15.24,98.1 39.83,-12.41 30.05,9.82 44.75,-48.83 29.38,-117.2 -69.89,-143.97 -43.91,-198.56 18.65,-17.07 26.99,-17.98 42.81,-32.75 80.14,-74.8 18.13,2.84 95.79,-69.57l13.6 13.15c1.56,1.46 4.66,4.66 6.36,6.16 4.56,4.06 99.94,51.88 106.36,108.36 -16.88,109.84 -67.38,32.54 -40.05,169.68 38.07,13.88 243.13,63.97 276.17,54.46 -51.43,-42.2 -120.26,-48.57 -172.67,-84.34 -77.91,-53.16 -88.56,-280.87 166.91,-203.53 98.14,29.71 39.2,-6.08 79.44,-12.71 36.2,-5.95 33.73,43.12 33.1,81.86 -159.07,126.3 -217.26,-71.65 -263.16,32.83 60.74,34.08 165.45,48.96 211.36,102.16 40.67,47.11 64.05,132.79 -72.53,159.07l38.81 30.1c-14.51,48.8 -45.18,108.06 -68.93,150.87 -41.42,74.64 -36.31,26 -109.93,72.28l-51.08 -119.43zm-240.58 -1791.46c-0.44,-0.22 -67.16,-15.95 -28.31,-74.36 34.85,-52.41 40.48,33.99 49.14,-79.71 4.56,1.38 31.99,10.1 32.58,10.16 30.09,2.91 25.92,-3.5 45.24,-19.58l13.51 -13.24c62.6,88.95 39.61,-29.92 110.11,95.52 51.95,92.45 -35.02,63.51 -27.33,143.65 6.33,66.07 70.27,73.74 132.56,76.35 55.13,2.3 141.14,39.08 173.45,13.46 -94.51,-67.91 -257.04,-42.36 -250.91,-200.9 6.04,-156.42 174.32,-98.08 210,-94 114.11,13.06 -15.23,-23.82 79.44,-16.15 52.9,64.42 26.81,132.3 -47.09,140.24 -89.23,9.6 -104.03,-73.01 -173.59,-42.7 11.63,46.43 76.46,52.84 166.97,94.91 81.93,38.09 116.52,54.06 92.46,170.26 -15.73,28.55 -76.86,32.8 -102.4,51.37l20.46 59.98c70.33,14.64 14.32,1.44 76.93,-24.7l-4.79 308.66c-93.6,-26.55 -39.46,-15.55 -142.23,10.1 -14.38,-107.86 -18.35,-61.77 -40.39,-100.51 56.56,-77.88 44.24,-29.6 98.32,-76.05 -23.75,-35.22 -77.74,-56.31 -115.77,-60.72 15.05,90.07 47.26,-37.61 29.56,66.57 -7.78,45.8 -109.33,142.6 -129.95,177.81 -63.96,-36.39 -50.1,-33.98 -146.07,-16.44 10.18,-95.45 37.29,-40.26 28.51,-115.73 -0.19,-1.65 -1.16,-5.79 -1.32,-7.27 -10.87,-99.73 163.7,73.95 130.7,-46.42 -10.65,-38.83 -47.61,-35.23 -19.47,-136.48 -72.31,-6.43 -61.2,11.51 -79.73,55.44 -36.94,87.61 -107.55,67.43 -175.19,243.96 -67.74,-21.89 -65.38,-25.18 -154.61,9.28 9.64,-83.63 18.27,-64.25 21.65,-68.65l9.39 -50.65c-37.03,-40.87 -25.29,-4.95 -33.1,-48.35 88.79,-47.01 142.89,42.2 177.55,-63.97 12.01,-36.82 10.4,-20.43 -2.82,-51.06 -51.14,2.22 -37.17,3.42 -63.39,46.84l-60.81 -63.07c-30.27,-53.33 -93.71,-267.09 -93.78,-276.75 -0.23,-26.92 56.4,-37.93 23.86,-172.67 106.23,44.44 103.58,115.94 114,139.7 10.76,24.53 11.51,5.38 26.97,45.65 -9.03,76.16 -71.51,110.62 -1.89,175.48 60.38,-22.94 63.25,-106.03 48.38,-169.65l-16.77 -45.61zm-267.13 2301.12c439.46,-212.35 758.05,-320.45 865.96,-837.27 48.91,-234.21 32.45,-567.88 28.44,-815.59 -4.62,-285.14 1.43,-572.8 -0.28,-858.36l-891.54 -6.16 3.08 911.07 886.81 0.06 0.39 480.07 -889.55 1.85 -3.31 1124.32z"/>
  <path class="fil0" d="M4407.11 1085.75l178.89 -0.19 4.17 -503.32c78.73,-74.61 264.57,-147.53 276.59,37.65 9.49,146.13 -13.54,324.2 4.35,465.26l179.3 -0.6 2.14 -518.84c23.95,-9.06 260.21,-161.47 279.1,56.49 12.42,143.35 -14.8,325.61 5.88,463.55l174.16 -0.16c15.72,-119.02 20.29,-550.82 -31.95,-633.38 -127.87,-202.05 -344.03,-73.2 -459.81,-4.54 -13.33,-10.49 -7.13,-5.97 -21.07,-20.72l-60.79 -54.64c-37.55,-21.01 -84.25,-28.37 -131.28,-26.15 -130.78,6.2 -154.19,66.21 -230.54,92.19 -50.36,-36.41 -59.74,-71.19 -169.84,-103.2l0.71 750.59z"/>
  <path class="fil0" d="M7102.78 2044.3c94.85,-73.18 261.41,-136.6 276.27,58.44 11.07,145.29 -9.13,307 3.96,453.75l178.35 -4.62 2.09 -514.89c52.86,-19.3 100.73,-67.11 181.58,-61.32 171.13,12.26 63.4,314.11 101.46,580.88l175.89 -0.17c14.82,-122.92 21.03,-546.28 -33.73,-632.55 -119.97,-189.01 -311.64,-100.2 -458.78,-4.44l-28.7 -27.53c-56.39,-56.97 -95.98,-84.52 -196.47,-76.15 -99.51,8.29 -153.18,64.3 -218.51,94.26 -70.44,-49.84 -59.39,-72.31 -170.6,-102.6l4.96 749.25 177.7 -0.73 4.52 -511.58z"/>
  <path class="fil0" d="M8239.01 1089.71c46.51,-0.31 192.56,24.84 242.33,37.59 96.62,24.77 134.56,101.88 32.14,147.29 -138.87,61.58 -411.66,7.68 -274.47,-184.88zm110.46 -628.9c175.53,-38.42 222.51,227.33 65.26,260.91 -187.35,40 -213.25,-228.51 -65.26,-260.91zm-157.58 349.62c-11.34,17.72 -3.39,5.85 -18.27,22.02 -100.39,109.13 -60.94,129.5 -19.79,211.65 -135.95,48.07 -178.61,227.47 -29.12,325.06 139.35,90.97 517.53,85.7 608.09,-103.74 43.29,-90.56 6.88,-162.77 -43.1,-207.76 -106.6,-95.95 -304.18,-40.53 -410.31,-133.15 -10.38,-155.98 147.89,22.62 321.04,-133.61 97.12,-87.63 106.27,-217.32 36.15,-345.67 89.6,-17.23 107.85,-43.42 130.09,-123.7 -282.82,-21.26 -680.34,-53.37 -685.99,260.55 -2.32,128.76 55.1,177.57 111.21,228.35z"/>
  <path class="fil1" d="M1420.78 2564.69c-49.54,23.02 -201.96,111.24 -241.57,110.01 -30.89,-0.95 -210.32,-95.95 -235.28,-116.17 -101.78,-31.25 -242.49,-115.86 -345.19,-166.47 -117.39,-57.83 -221.57,-127.7 -290.1,-204.42 -166.8,-186.73 -261.52,-411.55 -254.58,-751.23l-0.92 -461.26 0 -18.4 -0.77 -909.55 885.67 -0.07 12.72 0.5 472.6 -0.31 891.54 6.16c1.72,285.56 -4.34,573.21 0.28,858.36 4.01,247.71 20.47,581.38 -28.44,815.59 -107.91,516.81 -426.5,624.92 -865.96,837.27zm-1420.78 -992.19c20.58,50.98 44.27,234.09 71.81,319.81 98.35,306.05 297.25,441.04 590.63,587.93 72.44,36.28 483.83,255.12 526.26,251.1 35.85,-3.38 444.73,-217.5 516.77,-253.3 409.8,-203.65 615.92,-400.2 654,-919.41l3.36 -1558.64 -2362.83 0.85 0 1571.65z"/>
  <path class="fil0" d="M277.13 267.93c-11.83,-5.75 -29.28,20.35 -35.12,-81.92 60.32,-43.38 53,27.36 59.03,-76.99l55.72 22.35c17.07,-51.16 10.94,-33.86 36.23,-45.44l12.3 26.71 28.84 7.29c39.6,3.85 -5.38,-9.01 24.49,-0.27 26.45,7.74 16.2,14.12 29.59,39.46 21.74,41.15 41.32,43.46 30.82,76.38 -17.4,54.57 -13.66,19.14 -26.21,28.69 -45.95,172.33 96.93,123.29 198.87,148.53 47.91,11.87 57.3,29.12 90.62,3.75 -74.83,-47.43 -179.93,-46.28 -230.65,-119.53 -63.32,-91.46 -7.59,-199.6 116.19,-190.26 24.66,1.86 57.98,12.92 73,14.41 96.08,9.56 13.58,-9.29 61.48,-12.43 44.95,-2.94 59.74,63.98 30.94,101.74 -75.35,98.82 -159.73,-31.94 -235.76,-11.68 31.95,88.88 322.84,89.75 263.25,252.23 -22.79,62.15 -67.77,32.95 -107.11,65.78l19.77 64.88c30.26,2.58 26.56,-0.19 64.75,-19.81 1.54,-0.79 4.7,-3.61 7.49,-4.37 11.98,123.28 -0.14,188.61 0.73,303.46 -96.86,-19.1 -29.42,-16.51 -138.59,12.04 -18.27,-134.93 -20.12,-36.39 -43.86,-100.84 45.14,-64.87 46.06,-36.29 98.96,-75.75 -23.2,-35.4 -67.56,-46.69 -103.69,-61.16l-11.07 35.84c69.09,-12.11 19.85,-5.06 36.57,12.64 -37.91,103.91 -94.79,128.3 -135.1,196.43 -62.58,-27.43 -55.78,-33.78 -147.45,-16.61 7.3,-58.72 11.88,-54.35 39.34,-89.27 -21.34,-47.55 -17.23,-12.4 -28.76,-45.02 92.64,-43.47 162.55,61.23 150.11,-27.88 -5.99,-42.89 -58.8,-48.01 -21.63,-142.93 -65,-8.96 -57.39,8.45 -79.82,54.04 -32.95,66.95 -94.33,85.58 -178.68,240.31 -51.36,1.63 -4.74,-43.06 -152.6,18.93 3.67,-42.15 1.17,-44.18 23.46,-72.43l14.33 -71.95c15.21,-25.19 13.45,-17.34 -11.54,-7.43 -65,8.02 -19.6,6.16 -32.55,-10.82 68.2,-59.51 60.52,-14.56 140.5,-16.28 22.15,-22.14 63.44,-59.23 39.95,-109.81 -76.83,1.34 -21.51,9.94 -75.96,49.11 -162.05,-255.91 -74.53,-196.43 -144.05,-341.34 15.3,-36.52 22.54,-26.64 32.29,-74.69 7.57,-37.33 -0.97,-61.15 -8.37,-97.4 96.69,33.94 88.97,62.52 109.31,119.79 50.27,141.5 41.78,24.41 4.46,147.92 -14.26,47.19 7.09,78.08 49.23,92.7 35.22,-34.65 46.47,-141.03 10.72,-203.53 -0.89,-1.56 -3.43,-4.87 -4.75,-7.53zm-223.99 688.82l887.53 -0.38 -2.63 -909.25 -885.67 0.07 0.77 909.55z"/>
  <path class="fil0" d="M3264.4 1843.78c17.16,-37.47 -26.67,48.92 9.45,-17.41l125.8 328 -241.6 -1.42 106.36 -309.17zm-262.43 712.44c23.33,-43.32 37.04,-88.09 54.56,-134.35 8.44,-22.31 14.23,-43.19 23.03,-65.75 33.31,-85.42 55.69,-52.57 382.52,-51.64 23.11,78.9 54.16,186.95 98.31,251l194.19 -0.95 -402.83 -1008.86 -131.92 0c-44.87,25.91 -183.09,423.52 -210.22,499.73 -57.05,160.29 -152.62,356.45 -191.37,510.8l183.72 0.02z"/>
  <path class="fil0" d="M5832.66 934.16c-9.48,-72.64 -13.66,-359.72 4.02,-421.82 173.87,-62.61 289.58,26.23 289.85,196.76 0.29,174.8 -117.05,259.64 -293.87,225.06zm-187.5 111.48c189.88,102.04 569.62,76.49 656.75,-233.7 39.87,-141.94 -4.05,-296.09 -83.3,-376.2 -103.72,-104.85 -220.24,-101.94 -390.21,-78.51l0.06 -354.74 -182.79 -1.63 -0.5 1044.78z"/>
  <path class="fil0" d="M7776.8 512.79c7.27,106.6 6.95,267.23 3.34,375.11 -2.48,74.33 -40.85,72.39 -122.78,62.24 -306.44,-37.97 -222.34,-545.47 119.43,-437.35zm1.68 -488.32l0.12 325.93c-107.76,9.23 -242.56,-28.06 -381.24,99.22 -78.64,72.18 -136.08,224.04 -102.68,380.92 59.47,279.42 394.24,321.87 666.44,223.79l0.3 -1046.7 -182.94 16.83z"/>
  <path class="fil0" d="M496.32 2130.17l45.26 -10.72c36.05,-1.57 -7.96,15.93 45.71,-0.2 13.97,-68.66 -52.4,-67.22 -10.9,-186.27 -62.19,11.09 -10.85,14.25 -60.73,89.45l-112.16 155.22c-49.65,-52.63 -21.71,-47.7 -113.62,-35.85 -2.16,-54.61 9.71,-55.52 12.37,-85.21 3.21,-35.9 -10.04,-7.86 -15.74,-46.59 55.53,-49.03 60.33,-31.05 112.98,-1.53 10.84,-40.84 -5.45,-68.15 -50.33,-76.99 -54.38,-10.71 -48.83,16.27 -82.94,43.39 -95.56,-65.61 -118.55,-202.09 -163.04,-315.13 49.62,-39.55 23.62,13.73 47.25,-77.11 0.84,-3.22 1.47,-6.91 2.39,-9.97l11.99 -27.99c52.44,25.74 10.26,3.93 25.91,25.21 44.77,19.19 65.98,78.3 66.24,129.7 0.21,40.91 -57.29,106.48 33.25,134.31 88.62,-173.64 -128,-184.94 25.09,-289.22 1.67,-1.14 5.1,-3.01 6.79,-3.97l54.39 -46.58c93.08,38.38 -9.42,34.33 98.56,30.83 25.73,102.71 58.08,47.42 42.45,117.07 -4.31,19.22 -113.89,136.54 30.09,166.51 56.46,11.75 220.93,50.27 244.14,28.68 -66.1,-60.36 -247.86,-20.46 -262.29,-178.1 -17.38,-190.09 164.34,-127.29 256.52,-80.4 42.15,-17.58 11.72,-19.04 40.81,-26.15 30.93,25.29 47.23,40.75 21.33,79.4l-77.65 51.64c-97.27,19.6 -98.76,-77.91 -175.74,-49.2 9.1,133.53 309.83,-0.69 270.09,259.76 -33.92,19.53 -43.59,27.51 -97.38,28.06l16.32 110.45c42.09,4.16 31.16,-12.61 58.99,7.37l1.76 266.25c-7.48,1.97 -11.91,1.29 -13.1,5.66 -6.3,23.12 -1.83,-13.29 -37.8,40.22 -16.68,24.82 -0.35,7.92 -19.8,30.85 -23.45,27.64 -3.56,8.7 -28.48,24.98l-34.77 -89.5c-16.85,-3.58 -69.47,36.36 -60.31,-47.42 4.62,-42.32 7.88,-30.58 37.9,-49.49 50.47,-31.79 23.16,6.63 51.74,-40.09 21.1,-57.4 7.48,-78.63 -42.65,-104.12 -22.54,40.83 70.19,-17.3 -114.08,221.34 -46.75,-28.05 -21.29,-48.17 -105.37,-27.81 4.57,-138.79 27.67,-18.45 -9.42,-129.45l27.98 -11.29zm447.61 428.36l1.67 -1120.76 -891.54 -1.36c-6.94,339.68 87.78,564.5 254.58,751.23 68.53,76.72 172.71,146.58 290.1,204.42 102.7,50.61 243.41,135.22 345.19,166.47z"/>
  <path class="fil0" d="M3626.51 1025.92c-24.78,-54.25 -33.03,-74.41 -37.31,-142.85 -128.25,56.3 -260.11,102 -409.4,30.65 -101.81,-48.66 -177.81,-168.33 -174.28,-331.33 3.45,-158.49 79.16,-268.09 185.43,-320.74 176.38,-87.38 279.73,-0.32 415.83,23.49l-0.22 -163.78c-405.11,-180.53 -801.56,88.15 -796.28,486.47 2.92,219.91 96.82,359.68 247.05,441.04 146.43,79.29 441.97,82.02 569.18,-22.95z"/>
  <path class="fil0" d="M4086.69 899.16c-56.67,78 -219.09,88.73 -240.48,-17.41 -27.8,-137.96 141.62,-124.31 240.62,-127l-0.14 144.41zm-381.28 -479.39l50.32 110.05c111.56,-12.71 346.14,-130.12 332.56,96.9 -115.99,15.89 -201.24,2.61 -305.5,49.18 -78.57,35.09 -139.73,112.25 -122.86,236.08 20.64,151.56 180.77,224.88 333.62,177.36 62.45,-19.43 69.28,-38.97 113.65,-66.21 44.08,13.94 91.09,59.16 169.1,83.46 -1.17,-159.33 28.15,-540.27 -40.41,-653.11 -95.59,-157.31 -371.09,-115.86 -530.47,-33.7z"/>
  <path class="fil0" d="M9053.49 2051.64c404.8,-275.38 257.26,239.24 290.42,504.88l176.48 0c16.94,-118.63 17.19,-551.52 -29.73,-639.27 -120.18,-224.76 -449,-7.87 -452.28,-6.72 -58.28,-50.51 -77.13,-77.17 -169.02,-103.81l4.62 749.8 179.24 0.01 0.27 -504.89z"/>
  <path class="fil0" d="M8958.8 650.55c21.79,-221.57 258.73,-221.47 280.19,-0.82l-280.19 0.82zm442.86 386.02l-54.12 -120.96c-79.13,27.17 -151.8,61.36 -248.33,36 -77.07,-20.26 -139.62,-84.04 -133.47,-174.37l457.15 -0.04c-0.91,-167.08 -29.96,-360.49 -214.29,-414.89 -209.02,-61.69 -356.96,52.93 -408.9,209.62 -57.27,172.78 -6.32,370.87 105.43,460.3 119.34,95.5 364.51,88.62 496.53,4.33z"/>
  <path class="fil0" d="M8305.08 2116.9c8.51,-92.38 41,-157.24 137.71,-159.36 98.7,-2.15 133.77,72.01 142.52,162.17l-280.23 -2.81zm391.78 265.11c-84.04,29.42 -150.38,65.81 -254,37.64 -79.48,-21.61 -130.91,-77.04 -134.28,-173.46l460.43 -4.52c-0.67,-206.95 -47.11,-356.53 -217.35,-411.8 -164.65,-53.46 -333.43,18.48 -401.14,197.1 -74.96,197.79 -6.84,385.04 107.52,476.65 146.07,117.01 335.03,64.05 493.21,7.03l-54.4 -128.63z"/>
  <path class="fil0" d="M5148.07 2117.35c8.41,-93.67 39.89,-158.14 138.27,-159.84 97.52,-1.69 132.94,72.76 142,162.16l-280.27 -2.32zm391.87 264.72c-81.8,25.53 -149.89,67.55 -253.72,37.81 -78.26,-22.41 -132.19,-80.88 -134.4,-173.66l459.99 -5.43c-0.62,-215.71 -51.49,-355.97 -216.85,-410.65 -403.79,-133.52 -574.51,459.07 -292.67,672.96 151.86,115.25 327.99,68.85 491.13,7.3l-53.47 -128.34z"/>
  <path class="fil0" d="M6325.6 2383.4l-39.67 136.2c182.58,75.17 491.45,84.27 530.29,-114.87 25.99,-133.23 -32.14,-203.91 -112.95,-247.89 -99.87,-54.36 -225.03,-38.88 -213.93,-172.05 94.37,-44.83 166.22,-17.18 265.96,3.42l35.91 -135.15c-386.85,-152.8 -586.32,134.59 -445.82,306.65 61.23,74.98 272.59,107.14 293.77,177.3 50.78,168.19 -313.28,46.43 -313.58,46.4z"/>
  <path class="fil0" d="M4701.87 2317.35c22.49,193.17 -231.51,84.37 -315.78,60.76 -22.17,37.18 -37.24,90.97 -36.8,140.24 518.05,202.9 678.34,-225.15 414.67,-362 -42.28,-21.94 -90.44,-35.56 -135.17,-54.72 -60.45,-25.9 -89.29,-36.43 -75.34,-111.38 76.85,-49.62 176.55,-22.29 268.19,-1.39l36.7 -140.07c-568.52,-142.09 -559.02,261.73 -387.16,359.72 79.76,45.47 159.38,56.76 230.68,108.84z"/>
  <path class="fil0" d="M10141.24 2521.76l0 -24.91 -49.32 -104.43c-223.87,75.12 -191.72,29.71 -186.39,-411.5 189.84,-32.95 124.34,21.59 219.48,-136.51l-220 -11.8c-18.59,-151.1 26.02,-186.73 -29.92,-213.48l-148.91 45.3 -6.08 168.71 -127.6 0.03 2.22 142.55 129.39 0.31c2.26,115.02 -18.88,428.95 24.03,507.43 70.59,129.1 262.7,90.62 393.11,38.31z"/>
  <path class="fil0" d="M5717.42 2379.2l-34.53 145.98c201.01,48.17 466.29,103.78 528.06,-118 80.19,-287.89 -286.1,-247.61 -331.88,-379.81 28.53,-110.61 178.52,-57.05 269.05,-41.34l39.31 -135.88c-455.77,-153.68 -685.89,246.52 -296.76,396.51 57.08,22 129.2,39.22 143.01,89.03 21.94,79.07 -55.4,93.91 -125.86,93.02 -86.82,-1.1 -121.35,-34.11 -190.41,-49.52z"/>
  <path class="fil0" d="M3788.56 2377.42c40.68,151.19 34.82,195.66 204.63,195.21 332.41,-0.89 368.71,-294.7 189.76,-405.6 -94.45,-58.54 -247,-48.15 -228.91,-181.25 88.19,-45.95 168.67,-16.03 265.22,1.88l36.45 -141.25c-128.06,-27.19 -265.57,-56.95 -383.93,8.84 -106.07,58.95 -146.46,209.04 -56.55,312.11 58.09,66.59 269.47,101.28 287.42,169.39 18.84,71.47 -58.47,91.8 -122.04,91.96 -76.42,0.19 -129.46,-31.62 -192.04,-51.28z"/>
  <path class="fil1" d="M671.04 2295.63c9.57,-50.58 17.69,-53.92 66.67,-71.67 -10.31,58.02 -11.97,53.55 -66.67,71.67zm-174.73 -165.45c3.67,0.51 32,3.65 32.7,3.91 46.59,16.99 18.8,7.65 37.35,23.96l-61.19 5.2c-16.11,-23.96 -7.98,3.25 -8.86,-33.07zm96.24 -179.67c29.6,3.29 40.8,-27.62 56.88,76.99 8.4,54.67 4.86,53.85 28.56,92.29l-30.18 34.4c-18.86,23.6 -1.99,2.84 -17.86,21.63 -24.49,28.99 -0.1,-18.03 -26.63,36.99 -10.52,21.84 -11.9,31.08 -17.96,48.04 -9.46,-12.17 -8.33,-9.6 -18,-29.47l-7.02 -16.84c-0.64,-1.51 -1.43,-5.25 -2.59,-7.7 -28.55,33.02 -9.14,19.22 -59.73,31.72 18.81,-92.11 85.74,-54.14 112.62,-106.94 25.16,-49.46 -51.78,-94.13 -18.1,-181.09zm-275.87 64.19c1.03,-0.64 -10.61,-22.41 25.51,-11.09 33.79,10.6 12.03,-0.95 31.21,32.16 -59.69,4.01 -31.62,11.46 -56.72,-21.08zm-88.51 -334.45c5.95,9.98 8.41,0.98 10.45,27.83 2.72,35.89 3.24,1.5 -9.65,24.79 -25.7,-28.52 -17,-20.3 -0.8,-52.62zm-37.47 -110.36l22.9 74.6c-5.53,134.12 -45.06,20.44 38.19,211.58l64.43 -16.04 13.29 63.81 -63.32 28.92c-37.98,-31.94 -8.19,-11.16 -17.61,-27.1l-6.37 -11.16c-1.05,-1.22 -3.84,-3.75 -5.08,-4.96 -60.49,-59.34 -10.18,-4.09 -44.77,-70.49 -18.81,-36.13 -7.4,16.36 -22.39,-37.44 -14.92,-53.56 1.94,-26.23 -1.6,-44.73 -3.63,-18.95 -26.29,-44.55 -36.47,-65.86 7.6,-4.07 12.33,-3.01 25.37,-5.95 6.28,-1.42 2.59,31.58 12.68,-3.23 0.68,-2.35 4.3,-1.04 6.22,-2.09 -6.78,-30.88 -23.75,-75.27 14.51,-89.86zm516.31 176.82c8.43,-23.74 -1.13,-11.62 17.18,-28.13l19.22 20.55c51.7,21.66 145.26,29.14 80.31,146.96 -76.62,20.73 -71.19,2.83 -134.58,-5.83 46.77,28.22 39.73,36.74 54.59,99.22 18.39,77.3 11.84,58.33 74.45,85.92 4.6,44.3 1.26,24.26 -4.12,55.02 -0.42,2.4 -1.78,5.9 -2.17,8.15 -0.35,2.07 -1.47,5.58 -1.74,7.54l0.65 29.24c3.34,67.81 -14.81,9.83 6.63,102.87l-40.52 12.67c5.72,57 1.62,54.91 -27.44,85.15 -50.17,-108.14 51.39,-175.75 12.92,-264.41 -17.38,-40.07 -63.35,-49.83 -86.45,-78.24 -35.63,-43.85 -24.92,-125.52 -67.22,-122.14l-96.74 2.61c-12.66,-0.79 -24.86,-24.65 -22.79,19.57 1.93,41.2 10.5,18.35 17.7,65.91 -33.63,20.92 -40.88,37.66 -58.95,67.57 -25.45,42.11 -10.97,41.68 -45.55,78.29l-12.75 -65.38c-44.65,42.24 -9.23,30.13 -75.8,41.51 23.79,-101.79 62.47,-24.66 121.06,-121.99 -20.01,-71 -98.46,-90.93 -106.73,-154.92 -9.17,-70.95 28.24,-27.76 16.12,-87.33 -10.51,-51.63 -23.37,-41.95 -15.54,-111.65 -23.66,14.38 -25.93,36.35 -43.65,3.57 -19.39,-35.85 2.83,-36.21 20.77,-53.44l35.44 -22.29c64.3,-29.72 10.33,-10.94 55.65,-43.4 33.07,82.84 0.6,35.48 64.68,32 12.5,84.34 64.23,52.65 22.79,96.96 -50.02,53.48 -3.44,60.55 -51.69,113.02 2.3,1.68 6.19,1.1 7.12,4.69 0.93,3.61 5.7,3.88 6.97,4.96 1.29,1.1 5.22,3.96 6.76,5.39 1.57,1.45 4.84,4.2 6.52,5.88 9.24,9.33 15.22,17.59 22.7,29.09 -2.65,2.14 -7.28,1.33 -8.39,5.83 -5.74,23.35 -20.68,-8.46 -30.4,44.37 -8.66,-4.7 -28.34,-21.88 -28.55,-21.99 -25.17,-12.5 -3.26,-3.2 -24.39,-3.96 -25.88,-0.93 1.44,20.37 -46.39,-25.45 8.36,60.36 14.22,72.16 67.62,75.98 85.62,6.12 35.67,-23.16 111.94,-44.28 108.56,-30.08 188.29,48.88 286.78,21.65 2.61,-51.96 0.01,-53.64 -44.69,-70.61 -69.52,-26.38 -217.52,-28.65 -217.88,-146.58 -0.22,-69.37 56.5,-111.29 129.33,-94.88 68.89,15.53 78.82,63.86 125.51,47.16l32.36 -21.68c-12.62,80.74 -35.88,52.5 -98.83,47.18l35.31 32.67c-116.36,3.21 -73.56,-78.49 -195.49,-54.37 -10.36,44.19 -7.14,90.12 29.78,108.86 48.38,24.56 37.8,-15.23 100.55,34.94zm-516.31 -176.82c-15.65,-21.28 26.52,0.53 -25.91,-25.21l-11.99 27.99c-0.92,3.07 -1.56,6.75 -2.39,9.97 -23.63,90.84 2.38,37.55 -47.25,77.11 44.48,113.04 67.48,249.52 163.04,315.13 34.11,-27.12 28.56,-54.1 82.94,-43.39 44.87,8.84 61.16,36.14 50.33,76.99 -52.65,-29.52 -57.45,-47.5 -112.98,1.53 5.7,38.73 18.96,10.69 15.74,46.59 -2.66,29.68 -14.53,30.59 -12.37,85.21 91.92,-11.85 63.97,-16.78 113.62,35.85l112.16 -155.22c49.88,-75.2 -1.47,-78.36 60.73,-89.45 -41.49,119.05 24.87,117.6 10.9,186.27 -53.67,16.13 -9.66,-1.37 -45.71,0.2l-45.26 10.72 -27.98 11.29c37.09,111 13.99,-9.34 9.42,129.45 84.09,-20.36 58.62,-0.23 105.37,27.81 184.28,-238.64 91.54,-180.51 114.08,-221.34 50.12,25.49 63.75,46.72 42.65,104.12 -28.59,46.72 -1.27,8.3 -51.74,40.09 -30.02,18.91 -33.28,7.17 -37.9,49.49 -9.16,83.78 43.46,43.84 60.31,47.42l34.77 89.5c24.92,-16.28 5.04,2.66 28.48,-24.98 19.46,-22.93 3.13,-6.03 19.8,-30.85 35.97,-53.51 31.5,-17.1 37.8,-40.22 1.19,-4.37 5.62,-3.69 13.1,-5.66l-1.76 -266.25c-27.83,-19.98 -16.9,-3.21 -58.99,-7.37l-16.32 -110.45c53.79,-0.56 63.46,-8.53 97.38,-28.06 39.74,-260.46 -260.99,-126.23 -270.09,-259.76 76.98,-28.71 78.46,68.79 175.74,49.2l77.65 -51.64c25.9,-38.65 9.6,-54.1 -21.33,-79.4 -29.09,7.11 1.34,8.57 -40.81,26.15 -92.17,-46.88 -273.9,-109.69 -256.52,80.4 14.42,157.65 196.19,117.75 262.29,178.1 -23.21,21.59 -187.68,-16.94 -244.14,-28.68 -143.98,-29.97 -34.4,-147.29 -30.09,-166.51 15.64,-69.65 -16.72,-14.37 -42.45,-117.07 -107.98,3.5 -5.48,7.55 -98.56,-30.83l-54.39 46.58c-1.69,0.97 -5.12,2.83 -6.79,3.97 -153.09,104.28 63.53,115.58 -25.09,289.22 -90.54,-27.84 -33.04,-93.4 -33.25,-134.31 -0.26,-51.4 -21.47,-110.5 -66.24,-129.7z"/>
  <path class="fil2" d="M1660.07 2255.89l-20.3 -9.8c10.51,-17.56 10.81,-27.8 28.81,-34.84 67.27,-26.3 41.51,7.68 47.36,12.34l-55.88 32.3zm-111.82 -215.84c1.94,-1.2 1.56,-20.36 33.17,-10.42 63.26,19.89 8.13,-3.04 33.93,30.86 -43.81,4.29 -37.09,10.89 -67.1,-20.44zm237.67 -12.7c8.12,-56.8 -3.96,-40.08 41.88,-57.34 -18.65,45.16 -2.76,26.8 -41.88,57.34zm-226.71 -460.97c91.03,65.86 -13.67,186.26 38.71,270.66 29.27,47.17 49.58,17.23 78.83,25.54l-4.8 51.62 -108.06 8.94c-6.28,-75.02 -3.18,-12.42 13.23,-52.6 -51.07,-35.31 -27.55,-37.14 -26.34,-73.24 3.63,-108.53 -16.38,-78.62 -15.98,-113.51 0.03,-2.74 0.68,-6.71 1.14,-9.39l16.21 -31.19c5.38,-18.23 -3.63,-52.95 7.05,-76.83zm431.82 504.62l-51.29 8.47 2.62 -41.76c-2.01,66.25 7.42,5.05 -13.87,17.32l6.03 -55.62 -4.82 -28.6c-30.33,98.21 -85.84,56.07 -44.24,194.65l-83.4 57.43c-1.54,1.25 -14.63,12.58 -18.77,16.05l-26.19 23.26c-13.24,15.93 -19.16,32.96 -37.35,53.23 -21.42,-12.29 2.84,4.84 -15.22,-14.01l-22.17 -24.03c-15.1,58.87 -16.19,53.47 -76.65,65.57 5.68,-54.24 25.74,-57.87 54.35,-87.08 75.17,-23.4 111.66,-70.15 164.13,-111.91 -0.31,-14.66 -42.35,-167.37 81.59,-213.89l33.36 15.92 18.25 -14.06 -11.47 -38.37c-18.34,43.82 -7.49,11 -45.93,13.62 -50.09,3.42 -32.55,6.34 -73.65,19.02 -73.07,22.55 -47.37,-31.96 -61.08,75.21 -48.17,34.85 4.42,-23.66 -66.29,63.2l-57.85 57.47c-16.87,23.33 -8.13,8.9 -17.49,38.1l-23.08 -52.75c-26.29,31.83 -14.04,25.63 -70.19,33.35 32,-112.69 134,-41.04 162.3,-132.18 16.41,-52.86 -14.95,-138 8.44,-207.63 14.96,-44.54 -8.39,-15.07 30.78,-36.22 -30.15,-51.02 -20.63,-50.37 -36.99,-117.71 -12.95,-0.7 -18.52,54.14 -42.5,-38.42l69.33 -46.74c69.07,-22.86 -46.6,33.7 21,-3.61 11.98,-6.61 15.39,-19.13 32.01,-36.06l51.72 43.8c30.69,12.79 37.29,25.42 54.46,68.36 -41.91,67.49 -19.3,-23.18 -44.66,49.81 -17.04,49.04 9.52,40.96 -38.13,74.13 2.65,2.11 6.95,1.64 8.11,6.11l43.27 60.11c-132.86,45.67 -42.43,-14.11 -114.53,36.72l-17.2 -50.9c-22.13,170.72 110.15,48.66 163.97,32.96 107.72,-31.42 179.51,41.12 278.69,25.45 -4.5,-54.75 4.31,-45.55 -43.35,-70.15 -61.03,-31.5 -187.74,-41.02 -180.69,-150.65 9.63,-149.76 195.86,-65.24 216.37,-60.82 70.13,15.09 33.79,-18.23 68.68,-3.47 -17.29,83.25 -102.5,8.88 -161.33,-6.71 18.04,8.35 94.03,55.18 117.72,69.65 -99.76,17.07 -156.34,-96.1 -205.91,-28.86 -20.26,27.48 -23.22,72.27 28.72,89.99l115.02 29.87c37.69,22.97 2.01,12.18 30.83,31.67 9,6.09 43.24,-7.76 47.58,55.84 7.61,111.82 -124.4,60.93 -175.82,42.74 27.05,43.51 46.76,68.99 104.12,96.12l-29.78 53.51c-46.47,75.83 -16.29,135.93 -62.13,63.14 -16.77,39.75 -16.17,34.39 -40.23,53.3l0.81 -62.94zm-205.11 -43.65c-1.14,45.58 16.2,104.3 -5.33,132.51 -42.36,55.46 -72.64,1.51 -129.81,44.66 -40.78,26.51 -22.41,20.66 -46.44,71.79 -18,38.29 -25.77,48.21 -13.83,101.16l140.38 -40.12 192.95 -171.66c0,-0.01 -73.71,-57.17 4.64,-110.65l51.08 119.43c73.63,-46.28 68.51,2.36 109.93,-72.28 23.75,-42.82 54.42,-102.07 68.93,-150.87l-38.81 -30.1c136.59,-26.28 113.2,-111.96 72.53,-159.07 -45.92,-53.19 -150.63,-68.08 -211.36,-102.16 45.89,-104.49 104.08,93.46 263.16,-32.83 0.63,-38.74 3.1,-87.82 -33.1,-81.86 -40.25,6.62 18.7,42.42 -79.44,12.71 -255.47,-77.34 -244.82,150.37 -166.91,203.53 52.4,35.77 121.24,42.14 172.67,84.34 -33.03,9.51 -238.1,-40.58 -276.17,-54.46 -27.33,-137.15 23.17,-59.84 40.05,-169.68 -6.42,-56.48 -101.8,-104.3 -106.36,-108.36 -1.7,-1.51 -4.79,-4.71 -6.36,-6.16l-13.6 -13.15c-77.66,72.41 -15.66,-5.24 -95.79,69.57 -15.82,14.77 -24.16,15.68 -42.81,32.75 -25.98,54.6 73.29,81.36 43.91,198.56 -14.7,58.65 -4.91,36.42 -44.75,48.83 -21.9,-25.37 -36.17,-45.53 -15.24,-98.1 23.33,-58.61 38.43,-6.49 15.61,-84.76 -21.58,-74.01 -36.64,-114.19 -108.35,-134.12 4.04,52.98 11.06,51.65 -11.76,101.55 -19.17,41.95 -25.81,-43.32 -0.52,98.68 16.75,94.07 3.8,163.27 47.05,245.84 20.17,-15.63 28.76,-42.78 71.93,-35.65 34.48,5.71 49.74,33.01 34.52,71.89 -31.68,80.93 -55.51,-50.59 -147.33,17.11 -29.92,72.9 34.15,-40.33 3.13,66.15 -14.83,50.9 -26.48,19.04 -16.57,99.64 98.73,-48.42 26.45,-38.28 117.43,2.24 19.79,-43.36 133.19,-135.87 160.73,-166.89z"/>
  <path class="fil0" d="M6602.71 438.4c-57.83,-75.9 34.19,-76.26 -182.29,-71.36l0.27 715.54 182.3 6.29c15.16,-328.01 -55.8,-508.65 81.88,-578.51 80.59,-40.9 118.92,-9.11 190.08,13.44l-3.14 -164.14c-176.65,-23.32 -181.9,15.2 -269.09,78.74z"/>
  <path class="fil2" d="M2096.25 771.14c15.88,-25.21 4.97,-38.15 46.47,-24.1 -8.2,24.88 22.97,38.97 -46.47,24.1zm-242.26 -36.47l66.08 3.9c-19.7,20.08 31.68,35.61 -40.29,21.01 -17.6,-3.58 -16.5,-12.82 -25.79,-24.9zm162.87 -192.18c34.01,121.4 -24.35,54.33 46.92,157.83l-114.39 144.62 -4.18 -52.01c-36.85,15.45 -39.46,34.62 -71.99,37.96 -60.46,6.2 -17.19,0.19 -32.49,-7.78 39.34,-82.26 153.65,-33.02 157.86,-113.76 3.88,-74.4 -112.19,-124.08 18.27,-166.86zm-328.95 -278.91l2.26 -16.63c-48.95,-74.17 13.51,-18.85 35.69,-105.18 30.2,11.3 19.76,18.05 39.21,8.35l35.01 -34.48c90.68,115.87 6.92,-25.28 72.46,49.87 38.42,44.06 31.97,41.25 30.67,74.46l-60.01 126.77c42.15,21.06 17.2,-8.74 44.26,38.02 -1.94,1.47 -5.71,2.38 -6.7,2.92l-17.43 10.26c-1.01,0.8 -3.68,3.43 -4.63,4.28l-21.4 18.65c-36.14,12.26 -12.56,-41.79 -45.55,39 -79.23,-61.31 7.41,-61.6 -44.44,-36.82 -3.51,16.72 18.76,48.46 40.1,72.64 193.22,-150.92 313.26,-60.9 402.06,-75.29 2.67,-0.44 8.56,0.68 10.47,-3.39 1.93,-4.11 7.15,-2.13 10.38,-3.95 15.61,-89.44 -215.95,-64.76 -252.79,-186.74 -21.53,-71.31 29.89,-120.93 95.82,-123.03 49.09,-1.56 57.13,12.08 97.73,21.86 82.72,19.95 32.26,8.12 78.28,-17.23l3.94 51.78c-61.19,3.6 -77.33,-9.14 -128.11,-23.13 37.12,27.66 59.71,26.21 94.01,51.52 -100.44,29.63 -104.43,-75.29 -196.29,-30.79 -32.48,39.98 -16.79,65.7 0.02,100.96 59.5,10.49 -30.79,-24.96 44.38,-4 38.53,10.74 26.15,11.16 42.43,43.22l14.73 -27.9 31.02 10.67c41.53,24.16 11.19,14.37 36.43,33.86 6.76,5.22 128.5,47.92 56.73,119.38 -44.32,40.46 -80.7,9.61 -143.25,-0.79 2.17,2.97 5.16,6.65 6.74,8.77l50.87 94.42c26.44,64.42 19.1,36.97 92.79,59.04l-2.84 211.84c-39.37,-20.05 -14.9,20.04 -35.56,-43.15 -34.44,42.73 -7.22,38.39 -55.06,54.61 -34.93,-75.14 61.91,-66.62 45.77,-175.61 -60.24,-42.79 -63.89,-16.61 -122.2,-79.94 -36.34,-39.46 -46.56,-71.69 -81.76,-111.04l-6.61 42.45c-210.62,7.56 -115.45,55.04 -142.71,100.8l-48.27 63.81 -22.91 -15.81c-26.89,152 -20.76,-40.52 -79.12,165.33 -30.51,-16.77 -24.9,-28.92 -36.57,-52.93 -31.56,28.93 -29.67,40.36 -76.06,56.59 -11.19,-14.31 -9.47,27.34 -11.57,-34.19 -3.38,4.4 -12.01,-14.98 -21.65,68.65 89.23,-34.46 86.87,-31.17 154.61,-9.28 67.64,-176.53 138.25,-156.35 175.19,-243.96 18.52,-43.94 7.42,-61.87 79.73,-55.44 -28.14,101.25 8.82,97.65 19.47,136.48 33,120.37 -141.57,-53.31 -130.7,46.42 0.16,1.48 1.14,5.62 1.32,7.27 8.77,75.46 -18.33,20.27 -28.51,115.73 95.97,-17.53 82.11,-19.94 146.07,16.44 20.63,-35.21 122.18,-132.01 129.95,-177.81 17.69,-104.18 -14.51,23.5 -29.56,-66.57 38.03,4.41 92.01,25.5 115.77,60.72 -54.08,46.45 -41.76,-1.83 -98.32,76.05 22.04,38.74 26.01,-7.35 40.39,100.51 102.78,-25.65 48.63,-36.64 142.23,-10.1l4.79 -308.66c-62.61,26.14 -6.6,39.34 -76.93,24.7l-20.46 -59.98c25.54,-18.57 86.67,-22.83 102.4,-51.37 24.07,-116.19 -10.53,-132.17 -92.46,-170.26 -90.51,-42.07 -155.33,-48.49 -166.97,-94.91 69.56,-30.32 84.36,52.29 173.59,42.7 73.91,-7.94 100,-75.83 47.09,-140.24 -94.66,-7.66 34.67,29.22 -79.44,16.15 -35.68,-4.09 -203.95,-62.43 -210,94 -6.13,158.53 156.4,132.98 250.91,200.9 -32.31,25.62 -118.32,-11.15 -173.45,-13.46 -62.29,-2.61 -126.22,-10.28 -132.56,-76.35 -7.69,-80.14 79.28,-51.2 27.33,-143.65 -70.5,-125.44 -47.51,-6.57 -110.11,-95.52l-13.51 13.24c-19.32,16.07 -15.15,22.49 -45.24,19.58 -0.6,-0.06 -28.02,-8.78 -32.58,-10.16 -8.66,113.7 -14.29,27.3 -49.14,79.71 -38.84,58.41 27.87,74.14 28.31,74.36z"/>
  <path class="fil0" d="M1800.07 383.79c-29.83,-25.25 -42.66,-51.33 -47.13,-92.62l88.92 -3.58c-11.47,73.02 -13.31,71.89 -41.79,96.2zm-68.82 -188.02c37.16,19.59 61,21.54 43.46,66.21 -22.65,-10.75 -4.45,13.96 -26.98,-19.85 -14.27,-21.42 -10.01,-25.23 -16.49,-46.36zm96.55 69.82c-0.82,-0.81 -37.73,-9.32 -16.86,-40.24 9.69,-14.36 23.97,-16.71 47.71,-25.39l-30.85 65.63zm-137.63 -18.64l15.49 -13.79c0.55,-2.88 4.01,-2.71 8.08,-5.33l11.28 35.26 12.57 105.65c-49.38,87.8 13.3,136.71 14.79,213.81 1.42,73.56 -82.26,144.2 -130.81,163.09l-61.25 52.05c2.1,61.53 0.38,19.89 11.57,34.19 46.39,-16.23 44.5,-27.66 76.06,-56.59 11.67,24.01 6.06,36.16 36.57,52.93 58.37,-205.85 52.23,-13.33 79.12,-165.33l22.91 15.81 48.27 -63.81c27.26,-45.76 -67.91,-93.25 142.71,-100.8l6.61 -42.45c35.19,39.34 45.42,71.58 81.76,111.04 58.31,63.32 61.95,37.14 122.2,79.94 16.14,108.99 -80.7,100.47 -45.77,175.61 47.84,-16.22 20.63,-11.88 55.06,-54.61 20.66,63.18 -3.81,23.09 35.56,43.15l2.84 -211.84c-73.69,-22.06 -66.36,5.38 -92.79,-59.04l-50.87 -94.42c-1.59,-2.12 -4.58,-5.79 -6.74,-8.77 62.55,10.4 98.93,41.24 143.25,0.79 71.77,-71.45 -49.97,-114.15 -56.73,-119.38 -25.24,-19.5 5.1,-9.7 -36.43,-33.86 -23.02,26.23 -35.3,-36.18 -16.82,35.67l-28.93 -18.43c-16.28,-32.06 -3.9,-32.48 -42.43,-43.22 -75.17,-20.96 15.12,14.49 -44.38,4 -16.81,-35.26 -32.49,-60.98 -0.02,-100.96 91.86,-44.5 95.85,60.43 196.29,30.79 -34.3,-25.31 -56.89,-23.86 -94.01,-51.52 50.78,14 66.92,26.73 128.11,23.13l-3.94 -51.78c-46.01,25.36 4.45,37.18 -78.28,17.23 -40.6,-9.78 -48.64,-23.42 -97.73,-21.86 -65.92,2.1 -117.35,51.73 -95.82,123.03 36.85,121.99 268.41,97.31 252.79,186.74 -3.22,1.82 -8.44,-0.16 -10.38,3.95 -1.92,4.07 -7.8,2.96 -10.47,3.39 -88.81,14.39 -208.84,-75.63 -402.06,75.29 -21.34,-24.18 -43.61,-55.93 -40.1,-72.64 51.86,-24.78 -34.78,-24.49 44.44,36.82 32.99,-80.79 9.41,-26.74 45.55,-39l21.4 -18.65c0.95,-0.85 3.63,-3.48 4.63,-4.28l17.43 -10.26c0.99,-0.54 4.76,-1.44 6.7,-2.92 -27.06,-46.76 -2.11,-16.96 -44.26,-38.02l60.01 -126.77c1.3,-33.21 7.74,-30.41 -30.67,-74.46 -65.54,-75.15 18.23,66 -72.46,-49.87l-35.01 34.48c-19.44,9.7 -9.01,2.95 -39.21,-8.35 -22.17,86.32 -84.63,31.01 -35.69,105.18z"/>
  <path class="fil2" d="M735.01 768.92l-47.38 6.2c16.82,-35.22 -0.77,-15.9 34.93,-36.3 10.99,14.29 7.42,2.51 12.45,30.1zm-290.16 -36.16l64.78 8.63c-10.78,11.25 22.94,32.94 -37.29,17.81 -22.74,-5.7 -23.49,-21.03 -27.49,-26.44zm203.26 -61.74c4.88,36.56 -3.22,11.86 -33.35,94.99 -47.11,8.52 -34.75,34.01 -70.03,81.11 -1.99,-2.59 -4.51,-10.47 -4.87,-8.52 -0.35,1.88 -3.55,-6.88 -3.92,-8.59l0.21 -38.32c-20.44,13.39 -40.88,36.52 -70.27,39.28 -64.81,6.06 -16.19,0.95 -33.97,-7.86 35.15,-78.86 89.28,-18.23 157.16,-101.42 -6.01,-77.23 -89.83,-155.15 18.12,-177.85 30.94,69.86 5.22,65.47 15.45,101.13 13.76,48.02 -8.6,17.39 25.46,26.05zm-155.31 -406.82c-23.58,-7.49 -19.72,-1.93 -34.57,-19.28 -2.44,46.4 -9.31,87.87 -23.96,121.83 45.32,19.4 20.95,-10.35 47.03,38.02 -2.09,1.52 -6.39,-0.06 -7.16,2.97l-45.56 33.9c-46.6,18.42 3.97,-39.98 -48.28,36.81l-37.33 -38.29c-0.65,-0.47 -3.19,-2.59 -5.08,-2.56 -4.6,26.48 14.49,52.71 42.41,78.79 19.14,-15.18 14.64,-14.74 34.7,-25.78 231.57,-127.34 242.13,-26.04 367.62,-49.97l21.08 -7.07c15.89,-92.5 -217.47,-62.22 -252.25,-187.82 -20.75,-74.93 28.58,-119.83 95.11,-122.19 66.88,-2.37 36.97,18.84 156.06,24.6 39.94,1.93 -15.99,-24.05 21.67,3.08 -25.96,68.78 -35.29,19.6 -132.28,5.86 0.7,0.23 93.71,46.23 101.24,52.05 -84.04,20.41 -75.21,-22.59 -141.58,-39.25 -82.63,-20.75 -85.01,38.49 -68.46,97.98 80.62,31.09 -18.28,-35.05 63.65,9.81 35.9,19.66 9.04,17.26 50.37,46.18 24.16,-35.63 -20.82,-12.26 23.35,-28.37 34.33,23.2 27.87,34.91 54.56,46.74 22.77,10.09 46.84,-12.78 60.45,53.28 22.69,110.07 -95.82,66.9 -158.92,56.82l20.45 26.51c69.67,93.62 -0.07,83.97 100.2,131.09 22.11,10.39 33.37,-13.63 28.64,96.72l-6 29.71c-0.27,2.22 -0.96,5.8 -1.12,8.19 -0.18,2.6 -0.31,6.2 -0.35,9.02 -0.19,14.11 5.07,48.98 4.69,72.77 -44.46,-26.22 -6.81,-11.82 -51.94,-47.54 -2.91,54.59 5.76,47.86 -47.62,60.18l11.43 -70.07c131.67,-114.66 -18.43,-116.88 -71.94,-177.86 -27.6,-31.46 -61.21,-84.58 -85.01,-117.67l-2.99 42.7c-179.09,-3.75 -145.96,34.76 -144.43,101.84 -14.73,13.81 -25.48,28.68 -36.62,43.8 -40.05,41.08 4.32,-14.35 -34.23,20.77l-34.48 39.11c-38.44,36.47 -15.38,36.59 -59.1,104.32 -13.29,-15.31 -24.1,-28.7 -16.4,-57.3 -20.97,21.86 -48.62,48.44 -85.01,62.53l-11.25 -31.94c-22.29,28.26 -19.79,30.29 -23.46,72.43 147.86,-61.99 101.24,-17.31 152.6,-18.93 84.34,-154.73 145.73,-173.36 178.68,-240.31 22.43,-45.59 14.83,-63 79.82,-54.04 -37.18,94.92 15.63,100.05 21.63,142.93 12.45,89.11 -57.46,-15.59 -150.11,27.88 11.53,32.62 7.43,-2.54 28.76,45.02 -27.46,34.92 -32.04,30.55 -39.34,89.27 91.67,-17.17 84.87,-10.81 147.45,16.61 40.32,-68.12 97.19,-92.52 135.1,-196.43 -16.72,-17.7 32.52,-24.75 -36.57,-12.64l11.07 -35.84c36.13,14.47 80.49,25.76 103.69,61.16 -52.9,39.46 -53.81,10.89 -98.96,75.75 23.74,64.45 25.59,-34.09 43.86,100.84 109.17,-28.55 41.73,-31.14 138.59,-12.04 -0.87,-114.85 11.25,-180.18 -0.73,-303.46 -2.79,0.76 -5.95,3.58 -7.49,4.37 -38.19,19.62 -34.48,22.39 -64.75,19.81l-19.77 -64.88c39.34,-32.83 84.32,-3.63 107.11,-65.78 59.6,-162.48 -231.3,-163.35 -263.25,-252.23 76.04,-20.26 160.41,110.5 235.76,11.68 28.8,-37.76 14.01,-104.68 -30.94,-101.74 -47.89,3.14 34.61,21.99 -61.48,12.43 -15.02,-1.5 -48.34,-12.55 -73,-14.41 -123.78,-9.34 -179.51,98.81 -116.19,190.26 50.72,73.25 155.82,72.1 230.65,119.53 -33.32,25.36 -42.71,8.11 -90.62,-3.75 -101.94,-25.24 -244.82,23.8 -198.87,-148.53z"/>
  <path class="fil0" d="M405.75 354.15l-12.77 28.18c-39.71,-25.8 -44.57,-46.02 -50.08,-93.45l90.27 3.28 -27.43 61.98zm-82.59 -157.82c34.83,19.33 60.82,22.45 44.47,65.16 -35.4,-13.48 -31.37,-9.89 -44.47,-65.16zm96.21 69.45c-0.53,-0.56 -36.33,-8.68 -15.61,-40.75 8.9,-13.78 21.06,-16.07 45.88,-26.42l-30.27 67.16zm-139.88 -13.37l37.18 1.1c4.66,42.84 1.64,67.4 28.07,94.66l-29.22 57.56c-11.58,66.52 29.95,149.49 27.85,188.85 -3.6,67.35 -87.45,133.69 -128.85,150.98l-29.75 22.08c-29.89,22.21 -6.93,-4.24 -31.21,31.57l11.25 31.94c36.39,-14.09 64.04,-40.67 85.01,-62.53 -7.7,28.6 3.11,41.99 16.4,57.3 43.72,-67.73 20.66,-67.84 59.1,-104.32l34.48 -39.11c38.55,-35.12 -5.83,20.31 34.23,-20.77l2.91 -43.6 33.71 -0.2c-1.53,-67.08 -34.65,-105.6 144.43,-101.84l2.99 -42.7c23.8,33.08 57.41,86.2 85.01,117.67 53.51,60.99 203.61,63.2 71.94,177.86l-11.43 70.07c53.38,-12.32 44.71,-5.59 47.62,-60.18 45.14,35.72 7.49,21.32 51.94,47.54 0.38,-23.79 -4.87,-58.66 -4.69,-72.77 0.04,-2.83 0.17,-6.42 0.35,-9.02 0.16,-2.38 0.85,-5.96 1.12,-8.19l6 -29.71c4.74,-110.35 -6.53,-86.32 -28.64,-96.72 -100.27,-47.12 -30.53,-37.47 -100.2,-131.09l-20.45 -26.51c63.1,10.08 181.61,53.25 158.92,-56.82 -13.62,-66.06 -37.68,-43.19 -60.45,-53.28 -26.69,-11.83 -20.22,-23.54 -54.56,-46.74 -44.17,16.11 0.81,-7.26 -23.35,28.37 -41.33,-28.92 -14.46,-26.52 -50.37,-46.18 -81.93,-44.86 16.97,21.28 -63.65,-9.81 -16.55,-59.49 -14.17,-118.72 68.46,-97.98 66.38,16.66 57.54,59.66 141.58,39.25 -7.53,-5.82 -100.54,-51.82 -101.24,-52.05 96.99,13.74 106.32,62.92 132.28,-5.86 -37.65,-27.13 18.27,-1.15 -21.67,-3.08 -119.09,-5.76 -89.18,-26.97 -156.06,-24.6 -66.53,2.35 -115.85,47.26 -95.11,122.19 34.77,125.6 268.14,95.32 252.25,187.82l-21.08 7.07c-125.49,23.93 -136.05,-77.37 -367.62,49.97 -20.06,11.03 -15.56,10.6 -34.7,25.78 -27.92,-26.08 -47.01,-52.32 -42.41,-78.79 1.89,-0.03 4.43,2.09 5.08,2.56l37.33 38.29c52.25,-76.79 1.68,-18.39 48.28,-36.81l45.56 -33.9c0.77,-3.02 5.07,-1.44 7.16,-2.97 -26.08,-48.37 -1.71,-18.62 -47.03,-38.02 14.66,-33.96 21.52,-75.43 23.96,-121.83 15.77,-22.21 -24.27,-25.94 18.44,-16.21l12.96 13.82c14.42,-42.61 5.24,-28.15 -8.91,-52.58l-25.64 -48.94 -41.79 27.16 -8.02 -55.51c-47.31,13.21 -27.13,0.47 -50.17,50.56l-34.23 -20.01c-22.2,74.3 2.25,23.25 -54.68,59.31l13.29 49.91z"/>
  <polygon class="fil0" points="6980.78,1038.6 6982.19,1088.53 7164.24,1088.4 7166.63,1038.61 7166.27,363.98 6980.82,364.06 "/>
  <path class="fil0" d="M352.54 1697.78c26.59,-10.41 65.12,-8.87 88.86,5.95l-46.79 64.45c-31.79,-20.93 -34.05,-21.34 -42.07,-70.4zm-23.78 -62.34c14.82,-25.62 -1.69,-16.24 24.85,-21.5 43.43,25.15 21.71,-1.99 28.92,51.31l-46.18 -25.22c-1.22,-3.66 -4.98,-3.19 -7.58,-4.58zm76.28 28.13c5.69,-45.31 -4.76,-41.57 47.07,-51.22 -5.55,40.7 -1.17,30.93 -47.07,51.22zm331.83 -38.96c-45.08,-16.91 -47.37,-26.11 -79.07,-52.06 22.81,5.88 23.83,3.4 45.78,16.22 44.88,26.2 19.52,10.68 33.28,35.84zm-408.11 10.83c-7.82,69.69 5.04,60.02 15.54,111.65 12.12,59.58 -25.29,16.38 -16.12,87.33 8.27,63.99 86.73,83.92 106.73,154.92 -58.59,97.33 -97.27,20.19 -121.06,121.99 66.58,-11.38 31.15,0.73 75.8,-41.51l12.75 65.38c34.58,-36.61 20.09,-36.18 45.55,-78.29 18.07,-29.91 25.32,-46.65 58.95,-67.57 -7.2,-47.56 -15.77,-24.71 -17.7,-65.91 -2.08,-44.22 10.13,-20.36 22.79,-19.57l96.74 -2.61c42.3,-3.38 31.59,78.29 67.22,122.14 23.1,28.42 69.07,38.18 86.45,78.24 38.47,88.66 -63.1,156.28 -12.92,264.41 29.06,-30.24 33.16,-28.14 27.44,-85.15l40.52 -12.67c-21.44,-93.04 -3.29,-35.06 -6.63,-102.87l-0.65 -29.24c0.27,-1.96 1.39,-5.47 1.74,-7.54 0.39,-2.26 1.75,-5.75 2.17,-8.15 5.37,-30.76 8.72,-10.72 4.12,-55.02 -62.6,-27.59 -56.05,-8.62 -74.45,-85.92 -14.86,-62.48 -7.82,-71 -54.59,-99.22 63.39,8.66 57.96,26.56 134.58,5.83 64.94,-117.82 -28.61,-125.31 -80.31,-146.96l-20.79 6.24c-17.15,4.24 2.67,6.19 -15.61,1.34 -62.76,-50.16 -52.17,-10.38 -100.55,-34.94 -36.92,-18.74 -40.14,-64.68 -29.78,-108.86 121.93,-24.12 79.13,57.58 195.49,54.37l-35.31 -32.67c62.95,5.32 86.21,33.56 98.83,-47.18l-32.36 21.68c-46.69,16.7 -56.62,-31.63 -125.51,-47.16 -72.84,-16.41 -129.55,25.51 -129.33,94.88 0.35,117.93 148.36,120.2 217.88,146.58 44.69,16.97 47.3,18.64 44.69,70.61 -98.49,27.23 -178.22,-51.73 -286.78,-21.65 -76.27,21.13 -26.32,50.41 -111.94,44.28 -53.4,-3.82 -59.27,-15.62 -67.62,-75.98 47.83,45.82 20.51,24.53 46.39,25.45 21.13,0.77 -0.78,-8.54 24.39,3.96 0.22,0.11 19.89,17.29 28.55,21.99 9.72,-52.83 24.66,-21.02 30.4,-44.37 1.1,-4.5 5.74,-3.7 8.39,-5.83 -7.48,-11.51 -13.46,-19.76 -22.7,-29.09 -1.68,-1.68 -4.95,-4.43 -6.52,-5.88 -1.54,-1.43 -5.47,-4.29 -6.76,-5.39 -1.27,-1.09 -6.04,-1.35 -6.97,-4.96 -0.93,-3.59 -4.83,-3.01 -7.12,-4.69 48.25,-52.47 1.67,-59.53 51.69,-113.02 41.44,-44.31 -10.3,-12.62 -22.79,-96.96 -64.09,3.48 -31.61,50.84 -64.68,-32 -45.32,32.46 8.65,13.68 -55.65,43.4l-35.44 22.29c-17.94,17.23 -40.16,17.59 -20.77,53.44 17.73,32.78 19.99,10.81 43.65,-3.57z"/>
  <path class="fil0" d="M1785.57 1736.49l-23.54 27.6c-29.58,-32.66 -28.64,-25.42 -32.49,-74.92 34.05,-2.97 55.32,-5.94 80.32,8.61 -5.41,32.63 4,18.77 -24.29,38.71zm-3.81 -69.33c8.09,-48.58 -4.82,-50.78 49.27,-51.77 -6.46,19.06 1.22,11.51 -10.34,25.24 -32.28,38.34 -0.46,7.45 -38.93,26.53zm-32.4 -9.73c-18.36,-11.23 -4.85,7.88 -25.37,-23.25 -6.65,-10.08 -4.81,-14.62 -7.78,-23.92 41.07,6.66 56.07,6 33.15,47.17zm208.03 274.53c52.52,22.37 26.73,31.73 100.05,39.83 -9.23,73.09 -20.33,60.17 -66.41,99.22l-0.81 62.94c24.06,-18.91 23.46,-13.55 40.23,-53.3 45.84,72.78 15.66,12.69 62.13,-63.14l29.78 -53.51c-57.37,-27.14 -77.08,-52.61 -104.12,-96.12 51.41,18.19 183.42,69.08 175.82,-42.74 -4.33,-63.6 -38.58,-49.75 -47.58,-55.84 -28.82,-19.49 6.86,-8.7 -30.83,-31.67l-115.02 -29.87c-51.94,-17.73 -48.98,-62.51 -28.72,-89.99 49.57,-67.24 106.15,45.93 205.91,28.86 -23.7,-14.46 -99.68,-61.3 -117.72,-69.65 58.83,15.59 144.04,89.96 161.33,6.71 -34.89,-14.75 1.45,18.56 -68.68,3.47 -20.51,-4.42 -206.74,-88.94 -216.37,60.82 -7.05,109.63 119.67,119.15 180.69,150.65 47.66,24.6 38.85,15.4 43.35,70.15 -99.18,15.66 -170.97,-56.87 -278.69,-25.45 -53.82,15.7 -186.11,137.75 -163.97,-32.96l17.2 50.9c72.1,-50.83 -18.33,8.94 114.53,-36.72l-43.27 -60.11c-1.17,-4.46 -5.46,-4 -8.11,-6.11 47.64,-33.16 21.09,-25.09 38.13,-74.13 25.36,-72.99 2.75,17.68 44.66,-49.81 -17.17,-42.94 -23.77,-55.57 -54.46,-68.36l-51.72 -43.8c-16.62,16.94 -20.03,29.46 -32.01,36.06 -67.6,37.3 48.07,-19.25 -21,3.61l-69.33 46.74c23.98,92.55 29.55,37.72 42.5,38.42 16.36,67.34 6.84,66.69 36.99,117.71 -39.17,21.15 -15.82,-8.32 -30.78,36.22 -23.38,69.62 7.98,154.76 -8.44,207.63 -28.3,91.14 -130.29,19.49 -162.3,132.18 56.14,-7.72 43.9,-1.51 70.19,-33.35l23.08 52.75c9.36,-29.2 0.62,-14.77 17.49,-38.1l57.85 -57.47c70.72,-86.86 18.12,-28.35 66.29,-63.2 13.71,-107.17 -11.99,-52.65 61.08,-75.21 41.1,-12.68 23.56,-15.6 73.65,-19.02 38.44,-2.62 27.6,30.21 45.93,-13.62l11.47 38.37z"/>
  <path class="fil3" d="M1385.73 1294.77l-4.14 16.32c-19.01,23.23 34.77,22.25 -25.19,18.68 -0.15,-0.18 -17.55,-6.02 -19.11,-26.4 -4.04,-52.78 4.22,-14.03 19.11,-29.8 66.04,-3.91 13.56,-5.87 29.34,21.21zm-390.07 23.62l-24.38 2.01c-11.84,-48.79 0.74,-57.07 42.24,-28.27 6.65,62.12 6.41,14.37 -17.86,26.26zm66.66 -114.99c35.63,-38.27 66.01,-48.63 127.1,-45.02 56.46,3.34 78.94,26.69 99.89,57.1 -51.91,61.32 -183.76,88.28 -227,-12.09zm321.23 -50.29c-26.79,-5.22 -34.61,-1.64 -44.66,-20.96 -25.55,-49.08 17.78,-38.47 18.11,-38.8 34.94,11.59 35.15,27.39 26.55,59.76zm-389.3 -11.37l-14.89 0.85c-18.43,-21.96 -23.62,44.72 -15.01,-41.38 36.6,-8.72 24.22,-10.69 52.28,13.46 3.81,63.43 6.56,14 -22.37,27.07zm351.83 -81.31l-5.57 30.83c-65.74,-10.02 -31.58,15.84 -44.53,-28.27l-95.89 0.02c-10.19,27.27 22.74,22.24 -23.65,26.68 -45.94,4.4 -22.28,-1.31 -26.7,-28.02l-99.14 0.51 -9.13 24c-38.67,-9.41 -15.37,7.1 -37.3,-23.03l-65.92 -2.58 0.86 292.32 477.46 0.77 1.72 -291.3 -72.21 -1.94z"/>
  <path class="fil1" d="M996.52 1470.54c2.05,-76.54 -18.06,-46.97 45.59,-53.67l-0.1 53.11c13.51,90.23 9.39,9.44 -15.2,45.95 -44.84,-19.06 -26.49,5.5 -30.29,-45.39zm15.09 -469.43l37.03 2.73 -2.88 22.98c13.97,0.09 71.08,2.22 81.76,-0.21 44.2,-10.1 3.42,0.54 51.39,-35.03 58.5,64.69 89.94,49.37 139.45,0.24 57.48,47.17 4.36,32.35 97.79,42.46l-70.08 26.15 72.21 1.94 -1.72 291.3 -477.46 -0.77 -0.86 -292.32 65.92 2.58 -2.05 -23.12c-67.08,0.84 -48.5,-3.34 -63.22,-14.89 54.76,-1.86 48.28,12.09 72.73,-24.03zm54.49 396.88c14.62,-24.87 -22,-9.19 36.27,-17.81l185.05 6.28 4.13 35.39 16.73 -2.55 39.58 -2.92 2.88 57.23c7.8,92.86 7.89,9.25 -19.7,46.64l-40.04 -17.19 1.78 31.81 81.68 0.1 1.22 -145.51 73.25 -3.52c0.06,-69.05 11.96,-347.3 -8.3,-391.85 -143.95,0 -73.43,-40.37 -138.57,-21.46 -22.39,6.49 -32.34,24.09 -71.23,18.61 -29.41,-4.13 -21.69,-9.66 -51.92,-25.18 -50.6,15.16 -24.03,25.53 -76.76,27.26 -58.2,1.91 -29.91,-7.32 -75.35,-27.34 -32.49,14.66 -19.92,15.79 -52.27,24.11 -21.69,5.58 -41.95,4.25 -68.36,6.97l-1.07 383.23 71.68 4.33 2.12 148.61 87.87 1.2 -0.68 -136.43z"/>
  <path class="fil1" d="M1621.57 745.64c-46.52,-13.6 -32.23,0.06 -58.35,-36.63 37.91,-23.62 39.88,-11.11 81.56,4.09l-23.21 32.54zm13.78 -430.9c3.03,36.77 -9.47,21.39 -12.75,26 -12.74,-25.72 -11.55,-16.78 0,-51.82 8.41,10.77 10.06,-6.74 12.75,25.82zm-75.17 51.73l-45.2 -82.56c50.6,-7.12 16.6,-18.14 53.1,28.74 -3.21,-74.17 -44.44,-56.11 -8.85,-136.32 9.74,6.05 16.64,-3.35 32,31.52 7.34,16.67 7.9,37.94 8.13,56.67 0.58,47.21 -6.09,75.79 0.68,126.55 15.53,116.52 34.97,116.42 108.56,89.48l2.84 63.68 -81.14 51.6c-17.76,-46.68 -23.81,-32.61 11.15,-57.78 -136.05,-68.88 3.13,-46.92 -92.62,-130.59 18.06,-108.08 18.32,16.88 11.34,-40.98zm0.15 431.22l61.25 -52.05c48.54,-18.89 132.23,-89.53 130.81,-163.09 -1.49,-77.11 -64.18,-126.01 -14.79,-213.81l-12.57 -105.65 -37.11 0.49 16.77 45.61c14.87,63.62 12.01,146.71 -48.38,169.65 -69.61,-64.86 -7.14,-99.31 1.89,-175.48 -15.45,-40.27 -16.2,-21.13 -26.97,-45.65 -10.43,-23.75 -7.77,-95.25 -114,-139.7 32.54,134.74 -24.09,145.75 -23.86,172.67 0.07,9.66 63.51,223.42 93.78,276.75l60.81 63.07c26.22,-43.43 12.25,-44.62 63.39,-46.84 13.22,30.63 14.83,14.24 2.82,51.06 -34.65,106.17 -88.76,16.96 -177.55,63.97 7.81,43.4 -3.93,7.48 33.1,48.35l-9.39 50.65z"/>
  <path class="fil2" d="M228.29 314.96c3.29,39.71 -8.55,20.21 -12.79,26.15 -15.12,-26.8 -13.93,-15.49 0,-52.18 8.69,11.26 10.17,-5.82 12.79,26.03zm-71.66 47.24c-29.82,-23.71 -37,-41.4 -50.45,-79.99 42.9,-3.88 33.14,-4.79 53.43,28.85 2.23,-75.29 -33.3,-27.52 -12.3,-137.67 11.89,8.67 19.76,1.51 35.66,36.79 5.83,12.92 6.32,26.83 6.99,41.75 4.09,91.45 -28.95,165.74 54.22,249.39 46.65,-2.3 23.15,0.11 58.89,-24.06l0.91 66.96 -79.9 51.38c-22.83,-53.45 -24.87,-33.82 11.38,-58.56 -44.36,-18.93 -59.55,-14.19 -64.66,-58.17 -5.76,-49.53 41.85,-1.87 -27.99,-73.18 9.79,-60.77 2.09,-4.79 13.82,-43.49zm-0.29 357.64l82.16 -9.61 -23.99 35.34c41.4,-17.28 125.25,-83.63 128.85,-150.98 2.1,-39.36 -39.42,-122.33 -27.85,-188.85l29.22 -57.56c-26.44,-27.27 -23.41,-51.82 -28.07,-94.66 -20.49,14.58 -1.5,6.02 -39.53,14.43 1.31,2.67 3.85,5.98 4.75,7.53 35.76,62.5 24.5,168.88 -10.72,203.53 -42.14,-14.62 -63.49,-45.51 -49.23,-92.7 37.32,-123.51 45.81,-6.42 -4.46,-147.92 -20.34,-57.26 -12.62,-85.85 -109.31,-119.79 7.4,36.25 15.94,60.07 8.37,97.4 -9.75,48.05 -16.98,38.17 -32.29,74.69 69.52,144.91 -18.01,85.44 144.05,341.34 54.44,-39.17 -0.87,-47.77 75.96,-49.11 23.49,50.58 -17.8,87.67 -39.95,109.81 -79.98,1.72 -72.31,-43.23 -140.5,16.28 12.95,16.98 -32.45,18.84 32.55,10.82z"/>
  <path class="fil0" d="M7041.91 36.71c-153.7,59.99 -58.62,250.95 70.86,204.92 137.24,-48.79 64.07,-257.58 -70.86,-204.92z"/>
  <path class="fil3" d="M1660.07 2255.89c-28.6,29.21 -48.67,32.84 -54.35,87.08 60.46,-12.1 61.55,-6.7 76.65,-65.57l22.17 24.03c18.06,18.85 -6.2,1.72 15.22,14.01 18.19,-20.27 24.11,-37.3 37.35,-53.23l26.19 -23.26c4.13,-3.47 17.23,-14.8 18.77,-16.05l83.4 -57.43c-41.6,-138.58 13.91,-96.44 44.24,-194.65 -2.33,-23.2 4.82,2.34 -6.58,-17.84 -14.91,-26.39 -5.34,17.27 -10.81,-14.76 -0.8,-4.67 -4.55,-5.27 -6.52,-8.13 -123.94,46.51 -81.89,199.23 -81.59,213.89 -52.47,41.77 -88.96,88.52 -164.13,111.91z"/>
  <path class="fil3" d="M1568.07 312.64c-36.5,-46.88 -2.5,-35.86 -53.1,-28.74l45.2 82.56c6.98,57.86 6.72,-67.1 -11.34,40.98 95.75,83.67 -43.44,61.71 92.62,130.59 -34.96,25.17 -28.91,11.1 -11.15,57.78l81.14 -51.6 -2.84 -63.68c-73.59,26.94 -93.04,27.05 -108.56,-89.48 -6.77,-50.75 -0.1,-79.34 -0.68,-126.55 -0.23,-18.72 -0.79,-40 -8.13,-56.67 -15.37,-34.87 -22.26,-25.47 -32,-31.52 -35.59,80.21 5.64,62.15 8.85,136.32z"/>
  <path class="fil3" d="M159.61 311.06c-20.29,-33.64 -10.53,-32.74 -53.43,-28.85 13.46,38.59 20.63,56.28 50.45,79.99 -11.72,38.7 -4.03,-17.27 -13.82,43.49 69.84,71.31 22.23,23.66 27.99,73.18 5.11,43.98 20.3,39.23 64.66,58.17 -36.26,24.74 -34.21,5.11 -11.38,58.56l79.9 -51.38 -0.91 -66.96c-35.74,24.17 -12.24,21.76 -58.89,24.06 -83.17,-83.66 -50.13,-157.95 -54.22,-249.39 -0.67,-14.92 -1.16,-28.83 -6.99,-41.75 -15.9,-35.27 -23.77,-28.12 -35.66,-36.79 -21.01,110.16 14.53,62.38 12.3,137.67z"/>
  <path class="fil0" d="M648.11 671.01c-34.06,-8.66 -11.7,21.97 -25.46,-26.05 -10.22,-35.66 15.49,-31.27 -15.45,-101.13 -107.95,22.71 -24.13,100.63 -18.12,177.85 -67.88,83.19 -122.02,22.56 -157.16,101.42 17.77,8.81 -30.84,13.91 33.97,7.86 29.38,-2.76 49.83,-25.89 70.27,-39.28l-0.21 38.32c0.36,1.71 3.56,10.47 3.92,8.59 0.36,-1.95 2.88,5.93 4.87,8.52 35.27,-47.1 22.91,-72.6 70.03,-81.11 30.13,-83.13 38.23,-58.42 33.35,-94.99z"/>
  <path class="fil3" d="M1873.21 830.88c32.53,-3.34 35.15,-22.51 71.99,-37.96l4.18 52.01 114.39 -144.62c-71.27,-103.5 -12.91,-36.43 -46.92,-157.83 -130.46,42.78 -14.4,92.46 -18.27,166.86 -4.21,80.74 -118.52,31.5 -157.86,113.76 15.31,7.97 -27.97,13.98 32.49,7.78z"/>
  <path class="fil3" d="M190.71 1569.89c-38.26,14.59 -21.3,58.99 -14.51,89.86 -1.92,1.05 -5.54,-0.27 -6.22,2.09 -10.09,34.81 -6.41,1.81 -12.68,3.23 -13.04,2.95 -17.77,1.89 -25.37,5.95 10.18,21.31 32.84,46.91 36.47,65.86 3.54,18.51 -13.33,-8.83 1.6,44.73 14.99,53.81 3.58,1.31 22.39,37.44 34.59,66.41 -15.72,11.15 44.77,70.49 1.23,1.21 4.03,3.73 5.08,4.96l6.37 11.16c9.41,15.94 -20.38,-4.84 17.61,27.1l63.32 -28.92 -13.29 -63.81 -64.43 16.04c-83.26,-191.14 -43.72,-77.46 -38.19,-211.58l-22.9 -74.6z"/>
  <path class="fil3" d="M1676.76 1862.58c-29.25,-8.31 -49.56,21.63 -78.83,-25.54 -52.38,-84.4 52.32,-204.8 -38.71,-270.66 -10.68,23.88 -1.67,58.6 -7.05,76.83l-16.21 31.19c-0.46,2.68 -1.1,6.66 -1.14,9.39 -0.4,34.89 19.61,4.98 15.98,113.51 -1.21,36.1 -24.74,37.93 26.34,73.24 -16.41,40.17 -19.51,-22.42 -13.23,52.6l108.06 -8.94 4.8 -51.62z"/>
  <path class="fil3" d="M678.01 2119.78c-23.7,-38.43 -20.16,-37.62 -28.56,-92.29 -16.08,-104.61 -27.28,-73.7 -56.88,-76.99 -33.68,86.96 43.26,131.64 18.1,181.09 -26.87,52.81 -93.8,14.83 -112.62,106.94 50.59,-12.5 31.17,1.3 59.73,-31.72 1.15,2.45 1.94,6.19 2.59,7.7l7.02 16.84c9.67,19.86 8.54,17.3 18,29.47 6.06,-16.96 7.44,-26.2 17.96,-48.04 26.52,-55.02 2.14,-8 26.63,-36.99 15.87,-18.79 -1,1.97 17.86,-21.63l30.18 -34.4z"/>
  <path class="fil1" d="M1045.76 1026.82l-0.78 8.61 83.23 -0.63c28.95,11.04 17.51,-5.59 21.52,26.86 4.42,26.71 -19.24,32.42 26.7,28.02 46.39,-4.44 13.46,0.59 23.65,-26.68 10.35,-35.97 -8.09,-17.82 29.55,-28.09l38.03 0c38.18,10.83 15.86,-6.4 28.31,28.06 12.96,44.11 -21.21,18.25 44.53,28.27l5.57 -30.83 70.08 -26.15c-93.43,-10.11 -40.31,4.71 -97.79,-42.46 -49.5,49.13 -80.95,64.45 -139.45,-0.24 -47.96,35.57 -7.19,24.94 -51.39,35.03 -10.68,2.43 -67.79,0.3 -81.76,0.21z"/>
  <path class="fil1" d="M1128.47 1189.85c2.41,-1.85 5.7,-4.31 7.6,-5.06 1.97,-0.77 5.82,-3.63 8.41,-4.41 25.95,-7.81 -9.67,-1.93 21.52,-4.88 40.79,-3.86 67.94,10.06 95.09,33.93 -42.66,47.09 -129.05,68.23 -175.79,-10.26l43.17 -9.31zm-66.16 13.54c43.23,100.37 175.08,73.4 227,12.09 -20.96,-30.42 -43.43,-53.76 -99.89,-57.1 -61.09,-3.62 -91.47,6.74 -127.1,45.02z"/>
  <path class="fil3" d="M1139.31 582.25l44.78 57.96c3.74,-7.24 10.13,-21.65 12.9,-25.27l37.5 -37.82c-23.21,-18.32 -38.29,-47.02 -41.56,-84.54 -6.53,-74.74 37.37,-44.42 -12.01,-84.05 -25.05,39.7 23.33,80.61 -41.62,173.72z"/>
  <path class="fil3" d="M1194.55 1573.96l3.38 -34.63c-3.45,-0.48 10.14,-32.63 -21.92,2.3 -25.12,27.39 -3.76,9.2 -3.42,21.88 2.62,98.89 20.55,34.84 -39.3,148.91 33.41,15.89 31.99,6.57 47.08,48.17 42.17,-55.91 -11.41,-27.35 56.04,-45.98 -14.22,-20.17 -33.78,-49.21 -40.77,-83.88 -6.82,-33.82 -4.03,-28.23 -1.09,-56.76z"/>
  <path class="fil3" d="M2207.89 1164.63c-19.81,-15.79 -14.95,-2.59 -28.72,-36 -42.74,-103.7 41.33,-88.61 -24.16,-128.05 -23.96,42.03 28.12,112.35 -44.71,158.91 2.76,3.43 6.38,7.31 8.66,9.97l36.11 59.95 52.82 -64.79z"/>
  <path class="fil3" d="M1586.15 1074.88c-2.37,-75.44 44.31,-45.55 -20.83,-78.18l2.76 46.18c6.45,46.84 7.64,87.37 -36.45,120.56l53 65.9 34.99 -59.89c1.44,-6.08 5.52,-6.57 8.07,-10.01 -26.5,-18.76 -40.32,-45.2 -41.55,-84.57z"/>
  <path class="fil3" d="M395.05 1330.16c-100.91,-130.82 32.17,-127.84 -59.33,-169.54l5.96 92.63c-5.12,40.64 -19.81,60.7 -38.91,77.04l51.97 61.77 27.39 -46.88c1.3,-1.63 5.37,-3.04 6.33,-7.46 0.99,-4.54 4.49,-4.96 6.58,-7.57z"/>
  <path class="fil3" d="M255 1164.8c-69.78,-55.41 -22.7,-119.29 -33.32,-167.94 -68.87,33.64 -11.76,3.61 -21.87,88.38 -4.8,40.33 -15.99,56.41 -40.83,73.55 28.99,39.1 31.25,28.03 43.57,70.29l52.45 -64.27z"/>
  <path class="fil3" d="M1178.92 2026.22c-26.89,49.49 31.02,81.92 -37.52,165.95l23.81 27.83c13.98,18.89 5.64,2.42 16.64,32.91l30.2 -38.81c1.64,-1.93 5.15,-5.79 6.53,-7.4l13.99 -17c-22.4,-19.1 -38.31,-47.76 -40.08,-86.93 -3.16,-69.7 42.26,-42.93 -13.56,-76.54z"/>
  <path class="fil3" d="M994.4 346.61c44.71,14.82 33.19,12.17 57.54,44.8 23.76,-71.08 -6.45,-17 49.87,-49.91 -18.81,-20.81 -31.87,-30.63 -42.95,-70.63l-1.44 -101c-53.08,2.43 -10.03,16.31 -16.9,82.06 -4.57,43.71 -28.47,76.02 -46.11,94.68z"/>
  <path class="fil3" d="M636.31 1170.95c-0.81,-3.38 -5.95,1.05 -8.92,1.64 9.68,36.22 12.16,92.34 -9.75,128.43 -23,37.88 -8.25,11.87 -26.61,26.17l54.06 64.43 46.7 -67c-31,-18.24 -42.44,-39.67 -44.49,-84.3 -1.35,-29.33 6.46,-53.54 6.38,-54.42 -3.06,-34.94 -14.84,-4.33 -17.37,-14.95z"/>
  <path class="fil3" d="M1919.55 1161.66c-72.89,-42.86 -26.58,-119.24 -37.01,-164.46 -67.42,34.93 -11.77,4.23 -19.72,90.79 -4.09,44.6 -12.96,56.5 -42.48,73.88l15.49 17.61c1.97,2.2 4.97,5.19 7.03,7.53l30.29 40.93c10.27,-29.5 3.22,-16.23 17.12,-34.9l29.29 -31.37z"/>
  <path class="fil3" d="M1001.58 823.6l49.08 60.3c14.49,-38.31 19.89,-33.1 44.76,-66.75 -71.27,-49.53 -22.28,-118 -43.27,-158.24 -18.3,11.51 -15.62,-27.52 -18.23,21.63 -0.15,2.81 8.57,26.15 7.83,53.65 -1.23,45.8 -19.68,68.5 -40.17,89.41z"/>
  <path class="fil1" d="M1957.77 2034c2.35,-0.35 30.32,-3.71 32.01,-3.42 29.84,5.33 6.56,-1.31 24.69,11.04 -77.36,41.15 -46.08,2.74 -56.7,-7.62zm-51.98 -103.91c1.97,2.86 5.72,3.46 6.52,8.13 5.47,32.04 -4.1,-11.63 10.81,14.76 11.4,20.18 4.25,-5.36 6.58,17.84l4.82 28.6c1.85,-2.33 3.84,-5.88 4.86,-7.5l28.91 -44.19c26.94,45.08 52.99,33.95 61.11,59.9l-87.04 30.09 -2.62 41.76 51.29 -8.47c46.08,-39.05 57.17,-26.13 66.41,-99.22 -73.31,-8.11 -47.53,-17.46 -100.05,-39.83l-18.25 14.06 -33.36 -15.92z"/>
  <path class="fil3" d="M1101.57 1953.16c-70.07,-61.11 -42.49,-122.22 -42.41,-153.39l-5.85 -16.7c-51.79,0.24 35.38,107.95 -58.36,161.42 3.01,2.9 6.99,6.15 9.4,8.32l48.91 51.04c22.54,-68.49 -2.66,-16.61 48.31,-50.69z"/>
  <path class="fil3" d="M1055.65 2365.21c-7.61,-40.34 -1.31,-26.83 1.43,-53.73l-1.14 -36.15c-67.95,-0.08 39.58,56.83 -55.14,170.38l28.54 21.78c3.72,3.59 20.98,26.36 23.09,29.09 22.54,-70.97 -6.2,-17.2 49.23,-50.15 -19.94,-20.09 -37.84,-37.84 -46.01,-81.22z"/>
  <path class="fil3" d="M1128.47 1189.85c50.96,-0.41 51.2,-9.85 89.53,13.54 -7.67,5.44 15.99,28.95 -77.11,10.85l-12.42 -24.39zm0 0l-43.17 9.31c46.74,78.49 133.13,57.36 175.79,10.26 -27.15,-23.87 -54.31,-37.79 -95.09,-33.93 -31.19,2.95 4.43,-2.92 -21.52,4.88 -2.59,0.78 -6.44,3.63 -8.41,4.41 -1.9,0.75 -5.19,3.21 -7.6,5.06z"/>
  <path class="fil2" d="M277.13 267.93l2.35 -15.53 -13.29 -49.91c56.93,-36.06 32.49,14.99 54.68,-59.31l34.23 20.01c23.04,-50.09 2.86,-37.35 50.17,-50.56l-12.3 -26.71c-25.28,11.58 -19.16,-5.72 -36.23,45.44l-55.72 -22.35c-6.03,104.35 1.29,33.61 -59.03,76.99 5.84,102.27 23.29,76.16 35.12,81.92z"/>
  <path class="fil3" d="M1330.64 1866.45l-24.99 -1.21c-4.38,54.46 -7.24,57.81 -38.79,85.79l51.49 49.85 36.87 -39.84c1.85,-1.56 7.11,-1.91 8.5,-6.63 1.43,-4.87 6.03,-4.32 8.85,-6.72 -37.27,-22.97 -37.35,-31.99 -41.94,-81.23z"/>
  <path class="fil3" d="M1333.14 2366.01l-30.22 -1.68c-6.74,56.01 -5.21,48.11 -35.94,79.79l51.38 49.75c2.34,-3.45 15.5,-22.29 20.72,-27.38 2,-1.95 5.5,-4.6 7.45,-6.36l25.46 -18.73c-36.6,-25.57 -32.93,-28.68 -38.85,-75.39z"/>
  <path class="fil3" d="M1737.84 1253.02l-27.64 0.1c-5.62,48.38 -13.49,65.01 -33.49,89.72 51.57,22.24 15.99,-1.31 47.3,45.74l51.72 -57.91c-32.24,-24.02 -31.25,-17.55 -37.89,-77.66z"/>
  <path class="fil3" d="M1333.57 260.67l-30.83 -1.12c-7.03,56.45 -5.83,46.86 -35.66,79.82l30.7 22.16c4.39,4.28 18.76,24.56 20.59,27.15 2.73,-4.07 15.24,-22.55 20.55,-27.47 1.8,-1.67 5.16,-4.31 7.05,-5.87l21.71 -13.96c-27.56,-29.16 -28.28,-34.14 -34.11,-80.72z"/>
  <path class="fil3" d="M2027.56 1246.18l-23.24 2.06c-7.13,63.8 -12.25,61.9 -40.36,82.49 2.43,2.26 6.13,4.87 7.74,6.25 1.58,1.35 5.62,4.53 7.49,6.19 1.8,1.6 5.25,4.21 7.14,6.01 1.8,1.72 4.89,4.24 6.61,6.03l22.63 33.36 48.47 -54.97c-33.05,-23.46 -35.56,-32.13 -36.48,-87.42z"/>
  <path class="fil3" d="M772.36 1100.85c-6.28,38.7 -18.04,56.55 -34.73,77.2 52.84,23.4 16.34,-11.55 48.31,46.67 40.5,-50.45 -9.92,-16.17 49.05,-46.67 -22.35,-27.18 -29.15,-45.34 -33.85,-95.24 -19.51,11.49 -11.18,-0.83 -28.79,18.04z"/>
  <path class="fil3" d="M480.37 1112.7l-32.56 65.34c56.26,25.38 15.45,-17.13 46.57,46.52 9.33,-11.61 14.01,-22.21 23.92,-33.13l28.14 -25.94c-35.4,-28.02 -31.37,-24.9 -37.35,-80.97 -2.73,2.6 -6.5,5.82 -8.39,7.61 -1.76,1.68 -5.98,5.63 -7.71,7.3 -2.07,1.98 -9.89,10.04 -12.63,13.26z"/>
  <path class="fil3" d="M1331.28 748.57l-26.44 -1.8c-6.62,48.96 -9.54,61.26 -32.15,89 50.66,27.79 10.37,-4.87 45.66,46.16 34.49,-52.33 -5.77,-20.68 47.73,-46.16 -19.14,-29.21 -27.88,-39.61 -34.81,-87.2z"/>
  <path class="fil0" d="M10125.01 1844.41c-10.44,-22.86 8.69,-18.64 -97.75,-17.39 -37.71,0.44 -75.57,0.11 -113.28,0.11l0.31 -216.13c-77.02,-17.45 -9.39,-4.21 -39.19,8.12 55.94,26.75 11.33,62.37 29.92,213.48l220 11.8z"/>
  <path class="fil2" d="M489.64 242.52l3.16 21.67c12.55,-9.55 8.81,25.88 26.21,-28.69 10.5,-32.92 -9.08,-35.23 -30.82,-76.38 -13.38,-25.33 -3.13,-31.71 -29.59,-39.46 -29.88,-8.73 15.11,4.13 -24.49,0.27l-28.84 -7.29 8.02 55.51 41.79 -27.16 25.64 48.94c14.15,24.43 23.33,9.97 8.91,52.58z"/>
  <path class="fil1" d="M1800.07 316.23c6.05,11.67 6.66,1 7.57,23.45 0.95,23.49 -0.44,7.58 -8.36,22.32 -44.95,-44.28 -4.09,-40.05 0.78,-45.77zm0 67.56c28.48,-24.31 30.32,-23.17 41.79,-96.2l-88.92 3.58c4.46,41.29 17.3,67.37 47.13,92.62z"/>
  <path class="fil1" d="M1934.52 1999.41l-6.03 55.62c21.3,-12.27 11.87,48.92 13.87,-17.32l87.04 -30.09c-8.12,-25.95 -34.18,-14.82 -61.11,-59.9l-28.91 44.19c-1.02,1.62 -3.01,5.17 -4.86,7.5z"/>
  <path class="fil2" d="M405.75 354.15l-26.34 4.42c-10.15,-50.37 -9.57,-28.77 13.57,-42.7l12.77 38.28zm0 0l27.43 -61.98 -90.27 -3.28c5.5,47.42 10.37,67.65 50.08,93.45l12.77 -28.18z"/>
  <path class="fil4" d="M1292.78 1534.87l-1.78 -31.81 0.54 -81.22 -4.13 -35.39 -185.05 -6.28c-58.26,8.63 -21.64,-7.06 -36.27,17.81l215.11 -6.33 -0.72 115.45c3.98,22.5 5.91,17.11 12.29,27.77z"/>
  <path class="fil1" d="M1785.57 1736.49c-16.4,5.5 -3.22,28.5 -19.19,0.43 -26.77,-47.05 3.03,-18.9 8.33,-25.21l10.86 24.78zm0 0c28.29,-19.93 18.89,-6.08 24.29,-38.71 -25,-14.55 -46.27,-11.59 -80.32,-8.61 3.86,49.5 2.92,42.26 32.49,74.92l23.54 -27.6z"/>
  <path class="fil1" d="M392.97 1714.7c44.11,57.7 -2.98,32.57 -8.89,38.98 -9.05,-49.61 -1.93,-25.86 8.89,-38.98zm-40.43 -16.92c8.02,49.05 10.28,49.46 42.07,70.4l46.79 -64.45c-23.74,-14.82 -62.27,-16.36 -88.86,-5.95z"/>
  <path class="fil3" d="M1291 1503.06l40.04 17.19c27.59,-37.39 27.5,46.22 19.7,-46.64l-43.46 0.1 1 -54.41 -16.73 2.55 -0.54 81.22z"/>
  <path class="fil1" d="M1004.15 1063.15c21.94,30.13 -1.36,13.62 37.3,23.03l9.13 -24 -5.61 -26.74 0.78 -8.61 2.88 -22.98 -37.03 -2.73 -7.45 62.04z"/>
  <path class="fil1" d="M1050.59 1062.17l99.14 -0.51c-4.01,-32.45 7.43,-15.82 -21.52,-26.86l-83.23 0.63 5.61 26.74z"/>
  <path class="fil3" d="M1621.57 745.64l23.21 -32.54c-41.68,-15.2 -43.65,-27.71 -81.56,-4.09 26.12,36.69 11.83,23.03 58.35,36.63z"/>
  <path class="fil3" d="M671.04 2295.63c54.7,-18.12 56.36,-13.65 66.67,-71.67 -48.99,17.75 -57.1,21.09 -66.67,71.67z"/>
  <path class="fil3" d="M996.52 1470.54l45.49 -0.56 0.1 -53.11c-63.64,6.7 -43.54,-22.87 -45.59,53.67z"/>
  <path class="fil1" d="M1200.08 1063.01l95.89 -0.02c-12.45,-34.46 9.87,-17.23 -28.31,-28.06l-38.03 0c-37.64,10.26 -19.19,-7.88 -29.55,28.09z"/>
  <path class="fil3" d="M1660.07 2255.89l55.88 -32.3c-5.85,-4.66 19.91,-38.63 -47.36,-12.34 -18,7.04 -18.3,17.27 -28.81,34.84l20.3 9.8z"/>
  <polygon class="fil3" points="1350.74,1473.62 1347.85,1416.39 1308.27,1419.3 1307.27,1473.71 "/>
  <path class="fil1" d="M1128.47 1189.85l12.42 24.39c93.1,18.1 69.44,-5.41 77.11,-10.85 -38.34,-23.4 -38.57,-13.96 -89.53,-13.54z"/>
  <path class="fil1" d="M1372.72 1124.31c3.92,12.01 -16.94,21.17 -16.9,3.02 0.16,-51.33 14.38,-10.73 16.9,-3.02zm-15.72 -30.97c-0.33,0.33 -43.66,-10.27 -18.11,38.8 10.06,19.31 17.87,15.74 44.66,20.96 8.6,-32.37 8.39,-48.17 -26.55,-59.76z"/>
  <path class="fil3" d="M1042.01 1469.97l-45.49 0.56c3.79,50.88 -14.55,26.32 30.29,45.39 24.6,-36.51 28.72,44.28 15.2,-45.95z"/>
  <path class="fil1" d="M1381.59 1311.09c-50.39,15.85 -11.49,7.49 -30.07,-6.28 21.11,-23.37 -9.39,-9.1 34.21,-10.04 -15.78,-27.07 36.7,-25.11 -29.34,-21.21 -14.89,15.77 -23.15,-22.99 -19.11,29.8 1.56,20.38 18.96,26.23 19.11,26.4 59.97,3.58 6.19,4.55 25.19,-18.68z"/>
  <polygon class="fil3" points="1302.92,2364.33 1333.14,2366.01 1334.07,2307.36 1302.69,2307.85 "/>
  <path class="fil2" d="M367.62 261.5c16.35,-42.71 -9.64,-45.83 -44.47,-65.16 13.09,55.26 9.07,51.68 44.47,65.16z"/>
  <path class="fil1" d="M1774.71 261.98c17.54,-44.67 -6.3,-46.63 -43.46,-66.21 6.48,21.13 2.22,24.95 16.49,46.36 22.53,33.82 4.33,9.1 26.98,19.85z"/>
  <path class="fil1" d="M1827.8 265.59l30.85 -65.63c-23.74,8.68 -38.01,11.03 -47.71,25.39 -20.88,30.92 16.03,39.42 16.86,40.24z"/>
  <polygon class="fil3" points="1302.73,259.55 1333.57,260.67 1332.93,202.6 1303.7,203.15 "/>
  <path class="fil3" d="M480.37 1112.7c2.73,-3.22 10.55,-11.28 12.63,-13.26 1.73,-1.67 5.95,-5.62 7.71,-7.3 1.89,-1.79 5.66,-5 8.39,-7.61l0.11 -44.4 -24.26 -14.14 -4.58 86.71z"/>
  <path class="fil3" d="M1548.25 2040.05c30.01,31.33 23.29,24.74 67.1,20.44 -25.8,-33.9 29.33,-10.97 -33.93,-30.86 -31.61,-9.94 -31.23,9.22 -33.17,10.42z"/>
  <path class="fil2" d="M419.36 265.78l30.27 -67.16c-24.82,10.35 -36.98,12.64 -45.88,26.42 -20.72,32.07 15.08,40.18 15.61,40.75z"/>
  <path class="fil1" d="M979.35 1142.59c1.69,-35.9 -6.38,-16.19 9.42,-33.56 13.46,19.14 23.08,-24.33 5.47,32.7 28.93,-13.07 26.19,36.35 22.37,-27.07 -28.06,-24.15 -15.68,-22.17 -52.28,-13.46 -8.61,86.1 -3.42,19.43 15.01,41.38z"/>
  <path class="fil2" d="M153.55 799.21c24.28,-35.81 1.32,-9.35 31.21,-31.57l29.75 -22.08 -46.63 -18.3 -14.33 71.95z"/>
  <path class="fil3" d="M496.32 2130.17c0.88,36.32 -7.24,9.11 8.86,33.07l61.19 -5.2c-18.56,-16.31 9.24,-6.97 -37.35,-23.96 -0.71,-0.26 -29.03,-3.4 -32.7,-3.91z"/>
  <path class="fil1" d="M328.76 1635.44c2.6,1.39 6.36,0.93 7.58,4.58l46.18 25.22c-7.2,-53.3 14.51,-26.15 -28.92,-51.31 -26.54,5.26 -10.03,-4.12 -24.85,21.5z"/>
  <path class="fil1" d="M1781.76 1667.16c38.47,-19.08 6.66,11.8 38.93,-26.53 11.55,-13.72 3.88,-6.18 10.34,-25.24 -54.09,0.98 -41.18,3.18 -49.27,51.77z"/>
  <path class="fil3" d="M316.69 2014.7c25.11,32.54 -2.97,25.09 56.72,21.08 -19.18,-33.12 2.58,-21.57 -31.21,-32.16 -36.12,-11.32 -24.48,10.45 -25.51,11.09z"/>
  <path class="fil1" d="M405.04 1663.57c45.9,-20.29 41.52,-10.52 47.07,-51.22 -51.83,9.65 -41.38,5.91 -47.07,51.22z"/>
  <path class="fil3" d="M772.36 1100.85c17.61,-18.87 9.28,-6.55 28.79,-18.04l-0.19 -42.21 -25.67 -11.74 -2.93 71.99z"/>
  <polygon class="fil3" points="1304.85,746.77 1331.28,748.57 1331.27,693.76 1305.24,694.33 "/>
  <polygon class="fil3" points="1305.65,1865.24 1330.64,1866.45 1333.97,1815.24 1298.81,1823.42 "/>
  <polygon class="fil3" points="1710.2,1253.12 1737.84,1253.02 1736.52,1199.98 1711.5,1199.98 "/>
  <path class="fil3" d="M1853.99 734.66c9.29,12.09 8.19,21.33 25.79,24.9 71.97,14.61 20.59,-0.93 40.29,-21.01l-66.08 -3.9z"/>
  <path class="fil3" d="M444.85 732.76c4,5.41 4.75,20.74 27.49,26.44 60.23,15.12 26.51,-6.57 37.29,-17.81l-64.78 -8.63z"/>
  <path class="fil1" d="M1749.37 1657.42c22.92,-41.16 7.92,-40.51 -33.15,-47.17 2.97,9.3 1.13,13.84 7.78,23.92 20.52,31.13 7.01,12.01 25.37,23.25z"/>
  <path class="fil3" d="M156.34 719.83c24.99,-9.91 26.75,-17.77 11.54,7.43l46.63 18.3 23.99 -35.34 -82.16 9.61z"/>
  <path class="fil3" d="M2096.25 771.14c69.44,14.87 38.26,0.78 46.47,-24.1 -41.49,-14.05 -30.59,-1.11 -46.47,24.1z"/>
  <path class="fil3" d="M1298.81 1823.42l35.16 -8.18c4.21,-30.97 2.55,-27.19 -28.47,-39.5l-6.69 47.67z"/>
  <path class="fil1" d="M971.27 1320.4c6.08,-56.11 -1.81,-15.43 17.5,-29.09l6.88 27.07c24.28,-11.88 24.51,35.86 17.86,-26.26 -41.5,-28.8 -54.08,-20.51 -42.24,28.27z"/>
  <path class="fil1" d="M736.86 1624.62c-13.76,-25.16 11.59,-9.64 -33.28,-35.84 -21.95,-12.82 -22.97,-10.34 -45.78,-16.22 31.7,25.95 33.99,35.15 79.07,52.06z"/>
  <path class="fil3" d="M1785.92 2027.35c39.12,-30.54 23.23,-12.18 41.88,-57.34 -45.85,17.27 -33.76,0.55 -41.88,57.34z"/>
  <path class="fil1" d="M1004.15 1063.15l7.45 -62.04c-24.45,36.12 -17.98,22.17 -72.73,24.03 14.73,11.55 -3.85,15.73 63.22,14.89l2.05 23.12z"/>
  <polygon class="fil3" points="2004.33,1248.25 2027.56,1246.18 2027.55,1199.86 2002.98,1200.48 "/>
  <path class="fil3" d="M2014.46 2041.62c-18.13,-12.35 5.16,-5.71 -24.69,-11.04 -1.69,-0.3 -29.66,3.06 -32.01,3.42 10.62,10.36 -20.66,48.77 56.7,7.62z"/>
  <path class="fil3" d="M1303.7 203.15l29.23 -0.56c8.17,-38.05 2.01,-28.33 -26.75,-38.9l-2.48 39.46z"/>
  <path class="fil3" d="M735.01 768.92c-5.03,-27.6 -1.46,-15.81 -12.45,-30.1 -35.7,20.4 -18.11,1.08 -34.93,36.3l47.38 -6.2z"/>
  <polygon class="fil3" points="1305.24,694.33 1331.27,693.76 1333.93,656.7 1304.62,656.25 "/>
  <path class="fil3" d="M775.3 1028.86l25.67 11.74 1.47 -28.93c-10.08,-4.42 19.35,-33.7 -29.14,-1.54 -15.8,10.47 -3.69,10.46 2.01,18.72z"/>
  <path class="fil3" d="M1302.69 2307.85l31.38 -0.49c-5.4,-38.16 12.46,-11.53 -15.71,-37.26 -25.8,23.54 -12.88,-5.6 -15.67,37.75z"/>
  <path class="fil3" d="M405.75 354.15l-12.77 -38.28c-23.14,13.92 -23.72,-7.67 -13.57,42.7l26.34 -4.42z"/>
  <path class="fil3" d="M1711.5 1199.98l25.03 0 3.77 -22.06c-3.02,-1.76 -6.57,-6.22 -8.08,-6.66 -59.97,-17.2 -0.99,-10.98 -27.11,8.91l6.4 19.8z"/>
  <path class="fil3" d="M215.5 341.1c4.25,-5.94 16.08,13.56 12.79,-26.15 -2.63,-31.85 -4.11,-14.78 -12.79,-26.03 -13.93,36.69 -15.12,25.38 0,52.18z"/>
  <path class="fil3" d="M1799.29 362c7.91,-14.74 9.31,1.17 8.36,-22.32 -0.91,-22.46 -1.52,-11.79 -7.57,-23.45 -4.87,5.72 -45.73,1.49 -0.78,45.77z"/>
  <path class="fil3" d="M228.98 1732.87c12.89,-23.29 12.37,11.09 9.65,-24.79 -2.04,-26.85 -4.5,-17.85 -10.45,-27.83 -16.2,32.33 -24.9,24.1 0.8,52.62z"/>
  <path class="fil3" d="M392.97 1714.7c-10.81,13.12 -17.94,-10.63 -8.89,38.98 5.91,-6.41 53,18.72 8.89,-38.98z"/>
  <path class="fil1" d="M1690.17 246.95l-2.26 16.63 37.11 -0.49 -11.28 -35.26c-4.07,2.63 -7.53,2.45 -8.08,5.33l-15.49 13.79z"/>
  <path class="fil3" d="M2002.98 1200.48l24.57 -0.62c1,-48.17 11.92,46.61 -0.19,-21.09l-11.79 -16.45c-29.75,24.97 1.06,-23.72 -16.76,17.9 -5.29,12.32 -1.43,5.55 4.17,20.27z"/>
  <path class="fil3" d="M1622.6 340.74c3.28,-4.61 15.78,10.77 12.75,-26 -2.69,-32.57 -4.33,-15.05 -12.75,-25.82 -11.55,35.05 -12.74,26.11 0,51.82z"/>
  <path class="fil1" d="M2089.72 317.46l28.93 18.43c-18.48,-71.85 -6.2,-9.43 16.82,-35.67l-31.02 -10.67 -14.73 27.9z"/>
  <path class="fil2" d="M492.8 264.2l-3.16 -21.67 -12.96 -13.82c-42.71,-9.73 -2.67,-6 -18.44,16.21 14.84,17.35 10.98,11.8 34.57,19.28z"/>
  <path class="fil3" d="M484.95 1025.99l24.26 14.14 1.35 -28.53c-13.5,-5.67 3.24,-12.35 -20.64,-3.08 -20.23,7.86 -4.97,17.22 -4.97,17.47z"/>
  <path class="fil2" d="M394.01 661.72c11.14,-15.12 21.89,-29.99 36.62,-43.8l-33.71 0.2 -2.91 43.6z"/>
  <path class="fil3" d="M1785.57 1736.49l-10.86 -24.78c-5.3,6.31 -35.1,-21.84 -8.33,25.21 15.97,28.07 2.79,5.08 19.19,-0.43z"/>
  <path class="fil3" d="M1381.59 1311.09l4.14 -16.32c-43.6,0.94 -13.1,-13.33 -34.21,10.04 18.58,13.77 -20.32,22.13 30.07,6.28z"/>
  <path class="fil1" d="M707.02 1746.71c18.29,4.85 -1.53,2.9 15.61,-1.34l20.79 -6.24 -19.22 -20.55c-18.31,16.51 -8.75,4.39 -17.18,28.13z"/>
  <path class="fil3" d="M979.35 1142.59l14.89 -0.85c17.61,-57.04 7.99,-13.56 -5.47,-32.7 -15.8,17.37 -7.73,-2.34 -9.42,33.56z"/>
  <path class="fil3" d="M971.27 1320.4l24.38 -2.01 -6.88 -27.07c-19.31,13.66 -11.43,-27.02 -17.5,29.09z"/>
  <path class="fil3" d="M1355.82 1127.33c-0.05,18.15 20.82,8.99 16.9,-3.02 -2.51,-7.71 -16.73,-48.31 -16.9,3.02z"/>
  <path class="fil2" d="M279.48 252.41l-2.35 15.53c38.03,-8.41 19.04,0.15 39.53,-14.43l-37.18 -1.1z"/>
 </g>
</svg>
