<?xml version="1.0" encoding="UTF-8"?>
<!DOCTYPE svg PUBLIC "-//W3C//DTD SVG 1.1//EN" "http://www.w3.org/Graphics/SVG/1.1/DTD/svg11.dtd">
<!-- Creator: CorelDRAW 2020 (64-Bit) -->
<svg xmlns="http://www.w3.org/2000/svg" xml:space="preserve" width="394px" height="281px" version="1.1" style="shape-rendering:geometricPrecision; text-rendering:geometricPrecision; image-rendering:optimizeQuality; fill-rule:evenodd; clip-rule:evenodd"
viewBox="0 0 787.446 561.217"
 xmlns:xlink="http://www.w3.org/1999/xlink"
 xmlns:xodm="http://www.corel.com/coreldraw/odm/2003">
 <defs>
  <style type="text/css">
   <![CDATA[
    .fil0 {fill:#64C2D1}
    .fil1 {fill:#0E4C8C;fill-rule:nonzero}
   ]]>
  </style>
 </defs>
 <g id="Layer_x0020_1">
  <metadata id="CorelCorpID_0Corel-Layer"/>
  <rect class="fil0" width="787.446" height="561.217"/>
  <path class="fil1" d="M86.818 210.244c0,-1.268 0.413,-2.283 1.237,-3.044 0.824,-0.761 1.87,-1.142 3.138,-1.142l99.97 0c1.142,0 2.189,0.349 3.108,1.047 0.919,0.698 1.427,1.744 1.554,3.139l0 16.71c0,1.299 -0.381,2.409 -1.173,3.36 -0.794,0.951 -1.967,1.427 -3.489,1.427l-36.144 0 0 111.289c0,1.142 -0.381,2.156 -1.174,3.044 -0.793,0.887 -1.902,1.332 -3.297,1.332l-18.644 0c-1.141,0 -2.187,-0.413 -3.107,-1.237 -0.919,-0.824 -1.363,-1.87 -1.363,-3.139l0 -111.289 -36.241 0c-1.268,0 -2.314,-0.412 -3.138,-1.205 -0.824,-0.793 -1.237,-1.966 -1.237,-3.582l0 -16.71z"/>
  <path id="1" class="fil1" d="M240.245 276.732c0,6.405 1.142,12.397 3.456,17.978 2.314,5.58 5.485,10.431 9.512,14.553 3.995,4.122 8.751,7.387 14.236,9.797 5.453,2.41 11.382,3.615 17.787,3.615 6.341,0 12.239,-1.205 17.692,-3.615 5.485,-2.41 10.242,-5.675 14.3,-9.797 4.058,-4.122 7.229,-8.973 9.544,-14.553 2.314,-5.581 3.456,-11.573 3.456,-17.978 0,-6.341 -1.142,-12.302 -3.456,-17.882 -2.315,-5.581 -5.486,-10.463 -9.544,-14.616 -4.058,-4.154 -8.815,-7.42 -14.3,-9.83 -5.453,-2.41 -11.351,-3.615 -17.692,-3.615 -6.405,0 -12.334,1.205 -17.787,3.615 -5.485,2.41 -10.241,5.676 -14.236,9.83 -4.027,4.153 -7.198,9.035 -9.512,14.616 -2.314,5.58 -3.456,11.541 -3.456,17.882zm-27.585 0.19c0,-6.658 0.856,-13.094 2.569,-19.309 1.712,-6.214 4.153,-12.017 7.324,-17.406 3.17,-5.391 6.943,-10.305 11.351,-14.744 4.375,-4.439 9.289,-8.244 14.68,-11.382 5.358,-3.14 11.16,-5.581 17.311,-7.325 6.183,-1.744 12.62,-2.6 19.341,-2.6 6.659,0 13.063,0.856 19.246,2.6 6.151,1.744 11.953,4.185 17.312,7.325 5.389,3.138 10.304,6.943 14.743,11.382 4.439,4.439 8.212,9.353 11.351,14.744 3.139,5.389 5.58,11.192 7.324,17.406 1.744,6.215 2.6,12.682 2.6,19.405 0,6.722 -0.856,13.157 -2.6,19.308 -1.744,6.151 -4.185,11.922 -7.324,17.312 -3.139,5.39 -6.912,10.273 -11.351,14.68 -4.439,4.408 -9.354,8.181 -14.743,11.319 -5.359,3.14 -11.161,5.581 -17.312,7.293 -6.183,1.712 -12.619,2.568 -19.341,2.568 -6.722,0 -13.158,-0.856 -19.341,-2.568 -6.151,-1.712 -11.953,-4.153 -17.311,-7.324 -5.391,-3.171 -10.305,-6.976 -14.68,-11.382 -4.408,-4.408 -8.181,-9.291 -11.32,-14.649 -3.138,-5.358 -5.548,-11.129 -7.26,-17.312 -1.713,-6.183 -2.569,-12.619 -2.569,-19.341z"/>
  <path id="2" class="fil1" d="M382.829 210.625c0,-3.044 1.394,-4.567 4.185,-4.567l91.79 0c1.649,0 2.822,0.476 3.519,1.396 0.697,0.92 1.046,2.061 1.046,3.487l0 16.805c0,1.141 -0.381,2.156 -1.173,3.043 -0.792,0.889 -1.997,1.332 -3.583,1.332l-67.629 0 0 28.917 52.125 0c1.268,-0.127 2.283,0.158 3.044,0.824 0.76,0.666 1.141,1.776 1.141,3.361l0 17.312c0,1.141 -0.317,2.156 -0.951,3.043 -0.635,0.888 -1.649,1.332 -3.044,1.332l-52.315 0 0 34.433 70.102 0c1.776,0 2.949,0.381 3.52,1.141 0.571,0.762 0.855,1.935 0.855,3.551l0 17.375c0,2.664 -1.394,3.996 -4.184,3.996l-94.263 0c-1.142,0 -2.125,-0.318 -2.949,-0.951 -0.825,-0.635 -1.236,-1.649 -1.236,-3.045l0 -132.785z"/>
  <path id="3" class="fil1" d="M508.481 210.434c0,-1.395 0.349,-2.441 1.078,-3.171 0.729,-0.729 1.712,-1.141 2.917,-1.205l90.268 0c2.917,0 4.375,1.523 4.375,4.598l0 16.582c0,1.173 -0.38,2.189 -1.141,3.108 -0.761,0.919 -1.839,1.395 -3.234,1.395l-66.679 0 0 37.857c1.649,0 3.837,0 6.564,0 2.726,0 5.707,0 8.94,0 3.235,0 6.596,0.032 10.083,0.095 3.488,0.064 6.849,0.096 10.083,0.096 3.234,0 6.214,0 8.91,0 2.695,0 4.882,0 6.594,0 1.142,0 2.125,0.317 2.949,0.982 0.824,0.666 1.237,1.776 1.237,3.298l0 16.17c0,1.141 -0.349,2.156 -1.078,3.076 -0.729,0.919 -1.745,1.395 -3.013,1.395l-51.269 0 0 48.7c0,2.664 -1.49,3.996 -4.47,3.996l-19.309 0c-2.537,-0.127 -3.805,-1.459 -3.805,-3.996l0 -132.976z"/>
  <path id="4" class="fil1" d="M629.567 210.244c0,-1.141 0.381,-2.124 1.141,-2.949 0.762,-0.824 1.84,-1.237 3.235,-1.237l18.929 0c1.141,0 2.156,0.381 3.012,1.111 0.855,0.729 1.268,1.743 1.268,3.075l0 111.099 59.544 0c1.142,0 2.125,0.381 2.949,1.173 0.825,0.793 1.236,1.871 1.236,3.203l0 17.406c0,1.142 -0.38,2.125 -1.141,2.981 -0.761,0.855 -1.775,1.3 -3.044,1.3l-82.943 0c-2.791,0 -4.186,-1.396 -4.186,-4.186l0 -132.976z"/>
  <polygon class="fil1" points="129.107,157.049 118.985,157.049 113.784,145.713 110.656,150.084 110.656,157.049 101.928,157.049 101.928,126.885 110.656,126.885 110.656,139.329 118.947,126.885 127.253,126.885 119.648,137.905 "/>
  <path id="1" class="fil1" d="M157.363 157.049l-7.552 0 -8.291 -13.303c-1.07,-1.711 -2.117,-3.791 -3.157,-6.263 0.489,1.944 0.73,3.595 0.73,4.952l0 14.614 -7.507 0 0 -30.164 8.728 0 7.032 11.05c1.402,2.193 2.457,4.13 3.174,5.796 -0.476,-2.578 -0.709,-5.216 -0.709,-7.914l0 -8.932 7.552 0 0 30.164z"/>
  <path id="2" class="fil1" d="M175.64 157.501c-4.243,0 -7.702,-1.409 -10.378,-4.221 -2.676,-2.811 -4.01,-6.572 -4.01,-11.283 0,-4.499 1.282,-8.223 3.836,-11.162 2.556,-2.932 6.105,-4.402 10.643,-4.402 4.198,0 7.628,1.387 10.273,4.153 2.645,2.766 3.964,6.459 3.964,11.08 0,4.786 -1.334,8.622 -4.002,11.509 -2.668,2.887 -6.105,4.326 -10.326,4.326zm-0.037 -6.828c1.568,0 2.698,-0.686 3.384,-2.05 0.686,-1.364 1.033,-3.859 1.033,-7.485 0,-5.253 -1.417,-7.876 -4.244,-7.876 -3.052,0 -4.575,2.992 -4.575,8.984 0,5.615 1.47,8.427 4.402,8.427z"/>
  <polygon id="3" class="fil1" points="230.842,126.885 222.853,157.049 215.082,157.049 210.854,140.4 206.859,157.049 198.757,157.049 190.775,126.885 199.481,126.885 203.678,144.213 207.839,126.885 215.082,126.885 219.537,144.251 223.758,126.885 "/>
  <polygon id="4" class="fil1" points="277.867,126.885 277.867,157.049 269.274,157.049 269.274,135.478 263.659,157.049 257.787,157.049 251.999,135.478 251.999,157.049 245.08,157.049 245.08,126.885 257.147,126.885 261.518,142.909 265.694,126.885 "/>
  <path id="5" class="fil1" d="M296.136 157.501c-4.243,0 -7.703,-1.409 -10.378,-4.221 -2.676,-2.811 -4.01,-6.572 -4.01,-11.283 0,-4.499 1.282,-8.223 3.836,-11.162 2.556,-2.932 6.105,-4.402 10.643,-4.402 4.198,0 7.627,1.387 10.273,4.153 2.645,2.766 3.964,6.459 3.964,11.08 0,4.786 -1.334,8.622 -4.002,11.509 -2.668,2.887 -6.105,4.326 -10.326,4.326zm-0.038 -6.828c1.568,0 2.699,-0.686 3.385,-2.05 0.686,-1.364 1.033,-3.859 1.033,-7.485 0,-5.253 -1.417,-7.876 -4.244,-7.876 -3.052,0 -4.575,2.992 -4.575,8.984 0,5.615 1.47,8.427 4.401,8.427z"/>
  <path id="6" class="fil1" d="M341.171 157.049l-10.258 0 -4.44 -11.532 -2.849 0 0 11.532 -9.271 0 0 -30.164 15.753 0c3.475,0 6.173,0.815 8.095,2.443 1.922,1.627 2.879,3.776 2.879,6.444 0,1.741 -0.354,3.279 -1.063,4.613 -0.708,1.334 -2.14,2.509 -4.303,3.527l5.457 13.137zm-17.547 -17.954l3.957 0c1.161,0 2.096,-0.241 2.804,-0.73 0.708,-0.49 1.062,-1.206 1.062,-2.156 0,-1.938 -1.182,-2.902 -3.557,-2.902l-4.266 0 0 5.788z"/>
  <polygon id="7" class="fil1" points="368.259,149.859 368.259,157.049 345.557,157.049 345.557,126.885 368.259,126.885 368.259,133.85 354.647,133.85 354.647,138.236 365.636,138.236 365.636,144.929 354.647,144.929 354.647,149.859 "/>
  <path id="8" class="fil1" d="M399.87 157.049l-1.666 -5.924 -8.207 0 -1.779 5.924 -7.507 0 9.33 -30.164 9.784 0 9.489 30.164 -9.444 0zm-8.193 -12.526l4.824 0 -2.419 -8.736 -2.405 8.736z"/>
  <path id="9" class="fil1" d="M412.042 157.049l0 -30.164 15.316 0c3.18,0 5.502,0.8 6.964,2.405 1.455,1.605 2.186,3.437 2.186,5.494 0,1.501 -0.422,2.857 -1.266,4.07 -0.837,1.214 -2.096,2.05 -3.761,2.51 3.896,0.942 5.841,3.286 5.841,7.032 0,2.247 -0.686,4.244 -2.065,6.008 -1.379,1.764 -4.327,2.645 -8.842,2.645l-14.373 0zm8.503 -18.632l4.318 0c1.086,0 1.847,-0.271 2.291,-0.814 0.445,-0.543 0.671,-1.123 0.671,-1.741 0,-1.673 -1.04,-2.51 -3.121,-2.51l-4.159 0 0 5.065zm0 11.939l4.544 0c1.131,0 1.96,-0.279 2.487,-0.837 0.528,-0.549 0.792,-1.183 0.792,-1.877 0,-0.7 -0.257,-1.341 -0.769,-1.921 -0.513,-0.588 -1.455,-0.882 -2.819,-0.882l-4.235 0 0 5.517z"/>
  <path id="10" class="fil1" d="M454.129 157.501c-4.243,0 -7.702,-1.409 -10.378,-4.221 -2.676,-2.811 -4.01,-6.572 -4.01,-11.283 0,-4.499 1.282,-8.223 3.836,-11.162 2.556,-2.932 6.105,-4.402 10.643,-4.402 4.198,0 7.628,1.387 10.273,4.153 2.645,2.766 3.964,6.459 3.964,11.08 0,4.786 -1.334,8.622 -4.002,11.509 -2.668,2.887 -6.105,4.326 -10.326,4.326zm-0.037 -6.828c1.568,0 2.698,-0.686 3.384,-2.05 0.686,-1.364 1.033,-3.859 1.033,-7.485 0,-5.253 -1.417,-7.876 -4.244,-7.876 -3.052,0 -4.575,2.992 -4.575,8.984 0,5.615 1.47,8.427 4.402,8.427z"/>
  <path id="11" class="fil1" d="M496.812 126.885l0 19.966c0,3.784 -1.123,6.505 -3.369,8.163 -2.246,1.658 -5.178,2.487 -8.788,2.487 -3.806,0 -6.859,-0.799 -9.165,-2.389 -2.306,-1.591 -3.46,-4.175 -3.46,-7.771l0 -20.456 9.407 0 0 19.364c0,1.446 0.309,2.494 0.919,3.157 0.61,0.663 1.59,0.995 2.932,0.995 1.115,0 2.035,-0.241 2.752,-0.716 0.715,-0.482 1.145,-1.018 1.281,-1.628 0.142,-0.603 0.21,-1.779 0.21,-3.527l0 -17.645 7.281 0z"/>
  <polygon id="12" class="fil1" points="514.125,134.121 514.125,157.049 505.352,157.049 505.352,134.121 499.111,134.121 499.111,126.885 520.366,126.885 520.366,134.121 "/>
 </g>
</svg>
