<?xml version="1.0" encoding="UTF-8"?>
<!DOCTYPE svg PUBLIC "-//W3C//DTD SVG 1.1//EN" "http://www.w3.org/Graphics/SVG/1.1/DTD/svg11.dtd">
<!-- Creator: CorelDRAW 2020 (64-Bit) -->
<svg xmlns="http://www.w3.org/2000/svg" xml:space="preserve" width="366px" height="489px" version="1.1" style="shape-rendering:geometricPrecision; text-rendering:geometricPrecision; image-rendering:optimizeQuality; fill-rule:evenodd; clip-rule:evenodd"
viewBox="0 0 149.413 199.506"
 xmlns:xlink="http://www.w3.org/1999/xlink"
 xmlns:xodm="http://www.corel.com/coreldraw/odm/2003">
 <defs>
  <style type="text/css">
   <![CDATA[
    .fil4 {fill:#7676FA}
    .fil1 {fill:#7776FE}
    .fil3 {fill:#7976FA}
    .fil8 {fill:#7979FA}
    .fil6 {fill:#BEDAFE}
    .fil7 {fill:#BEDDFC}
    .fil5 {fill:#C0DDFD}
    .fil9 {fill:#C1DDFA}
    .fil12 {fill:#F2F6FE}
    .fil13 {fill:#F3F5F3}
    .fil10 {fill:#F6F9FD}
    .fil11 {fill:#F9F9F9}
    .fil0 {fill:#FBFDFD}
    .fil2 {fill:#FEFEFE}
   ]]>
  </style>
 </defs>
 <g id="Layer_x0020_1">
  <metadata id="CorelCorpID_0Corel-Layer"/>
  <g id="_3016290679616">
   <path class="fil0" d="M58.144 183.928c-0.464,-0.033 -1.273,-0.079 -1.748,-0.193l-1.013 -0.367c-0.062,-0.145 -0.226,-0.094 -0.33,-0.158 0.485,-1.808 0.904,-1.985 2.921,-1.872l12.283 1.151c14.323,1.556 13.641,0.187 12.358,3.681 -3.556,0.239 -10.245,-0.812 -13.996,-1.22l-10.475 -1.022zm-27.835 -6.071c2.185,0.205 11.19,0.636 12.402,1.518 0.159,1.123 0.043,0.609 -0.691,2.038 -2.211,0.198 -15.616,-1.187 -19.311,-1.624 -1.644,-0.194 -5.386,0.138 -4.691,-1.485 1.046,-2.444 9.251,-0.734 12.291,-0.447zm31.356 -0.362c4.607,-3.122 12.121,-1.088 18.992,-0.558l6.09 1.003 -1.02 1.911c-2.282,0.362 -22.774,-1.683 -24.062,-2.356zm-39.004 -4.49c0.696,-3.143 5.978,-1.744 11.712,-1.1 7.136,0.802 10.056,-0.141 11.044,3.141 -1.412,0.597 -21.549,-1.248 -22.756,-2.041zm54.243 0.131c2.14,-0.772 5.378,-1.737 7.965,-1.624 7.547,0.328 5.594,0.295 4.836,2.83 -2.355,0.117 -10.991,-0.537 -12.801,-1.206zm-49.198 -5.799c0.237,-1.202 0.515,-1.326 1.164,-2.476l13.494 1.436 -0.024 2.515 -14.634 -1.475zm72.666 2.897c-0.289,1.508 -7.493,12.524 -8.962,14.885 -6.527,10.488 -4.648,9.677 -14.396,8.52l-64.298 -7.511c-3.456,-0.411 -8.15,-1.185 -4.856,-5.348l16.364 -19.567c3.027,-3.624 3.534,-2.685 8.931,-2.077 3.537,0.398 7.196,0.71 10.682,1.156 -1.207,2.888 -1.429,2.159 -4.972,1.704 -12.322,-1.582 -10.257,-2.427 -15.392,4.184 -1.774,2.283 -12.453,14.05 -12.889,16.413l32.935 3.631c0.669,-1.592 5.064,-7.903 6.391,-9.271l1.592 0.952c-0.352,1.741 -4.12,6.751 -5.194,8.875l37.52 4.202 6.691 -10.413c2.138,-3.205 4.784,-7.168 6.723,-10.42l3.13 0.085zm-23.715 -102.684c-1.656,1.162 -8.252,-0.718 -4.493,-4.524 1.76,-1.782 1.771,-1.326 1.797,-4.714 0.015,-2.025 -0.11,-4.504 0.485,-6.065 3.163,-0.138 2.013,3.632 1.966,6.475 -0.083,5.024 -1.502,3.4 -2.561,6.254 1.551,0.668 2.788,0.654 2.806,2.574zm25.727 -5.84c-1.927,-4.331 6.047,-8.913 6.708,-4.109l-3.404 0.684c0.611,1.089 1.417,1.487 1.324,3.251 -0.101,1.911 -0.727,1.833 -2.622,1.798l0.474 -2.821c-2.091,-0.03 -0.086,-0.167 -1.363,0.755 -0.824,0.595 0.194,0.405 -1.117,0.442zm-31.266 -4.958c-0.869,1.421 -1.398,4.106 -3.918,3.135 -1.669,-0.643 -1.63,-3.333 -0.712,-4.972 2.224,-3.972 7.012,-1.324 6.525,2.429 -0.01,0.073 -0.094,0.371 -0.105,0.313 -0.01,-0.058 -0.068,0.215 -0.125,0.311 -1.054,0.243 -0.847,-0.222 -1.665,-1.216zm12.465 2.995c-4.296,4.091 -6.654,-4.597 -1.578,-6.524 6.262,-2.377 8.966,8.072 5.477,5.92 -0.568,-0.35 -1.439,-2.194 -2.076,-2.933l-1.823 3.537zm-44.157 -10.934c7.193,-2.163 10.043,8.694 3.363,10.965 -7.258,2.467 -11.262,-8.59 -3.363,-10.965zm23.967 98.864c-0.663,-3.685 -1.538,-7.949 -1.947,-11.574 -1.092,0.632 -0.088,-0.118 -1.037,0.864l-1.938 2.165c-4.99,5.58 -13.847,16.796 -22.045,13.479 -10.445,-4.226 -7.631,-21.489 -4.691,-32.455l7.783 -24.074c1.515,-4.174 0.89,-4.37 0.205,-8.924 -1.02,-6.779 0.39,-12.934 5.653,-14.605 0.943,-0.299 1.508,-0.237 2.351,-0.499 2.224,-0.69 0.043,-0.9 4.168,-1.307 2.242,-0.222 5.998,-2.614 10.461,-1.898l1.006 3.274c2.245,-0.391 15.224,-3.762 13.471,1.246 -1.964,1.11 -5.722,-0.658 -9.3,1.265l-1.916 3.47c-2.178,3.779 -3.389,7.606 -4.846,9.849 -4.327,6.66 -6.03,4.862 -6.211,13.508 1.113,-0.964 3.087,-4.292 4.178,-5.742l4.623 -5.572c1.881,-1.686 5.483,-11.117 6.353,-13.991 0.823,0.647 0.047,-0.079 0.728,0.724 0.961,1.135 -0.679,-0.969 0.378,0.501 0.22,0.306 0.387,0.647 0.63,1 1.438,2.1 3.424,3.793 6.208,3.948 2.531,0.142 8.654,-1.708 10.801,-2.627 5.837,-2.497 10.98,-8.372 13.332,-13.645 3.338,-0.061 4.963,-0.365 6.875,-2.054 1.092,-0.965 2.859,-3.423 3,-5.718 0.169,-2.747 -1.612,-4.867 -4.216,-4.95 -2.975,-0.094 -4.272,1.688 -6.124,2.686 -4.341,-2.152 -8.035,-4.346 -11.061,-7.013 -2.145,0.862 -1.34,1.105 -4.433,1.296 -8.923,0.551 -6.437,-3.289 -5.292,-3.803 0.9,-0.405 3.889,-0.279 5.083,-0.309 -0.084,-0.086 -0.201,-0.186 -0.268,-0.243l-0.793 -0.655c-2.051,-1.537 -4.305,-2.426 -5.739,-4.907 -3.087,-5.341 4.2,-11.109 8.124,-14.033 9.9,-7.377 13.449,-8.209 24.277,-0.828 12.013,8.189 10.242,18.303 13.722,22.201 1.376,1.541 5.198,2.684 7.042,4.801 7.196,8.261 1.008,14.964 4.44,18.423 3.803,3.833 8.136,7.902 7.387,16.333 -0.506,5.697 -2.908,8.411 -6.157,11.845 -0.984,1.039 -1.986,1.62 -3.28,2.303 1.271,7.717 3.699,14.913 4.684,23.309 0.938,8.004 1.497,18.279 0.519,26.174 -0.645,5.204 -1.224,6.969 -4.633,9.181 -11.011,7.143 -34.382,7.574 -47.927,7.699 -1.9,0.017 -20.314,4.429 -22.39,5.256 -2.676,1.065 -7.898,3.195 -10.906,2.573 -1.385,-0.286 -1.066,-0.538 -2.112,-1.469 -1.474,-1.311 -0.489,-0.326 -2.306,-0.972 -1.308,-0.464 -1.304,-0.691 -1.86,-1.82 -1.035,-2.105 -0.001,-0.551 -1.39,-1.882 -1.898,-1.819 -0.517,-2.51 -0.412,-4.801 0.115,-2.529 0.634,-3.181 2.311,-4.217 8.501,-5.248 18.482,-4.435 22.017,-5.828 -5.157,-2.602 -5.292,0.201 -6.58,-6.958zm-7.292 -81.777c-3.748,-8.615 4.312,-12.932 4.983,-15.173 1.237,-4.131 -0.242,-9.399 4.192,-17.862 4.026,-7.682 19.28,-19.309 27.209,-12.127l-2.072 1.352c-0.798,0.423 -1.438,0.789 -2.074,1.171 -4.08,2.45 -7.426,5.699 -10.171,9.423 -2.573,3.491 -3.254,7.604 -9.346,10.276 -2.516,1.103 -2.101,0.91 -2.395,4.061 3.172,-0.098 4.629,-0.417 7.231,0.523 0.188,4.058 -4.494,3.022 -7.7,3.516 -1.537,10.06 -0.188,9.275 -0.479,15.845 -4.519,-1.143 -3.619,-2.053 -9.378,-1.005zm-11.548 -58.6c11.201,4.335 15.271,18.455 8.303,27.829 -2.847,3.829 -2.777,2.82 -5.448,5.17 -2.466,2.169 0.784,5.879 -4.428,6.201 -3.715,0.23 -7.596,0.686 -7.585,-3.31 0.038,-15.104 0.371,-7.881 6.62,-11.547 1.867,-1.095 3.811,-3.895 3.847,-6.823 0.042,-3.496 -1.94,-5.898 -3.945,-7.137 -4.34,-2.682 -7.829,2.05 -6.085,-11.017 2.031,-1.132 6.392,-0.267 8.721,0.634zm-15.545 43.646c0.794,7.337 3.505,12.023 7.667,15.259 3.567,2.774 2.001,3.564 0.035,7.053 -5.061,8.981 -1.719,15.692 -2.103,19.672 -0.347,3.598 -11.049,26.883 -11.379,46.192 -0.258,15.096 6.039,7.867 -4.998,20.99 -1.074,1.276 -1.456,1.712 -2.614,3.108l-5.197 6.252c-1.739,2.222 -3.643,4.231 -5.304,6.124 -1.209,1.377 -4.364,5.063 -4.785,6.611 -2.404,8.834 8.977,8.775 13.696,9.149 6.653,0.528 13.674,1.811 20.379,2.361 13.708,1.124 27.24,3.487 41.105,4.667 9.083,0.773 12.552,3.403 17.329,-3.66 2.953,-4.365 6.03,-9.711 8.81,-14.044 5.757,-8.974 2.171,-6.953 14.338,-8.519 7.095,-0.914 20.569,-3.943 25.399,-9.336 5.488,-6.128 4.494,-21.889 3.959,-29.372 -0.413,-5.78 -1.315,-15.405 -2.626,-20.636 -0.569,-2.271 -1.998,-7.381 -0.776,-9.446 0.376,-0.636 1.958,-2.244 2.599,-3.084 4.76,-6.233 6.387,-14.674 3.281,-22.356l-4.264 -7.169c-3.619,-4.194 -2.37,-2.311 -2.48,-8.795 -0.062,-3.605 -0.863,-6.781 -2.252,-9.338 -4.656,-8.567 -8.989,-6.878 -10.804,-12.067 -1.008,-2.884 -2.272,-5.321 -3.585,-7.859 -3.815,-7.379 -10.413,-14.455 -18.541,-16.085 -3.408,-0.684 -8.087,-0.021 -10.575,-0.903 -7.14,-2.534 -11.391,-3.597 -19.268,-1.923 -19.838,4.214 -16.19,-7.142 -31.049,-12.721 -6.721,-2.523 -13.276,-0.521 -15.204,5.308 -0.69,2.087 -1.243,40.408 -0.793,44.567z"/>
   <path class="fil1" d="M116.783 128.786c11.572,-0.432 15.708,-4.316 19.116,-4.783 0.855,7.49 2.671,24.079 0.019,30.519 -2.377,5.774 -17.174,7.716 -24.789,8.701 -8.436,1.092 -25.596,1.525 -30.425,3.046 -4.638,1.461 -8.495,2.238 -13.364,3.277 -3.148,0.672 -10.153,5.014 -13.059,3.051 0.338,-1.498 0.106,-1.127 1.844,-1.933l5.834 -2.319c0.463,-0.152 1.193,-0.329 1.532,-0.491 1.59,-0.764 0.682,-0.18 1.235,-0.972 -3.181,-1.562 -12.655,5.918 -15.058,3.588 0.077,-2.177 2.546,-2.693 5.978,-3.939 1.298,-0.472 2.59,-0.957 3.958,-1.365 2.349,-0.702 2.788,-0.368 3.786,-1.55 -0.389,-0.266 -0.408,-0.511 -1.859,-0.286 -5.255,0.817 -14.551,6.684 -13.831,3.648 0.527,-2.221 12.717,-4.835 14.336,-6.22 -1.24,-1.182 -3.725,0.284 -6.815,1.276 -2.353,0.755 -4.715,1.878 -7.088,2.532 0.393,-5.241 15.759,-6.843 19.978,-7.324 12.503,-1.425 30.42,-7.164 43.194,-10.593 10.691,-2.869 7.036,-0.415 5.478,-17.863zm-61.569 -23.954c1.425,-3.458 5.115,-7.795 7.273,-10.675 3.183,-4.25 5.174,-5.521 12.713,-5.137 1.862,4.46 1.67,7.116 4.947,9.646 8.984,6.936 23.377,-2.018 28.547,-9.652 3.628,0.773 7.776,2.072 11.352,3.223 4.035,1.299 6.897,2.88 8.965,5.72 3.365,4.621 5.874,15.489 6.576,22.372 -6.239,2.624 -11.254,5.176 -19.565,4.92 -1.879,-2.896 -0.684,-8.987 -2.802,-11.336 -2.411,0.677 -1.17,4.254 -0.819,6.799 0.342,2.482 0.706,4.979 1.103,7.53 2.668,17.127 5.393,13.473 -9.965,17.958 -3.989,1.165 -7.728,2.283 -11.786,3.377 -3.567,0.962 -8.807,2.711 -12.243,3.136 -3.144,0.389 -10.372,-0.729 -12.543,-2.138 -1.111,-1.737 -3.949,-21.012 -4.26,-24.57 -1.38,-15.828 4.572,-20.891 3.893,-24.354 -2.86,-0.25 -2.761,3.815 -4.871,6.875 -2.88,-0.453 -4.934,-2.083 -6.515,-3.694zm25.057 -16.293c0.873,2.802 1.723,4.369 3.808,5.789 5.551,3.783 16.061,-1.957 19.176,-6.897l3.033 0.558c-0.51,1.372 -4.66,5.201 -6.18,6.247 -15.255,10.498 -23.042,0.154 -21.908,-5.469l2.071 -0.228zm2.796 -4.469c3.647,-1.399 6.508,-1.954 9.868,-3.955 2.822,-1.681 5.769,-4.294 7.066,-6.818l1.511 10.992c0.482,5.121 -10.915,9.614 -14.867,8.282 -3.588,-1.208 -3.704,-4.225 -3.578,-8.501zm-38.484 -1.02c-1.467,-0.937 -1.469,-2.83 -1.104,-5.139 0.345,-2.179 1.125,-2.971 3.346,-3.392 -0.213,2.651 -0.506,7.249 -2.242,8.531zm5.789 2.624c1.304,-0.591 1.876,-2.002 3.394,-3.082 1.526,-1.085 2.737,-1.333 4.23,-2.305 1.993,-1.298 4.44,-6.08 6.786,-4.765 -0.383,0.976 -1.061,1.781 -1.636,2.971 -0.626,1.299 -0.87,2.178 -1.455,3.435 -1.042,2.237 -2.158,4.141 -3.354,6.043 -1.368,2.176 -3.036,3.753 -4.286,5.521 -1.76,2.488 -3.359,27.259 -4.594,33.407 -0.378,1.88 -1.969,5.925 -1.2,7.307 1.581,-0.179 1.189,-0.193 1.958,-2.087 1.622,-3.993 1.883,-5.205 2.372,-9.892 0.487,-4.674 0.733,-10.26 1.466,-14.805 2.049,0.956 3.798,2.766 6.62,3.461 -0.199,3.996 -1.17,6.359 -0.99,11.101 0.12,3.154 1.112,8.352 0.833,11.085 -2.862,2.794 -5.05,5.929 -7.689,8.581 -4.667,4.691 -14.354,13.906 -19.354,4.917 -5.217,-9.38 1.976,-30.583 4.744,-39.488 1.309,-4.212 2.832,-8.242 4.015,-12.366 1.034,-3.605 -1.663,-9.041 -0.772,-14.321 0.37,0.853 0.399,1.505 0.675,2.368 1.302,4.077 3.204,1.058 5.455,1.089 3.469,0.047 2.05,-0.662 4.087,-1.828l-1.305 3.653zm-2.411 -3.456c-0.73,-1.545 0.062,-3.81 0.483,-5.806 0.619,-2.929 0.068,-3.715 3.192,-3.853 0.079,2.095 -0.475,4.109 -0.961,6.089 -0.547,2.228 -0.569,3.69 -2.714,3.57zm9.308 -4.008c-0.124,-1.816 0.435,-3.429 0.818,-5.185 0.417,-1.913 0.487,-2.787 2.563,-2.641 0.878,1.664 -0.047,7.266 -3.381,7.826zm-0.732 -6.955c-0.284,1.643 -1.73,11.167 -3.805,9.107 -1.112,-1.104 0.019,-4.375 0.373,-5.839 0.563,-2.328 0.772,-3.372 3.432,-3.268zm29.086 -25.063c-1.194,0.03 -4.183,-0.096 -5.083,0.309 -1.145,0.514 -3.631,4.354 5.292,3.803 3.093,-0.191 2.288,-0.434 4.433,-1.296 3.026,2.667 6.72,4.861 11.061,7.013 1.852,-0.998 3.149,-2.78 6.124,-2.686 2.604,0.083 4.385,2.203 4.216,4.95 -0.141,2.295 -1.908,4.753 -3,5.718 -1.912,1.689 -3.537,1.993 -6.875,2.054 -2.352,5.273 -7.495,11.148 -13.332,13.645 -2.147,0.919 -8.27,2.769 -10.801,2.627 -2.784,-0.155 -4.77,-1.848 -6.208,-3.948 -0.243,-0.353 -0.41,-0.694 -0.63,-1 -1.057,-1.47 0.583,0.634 -0.378,-0.501 -0.681,-0.803 0.095,-0.077 -0.728,-0.724 -0.87,2.874 -4.472,12.305 -6.353,13.991l-4.623 5.572c-1.091,1.45 -3.065,4.778 -4.178,5.742 0.181,-8.646 1.884,-6.848 6.211,-13.508 1.457,-2.243 2.668,-6.07 4.846,-9.849l1.916 -3.47c3.578,-1.923 7.336,-0.155 9.3,-1.265 1.753,-5.008 -11.226,-1.637 -13.471,-1.246l-1.006 -3.274c-4.463,-0.716 -8.219,1.676 -10.461,1.898 -4.125,0.407 -1.944,0.617 -4.168,1.307 -0.843,0.262 -1.408,0.2 -2.351,0.499 -5.263,1.671 -6.673,7.826 -5.653,14.605 0.685,4.554 1.31,4.75 -0.205,8.924l-7.783 24.074c-2.94,10.966 -5.754,28.229 4.691,32.455 8.198,3.317 17.055,-7.899 22.045,-13.479l1.938 -2.165c0.949,-0.982 -0.055,-0.232 1.037,-0.864 0.409,3.625 1.284,7.889 1.947,11.574 1.288,7.159 1.423,4.356 6.58,6.958 -3.535,1.393 -13.516,0.58 -22.017,5.828 -1.677,1.036 -2.196,1.688 -2.311,4.217 -0.105,2.291 -1.486,2.982 0.412,4.801 1.389,1.331 0.355,-0.223 1.39,1.882 0.556,1.129 0.552,1.356 1.86,1.82 1.817,0.646 0.832,-0.339 2.306,0.972 1.046,0.931 0.727,1.183 2.112,1.469 3.008,0.622 8.23,-1.508 10.906,-2.573 2.076,-0.827 20.49,-5.239 22.39,-5.256 13.545,-0.125 36.916,-0.556 47.927,-7.699 3.409,-2.212 3.988,-3.977 4.633,-9.181 0.978,-7.895 0.419,-18.17 -0.519,-26.174 -0.985,-8.396 -3.413,-15.592 -4.684,-23.309 1.294,-0.683 2.296,-1.264 3.28,-2.303 3.249,-3.434 5.651,-6.148 6.157,-11.845 0.749,-8.431 -3.584,-12.5 -7.387,-16.333 -3.432,-3.459 2.756,-10.162 -4.44,-18.423 -1.844,-2.117 -5.666,-3.26 -7.042,-4.801 -3.48,-3.898 -1.709,-14.012 -13.722,-22.201 -10.828,-7.381 -14.377,-6.549 -24.277,0.828 -3.924,2.924 -11.211,8.692 -8.124,14.033 1.434,2.481 3.688,3.37 5.739,4.907l0.793 0.655c0.067,0.057 0.184,0.157 0.268,0.243z"/>
   <path class="fil2" d="M55.214 104.832c1.581,1.611 3.635,3.241 6.515,3.694 2.11,-3.06 2.011,-7.125 4.871,-6.875 0.679,3.463 -5.273,8.526 -3.893,24.354 0.311,3.558 3.149,22.833 4.26,24.57 2.171,1.409 9.399,2.527 12.543,2.138 3.436,-0.425 8.676,-2.174 12.243,-3.136 4.058,-1.094 7.797,-2.212 11.786,-3.377 15.358,-4.485 12.633,-0.831 9.965,-17.958 -0.397,-2.551 -0.761,-5.048 -1.103,-7.53 -0.351,-2.545 -1.592,-6.122 0.819,-6.799 2.118,2.349 0.923,8.44 2.802,11.336 8.311,0.256 13.326,-2.296 19.565,-4.92 -0.702,-6.883 -3.211,-17.751 -6.576,-22.372 -2.068,-2.84 -4.93,-4.421 -8.965,-5.72 -3.576,-1.151 -7.724,-2.45 -11.352,-3.223 -5.17,7.634 -19.563,16.588 -28.547,9.652 -3.277,-2.53 -3.085,-5.186 -4.947,-9.646 -7.539,-0.384 -9.53,0.887 -12.713,5.137 -2.158,2.88 -5.848,7.217 -7.273,10.675z"/>
   <path class="fil2" d="M68.111 157.242c-4.219,0.481 -19.585,2.083 -19.978,7.324 2.373,-0.654 4.735,-1.777 7.088,-2.532 3.09,-0.992 5.575,-2.458 6.815,-1.276 -1.619,1.385 -13.809,3.999 -14.336,6.22 -0.72,3.036 8.576,-2.831 13.831,-3.648 1.451,-0.225 1.47,0.02 1.859,0.286 -0.998,1.182 -1.437,0.848 -3.786,1.55 -1.368,0.408 -2.66,0.893 -3.958,1.365 -3.432,1.246 -5.901,1.762 -5.978,3.939 2.403,2.33 11.877,-5.15 15.058,-3.588 -0.553,0.792 0.355,0.208 -1.235,0.972 -0.339,0.162 -1.069,0.339 -1.532,0.491l-5.834 2.319c-1.738,0.806 -1.506,0.435 -1.844,1.933 2.906,1.963 9.911,-2.379 13.059,-3.051 4.869,-1.039 8.726,-1.816 13.364,-3.277 4.829,-1.521 21.989,-1.954 30.425,-3.046 7.615,-0.985 22.412,-2.927 24.789,-8.701 2.652,-6.44 0.836,-23.029 -0.019,-30.519 -3.408,0.467 -7.544,4.351 -19.116,4.783 1.558,17.448 5.213,14.994 -5.478,17.863 -12.774,3.429 -30.691,9.168 -43.194,10.593z"/>
   <path class="fil2" d="M50.372 85.674l1.305 -3.653c-2.037,1.166 -0.618,1.875 -4.087,1.828 -2.251,-0.031 -4.153,2.988 -5.455,-1.089 -0.276,-0.863 -0.305,-1.515 -0.675,-2.368 -0.891,5.28 1.806,10.716 0.772,14.321 -1.183,4.124 -2.706,8.154 -4.015,12.366 -2.768,8.905 -9.961,30.108 -4.744,39.488 5,8.989 14.687,-0.226 19.354,-4.917 2.639,-2.652 4.827,-5.787 7.689,-8.581 0.279,-2.733 -0.713,-7.931 -0.833,-11.085 -0.18,-4.742 0.791,-7.105 0.99,-11.101 -2.822,-0.695 -4.571,-2.505 -6.62,-3.461 -0.733,4.545 -0.979,10.131 -1.466,14.805 -0.489,4.687 -0.75,5.899 -2.372,9.892 -0.769,1.894 -0.377,1.908 -1.958,2.087 -0.769,-1.382 0.822,-5.427 1.2,-7.307 1.235,-6.148 2.834,-30.919 4.594,-33.407 1.25,-1.768 2.918,-3.345 4.286,-5.521 1.196,-1.902 2.312,-3.806 3.354,-6.043 0.585,-1.257 0.829,-2.136 1.455,-3.435 0.575,-1.19 1.253,-1.995 1.636,-2.971 -2.346,-1.315 -4.793,3.467 -6.786,4.765 -1.493,0.972 -2.704,1.22 -4.23,2.305 -1.518,1.08 -2.09,2.491 -3.394,3.082z"/>
   <path class="fil1" d="M56.101 65.9c5.759,-1.048 4.859,-0.138 9.378,1.005 0.291,-6.57 -1.058,-5.785 0.479,-15.845 3.206,-0.494 7.888,0.542 7.7,-3.516 -2.602,-0.94 -4.059,-0.621 -7.231,-0.523 0.294,-3.151 -0.121,-2.958 2.395,-4.061 6.092,-2.672 6.773,-6.785 9.346,-10.276 2.745,-3.724 6.091,-6.973 10.171,-9.423 0.636,-0.382 1.276,-0.748 2.074,-1.171l2.072 -1.352c-7.929,-7.182 -23.183,4.445 -27.209,12.127 -4.434,8.463 -2.955,13.731 -4.192,17.862 -0.671,2.241 -8.731,6.558 -4.983,15.173z"/>
   <path class="fil3" d="M100.372 170.234l-3.13 -0.085c-1.939,3.252 -4.585,7.215 -6.723,10.42l-6.691 10.413 -37.52 -4.202c1.074,-2.124 4.842,-7.134 5.194,-8.875l-1.592 -0.952c-1.327,1.368 -5.722,7.679 -6.391,9.271l-32.935 -3.631c0.436,-2.363 11.115,-14.13 12.889,-16.413 5.135,-6.611 3.07,-5.766 15.392,-4.184 3.543,0.455 3.765,1.184 4.972,-1.704 -3.486,-0.446 -7.145,-0.758 -10.682,-1.156 -5.397,-0.608 -5.904,-1.547 -8.931,2.077l-16.364 19.567c-3.294,4.163 1.4,4.937 4.856,5.348l64.298 7.511c9.748,1.157 7.869,1.968 14.396,-8.52 1.469,-2.361 8.673,-13.377 8.962,-14.885z"/>
   <path class="fil4" d="M43.996 43.837c-1.679,0.665 -4.088,0.494 -5.891,0.121 -0.155,-1.956 -0.919,-7.604 0.741,-8.516l3.304 -1.213c3.67,-1.677 5.989,-5.383 5.951,-9.807 -0.074,-8.429 -7.279,-9.558 -10.053,-10.71l0.154 -5.042c4.233,-0.875 8.857,2.274 10.723,4.056 5.844,5.581 6.318,16.329 1.143,22.07 -6.475,7.183 -5.532,1.224 -6.072,9.041zm-8.164 -37.171c-1.744,13.067 1.745,8.335 6.085,11.017 2.005,1.239 3.987,3.641 3.945,7.137 -0.036,2.928 -1.98,5.728 -3.847,6.823 -6.249,3.666 -6.582,-3.557 -6.62,11.547 -0.011,3.996 3.87,3.54 7.585,3.31 5.212,-0.322 1.962,-4.032 4.428,-6.201 2.671,-2.35 2.601,-1.341 5.448,-5.17 6.968,-9.374 2.898,-23.494 -8.303,-27.829 -2.329,-0.901 -6.69,-1.766 -8.721,-0.634z"/>
   <path class="fil5" d="M38.048 13.712c2.774,1.152 9.979,2.281 10.053,10.71 0.038,4.424 -2.281,8.13 -5.951,9.807l-3.304 1.213c-1.66,0.912 -0.896,6.56 -0.741,8.516 1.803,0.373 4.212,0.544 5.891,-0.121 0.54,-7.817 -0.403,-1.858 6.072,-9.041 5.175,-5.741 4.701,-16.489 -1.143,-22.07 -1.866,-1.782 -6.49,-4.931 -10.723,-4.056l-0.154 5.042z"/>
   <path class="fil0" d="M83.067 84.07c-0.126,4.276 -0.01,7.293 3.578,8.501 3.952,1.332 15.349,-3.161 14.867,-8.282l-1.511 -10.992c-1.297,2.524 -4.244,5.137 -7.066,6.818 -3.36,2.001 -6.221,2.556 -9.868,3.955z"/>
   <path class="fil6" d="M80.271 88.539l-2.071 0.228c-1.134,5.623 6.653,15.967 21.908,5.469 1.52,-1.046 5.67,-4.875 6.18,-6.247l-3.033 -0.558c-3.115,4.94 -13.625,10.68 -19.176,6.897 -2.085,-1.42 -2.935,-2.987 -3.808,-5.789z"/>
   <path class="fil7" d="M55.053 183.21c0.104,0.064 0.268,0.013 0.33,0.158l1.013 0.367c0.475,0.114 1.284,0.16 1.748,0.193l10.475 1.022c3.751,0.408 10.44,1.459 13.996,1.22 1.283,-3.494 1.965,-2.125 -12.358,-3.681l-12.283 -1.151c-2.017,-0.113 -2.436,0.064 -2.921,1.872z"/>
   <path class="fil4" d="M43.828 55.845c-1.957,3.867 -8.265,1.077 -5.767,-3.232 2.163,-3.731 7.582,-0.354 5.767,3.232zm-4.402 -7.032c-7.899,2.375 -3.895,13.432 3.363,10.965 6.68,-2.271 3.83,-13.128 -3.363,-10.965z"/>
   <path class="fil5" d="M42.02 181.413c0.734,-1.429 0.85,-0.915 0.691,-2.038 -1.212,-0.882 -10.217,-1.313 -12.402,-1.518 -3.04,-0.287 -11.245,-1.997 -12.291,0.447 -0.695,1.623 3.047,1.291 4.691,1.485 3.695,0.437 17.1,1.822 19.311,1.624z"/>
   <path class="fil7" d="M61.665 177.495c1.288,0.673 21.78,2.718 24.062,2.356l1.02 -1.911 -6.09 -1.003c-6.871,-0.53 -14.385,-2.564 -18.992,0.558z"/>
   <path class="fil5" d="M22.661 173.005c1.207,0.793 21.344,2.638 22.756,2.041 -0.988,-3.282 -3.908,-2.339 -11.044,-3.141 -5.734,-0.644 -11.016,-2.043 -11.712,1.1z"/>
   <path class="fil3" d="M80.879 58.83c0.045,-2.071 0.491,-3.196 2.045,-3.658 0.932,1.535 -0.206,3.344 -2.045,3.658zm4.527 -2.62c0.637,0.739 1.508,2.583 2.076,2.933 3.489,2.152 0.785,-8.297 -5.477,-5.92 -5.076,1.927 -2.718,10.615 1.578,6.524l1.823 -3.537z"/>
   <path class="fil3" d="M76.657 67.55c-0.018,-1.92 -1.255,-1.906 -2.806,-2.574 1.059,-2.854 2.478,-1.23 2.561,-6.254 0.047,-2.843 1.197,-6.613 -1.966,-6.475 -0.595,1.561 -0.47,4.04 -0.485,6.065 -0.026,3.388 -0.037,2.932 -1.797,4.714 -3.759,3.806 2.837,5.686 4.493,4.524z"/>
   <path class="fil5" d="M27.706 167.337l14.634 1.475 0.024 -2.515 -13.494 -1.436c-0.649,1.15 -0.927,1.274 -1.164,2.476z"/>
   <path class="fil7" d="M43.828 55.845c1.815,-3.586 -3.604,-6.963 -5.767,-3.232 -2.498,4.309 3.81,7.099 5.767,3.232z"/>
   <path class="fil3" d="M67.439 58.305c-0.049,-2.105 0.05,-2.56 1.709,-3.287 0.312,1.944 0.112,2.972 -1.709,3.287zm3.679 -1.553c0.818,0.994 0.611,1.459 1.665,1.216 0.057,-0.096 0.115,-0.369 0.125,-0.311 0.011,0.058 0.095,-0.24 0.105,-0.313 0.487,-3.753 -4.301,-6.401 -6.525,-2.429 -0.918,1.639 -0.957,4.329 0.712,4.972 2.52,0.971 3.049,-1.714 3.918,-3.135z"/>
   <path class="fil8" d="M102.384 61.71c1.311,-0.037 0.293,0.153 1.117,-0.442 1.277,-0.922 -0.728,-0.785 1.363,-0.755l-0.474 2.821c1.895,0.035 2.521,0.113 2.622,-1.798 0.093,-1.764 -0.713,-2.162 -1.324,-3.251l3.404 -0.684c-0.661,-4.804 -8.635,-0.222 -6.708,4.109z"/>
   <path class="fil9" d="M76.904 173.136c1.81,0.669 10.446,1.323 12.801,1.206 0.758,-2.535 2.711,-2.502 -4.836,-2.83 -2.587,-0.113 -5.825,0.852 -7.965,1.624z"/>
   <path class="fil10" d="M47.961 82.218c2.145,0.12 2.167,-1.342 2.714,-3.57 0.486,-1.98 1.04,-3.994 0.961,-6.089 -3.124,0.138 -2.573,0.924 -3.192,3.853 -0.421,1.996 -1.213,4.261 -0.483,5.806z"/>
   <path class="fil11" d="M56.537 71.255c-2.66,-0.104 -2.869,0.94 -3.432,3.268 -0.354,1.464 -1.485,4.735 -0.373,5.839 2.075,2.06 3.521,-7.464 3.805,-9.107z"/>
   <path class="fil10" d="M44.583 83.05c1.736,-1.282 2.029,-5.88 2.242,-8.531 -2.221,0.421 -3.001,1.213 -3.346,3.392 -0.365,2.309 -0.363,4.202 1.104,5.139z"/>
   <path class="fil10" d="M57.269 78.21c3.334,-0.56 4.259,-6.162 3.381,-7.826 -2.076,-0.146 -2.146,0.728 -2.563,2.641 -0.383,1.756 -0.942,3.369 -0.818,5.185z"/>
   <path class="fil12" d="M80.879 58.83c1.839,-0.314 2.977,-2.123 2.045,-3.658 -1.554,0.462 -2,1.587 -2.045,3.658z"/>
   <path class="fil13" d="M67.439 58.305c1.821,-0.315 2.021,-1.343 1.709,-3.287 -1.659,0.727 -1.758,1.182 -1.709,3.287z"/>
  </g>
 </g>
</svg>
