<?xml version="1.0" encoding="UTF-8"?>
<!DOCTYPE svg PUBLIC "-//W3C//DTD SVG 1.1//EN" "http://www.w3.org/Graphics/SVG/1.1/DTD/svg11.dtd">
<!-- Creator: CorelDRAW 2020 (64-Bit) -->
<svg xmlns="http://www.w3.org/2000/svg" xml:space="preserve" width="164.753mm" height="49.5469mm" version="1.1" style="shape-rendering:geometricPrecision; text-rendering:geometricPrecision; image-rendering:optimizeQuality; fill-rule:evenodd; clip-rule:evenodd"
viewBox="0 0 14895.53 4479.59"
 xmlns:xlink="http://www.w3.org/1999/xlink"
 xmlns:xodm="http://www.corel.com/coreldraw/odm/2003">
 <defs>
  <style type="text/css">
   <![CDATA[
    .fil2 {fill:#1E78C2;fill-rule:nonzero}
    .fil0 {fill:#A1D2F8;fill-rule:nonzero}
    .fil1 {fill:#A1D2F8;fill-rule:nonzero}
   ]]>
  </style>
 </defs>
 <g id="Layer_x0020_1">
  <metadata id="CorelCorpID_0Corel-Layer"/>
  <g id="_2696270800320">
   <path class="fil0" d="M8849.61 2931.09c-35.33,49.03 -150.67,195.36 -294.14,195.36 -194.04,0 -234.75,-136.19 -234.75,-250.43 0,-187.84 143.81,-274.73 528.9,-369.84l0 424.91zm479.41 230.12c-5.59,-14.58 -20.75,-22.87 -35.63,-19.36l-4.71 1.19c-44.23,9.58 -78.27,6.92 -102.11,-9.18 -33.8,-22.93 -50.3,-74.55 -50.3,-157.84l0 -753.11c0,-294.14 -175.41,-443.29 -521.39,-443.29 -309.96,0 -552.73,146.7 -552.73,333.94 0,96.28 58.65,165.87 145.32,176.33 56.61,6.84 110.56,-18.8 149.78,-60.2 76.21,-80.39 66.34,-175.99 -26.04,-278.66 54.63,-57.19 151.41,-91.01 261.75,-91.01 179.88,0 256.64,106.66 256.64,356.68l0 190.32c-42.17,13 -81.63,25.38 -153.78,42.3 -145.65,34.17 -345.46,79.7 -496.16,162.96 -124.4,68.18 -187.48,175.83 -187.48,319.98 0,156.95 103.01,340.17 393.3,340.17 162.51,0 308.19,-77.14 457.68,-242.49 12.87,171.9 78.02,236.29 236.02,236.29 75.98,0 136.77,-17.72 209.03,-52.72 19.57,-9.45 28.89,-32.2 20.8,-52.33z"/>
   <path class="fil0" d="M12553.82 1850.65c-177.73,0 -381.67,76.46 -381.67,672.31 0,454.45 134.05,675.33 409.81,675.33 263.91,0 381.59,-208.29 381.59,-675.33 0,-452.42 -134.03,-672.31 -409.72,-672.31zm15.57 1428.11c-411.23,0 -721.39,-322.23 -721.39,-749.59 0,-418.46 323.63,-758.9 721.39,-758.9 402.81,0 718.33,327.85 718.33,746.41 0,470.69 -372.85,762.08 -718.33,762.08z"/>
   <g>
    <path class="fil0" d="M5457.8 2976.03l0 -544.79 209.74 0c312.99,0 551.1,-66.24 707.73,-196.93 163.71,-136.57 198.05,-309.6 198.05,-430.73 0,-498.17 -480.66,-602.72 -883.89,-602.72l1.61 -0.04 -817.89 0c-18.51,0 -33.56,15.05 -33.56,33.57l0 2.23 -0.03 -0.71c0,17.11 10.42,32.32 26.48,38.23 72.84,26.79 270.73,-10.89 270.73,201.32l0.03 1500.3c0,109.14 -48.41,186.11 -269.62,207 -17.53,1.69 -30.8,16.07 -30.8,33.43l0 5.14c0,18.5 15.08,33.54 33.59,33.54l873.8 0c18.51,0 33.58,-15.04 33.58,-33.54l0 -4.59c0,-17.37 -13.76,-32.03 -31.28,-33.41 -240.33,-19.26 -288.57,-93.7 -288.57,-207.57l0 -543.58 0.3 543.85zm753.91 -1178.7c0,346.6 -85.46,537.57 -522.27,537.57l-231.64 0 0 -1047.35 241.02 0c451.93,0 512.89,257.66 512.89,509.78z"/>
   </g>
   <path class="fil0" d="M6867.77 2335.98c31.87,-312.27 153.75,-483.47 345.14,-483.47 95.81,0 166.82,26.51 217.02,81.04 69,74.97 98.14,210.33 86.67,402.43l-648.84 0zm366.95 -566.45c-380.35,0 -689.79,344.37 -689.79,767.72 0,428.52 290.12,739.55 689.79,739.55 335.87,0 499.29,-200.64 592.99,-351.55 9.2,-14.89 5.18,-34.54 -9.19,-44.82l-4.43 -3.16c-14.47,-10.33 -34.65,-7.41 -45.83,6.64 -123.52,154.86 -231.57,244.48 -418.25,244.48 -236.09,0 -488.33,-162.69 -488.33,-619.19l0 -3.4c-0.4,-20.21 0.09,-47.85 0.81,-73.61l965.95 0c2.65,0 4.79,-2.05 5.02,-4.68l0.55 -7.75c13.62,-187.26 -39.36,-355.43 -149.15,-473.57 -107.42,-115.56 -263.11,-176.65 -450.15,-176.65z"/>
   <path class="fil0" d="M11238.47 2352.87c-0.11,-0.03 -0.22,-0.03 -0.3,-0.08 -264.18,-74.08 -367.09,-149.1 -367.09,-267.46 0,-134.93 107.06,-232.82 254.59,-232.82 173.57,0 247.9,82.93 431.11,389.22l2.4 4.08c0.91,1.57 2.56,2.51 4.35,2.51l25.11 0c18.53,0 33.6,-15.08 33.6,-33.6l0 -440.13c0,-2.81 -2.26,-5.06 -5.06,-5.06l-33.14 0c-10.08,0 -19.56,4.48 -25.96,12.28l-58.49 71.16c-73.79,-40.68 -194.04,-83.44 -314.67,-83.44 -303.35,0 -515.28,187.53 -515.28,456.02 0,251.98 167.12,346.42 455.59,424.34 280.36,76.75 379.7,156.59 379.7,304.97 0,164.85 -159.78,239.03 -273.24,239.03 -211.08,0 -300.32,-78.46 -502.6,-441.89l-2.37 -4.33c-0.88,-1.59 -2.54,-2.6 -4.4,-2.6l-25.31 0c-18.53,0 -33.57,15.04 -33.57,33.56l0 493.17c0,2.75 2.27,5.02 5.04,5.02l34.31 0c8.88,0 17.5,-3.59 23.76,-9.82l92.46 -92.52c108.28,67.23 270.1,102.34 375.24,102.34 157.83,0 287.56,-49.97 375.22,-144.58 78.16,-84.25 121.27,-203.72 121.27,-336.37 0,-229.67 -122.61,-349.73 -452.28,-442.99z"/>
   <path class="fil0" d="M9639.98 3077.86c0,76.02 -19.35,100.93 -140.34,108.53 -17.55,1.13 -31.36,15.79 -31.36,33.46 0,18.46 15.04,33.51 33.52,33.51l597.82 0c18.15,0 32.96,-14.8 32.96,-32.95 0,-17.92 -13.94,-32.63 -31.81,-33.52 -138.37,-6.66 -174.18,-29.04 -174.18,-109.04l0 -876.56c98.39,-163.64 169.13,-249.25 288.49,-275.12 -5.79,20.64 -9.59,45.44 -9.59,65.53 0,106.52 74.44,180.85 180.9,180.85 104.61,0 177.68,-74.33 177.68,-180.85 0,-100.7 -62.89,-218.32 -240.18,-218.32 -145.35,0 -284.25,83.3 -403.53,282.67l0 -225.44c0,-22.98 -18.93,-41.44 -41.91,-40.86l-376.65 10.04c-18.24,0.53 -32.52,15.19 -32.52,33.41l0 4.88c0,16.54 12.02,30.69 27.95,32.93 125.56,17.84 142.87,77.55 142.76,139.41l0 1067.43z"/>
   <path class="fil0" d="M13774.15 1788.77c8.72,0 16.95,3.33 23.24,9.42 6.56,6.3 10.17,14.82 10.25,23.95l1.35 250.01c0,0 122.64,-293.26 520.85,-293.26l3.5 0c248.17,0 390.54,158.27 390.54,434.17l0 863.32c0,76.09 19.32,100.98 140.27,108.58 17.62,1.08 31.39,15.77 31.39,33.43 0,18.47 -15.04,33.48 -33.51,33.48l-537.02 0c-18.49,0 -33.56,-15.07 -33.56,-33.57 0,-17.91 13.44,-32.54 30.61,-34.03 97.54,-8.33 113.13,-32.95 113.13,-107.9l0 -779.15c0,-257.26 -73.12,-357.45 -260.85,-357.45 -126.83,0 -230.73,110.73 -295.56,203.64 0,0 -33.08,41.53 -68.96,119.6l3.97 813.33c0,74.8 15.15,99.41 109.93,107.84 17.09,1.51 30.53,16.15 30.53,33.34 0,19.27 -15.04,34.34 -33.53,34.34l-533.71 0c-18.47,0 -33.52,-15.01 -33.52,-33.52 0,-17.63 13.81,-32.32 31.36,-33.42 120.99,-7.63 140.31,-32.52 140.31,-108.56l0 -1065.71c0,-62.24 -17.37,-122.29 -143.62,-140.16 -15.95,-2.26 -28.05,-16.49 -28.05,-33.07l0 -4.95c0,-18.3 14.39,-33.04 32.68,-33.56l387.98 -10.16z"/>
  </g>
  <path class="fil1" d="M3199.4 288.4c946.52,539.28 1166.86,1748.59 508.28,2972.03 -578.8,1075.5 -1842.68,1534.83 -2784.37,987.29 -941.92,-547.66 -1125.74,-2075.33 -720.95,-2954.47 587.73,-1276.57 1951.19,-1600.81 2997.04,-1004.85z"/>
  <path class="fil2" d="M1980.85 3474.9c-28.83,-22.46 -61.22,-37.86 -93.82,-44.42 -11.11,-2.15 -22.51,-3.37 -33.76,-3.37 -61.57,0 -121.92,33.88 -161.38,90.82 -33.02,47.26 -46.49,103.73 -37.76,158.6 5.56,34.86 18.65,65.2 37.97,87.8 21.69,25.56 54.9,45.06 95.99,56.81 23.81,6.58 48.23,10.08 72.59,10.08l0.03 0c53.13,0 100.94,-15.89 138.07,-46.05 43.19,-35.16 66.7,-85.35 66.17,-141.19 -0.47,-65.15 -31.93,-128.45 -84.1,-169.08zm1196.59 -2258.65c185.25,197.82 242.96,498.03 210.75,744.19 -36.82,280.77 -206.94,540.51 -489.97,712.76 -224.47,136.57 -519.34,191.07 -809.48,193.69 -2.31,45.99 -11.52,204.46 -16.12,229.51 -6.84,36.98 -19.76,56.91 -35.61,77.6 -31.14,40.6 -85.21,66.83 -138.9,82.13 -42.66,12.12 -84.88,17.37 -114.8,17.37 -5.08,0 -10.01,-0.31 -14.83,-0.91 -31.58,-3.58 -66.59,-18.38 -88.24,-42.57 -21.64,-24.18 -33.9,-54.71 -36.77,-89.34l-2.4 -31.28c-6.18,-26.95 -39.8,-1391.06 -33.26,-1366.8 4.87,-163.44 268.76,-191.95 411.92,-163.1 143.5,28.93 107.18,203.25 103.29,417.55 0,0 -6.81,281.82 -20.04,579.59 182.63,-7.16 327.77,-59.19 463.6,-126.71 274.3,-135.95 419.48,-344.52 419.48,-651.72 0,-307.21 -299.07,-651.23 -850.79,-651.23 -551.68,0 -788.47,139.14 -1055.59,360.14 -60.22,49.83 -106.63,100.04 -150.48,133.09 -43.88,33.07 -160.4,38.12 -191.59,-39.21 -37.65,-93.27 32.68,-197.22 73.99,-247.52 64.85,-78.96 224.89,-238.03 402.27,-330.43 203.14,-106.04 451.66,-220.22 797.64,-228.97 313.05,-7.9 807.24,17.45 1163.25,419.53l2.68 2.65z"/>
 </g>
</svg>
