<?xml version="1.0" encoding="UTF-8"?>
<!DOCTYPE svg PUBLIC "-//W3C//DTD SVG 1.1//EN" "http://www.w3.org/Graphics/SVG/1.1/DTD/svg11.dtd">
<!-- Creator: CorelDRAW 2020 (64-Bit) -->
<svg xmlns="http://www.w3.org/2000/svg" xml:space="preserve" width="570px" height="384px" version="1.1" style="shape-rendering:geometricPrecision; text-rendering:geometricPrecision; image-rendering:optimizeQuality; fill-rule:evenodd; clip-rule:evenodd"
viewBox="0 0 280.397 188.563"
 xmlns:xlink="http://www.w3.org/1999/xlink"
 xmlns:xodm="http://www.corel.com/coreldraw/odm/2003">
 <defs>
  <style type="text/css">
   <![CDATA[
    .fil12 {fill:#2D2D59}
    .fil5 {fill:#393766}
    .fil11 {fill:#3B3868}
    .fil4 {fill:#42C2FB}
    .fil1 {fill:#47467D}
    .fil8 {fill:#89E0FF}
    .fil10 {fill:#E80054}
    .fil13 {fill:#EA7D42}
    .fil6 {fill:#F8B98D}
    .fil7 {fill:#FBAC6C}
    .fil14 {fill:#FCAD6D}
    .fil9 {fill:#FD995B}
    .fil2 {fill:#FF4155}
    .fil15 {fill:white}
    .fil17 {fill:#FF4155;fill-rule:nonzero}
    .fil16 {fill:#191563;fill-rule:nonzero;fill-opacity:0.149020}
    .fil3 {fill:#E80054}
    .fil0 {fill:#42C2FB;fill-rule:nonzero}
   ]]>
  </style>
 </defs>
 <g id="Layer_x0020_1">
  <metadata id="CorelCorpID_0Corel-Layer"/>
  <path class="fil0" d="M200.194 94.282c0,52.069 -42.208,94.281 -94.278,94.281 -52.072,0 -94.283,-42.212 -94.283,-94.281 0,-52.07 42.211,-94.282 94.283,-94.282 52.07,0 94.278,42.212 94.278,94.282z"/>
  <g id="_3016247101008">
   <path class="fil1" d="M59.412 165.988c12.812,0.726 23.334,-1.791 33.858,-7.307 1.299,-0.681 2.763,-1.444 3.828,-2.231 0.224,-2.982 0.216,-6 -0.164,-8.868 -0.443,-3.35 -1.052,-4.589 -2.04,-7.364 -0.215,-0.271 -0.619,-0.91 -0.908,-1.293 -0.466,-0.617 -0.804,-0.917 -1.211,-1.377 -0.993,-1.123 -1.631,-1.391 -2.623,-2.336 -2.776,-1.31 -4.46,-2.043 -8.072,-2.285 -4.466,-0.006 -6.656,0.559 -10.403,1.844 -3.242,1.113 -6.655,1.768 -10.533,1.471 -8.226,-0.654 -11.479,-4.747 -19.797,-5.624 -0.984,7.602 0.907,16.946 3.693,22.537 1.699,3.412 3.52,5.459 5.82,7.585 1.199,1.108 2.315,1.956 3.899,2.905 1.43,0.856 3.412,1.547 4.653,2.343z"/>
   <path class="fil2" d="M58.965 67.407c3.336,3.628 7.498,6.745 11.832,9.244 3.657,2.108 7.165,3.543 11.282,4.634 4.18,1.108 4.23,0.285 4.01,1.531 0.424,-0.231 0.284,-0.16 0.436,-0.12 2.267,5.415 3.467,10.824 3.303,17.568 -0.237,9.732 -2.266,11.575 -4.038,18.279 5.174,1.681 17.18,4.964 20.988,8.713 1.254,1.235 2.038,2.762 2.744,4.435 0.134,0.319 0.257,0.642 0.385,0.885l0.188 0.33c0.421,0.662 0.048,0.135 0.345,0.452 3.689,-3.259 6.207,-8.437 4.554,-15.157 -0.627,-2.545 -1.632,-5.098 -2.687,-7.173 -1.216,-2.392 -2.572,-4.366 -3.669,-6.521 -1.425,-1.671 -11.826,-17.498 -12.638,-18.934 -1.624,-2.87 -4.032,-7.366 -4.028,-11.637 0.009,-8.537 1.091,-4.638 -0.468,-14.608 -2.143,0.36 -5.621,1.68 -7.973,2.369 -2.694,0.79 -5.21,1.404 -7.943,2.099 -5.486,1.395 -10.984,2.533 -16.623,3.611z"/>
   <path class="fil3" d="M18.198 99.31c-1.828,3.408 -10.937,12.091 -8.592,21.901 0.565,2.361 2.183,5.56 3.539,6.616 1.591,-1.654 2.121,-4.374 4.929,-6.084 2.156,-1.314 4.972,-2.291 7.643,-2.988 3.941,-1.03 13.932,-3.357 17.761,-3.462 0.605,-0.294 1.037,-0.715 1.67,-1.167 0.545,-0.389 1.196,-0.798 1.704,-1.122 1.237,-0.79 2.531,-1.51 3.758,-2.136l0.515 -10.461c-1.262,-1.116 -2.895,-4.225 -3.787,-6.011 -1.22,-2.442 -1.76,-4.869 -2.793,-7.035 -4.471,1.354 -6.985,-2.121 -4.847,-6.029 -0.475,-1.062 -1.021,-1.594 -1.608,-2.735 -0.46,-0.893 -0.848,-1.99 -1.26,-2.944 -0.676,1.092 -1.237,2.387 -2.009,3.535 -0.812,1.207 -1.312,1.885 -2.165,3.066l-14.458 17.056z"/>
   <path class="fil4" d="M9.364 135.844c0.384,-0.445 3.673,-7.454 3.781,-8.017 -1.356,-1.056 -2.974,-4.255 -3.539,-6.616 -2.345,-9.81 6.764,-18.493 8.592,-21.901 -1.613,-11.911 -0.231,-18.938 4.224,-29.072 -5.955,-0.887 -4.67,-3.627 -1.324,-5.871 2.14,-1.435 5.639,-3.117 8.411,-4.104 0.878,-1.93 8.909,-8.526 11.417,-9.366 1.092,-4.157 2.534,-5.901 4.404,-8.929 -4.525,1.717 -8.087,2.619 -12.848,5.445 -5.197,3.085 -11.468,7.587 -15.579,12.249l-3.227 3.81c-3.492,4.56 -5.445,7.639 -8.076,13.229 -6.631,14.083 -7.412,31.021 -2.135,46.798 1.192,3.564 3.812,9.442 5.899,12.345z"/>
   <path class="fil4" d="M96.336 57.515c0.728,0.974 1.173,1.374 1.961,2.192 4.352,4.516 8.095,11.084 10.051,17.301 2.944,9.355 2.861,17.555 0.29,27.499 1.097,2.155 2.453,4.129 3.669,6.521 1.055,2.075 2.06,4.628 2.687,7.173 1.653,6.72 -0.865,11.898 -4.554,15.157l2.87 8.456c2.182,-2.958 4.47,-5.936 6.129,-9.37 6.247,-12.928 8.739,-23.971 6.627,-39.098 -1.245,-8.918 -4.496,-17.194 -9.24,-24.647 -1.9,-2.984 -6.178,-8.599 -8.582,-10.752l-3.973 -3.818c-1.007,0.267 -3.004,1.33 -4.036,1.801 -1.323,0.603 -2.672,1.001 -3.899,1.585z"/>
   <path class="fil5" d="M45.33 41.968c-1.87,3.028 -3.312,4.772 -4.404,8.929l-0.871 5.556 -10.546 3.81c-2.772,0.987 -6.271,2.669 -8.411,4.104 -3.346,2.244 -4.631,4.984 1.324,5.871 5.232,0.886 9.183,0.106 14.121,0.26l6.077 -0.602 9.783 -1.332c-0.764,-1.045 -2.581,-0.606 -5.074,-3.619 -1.222,-1.477 -2.05,-4.125 -1.232,-6.649 1.446,-4.458 5.856,-5.101 10.716,-6.197 6.666,-1.505 13.981,-2.922 20.803,-3.923 1.893,-0.277 5.243,-0.524 6.897,-0.965 -0.198,-2.019 -2.044,-3.517 -2.688,-4.99l-0.653 -0.857c-3.75,-4.26 -9.119,-7.087 -14.918,-7.808l-3.188 -0.181c-1.866,0.02 -3.754,0.261 -5.626,0.745 -1.756,0.455 -3.104,1.115 -4.714,1.87 -2.987,1.4 -5.301,3.561 -7.396,5.978z"/>
   <path class="fil1" d="M92.473 46.456l-7.96 0.755c-1.654,0.441 -5.004,0.688 -6.897,0.965 -6.822,1.001 -14.137,2.418 -20.803,3.923 -4.86,1.096 -9.27,1.739 -10.716,6.197 -0.818,2.524 0.01,5.172 1.232,6.649 2.493,3.013 4.31,2.574 5.074,3.619l0.757 -0.155 5.805 -1.002c5.639,-1.078 11.137,-2.216 16.623,-3.611 2.733,-0.695 5.249,-1.309 7.943,-2.099 2.352,-0.689 5.83,-2.009 7.973,-2.369l4.832 -1.813c1.227,-0.584 2.576,-0.982 3.899,-1.585 1.032,-0.471 3.029,-1.534 4.036,-1.801 1.278,-0.755 5.702,-3.074 5.221,-5.152 -0.592,-2.558 -10.013,-2.847 -12.413,-2.629 -1.169,0.106 -3.557,0.167 -4.606,0.108z"/>
   <path class="fil5" d="M43.478 115.293c-3.823,4.025 -7.487,6.765 -9.614,13.702 -1.267,4.129 -0.361,2.57 -2.656,4.167 -1.882,1.309 -2.539,2.549 -3.42,3.205 -0.545,1.23 -1.137,1.987 -1.696,3.431 -0.48,1.237 -0.802,2.34 -1.138,3.666 -0.728,2.878 -1.109,5.817 -1.169,8.831 4.131,3.533 9.742,6.742 15.361,9.073 2.971,1.233 5.787,2.265 9.252,3.033 3.655,0.81 6.443,1.328 11.014,1.587 -1.241,-0.796 -3.223,-1.487 -4.653,-2.343 -1.584,-0.949 -2.7,-1.797 -3.899,-2.905 -2.3,-2.126 -4.121,-4.173 -5.82,-7.585 -2.786,-5.591 -4.677,-14.935 -3.693,-22.537 0.479,-4.189 1.676,-8.223 3.67,-11.148 1.197,-1.755 2.132,-2.585 3.508,-3.764 2.801,-2.403 1.585,-0.481 2.085,-4.838 -1.227,0.626 -2.521,1.346 -3.758,2.136 -0.508,0.324 -1.159,0.733 -1.704,1.122 -0.633,0.452 -1.065,0.873 -1.67,1.167z"/>
   <path class="fil6" d="M63.879 79.515c1.111,-0.564 1.86,0.032 2.384,0.928 1.571,2.687 3.751,6.003 -0.892,5.741 -1.825,-0.104 -5.527,0.171 -4.65,-2.451 0.235,-0.702 2.489,-3.879 3.158,-4.218zm-10.719 -11.106l-0.28 3.582c2.915,-0.592 4.866,1.452 4.01,4.169 -2.699,0.944 -2,-1.542 -4.026,-0.152 0.11,3.281 1.827,13.502 3.417,15.295 0.724,-2.172 2.362,-1.612 4.72,-1.474 2.154,0.126 4.31,0.251 6.465,0.366 1.989,0.107 4.424,-0.031 4.219,2.269 -0.121,1.355 -1.799,3.305 -2.496,3.832 -1.605,0.975 -2.844,1.82 -5.278,1.75 -2.947,-0.085 -3.635,-1.167 -5.438,-2.092 -0.537,1.144 5.873,9.613 9.749,11.043 3.14,-0.463 6.087,-4.049 7.478,-4.727 0.648,-1.211 2.21,-2.621 3.154,-4.011 1.044,-1.534 1.972,-2.978 2.923,-4.711 1.746,-3.178 3.401,-6.856 4.312,-10.732 0.22,-1.246 0.17,-0.423 -4.01,-1.531 -4.117,-1.091 -7.625,-2.526 -11.282,-4.634 -4.334,-2.499 -8.496,-5.616 -11.832,-9.244l-5.805 1.002z"/>
   <path class="fil7" d="M61.144 136.242c3.878,0.297 7.291,-0.358 10.533,-1.471 3.747,-1.285 5.937,-1.85 10.403,-1.844 0.372,-3.359 -0.613,-7.556 -1.778,-10.256 -1.373,-3.181 -2.999,-5.074 -5.384,-6.966l0.216 -3.438 0.486 -8.77 -0.275 0.367c-0.972,1.489 -0.519,1.929 -2.882,4.558 -2.503,2.784 -6.082,4.152 -9.881,5.148 -2.528,0.662 -3.243,1.314 -4.778,2.635 -2.647,2.278 -4.365,6.911 -3.432,11.423 0.435,2.103 1.35,3.922 2.509,5.142 2.943,3.102 1.908,1.725 4.263,3.472z"/>
   <path class="fil8" d="M91.504 59.328c1.559,9.97 0.477,6.071 0.468,14.608 -0.004,4.271 2.404,8.767 4.028,11.637 0.812,1.436 11.213,17.263 12.638,18.934 2.571,-9.944 2.654,-18.144 -0.29,-27.499 -1.956,-6.217 -5.699,-12.785 -10.051,-17.301 -0.788,-0.818 -1.233,-1.218 -1.961,-2.192l-4.832 1.813z"/>
   <path class="fil9" d="M13.145 127.827c-0.108,0.563 -3.397,7.572 -3.781,8.017 1.827,3.663 7.312,10.3 10.159,12.578 1.018,-5.256 5.086,-10.434 8.265,-12.055 0.881,-0.656 1.538,-1.896 3.42,-3.205 2.295,-1.597 1.389,-0.038 2.656,-4.167 2.127,-6.937 5.791,-9.677 9.614,-13.702 -3.829,0.105 -13.82,2.432 -17.761,3.462 -2.671,0.697 -5.487,1.674 -7.643,2.988 -2.808,1.71 -3.338,4.43 -4.929,6.084z"/>
   <path class="fil7" d="M90.152 135.212c0.992,0.945 1.63,1.213 2.623,2.336 0.407,0.46 0.745,0.76 1.211,1.377 0.289,0.383 0.693,1.022 0.908,1.293 1.674,0.92 3.534,3.419 4.548,5.374 1.209,2.332 1.967,4.426 2.384,7.494 4.055,-2.755 8.444,-7.338 11.484,-11.272l-2.87 -8.456c-0.297,-0.317 0.076,0.21 -0.345,-0.452l-0.188 -0.33c-0.128,-0.243 -0.251,-0.566 -0.385,-0.885 -0.706,-1.673 -1.49,-3.2 -2.744,-4.435 -3.808,-3.749 -15.814,-7.032 -20.988,-8.713l-4.052 -1.069c0.787,1.117 1.995,2.321 3.026,3.658 0.822,1.065 1.839,2.677 2.547,4.108 1.382,2.798 2.569,6.237 2.841,9.972z"/>
   <path class="fil7" d="M52.403 68.564l-9.783 1.332c-0.828,2.169 0.217,7.882 0.224,10.136l1.701 7.329c1.033,2.166 1.573,4.593 2.793,7.035 0.892,1.786 2.525,4.895 3.787,6.011 0.045,0.07 0.099,0.098 0.115,0.221 0.178,1.351 5.998,7.061 11.842,7.399 1.692,0.098 4.192,-0.03 5.14,-1.03 -3.876,-1.43 -10.286,-9.899 -9.749,-11.043l0.019 -0.34c-0.96,-0.397 -2.133,-2.548 -2.211,-4.311 -1.59,-1.793 -3.307,-12.014 -3.417,-15.295 -1,0.378 -1.247,0.15 -1.964,-0.229 -0.418,-2.157 0.483,-2.949 1.98,-3.788l0.28 -3.582 -0.757 0.155z"/>
   <path class="fil9" d="M50.61 110.868c-0.5,4.357 0.716,2.435 -2.085,4.838 -1.376,1.179 -2.311,2.009 -3.508,3.764 -1.994,2.925 -3.191,6.959 -3.67,11.148 8.318,0.877 11.571,4.97 19.797,5.624 -2.355,-1.747 -1.32,-0.37 -4.263,-3.472 -1.159,-1.22 -2.074,-3.039 -2.509,-5.142 -0.933,-4.512 0.785,-9.145 3.432,-11.423 1.535,-1.321 2.25,-1.973 4.778,-2.635 3.799,-0.996 7.378,-2.364 9.881,-5.148 2.363,-2.629 1.91,-3.069 2.882,-4.558l0.275 -0.367 0.08 -1.227c-1.391,0.678 -4.338,4.264 -7.478,4.727 -0.948,1 -3.448,1.128 -5.14,1.03 -5.844,-0.338 -11.664,-6.048 -11.842,-7.399 -0.016,-0.123 -0.07,-0.151 -0.115,-0.221l-0.515 10.461z"/>
   <path class="fil10" d="M86.089 82.816c-0.911,3.876 -2.566,7.554 -4.312,10.732 -0.951,1.733 -1.879,3.177 -2.923,4.711 -0.944,1.39 -2.506,2.8 -3.154,4.011l-0.08 1.227 -0.486 8.77c1.169,0.788 2.28,1.54 3.371,2.423 0.535,0.434 0.995,0.812 1.56,1.31 0.596,0.524 1.049,1.089 1.673,1.474l4.052 1.069c1.772,-6.704 3.801,-8.547 4.038,-18.279 0.164,-6.744 -1.036,-12.153 -3.303,-17.568 -0.152,-0.04 -0.012,-0.111 -0.436,0.12z"/>
   <path class="fil8" d="M22.422 70.238c-4.455,10.134 -5.837,17.161 -4.224,29.072l14.458 -17.056c0.853,-1.181 1.353,-1.859 2.165,-3.066 0.772,-1.148 1.333,-2.443 2.009,-3.535 -0.351,-1.897 -0.638,-2.974 -0.287,-5.155 -4.938,-0.154 -8.889,0.626 -14.121,-0.26z"/>
   <path class="fil11" d="M82.08 132.927c3.612,0.242 5.296,0.975 8.072,2.285 -0.272,-3.735 -1.459,-7.174 -2.841,-9.972 -0.708,-1.431 -1.725,-3.043 -2.547,-4.108 -1.031,-1.337 -2.239,-2.541 -3.026,-3.658 -0.624,-0.385 -1.077,-0.95 -1.673,-1.474 -0.565,-0.498 -1.025,-0.876 -1.56,-1.31 -1.091,-0.883 -2.202,-1.635 -3.371,-2.423l-0.216 3.438c2.385,1.892 4.011,3.785 5.384,6.966 1.165,2.7 2.15,6.897 1.778,10.256z"/>
   <path class="fil12" d="M56.281 91.303c0.078,1.763 1.251,3.914 2.211,4.311 4.018,-2.512 6.999,-1.984 10.697,0.682 0.697,-0.527 2.375,-2.477 2.496,-3.832 0.205,-2.3 -2.23,-2.162 -4.219,-2.269 -2.155,-0.115 -4.311,-0.24 -6.465,-0.366 -2.358,-0.138 -3.996,-0.698 -4.72,1.474z"/>
   <path class="fil9" d="M36.543 70.498c-0.351,2.181 -0.064,3.258 0.287,5.155 0.412,0.954 0.8,2.051 1.26,2.944 0.587,1.141 1.133,1.673 1.608,2.735 0.742,-0.645 1.619,-1.236 3.146,-1.3 -0.007,-2.254 -1.052,-7.967 -0.224,-10.136l-6.077 0.602z"/>
   <path class="fil9" d="M97.098 156.45c0.98,-0.479 4.014,-2.563 4.728,-3.364 -0.417,-3.068 -1.175,-5.162 -2.384,-7.494 -1.014,-1.955 -2.874,-4.454 -4.548,-5.374 0.988,2.775 1.597,4.014 2.04,7.364 0.38,2.868 0.388,5.886 0.164,8.868z"/>
   <path class="fil13" d="M19.523 148.422c0.543,0.843 3.366,3.267 4.262,3.873 0.06,-3.014 0.441,-5.953 1.169,-8.831 0.336,-1.326 0.658,-2.429 1.138,-3.666 0.559,-1.444 1.151,-2.201 1.696,-3.431 -3.179,1.621 -7.247,6.799 -8.265,12.055z"/>
   <path class="fil14" d="M63.879 79.515c-0.669,0.339 -2.923,3.516 -3.158,4.218 -0.877,2.622 2.825,2.347 4.65,2.451 4.643,0.262 2.463,-3.054 0.892,-5.741 -0.524,-0.896 -1.273,-1.492 -2.384,-0.928z"/>
   <path class="fil8" d="M29.509 60.263l10.546 -3.81 0.871 -5.556c-2.508,0.84 -10.539,7.436 -11.417,9.366z"/>
   <path class="fil15" d="M39.698 81.332c-2.138,3.908 0.376,7.383 4.847,6.029l-1.701 -7.329c-1.527,0.064 -2.404,0.655 -3.146,1.3z"/>
   <path class="fil2" d="M58.492 95.614l-0.019 0.34c1.803,0.925 2.491,2.007 5.438,2.092 2.434,0.07 3.673,-0.775 5.278,-1.75 -3.698,-2.666 -6.679,-3.194 -10.697,-0.682z"/>
   <path class="fil4" d="M84.513 47.211l7.96 -0.755c-1.258,-0.833 -8.826,-4.093 -10.648,-4.235 0.644,1.473 2.49,2.971 2.688,4.99z"/>
   <path class="fil12" d="M52.88 71.991c-1.497,0.839 -2.398,1.631 -1.98,3.788 0.717,0.379 0.964,0.607 1.964,0.229 2.026,-1.39 1.327,1.096 4.026,0.152 0.856,-2.717 -1.095,-4.761 -4.01,-4.169z"/>
   <path class="fil16" d="M9.473 115.767c-0.028,-0.006 -0.048,-0.018 -0.059,-0.036 -0.012,-0.017 -0.016,-0.039 -0.012,-0.063l0.389 -1.809c0.012,-0.059 0.049,-0.081 0.11,-0.068l0.333 0.072c0.023,0.005 0.042,0.016 0.057,0.036 0.015,0.019 0.02,0.042 0.014,0.07l-0.287 1.336 0.759 0.163c0.007,-0.033 0.017,-0.076 0.028,-0.131 0.012,-0.055 0.025,-0.114 0.039,-0.179 0.014,-0.065 0.029,-0.132 0.045,-0.202 0.016,-0.07 0.031,-0.137 0.045,-0.202 0.014,-0.064 0.027,-0.124 0.039,-0.178 0.011,-0.054 0.021,-0.098 0.028,-0.132 0.005,-0.023 0.015,-0.042 0.032,-0.055 0.017,-0.014 0.041,-0.017 0.072,-0.011l0.324 0.07c0.023,0.005 0.042,0.016 0.057,0.035 0.015,0.018 0.02,0.041 0.015,0.066l-0.221 1.027 0.976 0.21c0.053,0.011 0.074,0.047 0.061,0.107l-0.083 0.387c-0.014,0.05 -0.046,0.07 -0.097,0.059l-2.664 -0.572zm0.652 -2.699c-0.022,-0.007 -0.039,-0.02 -0.05,-0.039 -0.012,-0.019 -0.013,-0.042 -0.004,-0.069l0.121 -0.368c0.006,-0.021 0.02,-0.039 0.041,-0.053 0.021,-0.013 0.044,-0.016 0.069,-0.008l2.589 0.849c0.055,0.018 0.072,0.056 0.053,0.114l-0.121 0.369c-0.018,0.054 -0.054,0.072 -0.108,0.054l-2.59 -0.849zm0.471 -1.386c-0.055,-0.024 -0.072,-0.063 -0.049,-0.115l0.479 -1.094c0.052,-0.121 0.124,-0.223 0.215,-0.308 0.091,-0.085 0.193,-0.15 0.304,-0.194 0.112,-0.044 0.23,-0.066 0.355,-0.064 0.124,0.001 0.245,0.027 0.363,0.079 0.082,0.035 0.156,0.081 0.221,0.137 0.065,0.055 0.121,0.117 0.167,0.186 0.047,0.069 0.084,0.142 0.111,0.221 0.028,0.078 0.045,0.16 0.051,0.243l1.12 -0.065c0.013,0.003 0.027,0.004 0.042,0.003 0.014,-0.001 0.028,0.002 0.041,0.008 0.036,0.015 0.045,0.044 0.026,0.086l-0.182 0.416c-0.019,0.042 -0.053,0.062 -0.103,0.057l-1.049 0.058c-0.008,0.019 -0.017,0.039 -0.025,0.062 -0.009,0.023 -0.022,0.054 -0.039,0.092 -0.017,0.039 -0.039,0.09 -0.066,0.152 -0.028,0.063 -0.063,0.144 -0.107,0.243l0.845 0.37c0.051,0.023 0.065,0.061 0.041,0.116l-0.156 0.357c-0.011,0.024 -0.025,0.04 -0.044,0.049 -0.019,0.009 -0.041,0.007 -0.067,-0.004l-2.494 -1.091zm1.438 -1.167c-0.051,-0.022 -0.105,-0.034 -0.161,-0.036 -0.057,-0.002 -0.112,0.005 -0.165,0.024 -0.053,0.018 -0.102,0.045 -0.147,0.083 -0.045,0.038 -0.081,0.083 -0.109,0.138 -0.02,0.041 -0.039,0.082 -0.057,0.122 -0.018,0.039 -0.036,0.081 -0.055,0.124l-0.154 0.353 0.828 0.362 0.207 -0.473c0.011,-0.024 0.021,-0.046 0.03,-0.067 0.009,-0.021 0.018,-0.044 0.026,-0.069 0.021,-0.057 0.03,-0.115 0.028,-0.172 -0.002,-0.057 -0.014,-0.11 -0.037,-0.16 -0.023,-0.05 -0.054,-0.095 -0.094,-0.134 -0.04,-0.04 -0.087,-0.071 -0.14,-0.095zm1.215 -2.65c-0.008,0.014 -0.02,0.026 -0.034,0.034 -0.015,0.008 -0.032,0.017 -0.054,0.026l-0.003 0.002c-0.034,0.01 -0.073,0.024 -0.118,0.044 -0.045,0.019 -0.091,0.044 -0.137,0.073 -0.046,0.029 -0.091,0.063 -0.134,0.103 -0.042,0.039 -0.078,0.084 -0.106,0.134 -0.035,0.063 -0.059,0.124 -0.072,0.18 -0.013,0.057 -0.017,0.109 -0.011,0.155 0.006,0.047 0.02,0.087 0.044,0.123 0.024,0.036 0.054,0.064 0.092,0.085 0.04,0.023 0.083,0.03 0.128,0.022 0.045,-0.009 0.092,-0.028 0.14,-0.058 0.048,-0.031 0.098,-0.068 0.15,-0.114 0.051,-0.046 0.104,-0.094 0.158,-0.146 0.062,-0.059 0.125,-0.117 0.189,-0.173 0.064,-0.056 0.13,-0.108 0.197,-0.154 0.067,-0.047 0.135,-0.087 0.204,-0.122 0.069,-0.034 0.139,-0.057 0.212,-0.07 0.071,-0.013 0.144,-0.014 0.218,-0.002 0.074,0.01 0.148,0.037 0.225,0.079 0.124,0.07 0.221,0.157 0.294,0.263 0.072,0.106 0.119,0.222 0.141,0.35 0.022,0.127 0.018,0.261 -0.01,0.401 -0.028,0.14 -0.08,0.278 -0.156,0.414 -0.049,0.088 -0.108,0.169 -0.176,0.243 -0.069,0.075 -0.144,0.142 -0.226,0.2 -0.082,0.059 -0.169,0.108 -0.262,0.15 -0.092,0.041 -0.186,0.072 -0.283,0.09l0.001 0.001 -0.008 0c-0.043,0.009 -0.076,0.007 -0.1,-0.006 -0.012,-0.007 -0.022,-0.017 -0.029,-0.03 -0.008,-0.014 -0.015,-0.031 -0.021,-0.052l-0.025 -0.087c-0.005,-0.026 -0.011,-0.053 -0.019,-0.083 -0.007,-0.029 -0.013,-0.057 -0.017,-0.085 -0.004,-0.027 -0.006,-0.053 -0.007,-0.075 -0.001,-0.022 0.001,-0.038 0.007,-0.048 0.009,-0.016 0.022,-0.028 0.04,-0.036 0.018,-0.008 0.034,-0.014 0.048,-0.018l0.011 -0.002 -0.001 0.001c0.059,-0.019 0.12,-0.043 0.182,-0.074 0.061,-0.03 0.12,-0.064 0.175,-0.101 0.056,-0.038 0.106,-0.078 0.15,-0.121 0.045,-0.043 0.08,-0.087 0.105,-0.132 0.035,-0.062 0.06,-0.125 0.074,-0.189 0.015,-0.063 0.018,-0.123 0.012,-0.179 -0.007,-0.055 -0.024,-0.106 -0.053,-0.152 -0.028,-0.045 -0.067,-0.082 -0.117,-0.11 -0.05,-0.028 -0.101,-0.037 -0.154,-0.028 -0.052,0.01 -0.105,0.031 -0.158,0.063 -0.053,0.033 -0.106,0.074 -0.159,0.122 -0.052,0.049 -0.104,0.099 -0.155,0.15 -0.119,0.115 -0.232,0.21 -0.339,0.287 -0.107,0.076 -0.21,0.132 -0.31,0.168 -0.099,0.035 -0.196,0.048 -0.291,0.04 -0.095,-0.007 -0.19,-0.037 -0.284,-0.09 -0.106,-0.059 -0.19,-0.134 -0.253,-0.225 -0.064,-0.092 -0.104,-0.194 -0.122,-0.307 -0.018,-0.113 -0.014,-0.234 0.014,-0.364 0.027,-0.13 0.078,-0.262 0.154,-0.399 0.058,-0.103 0.132,-0.199 0.224,-0.287 0.092,-0.089 0.192,-0.163 0.3,-0.222 0.032,-0.017 0.067,-0.034 0.104,-0.051 0.038,-0.016 0.074,-0.03 0.109,-0.041 0.036,-0.012 0.068,-0.02 0.098,-0.023 0.029,-0.004 0.052,-0.001 0.066,0.007 0.014,0.008 0.026,0.019 0.036,0.034 0.01,0.014 0.019,0.03 0.024,0.047l0.026 0.081 -0.002 -0.001c0.009,0.027 0.018,0.055 0.027,0.084 0.009,0.029 0.016,0.057 0.022,0.084 0.005,0.026 0.009,0.05 0.01,0.071 0.002,0.02 0,0.035 -0.005,0.046zm-0.101 -1.132c-0.022,-0.015 -0.034,-0.033 -0.038,-0.056 -0.004,-0.022 0.001,-0.045 0.016,-0.067l1.124 -1.712c0.013,-0.019 0.031,-0.034 0.053,-0.041 0.022,-0.008 0.046,-0.005 0.071,0.008l0.287 0.188c0.022,0.015 0.037,0.034 0.044,0.058 0.007,0.024 0.002,0.05 -0.015,0.076l-0.407 0.619 1.907 1.252c0.019,0.013 0.033,0.031 0.039,0.055 0.006,0.023 0.002,0.047 -0.014,0.071l-0.21 0.319c-0.013,0.02 -0.032,0.033 -0.056,0.04 -0.025,0.006 -0.048,0.002 -0.069,-0.012l-1.907 -1.252 -0.407 0.62c-0.015,0.022 -0.034,0.036 -0.057,0.041 -0.022,0.005 -0.047,-0.001 -0.075,-0.019l-0.286 -0.188zm4.396 -1.562c-0.017,-0.021 -0.032,-0.041 -0.045,-0.061 -0.013,-0.02 -0.025,-0.038 -0.035,-0.054l-1.481 -2.401c-0.009,-0.011 -0.015,-0.03 -0.019,-0.054 -0.003,-0.025 0.003,-0.049 0.021,-0.073l0.187 -0.253c0.018,-0.025 0.038,-0.038 0.059,-0.04 0.02,-0.002 0.037,-0.001 0.05,0l0.161 0.039 2.684 0.704c0.003,0.003 0.009,0.006 0.018,0.01 0.009,0.004 0.016,0.009 0.021,0.013 0.032,0.023 0.03,0.057 -0.004,0.103l-0.228 0.309c-0.017,0.023 -0.035,0.037 -0.053,0.043 -0.019,0.006 -0.041,0.005 -0.067,-0.001l-0.093 -0.025c-0.065,-0.017 -0.13,-0.035 -0.195,-0.052 -0.065,-0.017 -0.13,-0.035 -0.195,-0.054l-0.715 0.967c0.053,0.081 0.102,0.158 0.148,0.231 0.045,0.073 0.085,0.137 0.12,0.19 0.028,0.043 0.027,0.085 -0.002,0.124l-0.232 0.314c-0.015,0.02 -0.03,0.033 -0.046,0.039 -0.016,0.007 -0.032,0.005 -0.047,-0.006 -0.006,-0.005 -0.01,-0.008 -0.012,-0.012zm-0.868 -2.329c0.103,0.163 0.211,0.33 0.324,0.5 0.113,0.17 0.22,0.337 0.322,0.499l0.494 -0.667 -1.14 -0.332zm1.826 -3.455c0.017,-0.008 0.033,-0.012 0.05,-0.013 0.017,-0.001 0.033,0.003 0.048,0.014 0.011,0.008 0.021,0.02 0.03,0.035l0.157 0.339c0.012,0.035 0.011,0.063 -0.003,0.083 -0.005,0.007 -0.012,0.013 -0.02,0.02 -0.009,0.006 -0.018,0.012 -0.03,0.017 -0.094,0.034 -0.182,0.08 -0.262,0.139 -0.08,0.058 -0.15,0.13 -0.21,0.217 -0.075,0.109 -0.124,0.223 -0.146,0.342 -0.022,0.12 -0.02,0.237 0.005,0.352 0.024,0.115 0.071,0.224 0.141,0.326 0.069,0.103 0.158,0.192 0.266,0.267 0.109,0.075 0.223,0.127 0.342,0.155 0.12,0.029 0.239,0.035 0.355,0.017 0.116,-0.017 0.226,-0.057 0.33,-0.12 0.103,-0.063 0.192,-0.148 0.268,-0.257 0.06,-0.087 0.104,-0.179 0.132,-0.276 0.027,-0.097 0.04,-0.195 0.038,-0.294 -0.001,-0.013 0.001,-0.026 0.005,-0.036 0.005,-0.011 0.008,-0.019 0.012,-0.026 0.012,-0.019 0.037,-0.029 0.074,-0.032l0.378 0.027c0.017,0.003 0.031,0.008 0.042,0.015 0.015,0.01 0.024,0.023 0.027,0.039 0.003,0.016 0.006,0.033 0.006,0.051 -0.002,0.147 -0.024,0.291 -0.068,0.432 -0.043,0.142 -0.109,0.277 -0.198,0.405 -0.079,0.113 -0.168,0.212 -0.269,0.296 -0.101,0.084 -0.21,0.153 -0.327,0.207 -0.116,0.054 -0.237,0.092 -0.363,0.115 -0.126,0.024 -0.253,0.03 -0.38,0.021 -0.127,-0.009 -0.254,-0.035 -0.378,-0.078 -0.124,-0.044 -0.243,-0.104 -0.356,-0.183 -0.114,-0.078 -0.212,-0.168 -0.296,-0.269 -0.085,-0.102 -0.154,-0.211 -0.208,-0.327 -0.054,-0.117 -0.093,-0.239 -0.116,-0.366 -0.024,-0.126 -0.03,-0.252 -0.02,-0.38 0.01,-0.128 0.037,-0.254 0.08,-0.378 0.043,-0.125 0.103,-0.244 0.181,-0.357 0.088,-0.127 0.19,-0.235 0.305,-0.324 0.115,-0.09 0.241,-0.162 0.378,-0.215zm2.381 1.181c-0.015,-0.022 -0.029,-0.043 -0.04,-0.064 -0.011,-0.021 -0.022,-0.039 -0.032,-0.056l-1.319 -2.493c-0.008,-0.013 -0.013,-0.032 -0.015,-0.056 -0.002,-0.025 0.006,-0.049 0.025,-0.071l0.203 -0.24c0.02,-0.024 0.041,-0.036 0.061,-0.036 0.021,-0.001 0.038,0.001 0.051,0.003l0.158 0.049 2.632 0.88c0.003,0.003 0.008,0.006 0.017,0.01 0.009,0.005 0.016,0.01 0.021,0.015 0.029,0.025 0.026,0.059 -0.011,0.103l-0.248 0.293c-0.019,0.022 -0.037,0.035 -0.056,0.039 -0.019,0.004 -0.042,0.003 -0.067,-0.005l-0.092 -0.032c-0.063,-0.021 -0.127,-0.042 -0.19,-0.064 -0.064,-0.021 -0.127,-0.044 -0.191,-0.067l-0.777 0.918c0.047,0.085 0.091,0.164 0.132,0.24 0.04,0.076 0.076,0.142 0.107,0.198 0.026,0.045 0.022,0.086 -0.01,0.124l-0.252 0.297c-0.016,0.019 -0.032,0.031 -0.049,0.037 -0.016,0.005 -0.032,0.002 -0.045,-0.009 -0.007,-0.006 -0.01,-0.01 -0.013,-0.013zm-0.712 -2.381c0.092,0.169 0.189,0.343 0.291,0.52 0.101,0.177 0.197,0.351 0.288,0.519l0.536 -0.634 -1.115 -0.405zm3.288 -2.787c0.104,0.088 0.191,0.185 0.263,0.291 0.072,0.107 0.129,0.22 0.17,0.338 0.04,0.118 0.065,0.239 0.074,0.364 0.009,0.124 0.001,0.248 -0.022,0.371 -0.023,0.123 -0.063,0.244 -0.118,0.362 -0.055,0.117 -0.127,0.228 -0.215,0.332l-0.605 0.715c-0.015,0.018 -0.033,0.03 -0.053,0.038 -0.019,0.007 -0.042,-0.001 -0.068,-0.023l-2.078 -1.759c-0.047,-0.04 -0.051,-0.082 -0.012,-0.128l0.605 -0.714c0.133,-0.158 0.287,-0.281 0.459,-0.369 0.173,-0.089 0.352,-0.141 0.537,-0.158 0.186,-0.017 0.37,0.003 0.554,0.058 0.184,0.057 0.353,0.15 0.509,0.282zm-1.949 0.883l1.395 1.182 0.12 -0.141c0.063,-0.074 0.124,-0.149 0.184,-0.226 0.079,-0.1 0.136,-0.209 0.169,-0.323 0.033,-0.115 0.044,-0.229 0.033,-0.343 -0.011,-0.113 -0.044,-0.223 -0.099,-0.328 -0.055,-0.106 -0.132,-0.199 -0.228,-0.281 -0.102,-0.086 -0.211,-0.147 -0.328,-0.182 -0.116,-0.035 -0.232,-0.046 -0.347,-0.033 -0.115,0.013 -0.226,0.048 -0.332,0.107 -0.106,0.057 -0.2,0.135 -0.282,0.232l-0.285 0.336zm1.255 -2.164c-0.048,-0.04 -0.054,-0.082 -0.017,-0.126l1.216 -1.435c0.022,-0.026 0.045,-0.038 0.068,-0.037 0.024,0.001 0.046,0.011 0.069,0.03l0.263 0.223c0.017,0.015 0.028,0.034 0.032,0.058 0.003,0.024 -0.006,0.049 -0.027,0.074l-0.895 1.058 0.452 0.383 0.69 -0.816c0.015,-0.021 0.033,-0.033 0.053,-0.036 0.021,-0.004 0.043,0.005 0.068,0.026l0.271 0.229c0.018,0.016 0.029,0.034 0.035,0.056 0.005,0.021 -0.001,0.043 -0.02,0.065l-0.692 0.818 0.538 0.456 0.928 -1.097c0.024,-0.027 0.045,-0.04 0.065,-0.039 0.019,0.001 0.042,0.012 0.067,0.033l0.271 0.231c0.042,0.035 0.044,0.074 0.008,0.118l-1.249 1.474c-0.015,0.018 -0.033,0.029 -0.054,0.034 -0.02,0.004 -0.042,-0.003 -0.064,-0.021l-2.076 -1.759zm1.758 -2.089c-0.017,-0.018 -0.026,-0.039 -0.027,-0.062 -0.002,-0.023 0.006,-0.045 0.022,-0.065l0.315 -0.372c0.03,-0.035 0.068,-0.042 0.115,-0.021l1.909 0.715c-0.171,-0.296 -0.341,-0.592 -0.507,-0.886 -0.167,-0.293 -0.337,-0.588 -0.509,-0.883 -0.026,-0.046 -0.026,-0.085 0.001,-0.117l0.316 -0.373c0.017,-0.02 0.037,-0.031 0.061,-0.032 0.023,-0.002 0.044,0.005 0.063,0.019 0.38,0.258 0.757,0.514 1.135,0.769 0.377,0.255 0.755,0.51 1.135,0.767l0.004 0.004c0.041,0.034 0.043,0.073 0.006,0.117l-0.244 0.288c-0.038,0.045 -0.08,0.05 -0.125,0.015l-1.537 -1.041 0.949 1.655c0.01,0.016 0.016,0.035 0.019,0.056 0.002,0.021 -0.001,0.038 -0.012,0.05l-0.226 0.267c-0.011,0.013 -0.027,0.021 -0.047,0.022 -0.021,0.001 -0.041,-0.002 -0.06,-0.01 -0.298,-0.113 -0.595,-0.224 -0.891,-0.333 -0.295,-0.109 -0.594,-0.219 -0.894,-0.331l1.278 1.343c0.044,0.037 0.046,0.079 0.007,0.124l-0.244 0.289c-0.037,0.044 -0.077,0.047 -0.121,0.01l-1.891 -1.984zm3.735 -2.717l0.002 -0.004 -0.472 -1.171c-0.013,-0.03 -0.018,-0.05 -0.014,-0.061 0.003,-0.011 0.009,-0.025 0.018,-0.041l0.347 -0.411c0.016,-0.018 0.033,-0.021 0.05,-0.006 0.009,0.007 0.016,0.024 0.021,0.051 0.101,0.292 0.206,0.585 0.313,0.878 0.107,0.293 0.21,0.587 0.311,0.881l0.847 0.717c0.047,0.04 0.051,0.082 0.013,0.127l-0.256 0.301c-0.035,0.042 -0.076,0.043 -0.122,0.004l-0.845 -0.715 -1.837 -0.327c-0.009,0.001 -0.019,-0.001 -0.031,-0.006 -0.012,-0.005 -0.021,-0.01 -0.026,-0.014 -0.015,-0.013 -0.014,-0.028 0.002,-0.047l0.345 -0.408c0.009,-0.006 0.015,-0.012 0.02,-0.016 0.005,-0.005 0.011,-0.008 0.017,-0.01 0.007,-0.002 0.016,-0.002 0.027,-0.001 0.01,0.002 0.025,0.005 0.044,0.009l1.226 0.27z"/>
  </g>
  <path class="fil17" d="M146.844 37.983c0.457,1.376 0.811,2.807 1.063,4.284 0.252,1.477 0.362,2.954 0.347,4.423 -0.023,1.468 -0.194,2.896 -0.531,4.284 -0.329,1.381 -0.845,2.666 -1.55,3.848 -0.704,1.182 -1.62,2.23 -2.74,3.151 -1.127,0.929 -2.489,1.653 -4.086,2.187 -0.7,0.232 -1.439,0.448 -2.225,0.633 -0.786,0.192 -1.58,0.33 -2.381,0.428 -0.802,0.098 -1.603,0.133 -2.404,0.098 -0.8,-0.028 -1.561,-0.165 -2.283,-0.388l-1.614 -8.63c0.533,0.113 1.129,0.187 1.773,0.221 0.636,0.042 1.288,0.046 1.94,0.025 0.659,-0.028 1.296,-0.088 1.924,-0.194 0.629,-0.107 1.211,-0.246 1.753,-0.424 0.842,-0.286 1.535,-0.644 2.071,-1.089 0.536,-0.453 0.947,-0.969 1.224,-1.564 0.278,-0.596 0.446,-1.247 0.497,-1.969 0.051,-0.722 0.007,-1.492 -0.138,-2.317 -0.718,0.758 -1.522,1.414 -2.397,1.983 -0.874,0.569 -1.811,1.02 -2.802,1.344 -1.219,0.411 -2.445,0.609 -3.677,0.595 -1.233,-0.006 -2.378,-0.224 -3.444,-0.653 -1.066,-0.429 -2.013,-1.078 -2.849,-1.93 -0.836,-0.852 -1.467,-1.923 -1.9,-3.22 -0.55,-1.66 -0.754,-3.278 -0.613,-4.864 0.149,-1.577 0.581,-3.044 1.294,-4.383 0.721,-1.331 1.701,-2.52 2.954,-3.55 1.246,-1.031 2.702,-1.816 4.361,-2.374 2.022,-0.673 3.892,-0.876 5.618,-0.624 1.726,0.259 3.286,0.864 4.678,1.813 1.394,0.949 2.605,2.195 3.641,3.724 1.03,1.528 1.862,3.236 2.496,5.132zm-10.097 -0.183c-0.147,-0.433 -0.373,-0.795 -0.686,-1.079 -0.312,-0.284 -0.664,-0.498 -1.049,-0.641 -0.391,-0.144 -0.799,-0.216 -1.239,-0.218 -0.432,-0.002 -0.848,0.066 -1.242,0.198 -0.393,0.131 -0.755,0.318 -1.094,0.568 -0.339,0.249 -0.623,0.546 -0.844,0.89 -0.23,0.337 -0.373,0.713 -0.446,1.113 -0.064,0.401 -0.027,0.817 0.112,1.234 0.139,0.425 0.365,0.779 0.678,1.063 0.313,0.284 0.665,0.498 1.057,0.641 0.384,0.143 0.8,0.224 1.24,0.226 0.431,0.01 0.848,-0.051 1.241,-0.182 0.393,-0.132 0.756,-0.326 1.094,-0.584 0.331,-0.257 0.616,-0.554 0.837,-0.891 0.23,-0.344 0.38,-0.713 0.445,-1.113 0.073,-0.392 0.036,-0.8 -0.104,-1.225z"/>
  <path id="1" class="fil17" d="M175.913 30.63c0.426,1.274 0.71,2.594 0.844,3.953 0.135,1.367 0.129,2.718 -0.019,4.06 -0.148,1.342 -0.445,2.644 -0.891,3.906 -0.446,1.262 -1.048,2.437 -1.799,3.509 -0.759,1.08 -1.667,2.025 -2.723,2.845 -1.064,0.827 -2.284,1.465 -3.668,1.929 -1.393,0.464 -2.768,0.685 -4.118,0.663 -1.343,-0.014 -2.638,-0.233 -3.884,-0.639 -1.246,-0.414 -2.421,-0.993 -3.549,-1.729 -1.119,-0.744 -2.135,-1.605 -3.065,-2.591 -0.922,-0.986 -1.741,-2.065 -2.45,-3.246 -0.709,-1.174 -1.268,-2.402 -1.694,-3.668 -0.417,-1.266 -0.702,-2.587 -0.844,-3.961 -0.143,-1.367 -0.144,-2.734 0.012,-4.076 0.148,-1.342 0.453,-2.651 0.898,-3.921 0.446,-1.27 1.049,-2.445 1.8,-3.517 0.743,-1.08 1.659,-2.026 2.731,-2.853 1.072,-0.827 2.3,-1.473 3.684,-1.929 1.384,-0.465 2.744,-0.678 4.086,-0.656 1.343,0.023 2.637,0.233 3.884,0.64 1.254,0.406 2.437,0.993 3.549,1.744 1.119,0.752 2.135,1.621 3.065,2.599 0.921,0.986 1.741,2.073 2.449,3.254 0.709,1.19 1.276,2.417 1.702,3.684zm-8.993 3.717c-0.209,-0.637 -0.535,-1.322 -0.971,-2.046 -0.437,-0.733 -0.952,-1.379 -1.546,-1.939 -0.586,-0.561 -1.243,-0.98 -1.964,-1.259 -0.729,-0.278 -1.483,-0.282 -2.27,-0.019 -0.794,0.264 -1.401,0.724 -1.812,1.381 -0.412,0.65 -0.69,1.387 -0.835,2.187 -0.146,0.808 -0.173,1.633 -0.083,2.481 0.082,0.841 0.235,1.587 0.452,2.225 0.209,0.636 0.536,1.321 0.972,2.054 0.436,0.724 0.951,1.37 1.553,1.931 0.594,0.56 1.259,0.98 1.98,1.25 0.721,0.279 1.483,0.282 2.285,0.019 0.787,-0.263 1.386,-0.723 1.797,-1.373 0.412,-0.658 0.682,-1.386 0.82,-2.195 0.137,-0.8 0.157,-1.624 0.075,-2.473 -0.091,-0.84 -0.236,-1.579 -0.453,-2.224z"/>
  <path id="2" class="fil17" d="M161.582 73.4c0.472,1.408 0.677,2.736 0.616,3.96 -0.053,1.233 -0.318,2.378 -0.778,3.444 -0.461,1.057 -1.094,2.036 -1.899,2.927 -0.797,0.899 -1.704,1.711 -2.713,2.445 -1.009,0.733 -2.088,1.387 -3.237,1.955 -1.157,0.567 -2.306,1.056 -3.47,1.459l3.39 10.161 -10.169 3.39c-1.107,-3.327 -2.206,-6.646 -3.289,-9.957 -1.091,-3.303 -2.174,-6.645 -3.265,-10.011 -0.564,-1.786 -1.145,-3.563 -1.756,-5.333 -0.604,-1.769 -1.161,-3.57 -1.678,-5.41 1.679,-1.17 3.403,-2.206 5.174,-3.1 1.771,-0.895 3.644,-1.678 5.626,-2.336 1.117,-0.372 2.264,-0.657 3.451,-0.847 1.179,-0.191 2.349,-0.256 3.503,-0.211 1.154,0.053 2.268,0.231 3.35,0.527 1.075,0.296 2.07,0.74 2.978,1.342 0.915,0.601 1.728,1.359 2.446,2.281 0.718,0.914 1.294,2.016 1.72,3.314zm-9.442 3.966c-0.31,-0.944 -0.849,-1.582 -1.601,-1.923 -0.744,-0.342 -1.584,-0.362 -2.496,-0.052 -0.307,0.101 -0.614,0.233 -0.929,0.388 -0.307,0.164 -0.598,0.327 -0.866,0.499l1.861 6.455c0.22,-0.038 0.417,-0.084 0.605,-0.146 0.189,-0.07 0.386,-0.132 0.59,-0.201 0.527,-0.171 0.999,-0.427 1.433,-0.763 0.426,-0.343 0.773,-0.734 1.042,-1.188 0.269,-0.454 0.445,-0.94 0.525,-1.458 0.074,-0.518 0.021,-1.052 -0.164,-1.611z"/>
  <polygon id="3" class="fil17" points="182.403,54.966 185.271,64.292 178.852,66.719 184.08,87.961 175.032,91.505 168.192,70.805 161.804,73.318 158.635,62.93 "/>
  <path id="4" class="fil17" d="M204.148 47.293c0.362,1.399 0.732,2.775 1.11,4.135 0.37,1.368 0.725,2.752 1.064,4.159l-9.087 3.56 0.693 2.822 6.504 -2.167 1.772 6.927 -6.474 2.395 0.848 3.262 5.411 -1.803 3.838 -1.285c0.448,1.636 0.887,3.255 1.319,4.859 0.424,1.612 0.872,3.224 1.327,4.836l-18.665 6.701 -9.779 -31.7 20.119 -6.701z"/>
  <polygon id="5" class="fil17" points="179.64,99.183 188.299,131.882 178.497,135.635 172.957,118.718 172.993,133.833 169.155,135.11 161.655,124.081 166.313,138.237 156.339,141.903 146.734,111.602 157.803,107.424 167.06,120.385 167.898,103.091 "/>
  <path id="6" class="fil17" d="M218.287 119.364l-10.358 5.006 -2.946 -4.498 -4.979 1.656 0.555 5.295 -11.492 2.614 -0.999 -31.955 11.927 -4.653 18.292 26.535zm-16.32 -5.906l-4.182 -7.04 0.911 8.131 3.271 -1.091z"/>
  <path id="7" class="fil17" d="M243.537 107.449c-0.398,1.089 -0.992,2.115 -1.782,3.093 -0.79,0.978 -1.689,1.86 -2.698,2.672 -1.009,0.804 -2.081,1.513 -3.214,2.12 -1.142,0.615 -2.251,1.104 -3.345,1.468 -2.107,0.704 -4.174,0.992 -6.183,0.873 -2.01,-0.128 -3.877,-0.608 -5.584,-1.449 -1.715,-0.848 -3.225,-2.026 -4.537,-3.547 -1.312,-1.514 -2.316,-3.317 -3.013,-5.394 -0.526,-1.588 -0.856,-3.192 -0.997,-4.81 -0.133,-1.618 -0.078,-3.196 0.164,-4.734 0.236,-1.53 0.667,-3.004 1.278,-4.422 0.604,-1.419 1.404,-2.718 2.375,-3.923 0.972,-1.196 2.131,-2.251 3.463,-3.171 1.331,-0.92 2.827,-1.659 4.486,-2.216 0.629,-0.201 1.306,-0.402 2.037,-0.587 0.731,-0.185 1.47,-0.338 2.216,-0.452 0.747,-0.107 1.485,-0.166 2.231,-0.17 0.738,-0.004 1.444,0.062 2.103,0.199l2.165 8.538c-0.918,-0.036 -1.829,0.038 -2.726,0.214 -0.903,0.184 -1.768,0.408 -2.602,0.686 -1.164,0.387 -2.195,0.908 -3.101,1.556 -0.906,0.647 -1.632,1.405 -2.179,2.266 -0.545,0.861 -0.888,1.817 -1.019,2.885 -0.13,1.059 0.005,2.19 0.408,3.402 0.255,0.755 0.598,1.455 1.034,2.085 0.445,0.639 0.96,1.167 1.555,1.571 0.595,0.411 1.261,0.673 1.991,0.802 0.729,0.13 1.499,0.063 2.309,-0.208 0.558,-0.186 1.102,-0.45 1.645,-0.793 0.543,-0.343 0.962,-0.757 1.27,-1.242l-0.478 -1.738 -5.269 1.663 -1.915 -6.637c2.14,-0.79 4.287,-1.573 6.434,-2.348 2.156,-0.775 4.311,-1.573 6.482,-2.387l4.996 14.135z"/>
  <polygon id="8" class="fil17" points="247.939,77.116 256.312,107.348 247.264,110.892 236.54,81.599 "/>
  <path id="9" class="fil17" d="M270.819 70.441l2.279 9.473c-0.464,0.021 -0.904,0.082 -1.328,0.174 -0.417,0.092 -0.841,0.208 -1.258,0.347 -1.039,0.349 -1.975,0.807 -2.834,1.376 -0.851,0.577 -1.545,1.257 -2.083,2.032 -0.545,0.774 -0.887,1.652 -1.049,2.617 -0.154,0.965 -0.041,2.002 0.33,3.127 0.271,0.81 0.629,1.479 1.066,2.007 0.445,0.521 0.954,0.908 1.534,1.162 0.572,0.254 1.215,0.375 1.914,0.371 0.699,-0.013 1.437,-0.143 2.208,-0.398 0.535,-0.178 1.07,-0.419 1.598,-0.715 0.535,-0.303 1.055,-0.638 1.559,-1.013 0.505,-0.382 0.978,-0.78 1.42,-1.202 0.433,-0.422 0.836,-0.844 1.199,-1.274l3.067 10.372c-0.474,0.477 -1.002,0.945 -1.577,1.382 -0.583,0.445 -1.19,0.866 -1.82,1.263 -0.638,0.398 -1.284,0.756 -1.953,1.074 -0.661,0.319 -1.298,0.583 -1.927,0.792 -2.069,0.681 -4.072,0.922 -6.026,0.716 -1.954,-0.205 -3.758,-0.772 -5.41,-1.698 -1.66,-0.927 -3.115,-2.16 -4.372,-3.697 -1.256,-1.537 -2.221,-3.301 -2.879,-5.29 -0.797,-2.391 -1.202,-4.725 -1.214,-7.018 -0.012,-2.293 0.39,-4.419 1.201,-6.37 0.81,-1.959 2.044,-3.696 3.692,-5.212 1.656,-1.507 3.743,-2.683 6.26,-3.526 1.006,-0.333 2.044,-0.595 3.137,-0.778 1.084,-0.183 2.168,-0.209 3.266,-0.094z"/>
 </g>
</svg>
