<?xml version="1.0" encoding="UTF-8"?>
<!DOCTYPE svg PUBLIC "-//W3C//DTD SVG 1.1//EN" "http://www.w3.org/Graphics/SVG/1.1/DTD/svg11.dtd">
<!-- Creator: CorelDRAW 2020 (64-Bit) -->
<svg xmlns="http://www.w3.org/2000/svg" xml:space="preserve" width="394px" height="281px" version="1.1" style="shape-rendering:geometricPrecision; text-rendering:geometricPrecision; image-rendering:optimizeQuality; fill-rule:evenodd; clip-rule:evenodd"
viewBox="0 0 354.42 252.597"
 xmlns:xlink="http://www.w3.org/1999/xlink"
 xmlns:xodm="http://www.corel.com/coreldraw/odm/2003">
 <defs>
  <style type="text/css">
   <![CDATA[
    .fil0 {fill:#77BED1}
    .fil1 {fill:#FEFEFE;fill-rule:nonzero}
   ]]>
  </style>
 </defs>
 <g id="Layer_x0020_1">
  <metadata id="CorelCorpID_0Corel-Layer"/>
  <rect class="fil0" width="354.42" height="252.597"/>
  <path class="fil1" d="M106.749 147.855c0,-0.926 0.254,-1.667 0.764,-2.223 0.509,-0.556 1.273,-0.834 2.293,-0.834l11.324 0c0.788,0 1.528,0.278 2.223,0.834 0.695,0.556 1.042,1.297 1.042,2.223l0 31.936c0,0.556 -0.139,1.088 -0.416,1.598 -0.278,0.533 -0.788,1.019 -1.529,1.482 -0.046,0 -0.069,0 -0.069,0.023 0,0.023 -0.023,0.047 -0.07,0.047 -2.177,1.528 -4.516,2.917 -7.017,4.122 -2.501,1.227 -5.118,2.223 -7.851,3.057 -2.732,0.81 -5.534,1.435 -8.406,1.875 -2.872,0.441 -5.744,0.672 -8.615,0.672 -4.864,0 -9.565,-0.625 -14.104,-1.876 -4.539,-1.25 -8.754,-3.033 -12.668,-5.349 -3.914,-2.316 -7.48,-5.095 -10.699,-8.314 -3.219,-3.219 -5.998,-6.786 -8.314,-10.699 -2.316,-3.914 -4.099,-8.129 -5.35,-12.645 -1.25,-4.516 -1.875,-9.218 -1.875,-14.127 0,-4.863 0.625,-9.565 1.875,-14.08 1.251,-4.516 3.034,-8.731 5.35,-12.668 2.316,-3.937 5.095,-7.527 8.314,-10.769 3.219,-3.242 6.809,-6.021 10.746,-8.337 3.937,-2.316 8.175,-4.122 12.691,-5.396 4.516,-1.274 9.24,-1.899 14.149,-1.899 3.289,0 6.578,0.301 9.843,0.88 3.265,0.579 6.415,1.436 9.495,2.617 1.158,0.463 2.524,1.042 4.122,1.737 1.598,0.695 3.127,1.459 4.563,2.292 1.435,0.834 2.64,1.691 3.635,2.594 0.996,0.88 1.506,1.737 1.506,2.571 0,0.37 -0.209,0.973 -0.626,1.783 -0.417,0.811 -0.926,1.737 -1.551,2.756 -0.626,1.019 -1.343,2.061 -2.131,3.15 -0.787,1.088 -1.551,2.084 -2.293,2.964 -0.74,0.88 -1.412,1.598 -2.014,2.177 -0.602,0.579 -1.066,0.88 -1.39,0.88 -0.278,0 -0.602,-0.07 -0.996,-0.186 -0.393,-0.115 -0.81,-0.324 -1.227,-0.648 -2.918,-2.038 -6.206,-3.659 -9.866,-4.863 -3.659,-1.205 -7.387,-1.807 -11.185,-1.807 -4.956,0 -9.495,0.927 -13.618,2.779 -4.122,1.83 -7.665,4.331 -10.629,7.481 -2.965,3.126 -5.281,6.762 -6.948,10.907 -1.668,4.122 -2.501,8.476 -2.501,13.038 0,4.725 0.88,9.148 2.663,13.27 1.784,4.146 4.192,7.735 7.226,10.816 3.033,3.057 6.577,5.488 10.653,7.271 4.075,1.784 8.383,2.664 12.968,2.664 1.714,0 3.405,-0.139 5.072,-0.394 1.668,-0.255 3.219,-0.579 4.678,-0.973 1.459,-0.393 2.756,-0.833 3.914,-1.32 1.158,-0.486 2.107,-0.949 2.849,-1.412l0 -21.677z"/>
  <path id="1" class="fil1" d="M145.933 91.163c0,-2.177 1.019,-3.266 3.057,-3.266l42.566 0c4.678,0 9.055,0.88 13.131,2.64 4.075,1.76 7.642,4.146 10.676,7.156 3.034,3.011 5.419,6.554 7.156,10.653 1.737,4.076 2.617,8.407 2.617,12.992 0,3.196 -0.44,6.253 -1.32,9.171 -0.88,2.918 -2.108,5.628 -3.682,8.129 -1.575,2.524 -3.451,4.771 -5.628,6.786 -2.177,2.014 -4.586,3.728 -7.226,5.117l18.134 35.665c0.092,0.463 0.254,0.926 0.486,1.389 0.232,0.463 0.347,0.95 0.347,1.459 0,1.39 -0.81,2.085 -2.431,2.085l-16.188 0c-1.668,0 -2.779,-0.857 -3.335,-2.571l-16.883 -33.418c-0.741,0 -1.528,0.023 -2.385,0.07 -0.88,0.046 -2.061,0.069 -3.566,0.069 -1.506,0 -3.497,0 -5.929,0 -2.432,0 -5.581,0 -9.449,0l0 32.862c0,1.992 -1.065,2.988 -3.196,2.988l-13.895 0c-0.926,0 -1.667,-0.255 -2.223,-0.742 -0.556,-0.486 -0.834,-1.227 -0.834,-2.246l0 -96.988zm58.638 30.245c0,-1.968 -0.371,-3.914 -1.112,-5.766 -0.741,-1.876 -1.783,-3.567 -3.149,-5.026 -1.344,-1.482 -2.941,-2.686 -4.794,-3.613 -1.876,-0.926 -3.891,-1.459 -6.068,-1.598 -1.644,-0.046 -3.219,-0.092 -4.794,-0.115 -1.551,-0.024 -3.172,-0.024 -4.84,-0.024l-13.733 0 0 32.237 18.411 0c0.927,0 1.807,0 2.617,0 0.811,0 1.691,-0.046 2.617,-0.139 2.177,-0.139 4.192,-0.648 6.021,-1.528 1.83,-0.88 3.405,-2.038 4.701,-3.497 1.321,-1.459 2.316,-3.127 3.034,-5.002 0.718,-1.853 1.089,-3.845 1.089,-5.929z"/>
  <path id="2" class="fil1" d="M242.574 91.232c0,-2.223 1.019,-3.335 3.057,-3.335l67.045 0c1.204,0 2.061,0.348 2.57,1.019 0.509,0.672 0.764,1.506 0.764,2.548l0 12.274c0,0.834 -0.278,1.575 -0.857,2.223 -0.579,0.648 -1.459,0.973 -2.617,0.973l-49.397 0 0 21.12 38.073 0c0.926,-0.092 1.668,0.116 2.223,0.603 0.556,0.486 0.834,1.297 0.834,2.455l0 12.644c0,0.834 -0.232,1.575 -0.695,2.223 -0.463,0.649 -1.204,0.973 -2.223,0.973l-38.212 0 0 25.15 51.204 0c1.297,0 2.154,0.278 2.57,0.834 0.417,0.556 0.626,1.412 0.626,2.594l0 12.691c0,1.945 -1.019,2.918 -3.057,2.918l-68.851 0c-0.834,0 -1.552,-0.232 -2.154,-0.695 -0.602,-0.463 -0.903,-1.205 -0.903,-2.223l0 -96.989z"/>
  <polygon class="fil1" points="63.176,53.29 58.62,53.29 56.279,48.188 54.872,50.156 54.872,53.29 50.943,53.29 50.943,39.714 54.872,39.714 54.872,45.315 58.603,39.714 62.341,39.714 58.919,44.674 "/>
  <path id="1" class="fil1" d="M75.894 53.29l-3.399 0 -3.732 -5.987c-0.482,-0.77 -0.953,-1.707 -1.421,-2.819 0.22,0.875 0.329,1.618 0.329,2.229l0 6.577 -3.379 0 0 -13.576 3.928 0 3.165 4.973c0.631,0.987 1.106,1.859 1.429,2.609 -0.214,-1.16 -0.319,-2.348 -0.319,-3.562l0 -4.02 3.399 0 0 13.576z"/>
  <path id="2" class="fil1" d="M84.12 53.494c-1.91,0 -3.467,-0.634 -4.671,-1.9 -1.204,-1.265 -1.805,-2.958 -1.805,-5.078 0,-2.026 0.577,-3.701 1.727,-5.024 1.15,-1.32 2.748,-1.982 4.79,-1.982 1.89,0 3.433,0.625 4.624,1.87 1.19,1.245 1.784,2.907 1.784,4.987 0,2.154 -0.6,3.88 -1.801,5.18 -1.201,1.299 -2.748,1.947 -4.648,1.947zm-0.017 -3.074c0.706,0 1.215,-0.308 1.524,-0.922 0.308,-0.614 0.464,-1.737 0.464,-3.369 0,-2.364 -0.637,-3.545 -1.91,-3.545 -1.374,0 -2.059,1.347 -2.059,4.044 0,2.527 0.662,3.792 1.981,3.792z"/>
  <polygon id="3" class="fil1" points="108.966,39.714 105.37,53.29 101.872,53.29 99.969,45.797 98.171,53.29 94.525,53.29 90.932,39.714 94.85,39.714 96.74,47.513 98.612,39.714 101.872,39.714 103.877,47.53 105.777,39.714 "/>
  <polygon id="4" class="fil1" points="130.131,39.714 130.131,53.29 126.264,53.29 126.264,43.581 123.736,53.29 121.094,53.29 118.488,43.581 118.488,53.29 115.374,53.29 115.374,39.714 120.805,39.714 122.773,46.926 124.652,39.714 "/>
  <path id="5" class="fil1" d="M138.354 53.494c-1.91,0 -3.467,-0.634 -4.671,-1.9 -1.205,-1.265 -1.805,-2.958 -1.805,-5.078 0,-2.026 0.577,-3.701 1.727,-5.024 1.15,-1.32 2.747,-1.982 4.79,-1.982 1.889,0 3.433,0.625 4.624,1.87 1.19,1.245 1.784,2.907 1.784,4.987 0,2.154 -0.601,3.88 -1.801,5.18 -1.201,1.299 -2.748,1.947 -4.648,1.947zm-0.017 -3.074c0.706,0 1.215,-0.308 1.523,-0.922 0.309,-0.614 0.465,-1.737 0.465,-3.369 0,-2.364 -0.638,-3.545 -1.91,-3.545 -1.374,0 -2.059,1.347 -2.059,4.044 0,2.527 0.661,3.792 1.981,3.792z"/>
  <path id="6" class="fil1" d="M158.623 53.29l-4.617 0 -1.998 -5.19 -1.282 0 0 5.19 -4.173 0 0 -13.576 7.09 0c1.564,0 2.779,0.367 3.644,1.099 0.865,0.733 1.296,1.7 1.296,2.901 0,0.783 -0.16,1.475 -0.479,2.076 -0.318,0.6 -0.963,1.129 -1.937,1.587l2.456 5.913zm-7.897 -8.08l1.781 0c0.522,0 0.943,-0.109 1.262,-0.329 0.319,-0.221 0.478,-0.543 0.478,-0.971 0,-0.872 -0.532,-1.306 -1.601,-1.306l-1.92 0 0 2.606z"/>
  <polygon id="7" class="fil1" points="170.816,50.054 170.816,53.29 160.598,53.29 160.598,39.714 170.816,39.714 170.816,42.849 164.689,42.849 164.689,44.823 169.635,44.823 169.635,47.835 164.689,47.835 164.689,50.054 "/>
  <path id="8" class="fil1" d="M185.043 53.29l-0.749 -2.666 -3.695 0 -0.8 2.666 -3.379 0 4.2 -13.576 4.403 0 4.271 13.576 -4.251 0zm-3.687 -5.638l2.171 0 -1.089 -3.932 -1.082 3.932z"/>
  <path id="9" class="fil1" d="M190.522 53.29l0 -13.576 6.893 0c1.432,0 2.477,0.36 3.135,1.082 0.655,0.723 0.984,1.547 0.984,2.473 0,0.675 -0.19,1.286 -0.57,1.832 -0.377,0.546 -0.943,0.923 -1.693,1.13 1.754,0.424 2.629,1.479 2.629,3.165 0,1.011 -0.308,1.91 -0.929,2.704 -0.621,0.794 -1.948,1.19 -3.98,1.19l-6.469 0zm3.827 -8.386l1.943 0c0.489,0 0.832,-0.122 1.032,-0.366 0.2,-0.244 0.302,-0.505 0.302,-0.784 0,-0.753 -0.469,-1.129 -1.405,-1.129l-1.872 0 0 2.279zm0 5.374l2.045 0c0.509,0 0.882,-0.126 1.12,-0.377 0.237,-0.247 0.356,-0.532 0.356,-0.845 0,-0.315 -0.116,-0.603 -0.346,-0.864 -0.231,-0.265 -0.655,-0.397 -1.269,-0.397l-1.906 0 0 2.483z"/>
  <path id="10" class="fil1" d="M209.465 53.494c-1.91,0 -3.467,-0.634 -4.671,-1.9 -1.205,-1.265 -1.805,-2.958 -1.805,-5.078 0,-2.026 0.577,-3.701 1.727,-5.024 1.15,-1.32 2.747,-1.982 4.79,-1.982 1.889,0 3.433,0.625 4.623,1.87 1.191,1.245 1.785,2.907 1.785,4.987 0,2.154 -0.601,3.88 -1.802,5.18 -1.2,1.299 -2.747,1.947 -4.647,1.947zm-0.017 -3.074c0.706,0 1.215,-0.308 1.523,-0.922 0.309,-0.614 0.465,-1.737 0.465,-3.369 0,-2.364 -0.638,-3.545 -1.91,-3.545 -1.374,0 -2.059,1.347 -2.059,4.044 0,2.527 0.661,3.792 1.981,3.792z"/>
  <path id="11" class="fil1" d="M228.676 39.714l0 8.986c0,1.703 -0.505,2.928 -1.516,3.674 -1.011,0.747 -2.331,1.12 -3.956,1.12 -1.713,0 -3.087,-0.36 -4.125,-1.075 -1.038,-0.716 -1.557,-1.88 -1.557,-3.498l0 -9.207 4.234 0 0 8.715c0,0.651 0.139,1.123 0.413,1.421 0.275,0.299 0.716,0.448 1.32,0.448 0.502,0 0.916,-0.108 1.238,-0.322 0.322,-0.217 0.516,-0.458 0.577,-0.733 0.064,-0.271 0.095,-0.801 0.095,-1.587l0 -7.942 3.277 0z"/>
  <polygon id="12" class="fil1" points="236.468,42.971 236.468,53.29 232.52,53.29 232.52,42.971 229.711,42.971 229.711,39.714 239.277,39.714 239.277,42.971 "/>
 </g>
</svg>
