<?xml version="1.0" encoding="UTF-8"?>
<!DOCTYPE svg PUBLIC "-//W3C//DTD SVG 1.1//EN" "http://www.w3.org/Graphics/SVG/1.1/DTD/svg11.dtd">
<!-- Creator: CorelDRAW 2020 (64-Bit) -->
<svg xmlns="http://www.w3.org/2000/svg" xml:space="preserve" width="394px" height="281px" version="1.1" style="shape-rendering:geometricPrecision; text-rendering:geometricPrecision; image-rendering:optimizeQuality; fill-rule:evenodd; clip-rule:evenodd"
viewBox="0 0 359.342 256.106"
 xmlns:xlink="http://www.w3.org/1999/xlink"
 xmlns:xodm="http://www.corel.com/coreldraw/odm/2003">
 <defs>
  <style type="text/css">
   <![CDATA[
    .fil0 {fill:#FECE00}
    .fil1 {fill:#FEFEFE;fill-rule:nonzero}
   ]]>
  </style>
 </defs>
 <g id="Layer_x0020_1">
  <metadata id="CorelCorpID_0Corel-Layer"/>
  <rect class="fil0" width="359.342" height="256.105"/>
  <path class="fil1" d="M106.919 118.87c-0.649,0 -1.248,-0.175 -1.797,-0.499 -0.55,-0.325 -1.174,-0.749 -1.873,-1.299l-0.15 -0.074c-0.949,-0.949 -2.172,-1.998 -3.67,-3.146 -1.498,-1.149 -3.171,-2.223 -5.019,-3.221 -1.848,-0.999 -3.82,-1.848 -5.942,-2.547 -2.123,-0.7 -4.295,-1.049 -6.492,-1.049 -2.796,0 -5.269,0.325 -7.416,0.949 -2.147,0.624 -3.945,1.473 -5.393,2.547 -1.448,1.073 -2.547,2.322 -3.296,3.77 -0.749,1.473 -1.124,3.021 -1.124,4.669 0,1.798 0.55,3.371 1.673,4.719 1.124,1.349 2.647,2.547 4.57,3.596 1.922,1.048 4.12,2.022 6.616,2.896 2.497,0.874 5.119,1.748 7.865,2.597 3.147,0.949 6.268,1.972 9.339,3.071 3.096,1.099 6.067,2.322 8.889,3.72 2.796,1.373 5.443,2.897 7.89,4.57 2.447,1.672 4.544,3.595 6.317,5.767 1.772,2.172 3.171,4.594 4.194,7.291 1.024,2.672 1.524,5.668 1.524,9.039 0,5.443 -1.099,10.362 -3.296,14.781 -2.198,4.395 -5.219,8.165 -9.089,11.286 -3.87,3.121 -8.414,5.518 -13.633,7.191 -5.218,1.673 -10.836,2.522 -16.829,2.522 -3.845,0 -7.665,-0.45 -11.46,-1.348 -3.795,-0.899 -7.441,-2.173 -10.936,-3.821 -3.496,-1.648 -6.792,-3.645 -9.913,-5.967 -3.121,-2.322 -5.918,-4.919 -8.364,-7.815l0 0.075 -0.15 -0.3c-1.099,-1.248 -1.648,-2.397 -1.648,-3.446 0,-0.549 0.15,-1.073 0.449,-1.573 0.3,-0.499 0.749,-1.048 1.349,-1.648l2.471 -2.472c0.749,-0.649 1.548,-1.373 2.397,-2.172 0.849,-0.799 1.698,-1.523 2.547,-2.172 0.849,-0.65 1.648,-1.199 2.372,-1.648 0.724,-0.45 1.298,-0.674 1.748,-0.674 0.699,0 1.348,0.224 1.947,0.674 0.6,0.449 1.099,0.874 1.499,1.273l0.299 0.3 -0.075 0c1.748,1.648 3.721,3.221 5.893,4.719 2.172,1.498 4.394,2.822 6.691,3.995 2.298,1.174 4.595,2.098 6.867,2.771 2.272,0.675 4.394,1.024 6.392,1.024 2.747,0 5.318,-0.349 7.715,-1.048 2.397,-0.699 4.47,-1.698 6.217,-2.972 1.748,-1.273 3.122,-2.796 4.12,-4.619 0.999,-1.798 1.498,-3.795 1.498,-5.992 0,-2.198 -0.649,-4.095 -1.947,-5.668 -1.298,-1.574 -2.996,-2.946 -5.094,-4.12 -2.097,-1.174 -4.444,-2.197 -7.066,-3.046 -2.622,-0.849 -5.268,-1.648 -7.915,-2.397 -6.092,-1.848 -11.411,-3.845 -15.98,-5.993 -4.569,-2.147 -8.389,-4.569 -11.436,-7.241 -3.046,-2.671 -5.318,-5.693 -6.841,-9.014 -1.523,-3.32 -2.297,-7.066 -2.297,-11.21 0,-4.645 0.949,-8.889 2.821,-12.709 1.873,-3.846 4.545,-7.117 7.99,-9.838 3.471,-2.721 7.616,-4.844 12.485,-6.367 4.843,-1.523 10.262,-2.297 16.254,-2.297 4.545,0 9.164,0.699 13.858,2.122 4.694,1.423 9.038,3.396 13.034,5.893 1.198,0.749 2.421,1.598 3.67,2.547 1.248,0.948 2.397,1.897 3.446,2.871 1.048,0.974 1.922,1.922 2.596,2.846 0.675,0.924 0.999,1.723 0.999,2.373 0,0.599 -0.15,1.198 -0.45,1.822 -0.299,0.624 -0.673,1.199 -1.123,1.698l-2.247 2.397 0 -0.075c-0.749,0.799 -1.523,1.623 -2.322,2.472 -0.799,0.849 -1.598,1.598 -2.397,2.272 -0.799,0.674 -1.523,1.249 -2.172,1.698 -0.65,0.449 -1.199,0.674 -1.649,0.674z"/>
  <path id="1" class="fil1" d="M134.785 197.746c0.249,-0.999 0.549,-1.922 0.873,-2.771 0.325,-0.849 0.6,-1.623 0.849,-2.322l40.375 -100.599c0.149,-0.549 0.574,-1.149 1.248,-1.823 0.674,-0.674 1.573,-1.024 2.722,-1.024l12.06 0c1.198,0 2.072,0.3 2.596,0.899 0.525,0.599 0.899,1.124 1.149,1.573l2.472 5.843 39.55 99.026c0,0.15 0.05,0.399 0.125,0.774 0.075,0.374 0.1,0.699 0.1,0.949 0,1.498 -1.099,2.247 -3.296,2.247l-14.756 0c-1.099,0 -1.948,-0.225 -2.547,-0.675 -0.599,-0.449 -1.099,-1.148 -1.498,-2.097l-1.349 -3.445c-0.948,-2.397 -1.897,-4.795 -2.846,-7.191 -0.949,-2.397 -1.873,-4.819 -2.772,-7.266l-46.217 0c-1.298,3.495 -2.546,6.766 -3.77,9.837 -1.223,3.072 -2.272,5.768 -3.121,8.065 -0.699,1.848 -1.998,2.772 -3.895,2.772l-14.981 0c-0.949,0 -1.698,-0.175 -2.272,-0.525 -0.575,-0.349 -0.874,-0.873 -0.874,-1.572 0,-0.3 0.025,-0.525 0.075,-0.675zm52.134 -79.999c-2.696,6.891 -5.368,14.032 -8.04,21.423 -2.671,7.39 -5.368,14.507 -8.065,21.348l31.91 0 -15.805 -42.771z"/>
  <path id="2" class="fil1" d="M237.93 92.503c0,-0.998 0.325,-1.798 0.974,-2.397 0.649,-0.599 1.473,-0.899 2.472,-0.899l78.726 0c0.899,0 1.723,0.275 2.447,0.824 0.724,0.55 1.124,1.374 1.224,2.472l0 13.159c0,1.023 -0.3,1.897 -0.924,2.646 -0.625,0.749 -1.548,1.124 -2.747,1.124l-28.464 0 0 87.64c0,0.899 -0.3,1.698 -0.924,2.397 -0.624,0.699 -1.498,1.049 -2.597,1.049l-14.681 0c-0.899,0 -1.723,-0.325 -2.447,-0.974 -0.724,-0.649 -1.074,-1.473 -1.074,-2.472l0 -87.64 -28.539 0c-0.999,0 -1.823,-0.325 -2.472,-0.949 -0.649,-0.624 -0.974,-1.548 -0.974,-2.821l0 -13.159z"/>
  <polygon class="fil1" points="64.053,54.03 59.434,54.03 57.061,48.857 55.634,50.852 55.634,54.03 51.651,54.03 51.651,40.266 55.634,40.266 55.634,45.944 59.417,40.266 63.207,40.266 59.737,45.294 "/>
  <path id="1" class="fil1" d="M76.948 54.03l-3.446 0 -3.784 -6.07c-0.488,-0.781 -0.966,-1.73 -1.441,-2.859 0.224,0.888 0.333,1.641 0.333,2.26l0 6.669 -3.425 0 0 -13.764 3.983 0 3.209 5.042c0.64,1.001 1.121,1.885 1.448,2.645 -0.217,-1.177 -0.323,-2.38 -0.323,-3.612l0 -4.075 3.446 0 0 13.764z"/>
  <path id="2" class="fil1" d="M85.288 54.237c-1.936,0 -3.515,-0.643 -4.736,-1.926 -1.221,-1.283 -1.83,-3 -1.83,-5.149 0,-2.054 0.585,-3.753 1.751,-5.094 1.166,-1.338 2.786,-2.009 4.857,-2.009 1.916,0 3.481,0.633 4.688,1.895 1.207,1.263 1.809,2.948 1.809,5.056 0,2.185 -0.609,3.935 -1.826,5.252 -1.218,1.318 -2.786,1.975 -4.713,1.975zm-0.017 -3.116c0.716,0 1.232,-0.313 1.545,-0.936 0.313,-0.622 0.471,-1.761 0.471,-3.416 0,-2.397 -0.647,-3.594 -1.937,-3.594 -1.392,0 -2.087,1.366 -2.087,4.1 0,2.563 0.67,3.846 2.008,3.846z"/>
  <polygon id="3" class="fil1" points="110.479,40.266 106.833,54.03 103.287,54.03 101.358,46.433 99.535,54.03 95.837,54.03 92.195,40.266 96.168,40.266 98.083,48.173 99.982,40.266 103.287,40.266 105.32,48.19 107.246,40.266 "/>
  <polygon id="4" class="fil1" points="131.938,40.266 131.938,54.03 128.017,54.03 128.017,44.187 125.455,54.03 122.775,54.03 120.134,44.187 120.134,54.03 116.976,54.03 116.976,40.266 122.483,40.266 124.478,47.578 126.383,40.266 "/>
  <path id="5" class="fil1" d="M140.275 54.237c-1.936,0 -3.515,-0.643 -4.736,-1.926 -1.221,-1.283 -1.83,-3 -1.83,-5.149 0,-2.054 0.585,-3.753 1.751,-5.094 1.166,-1.338 2.786,-2.009 4.857,-2.009 1.916,0 3.481,0.633 4.688,1.895 1.207,1.263 1.809,2.948 1.809,5.056 0,2.185 -0.609,3.935 -1.826,5.252 -1.218,1.318 -2.786,1.975 -4.713,1.975zm-0.017 -3.116c0.716,0 1.232,-0.313 1.545,-0.936 0.313,-0.622 0.471,-1.761 0.471,-3.416 0,-2.397 -0.647,-3.594 -1.937,-3.594 -1.393,0 -2.087,1.366 -2.087,4.1 0,2.563 0.67,3.846 2.008,3.846z"/>
  <path id="6" class="fil1" d="M160.826 54.03l-4.681 0 -2.026 -5.262 -1.3 0 0 5.262 -4.23 0 0 -13.764 7.188 0c1.586,0 2.817,0.371 3.694,1.114 0.877,0.743 1.314,1.723 1.314,2.941 0,0.794 -0.162,1.496 -0.485,2.105 -0.323,0.609 -0.976,1.145 -1.964,1.609l2.49 5.995zm-8.007 -8.193l1.806 0c0.53,0 0.956,-0.11 1.28,-0.333 0.323,-0.224 0.484,-0.55 0.484,-0.984 0,-0.884 -0.539,-1.324 -1.623,-1.324l-1.947 0 0 2.641z"/>
  <polygon id="7" class="fil1" points="173.188,50.749 173.188,54.03 162.828,54.03 162.828,40.266 173.188,40.266 173.188,43.444 166.976,43.444 166.976,45.445 171.991,45.445 171.991,48.5 166.976,48.5 166.976,50.749 "/>
  <path id="8" class="fil1" d="M187.613 54.03l-0.76 -2.703 -3.745 0 -0.812 2.703 -3.426 0 4.258 -13.764 4.465 0 4.33 13.764 -4.31 0zm-3.738 -5.716l2.201 0 -1.104 -3.986 -1.097 3.986z"/>
  <path id="9" class="fil1" d="M193.168 54.03l0 -13.764 6.989 0c1.451,0 2.511,0.364 3.178,1.097 0.664,0.732 0.998,1.568 0.998,2.507 0,0.685 -0.193,1.304 -0.578,1.857 -0.382,0.554 -0.956,0.936 -1.716,1.146 1.778,0.43 2.665,1.499 2.665,3.209 0,1.025 -0.313,1.936 -0.942,2.741 -0.63,0.805 -1.975,1.207 -4.035,1.207l-6.559 0zm3.88 -8.502l1.971 0c0.495,0 0.842,-0.124 1.045,-0.371 0.203,-0.248 0.306,-0.513 0.306,-0.795 0,-0.763 -0.474,-1.145 -1.424,-1.145l-1.898 0 0 2.311zm0 5.448l2.074 0c0.516,0 0.894,-0.127 1.135,-0.382 0.24,-0.251 0.361,-0.54 0.361,-0.856 0,-0.32 -0.117,-0.612 -0.351,-0.877 -0.234,-0.268 -0.664,-0.402 -1.286,-0.402l-1.933 0 0 2.517z"/>
  <path id="10" class="fil1" d="M212.374 54.237c-1.936,0 -3.515,-0.643 -4.736,-1.926 -1.221,-1.283 -1.83,-3 -1.83,-5.149 0,-2.054 0.585,-3.753 1.751,-5.094 1.166,-1.338 2.786,-2.009 4.856,-2.009 1.916,0 3.481,0.633 4.688,1.895 1.207,1.263 1.809,2.948 1.809,5.056 0,2.185 -0.608,3.935 -1.826,5.252 -1.217,1.318 -2.786,1.975 -4.712,1.975zm-0.017 -3.116c0.715,0 1.231,-0.313 1.544,-0.936 0.313,-0.622 0.472,-1.761 0.472,-3.416 0,-2.397 -0.647,-3.594 -1.937,-3.594 -1.393,0 -2.088,1.366 -2.088,4.1 0,2.563 0.671,3.846 2.009,3.846z"/>
  <path id="11" class="fil1" d="M231.852 40.266l0 9.111c0,1.726 -0.513,2.968 -1.537,3.725 -1.026,0.756 -2.363,1.135 -4.011,1.135 -1.737,0 -3.13,-0.365 -4.182,-1.09 -1.053,-0.726 -1.579,-1.906 -1.579,-3.547l0 -9.334 4.292 0 0 8.836c0,0.66 0.141,1.138 0.42,1.441 0.278,0.302 0.726,0.454 1.338,0.454 0.509,0 0.929,-0.11 1.256,-0.327 0.326,-0.22 0.522,-0.464 0.584,-0.743 0.065,-0.275 0.096,-0.812 0.096,-1.609l0 -8.052 3.323 0z"/>
  <polygon id="12" class="fil1" points="239.752,43.568 239.752,54.03 235.749,54.03 235.749,43.568 232.901,43.568 232.901,40.266 242.6,40.266 242.6,43.568 "/>
 </g>
</svg>
