<?xml version="1.0" encoding="UTF-8"?>
<!DOCTYPE svg PUBLIC "-//W3C//DTD SVG 1.1//EN" "http://www.w3.org/Graphics/SVG/1.1/DTD/svg11.dtd">
<!-- Creator: CorelDRAW 2020 (64-Bit) -->
<svg xmlns="http://www.w3.org/2000/svg" xml:space="preserve" width="124.991mm" height="31.6997mm" version="1.1" style="shape-rendering:geometricPrecision; text-rendering:geometricPrecision; image-rendering:optimizeQuality; fill-rule:evenodd; clip-rule:evenodd"
viewBox="0 0 9411.23 2386.84"
 xmlns:xlink="http://www.w3.org/1999/xlink"
 xmlns:xodm="http://www.corel.com/coreldraw/odm/2003">
 <defs>
  <style type="text/css">
   <![CDATA[
    .fil2 {fill:#1E78C2}
    .fil1 {fill:#A1D2F8}
    .fil0 {fill:#A1D2F8;fill-rule:nonzero}
   ]]>
  </style>
 </defs>
 <g id="Layer_x0020_1">
  <metadata id="CorelCorpID_0Corel-Layer"/>
  <path class="fil0" d="M8125.43 587.15c-76.23,0 -177.74,33.85 -177.74,147.82 0,95.21 91.79,114.61 119.01,120.25 23.73,5.01 48.23,8.11 72.34,11.24 32.67,4.39 77.4,10.04 77.4,45.12 0,30.69 -37.73,51.34 -81.68,51.34 -25.67,0 -55.61,-5.6 -85.17,-21.28 -21.78,-11.89 -31.11,-21.94 -42.39,-34.47l-84.01 53.26c27.62,31.93 77,89.53 201.47,89.53 62.22,0 126.01,-13.15 166.07,-59.47 23.33,-26.91 35,-62.01 35,-93.96 0,-50.11 -25.67,-89.53 -76.23,-108.32 -24.89,-8.77 -88.29,-20.72 -135.35,-26.36 -18.67,-2.51 -56.4,-7.5 -56.4,-41.32 0,-21.3 21.78,-46.34 65.73,-46.34 28.39,0 56.4,10.68 71.95,19.45 17.5,10.02 30.34,21.95 43.94,35.71l81.68 -58.26c-38.51,-34.46 -93.74,-83.94 -195.63,-83.94l0 0zm-1784.53 10.03l0 74.52 95.17 0 0 -74.52 -95.17 0zm-524.43 0.61l-164.09 442.21 117.73 -0.04 21.97 -70.75 162.85 0 21.9 70.75 117.73 0 -162.85 -442.21 -115.24 0.02 0 0.02zm2557.11 20.66l0 101.48 -47.84 0 0 58.87 47.84 0 0 157.83c0,31.35 0.38,54.53 13.61,73.94 20.62,30.07 57.17,31.89 90.23,31.89 17.5,0 29.95,-1.87 50.95,-5.01l0 -75.1 -34.61 1.28c-25.67,0 -25.67,-16.96 -24.89,-37l0 -147.22 63.78 0 0 -58.87 -63.4 0 0 -102.09 -95.67 0zm534.39 0l0 101.48 -47.84 0 0 58.87 47.84 0 0 157.83c0,31.35 0.39,54.53 13.61,73.94 20.61,30.07 57.17,31.89 90.23,31.89 17.5,0 29.94,-1.87 50.55,-5.01l0 -75.1 -34.22 1.28c-25.67,0 -25.67,-16.96 -25.28,-37l0 -147.22 63.79 0 0 -58.87 -63.01 0 0 -102.09 -95.68 0zm339.15 83.94c-128.74,0 -167.63,101.48 -167.63,180.41 0,107.13 68.06,169.08 165.29,169.08 52.51,0 95.29,-20.03 123.3,-46.32 17.11,-15.67 28.39,-31.93 39.67,-48.84l-72.74 -36.99c-12.05,23.18 -30.34,57.65 -82.84,57.65 -51.73,0 -75.07,-40.73 -74.29,-81.42l233.36 -0.01c-1.17,-36.95 -3.49,-100.83 -46.28,-146.53 -42.01,-45.1 -98.4,-47.01 -117.85,-47.01l0.01 0zm-2288.86 0.38c-110.15,3.41 -165.76,79.17 -165.76,173.12 0,120.89 84.08,173.51 175.87,173.51 127.96,0 175.4,-90.81 175.4,-173.51 0,-59.51 -29.16,-165.37 -162.57,-172.89 -8.16,-0.44 -15.56,-0.46 -22.94,-0.23l0 0zm-1086.05 0.23l57.68 186.64 -112.12 0c10.03,-33.2 26.91,-85.15 36.28,-118.35 6.26,-22.55 12.52,-45.76 18.16,-68.29l0 0zm1784.18 1.3c-38.51,0 -77.01,4.98 -107.35,28.79 -29.17,23.16 -32.28,50.15 -34.22,72.71l96.45 0c2.33,-11.9 8.17,-38.21 50.56,-38.21 34.61,0 35.78,25 36.95,40.03l0 17.55c-40.45,7.52 -102.68,18.81 -129.12,30.08 -26.84,11.28 -68.84,41.35 -68.84,93.98 0,45.7 31.9,99.56 107.35,99.56 48.23,0 75.84,-20.73 99.95,-38.89l0 30.1 94.5 0c-7.39,-11.28 -9.34,-16.3 -9.34,-51.38l0 -190.35c0,-84.56 -96.84,-93.97 -136.9,-93.97l0.01 0zm1047.39 0c-38.51,0 -77.4,4.98 -107.34,28.79 -29.56,23.16 -32.68,50.15 -34.23,72.71l96.06 0c2.73,-11.9 8.17,-38.21 50.95,-38.21 34.23,0 35.78,25 36.95,40.03l0 17.55c-40.83,7.52 -102.67,18.81 -129.12,30.08 -26.84,11.28 -68.84,41.35 -68.84,93.98 0,45.7 31.89,99.56 106.96,99.56 48.23,0 75.84,-20.73 100.34,-38.89l0 30.1 94.51 0c-7.39,-11.28 -9.34,-16.3 -9.34,-51.38l0 -190.35c0,-84.56 -96.84,-93.97 -136.91,-93.97l0.01 0zm-1338.31 0.6c-22.94,0 -44.33,5.66 -59.51,11.93 -16.72,8.14 -22.95,15.64 -32.28,25.68l0 -28.87 -97.23 0.01 0 326.35 96.45 0 0 -176.64c0,-40.71 0,-81.42 50.56,-81.42 19.06,0 35.78,7.54 43.56,25.07 3.5,8.77 4.28,19.4 4.28,48.84l0 184.15 95.68 0 0 -223.57c0,-50.73 -8.55,-80.23 -43.17,-98.37 -16.72,-9.4 -38.89,-13.14 -58.34,-13.14l0 -0.01zm-1057.73 4.41c-50.13,5.01 -73.32,19.38 -94.59,37.53l0 -34.41 -93.97 0 0 327.56 96.45 0 0 -184.15c0,-41.34 13.77,-48.23 60.09,-56.37l32.01 -5.01 0 -85.15 0 0zm33.18 3.12l0 327.56 95.17 0 0 -327.56 -95.17 0zm154.05 0.6l0 73.91 157.87 0 -176.62 180.39 0 72.65 298.74 0.01 0 -75.14 -174.08 0 174.08 -177.91 0 -73.91 -279.99 0zm2751.77 58.26c16.72,0 35,6.23 47.06,18.15 13.61,14.39 16.33,32.56 17.89,46.34l-133.4 0c3.11,-13.78 6.22,-28.82 19.44,-43.22 9.34,-10.01 25.67,-21.27 49.01,-21.27zm-2272.14 7.82c13.22,0.53 29.56,4.37 44.73,18.46 18.28,17.54 26.84,45.78 26.84,82.11 0,51.36 -25.67,93.29 -77.79,93.29 -53.68,0 -78.95,-45.7 -78.95,-97.69 0,-22.55 4.67,-45.1 16.34,-63.89 13.22,-20.65 29.55,-30.08 57.17,-31.98 3.49,-0.32 7.39,-0.48 11.66,-0.31l0 0zm724.3 104.3c-0.38,33.82 -1.94,63.93 -33.83,83.92 -10.11,6.3 -21.39,10.65 -33.06,10.65 -22.56,0 -36.56,-17.54 -36.56,-33.21 0,-25.04 25.28,-34.44 41.62,-40.7l61.84 -20.67 0 0zm1047.4 0c-0.78,33.82 -1.95,63.93 -33.84,83.92 -10.11,6.3 -21.39,10.65 -33.06,10.65 -22.56,0 -36.56,-17.54 -36.56,-33.21 0,-25.04 25.28,-34.44 41.62,-40.7l61.84 -20.67 0 0zm-2310.84 300.99l0 74.6 95.25 0 0 -74.6 -95.25 0zm1335.01 0l0 74.6 94.89 0 0 -74.6 -94.89 0zm-2103.53 0.66l0 246.74c-0.62,60.13 -0.62,137.84 84.55,181.7 30.03,15.64 69.51,23.77 102.68,23.77 18.82,0 117.18,-3.82 164.79,-80.2 24.39,-40.1 24.97,-82.69 25.59,-125.28l0 -246.74 -110.84 0 0 274.9c-0.62,34.46 -0.62,85.84 -75.81,85.84 -27.54,0 -57.6,-6.88 -71.4,-30.07 -7.51,-13.77 -8.13,-32.51 -8.13,-55.07l0 -275.6 -111.43 0zm2280.11 20.65l0 101.51 -47.84 0 0 58.77 47.84 0 0 157.86c0,31.35 0.38,54.49 13.61,73.9 20.61,30.07 57.17,32.01 90.23,32.01 17.5,0 29.95,-1.91 50.56,-5.01l0 -75.14 -34.23 1.2c-25.67,0 -25.67,-16.84 -24.89,-36.91l0 -147.21 63.79 0 0 -58.89 -63.4 0 0 -102.09 -95.67 0zm-908.94 83.98c-129.12,0 -168.01,101.43 -168.01,180.39 0,107.11 68.45,169.03 165.3,169.03 52.89,0 95.29,-19.95 123.67,-46.28 16.73,-15.64 28.01,-31.97 39.29,-48.89l-72.74 -36.95c-11.66,23.18 -29.94,57.6 -82.45,57.6 -52.12,0 -75.45,-40.76 -74.68,-81.44l233.75 0c-1.17,-36.95 -3.89,-100.81 -46.28,-146.51 -42,-45.12 -98.4,-46.94 -117.84,-46.94l0 0zm549.95 0c-91.4,0 -137.69,55.73 -137.69,109.6 0,24.43 9.73,46.98 24.12,61.37 14.39,14.39 34.61,22.52 54.45,28.2 14.39,4.36 29.55,7.51 43.94,9.99 18.67,3.15 41.23,5.02 55.62,12.57 5.83,3.11 12.83,7.47 12.83,18.74 0,24.43 -35.39,31.9 -58.34,31.9 -36.56,0 -68.84,-19.33 -95.29,-45.04l-60.67 55.08c20.62,19.44 67.68,63.28 158.29,63.28 77.01,0 154.8,-37.57 154.8,-114.62 0,-77.67 -76.24,-95.21 -141.96,-107.11 -31.5,-5.64 -52.11,-9.37 -52.11,-28.2 0,-9.37 8.55,-24.39 46.28,-24.39 22.56,0 51.34,8.75 82.06,32.51l59.51 -55.07c-22.56,-15.64 -68.84,-48.81 -145.85,-48.81l-0.01 0.01zm-1304.16 2.48c-23.18,0 -44.5,5.6 -59.54,11.87 -16.92,8.12 -23.11,15.63 -32.52,25.67l0 -28.79 -97.15 0 0 326.32 96.49 0 0 -176.62c0,-40.72 0,-81.44 50.72,-81.44 18.79,0 35.71,7.54 43.25,25.09 3.73,8.79 4.39,19.4 4.39,48.85l0 184.12 95.8 0 0 -223.63c0,-50.72 -8.79,-80.16 -43.25,-98.28 -16.88,-9.41 -38.74,-13.15 -58.18,-13.15l0 0zm1145.48 4.32c-50.17,5.01 -73.12,19.48 -94.51,37.61l0 -34.43 -93.74 0 0 327.56 96.46 0 0 -184.12c0,-41.38 13.61,-48.23 59.89,-56.36l31.9 -5.01 0 -85.25zm-993.91 3.18l0 327.56 95.25 0 0 -327.56 -95.25 0zm1335.01 0l0 327.56 94.89 0 0 -327.56 -94.89 0zm-1211.56 0.62l105.79 326.93 100.89 0 105.68 -326.94 -98.83 0.01 -20.07 80.16c-19.41,77.04 -21.23,85.17 -34.43,157.83 -10.62,-62.62 -17.54,-92.68 -57.64,-237.99l-101.39 0zm1569.77 0l97.62 315.69c1.95,6.89 4.28,14.98 4.28,23.11 0,23.18 -24.5,23.26 -40.06,23.84l-33.85 0 0 76.42 69.62 0c24.89,-0.62 47.06,-1.87 69.62,-26.29 16.34,-18.16 22.95,-38.23 30.73,-59.54l115.12 -353.23 -102.67 0 -54.06 234.25 -53.67 -234.25 -102.68 0zm-1091.34 58.26c17.11,0 35,6.26 47.06,18.16 13.61,14.39 16.33,32.55 18.28,46.32l-133.41 0c3.12,-13.77 6.23,-28.79 19.45,-43.21 9.34,-10 25.67,-21.28 48.62,-21.28l0 0.01z"/>
  <path class="fil1" d="M5498.85 2241.29c-80.66,-86.3 -76.09,-177.6 -76.09,-177.6l0 -2063.51 -784.2 0 0 1650.2c-9.74,156.39 -162.92,196.29 -247.86,193.62 -121.67,-3.85 -192.08,-71.85 -192.08,-188.63l-0.14 -1654.55 -763.86 0 -0.08 -0.65c-178.67,0 -318.92,0.65 -538.28,0.65 -417.9,0 -812.6,63.9 -945.54,410.57l-78.93 -307.31c-19.37,-60.34 -85.36,-103.83 -150.49,-103.83l-102.54 -0.01 -1021.96 0.08 -241.39 0c-19.62,0 -26.71,6.14 -16.43,20.05 0,0 36.95,35.48 104.1,112 93.27,106.21 56.64,248.29 56.64,248.29l-499.71 1993.57 727.66 0 104.95 -438 702.25 0 109.44 438.08 958.45 0c393.21,0 713.03,-40.01 871.22,-284.93 118,223.21 371.79,328.16 819.46,289.63 155.99,-13.41 309.1,-86.33 374.88,-201.89l30.26 96.07c26.2,57.94 79.47,100.79 155.35,100.79l732.55 0c19.52,0 26.67,-5.75 16.35,-19.7 0,-0.04 -39.03,-43.46 -103.98,-113zm-4554.93 -734.28l242.51 -974.48 243.84 974.48 -486.35 0zm4570.84 -1362.45l20.74 0 0 -126.34 44.93 0 0 -18.22 -110.59 0 0 18.22 44.92 0 0 126.34zm210.56 -144.56l-44.57 120.08 -45.29 -120.08 -34.18 0 0 144.56 20.7 0 0 -125.11 0.43 0 47.81 125.11 20.34 0 47.81 -125.11 0.43 0 0 125.11 20.71 0 0 -144.56 -34.18 0z"/>
  <path class="fil2" d="M1921.64 576.92l0.65 -5.07c2.84,-20.95 6.58,-41.87 11.11,-62.43l0.4 -1.84 -131.16 -79.29c-2.65,-1.77 -5.78,-2.71 -8.96,-2.71 -4.21,0 -8.26,1.64 -11.28,4.58 -2.24,2.36 -3.49,5.51 -3.49,8.77 0,0.33 0.02,0.67 0.04,1 0.36,3.52 2.34,6.83 4.92,9.24l137.77 127.74 0 0.01zm-2.7 214.03l-0.61 -5.53c-2.85,-27.21 -4.3,-54.96 -4.3,-82.41 0,-3.19 0.1,-6.57 0.1,-9.67l-245.17 -98.09c-6.75,-2.94 -15.71,-0.9 -19.55,5.21 -1.36,2.02 -2.06,4.38 -2.06,6.8 0,1.06 0.14,2.12 0.4,3.15 1,3.59 3.42,6.63 6.69,8.42l264.5 172.13 0 0zm-359.32 14.71l415.07 181.65 -3.09 -6.51c-17.63,-37.59 -31.27,-77.25 -40.41,-117.81l-0.35 -1.66 -361.52 -80.58c-7.3,-1.9 -15.32,1.33 -17.97,7.91 -0.64,1.53 -0.96,3.13 -0.96,4.75 0,1.82 0.41,3.63 1.19,5.28 1.55,3.23 4.43,5.82 8.06,6.97zm1035.69 594.1c-227.55,-78.1 -485.51,-166.74 -608.8,-389.91l-0.68 -1.29 -477.9 -30.09c-7.54,-0.83 -15.31,3.99 -16.68,11 -0.16,0.8 -0.24,1.62 -0.24,2.44 0,2.58 0.81,5.1 2.33,7.19 2.3,3.18 5.77,5.35 9.64,6l478.9 122.96c1.47,0.29 3.27,0.83 3.95,2.02 0.43,0.66 0.66,1.45 0.66,2.24 0,0.13 -0.01,0.26 -0.02,0.38 -0.18,2.55 -2.55,4.03 -5.29,3.81l-495.87 46.47c-7.62,0.4 -14.34,6.36 -14.34,13.59 0.03,3.4 1.43,6.64 3.89,8.98 2.62,2.73 6.54,4.31 10.42,4.5l495.29 46.51c2.59,0.11 4.82,1.4 5.07,3.63 0.02,0.17 0.03,0.35 0.03,0.53 0,1.07 -0.37,2.1 -1.04,2.92 -0.75,0.87 -1.65,1.19 -2.84,1.44l-479.98 123.18c-3.5,0.7 -6.57,2.79 -8.52,5.79 -1.54,2.12 -2.38,4.68 -2.38,7.3 0,0.78 0.08,1.57 0.22,2.33 1.4,6.93 9.34,11.47 16.75,10.93l496.37 -31.19c2.7,-0.47 5.21,0.65 5.9,2.88 0.1,0.38 0.14,0.78 0.14,1.18 0,0.82 -0.21,1.63 -0.61,2.33 -0.58,0.97 -1.51,1.68 -2.59,1.98l-447.49 195.38c-3.6,1.48 -6.55,4.22 -8.31,7.7 -0.75,1.58 -1.13,3.31 -1.13,5.05 0,1.6 0.32,3.18 0.95,4.65 2.7,6.57 11.25,9.77 18.73,8.19l482.21 -108.12c4.28,-0.87 5.93,0.29 7,2.51 0.26,0.47 0.39,1 0.39,1.54 0,0.42 -0.08,0.84 -0.25,1.23 -0.45,1.24 -1.42,2.22 -2.66,2.7l-402.02 261.55c-3.43,1.85 -5.96,5 -7.05,8.73 -0.28,1.05 -0.42,2.13 -0.42,3.22 0,2.4 0.7,4.75 2,6.77 3.92,6.08 13.48,8.34 19.98,5l453.56 -181.3c2.12,-1.33 5.29,-0.87 6.76,1.08 0.68,0.85 1.05,1.91 1.05,3 0,0.3 -0.03,0.61 -0.09,0.91 -0.1,0.91 -0.59,1.73 -1.36,2.23l-345.3 320.04c-2.76,2.61 -4.58,6.08 -5.14,9.85 -0.32,3.6 0.97,6.72 3.41,9.42 5.03,5.29 14.92,6.11 20.67,1.76l411.54 -249.16c0.97,-0.81 2.19,-1.25 3.46,-1.25 1.26,0 2.48,0.44 3.45,1.25 2.23,2.05 1.9,3.2 1.83,3.67 -0.07,1.26 -1.14,2.73 -1.14,2.73l-278.74 370.1c-1.69,2.04 -2.63,4.61 -2.63,7.26 0,0.52 0.04,1.04 0.11,1.55 0.41,3.65 2.37,6.96 5.39,9.06 5.86,4.5 15.35,3.38 20.38,-1.44l357.06 -309.32c1.54,-1.94 5.03,-2.7 7.04,-1.3 1.72,1.18 2.51,2.55 2.63,3.77 -0.03,1.02 -0.33,2.03 -0.87,2.91l-202.03 406.11c-1.14,2.06 -1.75,4.37 -1.75,6.72 0,1.09 0.13,2.18 0.38,3.23 1.01,3.69 3.53,6.78 6.93,8.52 6.69,3.49 16.1,1.15 19.95,-4.78 0,0 293.69,-362.66 294.37,-362.37 58.87,27.1 116.59,44.42 162.71,48.84 139.09,13.41 269.14,-17.83 339.37,-81.59 36.44,-33.18 54.95,-72.86 54.95,-118 0.04,-170.22 -190.81,-235.78 -411.72,-311.66l0 0zm951.55 545.11l-1.55 4.89c-6.42,20.24 -13.88,40.4 -22.16,60l-0.83 1.84 112.82 98.12c2.94,2.48 6.69,3.86 10.56,3.86 3.44,0 6.81,-1.09 9.6,-3.1 2.97,-2.25 4.87,-5.64 5.25,-9.35 0.02,-0.29 0.03,-0.59 0.03,-0.9 0,-3.12 -1.08,-6.14 -3.05,-8.55l-110.67 -146.79 0 0zm37.2 -217.06l-0.43 5.61c-2.08,31.26 -5.6,62.67 -10.2,93.68l-0.29 1.69 226.12 136.94c5.75,4.31 14.88,3.09 19.88,-2.23 2.27,-2.33 3.53,-5.46 3.53,-8.71 0,-0.35 -0.02,-0.72 -0.05,-1.08 -0.33,-3.42 -1.97,-6.59 -4.57,-8.84l-233.99 -217.06zm-5.43 -192.69l0.83 5.86c4.78,32.2 7.15,65.88 7.15,100.35l-0.21 18.48 346.45 138.84c6.61,3.02 15.46,0.75 19.37,-5.25 1.28,-2.02 1.97,-4.36 1.97,-6.75 0,-1.08 -0.14,-2.16 -0.42,-3.21 -1.01,-3.49 -3.3,-6.48 -6.39,-8.37l-368.74 -239.96zm548.06 -346.92c-2.73,-2.64 -6.31,-4.24 -10.1,-4.5l-495.69 -46.51c-2.51,0.22 -4.56,-1.44 -4.78,-3.73 -0.01,-0.14 -0.02,-0.29 -0.02,-0.42 0,-1.07 0.35,-2.11 0.99,-2.96 0.72,-0.81 1.72,-1.31 2.8,-1.4l478.91 -122.78c3.84,-0.72 7.27,-2.9 9.55,-6.08 1.52,-2.13 2.34,-4.68 2.34,-7.3 0,-0.78 -0.08,-1.56 -0.22,-2.33 -1.4,-6.97 -8.91,-11.47 -16.86,-10.93l-496.8 31.27c-2.51,0.61 -4.92,-0.65 -5.6,-2.91 -0.14,-0.41 -0.2,-0.83 -0.2,-1.26 0,-0.77 0.21,-1.54 0.62,-2.19 0.49,-0.88 1.33,-1.52 2.3,-1.76l448.24 -195.64c3.6,-1.23 6.53,-3.9 8.09,-7.36 0.79,-1.65 1.2,-3.46 1.2,-5.29 0,-1.59 -0.31,-3.16 -0.92,-4.64 -2.66,-6.61 -11.42,-9.55 -18.73,-7.83l-483.46 107.94c-2.44,1.11 -5.82,0.47 -6.79,-1.48 -0.28,-0.58 -0.43,-1.21 -0.43,-1.85 0,-0.52 0.1,-1.04 0.29,-1.53 0.53,-1.02 1.33,-1.89 2.3,-2.51l403.79 -262.52c3.25,-1.9 5.66,-4.98 6.75,-8.59 0.26,-1.01 0.38,-2.06 0.38,-3.09 0,-2.43 -0.69,-4.81 -2,-6.86 -3.84,-6.04 -12.72,-8.16 -19.73,-5.11l-455.83 182.09c-2.19,1.4 -4.92,1.08 -6.32,-0.79 -0.66,-0.82 -1.02,-1.84 -1.02,-2.88 0,-0.21 0.02,-0.43 0.05,-0.64 0.17,-0.94 0.73,-1.77 1.54,-2.27l347 -321.68c2.64,-2.37 4.36,-5.61 4.85,-9.13 0.02,-0.32 0.04,-0.65 0.04,-0.97 0,-3.28 -1.25,-6.42 -3.49,-8.81 -5,-5.32 -13.55,-6.54 -19.31,-2.23l-414.96 250.7c-0.93,0.78 -2.11,1.21 -3.34,1.21 -1.27,0 -2.51,-0.47 -3.46,-1.33 -0.75,-0.75 -1.26,-1.54 -1.26,-2.54 0,-1.01 0.43,-2.27 1.19,-3.09l279.2 -370.6c2.14,-2.64 3.31,-5.94 3.31,-9.34 0,-0.15 -0.01,-0.29 -0.01,-0.44 -0.27,-3.72 -2.18,-7.13 -5.21,-9.31 -6.04,-4.5 -15.78,-3.67 -20.63,1.51l-358.71 310.76c-1.61,2.01 -4.49,2.94 -6.61,1.58 -1.18,-0.72 -1.97,-1.51 -2.19,-2.73 -0.02,-0.21 -0.03,-0.42 -0.03,-0.62 0,-0.8 0.16,-1.59 0.46,-2.32l203.51 -409c1.17,-1.98 1.78,-4.25 1.78,-6.54 0,-1.14 -0.15,-2.27 -0.44,-3.37 -1.02,-3.7 -3.57,-6.79 -7.01,-8.49 -6.69,-3.45 -15.92,-1.48 -19.73,4.5l-299.55 368.23c-82.85,-40.37 -221.33,-64.23 -285.63,-64.23 -1.15,0 -3.13,-0.04 -5.68,-0.14 -131.65,-3.24 -229.6,22.72 -283.26,75.08 -31.02,30.22 -46.76,69.33 -46.76,116.09 0,64.34 36.34,117.03 114.19,165.84 69.66,43.67 166.34,80.12 268.82,118.87 133.6,50.43 285.1,107.64 409.13,193.19 142.37,98.09 226.12,218.06 256.46,366.9l0.29 1.69 458.77 102.73c1.23,0.32 2.49,0.49 3.76,0.49 5.87,0 11.18,-3.51 13.49,-8.91 0.62,-1.47 0.94,-3.05 0.94,-4.65 0,-1.82 -0.42,-3.63 -1.23,-5.27 -1.74,-3.2 -4.56,-5.68 -7.94,-7.01l-447.38 -195.64c-1.05,-0.29 -1.96,-0.99 -2.51,-1.94 -0.44,-0.74 -0.68,-1.57 -0.68,-2.43 0,-0.43 0.06,-0.86 0.17,-1.27 0.72,-2.23 3.31,-3.52 5.9,-2.88l496.51 31.45c7.73,0.65 14.89,-4.07 16.29,-11.11 0.15,-0.78 0.23,-1.57 0.23,-2.37 0,-2.61 -0.82,-5.15 -2.35,-7.26 -2.23,-3.08 -5.54,-5.2 -9.28,-5.93l-478.68 -122.93c-1.28,-0.09 -2.47,-0.69 -3.31,-1.65 -0.6,-0.69 -0.93,-1.56 -0.93,-2.47 0,-0.16 0.01,-0.32 0.03,-0.48 0.32,-2.32 2.31,-4.05 4.66,-4.05 0.16,0 0.32,0.01 0.47,0.03l495.11 -46.48c3.99,-0.25 7.8,-1.79 10.39,-4.38 2.58,-2.59 3.92,-5.79 3.92,-9.1 0,-3.31 -1.33,-6.54 -3.95,-9.1l0 0.01z"/>
 </g>
</svg>
