<?xml version="1.0" encoding="UTF-8"?>
<!DOCTYPE svg PUBLIC "-//W3C//DTD SVG 1.1//EN" "http://www.w3.org/Graphics/SVG/1.1/DTD/svg11.dtd">
<!-- Creator: CorelDRAW 2020 (64-Bit) -->
<svg xmlns="http://www.w3.org/2000/svg" xml:space="preserve" width="422px" height="485px" version="1.1" style="shape-rendering:geometricPrecision; text-rendering:geometricPrecision; image-rendering:optimizeQuality; fill-rule:evenodd; clip-rule:evenodd"
viewBox="0 0 146.641 168.811"
 xmlns:xlink="http://www.w3.org/1999/xlink"
 xmlns:xodm="http://www.corel.com/coreldraw/odm/2003">
 <defs>
  <style type="text/css">
   <![CDATA[
    .fil9 {fill:#813EDD}
    .fil1 {fill:#813FDA}
    .fil5 {fill:#823FDC}
    .fil7 {fill:#8240DB}
    .fil8 {fill:#8341DD}
    .fil10 {fill:#843CDB}
    .fil13 {fill:#F5F4FC}
    .fil4 {fill:#FAB285}
    .fil6 {fill:#FAFAFA}
    .fil11 {fill:#FAFAFD}
    .fil12 {fill:#FDAE8B}
    .fil2 {fill:#FDB285}
    .fil0 {fill:#FDFDFD}
    .fil3 {fill:#FDFEFD}
   ]]>
  </style>
 </defs>
 <g id="Layer_x0020_1">
  <metadata id="CorelCorpID_0Corel-Layer"/>
  <g id="_3016264923952">
   <path class="fil0" d="M63.589 129.248c4.266,-1.61 4.848,1.545 3.34,4.564 -1.421,2.846 0.301,3.441 -1.867,8.198 -0.678,1.489 -0.361,2.231 -1.39,3.494 -3.162,3.88 -1.493,6.476 -9.534,5.497 -0.534,3.952 -2.031,5.761 -5.175,7.296 -7.343,3.584 -4.716,2.43 -5.765,7.019 -2.582,0.184 -3.395,-1.966 -2.516,-4.178 2.203,-5.543 10.52,-2.739 11.441,-11.065 -2.049,-1.064 -3.951,-2.355 -3.362,-5.491 0.475,-2.526 -0.192,-5.438 1.017,-7.739 1.565,-2.978 -0.273,-3.793 3.251,-5.824 2.391,-1.378 4.899,-1.343 7.994,-1.383 2.301,-5.749 0.287,-8.06 3.649,-7.416 0.42,2.411 -0.585,4.798 -1.083,7.028zm30.486 -65.033c3.05,-0.78 13.049,1.207 15.366,2.361 -0.95,1.586 -6.081,4.537 -8.928,4.82 -2.797,0.279 -3.138,-0.881 -3.912,-3.045 -1.022,-2.857 -1.714,-2.31 -2.526,-4.136zm28.373 -1.466c0.89,1.637 1.341,0.454 1.323,3.117 -1.003,0.967 -1.555,1.956 -3.131,1.005 0.595,-1.797 1.038,-0.087 1.601,-2.087l-2.08 -1.157c0.207,-1.575 1.604,-2.701 3.357,-3.056 2.955,-0.597 3.997,1.73 2.06,3.337l-0.696 -1.937c-1.039,0.099 -1.655,0.462 -2.434,0.778zm-13.054 -7.266c-1.631,-0.142 -2.999,-0.259 -4.073,-1.068 -2.335,-2.812 3.784,-6.084 6.575,-0.984 1.817,3.32 0.915,1.036 2.125,2.649 -2.571,0.852 -2.786,-0.8 -4.098,-2.438l-0.529 1.841zm-17.557 -3.571c0.196,-0.988 0.166,-0.365 1.734,-2.094 0.794,-0.877 1.399,-1.169 2.718,-0.982 1.314,0.186 1.714,0.774 2.219,1.623 0.829,1.392 0.979,1.969 0.283,2.954 -1.632,-0.933 -0.969,-2.889 -3.116,-2.863 -2.16,0.025 -1.779,2.662 -3.838,1.362zm9.104 6.619l-3.361 0.179c-0.441,1.925 1.118,1.913 0.776,3.865 -1.438,-0.139 -2.443,-2.051 -2.71,-3.437 -0.109,-0.564 -0.122,-0.384 -0.058,-0.938 0.072,-0.635 0.138,-0.61 0.302,-0.904l3.936 -0.217c0.571,-1.007 0.874,-2.8 1.229,-4.301 0.788,-3.341 0.359,-3.302 1.563,-3.911 1.266,0.921 0.297,2.725 -0.192,4.576 -0.454,1.715 -0.826,3.743 -1.485,5.088zm12.999 -10.26c-2.448,0.704 -9.213,-2.135 -6.824,-4.353 0.963,-0.894 3.452,0.334 4.443,0.795 1.478,0.688 3.002,1.585 2.381,3.558zm-20.85 -4.36c0.701,-3.316 7.427,-2.16 8.322,-0.348 -0.676,1.261 -1.692,1.565 -3.694,1.637 -2.039,0.074 -3.642,-0.092 -4.628,-1.289zm23.526 -5.128c5.855,-3.266 14.28,-3.484 18.87,1.134 8.767,8.821 -2.563,23.003 -2.491,28.696 0.079,6.312 7.519,6.1 8.439,16.441 0.319,3.575 -0.901,7.836 -2.98,9.548 0.735,1.737 2.002,2.096 2.818,6.296 1.813,9.335 -0.219,16.284 -1.38,24.584 -2.228,0.052 -3.649,-0.439 -5.617,-0.831 -0.961,1.001 -7.767,11.408 -10.563,14.795l-7.736 7.925c-4.588,3.823 -8.4,5.285 -14.145,0.996 -0.87,-0.65 -2.012,-1.513 -2.722,-2.154l-8.316 -7.336c-0.938,-0.83 -1.47,-1.59 -2.439,-2.423l-13.285 -12.468c-6.481,-7.269 -3.853,-1.905 -14.703,-5.798 -3.193,-1.146 -3.836,-2.315 -5.039,-5.398 -0.595,-1.524 -1.42,-1.595 -1.661,-3.534 -0.428,-3.431 -0.558,-1.655 -1.336,-3.95 -0.669,-1.977 0.285,-1.612 -0.432,-4.802 -0.514,-2.289 -0.033,-2.778 1.02,-4.063 -1.28,-4.014 -10.153,-21.937 -9.987,-24.706 0.144,-2.404 9.254,-5.034 11.471,-5.742 3.279,-1.046 11.597,-3.15 14.903,-2.331 0.601,2.166 1.036,25.888 1.154,30.193 0.755,-0.362 3.741,-4.748 7.57,-6.326 -6.021,-17.251 4.002,-15.572 4.7,-25.538 0.529,-7.555 -1.195,-21.183 5.615,-28.173 2.757,-2.83 5.449,-4.829 10.176,-6.532 12.352,-4.448 32.688,-3.609 36.501,10.482 -2.916,-1.314 -4.631,-2.682 -8.576,-3.08 -3.369,-0.34 -6.731,0.349 -9.412,1.747 -1.981,1.032 -1.592,0.738 -3.708,-0.081 -1.509,-0.584 -3.06,-0.968 -4.759,-1.207 -13.528,-1.903 -16.456,5.018 -17.754,16.411 -0.864,7.581 0.777,24.331 8.359,25.686 5.787,1.034 12.303,-3.289 16.406,-6.455 0.775,-0.597 0.857,-0.625 1.492,-1.321 2.262,-2.48 1.927,0.655 6.408,-1.228 5.044,-2.121 6.681,-8.808 1.413,-9.45 -2.735,-0.334 -3.071,1.133 -4.634,-1.214 -1.624,-2.44 -3.034,-4.3 -3.647,-7.901 -0.555,-3.255 -0.751,-7.664 0.007,-10.892zm-61.199 -25.125c0.137,4.491 0.103,8.314 0.436,12.781 0.287,3.852 1.298,8.728 1.39,12.325l1.965 0.733c-0.356,-8.546 2.175,-16.173 3.893,-23.695l-2.096 -0.212c-0.441,-1.199 -0.04,-2.573 0.619,-3.62 0.712,-1.129 1.869,-1.213 3.476,-1.135l0.944 -2.447c8.9,-0.697 18.603,4.903 21.95,10.128 -0.435,1.189 -2.427,3.141 -3.359,4.276 -14.056,17.125 -16.377,37.141 -16.888,37.701 -0.43,0.47 -5.594,1.065 -7.074,1.334 -5.165,0.935 -8.12,1.947 -12.892,3.803 -2.086,0.811 -4.23,2.138 -6.084,2.66l-5.196 -6.268c-0.94,-0.968 -1.371,-1.031 -2.173,-2.142 -2.102,2.423 -2.872,3.396 -5.656,0.577 -1.403,-1.419 -3.198,-4.047 -2.32,-7.054 -1.494,-0.339 -3.012,-1.625 -4.517,-2.452 -1.457,-0.801 -3.298,-1.68 -4.922,-2.404 -4.861,-2.168 -8.328,-2.743 -10.524,-3.68 -0.716,-6.378 1.393,-8.625 2.927,-12.467 3.53,0.54 13.948,7.204 16.435,9.054 3.218,2.396 11.545,9.266 13.167,12.353 1.867,0.907 3.705,2.871 4.864,3.974 -1.333,-2.923 -2.671,-5.427 -4.348,-8.088l-5.361 -7.496 -1.618 2.825c-1.368,-0.534 -1.879,-1.598 -2.758,-3.364 -0.844,-1.696 0.053,-2.999 0.652,-4.642 -0.919,-0.399 -8.907,-8.551 -15.057,-12.192 1.012,-3.126 3.847,-6.232 5.801,-8.167 3.199,-3.168 3.804,-3.798 8.024,-6.241 5.128,-2.969 17.074,-6.131 23.831,-4.065 5.474,-0.536 3.995,4.778 2.469,7.307zm-17.024 -12.486c-7.246,1.988 -16.348,5.853 -21.049,11.038 -2.419,2.668 -2.856,2.645 -5.284,5.841 -5.72,7.525 -11.845,18.678 -12.06,31.457 7.188,1.446 12.752,3.461 18.954,6.407 3.088,1.468 3.038,2.399 5.595,7.276 2.176,4.15 3.208,3.934 8.383,3.777 5.206,7.605 9.831,17.265 13.538,26.838 2.043,5.275 -1.296,8.569 2.098,17.358 1.925,4.986 5.412,9.08 8.71,11.402 -0.545,6.597 -2.713,2.242 -7.735,7.073 -1.658,1.596 -2.919,3.442 -3.802,6.279 -2.242,7.212 -0.981,10.319 1.525,16.234 -12.869,2.366 -12.935,16.1 -5.498,16.632 6.003,0.429 3.656,-4.374 8.728,-7.247 1.986,-1.125 3.31,-1.615 5.089,-2.9 2.107,-1.521 2.192,-2.505 3.802,-4.237 2.214,-1.3 5.932,1.778 9.535,-10.63 2.15,-7.403 1.014,-10.783 1.399,-17.982 4.991,4.133 10.409,9.963 14.934,14.808 3.344,3.58 11.963,11.208 17.019,13.246 4.13,1.665 8.57,1.583 12.482,-0.382 5.392,-2.708 14.876,-14.905 18.089,-19.482 1.525,-2.173 2.278,-3.69 3.863,-4.234l5.57 0.631c1.265,0.021 1.06,-0.015 1.514,-1.452 0.23,-0.727 0.381,-1.455 0.566,-2.192 2.539,-10.138 2.659,-19.777 -0.078,-29.902 -0.652,-2.412 -0.034,-2.218 0.89,-4.094 2.741,-5.564 1.303,-12.798 -1.473,-17.555 -1.27,-2.177 -3.827,-4.434 -4.253,-6.938 -0.768,-4.517 8.493,-13.696 2.423,-27.405 -0.559,-1.263 -1.4,-2.496 -1.898,-3.672 -1.347,-3.18 -2.345,-7.491 -6.026,-10.66 -7.337,-6.318 -17.05,-6.997 -27.154,-6.268 -3.629,0.262 -6.498,1.2 -9.612,1.607 -1.422,-1.669 -2.519,-3.66 -3.961,-5.058 -5.187,-5.031 -7.797,-8.228 -15.954,-11.866 -4.358,-1.944 -9.325,-3.308 -14.566,-3.925 -3.297,-0.388 -15.948,-0.533 -17.429,-0.995l-6.874 1.172z"/>
   <path class="fil1" d="M118.115 113.487c2.228,-5.777 9.012,-18.929 15.79,-17.798 8.938,1.491 4.471,19.978 3.894,26.922 -6.094,-0.58 -17.049,-5.758 -19.684,-9.124zm-64.592 -14.957c4.272,-0.852 17.126,10.051 17.334,-0.78 4.098,0.749 5.255,8.315 7.267,12.403 1.159,2.357 21.658,13.495 23.911,15.051 10.722,7.403 7.019,7.999 9.706,9.944 -0.484,-7.057 -2.871,-3.935 0.898,-9.91 1.186,-1.881 4.624,-6.787 5.189,-8.384 1.264,0.441 2.138,1.375 3.319,2.11 4.58,2.852 8.405,3.949 10.009,4.959 -1.568,4.616 -10.145,15.567 -14.186,19.22 -3.141,2.841 -6.738,6.774 -11.22,4.074 -2.188,-1.319 -15.48,-12.961 -18.05,-14.99l-10.668 -10.195c-4.66,-4.044 -3.03,-3.863 -8.142,-4.379 -3.956,-0.4 -10.801,-1.07 -11.477,-4.76l3.089 0.294c-0.405,-1.269 0.107,-0.706 -1.485,-1.319 -1.795,-0.692 -4.146,-1.135 -3.562,-3.788 1.512,-0.044 2.87,1.645 4.725,0.536 -0.536,-1.008 -0.75,-0.652 -2.165,-1.04 -2.494,-0.682 -5.526,-2.841 -3.995,-4.401 1.057,-1.076 3.221,1.789 5.461,0.919 -1.237,-2.478 -7.586,-1.347 -5.958,-5.564zm6.784 -0.11c-1.364,-9.501 13.101,-5.811 7.871,1.828 -2.918,0.191 -5.753,-0.517 -7.871,-1.828zm47.877 28.775c-0.972,-0.572 -1.974,-1.591 -2.973,-2.387 -6.244,-4.976 -14.459,-8.219 -21.556,-12.885 -3.24,-2.131 -3.114,-1.365 -4.742,-5.332 -1.397,-3.405 -0.559,-3.487 1.048,-6.721 3.033,-6.1 6.248,-9.473 7.526,-11.928l10.82 0.323c0.668,4.072 0.756,6.456 4.608,7.53 8.556,2.385 15.992,-5.364 18.395,-5.129 2.671,0.261 6.894,1.857 9.952,2.295l-0.449 0.309c-1.877,1.123 -2.91,1.115 -5.272,3.48 -1.179,1.182 -2.872,3.477 -4.121,5.279 -3.826,5.526 -4.139,7.747 -6.55,11.806 0.456,1.206 0.508,0.505 0.954,1.739 -1.151,1.947 -2.612,3.865 -3.87,5.865 -0.806,1.28 -2.793,4.986 -3.77,5.756zm-7.596 -39.326c1.249,0.412 1.649,1.582 3.46,2.3 5.249,2.08 11.496,-2.306 13.997,-2.885 0.535,1.53 0.97,1.427 -0.507,2.491 -0.723,0.521 -1.665,1.075 -2.582,1.603 -10.775,6.213 -15.863,-0.481 -14.368,-3.509zm-28.761 7.876c2.344,-3.77 7.055,-8.079 13.747,-7.949 -0.558,1.129 -1.636,2.384 -2.423,3.444 -2.122,2.86 -5.685,9.724 -6.36,10.4 -2.986,-5.609 -1.606,-3.565 -4.964,-5.895zm-18.337 -2.04c-0.69,-2.024 -2.544,-5.171 -2.939,-6.837 -0.586,-2.478 2.606,-4.33 5.361,-3.597 5.227,1.393 4.421,10.234 -2.422,10.434zm48.601 -11.527c2.457,-1.558 3.573,0.346 13.398,-7.333l1.171 10.574c-1.663,1.345 -6.281,3.414 -9.174,3.452 -5.698,0.074 -5.588,-3.584 -5.395,-6.693zm-33.798 -1.269c-1.89,0.654 -3.407,1.631 -5.754,0.333 -1.402,-0.776 -2.714,-2.365 -2.68,-4.628 0.067,-4.534 4.863,-6.343 8.234,-3.755l0.2 8.05zm-15.176 -12.811c3.222,-1.042 4.081,3.509 3.526,5.656 -0.589,2.273 -3.078,4.204 -6.19,3.611 -2.077,-0.396 -4.67,-3.087 -3.881,-5.933 0.412,-1.486 4.843,-2.783 6.545,-3.334zm63.499 -29.315c-0.758,3.228 -0.562,7.637 -0.007,10.892 0.613,3.601 2.023,5.461 3.647,7.901 1.563,2.347 1.899,0.88 4.634,1.214 5.268,0.642 3.631,7.329 -1.413,9.45 -4.481,1.883 -4.146,-1.252 -6.408,1.228 -0.635,0.696 -0.717,0.724 -1.492,1.321 -4.103,3.166 -10.619,7.489 -16.406,6.455 -7.582,-1.355 -9.223,-18.105 -8.359,-25.686 1.298,-11.393 4.226,-18.314 17.754,-16.411 1.699,0.239 3.25,0.623 4.759,1.207 2.116,0.819 1.727,1.113 3.708,0.081 2.681,-1.398 6.043,-2.087 9.412,-1.747 3.945,0.398 5.66,1.766 8.576,3.08 -3.813,-14.091 -24.149,-14.93 -36.501,-10.482 -4.727,1.703 -7.419,3.702 -10.176,6.532 -6.81,6.99 -5.086,20.618 -5.615,28.173 -0.698,9.966 -10.721,8.287 -4.7,25.538 -3.829,1.578 -6.815,5.964 -7.57,6.326 -0.118,-4.305 -0.553,-28.027 -1.154,-30.193 -3.306,-0.819 -11.624,1.285 -14.903,2.331 -2.217,0.708 -11.327,3.338 -11.471,5.742 -0.166,2.769 8.707,20.692 9.987,24.706 -1.053,1.285 -1.534,1.774 -1.02,4.063 0.717,3.19 -0.237,2.825 0.432,4.802 0.778,2.295 0.908,0.519 1.336,3.95 0.241,1.939 1.066,2.01 1.661,3.534 1.203,3.083 1.846,4.252 5.039,5.398 10.85,3.893 8.222,-1.471 14.703,5.798l13.285 12.468c0.969,0.833 1.501,1.593 2.439,2.423l8.316 7.336c0.71,0.641 1.852,1.504 2.722,2.154 5.745,4.289 9.557,2.827 14.145,-0.996l7.736 -7.925c2.796,-3.387 9.602,-13.794 10.563,-14.795 1.968,0.392 3.389,0.883 5.617,0.831 1.161,-8.3 3.193,-15.249 1.38,-24.584 -0.816,-4.2 -2.083,-4.559 -2.818,-6.296 2.079,-1.712 3.299,-5.973 2.98,-9.548 -0.92,-10.341 -8.36,-10.129 -8.439,-16.441 -0.072,-5.693 11.258,-19.875 2.491,-28.696 -4.59,-4.618 -13.015,-4.4 -18.87,-1.134z"/>
   <path class="fil2" d="M48.772 52.956c0.754,-0.328 7.55,-1.693 6.215,5.927 -0.373,2.125 -1.727,1.512 -3.5,1.021 -1.847,-0.511 -2.597,-0.497 -2.948,-2.226 -0.3,-1.482 -0.201,-3.462 0.233,-4.722zm15.683 -2.841c2.641,3.522 -0.81,7.931 -3.213,6.66 -2.31,-1.221 -2.214,-7.395 3.213,-6.66zm-24.094 -8.338c4.461,-2.325 11.431,5.03 6.568,7.689 -4.288,2.344 -11.089,-5.331 -6.568,-7.689zm26.036 0.775c-0.965,-1.082 -1.583,-4.859 -0.374,-6.016 0.737,-0.705 3.887,-1.993 5.312,-1.997 0.671,1.664 1.342,4.859 0.03,6.297 -0.778,0.854 -3.289,2.732 -4.968,1.716zm-38.121 -27.195c3.718,-1.577 7.7,3.922 4.162,5.684 -2.018,1.005 -3.893,-0.437 -4.709,-1.39 -0.526,-0.612 -0.977,-1.377 -0.893,-2.489 0.109,-1.432 0.589,-1.444 1.44,-1.805zm21.008 5.459c-7.124,1.262 -8.024,-7.099 -6.86,-8.208 0.965,-0.921 4.984,0.986 5.629,1.679 0.96,1.031 1.857,4.828 1.231,6.529zm-18.935 16.2c0.604,-1.058 0.388,-1.53 1.65,-2.191 1.308,0.582 1.792,1.875 2.328,3.279 0.634,1.66 0.25,2.593 -0.254,4.093l5.361 7.496c1.677,2.661 3.015,5.165 4.348,8.088 0.679,1.168 2.204,2.645 2.02,4.505 -0.183,1.851 -1.796,2.88 -4.062,2.762 -2.219,-2.543 -2.642,-5.906 -7.491,-6.718l0.079 1.55c0.802,1.111 1.233,1.174 2.173,2.142l5.196 6.268c1.854,-0.522 3.998,-1.849 6.084,-2.66 4.772,-1.856 7.727,-2.868 12.892,-3.803 1.48,-0.269 6.644,-0.864 7.074,-1.334 0.511,-0.56 2.832,-20.576 16.888,-37.701 0.932,-1.135 2.924,-3.087 3.359,-4.276 -3.347,-5.225 -13.05,-10.825 -21.95,-10.128l-0.944 2.447c4.837,0.858 6.101,2.537 8.791,5.101 1.899,1.811 6.532,-0.253 9.365,4.668 0.081,2.469 -0.759,4.038 -2.554,4.63 -1.794,-1.101 -1.451,-2.378 -4.597,-2.661 0.296,9.936 -6.785,11.243 -11.057,8.479 -1.957,-1.265 -3.979,-4.528 -2.405,-7.961 1.778,-3.877 4.447,-3.88 5.738,-5.271 -1.209,-1.604 -2.955,-1.75 -5.28,-2.018 -1.718,7.522 -4.249,15.149 -3.893,23.695 0.17,2.779 -0.939,5.296 -2.51,6.749 -4.454,0.243 -7.973,-3.962 -9.601,-6.308 -1.174,-1.693 -1.908,-3.653 -3.07,-4.924 -2.463,-2.692 -4.06,-0.858 -6.135,-1.887 -1.183,-2.787 0.437,-5.613 2.8,-5.967 3.183,-0.476 5.647,0.472 7.334,2.112 3.187,3.098 4.424,8.483 9.217,9.492 -0.092,-3.597 -1.103,-8.473 -1.39,-12.325 -0.333,-4.467 -0.299,-8.29 -0.436,-12.781 -2.125,0.746 -3.823,0.148 -4.129,-2.204 -0.342,-2.626 0.791,-3.624 1.66,-5.103 -6.757,-2.066 -18.703,1.096 -23.831,4.065 -4.22,2.443 -4.825,3.073 -8.024,6.241 -1.954,1.935 -4.789,5.041 -5.801,8.167 6.15,3.641 14.138,11.793 15.057,12.192z"/>
   <path class="fil3" d="M53.523 98.53c-1.628,4.217 4.721,3.086 5.958,5.564 -2.24,0.87 -4.404,-1.995 -5.461,-0.919 -1.531,1.56 1.501,3.719 3.995,4.401 1.415,0.388 1.629,0.032 2.165,1.04 -1.855,1.109 -3.213,-0.58 -4.725,-0.536 -0.584,2.653 1.767,3.096 3.562,3.788 1.592,0.613 1.08,0.05 1.485,1.319l-3.089 -0.294c0.676,3.69 7.521,4.36 11.477,4.76 5.112,0.516 3.482,0.335 8.142,4.379l10.668 10.195c2.57,2.029 15.862,13.671 18.05,14.99 4.482,2.7 8.079,-1.233 11.22,-4.074 4.041,-3.653 12.618,-14.604 14.186,-19.22 -1.604,-1.01 -5.429,-2.107 -10.009,-4.959 -1.181,-0.735 -2.055,-1.669 -3.319,-2.11 -0.565,1.597 -4.003,6.503 -5.189,8.384 -3.769,5.975 -1.382,2.853 -0.898,9.91 -2.687,-1.945 1.016,-2.541 -9.706,-9.944 -2.253,-1.556 -22.752,-12.694 -23.911,-15.051 -2.012,-4.088 -3.169,-11.654 -7.267,-12.403 -0.208,10.831 -13.062,-0.072 -17.334,0.78z"/>
   <path class="fil0" d="M108.184 127.195c0.977,-0.77 2.964,-4.476 3.77,-5.756 1.258,-2 2.719,-3.918 3.87,-5.865 -0.446,-1.234 -0.498,-0.533 -0.954,-1.739 2.411,-4.059 2.724,-6.28 6.55,-11.806 1.249,-1.802 2.942,-4.097 4.121,-5.279 2.362,-2.365 3.395,-2.357 5.272,-3.48l0.449 -0.309c-3.058,-0.438 -7.281,-2.034 -9.952,-2.295 -2.403,-0.235 -9.839,7.514 -18.395,5.129 -3.852,-1.074 -3.94,-3.458 -4.608,-7.53l-10.82 -0.323c-1.278,2.455 -4.493,5.828 -7.526,11.928 -1.607,3.234 -2.445,3.316 -1.048,6.721 1.628,3.967 1.502,3.201 4.742,5.332 7.097,4.666 15.312,7.909 21.556,12.885 0.999,0.796 2.001,1.815 2.973,2.387z"/>
   <path class="fil3" d="M118.115 113.487c2.635,3.366 13.59,8.544 19.684,9.124 0.577,-6.944 5.044,-25.431 -3.894,-26.922 -6.778,-1.131 -13.562,12.021 -15.79,17.798z"/>
   <path class="fil4" d="M26.156 47.861c-3.879,1.403 -6.524,-4.776 -3.756,-5.935 3.63,-1.52 6.971,3.712 3.756,5.935zm-15.665 -11.28c4.101,-1.817 5.592,7.351 2.609,8.307 -4.131,1.324 -6.092,-6.764 -2.609,-8.307zm15.861 16.822c1.817,-1.263 3.068,-2.092 6.157,-1.596 2.659,0.427 4.061,0.993 6.409,2 -1.622,-3.087 -9.949,-9.957 -13.167,-12.353 -2.487,-1.85 -12.905,-8.514 -16.435,-9.054 -1.534,3.842 -3.643,6.089 -2.927,12.467 2.196,0.937 5.663,1.512 10.524,3.68 1.624,0.724 3.465,1.603 4.922,2.404 1.505,0.827 3.023,2.113 4.517,2.452z"/>
   <path class="fil1" d="M60.432 146.912c-0.324,3.647 -6.563,2.175 -8.572,0.635 -1.922,-1.472 -1.145,-1.659 -1.182,-4.084 -0.037,-2.495 0.268,-2.286 0.692,-4.797 0.201,-1.19 0.485,-1.318 0.771,-2.218 0.359,-1.132 0.087,-1.491 0.363,-2.392 0.547,-1.785 9.397,-5.128 11.889,1.808 -3.654,-0.17 -7.026,-2.365 -8.611,0.235 1.714,1.297 5.673,0.742 8.163,1.767 0.537,5.139 -3.671,1.613 -7.107,2.755 1.707,1.928 7.299,0.166 5.099,4.513 -1.809,0.372 -3.739,-0.038 -4.751,0.154 -1.913,0.362 -0.72,0.153 -1.153,0.551 1.651,0.914 2.967,0.544 4.399,1.073zm5.381 -16.497c0.645,1.242 0.399,1.29 0.104,2.701 -0.785,-0.361 -0.539,0.38 -1.787,-1.888 0.801,-0.844 0.804,-0.989 1.683,-0.813zm-2.224 -1.167c0.498,-2.23 1.503,-4.617 1.083,-7.028 -3.362,-0.644 -1.348,1.667 -3.649,7.416 -3.095,0.04 -5.603,0.005 -7.994,1.383 -3.524,2.031 -1.686,2.846 -3.251,5.824 -1.209,2.301 -0.542,5.213 -1.017,7.739 -0.589,3.136 1.313,4.427 3.362,5.491 -0.921,8.326 -9.238,5.522 -11.441,11.065 -0.879,2.212 -0.066,4.362 2.516,4.178 1.049,-4.589 -1.578,-3.435 5.765,-7.019 3.144,-1.535 4.641,-3.344 5.175,-7.296 8.041,0.979 6.372,-1.617 9.534,-5.497 1.029,-1.263 0.712,-2.005 1.39,-3.494 2.168,-4.757 0.446,-5.352 1.867,-8.198 1.508,-3.019 0.926,-6.174 -3.34,-4.564z"/>
   <path class="fil5" d="M68.488 27.559c-1.657,-1.947 0.064,-4.16 2.012,-4.427 0.122,2.154 -0.245,3.827 -2.012,4.427zm-3.393 1.665c-1.587,-2.672 -2.206,-4.11 0.053,-7.124 0.664,-0.887 1.403,-1.56 2.79,-2.121 2.057,-0.831 2.166,-0.177 2.436,1.782 -1.599,0.377 -2.883,1.337 -3.723,2.544 -1.481,2.13 -0.206,2.844 0.707,4.434l-2.263 0.485zm16.038 -6.099c-2.056,-1.278 -2.285,-1.575 -5.173,-2.284l-0.791 -2.708c3.133,-0.09 4.988,1.151 6.494,2.464 0.077,1.114 -0.224,1.697 -0.53,2.528zm-7.082 -2.805c2.374,8.282 -3.959,12.655 -7.037,9.853 8.025,-1.856 7.014,-16.045 -4.502,-15.959l0.556 -1.895c5.09,-0.753 9.834,3.995 10.983,8.001zm-10.95 -4.518c2.325,0.268 4.071,0.414 5.28,2.018 -1.291,1.391 -3.96,1.394 -5.738,5.271 -1.574,3.433 0.448,6.696 2.405,7.961 4.272,2.764 11.353,1.457 11.057,-8.479 3.146,0.283 2.803,1.56 4.597,2.661 1.795,-0.592 2.635,-2.161 2.554,-4.63 -2.833,-4.921 -7.466,-2.857 -9.365,-4.668 -2.69,-2.564 -3.954,-4.243 -8.791,-5.101 -1.607,-0.078 -2.764,0.006 -3.476,1.135 -0.659,1.047 -1.06,2.421 -0.619,3.62l2.096 0.212z"/>
   <path class="fil0" d="M60.432 146.912c-1.432,-0.529 -2.748,-0.159 -4.399,-1.073 0.433,-0.398 -0.76,-0.189 1.153,-0.551 1.012,-0.192 2.942,0.218 4.751,-0.154 2.2,-4.347 -3.392,-2.585 -5.099,-4.513 3.436,-1.142 7.644,2.384 7.107,-2.755 -2.49,-1.025 -6.449,-0.47 -8.163,-1.767 1.585,-2.6 4.957,-0.405 8.611,-0.235 -2.492,-6.936 -11.342,-3.593 -11.889,-1.808 -0.276,0.901 -0.004,1.26 -0.363,2.392 -0.286,0.9 -0.57,1.028 -0.771,2.218 -0.424,2.511 -0.729,2.302 -0.692,4.797 0.037,2.425 -0.74,2.612 1.182,4.084 2.009,1.54 8.248,3.012 8.572,-0.635z"/>
   <path class="fil0" d="M102.091 82.178c-0.193,3.109 -0.303,6.767 5.395,6.693 2.893,-0.038 7.511,-2.107 9.174,-3.452l-1.171 -10.574c-9.825,7.679 -10.941,5.775 -13.398,7.333z"/>
   <path class="fil5" d="M50.843 36.896c2.221,3.127 4.693,3.417 6.444,4.267l-0.815 2.608c-10.059,-1.123 -7.363,-12.433 -16.952,-12.288l0.828 -2.507c6.736,-1.089 7.854,4.205 10.495,7.92zm8.365 2.601l-1.965 -0.733c-4.793,-1.009 -6.03,-6.394 -9.217,-9.492 -1.687,-1.64 -4.151,-2.588 -7.334,-2.112 -2.363,0.354 -3.983,3.18 -2.8,5.967 2.075,1.029 3.672,-0.805 6.135,1.887 1.162,1.271 1.896,3.231 3.07,4.924 1.628,2.346 5.147,6.551 9.601,6.308 1.571,-1.453 2.68,-3.97 2.51,-6.749z"/>
   <path class="fil5" d="M29.216 53.64c1.473,4.382 2.629,3.82 3.392,5.949l-0.895 0.985c-1.936,-0.616 -6.828,-6.065 -2.497,-6.934zm15.125 8.361c-0.535,0.823 -0.499,0.933 -1.558,1.36 -1.894,-2.369 -2.521,-4.024 -5.249,-5.509 -2.718,-1.48 -6.167,-1.075 -6.201,-4.449 6.033,-0.046 11.366,4.589 13.008,8.598zm-17.989 -8.598c-0.878,3.007 0.917,5.635 2.32,7.054 2.784,2.819 3.554,1.846 5.656,-0.577l-0.079 -1.55c4.849,0.812 5.272,4.175 7.491,6.718 2.266,0.118 3.879,-0.911 4.062,-2.762 0.184,-1.86 -1.341,-3.337 -2.02,-4.505 -1.159,-1.103 -2.997,-3.067 -4.864,-3.974 -2.348,-1.007 -3.75,-1.573 -6.409,-2 -3.089,-0.496 -4.34,0.333 -6.157,1.596z"/>
   <path class="fil0" d="M71.827 95.745c3.358,2.33 1.978,0.286 4.964,5.895 0.675,-0.676 4.238,-7.54 6.36,-10.4 0.787,-1.06 1.865,-2.315 2.423,-3.444 -6.692,-0.13 -11.403,4.179 -13.747,7.949z"/>
   <path class="fil4" d="M53.117 68.098c-1.702,0.551 -6.133,1.848 -6.545,3.334 -0.789,2.846 1.804,5.537 3.881,5.933 3.112,0.593 5.601,-1.338 6.19,-3.611 0.555,-2.147 -0.304,-6.698 -3.526,-5.656z"/>
   <path class="fil2" d="M68.293 80.909l-0.2 -8.05c-3.371,-2.588 -8.167,-0.779 -8.234,3.755 -0.034,2.263 1.278,3.852 2.68,4.628 2.347,1.298 3.864,0.321 5.754,-0.333z"/>
   <path class="fil4" d="M53.49 93.705c6.843,-0.2 7.649,-9.041 2.422,-10.434 -2.755,-0.733 -5.947,1.119 -5.361,3.597 0.395,1.666 2.249,4.813 2.939,6.837z"/>
   <path class="fil6" d="M39.52 31.483c9.589,-0.145 6.893,11.165 16.952,12.288l0.815 -2.608c-1.751,-0.85 -4.223,-1.14 -6.444,-4.267 -2.641,-3.715 -3.759,-9.009 -10.495,-7.92l-0.828 2.507z"/>
   <path class="fil6" d="M62.512 14.214c11.516,-0.086 12.527,14.103 4.502,15.959 3.078,2.802 9.411,-1.571 7.037,-9.853 -1.149,-4.006 -5.893,-8.754 -10.983,-8.001l-0.556 1.895z"/>
   <path class="fil4" d="M60.307 98.42c2.118,1.311 4.953,2.019 7.871,1.828 5.23,-7.639 -9.235,-11.329 -7.871,-1.828z"/>
   <path class="fil4" d="M100.588 87.869c-1.495,3.028 3.593,9.722 14.368,3.509 0.917,-0.528 1.859,-1.082 2.582,-1.603 1.477,-1.064 1.042,-0.961 0.507,-2.491 -2.501,0.579 -8.748,4.965 -13.997,2.885 -1.811,-0.718 -2.211,-1.888 -3.46,-2.3z"/>
   <path class="fil5" d="M41.466 43.964c4.951,-1.808 6.584,6.338 1.382,3.014 -1.833,-1.171 -1.621,-1.926 -1.382,-3.014zm-1.105 -2.187c-4.521,2.358 2.28,10.033 6.568,7.689 4.863,-2.659 -2.107,-10.014 -6.568,-7.689z"/>
   <path class="fil5" d="M97.395 65.783c3,-0.07 6.127,0.468 8.672,1.401 -1.024,1.037 -3.12,2.268 -5.032,2.676 -2.423,0.518 -3.118,-2.099 -3.64,-4.077zm-3.32 -1.568c0.812,1.826 1.504,1.279 2.526,4.136 0.774,2.164 1.115,3.324 3.912,3.045 2.847,-0.283 7.978,-3.234 8.928,-4.82 -2.317,-1.154 -12.316,-3.141 -15.366,-2.361z"/>
   <path class="fil7" d="M44.147 14.605c2.865,0.531 3.024,1.117 3.371,4.017 -3.104,-0.734 -2.894,-0.811 -3.371,-4.017zm5.137 6.211c0.626,-1.701 -0.271,-5.498 -1.231,-6.529 -0.645,-0.693 -4.664,-2.6 -5.629,-1.679 -1.164,1.109 -0.264,9.47 6.86,8.208z"/>
   <path class="fil6" d="M42.783 63.361c1.059,-0.427 1.023,-0.537 1.558,-1.36 -1.642,-4.009 -6.975,-8.644 -13.008,-8.598 0.034,3.374 3.483,2.969 6.201,4.449 2.728,1.485 3.355,3.14 5.249,5.509z"/>
   <path class="fil1" d="M50.49 54.721l2.743 0.508 0.231 3.131 -2.738 -0.497 -0.236 -3.142zm-1.718 -1.765c-0.434,1.26 -0.533,3.24 -0.233,4.722 0.351,1.729 1.101,1.715 2.948,2.226 1.773,0.491 3.127,1.104 3.5,-1.021 1.335,-7.62 -5.461,-6.255 -6.215,-5.927z"/>
   <path class="fil5" d="M12.639 42.642c-2.413,0.96 -2.565,-2.783 -1.611,-4.299 1.079,0.306 1.302,0.396 1.686,1.54 0.426,1.269 0.376,1.777 -0.075,2.759zm-2.148 -6.061c-3.483,1.543 -1.522,9.631 2.609,8.307 2.983,-0.956 1.492,-10.124 -2.609,-8.307z"/>
   <path class="fil8" d="M66.938 37.577c1.431,-0.328 1.82,-0.95 3.133,-0.834l0.459 2.64c-0.747,0.917 -1.738,1.432 -2.991,1.705l-0.601 -3.511zm-0.541 4.975c1.679,1.016 4.19,-0.862 4.968,-1.716 1.312,-1.438 0.641,-4.633 -0.03,-6.297 -1.425,0.004 -4.575,1.292 -5.312,1.997 -1.209,1.157 -0.591,4.934 0.374,6.016z"/>
   <path class="fil9" d="M32.437 41.958c-0.939,-0.622 -0.079,0.499 -0.974,-1.005 -0.355,-0.596 -0.219,-0.52 -0.362,-0.872l0.898 -1.781c0.345,0.325 0.006,-0.453 0.681,0.775 0.619,1.126 0.101,1.64 -0.243,2.883zm-2.088 -4.942c-0.599,1.643 -1.496,2.946 -0.652,4.642 0.879,1.766 1.39,2.83 2.758,3.364l1.618 -2.825c0.504,-1.5 0.888,-2.433 0.254,-4.093 -0.536,-1.404 -1.02,-2.697 -2.328,-3.279 -1.262,0.661 -1.046,1.133 -1.65,2.191z"/>
   <path class="fil5" d="M53.47 11.922c-0.683,-1.71 -0.54,-2.886 0.793,-3.686 0.813,0.555 1.512,1.165 0.854,2.78 -0.338,0.827 -0.527,0.836 -1.647,0.906zm1.947 1.736c1.526,-2.529 3.005,-7.843 -2.469,-7.307 -0.869,1.479 -2.002,2.477 -1.66,5.103 0.306,2.352 2.004,2.95 4.129,2.204z"/>
   <path class="fil5" d="M109.923 53.642c1.312,1.638 1.527,3.29 4.098,2.438 -1.21,-1.613 -0.308,0.671 -2.125,-2.649 -2.791,-5.1 -8.91,-1.828 -6.575,0.984 1.074,0.809 2.442,0.926 4.073,1.068l0.529 -1.841z"/>
   <path class="fil6" d="M65.095 29.224l2.263 -0.485c-0.913,-1.59 -2.188,-2.304 -0.707,-4.434 0.84,-1.207 2.124,-2.167 3.723,-2.544 -0.27,-1.959 -0.379,-2.613 -2.436,-1.782 -1.387,0.561 -2.126,1.234 -2.79,2.121 -2.259,3.014 -1.64,4.452 -0.053,7.124z"/>
   <path class="fil9" d="M100.941 58.531c0.659,-1.345 1.031,-3.373 1.485,-5.088 0.489,-1.851 1.458,-3.655 0.192,-4.576 -1.204,0.609 -0.775,0.57 -1.563,3.911 -0.355,1.501 -0.658,3.294 -1.229,4.301l-3.936 0.217c-0.164,0.294 -0.23,0.269 -0.302,0.904 -0.064,0.554 -0.051,0.374 0.058,0.938 0.267,1.386 1.272,3.298 2.71,3.437 0.342,-1.952 -1.217,-1.94 -0.776,-3.865l3.361 -0.179z"/>
   <path class="fil7" d="M23.448 43.719c1.956,0.058 2.331,1.02 1.932,2.57 -1.409,-0.157 -2.494,-0.956 -1.932,-2.57zm2.708 4.142c3.215,-2.223 -0.126,-7.455 -3.756,-5.935 -2.768,1.159 -0.123,7.338 3.756,5.935z"/>
   <path class="fil7" d="M28.733 17.03c1.731,-0.922 3.556,0.599 3.108,2.418 -1.757,0.824 -3.881,-0.427 -3.108,-2.418zm-0.457 -1.673c-0.851,0.361 -1.331,0.373 -1.44,1.805 -0.084,1.112 0.367,1.877 0.893,2.489 0.816,0.953 2.691,2.395 4.709,1.39 3.538,-1.762 -0.444,-7.261 -4.162,-5.684z"/>
   <path class="fil10" d="M62.042 55.21c-1.004,-1.535 -0.736,-3.09 1.338,-3.28l0.216 2.131c-0.622,0.738 -0.647,0.89 -1.554,1.149zm2.413 -5.095c-5.427,-0.735 -5.523,5.439 -3.213,6.66 2.403,1.271 5.854,-3.138 3.213,-6.66z"/>
   <path class="fil6" d="M97.395 65.783c0.522,1.978 1.217,4.595 3.64,4.077 1.912,-0.408 4.008,-1.639 5.032,-2.676 -2.545,-0.933 -5.672,-1.471 -8.672,-1.401z"/>
   <path class="fil1" d="M111.559 44.713c-0.991,-0.461 -3.48,-1.689 -4.443,-0.795 -2.389,2.218 4.376,5.057 6.824,4.353 0.621,-1.973 -0.903,-2.87 -2.381,-3.558z"/>
   <path class="fil1" d="M93.09 43.911c0.986,1.197 2.589,1.363 4.628,1.289 2.002,-0.072 3.018,-0.376 3.694,-1.637 -0.895,-1.812 -7.621,-2.968 -8.322,0.348z"/>
   <path class="fil1" d="M122.448 62.749c0.779,-0.316 1.395,-0.679 2.434,-0.778l0.696 1.937c1.937,-1.607 0.895,-3.934 -2.06,-3.337 -1.753,0.355 -3.15,1.481 -3.357,3.056l2.08 1.157c-0.563,2 -1.006,0.29 -1.601,2.087 1.576,0.951 2.128,-0.038 3.131,-1.005 0.018,-2.663 -0.433,-1.48 -1.323,-3.117z"/>
   <path class="fil11" d="M75.96 20.841c2.888,0.709 3.117,1.006 5.173,2.284 0.306,-0.831 0.607,-1.414 0.53,-2.528 -1.506,-1.313 -3.361,-2.554 -6.494,-2.464l0.791 2.708z"/>
   <path class="fil6" d="M29.216 53.64c-4.331,0.869 0.561,6.318 2.497,6.934l0.895 -0.985c-0.763,-2.129 -1.919,-1.567 -3.392,-5.949z"/>
   <path class="fil5" d="M91.837 51.912c2.059,1.3 1.678,-1.337 3.838,-1.362 2.147,-0.026 1.484,1.93 3.116,2.863 0.696,-0.985 0.546,-1.562 -0.283,-2.954 -0.505,-0.849 -0.905,-1.437 -2.219,-1.623 -1.319,-0.187 -1.924,0.105 -2.718,0.982 -1.568,1.729 -1.538,1.106 -1.734,2.094z"/>
   <path class="fil6" d="M41.466 43.964c-0.239,1.088 -0.451,1.843 1.382,3.014 5.202,3.324 3.569,-4.822 -1.382,-3.014z"/>
   <path class="fil6" d="M67.539 41.088c1.253,-0.273 2.244,-0.788 2.991,-1.705l-0.459 -2.64c-1.313,-0.116 -1.702,0.506 -3.133,0.834l0.601 3.511z"/>
   <path class="fil6" d="M12.639 42.642c0.451,-0.982 0.501,-1.49 0.075,-2.759 -0.384,-1.144 -0.607,-1.234 -1.686,-1.54 -0.954,1.516 -0.802,5.259 1.611,4.299z"/>
   <polygon class="fil11" points="50.726,57.863 53.464,58.36 53.233,55.229 50.49,54.721 "/>
   <path class="fil6" d="M47.518 18.622c-0.347,-2.9 -0.506,-3.486 -3.371,-4.017 0.477,3.206 0.267,3.283 3.371,4.017z"/>
   <path class="fil12" d="M68.488 27.559c1.767,-0.6 2.134,-2.273 2.012,-4.427 -1.948,0.267 -3.669,2.48 -2.012,4.427z"/>
   <path class="fil6" d="M28.733 17.03c-0.773,1.991 1.351,3.242 3.108,2.418 0.448,-1.819 -1.377,-3.34 -3.108,-2.418z"/>
   <path class="fil6" d="M53.47 11.922c1.12,-0.07 1.309,-0.079 1.647,-0.906 0.658,-1.615 -0.041,-2.225 -0.854,-2.78 -1.333,0.8 -1.476,1.976 -0.793,3.686z"/>
   <path class="fil6" d="M62.042 55.21c0.907,-0.259 0.932,-0.411 1.554,-1.149l-0.216 -2.131c-2.074,0.19 -2.342,1.745 -1.338,3.28z"/>
   <path class="fil13" d="M31.101 40.081c0.143,0.352 0.007,0.276 0.362,0.872 0.895,1.504 0.035,0.383 0.974,1.005 0.344,-1.243 0.862,-1.757 0.243,-2.883 -0.675,-1.228 -0.336,-0.45 -0.681,-0.775l-0.898 1.781z"/>
   <path class="fil6" d="M25.38 46.289c0.399,-1.55 0.024,-2.512 -1.932,-2.57 -0.562,1.614 0.523,2.413 1.932,2.57z"/>
   <path class="fil13" d="M64.13 131.228c1.248,2.268 1.002,1.527 1.787,1.888 0.295,-1.411 0.541,-1.459 -0.104,-2.701 -0.879,-0.176 -0.882,-0.031 -1.683,0.813z"/>
  </g>
 </g>
</svg>
