<?xml version="1.0" encoding="UTF-8"?>
<!DOCTYPE svg PUBLIC "-//W3C//DTD SVG 1.1//EN" "http://www.w3.org/Graphics/SVG/1.1/DTD/svg11.dtd">
<!-- Creator: CorelDRAW 2020 (64-Bit) -->
<svg xmlns="http://www.w3.org/2000/svg" xml:space="preserve" width="2170px" height="593px" version="1.1" style="shape-rendering:geometricPrecision; text-rendering:geometricPrecision; image-rendering:optimizeQuality; fill-rule:evenodd; clip-rule:evenodd"
viewBox="0 0 2236.39 611.48"
 xmlns:xlink="http://www.w3.org/1999/xlink"
 xmlns:xodm="http://www.corel.com/coreldraw/odm/2003">
 <defs>
  <style type="text/css">
   <![CDATA[
    .fil1 {fill:#1E78C2;fill-rule:nonzero}
    .fil0 {fill:#A1D2F8;fill-rule:nonzero}
   ]]>
  </style>
 </defs>
 <g id="Layer_x0020_1">
  <metadata id="CorelCorpID_0Corel-Layer"/>
  <polygon class="fil0" points="1183.84,209.63 1105.2,209.63 1113.4,166.77 1320.62,166.77 1312.05,209.63 1233.41,209.63 1187.56,451.14 1138.37,451.14 "/>
  <path class="fil0" d="M1408.21 455.98c-73.8,0 -111.82,-54.04 -111.82,-117.4 -0.74,-50.69 18.27,-99.88 53.3,-136.78 26.83,-25.72 62.61,-39.88 99.88,-39.51 75.66,0 111.44,53.3 111.44,117.78 0.75,49.57 -17.51,98.02 -51.06,134.54 -26.83,26.47 -63.36,41 -101.37,40.63l-0.37 0.74zm7.45 -41.37c20.87,-0.37 40.62,-8.94 55.16,-24.22 24.6,-24.6 38.39,-73.05 38.39,-108.83 0,-35.78 -13.05,-77.9 -65.6,-77.9 -21.24,0.37 -41.74,8.95 -56.28,24.6 -25.34,30.19 -39.13,68.21 -38.76,107.71 0,42.86 19.01,78.64 66.72,78.64l0.37 0z"/>
  <polygon class="fil0" points="1745.5,324.79 1643.38,324.79 1627.73,409.77 1742.52,409.77 1734.32,451.51 1569.96,451.51 1624,167.88 1781.66,167.88 1773.46,209.63 1665.37,209.63 1651.21,284.17 1753.7,284.17 "/>
  <polygon class="fil0" points="1827.5,167.14 1984.04,167.14 1975.84,208.88 1868.87,208.88 1853.22,288.64 1952.73,288.64 1944.53,330.01 1846.13,330.01 1823.4,451.14 1773.46,451.14 "/>
  <polygon class="fil0" points="2028.01,167.14 2076.84,167.14 2031.37,408.28 2142.81,408.28 2134.61,451.14 1973.97,451.14 "/>
  <path class="fil0" d="M2224.43 440.33c-11.93,14.16 -33.17,16.03 -47.33,4.1 -14.17,-11.93 -16.03,-33.17 -4.1,-47.33 1.11,-1.49 2.61,-2.98 4.1,-4.1 11.92,-14.17 33.17,-16.03 47.33,-4.1 14.16,11.92 16.03,33.17 4.1,47.33 -1.12,1.12 -2.61,2.61 -4.1,4.1zm-43.98 -44.35c-11.18,11.18 -11.18,29.44 0,40.62 11.18,11.19 29.45,11.19 40.63,0 11.18,-11.18 11.18,-29.44 0,-40.62 -5.22,-5.22 -12.68,-8.2 -20.13,-8.57 -7.83,0 -15.65,2.98 -20.5,8.57l0 0zm19.38 1.86c3.36,-0.37 6.71,0.38 10.07,1.12 3.72,1.49 5.96,5.22 5.58,9.32 0.38,2.98 -1.11,5.59 -3.72,7.08 -1.49,1.12 -3.36,1.49 -5.22,1.86 2.61,0.38 4.85,1.49 6.34,3.73 1.11,1.49 1.86,3.73 1.86,5.59l0 2.61c0,0.75 0,1.86 0,2.61 0,0.74 0,1.12 0,1.86l0 0 -6.34 0 0 -3.35c0.38,-3.36 -0.74,-6.71 -3.35,-8.58 -2.24,-1.11 -4.84,-1.48 -7.08,-1.11l-5.22 0 0 14.53 -6.33 0 0 -37.64 13.41 0 0 0.37zm7.08 5.97c-2.61,-1.12 -5.22,-1.5 -7.82,-1.5l-6.34 0 0 13.42 5.96 0c2.24,0 4.1,0 5.97,-0.74 3.35,-1.49 4.84,-5.59 3.35,-8.95 -0.37,-1.12 -1.12,-1.86 -1.86,-2.61l0.74 0 0 0.38z"/>
  <path class="fil0" d="M751.5 434.74l-1.12 0.75c-78.64,60 -158.03,96.53 -257.17,118.14 -152.06,33.17 -293.31,13.42 -369.35,-51.43 -34.29,-29.07 -53.29,-65.97 -56.65,-108.83 -9.31,-110.32 73.8,-224.74 221.76,-305.62l1.49 -0.74 -1.86 -4.1 -1.49 0.74c-173.68,70.07 -295.93,200.52 -286.61,324.26 3.73,50.68 26.46,95.41 65.59,129.7 80.51,70.44 223.63,92.06 382.4,58.14 127.84,-27.21 229.59,-84.23 304.87,-155.79l1.49 -1.49 -3.35 -3.73z"/>
  <path class="fil1" d="M867.04 134.71c-30.19,-67.46 -96.53,-112.93 -186.73,-128.95 -145.73,-25.72 -320.52,37.27 -408.11,138.64l-1.12 1.12 2.61 3.73 1.49 -1.12c58.14,-48.45 144.24,-85.35 230.33,-98.39 127.84,-19.39 235.18,12.67 286.99,86.09 50.31,71.19 36.15,208.71 -30.19,288.47l-1.12 1.49 3.36 3.73 1.49 -1.12c100.63,-95.41 149.08,-185.98 101,-293.69z"/>
  <polygon class="fil0" points="329.97,328.52 233.44,328.52 223,384.05 330.71,384.05 322.14,429.52 160.76,429.52 205.86,188.76 360.9,188.76 351.96,234.22 251.33,234.22 242.01,283.42 338.54,283.42 "/>
  <path class="fil0" d="M427.99 234.22l-59.26 0 8.95 -45.84 204.61 0c-12.3,2.61 -23.11,10.07 -33.17,20.13 -11.56,11.55 -13.79,25.34 -13.79,25.34l-53.67 0 -36.52 194.93 -53.67 0 36.52 -194.56z"/>
  <path class="fil0" d="M537.19 370.64c16.4,9.69 39.14,17.51 64.48,17.51 19.76,0 39.14,-8.2 39.14,-27.2 0,-12.68 -11.19,-21.62 -35.41,-32.06 -27.95,-11.92 -56.65,-30.93 -56.65,-65.59 0,-49.57 46.21,-78.64 99.88,-78.64 32.8,0 52.18,7.08 64.11,13.04l-17.52 44.35c-8.2,-4.1 -28.32,-12.3 -51.06,-11.92 -25.72,0 -38.39,11.92 -38.39,23.1 0,14.91 18.26,23.48 38.76,33.17 32.43,14.17 54.04,33.55 54.04,65.23 0,55.16 -48.07,81.62 -104.35,81.62 -36.53,-0.74 -63.36,-10.06 -76.78,-20.13l19.75 -42.48z"/>
  <path class="fil0" d="M854.37 486.17c-6.34,6.34 -14.17,9.69 -23.48,9.69 -9.32,0 -16.78,-3.35 -23.48,-9.69 -6.34,-6.33 -9.69,-14.16 -9.69,-23.48 0,-8.94 3.35,-16.77 9.69,-23.48 6.33,-6.33 14.16,-9.69 23.1,-9.69 9.32,0 17.15,3.36 23.48,9.69 6.34,6.34 9.69,14.17 9.69,23.48 0.38,8.95 -2.98,16.77 -9.31,23.48zm-43.61 -43.6c-5.59,5.59 -8.2,12.3 -8.2,20.12 0,7.83 2.61,14.54 8.2,20.13 5.59,5.59 12.3,8.57 20.13,8.57 7.82,0 14.53,-2.61 20.12,-8.57 5.59,-5.59 8.2,-12.3 8.2,-20.13 0,-7.82 -2.61,-14.53 -8.2,-20.12 -5.59,-5.59 -12.3,-8.58 -20.12,-8.58 -7.83,0 -14.54,2.99 -20.13,8.58zm19.38 1.86c4.47,0 7.83,0.37 10.06,1.12 3.73,1.49 5.59,4.47 5.59,9.32 0,3.35 -1.12,5.59 -3.72,7.08 -1.12,0.74 -2.99,1.49 -5.22,1.86 2.98,0.37 4.84,1.49 6.33,3.73 1.49,1.86 1.87,3.73 1.87,5.59l0 2.61c0,0.74 0,1.86 0,2.61 0,1.11 0,1.49 0.37,1.86l0.37 0.37 -5.96 0c0,0 0,-0.37 0,-0.37 0,0 0,-0.37 0,-0.37l0 -1.12 0 -2.98c0,-4.1 -1.12,-7.08 -3.35,-8.2 -1.5,-0.75 -3.73,-1.12 -7.09,-1.12l-5.21 0 0 14.16 -6.34 0 0 -36.15 12.3 0 0 0zm7.08 5.59c-1.49,-0.74 -4.1,-1.49 -7.83,-1.49l-5.59 0 0 13.05 5.59 0c2.61,0 4.85,-0.38 5.97,-0.75 2.61,-1.12 3.72,-2.98 3.72,-5.59 0.38,-2.61 -0.37,-4.47 -1.86,-5.22z"/>
 </g>
</svg>
