<?xml version="1.0" encoding="UTF-8"?>
<!DOCTYPE svg PUBLIC "-//W3C//DTD SVG 1.1//EN" "http://www.w3.org/Graphics/SVG/1.1/DTD/svg11.dtd">
<!-- Creator: CorelDRAW 2020 (64-Bit) -->
<svg xmlns="http://www.w3.org/2000/svg" xml:space="preserve" width="489px" height="456px" version="1.1" style="shape-rendering:geometricPrecision; text-rendering:geometricPrecision; image-rendering:optimizeQuality; fill-rule:evenodd; clip-rule:evenodd"
viewBox="0 0 177.672 165.729"
 xmlns:xlink="http://www.w3.org/1999/xlink"
 xmlns:xodm="http://www.corel.com/coreldraw/odm/2003">
 <defs>
  <style type="text/css">
   <![CDATA[
    .fil11 {fill:#757AF4}
    .fil0 {fill:#7876FA}
    .fil27 {fill:#7878E8}
    .fil2 {fill:#7878FF}
    .fil12 {fill:#7976FD}
    .fil9 {fill:#7A75F4}
    .fil19 {fill:#7B7BF4}
    .fil23 {fill:#7C7BEC}
    .fil28 {fill:#827CF4}
    .fil29 {fill:#8787E7}
    .fil20 {fill:#8B95F8}
    .fil17 {fill:#BBDBFB}
    .fil25 {fill:#BCD5FD}
    .fil18 {fill:#BEDAFD}
    .fil1 {fill:#BFDDFE}
    .fil14 {fill:#CDE6FD}
    .fil3 {fill:#CEE5FF}
    .fil21 {fill:#F1EEFE}
    .fil24 {fill:#F1F9FD}
    .fil26 {fill:#F4FAFE}
    .fil13 {fill:#F5F8FC}
    .fil22 {fill:#F6F6FD}
    .fil5 {fill:#F6F9FD}
    .fil15 {fill:#F9F9FE}
    .fil7 {fill:#F9FDFD}
    .fil16 {fill:#FAFAFA}
    .fil6 {fill:#FBFBFE}
    .fil10 {fill:#FBFDFD}
    .fil8 {fill:#FDFDFD}
    .fil4 {fill:#FEFEFE}
   ]]>
  </style>
 </defs>
 <g id="Layer_x0020_1">
  <metadata id="CorelCorpID_0Corel-Layer"/>
  <path class="fil0" d="M88.614 150.307c0.924,-0.093 3.259,-0.497 3.901,0.295 0.81,1.614 0.441,6.282 0.58,8.49 1.085,1.007 1.821,1.289 3.139,1.914 -0.484,0.322 -0.17,0.036 -0.876,0.284 -1.992,0.697 -1.145,0.6 -1.77,2.504 -1.581,-0.519 -4.917,-2.403 -5.13,-4.185 -0.229,-1.916 -0.396,-7.683 0.156,-9.302zm46.302 -5.67c-4.506,0.643 -19.512,0.76 -26.003,1.049 -3.173,0.142 -7.314,-0.235 -8.628,1.1l34.429 -1.167 0.573 4.214 -24.557 1.248c1.019,1.277 4.308,0.488 5.817,0.433l18.895 -0.721 1.54 3.63 -42.857 2.62c-0.524,-6.574 0.964,-8.026 -3.775,-7.854 -4.649,0.168 -3.033,2.18 -3.111,8.261l-5.733 0.266 -0.151 -14.24c4.642,-0.08 29.674,-0.545 31.886,-1.273 -0.813,-0.683 -2.415,-0.46 -3.608,-0.4l-12.002 0.351c-4.005,0.138 -12.764,0.796 -16.272,0.322l-0.024 -1.436c1.254,-0.629 49.271,-1.459 54.565,-1.354l-0.984 4.951zm-52.299 -6.869c0.408,-0.91 -1.048,-0.904 3.629,-0.929 1.492,-0.008 2.979,-0.076 4.477,-0.125l26.904 -0.813c5.543,-0.148 32.607,-1.62 35.736,-0.816l0.029 1.353c-3.03,0.683 -56.059,1.431 -66.304,1.77 -0.69,0.022 -1.536,0.089 -2.202,0.088 -0.092,0 -1.011,-0.036 -1.065,-0.046 -0.002,0 0.602,0.915 -1.204,-0.482zm-1.49 -0.927c-0.254,-3.945 -1.229,-9.223 0.144,-12.834 1.069,1.467 1.463,4.026 1.501,6.113l-1.645 6.721zm68.311 -9.935c-4.635,0.253 -32.356,0.287 -33.922,1.046 0.857,0.731 2.735,0.425 3.927,0.391 1.455,-0.041 2.91,-0.07 4.365,-0.107 4.887,-0.123 23.488,-0.637 25.721,-0.289l0.048 2.323 -28.726 0.777c0.652,0.733 -0.312,0.796 3.315,0.652l25.455 -0.499 1.066 2.776c-11.313,0.461 -22.566,0.545 -33.787,0.898 -4.825,0.152 -31.056,1.32 -33.639,0.608 0.509,-1.626 -0.554,-1.065 4.917,-1.275l19.719 -0.728c-0.675,-0.655 -0.063,-0.354 -1.184,-0.582 -0.092,-0.019 -1.279,-0.035 -1.431,-0.03l-21.53 0.581c0.246,-2.27 -0.581,-1.768 5.16,-1.986l5.084 -0.139c1.031,-0.159 -0.279,0.152 0.681,-0.146 0.835,-0.259 0.386,-0.034 0.91,-0.456l-11.555 0.089 -0.142 -2.454c4.258,-0.445 20.111,0.048 22.462,-1.131 -1.627,-0.764 -13.798,0.005 -17.446,0.095 -1.622,0.04 -4.734,0.759 -5.355,-0.823l0.461 -0.263c0.411,-0.134 0.213,-0.136 0.879,-0.229 0.508,-0.071 1.628,-0.052 2.194,-0.063 10.631,-0.192 58.835,-2.018 62.81,-1.626l-0.457 2.59zm-66.437 -2.59c0.19,-1.805 0.876,-1.29 2.977,-1.295l31.286 -0.823c5.884,-0.161 32.126,-1.217 35.647,-0.863l-0.041 1.528c-1.535,0.748 -54.236,1.496 -65.419,1.819l-4.172 -0.228c-0.072,-0.026 -0.193,-0.079 -0.278,-0.138zm8.573 -25.449c1.205,-0.597 33.91,-1.367 40.587,-1.64 2.514,-0.102 4.433,-0.971 4.187,1.479 -6.955,0.755 -15.554,0.463 -22.709,0.734l-20.055 0.676c-2.076,0.028 -1.86,0.381 -2.01,-1.249zm-2.305 -19.885l0.811 17.041c-0.965,-1.042 -1.222,-2.108 -1.648,-3.593 -1.108,-3.858 -1.113,-10.502 0.837,-13.448zm1.455 -1.143c1.001,0.471 0.673,0.105 0.82,1.73l0.331 8.042c0.103,2.032 0.951,8.95 -0.061,10.034 -1.075,-0.797 -0.886,-7.933 -0.963,-9.678 -0.092,-2.093 -0.856,-8.756 -0.127,-10.128zm39.618 1.955l-19.767 0.443c1.327,1.606 16.393,-0.134 18.658,0.327 0.97,0.198 0.5,-0.05 1.009,0.488 -0.717,2.126 -6.1,0.21 -8.438,1.454 1.273,0.773 6.338,0.175 8.249,0.176 -0.032,1.87 0.683,7.431 0.511,8.273l-18.175 0.545c-0.071,0.033 -0.188,0.1 -0.266,0.17l18.816 0.163c0.468,0.668 1.619,3.443 1.847,4.317l-39.422 1.281 0.004 -1.958 22.243 -1.185c-2.475,-0.622 -18.372,0.727 -22.342,0.113l-0.352 -5.869 14.059 -0.446c-0.067,-0.18 -0.186,-0.319 -0.222,-0.247 -0.039,0.073 -0.178,-0.094 -0.233,-0.11 -0.398,-0.107 -0.206,-0.119 -0.874,-0.181l-12.845 0.116 -0.258 -5.923 5.371 -0.398c0.957,-0.31 0.195,0.105 0.803,-0.427l-6.128 -0.016 -0.284 -3.176 38.812 -0.852 -0.776 2.922zm-40.082 20.081c-1.435,-0.026 -1.325,-0.529 -2.219,-1.957 -3.367,-5.382 -4.386,-11.102 -2.536,-17.321l2.043 -4.538c1.073,-1.392 -0.136,-0.61 1.358,-0.888 0.984,2.253 -5.684,7.752 -1.111,19.379 0.71,1.805 2.366,3.809 2.465,5.325zm0.143 -23.298c-0.416,-2.374 0.093,-1.694 4.683,-1.759 9.428,-0.134 34.805,-0.966 40.56,-0.537 -0.083,2.274 -1.478,1.721 -3.834,1.735 -2.067,0.012 -4.131,0.06 -6.198,0.09l-35.211 0.471zm-6.412 4.684c-0.801,3.714 -1.069,6.756 -0.068,10.555 0.697,2.645 2.529,6.475 4.022,7.927l-47.777 0.475c-2.412,0.004 -2.638,0.033 -3.82,-1.507 -3.511,-4.573 -4.711,-10.801 -2.947,-16.445 1.149,-3.677 2.332,-4.604 3.89,-6.985l49.291 -0.179c-1.114,1.924 -1.823,3.62 -2.591,6.159zm-15.595 -14.889c-0.303,3.263 -0.079,4.118 0.227,7.075 -1.875,-0.27 -2.425,-1.241 -2.537,-3.309 -0.124,-2.3 0.353,-3.224 2.31,-3.766zm46.993 1.955c0.081,0.054 0.218,0.011 0.267,0.123 0.171,0.389 2.635,0.244 3.057,0.227l24.763 -0.514c2.186,0.264 0.933,-0.345 1.5,0.891 -0.494,0.956 0.722,0.468 -1.494,0.709l-7.676 0.064c-1.886,0.022 -8.43,-0.223 -9.643,0.318 2.044,1.412 16.042,-0.644 19.14,0.727 -1.149,1.229 -15.422,0.816 -18.215,0.887 -6.412,0.164 -12.879,0.321 -19.262,0.516l-33.099 0.859c-0.724,0.022 -1.949,0.137 -2.588,0.119 -2.446,-0.069 -1.393,0.28 -1.94,-0.927 3.561,-1.435 26.081,-0.21 31.108,-1.454 -0.841,-0.817 -0.735,-0.602 -3.674,-0.471 -4.765,0.211 -26.301,0.988 -27.746,0.607l-0.045 -1.682c3.465,-0.388 16.762,-0.158 18.62,-0.999l-1.706 -0.301c-0.786,-0.012 -1.762,0.06 -2.576,0.081l-14.307 0.337c0.329,-2.927 0.252,-2.022 7.762,-2.108 10.478,-0.119 65.931,-0.897 67.253,-0.19 -0.28,1.916 -1.084,1.192 -6.553,1.331l-19.252 0.443c-0.568,0.012 -1.294,0.002 -1.842,0.037l-1.852 0.37zm-47.847 -5.387c0.324,-0.193 1.104,-0.543 1.482,-0.695 1.013,-0.408 2.176,-0.726 3.427,-0.96 2.126,-0.397 5.215,-0.39 5.363,2.484l-11.567 0.271 1.295 -1.1zm20.072 0.297c-0.387,0.284 -0.048,0.413 -1.57,0.535 -0.515,0.041 -1.542,-0.003 -2.126,0.019 0.778,-0.796 -0.516,-0.016 1.079,-0.868 2.275,-1.216 2.339,-0.047 2.617,0.314zm-25.88 -3.159c-0.405,0.399 -0.53,0.48 -0.611,0.61 0.88,1.792 2.515,0.951 3.102,2.913 -1.829,1.169 -25.11,0.879 -29.127,0.932 -5.878,0.077 -9.342,-1.478 -9.801,4.89 -0.506,7.033 4.164,5.848 9.643,5.705 -2.848,5.979 -7.384,11.992 -1.624,22.239 2.117,3.765 2.456,4.049 4.805,4.694 0.062,0.017 0.187,0.036 0.272,0.078 -1.742,3.091 -3.214,4.726 -3.176,9.451 0.031,3.876 1.399,7.266 3.575,9.587l0.757 0.409c-2.262,0.111 -0.306,0.519 -1.985,0.555 -3.899,0.084 -2.331,0.04 -3.191,1.083 4.769,-0.294 44.558,-0.279 45.576,0.036 -1.377,4.446 -0.06,10.508 0.045,15.068l-1.63 0.048c0.507,1.732 1.155,0.802 -0.727,1.316 -1.961,0.536 -3.58,-1.175 -3.014,3.12 0.407,3.088 0.106,6.823 0.106,10.224 1.944,-1.084 0.283,0.486 0.992,-1.078 -0.486,-3.455 -0.779,-9.778 2.226,-11.181 0.149,0.947 0.317,14.233 -0.041,16.225 -0.158,0.881 -0.038,0.432 -0.271,0.912 -0.996,-0.751 -0.733,-0.834 -1.534,-1.682 -1.187,3.126 -0.804,0.738 -0.209,3.123 -1.327,0.18 -2.578,0.547 -3.786,0.88 1.926,-0.102 4.8,0.43 6.976,0.425 2.401,-0.006 5.188,-0.336 7.642,-0.518l0.369 0.467c1.506,2.178 4.832,4.825 7.628,5.12l0.46 -3.212c1.518,-0.147 2.388,0.124 3.421,-0.466 -0.397,-1.201 -1.886,-1.587 -2.841,-2.446l45.954 -3.063 0.128 -2.314 -3.129 0.104c-2.767,-3.07 -3.124,-10.541 -1.252,-14.563l3.797 -0.12 0.828 -1.665 12.382 -0.578 -0.104 -3.404 -2.569 -0.178c-0.778,-3.745 -1.573,-5.073 -0.595,-9.433 2.814,-0.408 3.895,0.287 2.926,-3.778 -0.093,-0.044 -0.218,-0.08 -0.293,-0.098 -0.075,-0.018 -0.203,-0.068 -0.298,-0.087 -2.487,-0.505 2.071,0.166 -0.644,-0.111l-9.5 0.179 0.047 -2.717c-0.271,1.533 -0.201,1.221 -0.726,2.658 -0.251,-0.121 -1.328,0.688 -0.519,-1.498l0.055 1.484c-6.484,-0.063 -53.827,1.666 -55.328,0.985 0.069,-1.74 1.459,-1.188 3.433,-1.222 1.53,-0.027 3.127,-0.147 4.62,-0.084 -2.744,0.025 -5.663,0.194 -7.888,-0.433 0.683,0.759 0.382,0.015 0.684,-0.483 -1.591,0.211 -0.319,0.126 -0.834,-0.257l-0.311 -15.393c0.004,1.352 0.155,13.246 -0.406,14.588 -0.531,1.271 0.659,-0.269 -0.583,0.964 0.12,-1.461 0.682,-4.844 -0.043,-6.036 0.043,0.967 0.076,1.953 0.107,2.92 0.005,0.175 0.014,1.323 -0.007,1.427 -0.214,1.036 0.152,0.504 -0.555,1.053 0.007,0.127 0.061,0.178 0.068,0.375 0.007,0.184 0.053,0.265 0.059,0.352l-0.026 1.136c0.644,0.485 0.383,0.353 0.177,1.255 -4.121,0.385 -10.002,0.036 -14.325,0.037l-29.072 -0.065c-3.277,-0.146 -5.194,-6.775 -5.236,-9.579 -0.054,-3.548 1.916,-9.528 4.556,-10.034l44.092 -0.354 -0.123 1.525c0.24,-0.632 0.246,-0.149 -0.036,-1.687l1.159 0.364c1.355,-0.666 23.433,-0.958 27.197,-1.104l26.179 -0.871c1.525,0.356 0.559,-0.473 1.127,0.882 -0.678,1.322 -2.422,0.788 -5.856,0.898 -1.624,0.052 -4.589,0.281 -5.982,0.052 5.184,-1.202 13.375,2.056 11.801,-0.586l1.247 -0.459 -0.142 -1.883 -4.097 0.051 -0.643 -2.584 -2.993 -0.131c-3.045,-4.013 -4.3,-14.339 -1.575,-19.118l3.946 -0.266 0.199 -2.539c2.405,-0.001 9.451,0.314 11.221,-0.449 0.977,-3.059 -2.859,-1.507 -1.886,-7.161 1.025,-1.229 2.312,-0.463 1.809,-2.616 -0.367,-0.24 -0.25,-0.213 -0.931,-0.381l-53.162 0.162 4.096 -3.147c-0.788,-0.304 -0.957,0.766 -0.502,-0.911 -1.836,1.176 -5.521,4.298 -8.308,4.113l-0.837 -1.582c1.536,-1.259 7.536,-3.269 10.575,-6.465 -1.382,-0.86 -2.755,0.876 -4.189,1.737 -3.491,2.097 -11.382,5.479 -15.256,5.395 -0.715,-0.771 -1.343,-1.486 -1.711,-2.847 1.018,-0.821 1.516,-1.045 2.183,-2.254l-0.457 -0.484c-1.157,0.25 -0.469,-0.054 -1.509,0.896 -0.614,0.56 -0.27,0.443 -1.11,0.933 -3.1,-1.095 -10.538,-7.698 -13.645,-6.997 1.235,1.358 10.588,6.006 11.862,7.852 -2.664,0.04 -5.319,0.641 -7.584,1.566 -3.92,1.602 -2.862,-0.932 -5.764,-1.401z"/>
  <path class="fil1" d="M100.342 35.636l0.224 1.125c-0.088,-0.148 -1.143,0.193 0.188,-0.36l9.604 -0.059c6.561,0.037 18.747,-1.959 24.993,-4.816 2.286,-1.045 0.789,0.025 4.523,-1.978 0.076,-0.04 0.167,-0.092 0.243,-0.132l4.569 -2.392c0.458,-0.204 0.959,-0.599 1.54,-0.992 0.091,-0.06 0.36,-0.234 0.452,-0.294 2.261,-1.469 1.425,-1.196 2.828,-2.248 0.061,-0.045 0.155,-0.1 0.216,-0.145 0.061,-0.045 0.154,-0.101 0.214,-0.145 0.06,-0.045 0.15,-0.106 0.207,-0.151 0.058,-0.045 0.142,-0.112 0.198,-0.159l2.47 -2.322c0.057,-0.06 0.127,-0.14 0.182,-0.2l7.204 -7.665c0.587,-0.873 0.312,-0.881 0.906,-1.907 -1.964,-2.818 -9.489,-6.328 -14.226,-7.726 -15.737,-4.645 -34.542,-3.393 -50.524,-0.372 -3.425,0.648 -6.019,1.281 -9.446,1.863 -0.463,4.397 1.818,3.699 1.893,6.686 0.089,3.581 -3.064,1.907 -0.5,7.137 2.867,0.609 3.372,-0.105 6.104,1.166 8.497,3.954 4.906,9.394 5.938,16.086z"/>
  <path class="fil1" d="M61.097 12.92c-6.822,1.669 -27.724,12.881 -34.875,18.507 -5.654,4.448 -9.46,7.532 -13.817,12.741 -2.985,3.568 -9.344,13.43 -9.262,17.107 0.756,1.385 5.188,0.404 6.562,0.285 2.51,-0.218 4.36,-0.285 6.834,-0.604 1.679,-0.216 1.202,-0.443 2.932,-0.593 3.168,-0.274 6.326,-0.55 9.517,-1.463 4.925,-1.409 8.774,-2.205 13.82,-4.245 0.806,-0.326 1.909,-0.442 2.933,-0.83 0.56,-0.212 1.816,-0.737 2.509,-1.049l2.939 -1.319c0.504,-2.982 1.838,-5.631 4.482,-6.928 1.361,-0.667 2.05,-0.467 2.62,-1.288 -3.009,-1.431 -5.716,-2.356 -5.353,-4.697 0.238,-1.539 0.462,-0.721 1.709,-1.847 -1.317,-5.603 5.523,-4.707 7.503,-3.804 1.742,0.794 1.59,1.331 3.423,1.883 0.535,-2.729 0.782,-6.055 1.715,-8.762 1.164,-3.382 3.4,-3.495 5.064,-5.677 -0.325,-0.706 -3.382,-6.373 -3.837,-6.888l-3.441 -1.819c-0.891,-0.264 -2.959,0.883 -3.977,1.29z"/>
  <path class="fil1" d="M118.356 54.875c0.26,0.697 0.217,1.032 0.727,1.456 -0.12,-0.729 -0.455,-1.209 -0.73,-1.817 -0.661,0.193 -2.445,0.242 -1.455,1.088l0 -4.364c-0.171,0.397 -0.804,-0.459 0.233,0.81l1.882 1.868c0.603,0.523 0.32,0.79 0.796,0.234 -2.857,0 -0.429,-0.144 -1.453,0.725zm30.417 6.911c1.426,1.406 1.3,1.866 1.204,4.558l0.288 7.998c3.059,0.708 6.395,0.682 9.505,1.228 1.913,0.337 4.602,1.076 6.957,1.108 1.802,0.024 1.834,0.318 2.294,-0.82 -1.257,-2.562 -3.987,-6.513 -5.741,-8.407l-8.792 -9.304c0.591,-1.176 3.173,-3.976 4.378,-5.657 1.384,-1.932 2.931,-3.862 4.18,-6.003 3.13,-5.368 3.889,-7.971 5.896,-14.518 0.204,-1.958 0.598,-6.264 0.046,-7.799 -1.303,1.224 -0.594,0.095 -1.15,1.644 -1.169,3.253 -7.524,10.211 -10.714,11.838l-0.917 0.54c-2.511,1.971 -0.054,0.733 -3.022,1.751 -5.255,1.803 -1.808,1.662 -10.007,2.743 -0.995,0.132 -1.825,0.026 -2.427,0.135l-8.58 0.956c-1.576,0.099 -1.151,0.292 -2.589,0.547l-2.608 0.613c-0.876,0.258 -1.545,0.323 -2.273,0.556l-10.16 5.214 -4.832 5.351c-0.436,0.659 -0.889,1.08 -1.523,1.729 -1.279,1.311 -1.532,2.123 -2.924,3.271l40.731 -0.04c0.26,0.001 1.243,0.04 1.457,0.097l1.004 0.459c0.099,0.051 0.223,0.129 0.319,0.212z"/>
  <path class="fil2" d="M30.919 155.717c-0.799,-7.191 -1.666,-10.342 0.523,-17.57l2.079 0.106c-1.306,8.051 -1.231,9.183 -0.314,17.453l-2.288 0.011zm41.187 4.518c1.208,-0.333 2.459,-0.7 3.786,-0.88 -0.595,-2.385 -0.978,0.003 0.209,-3.123l-0.38 -4.274c-0.709,1.564 0.952,-0.006 -0.992,1.078 0,-3.401 0.301,-7.136 -0.106,-10.224 -0.566,-4.295 1.053,-2.584 3.014,-3.12 1.882,-0.514 1.234,0.416 0.727,-1.316l-43.923 -1.7c0.005,-2.61 -0.607,-11.542 0.292,-13.075 0.84,-0.656 -0.167,-0.203 1.11,-0.455l4.345 -0.036c11.513,0.004 29.741,-0.286 39.761,0.15 -1.018,-0.315 -40.807,-0.33 -45.576,-0.036 0.86,-1.043 -0.708,-0.999 3.191,-1.083 1.679,-0.036 -0.277,-0.444 1.985,-0.555l-0.757 -0.409c-1.441,0.779 -4.826,0.053 -5.511,0.609 -1.111,1.96 -0.223,11.768 -0.459,14.822 -4.5,0.103 -10.317,-2.874 -10.684,10.236 -0.077,2.777 0.272,6.809 1.674,8.757 1.265,1.756 6.242,1.387 8.924,1.588 12.86,0.963 26.708,1.556 39.37,3.046z"/>
  <path class="fil3" d="M100.342 35.636c-0.487,0.743 -1.094,7.131 -1.206,8.036 9,2.823 8.609,10.243 2.231,16.785 -0.651,0.668 -0.642,0.015 -0.575,1.017 7.325,0.423 16.25,0.09 23.743,0.069 5.299,-0.015 20.013,-0.823 24.238,0.243 -0.096,-0.083 -0.22,-0.161 -0.319,-0.212l-1.004 -0.459c-0.214,-0.057 -1.197,-0.096 -1.457,-0.097l-40.731 0.04c1.392,-1.148 1.645,-1.96 2.924,-3.271 0.634,-0.649 1.087,-1.07 1.523,-1.729l4.832 -5.351 10.16 -5.214c0.728,-0.233 1.397,-0.298 2.273,-0.556l2.608 -0.613c1.438,-0.255 1.013,-0.448 2.589,-0.547l8.58 -0.956c0.602,-0.109 1.432,-0.003 2.427,-0.135 8.199,-1.081 4.752,-0.94 10.007,-2.743 2.968,-1.018 0.511,0.22 3.022,-1.751l0.917 -0.54c3.19,-1.627 9.545,-8.585 10.714,-11.838 0.556,-1.549 -0.153,-0.42 1.15,-1.644 -0.506,-5.257 -4.813,-12.028 -7.885,-13.374 -0.594,1.026 -0.319,1.034 -0.906,1.907l-7.204 7.665c-0.055,0.06 -0.125,0.14 -0.182,0.2l-2.47 2.322c-0.056,0.047 -0.14,0.114 -0.198,0.159 -0.057,0.045 -0.147,0.106 -0.207,0.151 -0.06,0.044 -0.153,0.1 -0.214,0.145 -0.061,0.045 -0.155,0.1 -0.216,0.145 -1.403,1.052 -0.567,0.779 -2.828,2.248 -0.092,0.06 -0.361,0.234 -0.452,0.294 -0.581,0.393 -1.082,0.788 -1.54,0.992l-4.569 2.392c-0.076,0.04 -0.167,0.092 -0.243,0.132 -3.734,2.003 -2.237,0.933 -4.523,1.978 -6.246,2.857 -18.432,4.853 -24.993,4.816l-9.604 0.059c-1.331,0.553 -0.276,0.212 -0.188,0.36l-0.224 -1.125z"/>
  <path class="fil3" d="M133.363 87.234c0.199,1.407 0.961,5.733 1.687,6.565 1.719,1.97 2.629,-1.516 4.746,3.202 3.637,0.035 4.436,0.703 3.966,4.752 -0.511,4.413 -3.564,0.772 -4.666,3.694 -0.589,1.565 -0.388,6.143 0.097,7.837 1.052,3.666 2.145,2.592 5.573,3.005l3.533 -1.657c1.588,-0.509 2.793,-1.156 4.268,-1.503 4.811,-1.13 6.651,-1.684 11.806,-0.008l4.096 1.812c2.263,1.457 3.297,3.087 4.32,4.41 1.151,1.487 2.023,0.456 2.49,3.142 2.45,-2.577 3.616,-24.614 0.554,-29.918 -0.574,-0.636 -8.011,-3.478 -8.879,-3.755 -6.601,-2.102 -15.808,-3.382 -22.68,-2.414 -1.548,0.218 -9.369,1.399 -10.155,2.197l-0.756 -1.361z"/>
  <path class="fil4" d="M87.945 99.743c-1.493,-1.452 -3.325,-5.282 -4.022,-7.927 -1.001,-3.799 -0.733,-6.841 0.068,-10.555l-1.001 0.089c-0.803,-2.583 0.193,-0.747 -1.288,-1.387 -0.577,0.644 -1.384,0.364 -2.612,0.364 -1.154,-1.962 1.465,-1.228 -1.426,-1.458l-0.195 -2.551 -2.982 0.732 -0.122 1.822c-1.239,0.179 -1.943,0.491 -4.068,0.342 -0.059,-0.004 -0.17,-0.001 -0.221,-0.013 -0.895,-0.215 -0.59,-0.31 -0.836,-2.645 -3.244,-0.248 -5.592,0.111 -8.625,-0.031 0.074,0.217 0.361,0.734 0.384,0.817 0.436,1.53 0.351,-0.983 0.013,0.491 -0.015,0.067 -0.463,1.036 -0.464,1.039 -1.047,-0.185 0.036,0.131 -0.636,-0.415 -0.043,-0.035 -0.129,-0.109 -0.174,-0.148l-1.067 -1.152c-0.979,-1.218 -4.072,-0.514 -5.855,-0.534l-0.067 2.268 -2.085 -0.019c-0.144,-1.231 0.083,-1.42 -0.66,-2.293l-2.181 -0.071 -0.556 1.254c-0.109,0.39 -0.063,0.767 -0.104,1.11 -10.095,0 -7.059,0.442 -7.636,-2.183 -0.955,-0.424 -1.518,-0.46 -2.191,0.634 -2.644,4.3 -1.187,4.517 -0.844,5.38 0.161,0.402 0.544,0.498 0.073,1.342 -0.421,0.754 -1.123,0.988 -1.465,1.368 1.183,-0.008 2.422,0.286 2.909,-0.36 -0.659,0 -1.546,-0.048 -2.176,0.104 -1.371,0.33 -0.142,-0.051 -0.97,0.362 -1.083,0.54 -0.155,0.069 -0.854,0.623 0.184,3.956 0.669,0.411 1.147,2.991 0.282,1.52 -0.349,1.262 0.087,2.488 0.279,0.784 0.2,1.063 2.765,1.063l0.001 2.545c1.546,0.104 2.045,0.364 3.997,0.364 0.019,2.867 -0.329,1.323 1.058,1.779 0.426,0.141 1.078,0.089 1.451,-0.135 0.94,-0.564 0.54,0.098 0.761,-1.28l2.183 -0.001c0.014,2.184 -0.309,0.968 1.098,1.591 0.662,0.293 2.752,0.45 3.662,0.068 1.566,-0.656 0.422,0.06 1.051,-1.037l0.732 -2.075 1.456 -0.001 -0.19 0.932c-0.007,0.036 -0.03,0.147 -0.036,0.182 -0.005,0.032 -0.023,0.137 -0.027,0.167l0.255 1.264c0.717,0.978 -0.157,0.288 1.063,0.645l4.025 0.082c0.75,-0.905 0.725,1.357 0.725,-1.817l2.185 -0.001 0 1.821c-0.985,0.002 -0.025,-0.32 -2.249,-0.363 0.071,0.115 0.165,0.248 0.23,0.334l0.894 0.987c-0.834,0.001 -0.883,-0.125 -1.763,0.186 -1.106,0.391 -0.458,-0.154 -0.865,0.671l28.24 0.151z"/>
  <path class="fil1" d="M85.239 120.315c-1.368,-2.809 -3.001,-4.581 -3.091,-8.719 -0.076,-3.502 1.31,-6.515 3.16,-8.496l0.123 -1.525 -44.092 0.354c-2.64,0.506 -4.61,6.486 -4.556,10.034 0.042,2.804 1.959,9.433 5.236,9.579l29.072 0.065c4.323,-0.001 10.204,0.348 14.325,-0.037 0.206,-0.902 0.467,-0.77 -0.177,-1.255z"/>
  <path class="fil3" d="M3.143 61.275l-1.116 4.566c-0.193,1.677 -0.182,3.704 0.017,5.386 0.357,3.023 2.008,5.814 3.35,7.547 4.968,6.419 10.335,7.064 12.711,8.822 -0.763,1.326 -2.136,2.12 -2.698,2.853 -0.614,0.801 -0.198,0.024 -0.634,1.145 2.162,-1.008 6.645,1.138 13.418,1.255 0.77,0.852 1.011,0.55 1.431,0.902 -2.595,-7.902 1.197,-14.499 1.589,-16.871 -4.549,0.155 -6.905,1.029 -7.491,-6.366 -0.372,-4.69 1.556,-7.861 6.646,-7.859 4.475,0.002 24.728,0.333 27.527,-0.508 -0.752,-3.003 -6.753,-4.014 -6.704,-10.69l-2.939 1.319c-0.693,0.312 -1.949,0.837 -2.509,1.049 -1.024,0.388 -2.127,0.504 -2.933,0.83 -5.046,2.04 -8.895,2.836 -13.82,4.245 -3.191,0.913 -6.349,1.189 -9.517,1.463 -1.73,0.15 -1.253,0.377 -2.932,0.593 -2.474,0.319 -4.324,0.386 -6.834,0.604 -1.374,0.119 -5.806,1.1 -6.562,-0.285z"/>
  <path class="fil1" d="M144.766 116.289c0.474,2.83 0.597,2.578 3.752,2.391 1.747,-0.103 4.509,-0.212 6.193,-0.024 1.709,0.789 1.783,4.294 1.191,5.792 -0.393,0.994 -0.605,0.873 -1.073,1.038 -2.042,0.718 -2.33,-0.478 -2.369,2.433 -0.086,6.476 2.543,3.737 3.567,5.564 0.281,1.732 0.273,3.711 -0.193,5.09 -1.886,1.225 -6.378,0.778 -9.135,0.795 -2.15,0.012 -2.433,-0.413 -3.506,0.978 -1.454,1.884 -1.52,0.547 -3.652,1.196 -1.921,0.584 -1.42,5.913 -0.889,8.029 1.468,5.84 4.288,0.81 5.152,4.556 0.099,1.263 -0.092,0.931 0.364,1.983 3.324,0.165 4.007,-0.435 6.302,-1.856 7.782,-4.817 15.577,-12.313 20.077,-20.306 1.248,-2.218 4.588,-8.834 4.732,-11.463 -0.467,-2.686 -1.339,-1.655 -2.49,-3.142 -1.023,-1.323 -2.057,-2.953 -4.32,-4.41l-4.096 -1.812c-5.155,-1.676 -6.995,-1.122 -11.806,0.008 -1.475,0.347 -2.68,0.994 -4.268,1.503l-3.533 1.657z"/>
  <path class="fil5" d="M103.155 154.128c1.573,-0.436 15.743,-0.844 19.188,-0.949l5.13 -0.286c1.628,0.103 0.668,-0.126 1.322,0.508 -1.418,0.908 -9.955,0.769 -12.257,0.848l-10.183 0.491c-0.358,0.022 -1.565,0.113 -1.85,0.077 -2.246,-0.279 -0.982,-0.246 -1.35,-0.689zm-21.007 -4.362c0.496,-0.979 3.146,-0.585 4.299,-0.448 -0.176,0.721 -0.386,0.561 -1.513,0.629 -0.97,0.059 -1.995,0.171 -2.786,-0.181zm53.752 -10.08c-5.294,-0.105 -53.311,0.725 -54.565,1.354l0.024 1.436c3.508,0.474 12.267,-0.184 16.272,-0.322l12.002 -0.351c1.193,-0.06 2.795,-0.283 3.608,0.4 -2.212,0.728 -27.244,1.193 -31.886,1.273l0.151 14.24 5.733 -0.266c0.078,-6.081 -1.538,-8.093 3.111,-8.261 4.739,-0.172 3.251,1.28 3.775,7.854l42.857 -2.62 -1.54 -3.63 -18.895 0.721c-1.509,0.055 -4.798,0.844 -5.817,-0.433l24.557 -1.248 -0.573 -4.214 -34.429 1.167c1.314,-1.335 5.455,-0.958 8.628,-1.1 6.491,-0.289 21.497,-0.406 26.003,-1.049l0.984 -4.951z"/>
  <path class="fil4" d="M78.364 138.376l1.63 -0.048c-0.105,-4.56 -1.422,-10.622 -0.045,-15.068 -10.02,-0.436 -28.248,-0.146 -39.761,-0.15l-4.345 0.036c-1.277,0.252 -0.27,-0.201 -1.11,0.455 -0.899,1.533 -0.287,10.465 -0.292,13.075l43.923 1.7z"/>
  <path class="fil6" d="M97.607 116.318c0.725,-0.921 2.733,-0.563 4.023,-0.598l15.164 -0.372c-1.26,0.999 -2.753,0.728 -4.905,0.784 -3.157,0.081 -12.793,0.854 -14.282,0.186zm-8.94 -11.998c0.512,1.359 4.425,0.668 7.51,0.584 3.968,-0.109 23.885,-0.804 24.97,-0.22 -2.067,1.21 -28.969,0.473 -32.383,1.454 0.045,1.284 -0.363,0.931 1.186,1.076l12.407 -0.326c1.236,-0.039 3.378,-0.307 4.515,0.09l-18.014 1.089 -0.075 5.389 31.284 -0.796c1.051,0.305 0.14,-0.198 0.692,0.386 -1.351,0.601 -27.915,1.087 -31.944,1.268l0.002 4.766 48.936 -1.301 -1.608 -4.98 -6.414 0.059c1.511,-1.283 3.261,-0.392 6.325,-0.959l-0.101 -1.587c-2.064,-0.592 -9.835,-0.103 -12.511,-0.05l-9.835 0.158c-0.215,0.003 -1.306,0.003 -1.453,-0.021 -1.081,-0.179 0.33,0.201 -0.606,-0.155 -0.982,-0.373 -0.209,0.134 -0.682,-0.47 2.528,-0.457 9.243,-0.199 12.213,-0.23 2.796,-0.03 10.597,0.189 12.804,-0.381l1.043 -6.598c-8.049,0.171 -16.23,0.386 -24.379,0.595l-18.19 0.443c-1.413,0.037 -5.099,-0.462 -5.692,0.717z"/>
  <path class="fil6" d="M104.806 90.212c0.492,2.862 -0.451,2.561 -5.74,2.553 -0.28,0 -0.804,0.003 -1.065,-0.04 -1.266,-0.21 -0.482,-0.105 -0.889,-0.311 -0.746,-2.359 0.095,-2.269 2.32,-2.299 1.781,-0.024 3.642,-0.28 5.374,0.097zm5.361 -4.243c1.931,-0.212 6.546,-0.473 8.392,-0.018l0.334 1.992c-1.764,0.905 -6.616,0.763 -8.568,0.428l-0.158 -2.402zm-9.982 -6.342c2.094,-0.399 6.677,-0.528 8.745,-0.18l0.028 2.318c-2.213,0.278 -6.796,0.656 -8.693,-0.009l-0.08 -2.129zm30.933 -2.755l-38.812 0.852 0.284 3.176 6.128 0.016c-0.608,0.532 0.154,0.117 -0.803,0.427l-5.371 0.398 0.258 5.923 12.845 -0.116c0.668,0.062 0.476,0.074 0.874,0.181 0.055,0.016 0.194,0.183 0.233,0.11 0.036,-0.072 0.155,0.067 0.222,0.247l-14.059 0.446 0.352 5.869c3.97,0.614 19.867,-0.735 22.342,-0.113l-22.243 1.185 -0.004 1.958 39.422 -1.281c-0.228,-0.874 -1.379,-3.649 -1.847,-4.317l-18.816 -0.163c0.078,-0.07 0.195,-0.137 0.266,-0.17l18.175 -0.545c0.172,-0.842 -0.543,-6.403 -0.511,-8.273 -1.911,-0.001 -6.976,0.597 -8.249,-0.176 2.338,-1.244 7.721,0.672 8.438,-1.454 -0.509,-0.538 -0.039,-0.29 -1.009,-0.488 -2.265,-0.461 -17.331,1.279 -18.658,-0.327l19.767 -0.443 0.776 -2.922z"/>
  <path class="fil7" d="M149.895 124.316c-3.975,-0.392 -52.179,1.434 -62.81,1.626 -0.566,0.011 -1.686,-0.008 -2.194,0.063 -0.666,0.093 -0.468,0.095 -0.879,0.229l-0.461 0.263c0.621,1.582 3.733,0.863 5.355,0.823 3.648,-0.09 15.819,-0.859 17.446,-0.095 -2.351,1.179 -18.204,0.686 -22.462,1.131l0.142 2.454 11.555 -0.089c-0.524,0.422 -0.075,0.197 -0.91,0.456 -0.96,0.298 0.35,-0.013 -0.681,0.146l-5.084 0.139c-5.741,0.218 -4.914,-0.284 -5.16,1.986l21.53 -0.581c0.152,-0.005 1.339,0.011 1.431,0.03 1.121,0.228 0.509,-0.073 1.184,0.582l-19.719 0.728c-5.471,0.21 -4.408,-0.351 -4.917,1.275 2.583,0.712 28.814,-0.456 33.639,-0.608 11.221,-0.353 22.474,-0.437 33.787,-0.898l-1.066 -2.776 -25.455 0.499c-3.627,0.144 -2.663,0.081 -3.315,-0.652l28.726 -0.777 -0.048 -2.323c-2.233,-0.348 -20.834,0.166 -25.721,0.289 -1.455,0.037 -2.91,0.066 -4.365,0.107 -1.192,0.034 -3.07,0.34 -3.927,-0.391 1.566,-0.759 29.287,-0.793 33.922,-1.046l0.457 -2.59z"/>
  <path class="fil8" d="M69.639 28.333c-0.907,1.744 -1.365,6.804 -1.547,9.19 1.685,-1.011 2.841,-1.96 4.305,-3.135 0.035,-0.74 -0.062,-1.423 -0.022,-2.07l0.534 -1.818c0.328,0.483 0.069,-0.136 0.332,0.821l0.264 1.95c1.813,-0.088 1.156,-0.258 2.572,1.342l7.012 6.811c3.911,0.226 4.541,-0.832 5.37,-4.07 0.581,-2.27 0.522,-5.919 1.901,-7.575 1.077,1.462 -1.175,10.04 -2.009,11.084 -1.553,1.943 -7.676,2.034 -10.816,2.634 -1.003,1.338 -1.281,2.82 -0.875,4.763l5.703 0.023c10.396,-0.505 12.145,-2.495 14.075,-12.026 2.171,-10.717 0.698,-13.684 -9.714,-15.008 -0.641,0.142 -5.384,6.593 -8.687,0.965 -1.646,0.324 -3.58,1.076 -5.03,1.867 -2.127,1.159 -2.651,1.689 -3.368,4.252z"/>
  <path class="fil1" d="M2.009 112.661c-0.908,1.681 -1.567,6.233 -1.795,8.385l-0.214 6.725 1.371 0.002c0.542,-1.702 3.481,-3.534 5.151,-4.436 1.027,-0.555 0.201,-0.183 1.527,-0.677 0.042,-0.015 0.76,-0.278 0.779,-0.286 4.373,-1.95 9.341,-2.332 13.909,-2.343 1.576,-0.004 3.155,0.002 4.732,-0.004 2.414,-0.009 2.673,0.257 4.32,-0.201l3.147 -0.062c-0.012,-1.962 -1.777,-4.173 -1.72,-8.18 0.053,-3.734 1.624,-5.971 1.902,-8.356 -1.496,-0.145 -2.429,0.557 -3.978,1.155l-10.327 3.177c-1.384,0.529 0.502,0.281 -1.731,0.624l-13.355 2.702c-3.455,0.788 -2.092,-0.481 -3.718,1.775z"/>
  <path class="fil5" d="M117.241 67.957c0.548,-0.035 1.274,-0.025 1.842,-0.037l19.252 -0.443c5.469,-0.139 6.273,0.585 6.553,-1.331 -1.322,-0.707 -56.775,0.071 -67.253,0.19 -7.51,0.086 -7.433,-0.819 -7.762,2.108l14.307 -0.337c0.814,-0.021 1.79,-0.093 2.576,-0.081l1.706 0.301c-1.858,0.841 -15.155,0.611 -18.62,0.999l0.045 1.682c1.445,0.381 22.981,-0.396 27.746,-0.607 2.939,-0.131 2.833,-0.346 3.674,0.471 -5.027,1.244 -27.547,0.019 -31.108,1.454 0.547,1.207 -0.506,0.858 1.94,0.927 0.639,0.018 1.864,-0.097 2.588,-0.119l33.099 -0.859c6.383,-0.195 12.85,-0.352 19.262,-0.516 2.793,-0.071 17.066,0.342 18.215,-0.887 -3.098,-1.371 -17.096,0.685 -19.14,-0.727 1.213,-0.541 7.757,-0.296 9.643,-0.318l7.676 -0.064c2.216,-0.241 1,0.247 1.494,-0.709 -0.567,-1.236 0.686,-0.627 -1.5,-0.891l-24.763 0.514c-0.422,0.017 -2.886,0.162 -3.057,-0.227 -0.049,-0.112 -0.186,-0.069 -0.267,-0.123l1.852 -0.37z"/>
  <path class="fil3" d="M0 127.771c0.727,2.524 0.743,5.148 1.675,7.803 0.793,2.256 1.978,4.937 3.015,6.483 0.05,-1.193 -0.215,-1.176 1.778,-2.412 0.07,-0.044 0.158,-0.102 0.23,-0.144 2.453,-1.428 4.16,-3.559 5.88,-4.274l3.184 -1.567c2.355,-1.251 9.619,-3.047 12.853,-3.415 2.044,-0.234 1.384,0.035 1.759,-0.496l0.213 4.683 -4.484 0.478 4.8 -0.239c0.407,-4.46 -1.127,-11.464 0.886,-14.845 -1.647,0.458 -1.906,0.192 -4.32,0.201 -1.577,0.006 -3.156,0 -4.732,0.004 -4.568,0.011 -9.536,0.393 -13.909,2.343 -0.019,0.008 -0.737,0.271 -0.779,0.286 -1.326,0.494 -0.5,0.122 -1.527,0.677 -1.67,0.902 -4.609,2.734 -5.151,4.436l-1.371 -0.002z"/>
  <path class="fil1" d="M133.363 87.234l0.756 1.361c0.786,-0.798 8.607,-1.979 10.155,-2.197 6.872,-0.968 16.079,0.312 22.68,2.414 0.868,0.277 8.305,3.119 8.879,3.755 -0.246,-3.061 -3.224,-10.046 -4.554,-12.655 -1.374,-0.011 -2.03,-0.091 -3.835,-0.177 -1.802,-0.086 -2.208,-0.355 -3.993,-0.425 -2.934,-0.114 -5.835,-0.096 -8.756,-0.164 -2.655,-0.062 -2.526,-0.74 -8.346,-0.571 -2.807,0.082 -6.154,0.06 -8.947,-0.108 -3.315,-0.118 -3.448,-0.413 -3.854,2.715 -0.263,2.021 -0.409,4.046 -0.185,6.052z"/>
  <path class="fil1" d="M4.69 142.057c2.712,4.429 7.197,8.797 11.216,11.634 2.109,1.488 2.592,2.02 5.755,2.049l-0.559 -1.977c-0.504,-4.027 -0.883,-7.196 -0.029,-11.458 0.631,-3.146 1.829,-7.045 5.03,-7.395l4.484 -0.478 -0.213 -4.683c-0.375,0.531 0.285,0.262 -1.759,0.496 -3.234,0.368 -10.498,2.164 -12.853,3.415l-3.184 1.567c-1.72,0.715 -3.427,2.846 -5.88,4.274 -0.072,0.042 -0.16,0.1 -0.23,0.144 -1.993,1.236 -1.728,1.219 -1.778,2.412z"/>
  <path class="fil9" d="M58.181 35.057c0.413,-0.348 0.369,-0.95 2.146,-0.365 1.539,0.506 3.127,1.315 3.399,2.906 -1.064,-0.681 -4.226,-2.188 -5.545,-2.541zm21.623 -13.252c3.311,-2.038 2.006,-0.468 4.974,-5.02l0.553 4.399c-0.693,0.423 -3.831,4.339 -6.024,0.971l0.497 -0.35zm4.377 -12.027c1.484,0.803 1.605,1.092 0.628,2.788 -1.343,2.33 -0.325,0.179 -1.021,3.053 -1.914,7.917 -9.587,5.981 -11.808,-1.716 1.438,-0.386 1.914,-0.29 2.326,-1.632 -1.357,-0.348 -1.454,-0.007 -2.932,0.511l-0.679 -1.269c-0.681,-0.331 -0.233,-0.148 -0.591,-0.302 -0.95,-0.411 1.121,0.302 -0.541,-0.169 0.524,2.276 1.691,4.048 2.783,5.855 0.611,1.011 0.767,1.311 1.68,2.324 0.826,0.918 1.451,1.276 2.131,2.206 -4.323,2.363 -5.831,1.099 -7.525,6.61l1.007 0.296c0.717,-2.563 1.241,-3.093 3.368,-4.252 1.45,-0.791 3.384,-1.543 5.03,-1.867 3.303,5.628 8.046,-0.823 8.687,-0.965 10.412,1.324 11.885,4.291 9.714,15.008 -1.93,9.531 -3.679,11.521 -14.075,12.026 -1.671,0.617 -3.499,0.989 -5.422,0.384l-0.201 0.73c4.764,-0.334 8.091,0.36 12.868,-1.05 5.453,-1.61 4.737,-3.167 6.839,-7.589l-0.33 5.295c-2.135,0.85 -5.563,2.86 -7.069,3.876 -2.269,1.529 -4.609,3.395 -6.686,4.553 -0.146,-0.076 -5.204,-4.03 -5.713,-5.032 -1.367,0.886 0.569,0.314 -3.332,-0.215 -0.953,-0.13 0.043,1.24 -0.659,-0.109 -0.062,-0.119 -0.228,-0.013 -0.324,-0.068 1.643,-0.004 1.798,0.425 2.403,-0.974l-2.928 -0.186c-3.341,-0.14 -4.45,-0.393 -6.755,-2.019l2.253 0.19c-1.515,-1.078 -4.666,-1.849 -5.169,-3.422l1.234 0.212c-0.656,-2.21 -1.006,-0.805 1.121,-2.249l0.779 -0.664 -1.089 0.433c-1.448,-0.534 -4.677,-3.282 -5.805,-4.402 2.315,0.717 4.871,2.312 7.065,3.442 0.828,0.275 0.617,0.333 0.291,-0.467 -2.048,-1.576 -0.782,-2.555 -3.883,-4.29 -2.109,-1.181 -4.543,-0.714 -6.019,0.257 1.24,1.229 0.909,1.343 1.354,3.518 -0.824,0.634 -1.272,-0.056 -2.4,0.442 1.375,1.583 4.13,1.509 5.689,3.017 1.009,0.976 0.234,1.167 1.773,2.553 1.153,1.037 0.952,0.722 1.767,2.267 -1.957,-0.392 -4.573,-1.342 -6.665,-0.515 -1.491,0.589 -3.849,2.756 -4.182,4.703 -0.687,4.021 5.423,8.739 7.955,9.784 0.081,-0.13 0.206,-0.211 0.611,-0.61 -0.415,-0.56 0.013,-0.165 -0.78,-0.88 -0.5,-0.45 -0.538,-0.401 -1.058,-0.773 -3.674,-2.629 -7.723,-5.939 -3.643,-10.026 3.153,-3.159 8.651,-0.201 15.901,1.783 4.574,1.252 6.966,2.216 8.955,5.134l-1.625 1.913 0.457 0.484c2.507,-0.875 8.526,-7.119 15.75,-10.245 3.885,-1.682 7.665,0 7.486,4.493 -0.15,3.775 -3.698,5.925 -5.693,7.655 -0.455,1.677 -0.286,0.607 0.502,0.911 2.433,-1.754 5.81,-4.666 6.182,-7.858 0.462,-3.967 -1.533,-7.416 -6.763,-7.105 0.358,-4.04 1.564,-15.183 0.824,-18.57 -0.574,-2.626 -1.988,-4.253 -4.238,-5.192 -2.596,-1.084 -5.451,-1.121 -7.751,-2.021 -0.356,-1.717 -1.352,-4.194 -0.773,-5.753 0.783,-2.112 2.234,-1.416 -0.145,-5.687l-1.141 1.437z"/>
  <path class="fil10" d="M87.945 99.743l-28.24 -0.151c0.407,-0.825 -0.241,-0.28 0.865,-0.671 0.88,-0.311 0.929,-0.185 1.763,-0.186l-0.894 -0.987c-0.065,-0.086 -0.159,-0.219 -0.23,-0.334 2.224,0.043 1.264,0.365 2.249,0.363l0 -1.821 -2.185 0.001c0,3.174 0.025,0.912 -0.725,1.817l-4.025 -0.082c-1.22,-0.357 -0.346,0.333 -1.063,-0.645l-0.255 -1.264c0.004,-0.03 0.022,-0.135 0.027,-0.167 0.006,-0.035 0.029,-0.146 0.036,-0.182l0.19 -0.932 -1.456 0.001 -0.732 2.075c-0.629,1.097 0.515,0.381 -1.051,1.037 -0.91,0.382 -3,0.225 -3.662,-0.068 -1.407,-0.623 -1.084,0.593 -1.098,-1.591l-2.183 0.001c-0.221,1.378 0.179,0.716 -0.761,1.28 -0.373,0.224 -1.025,0.276 -1.451,0.135 -1.387,-0.456 -1.039,1.088 -1.058,-1.779 -1.952,0 -2.451,-0.26 -3.997,-0.364l-0.001 -2.545c-2.565,0 -2.486,-0.279 -2.765,-1.063 -0.436,-1.226 0.195,-0.968 -0.087,-2.488 -0.478,-2.58 -0.963,0.965 -1.147,-2.991 0.699,-0.554 -0.229,-0.083 0.854,-0.623 0.828,-0.413 -0.401,-0.032 0.97,-0.362 0.63,-0.152 1.517,-0.104 2.176,-0.104 -0.487,0.646 -1.726,0.352 -2.909,0.36 0.342,-0.38 1.044,-0.614 1.465,-1.368 0.471,-0.844 0.088,-0.94 -0.073,-1.342 -0.343,-0.863 -1.8,-1.08 0.844,-5.38 0.673,-1.094 1.236,-1.058 2.191,-0.634 0.577,2.625 -2.459,2.183 7.636,2.183 0.041,-0.343 -0.005,-0.72 0.104,-1.11l0.556 -1.254 2.181 0.071c0.743,0.873 0.516,1.062 0.66,2.293l2.085 0.019 0.067 -2.268c1.783,0.02 4.876,-0.684 5.855,0.534l1.067 1.152c0.045,0.039 0.131,0.113 0.174,0.148 0.672,0.546 -0.411,0.23 0.636,0.415 0.001,-0.003 0.449,-0.972 0.464,-1.039 0.338,-1.474 0.423,1.039 -0.013,-0.491 -0.023,-0.083 -0.31,-0.6 -0.384,-0.817 3.033,0.142 5.381,-0.217 8.625,0.031 0.246,2.335 -0.059,2.43 0.836,2.645 0.051,0.012 0.162,0.009 0.221,0.013 2.125,0.149 2.829,-0.163 4.068,-0.342l0.122 -1.822 2.982 -0.732 0.195 2.551c2.891,0.23 0.272,-0.504 1.426,1.458 1.228,0 2.035,0.28 2.612,-0.364 1.481,0.64 0.485,-1.196 1.288,1.387l1.001 -0.089c0.768,-2.539 1.477,-4.235 2.591,-6.159l-49.291 0.179c-1.558,2.381 -2.741,3.308 -3.89,6.985 -1.764,5.644 -0.564,11.872 2.947,16.445 1.182,1.54 1.408,1.511 3.82,1.507l47.777 -0.475z"/>
  <path class="fil11" d="M88.667 104.32c0.593,-1.179 4.279,-0.68 5.692,-0.717l18.19 -0.443c8.149,-0.209 16.33,-0.424 24.379,-0.595l-1.043 6.598c-2.207,0.57 -10.008,0.351 -12.804,0.381 -2.97,0.031 -9.685,-0.227 -12.213,0.23 0.473,0.604 -0.3,0.097 0.682,0.47 0.936,0.356 -0.475,-0.024 0.606,0.155 0.147,0.024 1.238,0.024 1.453,0.021l9.835 -0.158c2.676,-0.053 10.447,-0.542 12.511,0.05l0.101 1.587c-3.064,0.567 -4.814,-0.324 -6.325,0.959l6.414 -0.059 1.608 4.98 -48.936 1.301 -0.002 -4.766c4.029,-0.181 30.593,-0.667 31.944,-1.268 -0.552,-0.584 0.359,-0.081 -0.692,-0.386l-31.284 0.796 0.075 -5.389 18.014 -1.089c-1.137,-0.397 -3.279,-0.129 -4.515,-0.09l-12.407 0.326c-1.549,-0.145 -1.141,0.208 -1.186,-1.076 3.414,-0.981 30.316,-0.244 32.383,-1.454 -1.085,-0.584 -21.002,0.111 -24.97,0.22 -3.085,0.084 -6.998,0.775 -7.51,-0.584zm40.429 -2.686c-6.811,0.715 -15.03,0.475 -22.026,0.692l-18.934 0.483c-1.58,-0.058 -1.535,0.315 -1.705,-1.032l-1.159 -0.364c0.282,1.538 0.276,1.055 0.036,1.687 -1.85,1.981 -3.236,4.994 -3.16,8.496 0.09,4.138 1.723,5.91 3.091,8.719l0.026 -1.136c-0.006,-0.087 -0.052,-0.168 -0.059,-0.352 -0.007,-0.197 -0.061,-0.248 -0.068,-0.375 -0.406,-2.205 -1.774,-3.337 -1.805,-6.855 -0.019,-2.084 0.559,-5.485 2.131,-6.483l0.129 7.938c0.725,1.192 0.163,4.575 0.043,6.036 1.242,-1.233 0.052,0.307 0.583,-0.964 0.561,-1.342 0.41,-13.236 0.406,-14.588l1.065 0.212 0.08 15.438c-0.302,0.498 -0.001,1.242 -0.684,0.483 2.225,0.627 5.144,0.458 7.888,0.433 7.76,-0.395 15.632,-0.504 23.369,-0.673 3.86,-0.085 7.784,-0.207 11.631,-0.334 3.507,-0.116 8.993,-0.712 12.22,-0.156 -0.809,2.186 0.268,1.377 0.519,1.498 0.525,-1.437 0.455,-1.125 0.726,-2.658l-3.998 -0.12c-2.816,-3.193 -2.933,-11.2 -1.043,-15.045l3.747 -0.317 -0.001 -1.708 -1.247 0.459c1.574,2.642 -6.617,-0.616 -11.801,0.586z"/>
  <path class="fil1" d="M5.284 105.01l-0.64 1.701c1.046,-0.001 3.196,-0.252 4.162,-0.437l23.838 -5.979c-1.224,-2.048 -2.256,-3.845 -3.022,-6.544 -0.42,-0.352 -0.661,-0.05 -1.431,-0.902 -6.773,-0.117 -11.256,-2.263 -13.418,-1.255 -0.957,0.131 -1.959,1.607 -2.979,2.871 -1.459,1.81 -6.738,8.701 -6.51,10.545z"/>
  <path class="fil10" d="M61.734 60.078c2.902,0.469 1.844,3.003 5.764,1.401 2.265,-0.925 4.92,-1.526 7.584,-1.566 -1.274,-1.846 -10.627,-6.494 -11.862,-7.852 3.107,-0.701 10.545,5.902 13.645,6.997 0.84,-0.49 0.496,-0.373 1.11,-0.933 1.04,-0.95 0.352,-0.646 1.509,-0.896l1.625 -1.913c-1.989,-2.918 -4.381,-3.882 -8.955,-5.134 -7.25,-1.984 -12.748,-4.942 -15.901,-1.783 -4.08,4.087 -0.031,7.397 3.643,10.026 0.52,0.372 0.558,0.323 1.058,0.773 0.793,0.715 0.365,0.32 0.78,0.88z"/>
  <path class="fil10" d="M79.941 57.713c-0.667,1.209 -1.165,1.433 -2.183,2.254 0.368,1.361 0.996,2.076 1.711,2.847 3.874,0.084 11.765,-3.298 15.256,-5.395 1.434,-0.861 2.807,-2.597 4.189,-1.737 -3.039,3.196 -9.039,5.206 -10.575,6.465l0.837 1.582c2.787,0.185 6.472,-2.937 8.308,-4.113 1.995,-1.73 5.543,-3.88 5.693,-7.655 0.179,-4.493 -3.601,-6.175 -7.486,-4.493 -7.224,3.126 -13.243,9.37 -15.75,10.245z"/>
  <path class="fil0" d="M65.734 38.952c0.326,0.8 0.537,0.742 -0.291,0.467l-0.171 0.527 -0.779 0.664c-2.127,1.444 -1.777,0.039 -1.121,2.249 0.966,0.876 10.484,3.765 8.294,-0.138 -0.523,-0.932 -0.732,-0.159 -0.804,-1.904 0.996,-0.11 4.048,2.007 4.975,2.788l-0.827 4.368 -3.201 -0.075 2.928 0.186c-0.605,1.399 -0.76,0.97 -2.403,0.974 0.096,0.055 0.262,-0.051 0.324,0.068 0.702,1.349 -0.294,-0.021 0.659,0.109 3.901,0.529 1.965,1.101 3.332,0.215l0.091 -0.053 0.201 -0.73c1.923,0.605 3.751,0.233 5.422,-0.384l-5.703 -0.023c-0.406,-1.943 -0.128,-3.425 0.875,-4.763 3.14,-0.6 9.263,-0.691 10.816,-2.634 0.834,-1.044 3.086,-9.622 2.009,-11.084 -1.379,1.656 -1.32,5.305 -1.901,7.575 -0.829,3.238 -1.459,4.296 -5.37,4.07l-7.012 -6.811c-1.416,-1.6 -0.759,-1.43 -2.572,-1.342l-0.264 -1.95c-0.263,-0.957 -0.004,-0.338 -0.332,-0.821l-0.534 1.818c-0.04,0.647 0.057,1.33 0.022,2.07 -1.464,1.175 -2.62,2.124 -4.305,3.135 0.182,-2.386 0.64,-7.446 1.547,-9.19l-1.007 -0.296c-0.922,2.449 -1.259,7.059 -1.801,10.615l-1.097 0.3z"/>
  <path class="fil12" d="M67.098 4.121c-0.415,1.66 -0.085,2.107 0.756,3.127 -0.926,0.947 -1.92,1.461 -1.489,2.871 0.98,1.03 1.798,0.979 3.198,0.923 1.662,0.471 -0.409,-0.242 0.541,0.169 0.358,0.154 -0.09,-0.029 0.591,0.302 0.504,-1.171 1.538,-0.545 4.34,-1.787 1.765,-0.783 2.731,-1.691 4.052,-2.396 2.264,3.99 4.805,2.505 5.094,2.448l1.141 -1.437c-1.045,-3.19 -2.135,-7.238 -5.926,-5.125 -2.099,-1.97 -2.978,-2.494 -6.849,-2.109 -1.311,0.592 -1.72,0.469 -3.021,1.3 -1.045,0.668 -1.774,1.299 -2.428,1.714z"/>
  <path class="fil13" d="M83.001 124.316c0.085,0.059 0.206,0.112 0.278,0.138l4.172 0.228c11.183,-0.323 63.884,-1.071 65.419,-1.819l0.041 -1.528c-3.521,-0.354 -29.763,0.702 -35.647,0.863l-31.286 0.823c-2.101,0.005 -2.787,-0.51 -2.977,1.295z"/>
  <path class="fil14" d="M5.284 105.01c-1.585,1.425 -2.896,5.394 -3.275,7.651 1.626,-2.256 0.263,-0.987 3.718,-1.775l13.355 -2.702c2.233,-0.343 0.347,-0.095 1.731,-0.624l10.327 -3.177c1.549,-0.598 2.482,-1.3 3.978,-1.155 -0.552,-1.027 -1.564,-2.408 -2.474,-2.933l-23.838 5.979c-0.966,0.185 -3.116,0.436 -4.162,0.437l0.64 -1.701z"/>
  <path class="fil15" d="M82.617 137.768c1.806,1.397 1.202,0.482 1.204,0.482 0.054,0.01 0.973,0.046 1.065,0.046 0.666,0.001 1.512,-0.066 2.202,-0.088 10.245,-0.339 63.274,-1.087 66.304,-1.77l-0.029 -1.353c-3.129,-0.804 -30.193,0.668 -35.736,0.816l-26.904 0.813c-1.498,0.049 -2.985,0.117 -4.477,0.125 -4.677,0.025 -3.221,0.019 -3.629,0.929z"/>
  <path class="fil14" d="M137.402 78.467c2.793,0.168 6.14,0.19 8.947,0.108 5.82,-0.169 5.691,0.509 8.346,0.571 2.921,0.068 5.822,0.05 8.756,0.164 1.785,0.07 2.191,0.339 3.993,0.425 1.805,0.086 2.461,0.166 3.835,0.177 -0.378,-1.264 -1.568,-3.126 -2.258,-4.054 -0.46,1.138 -0.492,0.844 -2.294,0.82 -2.355,-0.032 -5.044,-0.771 -6.957,-1.108 -3.11,-0.546 -6.446,-0.52 -9.505,-1.228l-0.288 -7.998 -0.242 8.775c-3.459,1.178 -6.847,0.374 -10.631,0.901 -0.526,1.17 -0.245,1.072 -1.243,2.072 -0.046,0.045 -0.191,0.254 -0.225,0.189 -0.035,-0.067 -0.158,0.121 -0.234,0.186z"/>
  <path class="fil16" d="M77.299 18.519l2.844 -1.653c-0.228,1.352 -1.436,2.253 -2.844,1.653zm-4.171 -3.272c0.198,-0.622 1.266,-0.653 2.026,-0.731 -0.342,0.667 -0.519,1.139 -1.216,1.764l-0.81 -1.033zm2.326 -2.281c1.764,1.603 0.336,2.276 1.833,4.285 0.046,0.063 0.148,0.158 0.204,0.249 -1.802,-0.196 -1.864,0.034 -1.812,-1.59 0.072,-2.277 -0.552,-1.305 -0.321,-2.73 0.007,-0.042 0.107,-0.137 0.096,-0.214zm1.745 0.463c0.904,-0.767 1.051,-0.883 2.506,-0.918 -0.471,1.3 0.056,-0.095 -0.636,0.851l-0.707 1.144c-0.979,-0.389 -0.728,-0.168 -1.163,-1.077zm-1.416 -1.431c0.089,-1.718 1.993,-1.834 3.578,-1.404 -0.507,1.307 -2.148,1.433 -3.578,1.404zm-5.088 -0.485l0.679 1.269c1.478,-0.518 1.575,-0.859 2.932,-0.511 -0.412,1.342 -0.888,1.246 -2.326,1.632 2.221,7.697 9.894,9.633 11.808,1.716 0.696,-2.874 -0.322,-0.723 1.021,-3.053 0.977,-1.696 0.856,-1.985 -0.628,-2.788 -0.289,0.057 -2.83,1.542 -5.094,-2.448 -1.321,0.705 -2.287,1.613 -4.052,2.396 -2.802,1.242 -3.836,0.616 -4.34,1.787z"/>
  <path class="fil17" d="M94.974 120.102c-1.493,-0.063 -3.09,0.057 -4.62,0.084 -1.974,0.034 -3.364,-0.518 -3.433,1.222 1.501,0.681 48.844,-1.048 55.328,-0.985l-0.055 -1.484c-3.227,-0.556 -8.713,0.04 -12.22,0.156 -3.847,0.127 -7.771,0.249 -11.631,0.334 -7.737,0.169 -15.609,0.278 -23.369,0.673z"/>
  <path class="fil17" d="M86.431 101.777c0.17,1.347 0.125,0.974 1.705,1.032l18.934 -0.483c6.996,-0.217 15.215,0.023 22.026,-0.692 1.393,0.229 4.358,0 5.982,-0.052 3.434,-0.11 5.178,0.424 5.856,-0.898 -0.568,-1.355 0.398,-0.526 -1.127,-0.882l-26.179 0.871c-3.764,0.146 -25.842,0.438 -27.197,1.104z"/>
  <path class="fil13" d="M125.614 76.106c2.067,-0.03 4.131,-0.078 6.198,-0.09 2.356,-0.014 3.751,0.539 3.834,-1.735 -5.755,-0.429 -31.132,0.403 -40.56,0.537 -4.59,0.065 -5.099,-0.615 -4.683,1.759l35.211 -0.471z"/>
  <path class="fil5" d="M91.574 98.867c0.15,1.63 -0.066,1.277 2.01,1.249l20.055 -0.676c7.155,-0.271 15.754,0.021 22.709,-0.734 0.246,-2.45 -1.673,-1.581 -4.187,-1.479 -6.677,0.273 -39.382,1.043 -40.587,1.64z"/>
  <path class="fil18" d="M88.614 150.307c-0.552,1.619 -0.385,7.386 -0.156,9.302 0.213,1.782 3.549,3.666 5.13,4.185 0.625,-1.904 -0.222,-1.807 1.77,-2.504 0.706,-0.248 0.392,0.038 0.876,-0.284 -1.318,-0.625 -2.054,-0.907 -3.139,-1.914 -0.139,-2.208 0.23,-6.876 -0.58,-8.49 -0.642,-0.792 -2.977,-0.388 -3.901,-0.295z"/>
  <path class="fil5" d="M76.74 49.397l-0.091 0.053c0.509,1.002 5.567,4.956 5.713,5.032 2.077,-1.158 4.417,-3.024 6.686,-4.553 1.506,-1.016 4.934,-3.026 7.069,-3.876l0.33 -5.295c-2.102,4.422 -1.386,5.979 -6.839,7.589 -4.777,1.41 -8.104,0.716 -12.868,1.05z"/>
  <path class="fil7" d="M63.372 42.859l-1.234 -0.212c0.503,1.573 3.654,2.344 5.169,3.422l-2.253 -0.19c2.305,1.626 3.414,1.879 6.755,2.019l3.201 0.075 0.827 -4.368c-0.927,-0.781 -3.979,-2.898 -4.975,-2.788 0.072,1.745 0.281,0.972 0.804,1.904 2.19,3.903 -7.328,1.014 -8.294,0.138z"/>
  <path class="fil18" d="M30.919 155.717l2.288 -0.011c-0.917,-8.27 -0.992,-9.402 0.314,-17.453l-2.079 -0.106c-2.189,7.228 -1.322,10.379 -0.523,17.57z"/>
  <path class="fil13" d="M90.26 99.875c-0.099,-1.516 -1.755,-3.52 -2.465,-5.325 -4.573,-11.627 2.095,-17.126 1.111,-19.379 -1.494,0.278 -0.285,-0.504 -1.358,0.888l-2.043 4.538c-1.85,6.219 -0.831,11.939 2.536,17.321 0.894,1.428 0.784,1.931 2.219,1.957z"/>
  <path class="fil15" d="M75.721 151.958l0.38 4.274c0.801,0.848 0.538,0.931 1.534,1.682 0.233,-0.48 0.113,-0.031 0.271,-0.912 0.358,-1.992 0.19,-15.278 0.041,-16.225 -3.005,1.403 -2.712,7.726 -2.226,11.181z"/>
  <path class="fil13" d="M89.269 78.982c-1.95,2.946 -1.945,9.59 -0.837,13.448 0.426,1.485 0.683,2.551 1.648,3.593l-0.811 -17.041z"/>
  <path class="fil19" d="M103.155 154.128c0.368,0.443 -0.896,0.41 1.35,0.689 0.285,0.036 1.492,-0.055 1.85,-0.077l10.183 -0.491c2.302,-0.079 10.839,0.06 12.257,-0.848 -0.654,-0.634 0.306,-0.405 -1.322,-0.508l-5.13 0.286c-3.445,0.105 -17.615,0.513 -19.188,0.949z"/>
  <path class="fil20" d="M108.958 81.765l-0.028 -2.318c-2.068,-0.348 -6.651,-0.219 -8.745,0.18l0.08 2.129c1.897,0.665 6.48,0.287 8.693,0.009z"/>
  <path class="fil15" d="M66.247 64.04l11.567 -0.271c-0.148,-2.874 -3.237,-2.881 -5.363,-2.484 -1.251,0.234 -2.414,0.552 -3.427,0.96 -0.378,0.152 -1.158,0.502 -1.482,0.695l-1.295 1.1z"/>
  <path class="fil21" d="M90.724 77.839c-0.729,1.372 0.035,8.035 0.127,10.128 0.077,1.745 -0.112,8.881 0.963,9.678 1.012,-1.084 0.164,-8.002 0.061,-10.034l-0.331 -8.042c-0.147,-1.625 0.181,-1.259 -0.82,-1.73z"/>
  <path class="fil5" d="M85.138 118.452c0.707,-0.549 0.341,-0.017 0.555,-1.053 0.021,-0.104 0.012,-1.252 0.007,-1.427 -0.031,-0.967 -0.064,-1.953 -0.107,-2.92l-0.129 -7.938c-1.572,0.998 -2.15,4.399 -2.131,6.483 0.031,3.518 1.399,4.65 1.805,6.855z"/>
  <path class="fil15" d="M82.772 130.12c-0.038,-2.087 -0.432,-4.646 -1.501,-6.113 -1.373,3.611 -0.398,8.889 -0.144,12.834l1.645 -6.721z"/>
  <path class="fil15" d="M79.307 22.155c2.193,3.368 5.331,-0.548 6.024,-0.971l-0.553 -4.399c-2.968,4.552 -1.663,2.982 -4.974,5.02l-0.497 0.35z"/>
  <path class="fil9" d="M111.822 87.617l-0.611 -0.385c0.38,-0.087 -0.662,-0.512 3.142,-0.593 1.33,-0.029 2.2,-0.219 3.313,0.23 -0.618,0.983 -3.41,0.96 -4.786,0.916 -0.712,-0.023 -0.449,-0.004 -1.058,-0.168zm-1.497 0.754c1.952,0.335 6.804,0.477 8.568,-0.428l-0.334 -1.992c-1.846,-0.455 -6.461,-0.194 -8.392,0.018l0.158 2.402z"/>
  <path class="fil11" d="M104.001 91.232c-0.986,0.924 -4.838,0.933 -6.02,0.363 0.746,-0.436 -1,-0.331 1.079,-0.649l3.681 -0.132c1.309,0.117 0.782,0.15 1.26,0.418zm-6 1.493c0.261,0.043 0.785,0.04 1.065,0.04 5.289,0.008 6.232,0.309 5.74,-2.553 -1.732,-0.377 -3.593,-0.121 -5.374,-0.097 -2.225,0.03 -3.066,-0.06 -2.32,2.299 0.407,0.206 -0.377,0.101 0.889,0.311z"/>
  <path class="fil22" d="M87.77 119.186l-0.08 -15.438 -1.065 -0.212 0.311 15.393c0.515,0.383 -0.757,0.468 0.834,0.257z"/>
  <path class="fil23" d="M97.607 116.318c1.489,0.668 11.125,-0.105 14.282,-0.186 2.152,-0.056 3.645,0.215 4.905,-0.784l-15.164 0.372c-1.29,0.035 -3.298,-0.323 -4.023,0.598z"/>
  <path class="fil5" d="M68.396 66.372c-1.957,0.542 -2.434,1.466 -2.31,3.766 0.112,2.068 0.662,3.039 2.537,3.309 -0.306,-2.957 -0.53,-3.812 -0.227,-7.075z"/>
  <path class="fil24" d="M65.272 39.946l0.171 -0.527c-2.194,-1.13 -4.75,-2.725 -7.065,-3.442 1.128,1.12 4.357,3.868 5.805,4.402l1.089 -0.433z"/>
  <path class="fil25" d="M111.211 87.232l0.611 0.385c0.609,0.164 0.346,0.145 1.058,0.168 1.376,0.044 4.168,0.067 4.786,-0.916 -1.113,-0.449 -1.983,-0.259 -3.313,-0.23 -3.804,0.081 -2.762,0.506 -3.142,0.593z"/>
  <path class="fil26" d="M58.181 35.057c1.319,0.353 4.481,1.86 5.545,2.541 -0.272,-1.591 -1.86,-2.4 -3.399,-2.906 -1.777,-0.585 -1.733,0.017 -2.146,0.365z"/>
  <path class="fil25" d="M97.981 91.595c1.182,0.57 5.034,0.561 6.02,-0.363 -0.478,-0.268 0.049,-0.301 -1.26,-0.418l-3.681 0.132c-2.079,0.318 -0.333,0.213 -1.079,0.649z"/>
  <path class="fil19" d="M75.783 11.998c1.43,0.029 3.071,-0.097 3.578,-1.404 -1.585,-0.43 -3.489,-0.314 -3.578,1.404z"/>
  <path class="fil27" d="M75.454 12.966c0.011,0.077 -0.089,0.172 -0.096,0.214 -0.231,1.425 0.393,0.453 0.321,2.73 -0.052,1.624 0.01,1.394 1.812,1.59 -0.056,-0.091 -0.158,-0.186 -0.204,-0.249 -1.497,-2.009 -0.069,-2.682 -1.833,-4.285z"/>
  <path class="fil26" d="M83.918 63.791c0.584,-0.022 1.611,0.022 2.126,-0.019 1.522,-0.122 1.183,-0.251 1.57,-0.535 -0.278,-0.361 -0.342,-1.53 -2.617,-0.314 -1.595,0.852 -0.301,0.072 -1.079,0.868z"/>
  <path class="fil28" d="M82.148 149.766c0.791,0.352 1.816,0.24 2.786,0.181 1.127,-0.068 1.337,0.092 1.513,-0.629 -1.153,-0.137 -3.803,-0.531 -4.299,0.448z"/>
  <path class="fil28" d="M77.199 13.429c0.435,0.909 0.184,0.688 1.163,1.077l0.707 -1.144c0.692,-0.946 0.165,0.449 0.636,-0.851 -1.455,0.035 -1.602,0.151 -2.506,0.918z"/>
  <path class="fil29" d="M77.299 18.519c1.408,0.6 2.616,-0.301 2.844,-1.653l-2.844 1.653z"/>
  <path class="fil23" d="M73.128 15.247l0.81 1.033c0.697,-0.625 0.874,-1.097 1.216,-1.764 -0.76,0.078 -1.828,0.109 -2.026,0.731z"/>
 </g>
</svg>
