<?xml version="1.0" encoding="UTF-8"?>
<!DOCTYPE svg PUBLIC "-//W3C//DTD SVG 1.1//EN" "http://www.w3.org/Graphics/SVG/1.1/DTD/svg11.dtd">
<!-- Creator: CorelDRAW 2020 (64-Bit) -->
<svg xmlns="http://www.w3.org/2000/svg" xml:space="preserve" width="81.1625mm" height="33.2656mm" version="1.1" style="shape-rendering:geometricPrecision; text-rendering:geometricPrecision; image-rendering:optimizeQuality; fill-rule:evenodd; clip-rule:evenodd"
viewBox="0 0 4272.47 1751.13"
 xmlns:xlink="http://www.w3.org/1999/xlink"
 xmlns:xodm="http://www.corel.com/coreldraw/odm/2003">
 <defs>
  <style type="text/css">
   <![CDATA[
    .fil0 {fill:#1E78C2;fill-rule:nonzero}
    .fil1 {fill:#A1D2F8;fill-rule:nonzero}
   ]]>
  </style>
 </defs>
 <g id="Layer_x0020_1">
  <metadata id="CorelCorpID_0Corel-Layer"/>
  <path class="fil0" d="M1545.3 1086.41c-47.56,-67.08 -109.77,-124.41 -180.51,-164.66 -95.13,-56.1 -229.29,-51.22 -229.29,-51.22 -39.03,90.25 -143.92,130.5 -234.17,90.25 -1.22,0 -2.44,-1.22 -3.66,-1.22 -103.67,135.39 -93.92,248.81 -92.7,256.13 6.1,174.41 174.41,534.22 850.1,535.43 1.22,-13.41 57.33,-445.17 -109.77,-664.71z"/>
  <path class="fil0" d="M998.9 172.89c-187.83,-182.95 -535.43,-251.26 -980.61,-52.45 1.22,4.87 134.17,570.8 731.8,659.83l1.22 0.01c13.42,1.22 28.05,2.44 45.13,3.65l0 0c7.32,-92.7 84.16,-163.43 176.85,-163.43 19.51,0 40.25,3.66 58.54,9.76 173.19,-259.79 -12.2,-437.86 -32.93,-457.37z"/>
  <path class="fil0" d="M898.89 959.57l0 0c-62.2,-29.27 -102.45,-91.47 -102.45,-159.78 0,-4.87 0,-9.75 1.22,-14.63 -30.49,-3.66 -60.98,-4.87 -91.47,-4.87 -156.12,2.44 -307.36,53.66 -432.98,147.57 -251.25,196.37 -273.2,517.13 -273.2,517.13 13.42,1.22 457.37,59.76 726.92,-206.12 28.05,-28.05 52.45,-58.55 73.18,-92.7 0,0 7.32,-10.98 18.29,-30.49l0 0c15.86,-56.1 43.91,-108.54 80.5,-156.11l0 0z"/>
  <path class="fil1" d="M3817.53 413.16c-130.5,0 -241.5,54.89 -308.58,143.92l0 -43.91c0,-56.1 -45.12,-100.01 -101.23,-100.01l0 0c-56.1,0 -101.23,45.13 -101.23,100.01l0 1135.51c0,56.1 46.35,102.45 102.45,102.45l0 0c56.1,0 102.45,-46.35 102.45,-102.45l0 -400.05c79.28,86.59 191.49,135.39 308.58,132.94 229.3,0 452.5,-170.76 452.5,-486.64 1.22,-320.77 -236.61,-481.77 -454.93,-481.77zm-23.17 783.02c-140.26,0 -282.96,-101.23 -282.96,-303.69 0,-197.59 140.26,-296.38 281.74,-296.38 141.48,0 278.08,96.35 278.08,297.59 0,201.25 -135.38,302.47 -276.86,302.47z"/>
  <path class="fil1" d="M2641.78 1382.79c131.72,0 241.5,-54.88 308.58,-143.92l0 42.69c0,56.1 45.13,100.01 101.23,100.01l0 0c56.1,0 101.23,-45.13 101.23,-100.01l0 -1135.51c-1.22,-56.1 -46.35,-101.23 -102.45,-101.23l0 0c-56.1,0 -102.45,45.12 -102.45,102.45l0 398.83c-79.28,-85.38 -192.71,-134.16 -309.8,-132.94 -229.3,0 -452.5,169.54 -452.5,486.64 0.01,321.99 237.83,482.99 456.15,482.99zm23.17 -781.8c140.26,0 282.96,101.23 282.96,303.7 0,197.58 -140.26,296.38 -280.52,296.38 -140.26,0 -278.08,-96.35 -278.08,-297.6 0,-201.24 134.16,-302.47 275.64,-302.47z"/>
  <path class="fil1" d="M1962.43 0.92c-79.28,-1.22 -143.92,60.98 -146.36,140.26 0,2.44 0,4.87 0,6.1 -1.22,79.28 60.98,143.92 140.26,146.36 2.44,0 4.88,0 6.1,0 79.28,2.44 146.36,-60.98 147.58,-141.48 0,-1.22 0,-3.65 0,-4.87 1.22,-79.28 -63.42,-145.14 -142.7,-146.36 -1.22,0 -3.66,0 -4.88,0z"/>
  <path class="fil1" d="M1962.43 413.16l0 0c-56.1,0 -102.45,46.35 -102.45,102.46l0 768.38 0 0c2.44,54.88 47.57,98.79 102.45,98.79l0 0c54.89,0 100.01,-43.91 102.46,-98.79l0 0 0 -3.66 0 0 0 -764.73c0,-56.1 -46.35,-101.23 -102.46,-102.46z"/>
 </g>
</svg>
