<?xml version="1.0" encoding="UTF-8"?>
<!DOCTYPE svg PUBLIC "-//W3C//DTD SVG 1.1//EN" "http://www.w3.org/Graphics/SVG/1.1/DTD/svg11.dtd">
<!-- Creator: CorelDRAW 2020 (64-Bit) -->
<svg xmlns="http://www.w3.org/2000/svg" xml:space="preserve" width="79.9745mm" height="34.5447mm" version="1.1" style="shape-rendering:geometricPrecision; text-rendering:geometricPrecision; image-rendering:optimizeQuality; fill-rule:evenodd; clip-rule:evenodd"
viewBox="0 0 3893.24 1681.67"
 xmlns:xlink="http://www.w3.org/1999/xlink"
 xmlns:xodm="http://www.corel.com/coreldraw/odm/2003">
 <defs>
  <style type="text/css">
   <![CDATA[
    .fil0 {fill:#A1D2F8;fill-rule:nonzero}
   ]]>
  </style>
 </defs>
 <g id="Layer_x0020_1">
  <metadata id="CorelCorpID_0Corel-Layer"/>
  <path class="fil0" d="M3467.86 701.16c-120.17,0 -204.26,96.12 -233.12,247.51l423 -4.8c0,-127.36 -79.34,-242.7 -189.88,-242.7zm-711.13 -701.16l-2.65 0 -437.36 109.95 0 48.06c165.81,14.43 177.84,48.06 177.84,129.77l0 1244.88c-19.25,40.87 -50.47,64.91 -158.61,72.1l0 55.28 533.5 0 0 -55.28c-98.53,-7.2 -144.17,-24.02 -168.21,-72.1l0 -1405.88 69.69 -86.51 -14.19 -40.26zm689.48 1679.27c-252.31,0 -447,-199.48 -447,-478.26 0,-341.25 209.11,-574.38 504.71,-574.38 237.9,0 370.08,134.61 370.08,348.49l0 43.25 -648.87 -4.8c-4.81,26.43 -7.22,69.7 -7.22,122.56 0,245.13 153.8,406.15 358.11,406.15 122.55,0 185.05,-43.25 281.16,-124.96l36.05 55.25c-136.99,124.99 -249.95,206.7 -447.03,206.7zm-1843.25 -389.32c-9.61,38.44 -16.81,72.08 -16.81,124.96 0,72.09 40.85,144.16 120.14,144.16 72.1,0 112.94,-24 177.85,-74.48l2.4 -324.46c-62.47,28.85 -216.28,96.16 -283.58,129.81zm480.64 391.72c-129.77,0 -192.26,-88.94 -197.06,-151.4 -81.72,86.51 -187.44,151.4 -288.38,151.4 -129.77,0 -240.33,-79.31 -240.33,-216.28 0,-67.3 16.82,-137 50.48,-192.27l478.23 -173.05 0 -177.84c0,-108.14 -50.47,-211.48 -158.61,-211.48 -64.88,0 -127.37,79.29 -132.16,201.87l-216.31 36.03 0 -24c72.1,-216.32 310.03,-300.41 425.37,-300.41 218.7,0 298.01,115.34 295.61,293.19l-7.2 504.68c-2.4,98.54 50.45,122.56 98.53,122.56 38.44,0 76.88,-24.02 122.57,-69.68l0 69.68c-52.88,62.5 -146.59,136.99 -230.73,136.99zm-788.25 -1328.99l-396.53 668.09 0 449.42c45.65,108.14 161.01,122.54 271.57,127.37l0 62.48 -776.26 0 0 -62.48c110.54,-4.83 245.14,-21.63 281.18,-93.72l0 -463.84 -403.74 -682.52c-69.68,-115.37 -136.98,-153.8 -271.57,-163.42l0 -62.49 675.31 0 0 62.49c-127.37,7.2 -168.22,31.25 -204.27,60.1l374.91 648.84 367.68 -646.46c-38.43,-28.83 -88.91,-55.29 -216.28,-62.48l0 -62.49 576.77 0 0 62.49c-129.77,4.82 -211.48,48.05 -278.76,158.62z"/>
 </g>
</svg>
