<?xml version="1.0" encoding="UTF-8"?>
<!DOCTYPE svg PUBLIC "-//W3C//DTD SVG 1.1//EN" "http://www.w3.org/Graphics/SVG/1.1/DTD/svg11.dtd">
<!-- Creator: CorelDRAW 2020 (64-Bit) -->
<svg xmlns="http://www.w3.org/2000/svg" xml:space="preserve" width="394px" height="281px" version="1.1" style="shape-rendering:geometricPrecision; text-rendering:geometricPrecision; image-rendering:optimizeQuality; fill-rule:evenodd; clip-rule:evenodd"
viewBox="0 0 792.426 564.766"
 xmlns:xlink="http://www.w3.org/1999/xlink"
 xmlns:xodm="http://www.corel.com/coreldraw/odm/2003">
 <defs>
  <style type="text/css">
   <![CDATA[
    .fil0 {fill:#251E2D}
    .fil1 {fill:#CDE1AC;fill-rule:nonzero}
   ]]>
  </style>
 </defs>
 <g id="Layer_x0020_1">
  <metadata id="CorelCorpID_0Corel-Layer"/>
  <rect class="fil0" width="792.426" height="564.766"/>
  <path class="fil1" d="M66.404 277.237c0,-0.894 0.29,-1.609 0.872,-2.146 0.58,-0.536 1.318,-0.804 2.212,-0.804l70.46 0c0.805,0 1.542,0.245 2.19,0.737 0.648,0.492 1.005,1.229 1.095,2.213l0 11.776c0,0.917 -0.268,1.699 -0.827,2.37 -0.559,0.67 -1.385,1.005 -2.458,1.005l-25.476 0 0 78.438c0,0.804 -0.268,1.52 -0.826,2.145 -0.559,0.626 -1.341,0.939 -2.325,0.939l-13.14 0c-0.804,0 -1.541,-0.29 -2.19,-0.872 -0.648,-0.581 -0.961,-1.318 -0.961,-2.212l0 -78.438 -25.542 0c-0.894,0 -1.632,-0.291 -2.212,-0.85 -0.582,-0.558 -0.872,-1.385 -0.872,-2.525l0 -11.776z"/>
  <path id="1" class="fil1" d="M158.988 277.438c0,-2.101 0.983,-3.151 2.949,-3.151l41.074 0c4.514,0 8.738,0.849 12.671,2.547 3.933,1.699 7.374,4.001 10.302,6.905 2.927,2.906 5.229,6.325 6.905,10.281 1.676,3.933 2.525,8.111 2.525,12.536 0,3.084 -0.424,6.033 -1.273,8.85 -0.85,2.815 -2.034,5.429 -3.554,7.843 -1.519,2.436 -3.329,4.603 -5.43,6.548 -2.101,1.944 -4.424,3.598 -6.972,4.939l17.498 34.414c0.089,0.447 0.245,0.894 0.469,1.341 0.223,0.447 0.335,0.916 0.335,1.408 0,1.341 -0.782,2.011 -2.346,2.011l-15.621 0c-1.609,0 -2.682,-0.827 -3.218,-2.48l-16.291 -32.248c-0.715,0 -1.475,0.023 -2.301,0.067 -0.85,0.045 -1.99,0.068 -3.442,0.068 -1.453,0 -3.375,0 -5.721,0 -2.346,0 -5.386,0 -9.117,0l0 31.71c0,1.922 -1.028,2.883 -3.084,2.883l-13.409 0c-0.894,0 -1.609,-0.246 -2.145,-0.715 -0.537,-0.469 -0.804,-1.185 -0.804,-2.168l0 -93.589zm56.582 29.185c0,-1.9 -0.358,-3.777 -1.072,-5.564 -0.715,-1.81 -1.721,-3.442 -3.04,-4.849 -1.296,-1.431 -2.838,-2.593 -4.625,-3.487 -1.81,-0.893 -3.755,-1.408 -5.855,-1.542 -1.587,-0.045 -3.107,-0.089 -4.626,-0.112 -1.497,-0.022 -3.062,-0.022 -4.671,-0.022l-13.251 0 0 31.107 17.765 0c0.894,0 1.744,0 2.525,0 0.782,0 1.632,-0.045 2.525,-0.134 2.102,-0.134 4.046,-0.626 5.811,-1.475 1.765,-0.849 3.285,-1.966 4.537,-3.374 1.273,-1.408 2.234,-3.017 2.927,-4.827 0.692,-1.788 1.05,-3.71 1.05,-5.721z"/>
  <path id="2" class="fil1" d="M245.404 371.43c0.224,-0.894 0.491,-1.721 0.782,-2.481 0.291,-0.76 0.536,-1.452 0.76,-2.078l36.135 -90.037c0.134,-0.491 0.514,-1.028 1.117,-1.631 0.604,-0.603 1.408,-0.916 2.436,-0.916l10.794 0c1.073,0 1.855,0.268 2.324,0.804 0.469,0.537 0.804,1.006 1.028,1.408l2.212 5.23 35.398 88.628c0,0.134 0.044,0.357 0.111,0.693 0.068,0.335 0.09,0.625 0.09,0.849 0,1.341 -0.983,2.011 -2.95,2.011l-13.207 0c-0.983,0 -1.743,-0.201 -2.279,-0.604 -0.537,-0.402 -0.984,-1.027 -1.341,-1.876l-1.207 -3.084c-0.849,-2.145 -1.698,-4.291 -2.547,-6.437 -0.849,-2.145 -1.676,-4.313 -2.481,-6.503l-41.364 0c-1.162,3.129 -2.28,6.056 -3.375,8.805 -1.095,2.749 -2.033,5.162 -2.793,7.219 -0.625,1.653 -1.788,2.48 -3.486,2.48l-13.408 0c-0.849,0 -1.52,-0.157 -2.034,-0.469 -0.514,-0.313 -0.783,-0.782 -0.783,-1.408 0,-0.268 0.023,-0.47 0.068,-0.603zm46.66 -71.601c-2.413,6.168 -4.804,12.56 -7.195,19.174 -2.392,6.615 -4.805,12.984 -7.218,19.107l28.559 0 -14.146 -38.281z"/>
  <path id="3" class="fil1" d="M353.005 277.237c0,-0.805 0.246,-1.498 0.737,-2.078 0.492,-0.582 1.23,-0.872 2.212,-0.872l13.342 0c0.76,0 1.475,0.268 2.145,0.804 0.67,0.537 1.006,1.252 1.006,2.146l0 93.723c0,1.966 -1.05,2.95 -3.151,2.95l-13.342 0c-1.966,0 -2.949,-0.984 -2.949,-2.95l0 -93.723z"/>
  <path id="4" class="fil1" d="M394.236 277.304c0,-0.849 0.268,-1.565 0.782,-2.145 0.514,-0.582 1.229,-0.872 2.167,-0.872l15.42 0c0.625,0 1.207,0.134 1.766,0.425 0.558,0.29 1.072,0.759 1.519,1.385 7.62,10.906 15.195,21.744 22.682,32.515 7.509,10.749 15.085,21.587 22.704,32.492l0 -64.27c0.135,-0.804 0.47,-1.43 1.006,-1.877 0.537,-0.447 1.184,-0.67 1.945,-0.67l12.938 0c0.894,0 1.676,0.268 2.325,0.804 0.647,0.537 0.96,1.252 0.96,2.146l0 93.924c0,1.833 -1.05,2.749 -3.15,2.749l-14.526 0c-0.983,0 -1.9,-0.604 -2.749,-1.81 -7.866,-11.397 -15.687,-22.794 -23.486,-34.191 -7.777,-11.375 -15.576,-22.794 -23.398,-34.235l0 67.286c0,0.983 -0.223,1.721 -0.693,2.213 -0.469,0.491 -1.273,0.737 -2.391,0.737l-12.872 0c-1.028,0 -1.765,-0.268 -2.234,-0.782 -0.47,-0.514 -0.715,-1.207 -0.715,-2.101l0 -93.723z"/>
  <path id="5" class="fil1" d="M502.239 277.237c0,-0.805 0.245,-1.498 0.737,-2.078 0.492,-0.582 1.229,-0.872 2.212,-0.872l13.341 0c0.761,0 1.475,0.268 2.146,0.804 0.67,0.537 1.005,1.252 1.005,2.146l0 93.723c0,1.966 -1.049,2.95 -3.151,2.95l-13.341 0c-1.966,0 -2.949,-0.984 -2.949,-2.95l0 -93.723z"/>
  <path id="6" class="fil1" d="M543.469 277.304c0,-0.849 0.269,-1.565 0.782,-2.145 0.514,-0.582 1.23,-0.872 2.168,-0.872l15.419 0c0.626,0 1.207,0.134 1.766,0.425 0.559,0.29 1.073,0.759 1.52,1.385 7.619,10.906 15.195,21.744 22.682,32.515 7.509,10.749 15.084,21.587 22.704,32.492l0 -64.27c0.135,-0.804 0.47,-1.43 1.006,-1.877 0.536,-0.447 1.184,-0.67 1.944,-0.67l12.939 0c0.894,0 1.676,0.268 2.324,0.804 0.648,0.537 0.961,1.252 0.961,2.146l0 93.924c0,1.833 -1.05,2.749 -3.151,2.749l-14.525 0c-0.983,0 -1.9,-0.604 -2.749,-1.81 -7.866,-11.397 -15.687,-22.794 -23.487,-34.191 -7.777,-11.375 -15.576,-22.794 -23.397,-34.235l0 67.286c0,0.983 -0.223,1.721 -0.693,2.213 -0.469,0.491 -1.274,0.737 -2.391,0.737l-12.872 0c-1.028,0 -1.765,-0.268 -2.234,-0.782 -0.47,-0.514 -0.716,-1.207 -0.716,-2.101l0 -93.723z"/>
  <path id="7" class="fil1" d="M713.284 332.143c0,-0.893 0.246,-1.609 0.737,-2.145 0.492,-0.536 1.229,-0.805 2.213,-0.805l10.927 0c0.76,0 1.476,0.269 2.146,0.805 0.671,0.536 1.006,1.252 1.006,2.145l0 30.817c0,0.536 -0.135,1.051 -0.403,1.542 -0.268,0.514 -0.759,0.983 -1.475,1.43 -0.045,0 -0.067,0 -0.067,0.022 0,0.023 -0.022,0.045 -0.066,0.045 -2.102,1.475 -4.358,2.816 -6.772,3.978 -2.413,1.184 -4.939,2.145 -7.576,2.949 -2.637,0.783 -5.34,1.386 -8.111,1.811 -2.772,0.424 -5.542,0.648 -8.313,0.648 -4.693,0 -9.23,-0.603 -13.61,-1.81 -4.38,-1.207 -8.447,-2.928 -12.224,-5.162 -3.776,-2.235 -7.218,-4.917 -10.324,-8.023 -3.106,-3.106 -5.788,-6.548 -8.023,-10.324 -2.234,-3.777 -3.955,-7.844 -5.162,-12.202 -1.206,-4.358 -1.81,-8.894 -1.81,-13.631 0,-4.694 0.604,-9.23 1.81,-13.587 1.207,-4.358 2.928,-8.425 5.162,-12.224 2.235,-3.8 4.917,-7.263 8.023,-10.392 3.106,-3.128 6.57,-5.81 10.369,-8.044 3.799,-2.235 7.889,-3.978 12.246,-5.207 4.358,-1.23 8.917,-1.833 13.655,-1.833 3.172,0 6.346,0.29 9.497,0.849 3.151,0.559 6.19,1.386 9.162,2.525 1.117,0.447 2.436,1.006 3.978,1.676 1.541,0.671 3.017,1.408 4.402,2.212 1.386,0.805 2.548,1.632 3.509,2.504 0.961,0.849 1.452,1.676 1.452,2.48 0,0.358 -0.201,0.939 -0.603,1.721 -0.402,0.782 -0.894,1.676 -1.498,2.659 -0.602,0.984 -1.296,1.989 -2.055,3.039 -0.76,1.051 -1.498,2.011 -2.213,2.86 -0.715,0.85 -1.363,1.543 -1.944,2.102 -0.581,0.558 -1.028,0.849 -1.34,0.849 -0.269,0 -0.582,-0.067 -0.961,-0.179 -0.38,-0.112 -0.783,-0.313 -1.185,-0.626 -2.816,-1.966 -5.989,-3.531 -9.52,-4.693 -3.531,-1.162 -7.128,-1.743 -10.793,-1.743 -4.783,0 -9.163,0.894 -13.141,2.682 -3.977,1.765 -7.396,4.179 -10.257,7.218 -2.86,3.017 -5.095,6.526 -6.704,10.525 -1.609,3.978 -2.414,8.18 -2.414,12.582 0,4.558 0.849,8.827 2.57,12.804 1.721,4.001 4.045,7.464 6.973,10.437 2.927,2.95 6.346,5.296 10.279,7.017 3.933,1.721 8.09,2.57 12.514,2.57 1.655,0 3.286,-0.134 4.895,-0.38 1.609,-0.246 3.106,-0.559 4.514,-0.939 1.408,-0.38 2.659,-0.804 3.776,-1.274 1.118,-0.469 2.034,-0.916 2.749,-1.362l0 -20.918z"/>
  <path class="fil1" d="M122.459 176.521c0.375,0.219 0.689,0.501 0.939,0.813 0.25,0.313 0.375,0.689 0.375,1.127 0,0.344 -0.094,0.704 -0.282,1.079l-4.552 7.759c-0.532,0.72 -1.095,1.079 -1.689,1.079 -0.188,0 -0.407,-0.047 -0.657,-0.125 -0.25,-0.078 -0.5,-0.188 -0.751,-0.344 -1.971,-1.407 -4.083,-2.503 -6.335,-3.285 -2.253,-0.782 -4.646,-1.173 -7.181,-1.173 -3.191,0 -6.116,0.595 -8.775,1.799 -2.66,1.204 -4.959,2.847 -6.898,4.912 -1.94,2.049 -3.442,4.473 -4.522,7.258 -1.079,2.784 -1.626,5.772 -1.626,8.947 0,3.16 0.547,6.132 1.626,8.886 1.08,2.769 2.582,5.193 4.522,7.242 1.939,2.065 4.238,3.693 6.898,4.881 2.659,1.189 5.584,1.784 8.775,1.784 2.535,0 4.959,-0.392 7.259,-1.174 2.299,-0.782 4.411,-1.877 6.351,-3.285 0.25,-0.187 0.516,-0.313 0.782,-0.375 0.266,-0.063 0.485,-0.11 0.673,-0.141 0.531,0 1.079,0.344 1.642,1.033l4.646 7.852c0.188,0.375 0.282,0.72 0.282,1.032 0,0.439 -0.126,0.798 -0.392,1.08 -0.266,0.282 -0.578,0.563 -0.922,0.813 -2.941,1.971 -6.101,3.504 -9.495,4.584 -3.395,1.079 -6.977,1.626 -10.732,1.626 -3.316,0 -6.491,-0.421 -9.542,-1.267 -3.05,-0.844 -5.913,-2.048 -8.572,-3.613 -2.66,-1.564 -5.084,-3.442 -7.259,-5.616 -2.19,-2.175 -4.066,-4.583 -5.631,-7.226 -1.564,-2.644 -2.784,-5.507 -3.629,-8.558 -0.845,-3.05 -1.267,-6.225 -1.267,-9.558 0,-3.315 0.422,-6.491 1.267,-9.542 0.845,-3.066 2.065,-5.928 3.629,-8.603 1.565,-2.675 3.441,-5.099 5.631,-7.305 2.175,-2.19 4.599,-4.052 7.259,-5.6 2.659,-1.549 5.522,-2.754 8.572,-3.614 3.051,-0.861 6.226,-1.298 9.542,-1.298 3.724,0 7.258,0.532 10.606,1.58 3.348,1.047 6.492,2.565 9.433,4.536z"/>
  <path id="1" class="fil1" d="M147.331 206.305c0,3.16 0.563,6.116 1.705,8.869 1.142,2.754 2.706,5.147 4.693,7.181 1.971,2.033 4.317,3.645 7.023,4.834 2.691,1.189 5.616,1.783 8.776,1.783 3.129,0 6.038,-0.594 8.729,-1.783 2.706,-1.189 5.053,-2.801 7.055,-4.834 2.002,-2.034 3.567,-4.427 4.708,-7.181 1.142,-2.753 1.705,-5.709 1.705,-8.869 0,-3.129 -0.563,-6.069 -1.705,-8.822 -1.141,-2.754 -2.706,-5.162 -4.708,-7.212 -2.002,-2.049 -4.349,-3.66 -7.055,-4.849 -2.691,-1.189 -5.6,-1.783 -8.729,-1.783 -3.16,0 -6.085,0.594 -8.776,1.783 -2.706,1.189 -5.052,2.8 -7.023,4.849 -1.987,2.05 -3.551,4.458 -4.693,7.212 -1.142,2.753 -1.705,5.693 -1.705,8.822zm-13.609 0.094c0,-3.285 0.422,-6.46 1.266,-9.527 0.846,-3.065 2.05,-5.928 3.614,-8.587 1.565,-2.66 3.426,-5.085 5.6,-7.275 2.159,-2.19 4.584,-4.067 7.243,-5.615 2.644,-1.549 5.506,-2.753 8.541,-3.614 3.05,-0.86 6.226,-1.282 9.542,-1.282 3.286,0 6.445,0.422 9.495,1.282 3.035,0.861 5.898,2.065 8.541,3.614 2.66,1.548 5.084,3.425 7.274,5.615 2.19,2.19 4.052,4.615 5.601,7.275 1.548,2.659 2.752,5.522 3.613,8.587 0.86,3.067 1.283,6.258 1.283,9.574 0,3.316 -0.423,6.492 -1.283,9.527 -0.861,3.034 -2.065,5.881 -3.613,8.541 -1.549,2.659 -3.411,5.068 -5.601,7.242 -2.19,2.174 -4.614,4.036 -7.274,5.584 -2.643,1.55 -5.506,2.754 -8.541,3.598 -3.05,0.846 -6.225,1.267 -9.542,1.267 -3.316,0 -6.492,-0.421 -9.542,-1.267 -3.035,-0.844 -5.897,-2.048 -8.541,-3.613 -2.659,-1.564 -5.084,-3.442 -7.242,-5.616 -2.175,-2.175 -4.037,-4.583 -5.585,-7.226 -1.548,-2.644 -2.737,-5.492 -3.583,-8.542 -0.844,-3.05 -1.266,-6.226 -1.266,-9.542z"/>
  <path id="2" class="fil1" d="M217.677 173.643c0,-1.47 0.689,-2.206 2.065,-2.206l28.751 0c3.16,0 6.117,0.594 8.87,1.783 2.753,1.189 5.162,2.801 7.211,4.834 2.05,2.033 3.661,4.427 4.834,7.196 1.173,2.753 1.768,5.678 1.768,8.776 0,2.158 -0.298,4.223 -0.892,6.194 -0.595,1.971 -1.423,3.802 -2.487,5.491 -1.064,1.705 -2.331,3.222 -3.801,4.583 -1.471,1.361 -3.098,2.519 -4.881,3.457l12.248 24.09c0.063,0.313 0.173,0.626 0.329,0.938 0.156,0.314 0.235,0.642 0.235,0.986 0,0.939 -0.548,1.408 -1.643,1.408l-10.934 0c-1.127,0 -1.878,-0.578 -2.253,-1.736l-11.403 -22.573c-0.501,0 -1.033,0.015 -1.612,0.047 -0.594,0.032 -1.392,0.047 -2.409,0.047 -1.017,0 -2.361,0 -4.004,0 -1.643,0 -3.771,0 -6.382,0l0 22.197c0,1.345 -0.72,2.018 -2.159,2.018l-9.386 0c-0.626,0 -1.126,-0.172 -1.502,-0.501 -0.375,-0.328 -0.563,-0.828 -0.563,-1.517l0 -65.512zm39.608 20.43c0,-1.331 -0.251,-2.644 -0.751,-3.895 -0.501,-1.268 -1.205,-2.41 -2.127,-3.395 -0.908,-1.001 -1.987,-1.815 -3.239,-2.44 -1.267,-0.626 -2.627,-0.986 -4.098,-1.08 -1.111,-0.031 -2.174,-0.063 -3.238,-0.078 -1.048,-0.016 -2.143,-0.016 -3.269,-0.016l-9.276 0 0 21.775 12.436 0c0.625,0 1.22,0 1.767,0 0.547,0 1.142,-0.031 1.767,-0.094 1.471,-0.093 2.832,-0.438 4.068,-1.032 1.236,-0.595 2.299,-1.377 3.175,-2.362 0.892,-0.986 1.565,-2.112 2.049,-3.379 0.485,-1.252 0.736,-2.597 0.736,-4.004z"/>
  <path id="3" class="fil1" d="M282.486 173.643c0,-1.47 0.704,-2.206 2.112,-2.206l26.624 0c3.16,0 6.069,0.625 8.729,1.861 2.659,1.236 4.943,2.879 6.867,4.944 1.924,2.08 3.41,4.442 4.473,7.117 1.065,2.691 1.596,5.475 1.596,8.385 0,2.862 -0.516,5.6 -1.564,8.259 -1.048,2.644 -2.519,4.991 -4.412,7.039 -1.892,2.05 -4.145,3.692 -6.773,4.928 -2.627,1.236 -5.49,1.862 -8.619,1.862l-15.424 0 0 23.323c0,1.345 -0.704,2.018 -2.112,2.018l-9.433 0c-1.376,0 -2.064,-0.673 -2.064,-2.018l0 -65.512zm36.792 19.991c0,-1.298 -0.25,-2.565 -0.751,-3.817 -0.5,-1.235 -1.189,-2.346 -2.065,-3.315 -0.876,-0.955 -1.94,-1.737 -3.16,-2.332 -1.22,-0.609 -2.549,-0.907 -3.989,-0.907l-13.218 0 0 20.743 13.218 0c1.408,0 2.722,-0.282 3.942,-0.861 1.22,-0.563 2.284,-1.329 3.176,-2.283 0.892,-0.97 1.596,-2.066 2.096,-3.317 0.501,-1.251 0.751,-2.55 0.751,-3.911z"/>
  <path id="4" class="fil1" d="M355.366 206.305c0,3.16 0.563,6.116 1.705,8.869 1.142,2.754 2.706,5.147 4.693,7.181 1.971,2.033 4.317,3.645 7.023,4.834 2.691,1.189 5.616,1.783 8.776,1.783 3.129,0 6.038,-0.594 8.729,-1.783 2.706,-1.189 5.053,-2.801 7.055,-4.834 2.002,-2.034 3.567,-4.427 4.708,-7.181 1.142,-2.753 1.705,-5.709 1.705,-8.869 0,-3.129 -0.563,-6.069 -1.705,-8.822 -1.141,-2.754 -2.706,-5.162 -4.708,-7.212 -2.002,-2.049 -4.349,-3.66 -7.055,-4.849 -2.691,-1.189 -5.6,-1.783 -8.729,-1.783 -3.16,0 -6.085,0.594 -8.776,1.783 -2.706,1.189 -5.052,2.8 -7.023,4.849 -1.987,2.05 -3.551,4.458 -4.693,7.212 -1.142,2.753 -1.705,5.693 -1.705,8.822zm-13.609 0.094c0,-3.285 0.422,-6.46 1.267,-9.527 0.845,-3.065 2.049,-5.928 3.613,-8.587 1.565,-2.66 3.426,-5.085 5.6,-7.275 2.159,-2.19 4.584,-4.067 7.243,-5.615 2.644,-1.549 5.507,-2.753 8.541,-3.614 3.051,-0.86 6.226,-1.282 9.542,-1.282 3.286,0 6.446,0.422 9.495,1.282 3.036,0.861 5.898,2.065 8.541,3.614 2.66,1.548 5.084,3.425 7.274,5.615 2.19,2.19 4.052,4.615 5.601,7.275 1.548,2.659 2.753,5.522 3.613,8.587 0.861,3.067 1.283,6.258 1.283,9.574 0,3.316 -0.422,6.492 -1.283,9.527 -0.86,3.034 -2.065,5.881 -3.613,8.541 -1.549,2.659 -3.411,5.068 -5.601,7.242 -2.19,2.174 -4.614,4.036 -7.274,5.584 -2.643,1.55 -5.505,2.754 -8.541,3.598 -3.049,0.846 -6.225,1.267 -9.542,1.267 -3.316,0 -6.492,-0.421 -9.542,-1.267 -3.035,-0.844 -5.897,-2.048 -8.541,-3.613 -2.659,-1.564 -5.084,-3.442 -7.242,-5.616 -2.175,-2.175 -4.036,-4.583 -5.585,-7.226 -1.548,-2.644 -2.737,-5.492 -3.582,-8.542 -0.845,-3.05 -1.267,-6.226 -1.267,-9.542z"/>
  <path id="5" class="fil1" d="M425.712 173.643c0,-1.47 0.689,-2.206 2.065,-2.206l28.752 0c3.159,0 6.116,0.594 8.869,1.783 2.753,1.189 5.162,2.801 7.212,4.834 2.049,2.033 3.66,4.427 4.833,7.196 1.173,2.753 1.768,5.678 1.768,8.776 0,2.158 -0.298,4.223 -0.892,6.194 -0.594,1.971 -1.423,3.802 -2.487,5.491 -1.064,1.705 -2.331,3.222 -3.801,4.583 -1.471,1.361 -3.098,2.519 -4.881,3.457l12.248 24.09c0.064,0.313 0.173,0.626 0.329,0.938 0.156,0.314 0.235,0.642 0.235,0.986 0,0.939 -0.548,1.408 -1.643,1.408l-10.934 0c-1.127,0 -1.878,-0.578 -2.253,-1.736l-11.403 -22.573c-0.501,0 -1.033,0.015 -1.612,0.047 -0.594,0.032 -1.391,0.047 -2.409,0.047 -1.017,0 -2.361,0 -4.004,0 -1.643,0 -3.77,0 -6.382,0l0 22.197c0,1.345 -0.72,2.018 -2.159,2.018l-9.386 0c-0.626,0 -1.126,-0.172 -1.502,-0.501 -0.375,-0.328 -0.563,-0.828 -0.563,-1.517l0 -65.512zm39.608 20.43c0,-1.331 -0.25,-2.644 -0.751,-3.895 -0.501,-1.268 -1.204,-2.41 -2.127,-3.395 -0.908,-1.001 -1.987,-1.815 -3.239,-2.44 -1.267,-0.626 -2.627,-0.986 -4.097,-1.08 -1.112,-0.031 -2.175,-0.063 -3.239,-0.078 -1.048,-0.016 -2.143,-0.016 -3.269,-0.016l-9.276 0 0 21.775 12.436 0c0.625,0 1.22,0 1.767,0 0.547,0 1.142,-0.031 1.768,-0.094 1.47,-0.093 2.831,-0.438 4.067,-1.032 1.236,-0.595 2.3,-1.377 3.175,-2.362 0.892,-0.986 1.565,-2.112 2.05,-3.379 0.485,-1.252 0.735,-2.597 0.735,-4.004z"/>
  <path id="6" class="fil1" d="M486.203 239.437c0.157,-0.626 0.345,-1.205 0.548,-1.736 0.203,-0.532 0.375,-1.017 0.532,-1.455l25.294 -63.026c0.094,-0.343 0.36,-0.719 0.783,-1.142 0.422,-0.422 0.985,-0.641 1.705,-0.641l7.555 0c0.751,0 1.298,0.188 1.627,0.563 0.329,0.376 0.563,0.704 0.719,0.986l1.549 3.66 24.779 62.04c0,0.093 0.031,0.25 0.078,0.485 0.047,0.235 0.062,0.438 0.062,0.594 0,0.939 -0.688,1.408 -2.064,1.408l-9.245 0c-0.689,0 -1.22,-0.14 -1.596,-0.423 -0.375,-0.281 -0.689,-0.719 -0.939,-1.313l-0.844 -2.159c-0.595,-1.502 -1.189,-3.003 -1.784,-4.505 -0.594,-1.502 -1.173,-3.019 -1.736,-4.552l-28.955 0c-0.814,2.19 -1.596,4.239 -2.362,6.163 -0.766,1.924 -1.424,3.614 -1.955,5.053 -0.438,1.158 -1.252,1.736 -2.44,1.736l-9.387 0c-0.594,0 -1.063,-0.109 -1.423,-0.328 -0.36,-0.219 -0.548,-0.548 -0.548,-0.986 0,-0.188 0.016,-0.329 0.047,-0.422zm32.662 -50.12c-1.689,4.317 -3.362,8.791 -5.036,13.421 -1.674,4.631 -3.363,9.089 -5.053,13.375l19.992 0 -9.903 -26.796z"/>
  <path id="7" class="fil1" d="M550.824 173.502c0,-0.625 0.204,-1.126 0.611,-1.502 0.407,-0.375 0.923,-0.563 1.548,-0.563l49.323 0c0.563,0 1.079,0.172 1.532,0.516 0.454,0.344 0.704,0.861 0.767,1.549l0 8.244c0,0.641 -0.188,1.189 -0.579,1.658 -0.391,0.469 -0.97,0.704 -1.72,0.704l-17.833 0 0 54.906c0,0.564 -0.188,1.064 -0.579,1.502 -0.391,0.438 -0.939,0.657 -1.627,0.657l-9.198 0c-0.563,0 -1.08,-0.204 -1.533,-0.61 -0.453,-0.407 -0.672,-0.923 -0.672,-1.549l0 -54.906 -17.881 0c-0.625,0 -1.141,-0.203 -1.548,-0.595 -0.407,-0.39 -0.611,-0.97 -0.611,-1.767l0 -8.244z"/>
  <path id="8" class="fil1" d="M615.633 173.69c0,-1.502 0.688,-2.253 2.065,-2.253l45.286 0c0.813,0 1.392,0.235 1.736,0.689 0.345,0.453 0.516,1.016 0.516,1.72l0 8.291c0,0.563 -0.187,1.063 -0.578,1.502 -0.392,0.438 -0.986,0.657 -1.768,0.657l-33.366 0 0 14.266 25.716 0c0.627,-0.063 1.127,0.078 1.502,0.407 0.376,0.328 0.564,0.875 0.564,1.658l0 8.541c0,0.563 -0.157,1.063 -0.47,1.502 -0.312,0.438 -0.813,0.657 -1.501,0.657l-25.811 0 0 16.987 34.587 0c0.875,0 1.454,0.188 1.736,0.564 0.281,0.375 0.422,0.954 0.422,1.752l0 8.572c0,1.314 -0.688,1.971 -2.065,1.971l-46.506 0c-0.563,0 -1.048,-0.156 -1.455,-0.469 -0.407,-0.313 -0.61,-0.813 -0.61,-1.502l0 -65.512z"/>
 </g>
</svg>
