<svg fill="none" height="330" viewBox="0 0 412 330" width="412" xmlns="http://www.w3.org/2000/svg"><path d="m146.66 46.933-5.484-5.4836c-.495-.4958-1.299-.4958-1.795 0l-5.483 5.4836c-.496.4958-.496 1.2995 0 1.7953l5.483 5.4836c.496.4957 1.3.4957 1.795 0l5.484-5.4836c.496-.4958.496-1.2995 0-1.7953z" fill="#fa0"/><path d="m169.768 27.1484v9.581" stroke="#fa0" stroke-linecap="round" stroke-linejoin="round" stroke-width="3.80841"/><path d="m169.768 2v9.975" stroke="#fa0" stroke-linecap="round" stroke-linejoin="round" stroke-width="3.80841"/><path d="m187.133 19.3647h-9.975" stroke="#fa0" stroke-linecap="round" stroke-linejoin="round" stroke-width="3.80841"/><path d="m162.378 19.3647h-9.975" stroke="#fa0" stroke-linecap="round" stroke-linejoin="round" stroke-width="3.80841"/><g stroke-width="2.5"><path d="m174.324 313.879c-10.407-3.977-20.28-9.402-29.264-16.031-33.267-24.349-55.06-64.367-55.06-109.689 0-74.131 58.173-134.159 130.044-134.159 71.872 0 129.956 60.269 129.956 134.279 0 45.322-21.793 85.341-55.06 109.689-8.984 6.51-18.768 11.934-29.264 16.032" stroke="#a7a7a7" stroke-dasharray="10 10" stroke-linecap="round" stroke-linejoin="round" stroke-miterlimit="10"/><path d="m410.1 198.6v-52.6c0-4.971-4.029-9-9-9h-101.1c-4.971 0-9 4.029-9 9v52.6c0 4.971 4.029 9 9 9h101.1c4.971 0 9-4.029 9-9z" fill="#fff" stroke="#4c4c4c" stroke-linejoin="round" stroke-miterlimit="10"/><path d="m331.3 154.5h65.9" stroke="#4b4b4b" stroke-linecap="round"/><path d="m331.3 164h64.9" stroke="#4b4b4b" stroke-linecap="round"/><path d="m331.3 173.6h65.9" stroke="#4b4b4b" stroke-linecap="round"/><path d="m303.7 183.1h93.5" stroke="#4b4b4b" stroke-linecap="round"/><path d="m303.7 192.7h93.5" stroke="#4b4b4b" stroke-linecap="round"/></g><path d="m311.8 153.3c.3-.9.9-1.3 1.8-1.3h2.7c1 0 1.6.4 1.8 1.3l6.2 18.1c.4 1.1-.1 1.9-1.3 1.9h-2c-1 0-1.6-.4-1.8-1.4l-.9-3.1h-6.7l-.9 3.1c-.3.9-.9 1.4-1.8 1.4h-2c-1.2 0-1.7-.7-1.3-1.9zm5.3 11.3-1.2-4.1c-.4-1.3-.9-3.7-.9-3.7h-.1s-.5 2.3-.9 3.7l-1.2 4.1z" fill="#ffa400"/><path d="m114.556 315.023v-118.858c0-7.272 5.892-13.165 13.164-13.165h185.309c7.271 0 13.164 5.893 13.164 13.165v118.858z" fill="#e8e8e8" stroke="#4c4c4c" stroke-linejoin="round" stroke-miterlimit="10" stroke-width="2.5"/><path d="m309.894 315.65h-178.914v-109.204c0-3.887 3.134-6.896 6.896-6.896h164.997c3.886 0 6.896 3.134 6.896 6.896v109.204z" fill="#cacaca"/><path d="m285 213.75h-129c-4.004 0-7.25 3.246-7.25 7.25v72c0 4.004 3.246 7.25 7.25 7.25h129c4.004 0 7.25-3.246 7.25-7.25v-72c0-4.004-3.246-7.25-7.25-7.25z" fill="#fff" stroke="#4b4b4b" stroke-linejoin="round" stroke-miterlimit="10" stroke-width="2.5"/><path d="m230 235h43" stroke="#4b4b4b" stroke-linecap="round" stroke-width="2.5"/><path d="m230 257h43" stroke="#4b4b4b" stroke-linecap="round" stroke-width="2.5"/><path d="m230 279h23" stroke="#4b4b4b" stroke-linecap="round" stroke-width="2.5"/><path d="m230 245h43" stroke="#4b4b4b" stroke-linecap="round" stroke-width="2.5"/><path d="m230 267h39" stroke="#4b4b4b" stroke-linecap="round" stroke-width="2.5"/><path d="m209.578 274.66-1.453 3.814c-.307.805-.881 1.479-1.627 1.91-.746.43-1.618.59-2.468.453l-4.027-.647c-.261-.042-.527-.028-.782.04s-.492.189-.697.356l-3.164 2.575c-.668.543-1.502.839-2.363.839-.86 0-1.695-.296-2.363-.839l-3.164-2.578c-.204-.166-.442-.287-.697-.355s-.521-.082-.781-.04l-4.028.647c-.85.137-1.721-.023-2.467-.454-.746-.43-1.321-1.104-1.627-1.909l-1.45-3.812c-.095-.246-.24-.47-.426-.656-.187-.186-.41-.332-.657-.426l-3.811-1.453c-.805-.307-1.479-.882-1.91-1.628-.43-.745-.59-1.617-.453-2.467l.647-4.027c.042-.261.028-.527-.04-.782-.069-.254-.19-.492-.356-.697l-2.574-3.162c-.543-.667-.84-1.502-.84-2.363 0-.86.297-1.695.84-2.362l2.574-3.167c.166-.205.287-.442.356-.697.068-.255.082-.521.04-.781l-.647-4.028c-.137-.85.023-1.721.453-2.467.431-.746 1.105-1.321 1.91-1.627l3.811-1.45c.247-.095.47-.24.657-.426.186-.187.331-.41.426-.657l1.453-3.811c.307-.805.881-1.479 1.627-1.91.746-.43 1.618-.59 2.468-.453l4.027.647c.26.041.526.027.78-.041s.491-.189.695-.355l3.165-2.574c.668-.543 1.502-.84 2.363-.84s1.696.297 2.363.84l3.165 2.574c.205.166.443.287.697.356.255.068.521.082.782.04l4.027-.647c.85-.137 1.722.023 2.468.453.746.431 1.32 1.105 1.627 1.91l1.453 3.811c.095.247.24.47.426.657.187.186.41.331.656.426l3.812 1.453c.805.306 1.479.881 1.91 1.627.43.746.59 1.618.453 2.468l-.647 4.027c-.041.26-.028.525.04.78.067.254.188.491.353.695l2.576 3.165c.542.668.839 1.503.839 2.363 0 .861-.297 1.695-.839 2.363l-2.576 3.165c-.166.205-.287.442-.355.697s-.082.521-.04.782l.647 4.027c.137.85-.023 1.722-.453 2.468-.431.746-1.105 1.32-1.91 1.627l-3.812 1.453c-.246.094-.469.239-.656.425-.186.186-.331.409-.426.655z" fill="#ffa400"/><path d="m181.27 262.64c0 .92.58 1.48 1.4 1.48.8 0 1.4-.56 1.4-1.48v-10.66c0-1.02-.6-1.7-1.56-1.7-.64 0-1.18.26-1.7.62l-2.14 1.48c-.48.32-.7.76-.7 1.18 0 .68.52 1.18 1.16 1.18.28 0 .58-.08.84-.26l1.26-.86h.04zm6.293.16c0 .7.5 1.2 1.3 1.2h6.24c.82 0 1.28-.48 1.28-1.18 0-.72-.46-1.2-1.28-1.2h-3.82v-.04l3.58-4.22c.84-1 1.38-2 1.38-3.3 0-2.2-1.6-3.88-4.18-3.88-2.42 0-3.94 1.36-4.24 2.82-.02.12-.04.24-.04.34 0 .74.54 1.24 1.26 1.24.56 0 .98-.32 1.26-.9.36-.74.86-1.14 1.64-1.14.96 0 1.5.66 1.5 1.56 0 .7-.28 1.26-.8 1.88l-4.24 5.08c-.62.74-.84 1.16-.84 1.74zm10.434-1.36c.58 1.76 1.92 2.78 4.12 2.78s3.54-1.02 4.12-2.78c.2-.62.28-1.38.28-4.24s-.08-3.62-.28-4.24c-.58-1.76-1.92-2.78-4.12-2.78s-3.54 1.02-4.12 2.78c-.2.62-.28 1.38-.28 4.24s.08 3.62.28 4.24zm2.76-.5c-.12-.36-.18-.76-.18-3.74s.06-3.38.18-3.74c.2-.6.64-.9 1.36-.9s1.16.3 1.36.9c.12.36.18.76.18 3.74s-.06 3.38-.18 3.74c-.2.6-.64.9-1.36.9s-1.16-.3-1.36-.9z" fill="#fff"/><path d="m309.894 315.65h-178.914v-109.204c0-3.887 3.134-6.896 6.896-6.896h164.997c3.886 0 6.896 3.134 6.896 6.896v109.204z" stroke="#4c4c4c" stroke-linejoin="round" stroke-miterlimit="10" stroke-width="2.5"/><path d="m220.375 194.911c2.077 0 3.761-1.684 3.761-3.761 0-2.078-1.684-3.762-3.761-3.762-2.078 0-3.762 1.684-3.762 3.762 0 2.077 1.684 3.761 3.762 3.761z" fill="#cacaca" stroke="#4c4c4c" stroke-linejoin="round" stroke-miterlimit="10" stroke-width="3.69418"/><path d="m333.089 328.564h-225.304c-6.519 0-11.785-5.266-11.785-11.786v-2.883h249v2.883c-.125 6.52-5.391 11.786-11.911 11.786z" fill="#e8e8e8" stroke="#4c4c4c" stroke-linejoin="round" stroke-miterlimit="10" stroke-width="2.5"/><path d="m239.808 320.289h-32.472c-3.26 0-5.893-2.633-5.893-5.893v-.501h44.258v.501c0 3.26-2.633 5.893-5.893 5.893z" fill="#4c4c4c"/><path d="m180 95h-169c-4.97056 0-9 4.0294-9 9v125c0 4.971 4.02944 9 9 9h169c4.971 0 9-4.029 9-9v-125c0-4.9706-4.029-9-9-9z" fill="#fff" stroke="#4c4c4c" stroke-linejoin="round" stroke-miterlimit="10" stroke-width="2.5"/><path d="m2 117.75h187" stroke="#4b4b4b" stroke-width="2.5"/><path d="m49.0711 204.616h-7.523c-10.2468 0-18.5481-8.43-18.5481-18.548v-39.82c0-10.247 8.431-18.548 18.5481-18.548h7.523c10.2469 0 18.5481 8.431 18.5481 18.548v39.82c.1297 10.118-8.3012 18.548-18.5481 18.548z" fill="#555"/><path d="m61.9121 205.395v-54.866c0-5.318 4.2803-9.598 9.5983-9.598h3.8912c5.318 0 9.5984 4.28 9.5984 9.598v37.866c0 9.389-7.6128 17-17.0016 17-3.5457 0-6.0863 0-6.0863 0z" fill="#555"/><path d="m27 238v-4.992c0-16.011 13.8896-29.008 31-29.008s31 12.997 31 29.008v4.992" fill="#4a4c4d"/><path d="m27 238v-4.992c0-16.011 13.8896-29.008 31-29.008s31 12.997 31 29.008v4.992" stroke="#4a4c4d" stroke-width="2.57348"/><path d="m58.1516 174.784h-3.8912c-5.318 0-9.5983-4.28-9.5983-9.598v-18.419c0-5.318 4.2803-9.598 9.5983-9.598h3.8912c5.318 0 9.5984 4.28 9.5984 9.598v18.419c0 5.318-4.2804 9.598-9.5984 9.598z" fill="#4b4b4b"/><path d="m57.9 187c-4.9 0-8.9 3.9-8.9 8.7v10.4c0 4.8 4 8.7 8.9 8.7s8.9-3.9 8.9-8.7v-10.4c.1-4.7-3.9-8.7-8.9-8.7z" fill="#b4b4b4" stroke="#4a4c4d" stroke-width="2"/><path d="m34.2998 179.7c3.3137 0 6-2.507 6-5.6s-2.6863-5.6-6-5.6-6 2.507-6 5.6 2.6863 5.6 6 5.6z" fill="#b4b4b4" stroke="#4a4c4d" stroke-width="2"/><path d="m82.2002 179.7c3.3137 0 6-2.507 6-5.6s-2.6863-5.6-6-5.6-6 2.507-6 5.6 2.6863 5.6 6 5.6z" fill="#b4b4b4" stroke="#4a4c4d" stroke-width="2"/><path d="m59.3 204h-2.8c-12.4 0-22.5-10.1-22.5-22.5v-14c0-12.4 10.1-22.5 22.5-22.5h2.8c12.4 0 22.5 10.1 22.5 22.5v14c0 12.4-10.1 22.5-22.5 22.5z" fill="#b4b4b4" stroke="#4a4c4d" stroke-width="2"/><path d="m58.9053 190.706c.1842-1.5 1.5159-2.579 3.0076-2.466l.132.014c2.0549.252 3.9295-1.17 4.2546-3.198l.0201-.142c.1896-1.544 1.5953-2.643 3.1396-2.453s2.6425 1.595 2.4528 3.139c-.6374 5.192-5.3625 8.883-10.5538 8.246-1.5443-.19-2.6425-1.595-2.4529-3.14z" fill="#fff" stroke="#4a4c4d" stroke-width="2"/><path d="m55.4449 168.003c0-3.867-3.1354-7.003-7.0032-7.003s-7.0032 3.136-7.0032 7.003v4.457c0 3.868 3.1354 7.003 7.0032 7.003s7.0032-3.135 7.0032-7.003z" fill="#fff" stroke="#4a4c4d" stroke-width="2"/><path d="m54.1717 168.958c0-1.933-1.5677-3.501-3.5016-3.501s-3.5016 1.568-3.5016 3.501v3.184c0 1.934 1.5677 3.501 3.5016 3.501s3.5016-1.567 3.5016-3.501z" fill="#4b4b4b"/><path clip-rule="evenodd" d="m66.2679 161c3.8678 0 7.0032 3.136 7.0032 7.003v5.094c0 1.286-.3465 2.49-.9513 3.526-3.0769-.085-6.106 1.003-8.429 3.062-2.6978-.972-4.6262-3.555-4.6262-6.588v-5.094c0-3.867 3.1355-7.003 7.0033-7.003z" fill="#fff" fill-rule="evenodd" stroke="#4a4c4d" stroke-width="2"/><path d="m71.9979 168.322c0-1.934-1.5678-3.502-3.5017-3.502-1.9338 0-3.5016 1.568-3.5016 3.502v3.82c0 1.934 1.5678 3.501 3.5016 3.501 1.9339 0 3.5017-1.567 3.5017-3.501z" fill="#4b4b4b"/><path clip-rule="evenodd" d="m58.5617 172.225 2.2616 6.719c.6448 1.916-.3853 3.991-2.3009 4.636-.3762.127-.7705.191-1.1675.191-2.0211 0-3.6596-1.638-3.6596-3.659 0-.397.0646-.792.1913-1.168l2.2616-6.719c.2243-.666.9465-1.025 1.613-.8.3773.127.6735.423.8005.8z" fill="#dcdcdc" fill-rule="evenodd" stroke="#4a4c4d" stroke-width="2"/><path d="m35.5816 174.784h-3.6318c-4.9289 0-8.9498-4.021-8.9498-8.95v-18.029c0-4.929 4.0209-8.95 8.9498-8.95h3.6318c4.9289 0 8.9498 4.021 8.9498 8.95v17.899c.1297 5.059-4.0209 9.08-8.9498 9.08z" fill="#555"/><path d="m13.9001 110.8c2.3748 0 4.3-1.925 4.3-4.3s-1.9252-4.3-4.3-4.3-4.3 1.925-4.3 4.3 1.9252 4.3 4.3 4.3z" fill="#4a4c4d"/><path d="m26.8 110.8c2.3748 0 4.3-1.925 4.3-4.3s-1.9252-4.3-4.3-4.3-4.3 1.925-4.3 4.3 1.9252 4.3 4.3 4.3z" fill="#4a4c4d"/><path d="m39.6999 110.8c2.3748 0 4.3-1.925 4.3-4.3s-1.9252-4.3-4.3-4.3-4.3 1.925-4.3 4.3 1.9252 4.3 4.3 4.3z" fill="#4a4c4d"/><path d="m137.2 126.1c-20.5-2-38.3998 10.1-39.9998 26.9-1 10 3.9998 19.4 12.5998 25.8-1.6 3.5-5 7.9-11.2998 9.3 7.0998 4.3 18.5998 1.8 25.0998-2.6 2.5.7 5.1 1.2 7.8 1.4 20.5 2 38.4-10.1 40-26.9 1.6-16.7-13.7-32-34.2-33.9z" fill="#ffa400"/><path d="m117.8 147.8h36.9" stroke="#fff" stroke-linecap="round" stroke-miterlimit="10" stroke-width="2.5"/><path d="m117.8 157.5h24.7" stroke="#fff" stroke-linecap="round" stroke-miterlimit="10" stroke-width="2.5"/><path d="m117.8 166.5h29.8" stroke="#fff" stroke-linecap="round" stroke-miterlimit="10" stroke-width="2.5"/><path d="m258.5 64h69.3c10.2 0 18.5 8.3 18.5 18.5v2.3c0 10.2-8.3 18.5-18.5 18.5h-69.3c-10.2 0-18.5-8.3-18.5-18.5v-2.3c0-10.2 8.3-18.5 18.5-18.5z" fill="#fff" stroke="#4c4c4c" stroke-linejoin="round" stroke-miterlimit="10" stroke-width="2.5"/><path d="m276.9 78.6h57.8" stroke="#4b4b4b" stroke-linecap="round" stroke-width="2.5"/><path d="m276.9 88.7h52.4" stroke="#4b4b4b" stroke-linecap="round" stroke-width="2.5"/><path d="m259 85.9h-.3c-2 0-3.6-1.6-3.6-3.6v-7.2c0-2 1.6-3.6 3.6-3.6h.3c2 0 3.6 1.6 3.6 3.6v7.2c0 2-1.6 3.6-3.6 3.6z" fill="#ffa400"/><path d="m265.5 79.9v3.1c0 3.6-2.9 6.6-6.5 6.6s-6.5-3-6.5-6.6v-3.1m6.4 9.7v4.9m-3.4.1h6.8" stroke="#ffa400" stroke-linecap="round" stroke-linejoin="round" stroke-miterlimit="10" stroke-width="2"/><path d="m288.8 242.7h69.3c10.2 0 18.5 8.3 18.5 18.5v2.3c0 10.2-8.3 18.5-18.5 18.5h-69.3c-10.2 0-18.5-8.3-18.5-18.5v-2.3c0-10.2 8.3-18.5 18.5-18.5z" fill="#fff" stroke="#4c4c4c" stroke-linejoin="round" stroke-miterlimit="10" stroke-width="2.5"/><path d="m307.2 257.3h57.8" stroke="#4b4b4b" stroke-linecap="round" stroke-width="2.5"/><path d="m307.2 267.4h52.4" stroke="#4b4b4b" stroke-linecap="round" stroke-width="2.5"/><path d="m284.4 258.7s4-3.6 5.8-4.9c.4-.3.8.1.8.4v16c0 .7-.4.8-.8.5-1.8-1.3-5.8-4.6-5.8-4.6z" fill="#ffa400"/><path d="m281.4 258.7h3.3c.6 0 1 .5 1 1.1v5.4c0 .6-.5 1.1-1 1.1h-3.3c-1.2 0-1.8-2.5-1.8-3.9 0-1.7.6-3.7 1.8-3.7z" fill="#ffa400"/><path d="m293.5 266.9c-.1 0-.2 0-.2-.1-.4-.1-.5-.6-.4-.9.4-1.1.6-2.3.6-3.6 0-1.2-.2-2.4-.6-3.6-.1-.4 0-.8.4-.9s.8 0 .9.4c.5 1.3.7 2.7.7 4.1s-.2 2.8-.7 4.1c-.1.4-.4.5-.7.5z" fill="#ffa400"/><path d="m297.1 268.8c-.1 0-.2 0-.3-.1-.3-.2-.5-.6-.4-1 .7-1.7 1-3.6 1-5.5 0-1.8-.3-3.6-1-5.3-.1-.4 0-.8.4-1s.8 0 .9.4c.7 1.9 1.1 3.9 1.1 5.9 0 2.1-.4 4.1-1.1 6-.1.5-.3.6-.6.6z" fill="#ffa400"/></svg>