<?xml version="1.0" encoding="UTF-8"?>
<!DOCTYPE svg PUBLIC "-//W3C//DTD SVG 1.1//EN" "http://www.w3.org/Graphics/SVG/1.1/DTD/svg11.dtd">
<!-- Creator: CorelDRAW 2020 (64-Bit) -->
<svg xmlns="http://www.w3.org/2000/svg" xml:space="preserve" width="394px" height="281px" version="1.1" style="shape-rendering:geometricPrecision; text-rendering:geometricPrecision; image-rendering:optimizeQuality; fill-rule:evenodd; clip-rule:evenodd"
viewBox="0 0 150.842 107.506"
 xmlns:xlink="http://www.w3.org/1999/xlink"
 xmlns:xodm="http://www.corel.com/coreldraw/odm/2003">
 <defs>
  <style type="text/css">
   <![CDATA[
    .fil0 {fill:#041224}
    .fil1 {fill:#0E82BD;fill-rule:nonzero}
   ]]>
  </style>
 </defs>
 <g id="Layer_x0020_1">
  <metadata id="CorelCorpID_0Corel-Layer"/>
  <rect class="fil0" width="150.842" height="107.506"/>
  <path class="fil1" d="M24.971 59.379c0,1.991 0.354,3.854 1.074,5.589 0.719,1.735 1.705,3.242 2.957,4.524 1.242,1.281 2.72,2.296 4.425,3.046 1.696,0.749 3.539,1.123 5.53,1.123 1.971,0 3.804,-0.374 5.5,-1.123 1.705,-0.75 3.183,-1.765 4.445,-3.046 1.262,-1.282 2.247,-2.789 2.967,-4.524 0.719,-1.735 1.074,-3.598 1.074,-5.589 0,-1.971 -0.355,-3.824 -1.074,-5.559 -0.72,-1.734 -1.705,-3.252 -2.967,-4.544 -1.262,-1.291 -2.74,-2.306 -4.445,-3.055 -1.696,-0.749 -3.529,-1.124 -5.5,-1.124 -1.991,0 -3.834,0.375 -5.53,1.124 -1.705,0.749 -3.183,1.764 -4.425,3.055 -1.252,1.292 -2.238,2.81 -2.957,4.544 -0.72,1.735 -1.074,3.588 -1.074,5.559zm-8.575 0.059c0,-2.07 0.266,-4.07 0.798,-6.002 0.532,-1.932 1.291,-3.736 2.277,-5.411 0.985,-1.676 2.158,-3.204 3.528,-4.584 1.361,-1.379 2.888,-2.562 4.564,-3.538 1.666,-0.976 3.469,-1.735 5.381,-2.277 1.922,-0.542 3.923,-0.808 6.013,-0.808 2.07,0 4.061,0.266 5.983,0.808 1.912,0.542 3.715,1.301 5.381,2.277 1.676,0.976 3.204,2.159 4.583,3.538 1.38,1.38 2.553,2.908 3.529,4.584 0.976,1.675 1.735,3.479 2.277,5.411 0.542,1.932 0.808,3.942 0.808,6.032 0,2.09 -0.266,4.09 -0.808,6.002 -0.542,1.913 -1.301,3.706 -2.277,5.382 -0.976,1.676 -2.149,3.194 -3.529,4.564 -1.379,1.37 -2.907,2.543 -4.583,3.518 -1.666,0.976 -3.469,1.735 -5.381,2.267 -1.922,0.533 -3.923,0.799 -6.013,0.799 -2.089,0 -4.09,-0.266 -6.012,-0.799 -1.912,-0.532 -3.716,-1.291 -5.382,-2.277 -1.675,-0.985 -3.203,-2.168 -4.563,-3.538 -1.37,-1.37 -2.543,-2.888 -3.519,-4.554 -0.976,-1.665 -1.725,-3.459 -2.257,-5.381 -0.532,-1.922 -0.798,-3.923 -0.798,-6.013z"/>
  <path id="1" class="fil1" d="M69.295 38.829c0,-0.947 0.433,-1.42 1.301,-1.42l28.534 0c0.513,0 0.877,0.148 1.094,0.434 0.217,0.286 0.325,0.641 0.325,1.084l0 5.224c0,0.355 -0.118,0.67 -0.364,0.946 -0.247,0.276 -0.621,0.414 -1.114,0.414l-21.024 0 0 8.989 16.204 0c0.394,-0.039 0.71,0.05 0.946,0.257 0.237,0.207 0.355,0.552 0.355,1.044l0 5.382c0,0.355 -0.098,0.67 -0.295,0.946 -0.198,0.276 -0.513,0.414 -0.947,0.414l-16.263 0 0 10.704 21.793 0c0.552,0 0.916,0.118 1.094,0.355 0.177,0.237 0.266,0.601 0.266,1.104l0 5.401c0,0.828 -0.434,1.242 -1.301,1.242l-29.303 0c-0.355,0 -0.661,-0.098 -0.917,-0.296 -0.256,-0.197 -0.384,-0.512 -0.384,-0.946l0 -41.278z"/>
  <path id="2" class="fil1" d="M105.428 38.71c0,-0.394 0.128,-0.709 0.385,-0.946 0.256,-0.236 0.581,-0.355 0.976,-0.355l31.077 0c0.355,0 0.68,0.109 0.966,0.326 0.285,0.216 0.443,0.542 0.483,0.975l0 5.195c0,0.404 -0.119,0.749 -0.365,1.044 -0.247,0.296 -0.611,0.444 -1.084,0.444l-11.237 0 0 34.596c0,0.355 -0.118,0.67 -0.364,0.946 -0.247,0.276 -0.592,0.414 -1.025,0.414l-5.796 0c-0.355,0 -0.68,-0.128 -0.966,-0.384 -0.286,-0.257 -0.424,-0.582 -0.424,-0.976l0 -34.596 -11.265 0c-0.395,0 -0.72,-0.128 -0.976,-0.375 -0.257,-0.246 -0.385,-0.611 -0.385,-1.113l0 -5.195z"/>
  <polygon class="fil1" points="26.888,22.68 24.949,22.68 23.953,20.509 23.353,21.346 23.353,22.68 21.681,22.68 21.681,16.902 23.353,16.902 23.353,19.286 24.942,16.902 26.533,16.902 25.076,19.013 "/>
  <path id="1" class="fil1" d="M32.301 22.68l-1.447 0 -1.588 -2.548c-0.205,-0.328 -0.406,-0.726 -0.605,-1.2 0.094,0.373 0.14,0.689 0.14,0.949l0 2.799 -1.438 0 0 -5.778 1.672 0 1.347 2.117c0.268,0.42 0.47,0.791 0.608,1.11 -0.091,-0.494 -0.136,-0.999 -0.136,-1.516l0 -1.711 1.447 0 0 5.778z"/>
  <path id="2" class="fil1" d="M35.802 22.767c-0.813,0 -1.476,-0.27 -1.988,-0.808 -0.513,-0.539 -0.768,-1.259 -0.768,-2.162 0,-0.862 0.245,-1.575 0.734,-2.138 0.49,-0.562 1.17,-0.843 2.039,-0.843 0.804,0 1.461,0.265 1.968,0.795 0.507,0.53 0.759,1.238 0.759,2.123 0,0.917 -0.255,1.651 -0.766,2.204 -0.511,0.553 -1.17,0.829 -1.978,0.829zm-0.007 -1.308c0.3,0 0.517,-0.131 0.648,-0.393 0.131,-0.261 0.198,-0.739 0.198,-1.433 0,-1.007 -0.272,-1.509 -0.813,-1.509 -0.585,0 -0.877,0.573 -0.877,1.721 0,1.076 0.282,1.614 0.844,1.614z"/>
  <polygon id="3" class="fil1" points="46.376,16.902 44.846,22.68 43.357,22.68 42.547,19.491 41.782,22.68 40.23,22.68 38.701,16.902 40.369,16.902 41.173,20.222 41.97,16.902 43.357,16.902 44.21,20.229 45.019,16.902 "/>
  <polygon id="4" class="fil1" points="55.384,16.902 55.384,22.68 53.738,22.68 53.738,18.548 52.662,22.68 51.538,22.68 50.429,18.548 50.429,22.68 49.103,22.68 49.103,16.902 51.415,16.902 52.252,19.972 53.052,16.902 "/>
  <path id="5" class="fil1" d="M58.884 22.767c-0.813,0 -1.476,-0.27 -1.988,-0.808 -0.513,-0.539 -0.768,-1.259 -0.768,-2.162 0,-0.862 0.245,-1.575 0.734,-2.138 0.49,-0.562 1.17,-0.843 2.039,-0.843 0.804,0 1.461,0.265 1.968,0.795 0.507,0.53 0.759,1.238 0.759,2.123 0,0.917 -0.255,1.651 -0.766,2.204 -0.511,0.553 -1.17,0.829 -1.978,0.829zm-0.007 -1.308c0.3,0 0.517,-0.131 0.648,-0.393 0.131,-0.261 0.198,-0.739 0.198,-1.433 0,-1.007 -0.272,-1.509 -0.813,-1.509 -0.585,0 -0.877,0.573 -0.877,1.721 0,1.076 0.282,1.614 0.844,1.614z"/>
  <path id="6" class="fil1" d="M67.511 22.68l-1.965 0 -0.851 -2.208 -0.546 0 0 2.208 -1.776 0 0 -5.778 3.018 0c0.666,0 1.182,0.156 1.551,0.468 0.368,0.312 0.551,0.724 0.551,1.235 0,0.333 -0.068,0.628 -0.203,0.883 -0.136,0.256 -0.41,0.481 -0.825,0.676l1.046 2.516zm-3.362 -3.439l0.758 0c0.223,0 0.402,-0.046 0.538,-0.14 0.135,-0.094 0.203,-0.231 0.203,-0.413 0,-0.371 -0.227,-0.556 -0.681,-0.556l-0.818 0 0 1.109z"/>
  <polygon id="7" class="fil1" points="72.7,21.303 72.7,22.68 68.351,22.68 68.351,16.902 72.7,16.902 72.7,18.237 70.092,18.237 70.092,19.077 72.197,19.077 72.197,20.359 70.092,20.359 70.092,21.303 "/>
  <path id="8" class="fil1" d="M78.755 22.68l-0.319 -1.134 -1.572 0 -0.341 1.134 -1.438 0 1.787 -5.778 1.874 0 1.818 5.778 -1.809 0zm-1.569 -2.399l0.924 0 -0.464 -1.673 -0.46 1.673z"/>
  <path id="9" class="fil1" d="M81.087 22.68l0 -5.778 2.934 0c0.609,0 1.054,0.153 1.333,0.461 0.279,0.307 0.419,0.658 0.419,1.052 0,0.288 -0.081,0.548 -0.242,0.78 -0.161,0.233 -0.402,0.393 -0.721,0.481 0.747,0.18 1.119,0.629 1.119,1.347 0,0.43 -0.131,0.813 -0.395,1.151 -0.265,0.338 -0.829,0.506 -1.694,0.506l-2.753 0zm1.628 -3.569l0.828 0c0.208,0 0.353,-0.052 0.438,-0.155 0.086,-0.105 0.129,-0.216 0.129,-0.334 0,-0.321 -0.199,-0.481 -0.598,-0.481l-0.797 0 0 0.97zm0 2.287l0.871 0c0.216,0 0.375,-0.053 0.476,-0.16 0.101,-0.105 0.152,-0.227 0.152,-0.359 0,-0.135 -0.049,-0.257 -0.147,-0.369 -0.099,-0.112 -0.279,-0.168 -0.54,-0.168l-0.812 0 0 1.056z"/>
  <path id="10" class="fil1" d="M89.149 22.767c-0.813,0 -1.476,-0.27 -1.988,-0.808 -0.513,-0.539 -0.768,-1.259 -0.768,-2.162 0,-0.862 0.245,-1.575 0.734,-2.138 0.49,-0.562 1.17,-0.843 2.039,-0.843 0.804,0 1.461,0.265 1.968,0.795 0.507,0.53 0.759,1.238 0.759,2.123 0,0.917 -0.255,1.651 -0.766,2.204 -0.511,0.553 -1.17,0.829 -1.978,0.829zm-0.007 -1.308c0.3,0 0.517,-0.131 0.648,-0.393 0.131,-0.261 0.198,-0.739 0.198,-1.433 0,-1.007 -0.272,-1.509 -0.813,-1.509 -0.585,0 -0.877,0.573 -0.877,1.721 0,1.076 0.282,1.614 0.844,1.614z"/>
  <path id="11" class="fil1" d="M97.325 16.902l0 3.825c0,0.725 -0.215,1.246 -0.645,1.564 -0.431,0.317 -0.992,0.476 -1.684,0.476 -0.729,0 -1.314,-0.153 -1.755,-0.458 -0.442,-0.304 -0.663,-0.799 -0.663,-1.488l0 -3.919 1.802 0 0 3.71c0,0.277 0.059,0.477 0.176,0.604 0.117,0.127 0.304,0.191 0.562,0.191 0.213,0 0.389,-0.046 0.527,-0.137 0.137,-0.092 0.219,-0.195 0.245,-0.312 0.027,-0.115 0.04,-0.341 0.04,-0.676l0 -3.38 1.395 0z"/>
  <polygon id="12" class="fil1" points="100.641,18.288 100.641,22.68 98.961,22.68 98.961,18.288 97.765,18.288 97.765,16.902 101.837,16.902 101.837,18.288 "/>
 </g>
</svg>
