<?xml version="1.0" encoding="UTF-8"?>
<!DOCTYPE svg PUBLIC "-//W3C//DTD SVG 1.1//EN" "http://www.w3.org/Graphics/SVG/1.1/DTD/svg11.dtd">
<!-- Creator: CorelDRAW 2020 (64-Bit) -->
<svg xmlns="http://www.w3.org/2000/svg" xml:space="preserve" width="0.78046in" height="1in" version="1.1" style="shape-rendering:geometricPrecision; text-rendering:geometricPrecision; image-rendering:optimizeQuality; fill-rule:evenodd; clip-rule:evenodd"
viewBox="0 0 836.95 1072.38"
 xmlns:xlink="http://www.w3.org/1999/xlink"
 xmlns:xodm="http://www.corel.com/coreldraw/odm/2003">
 <defs>
  <style type="text/css">
   <![CDATA[
    .fil4 {fill:#433F43}
    .fil2 {fill:#AA5D2D}
    .fil0 {fill:#DC8655}
    .fil6 {fill:#FF9A00}
    .fil5 {fill:#FFA712}
    .fil3 {fill:#FFDCA7}
    .fil1 {fill:#FFE8C7}
   ]]>
  </style>
 </defs>
 <g id="Layer_x0020_1">
  <metadata id="CorelCorpID_0Corel-Layer"/>
  <g id="_1441076435120">
   <path class="fil0" d="M93.99 337.75c7.93,-91.01 48.18,-156.86 117.67,-181.12 40.23,-14.04 87.34,-14.68 125.85,2.75 42.44,19.21 55.35,36.35 80.58,66.04 6.13,-6.53 10.65,-12.22 17.12,-19.02 49.6,-52.13 116.09,-76.2 190.02,-49.86 39.62,14.11 63.48,37.22 82.44,66.31 13.56,20.81 38.57,80.66 33.9,111.76 1.38,2.41 0.68,-0.03 1.83,4.97 6.42,28.09 -6.81,95.02 -15.56,119.52 -13.47,37.71 -32.43,59.43 -61.96,78.48 -29.23,18.86 -73.33,27.99 -114.46,19.53 -30.55,-6.28 -72.88,-29.09 -88.01,-51.56 -6.46,7.61 -10.03,18.46 -16.87,26.3 -5.46,6.25 -16.47,14.34 -28.94,14.01 -23.76,-0.63 -34,-24.57 -43.9,-41.19 -4.6,10.05 -26.07,25.57 -38.6,33.05 -80.01,47.78 -189.4,20.64 -225.97,-78.72 -9.25,-25.13 -22.75,-92.85 -15.12,-121.26zm-41.25 -337.75l8.45 0c4.97,0.94 9.85,3.17 14.19,4.75l83.51 23.31c78.19,17.73 165.82,28.49 260.55,28.49 99.82,0 234.24,-15.84 318.09,-44.26 16.99,-5.76 45.05,-17.46 55.11,-8.49 16.89,15.06 -5.15,36.1 -13.34,48.16 -14.27,21.02 -26.65,28.45 -33.11,38.1 37.3,55.71 66.73,119.89 82.56,198.1 16.8,83 7.81,176.07 -26.88,234.58 -29.7,50.08 -29.22,23.9 -11.09,69.39 23.49,58.94 43.52,136.54 14.99,202.61 -7.32,16.95 -16.73,28.42 -28.66,40.45 -21.1,21.27 -66.78,41.97 -95.61,44.49 8.83,-18.96 16.72,-32.34 22.71,-54.96 18.52,-70 4.8,-132.14 -11.57,-196.7 -9.28,2.19 -20.52,8.89 -30,13.01 -129.53,56.24 -358.93,55.63 -489.85,-0.75 -10.16,-4.38 -18.93,-10.2 -28.14,-12.39 -10.8,43.75 -21.64,81.34 -20.61,132.45 1.06,52.8 11.28,77.07 31.65,119.35 -14.33,-1.16 -37.41,-9.82 -48.64,-14.33 -45.21,-18.18 -74.51,-51.61 -86.03,-102.47 -8.26,-36.44 -1.53,-80.53 6.34,-111.92 5.31,-21.16 18.24,-60.88 28.27,-80.64l5.67 -8.99c-10.58,-15.8 -22.31,-31 -31.3,-48.29 -29.64,-57.03 -35.12,-136.62 -25.9,-199.51 12.76,-87.11 46.84,-164.2 86.52,-223.46l-33.84 -39.47c-11.09,-15.11 -27.56,-33.65 -10.9,-47.17 2.23,-1.81 4.54,-2.88 6.88,-3.42z"/>
   <path class="fil1" d="M579.58 290.82c29.05,-7.07 49.06,21.33 52.38,47.15 4.09,31.87 -10.76,61.58 -34.52,68.34 -60.35,17.16 -77.93,-100.86 -17.86,-115.48zm-336.2 -0.6c59.48,-11.99 71.4,108.61 11.84,117.1 -58.96,8.4 -70.82,-105.21 -11.84,-117.1zm-149.39 47.53c8.57,16.47 5.1,107.88 90.5,148.51 70.89,33.73 139.38,9.13 182.18,-31.75l4.05 -14.51c6.49,-19.07 25.37,-31.97 50.64,-30.83 25.18,1.14 38.77,13.96 46.25,33.19l2.98 14.29c8.41,3.81 9.92,7.25 17.45,13.04 17.28,13.29 39.52,23.42 61.8,28.46 62.36,14.12 134.6,-13.21 164.71,-69.03 18,-33.37 21.29,-54.81 27.02,-94.51 4.67,-31.1 -20.34,-90.95 -33.9,-111.76 -18.96,-29.09 -42.82,-52.2 -82.44,-66.31 -73.93,-26.34 -140.42,-2.27 -190.02,49.86 -6.47,6.8 -10.99,12.49 -17.12,19.02 -25.23,-29.69 -38.14,-46.83 -80.58,-66.04 -38.5,-17.43 -85.62,-16.79 -125.85,-2.75 -69.49,24.25 -109.74,90.11 -117.67,181.12z"/>
   <path class="fil2" d="M155.67 879.69c10.57,12.87 18.25,26.37 31.55,37.43 6.99,5.82 9.95,9.59 17.96,15.55 7.68,5.72 13.56,9.25 21.56,14.48l32.19 16.32c5.61,0.55 1.5,-0.41 6.31,1.34 6.21,2.26 3.35,1.36 5.49,2.85 10.41,1.21 22.21,6.07 33.31,8.66 10.63,2.48 27.6,2.92 35.56,8.09 11.95,0 25.15,1.09 37.63,2.41 12.64,1.34 24.48,1.77 40.12,1.77 36.12,-0 52.33,-4.19 79.99,-4.19 2.71,-1.76 62.03,-15.74 68.72,-16.77 4.71,-2.47 5.47,-3.57 12.28,-4.17l31.71 -16.1c7.24,-5.19 13.34,-8.75 20.57,-13.6 31.02,-20.85 39.19,-41.77 50.87,-54.08 8.83,-18.96 16.72,-32.34 22.71,-54.96 18.52,-70 4.8,-132.14 -11.57,-196.7 -9.28,2.19 -20.52,8.89 -30,13.01 -129.53,56.24 -358.93,55.63 -489.85,-0.75 -10.16,-4.38 -18.93,-10.2 -28.14,-12.39 -10.8,43.75 -21.64,81.34 -20.61,132.45 1.06,52.8 11.28,77.07 31.65,119.35z"/>
   <path class="fil3" d="M373.68 504.69c-4.17,-20.18 -8.12,-25.22 -7.01,-50.17 -42.81,40.88 -111.29,65.48 -182.18,31.75 -85.4,-40.63 -81.93,-132.05 -90.5,-148.51 -7.63,28.42 5.87,96.13 15.12,121.26 36.57,99.36 145.96,126.5 225.97,78.72 12.52,-7.48 33.99,-23 38.6,-33.05z"/>
   <path class="fil3" d="M470.59 456.66c1.36,22.34 -3.69,30.72 -7.2,48.91 15.14,22.47 57.47,45.28 88.01,51.56 41.13,8.45 85.23,-0.67 114.46,-19.53 29.53,-19.05 48.48,-40.77 61.96,-78.48 8.76,-24.51 21.98,-91.43 15.56,-119.52 -1.14,-5 -0.44,-2.56 -1.83,-4.97 -5.73,39.7 -9.02,61.14 -27.02,94.51 -30.11,55.82 -102.34,83.15 -164.71,69.03 -22.27,-5.04 -44.52,-15.18 -61.8,-28.46 -7.53,-5.79 -9.04,-9.23 -17.45,-13.04z"/>
   <path class="fil4" d="M243.38 290.22c-58.98,11.89 -47.12,125.5 11.84,117.1 59.55,-8.49 47.63,-129.09 -11.84,-117.1z"/>
   <path class="fil4" d="M579.58 290.82c-60.07,14.62 -42.49,132.65 17.86,115.48 23.76,-6.76 38.61,-36.46 34.52,-68.34 -3.31,-25.82 -23.33,-54.22 -52.38,-47.15z"/>
   <path class="fil5" d="M497.34 984.41c3.34,4.57 7.96,12.05 11.34,17.58 24.55,40.22 -6.68,59.96 16.87,69.18 1.36,0.53 2.65,0.93 3.88,1.21l8.01 0c11.47,-3.16 14.45,-20.68 15.6,-32.01 1.94,-19.18 -10.3,-41.87 -12.12,-49.68 10.24,6.86 21.53,26.85 24.67,40.26 2.02,8.63 1.76,22.43 6.39,27.15 13.65,13.93 44.48,0.93 21.32,-50.67 -11.33,-25.24 -19.56,-28.27 -27.24,-39.8 -6.69,1.03 -66.01,15.01 -68.72,16.77z"/>
   <path class="fil5" d="M295.87 990.7l0 0zm13.09 81.69l-10.59 0c-10.51,-3.99 -13.01,-20.92 -13.07,-33.45 -0.15,-33.19 5.45,-26.29 10.56,-48.23 -27.49,18.41 -23.27,61.14 -32.21,68.38 -11.77,9.52 -42.9,6.06 -19.33,-52.9 7.57,-18.93 19.63,-28.42 26.41,-38.52 10.41,1.21 22.21,6.07 33.31,8.66 10.63,2.48 27.6,2.92 35.56,8.09 -6.66,11.22 -17.06,24.67 -19.94,40.56 -3.31,18.24 8.09,40.19 -8.1,46.53 -0.9,0.35 -1.76,0.64 -2.6,0.88z"/>
   <path class="fil6" d="M366.67 454.52c-1.11,24.95 2.84,29.99 7.01,50.17 9.9,16.63 20.14,40.56 43.9,41.19 12.47,0.33 23.48,-7.76 28.94,-14.01 6.84,-7.84 10.42,-18.69 16.87,-26.3 3.5,-18.18 8.56,-26.57 7.2,-48.91l-2.98 -14.29c-6.6,1.42 -1.35,-2.79 -6.18,5.84 -6.99,12.49 -17.14,40.01 -43.92,39.1 -29.37,-1 -39.09,-38.55 -46.8,-47.3l-4.05 14.51z"/>
   <path class="fil5" d="M370.72 440.01c7.71,8.76 17.42,46.3 46.8,47.3 26.77,0.91 36.93,-26.61 43.92,-39.1 4.83,-8.63 -0.42,-4.42 6.18,-5.84 -7.48,-19.23 -21.07,-32.05 -46.25,-33.19 -25.27,-1.15 -44.15,11.76 -50.64,30.83z"/>
   <path class="fil5" d="M578.33 963.47c8.99,11.85 23.45,14.18 31.57,39.93 3.83,12.15 0.08,22.94 2.72,32.88 5.78,21.71 49.8,18.75 28.12,-46.97 -5.11,-15.49 -18.74,-34.28 -30.71,-41.94l-31.71 16.1z"/>
   <path class="fil5" d="M258.93 963.47l-32.19 -16.32c-4.35,5.11 -4.46,2.13 -17.08,18.09 -18.59,23.52 -27.65,71.13 -9.21,81.26 7.59,4.17 19.66,0.91 22.91,-6.82 5.25,-12.46 -5.81,-30.76 15.57,-57.74 6.55,-8.27 12.54,-10.27 19.99,-18.48z"/>
  </g>
 </g>
</svg>
