<?xml version="1.0" encoding="UTF-8"?>
<!DOCTYPE svg PUBLIC "-//W3C//DTD SVG 1.1//EN" "http://www.w3.org/Graphics/SVG/1.1/DTD/svg11.dtd">
<!-- Creator: CorelDRAW 2020 (64-Bit) -->
<svg xmlns="http://www.w3.org/2000/svg" xml:space="preserve" width="394px" height="281px" version="1.1" style="shape-rendering:geometricPrecision; text-rendering:geometricPrecision; image-rendering:optimizeQuality; fill-rule:evenodd; clip-rule:evenodd"
viewBox="0 0 770.337 549.024"
 xmlns:xlink="http://www.w3.org/1999/xlink"
 xmlns:xodm="http://www.corel.com/coreldraw/odm/2003">
 <defs>
  <style type="text/css">
   <![CDATA[
    .fil0 {fill:#0C86A7}
    .fil1 {fill:#F4CA14;fill-rule:nonzero}
   ]]>
  </style>
 </defs>
 <g id="Layer_x0020_1">
  <metadata id="CorelCorpID_0Corel-Layer"/>
  <rect class="fil0" width="770.337" height="549.024"/>
  <path class="fil1" d="M90.979 227.273c0,-4.097 1.962,-6.146 5.884,-6.146l74.187 0c8.805,0 16.912,1.744 24.322,5.188 7.41,3.442 13.774,8.02 19.135,13.773 5.362,5.797 9.503,12.379 12.467,19.832 2.964,7.498 4.445,15.256 4.445,23.363 0,7.978 -1.438,15.605 -4.358,23.015 -2.921,7.366 -7.018,13.905 -12.292,19.615 -5.275,5.71 -11.551,10.287 -18.874,13.73 -7.323,3.443 -15.299,5.187 -24.017,5.187l-42.977 0 0 64.99c0,3.748 -1.962,5.622 -5.884,5.622l-26.285 0c-3.835,0 -5.753,-1.874 -5.753,-5.622l0 -182.547zm102.519 55.706c0,-3.618 -0.698,-7.149 -2.092,-10.636 -1.395,-3.443 -3.313,-6.538 -5.754,-9.241 -2.441,-2.658 -5.405,-4.838 -8.805,-6.494 -3.399,-1.7 -7.104,-2.528 -11.115,-2.528l-36.831 0 0 57.798 36.831 0c3.923,0 7.585,-0.785 10.984,-2.398 3.4,-1.569 6.364,-3.705 8.849,-6.364 2.485,-2.702 4.446,-5.753 5.841,-9.24 1.394,-3.487 2.092,-7.105 2.092,-10.897z"/>
  <path id="1" class="fil1" d="M251.295 226.881c0,-1.744 0.567,-3.138 1.7,-4.184 1.133,-1.047 2.572,-1.57 4.315,-1.57l137.433 0c1.569,0 3.008,0.48 4.272,1.439 1.264,0.959 1.962,2.397 2.136,4.315l0 22.971c0,1.787 -0.523,3.313 -1.613,4.62 -1.089,1.308 -2.703,1.962 -4.795,1.962l-49.69 0 0 152.993c0,1.569 -0.523,2.964 -1.613,4.185 -1.09,1.22 -2.615,1.83 -4.533,1.83l-25.63 0c-1.569,0 -3.007,-0.566 -4.271,-1.699 -1.264,-1.134 -1.875,-2.572 -1.875,-4.316l0 -152.993 -49.821 0c-1.743,0 -3.182,-0.567 -4.315,-1.657 -1.133,-1.09 -1.7,-2.702 -1.7,-4.925l0 -22.971z"/>
  <path id="2" class="fil1" d="M431.88 227.404c0,-4.184 1.918,-6.277 5.754,-6.277l126.186 0c2.267,0 3.88,0.654 4.839,1.918 0.959,1.264 1.438,2.834 1.438,4.795l0 23.101c0,1.57 -0.522,2.964 -1.612,4.185 -1.09,1.221 -2.746,1.83 -4.926,1.83l-92.973 0 0 39.753 71.659 0c1.743,-0.174 3.138,0.218 4.184,1.134 1.046,0.914 1.569,2.44 1.569,4.62l0 23.799c0,1.568 -0.436,2.964 -1.308,4.184 -0.871,1.22 -2.266,1.831 -4.184,1.831l-71.92 0 0 47.336 96.373 0c2.441,0 4.054,0.523 4.838,1.57 0.785,1.045 1.177,2.658 1.177,4.881l0 23.887c0,3.661 -1.918,5.491 -5.754,5.491l-129.586 0c-1.57,0 -2.921,-0.436 -4.054,-1.307 -1.133,-0.872 -1.7,-2.267 -1.7,-4.184l0 -182.547z"/>
  <path class="fil1" d="M112.787 142.631l16.575 0.99c-0.783,7.223 -3.457,12.763 -8.021,16.619 -4.565,3.855 -10.179,5.79 -16.841,5.79 -8.021,0 -14.491,-2.659 -19.411,-7.962 -4.934,-5.303 -7.401,-12.645 -7.401,-21.981 0,-9.263 2.334,-16.737 7.002,-22.424 4.668,-5.688 11.183,-8.524 19.544,-8.524 7.815,0 13.827,2.157 18.022,6.47 4.181,4.314 6.559,10.045 7.106,17.166l-16.93 0.915c0,-3.944 -0.753,-6.78 -2.259,-8.538 -1.507,-1.758 -3.295,-2.63 -5.333,-2.63 -5.687,0 -8.538,5.747 -8.538,17.255 0,6.44 0.738,10.828 2.215,13.132 1.492,2.32 3.575,3.472 6.249,3.472 4.771,0 7.445,-3.25 8.021,-9.75z"/>
  <path id="1" class="fil1" d="M178.244 121.093l0 44.051 -15.955 0 0 -7.238c-2.333,5.421 -6.898,8.124 -13.693,8.124 -4.181,0 -7.416,-1.167 -9.721,-3.486 -2.29,-2.319 -3.442,-5.643 -3.442,-9.971l0 -31.48 17.284 0 0 27.713c0,1.743 0.236,2.954 0.709,3.663 0.487,0.71 1.418,1.064 2.807,1.064 1.477,0 2.673,-0.532 3.605,-1.581 0.93,-1.048 1.388,-2.54 1.388,-4.446l0 -26.413 17.018 0z"/>
  <path id="2" class="fil1" d="M183.429 152.647l13.649 -1.862c0.783,3.191 3.886,4.787 9.307,4.787 4.49,0 6.736,-0.872 6.736,-2.6 0,-0.754 -0.428,-1.33 -1.3,-1.758 -0.872,-0.414 -2.939,-0.843 -6.174,-1.27 -8.997,-1.242 -14.596,-3.176 -16.827,-5.821 -2.23,-2.629 -3.353,-5.569 -3.353,-8.804 0,-4.506 1.876,-8.155 5.643,-10.932 3.767,-2.791 8.701,-4.181 14.817,-4.181 10.71,0 17.535,3.841 20.489,11.538l-13.029 2.467c-1.226,-2.6 -3.811,-3.9 -7.74,-3.9 -1.862,0 -3.265,0.251 -4.181,0.754 -0.916,0.516 -1.374,1.004 -1.374,1.506 0,1.433 1.388,2.319 4.165,2.63 7.224,0.812 12.129,1.625 14.699,2.466 2.571,0.828 4.772,2.364 6.589,4.58 1.817,2.231 2.732,4.919 2.732,8.065 0,4.816 -2.008,8.643 -6.041,11.479 -4.033,2.821 -9.588,4.239 -16.663,4.239 -11.937,0 -19.308,-4.461 -22.144,-13.383z"/>
  <path id="3" class="fil1" d="M261.929 121.093l0 11.168 -8.775 0 0 16.235c0,2.23 0.414,3.545 1.256,3.959 0.827,0.428 1.699,0.635 2.585,0.635 1.388,0 3.028,-0.236 4.934,-0.709l0 12.32c-3.398,0.65 -6.751,0.975 -10.031,0.975 -5.317,0 -9.218,-1.138 -11.714,-3.427 -2.482,-2.275 -3.737,-5.924 -3.737,-10.917l0.044 -5.156 0 -13.915 -6.559 0 0 -11.168 6.559 0 0.266 -14.359 16.397 -0.266 0 14.625 8.775 0z"/>
  <path id="4" class="fil1" d="M289.184 166.03c-7.298,0 -13.088,-2.274 -17.387,-6.809 -4.299,-4.55 -6.456,-9.883 -6.456,-15.999 0,-6.574 2.245,-12.055 6.736,-16.442 4.477,-4.387 10.312,-6.574 17.505,-6.574 7.239,0 13.059,2.157 17.461,6.485 4.402,4.329 6.604,9.75 6.604,16.28 0,6.574 -2.231,12.054 -6.692,16.456 -4.461,4.402 -10.37,6.603 -17.771,6.603zm0.265 -10.458c2.66,0 4.3,-1.389 4.875,-4.181 0.591,-2.778 0.887,-5.688 0.887,-8.716 0,-4.136 -0.414,-7.105 -1.241,-8.922 -0.842,-1.817 -2.319,-2.733 -4.476,-2.733 -1.979,0 -3.427,0.945 -4.343,2.822 -0.916,1.876 -1.374,4.963 -1.374,9.262 0,5.052 0.473,8.391 1.418,10.016 0.945,1.639 2.364,2.452 4.254,2.452z"/>
  <path id="5" class="fil1" d="M386.962 165.144l-16.751 0 0 -27.551c0,-1.846 -0.266,-3.131 -0.798,-3.87 -0.533,-0.739 -1.463,-1.107 -2.807,-1.107 -3.206,0 -4.816,2.348 -4.816,7.06l0 25.468 -16.575 0 0 -27.521c0,-3.515 -1.359,-5.273 -4.062,-5.273 -2.792,0 -4.18,1.758 -4.18,5.273l0 27.521 -16.664 0 0 -44.051 15.511 0 0 5.968c2.778,-4.565 6.796,-6.855 12.084,-6.855 5.673,0 9.809,2.29 12.365,6.855 2.85,-4.565 7.238,-6.855 13.132,-6.855 2.822,0 5.303,0.591 7.445,1.773 2.157,1.182 3.709,2.704 4.668,4.565 0.96,1.861 1.448,4.742 1.448,8.642l0 29.958z"/>
  <path id="6" class="fil1" d="M413.419 104.164l0 13.65 -17.283 0 0 -13.65 17.283 0zm0 16.929l0 44.051 -17.283 0 0 -44.051 17.283 0z"/>
  <path id="7" class="fil1" d="M418.59 152.647l13.649 -1.862c0.783,3.191 3.886,4.787 9.307,4.787 4.49,0 6.736,-0.872 6.736,-2.6 0,-0.754 -0.429,-1.33 -1.3,-1.758 -0.872,-0.414 -2.939,-0.843 -6.175,-1.27 -8.997,-1.242 -14.595,-3.176 -16.826,-5.821 -2.23,-2.629 -3.353,-5.569 -3.353,-8.804 0,-4.506 1.876,-8.155 5.643,-10.932 3.767,-2.791 8.701,-4.181 14.816,-4.181 10.711,0 17.535,3.841 20.49,11.538l-13.029 2.467c-1.227,-2.6 -3.812,-3.9 -7.741,-3.9 -1.861,0 -3.264,0.251 -4.181,0.754 -0.915,0.516 -1.373,1.004 -1.373,1.506 0,1.433 1.388,2.319 4.165,2.63 7.224,0.812 12.129,1.625 14.699,2.466 2.571,0.828 4.771,2.364 6.588,4.58 1.818,2.231 2.733,4.919 2.733,8.065 0,4.816 -2.008,8.643 -6.042,11.479 -4.032,2.821 -9.587,4.239 -16.663,4.239 -11.936,0 -19.307,-4.461 -22.143,-13.383z"/>
  <path id="8" class="fil1" d="M498.611 149.279l16.043 1.078c-0.946,4.343 -3.383,8.036 -7.298,11.094 -3.899,3.058 -9.188,4.579 -15.851,4.579 -7.415,0 -13.324,-2.141 -17.741,-6.426 -4.417,-4.284 -6.618,-9.601 -6.618,-15.939 0,-6.588 2.171,-12.143 6.529,-16.663 4.358,-4.535 10.178,-6.796 17.446,-6.796 7.032,0 12.719,2.128 17.063,6.397 4.343,4.269 6.514,10.075 6.514,17.416 0,0.606 -0.014,1.448 -0.044,2.512l-29.427 0c0.059,2.792 0.547,4.86 1.477,6.219 0.917,1.344 2.675,2.024 5.274,2.024 3.768,0 5.968,-1.832 6.633,-5.495zm-1.24 -11.434c-0.03,-2.94 -0.621,-4.92 -1.773,-5.924 -1.153,-1.019 -2.586,-1.521 -4.3,-1.521 -4.047,0 -6.071,2.481 -6.071,7.445l12.144 0z"/>
  <path id="9" class="fil1" d="M564.422 165.144l-16.22 0 0 -5.85c-2.393,4.491 -6.338,6.736 -11.833,6.736 -5.067,0 -9.173,-1.979 -12.335,-5.938 -3.147,-3.974 -4.727,-9.735 -4.727,-17.284 0,-7.061 1.58,-12.674 4.756,-16.825 3.162,-4.152 7.357,-6.219 12.572,-6.219 4.358,0 7.948,1.654 10.769,4.978l0 -18.717 17.018 0 0 59.119zm-17.018 -28.289c0,-3.944 -1.625,-5.923 -4.86,-5.923 -2.275,0 -3.752,1.255 -4.461,3.766 -0.695,2.512 -1.049,5.584 -1.049,9.218 0,7.121 1.802,10.681 5.421,10.681 1.374,0 2.541,-0.562 3.502,-1.684 0.959,-1.123 1.447,-2.851 1.447,-5.156l0 -10.902z"/>
 </g>
</svg>
