<?xml version="1.0" encoding="UTF-8"?>
<!DOCTYPE svg PUBLIC "-//W3C//DTD SVG 1.1//EN" "http://www.w3.org/Graphics/SVG/1.1/DTD/svg11.dtd">
<!-- Creator: CorelDRAW 2020 (64-Bit) -->
<svg xmlns="http://www.w3.org/2000/svg" xml:space="preserve" width="175.131mm" height="112.776mm" version="1.1" style="shape-rendering:geometricPrecision; text-rendering:geometricPrecision; image-rendering:optimizeQuality; fill-rule:evenodd; clip-rule:evenodd"
viewBox="0 0 553743.18 356586.24"
 xmlns:xlink="http://www.w3.org/1999/xlink"
 xmlns:xodm="http://www.corel.com/coreldraw/odm/2003">
 <defs>
  <style type="text/css">
   <![CDATA[
    .fil4 {fill:#04024C}
    .fil31 {fill:#050128}
    .fil3 {fill:#090747}
    .fil10 {fill:#161464}
    .fil25 {fill:#161562}
    .fil1 {fill:#191563}
    .fil18 {fill:#191564}
    .fil19 {fill:#1A1562}
    .fil26 {fill:#1B145D}
    .fil30 {fill:#251758}
    .fil5 {fill:#2A34D3}
    .fil7 {fill:#2B34CC}
    .fil27 {fill:#2D0C0C}
    .fil13 {fill:#464DDB}
    .fil2 {fill:#4A52E1}
    .fil28 {fill:#571B11}
    .fil24 {fill:#6C71EB}
    .fil12 {fill:#6C76EA}
    .fil29 {fill:#8A76CF}
    .fil21 {fill:#963C01}
    .fil11 {fill:#D96704}
    .fil8 {fill:#DD6B01}
    .fil9 {fill:#E7D8BB}
    .fil15 {fill:#EF5471}
    .fil23 {fill:#F99729}
    .fil17 {fill:#FC9325}
    .fil22 {fill:#FCF7F5}
    .fil14 {fill:#FD8A9B}
    .fil0 {fill:#FDE1D7}
    .fil20 {fill:#FDE1DA}
    .fil6 {fill:#FE922A}
    .fil16 {fill:#FEFEFC}
    .fil32 {fill:#191563;fill-rule:nonzero}
   ]]>
  </style>
 </defs>
 <g id="Layer_x0020_1">
  <metadata id="CorelCorpID_0Corel-Layer"/>
  <path class="fil0" d="M264320.48 231723.64c436.34,-38.58 -210.27,-1757.06 3128.05,-486.61 971.96,369.94 1315.35,805.33 1438.66,1795 83.47,671.58 -691.5,1849.39 -930.54,2008.11 -2472.91,1640.39 -2494.41,185.6 -3219.43,-169.16l-416.74 -3147.34zm6302.59 -17739.77c-2075.46,-6441.08 2785.62,-10238.19 6679.8,-6667.16 3396.5,3114.77 1180.96,9599.49 -6679.8,6667.16zm-158401.69 -19561.33c-3564.4,-11209.84 12431.91,-14411.56 14924.11,-5703.73 3105.92,10853.18 -12062.28,14703.41 -14924.11,5703.73zm-19941.07 -32980.06l-754.74 -3964.37 4984.71 -548.59c311.45,3514.12 -257.06,5756.85 -4229.97,4512.96zm28368.45 -19724.48c-725.97,-3593.48 3746.84,-3833.79 4531.3,-1422.22 1192.98,3666.21 -3962.48,4238.19 -4531.3,1422.22zm-19047.52 -17500.1c-1443.4,-1970.49 -3325.36,-3262.12 -2760.33,-6533.72 546.06,-3162.2 2658.83,-4249.58 5830.52,-4739.98 -1098.12,2174.43 -1812.71,3339.27 -1286.57,6518.23 3336.42,1318.19 4367.83,1646.71 6719.64,-930.23 -65.13,5023.61 -3440.77,6319.98 -8503.26,5685.71zm39145.11 -27257.05c3226.71,10487.03 -6050.27,11628.47 -9035.41,7455.41 -4078.83,-5701.83 2106.77,-10770.34 9035.41,-7455.41zm-54163.13 -6867.93c-2678.12,-6452.15 1565.45,-11113.4 6182.12,-6951.72 1904.09,1716.59 1484.82,4662.2 225.13,6060.07 -1837.69,2040.05 -3707.94,1389.33 -6407.25,891.65zm88098.39 -17287.93c-16346.64,-462.27 -8839.69,-11458.36 -7006.43,-12651.34 3155.88,-2053.96 7658.09,-1281.83 6521.39,4475.02 -879.32,4453.2 -2374.89,304.49 -1567.98,4837.37 425.27,2387.54 936.87,1236.3 2053.01,3338.95zm-69429.03 -33390.16c-1687.82,3843.59 -2044.16,3095.17 -3347.17,-117.94 2290.79,-1476.29 1869.94,-678.54 3347.17,117.94zm50416.61 1186.02c-2404.93,555.54 -5368.57,1305.23 -6945.08,-867.94 -1312.82,-1809.55 -1299.85,-5293.32 874.89,-6837.58 5202.57,-3694.03 9456.26,2261.38 6070.19,7705.52zm-62849.46 -6552.38c-8203.83,9790.15 -16883.21,22595.79 -22997.35,37048.46 -4560.39,10779.82 -13100.01,35219.31 -12438.55,48033.17 10568.29,6101.49 10323.56,15477.44 5184.55,20828.3 -1062.39,1106.66 -1700.78,1359.61 -2914,2102.34l-3246.94 2166.84c852.13,16198.98 7260.33,47870.97 15234.29,60060.04 6719.01,-1419.37 11773.6,-126.16 14106.13,4666 3722.49,7648.29 -517.6,10697.61 -3169.48,14749.25 4872.78,9439.18 21240.92,27299.1 30553.63,34239.13 4297.64,-2080.52 1382.38,-6583.05 18796.79,-15952.67 5091.9,-2739.78 3888.8,-4257.8 8132.06,-14508.95 2729.66,-6594.75 5023.61,-14113.72 8193.4,-20237.66 2384.06,-4604.97 5016.97,-3771.82 6337.05,-7916.73 2197.51,-6900.5 631.11,-1469.65 4892.7,-10019.39l9625.73 -29852.32c-658.3,-2368.89 208.05,-1594.22 -1801.64,-2629.43l-3633.64 -363.3c-4351.39,-1005.8 -7220.17,-1688.45 -10665.99,-3867.94 291.21,-2061.55 9251.05,-26492.82 11982.92,-29242.71l2370.47 -7167.37c1758.64,-6054.38 4932.23,-12202.99 7162.94,-18196.98 3268.13,-8782.77 4009.59,-13585.05 6639.33,-18274.13 2336.32,-13.6 3090.43,298.48 4762.43,983.98l798.06 -774.98c-2329.99,-3613.72 107.5,-2782.14 -2227.87,-5687.6 -4475.02,-1736.82 -7059.86,-3811.02 -8128.9,-8732.18 -1040.26,-4788.99 44.27,-9952.99 2123.84,-13724.49 3940.98,-7147.76 11204.78,-10427.27 21635.53,-9768.97 9403.45,1091.8 14817.87,3625.42 15898.92,12696.56 -61.97,6132.16 -212.16,11774.55 -1083.26,17848.22 -929.59,6480.29 -868.25,9689.92 -6263.07,11631.32 -4847.49,-218.49 -6658.62,-3262.44 -9844.54,-1613.51 2085.26,3026.56 1669.48,-1341.9 1458.89,3905.56 -113.83,2838.11 -400.93,2077.99 -1392.81,3564.4l109.4 795.85c4378.58,1735.56 3666.21,1872.79 5333.47,6980.5l3064.82 7955.31c6650.08,2417.9 7173.69,14741.03 8224.38,23431.16l2068.82 16203.09 1379.85 9637.43 -7132.58 -1705.52 -4767.18 -130.27 1882.27 9182.12c4613.83,4306.81 5496.62,7583.15 5418.21,12786.36 -147.03,9810.39 221.96,6918.53 2897.55,14365.4l3536.89 1309.97c-238.41,3427.49 171.69,540.05 -1361.82,2005.9l2206.36 5593.69c1794.37,1897.45 6135.64,6338 4467.43,8428.01 5145.97,13123.73 15114.45,25762.11 14975.33,36907.76 -187.18,15041.73 10894.28,23588.94 14744.83,37293.83l4517.39 8351.18c16359.92,-2271.5 38694.23,-17047 49523.37,-23648.7 14462.47,-16060.17 27137.21,-38219.63 33184.32,-59963.61 7099.38,-25529.08 9269.07,-56640.46 1992.31,-82511.34 -1542.05,-10796.9 -9135.01,-28757.68 -13947.08,-37763.68 -9118.57,-17065.34 -20102.01,-30203.61 -33577.34,-43290.66 -4489.25,-4359.93 -9214.37,-7639.12 -13795,-11317.66 -10170.53,-8168.1 -21122.99,-12948.56 -32716.36,-18361.39 -10571.77,-4935.71 -18518.86,-6268.76 -29334.72,-9121.73 -3443.29,-908.09 -6836.32,-827.47 -10758.64,-1751.37 -15103.39,-3557.12 -33106.54,-646.61 -47160.18,705.73 -12209.31,1174.32 -28827.56,7056.38 -39582.4,11868.78 -6414.2,2870.04 -11163.36,5292.37 -17073.87,8915.57 -10097.8,6189.71 -7506.64,5081.78 -14401.45,10856.02z"/>
  <path class="fil1" d="M63585.55 61812.05c-21546.36,29959.2 -33698.44,58188.52 -33886.89,98310.66 -143.55,30594.1 9910.3,65073.22 27000.3,89605.98 2475.76,3554.28 4861.4,6359.82 7051.96,10263.8 132.8,82.21 319.67,101.81 361.72,297.53l27817.02 26891.22c2853.29,-2392.6 7500,-9947.3 10550.27,-14410.3 2485.56,-3636.8 9380.37,-10594.22 10652.08,-14828.93 -9312.71,-6940.03 -25680.85,-24799.94 -30553.63,-34239.13 2651.87,-4051.64 6891.97,-7100.97 3169.48,-14749.25 -2332.52,-4792.16 -7387.12,-6085.37 -14106.13,-4666 -7973.96,-12189.07 -14382.16,-43861.06 -15234.29,-60060.04l3246.94 -2166.84c1213.22,-742.73 1851.6,-995.68 2914,-2102.34 5139.02,-5350.86 5383.75,-14726.81 -5184.55,-20828.3 -661.47,-12813.86 7878.16,-37253.35 12438.55,-48033.17 6114.14,-14452.67 14793.52,-27258.31 22997.35,-37048.46 -891.02,-551.43 1807.65,-1758.64 -1935.39,325.36l-27298.78 27438.22z"/>
  <path class="fil2" d="M139225.79 247332.92c-2210.48,-3834.74 -4166.42,-3566.61 -7456.36,-1451.94 -2533.62,1628.69 -4303.64,2545.32 -6483.45,4514.23 -3627,3275.71 -6809.76,8643.33 -9675.37,12886.59 -3169.16,4692.87 -15904.92,23605.7 -17250.31,27347.79l14530.45 20963.94c1705.84,3852.76 1621.42,1421.9 1.9,2504.21l4014.02 3489.14 7030.14 -8808.07 -510.01 -1029.51c578.94,-2929.8 12842,-21430.32 15510.64,-25284.35l19148.7 -30232.38c1436.13,-1912.31 2488.41,-3414.21 4016.86,-6013.91l7372.57 -11851.07c2908.94,-5749.58 8149.13,-12356.34 11563.34,-18557.43 4028.56,-7316.61 2964.27,-5130.79 3749.68,-3914.42 2452.04,-2249.05 3534.04,-5928.22 5565.87,-9173.9 -1872.79,-560.6 1645.45,-775.61 -1512.65,46.48 -3713.95,967.22 -574.2,1550.91 -1032.67,529.62 -76.83,-171.69 -332.63,233.98 -510.64,331.37 674.11,-893.87 1940.77,1645.45 54.7,-1079.78 -789.52,-1140.49 182.76,-327.89 -1205.63,-782.57 -1670.11,-547.01 -2313.87,-138.49 -3843.59,-525.82 -4201.52,-1064.29 -1678.65,-721.23 -1940.13,-4907.56l-7767.18 -2271.82c907.15,-2514.65 1339.38,-1291.31 -334.21,-1735.56l448.99 5858.98 -5009.38 -58.49 346.54 11354.34 -4058.28 1321.04c-880.27,186.55 -1326.73,11.7 -2362.56,352.23 -444.25,1774.13 -482.5,1887.65 -193.51,3051.85 53.12,214.38 155.25,434.13 236.19,632.38l1836.11 2271.18c48.69,71.14 180.54,270.97 216.59,336.11l-4872.47 1717.54c-142.28,-239.67 -652.93,-1192.35 -788.89,-1352.66l-4706.47 -3127.74c409.46,5947.51 1162.31,2006.22 2025.82,9856.55l-1734.93 1362.14c-1784.89,1842.75 -1491.15,2325.57 -1588.53,6969.75 -68.3,3266.55 119.52,7194.56 -672.85,10077.25 3537.52,-3082.84 -1670.74,-3344.64 -1672.95,-3346.54 -895.13,1591.06 -1574.94,489.14 -4960.05,1074.41 777.82,6516.33 3446.46,12320.29 -5019.5,10629.32 -291.84,-749.68 -197.93,475.55 -643.76,-2343.91 -33.2,-210.27 102.76,-1352.66 137.23,-1629z"/>
  <path class="fil2" d="M264263.88 303081.1c2939.92,-1137.65 1744.41,493.57 2480.5,-2507.06l-6277.61 -11141.54 -4517.39 -8351.18 -16155.35 -26420.41 -2840.01 8674.32c-2249.68,-15718.06 3923.59,-15462.26 -3518.55,-33017.37l-5481.45 -12173.58c-1864.88,-4333.05 -4389.33,-8276.24 -5685.39,-12807.86 -3082.52,-4426.01 -4246.41,1348.23 -11524.76,67.66 -4976.18,-875.84 -5612.98,-4701.09 -7626.79,-7567.66 -1189.5,14726.49 -102.45,18055.64 2706.58,31399.12 3592.22,17064.39 16805.43,48033.81 24792.99,64949.9l4886.7 10936.02c722.18,1117.09 550.48,885.01 1149.35,1561.97 4103.5,-379.11 26378.36,-4751.37 27611.18,-3602.34z"/>
  <path class="fil1" d="M125371.98 307417.31c7214.48,2098.54 14256,5543.42 22392.8,7693.82 8580.1,2267.71 17096.64,3786.04 26141.53,4715.64 21972.59,2257.9 35121.29,-750.95 55182.83,-3909.36 -2245.57,-5564.92 -5554.8,-16014.33 -8228.49,-19954.67l-20181.06 -716.48 -353.18 -2227.87c-38.58,-284.25 -42.37,-492.31 -83.79,-788.57 -1412.41,-10093.38 -13027.29,-9708.26 -13751.05,860.98 -16399.13,-2813.13 -26655.34,-7842.74 -40414.29,-13060.81l-16097.8 20216.79c-2796.06,3869.52 -3877.11,4171.48 -4607.5,7170.53z"/>
  <path class="fil0" d="M178132.5 264795.08c2507.38,-394.92 4776.98,-1376.05 4129.42,4364.99l-4883.53 154.3 754.11 -4519.29zm10611.93 -23328.72c2033.41,680.75 407.57,-1899.35 2274.35,2004.32 2529.51,5288.57 -2411.26,14610.45 -11404.93,12142.59 -11841.27,-3249.47 -3565.66,-21582.41 -1800.06,-15182.75 2309.13,-2616.78 1947.09,3394.6 1947.09,-3338 -4743.46,-896.39 -238.72,326.31 840.75,-4464.58 4005.48,1437.71 1150.61,1668.84 3360.14,418.63 3089.48,-1747.89 6428.43,-2660.41 6139.75,2455.84 -269.08,4767.81 -5737.24,1556.28 -1357.08,5963.95zm-42667.14 38563.64c13758.95,5218.06 24015.16,10247.68 40414.29,13060.81 723.76,-10569.24 12338.63,-10954.36 13751.05,-860.98 41.42,296.27 45.21,504.32 83.79,788.57l353.18 2227.87 20181.06 716.48c-736.72,-4753.9 -21897.02,-57519.47 -23550.05,-59251.87 -2482.08,-6376.58 -9440.13,-14674.95 -12859.08,-21555.85 -202.04,143.23 -483.14,136.59 -572.62,473.97l-2473.86 3043.32c-8175.06,13905.98 -21554.9,42126.45 -29652.18,53145 -1764.65,2401.45 -4350.44,5283.51 -5675.59,8212.69z"/>
  <path class="fil3" d="M1577.47 270439.36c9245.67,554.28 9801.85,-4837.37 15046.79,1570.51 -5215.22,-143.23 -9463.84,381.96 -12097.38,4614.77 7513.28,1132.9 9334.21,1376.37 15451.19,-2230.08 1398.19,955.52 2113.09,1421.27 3106.87,2223.12l3050.59 3400.29c-7044.05,-1008.96 -11530.14,905.56 -16417.78,3305.12 10538.89,5160.52 11655.66,1920.53 20552.27,-448.04 1593.27,2844.75 4438.97,5083.05 5620.57,7998.31 -11871.94,-3665.26 -9203.3,-1332.74 -19498.09,-611.51 -1254,3444.88 5915.89,5365.72 9005.05,5864.98 6454.99,1043.42 8553.22,-964.69 13984.08,-1584.74 1594.86,4004.53 4169.58,6963.42 5896.6,11790.36 -6866.99,-3381.64 -9237.14,-6788.26 -20530.45,-5357.82l-51.54 1135.43c1933.81,7760.22 16537.62,9392.39 22888.9,9575.77 1548.69,2861.82 4037.73,10436.12 3807.54,13575.25 -3814.82,-5962.05 -11447.3,-11047.95 -22298.89,-11433.38 6264.01,16273.92 20735.97,15257.37 23001.15,17475.43 2587.37,2544.37 1933.81,11430.22 1647.34,15520.44 -3548.27,-3247.26 -7199.62,-12883.74 -22236.29,-14194.03 681.07,4066.19 4025.71,8895.34 5889.96,10858.55 2505.16,2638.59 7054.17,3930.86 10112.66,6834.74 1627.74,-51.54 606.13,-381.01 2990.2,153.67 263.7,59.13 1046.9,304.81 1288.79,399.35 1349.81,526.77 953.94,422.11 1702.99,994.41 -13610.34,-936.87 -31517.37,-863.2 -43438.95,3603.6l199252.32 65.45c-7797.21,-7081.99 -22543.31,-11555.75 -33812.59,-7308.7 -16711.52,6297.85 -21498.62,2612.98 -38396.06,104.34 -7247.36,-266.86 -11349.91,286.78 -18263.38,1352.02l-738.93 1994.83 -9036.99 -35.1c-8315.76,4580.94 -30009.15,3826.2 -40556.26,2611.09 -3889.75,-448.04 -10031.72,-861.3 -12771.18,-2557.97l5237.67 -1825.99 -5010.96 -17.71c142.28,-239.35 746.84,-1254.32 844.22,-1457.95l1867.09 -5429.59 -2720.49 3058.81 -923.59 -15237.77 5848.86 -2505.16c-625.11,-1183.81 -1154.72,-2369.83 -1703.62,-3252.32 -2139.97,-3440.77 -1025.72,-2159.25 -2942.77,-2604.45l-2157.04 4302.06 -4324.51 -16411.77c3817.35,-945.72 938.13,-221.96 2229.13,-1553.75l-2705.94 -632.38c772.13,-150.82 -19.6,3317.14 598.23,-919.16 319.35,-2191.19 264.97,-817.03 -131.85,-2628.48l-1601.5 1739.35c-131.53,135.33 -395.24,389.23 -590.32,586.21 -1520.55,-5453.31 -4555.96,-9078.09 -6919.47,-13770.65 5233.56,-8697.09 7505.06,-9366.14 5101.07,-22578.72 -5588,3505.9 -7790.26,10406.72 -7527.19,18972.59l-6964.69 -8105.81c1516.44,-5518.44 3233.35,-4861.4 3008.85,-13381.42 -931.18,-3143.86 -541.95,-3847.07 -2708.79,-5853.6 -2789.73,5867.83 -4209.74,7814.92 -3165.68,16141.75 -3220.7,-1523.71 -3053.75,-3285.83 -6803.75,-5154.82 1261.59,-5674.64 3801.22,-10547.74 -746.84,-15906.51 -3157.46,3292.16 -3017.07,8395.13 -1892.07,13168.63 -2267.39,-1536.36 -3163.15,-1747.26 -5393.86,-3427.49 464.8,-4328.31 2801.75,-8362.88 -1080.1,-12089.16 -2713.53,3606.45 -1761.49,8023.92 -742.09,11843.16 -5162.73,-820.83 -8310.7,301.33 -11706.57,2179.8l1577.47 1491.78z"/>
  <path class="fil4" d="M277328.48 327702.72c-362.35,797.74 216.59,297.53 -1249.26,1522.13 -687.08,573.88 -602.34,454.05 -1463.95,952.68 -1433.28,829.36 -2077.36,1115.51 -3569.77,1738.09 -114.14,133.12 -293.11,335.79 -342.43,399.03 -46.8,59.76 -258.96,323.46 -308.6,388.6 -45.53,59.44 -228.29,313.03 -268.13,366.46 -2915.58,3909.67 1745.99,-3031.3 -389.54,776.88l2657.57 -693.09c2121.31,-2712.9 5862.14,-3267.81 10239.77,-3407.25 1719.75,-54.7 5135.22,-205.52 6717.75,53.12 2955.42,483.45 3181.81,1181.6 4266.02,2673.38 2480.82,1570.83 5373.63,5954.78 5761.59,10024.76 -3380.69,3141.02 -11337.26,8788.47 -16891.75,8846.64 -3474.91,3262.12 -11365.4,2754.95 -15704.14,4515.81l90248.16 237.77c-181.18,-8445.72 -5776.45,-16771.6 -12103.7,-18947.29 -10805.75,-3715.22 -19061.12,2019.81 -24442.02,5004.32 -5302.48,-4552.48 -11479.23,-9631.74 -18752.2,-13726.07 -8336.32,-4692.87 -14014.75,-6628.9 -21851.49,-2072.3 -2519.39,1464.9 345.59,157.46 -2553.86,1346.33z"/>
  <path class="fil5" d="M197310.61 236710.88c1653.03,1732.4 22813.33,54497.97 23550.05,59251.87 2673.69,3940.34 5982.92,14389.75 8228.49,19954.67l1705.21 3944.45 2270.23 -897.66c5993.36,-2519.71 12930.54,-7306.8 18685.17,-8702.15 608.98,-277.93 948.57,1694.46 802.17,-1264.75l11711.95 -5916.21c-1232.82,-1149.03 -23507.68,3223.23 -27611.18,3602.34 -598.86,-676.96 -427.17,-444.88 -1149.35,-1561.97l-4886.7 -10936.02c-7987.56,-16916.1 -21200.77,-47885.51 -24792.99,-64949.9 -2809.02,-13343.48 -3896.08,-16672.63 -2706.58,-31399.12 -1116.15,-2269.6 -2195.93,-3970.38 -4047.85,-5181.07 -11189.29,27372.14 2030.88,37735.54 -1758.64,44055.52z"/>
  <path class="fil6" d="M198852.97 179942.04l2717.96 -1210.69c-631.75,-1629.32 -134.38,-911.89 -1274.56,-2047.32l-700.99 -1178.75c-3232.08,-5132.69 -7336.84,-10883.85 -8871.31,-18158.08 -1636.28,-2420.11 -2712.9,-10882.27 -3075.88,-14932.96 -2237.35,-24971 9455.62,-43527.8 -7858.55,-42431.89 -2679.7,7334.95 -5134.27,11661.99 -7024.13,20353.07 -4727.02,21739.87 1343.17,47223.42 16201.83,61630.55 3170.11,-733.56 7481.02,-2507.69 9885.64,-2023.92z"/>
  <path class="fil7" d="M159484 189306.6c-4261.59,8549.74 -2695.19,3118.89 -4892.7,10019.39 -1320.09,4144.92 -3952.99,3311.76 -6337.05,7916.73 -3169.79,6123.94 -5463.74,13642.91 -8193.4,20237.66 -4243.25,10251.15 -3040.15,11769.18 -8132.06,14508.95 -17414.41,9369.62 -14499.15,13872.15 -18796.79,15952.67 -1271.71,4234.72 -8166.52,11192.13 -10652.08,14828.93 -3050.27,4463 -7696.98,12017.7 -10550.27,14410.3 -1015.91,2225.65 -2071.98,3360.77 -3209.63,5528.88 1314.71,3079.68 7261.59,6983.34 10694.45,10485.77l1794.37 2129.21 2600.65 1667.58c3742.41,2382.8 5664.2,5163.36 9083.15,7105.08 1619.52,-1082.31 1703.94,1348.54 -1.9,-2504.21l-14530.45 -20963.94c1345.38,-3742.09 14081.15,-22654.92 17250.31,-27347.79 2865.62,-4243.25 6048.37,-9610.87 9675.37,-12886.59 2179.8,-1968.91 3949.83,-2885.54 6483.45,-4514.23 3289.94,-2114.67 5245.89,-2382.8 7456.36,1451.94l2491.25 955.21c-3146.08,-10045.63 -4210.05,-1026.35 607.4,-14353.07 367.73,-1017.5 467.96,-1565.77 824.62,-2402.72l12243.78 -26568.7c1190.45,1168.95 282.36,-160.62 1691.29,2109.61 1280.25,2063.13 1228.39,3875.52 3536.57,6687.39 97.07,-5477.02 -2647.76,-10856.97 -2240.51,-15155.24 4000.1,-3260.22 10588.53,-8041.94 14692.34,-10327.36 3608.03,1196.14 5145.65,2820.72 9248.84,4531.93 3004.43,1253.37 6347.49,2532.99 9936.23,3618.78 -5604.44,-5926.64 -10443.4,-10585.05 -15965.32,-17732.18l-4893.02 -6001.26c-4625.84,5271.81 -10393.12,19030.77 -11915.26,16611.29z"/>
  <path class="fil8" d="M167361.84 116183.54c505.59,1000.1 -4645.76,27309.22 1199.3,39756.3l-1253.06 885.01c2009.7,1035.2 1143.34,260.54 1801.64,2629.43 1401.35,1654.93 5935.18,12223.54 7722.28,15286.14 3181.17,5451.73 6874.57,9782.25 9310.81,14178.85 3751.9,-957.74 10804.8,-6387.33 12710.15,-8977.23 -2404.62,-483.77 -6715.53,1290.37 -9885.64,2023.92 -14858.66,-14407.14 -20928.85,-39890.68 -16201.83,-61630.55 1889.86,-8691.08 4344.43,-13018.12 7024.13,-20353.07 17314.18,-1095.91 5621.2,17460.89 7858.55,42431.89 362.98,4050.69 1439.61,12512.85 3075.88,14932.96l-523.92 -2551.64 1918.95 -685.81c-1666.31,-1279.93 -1229.66,-305.75 -1822.2,-7339.69 -693.09,-8226.28 -107.19,-16861.4 1476.29,-24823.34 3442.66,-17308.49 8726.18,-18131.84 10462.37,-26236.71l-4065.55 3940.03c-2043.84,-2436.55 -4219.85,-3447.41 -7130.69,-5265.81 -1105.71,-690.87 -6449.93,-3160.94 -5778.98,-5041.31 1826.62,-2695.51 -1344.43,-1841.48 3433.49,-1107.29l10316.92 2600.97 -109.4 -795.85c-2849.49,-1692.56 -11037.52,-7067.77 -12974.8,-9344.32 -1672.01,-685.5 -2426.12,-997.58 -4762.43,-983.98 -2629.74,4689.08 -3371.2,9491.35 -6639.33,18274.13 -2230.71,5993.99 -5404.3,12142.59 -7162.94,18196.98z"/>
  <path class="fil9" d="M260699.48 355928.88l-11015.07 216.59c1071.56,-3244.73 1327.36,-4613.83 5344.22,-4489.88 3811.02,117.62 4608.77,1859.51 5670.84,4273.29zm-31239.76 -11274.02c324.41,-4520.87 1193.61,-8053.96 3127.11,-11345.48l11141.86 5841.9c-1500.32,2584.21 -2809.65,4504.42 -4700.46,5176.01 -1621.73,576.1 -7450.67,266.23 -9568.5,327.57zm127572.02 11442.87l-90248.16 -237.77c4338.74,-1760.85 12229.23,-1253.69 15704.14,-4515.81 -2391.65,-579.89 -960.27,180.54 -2263.91,-1561.66 -310.81,-415.47 -922.01,-1942.66 -1265.39,-2753.69 -1283.41,-3031.62 -1854.45,-3642.49 -1960.05,-6369.31l-1568.93 0 -17207.62 3457.84c-2623.42,-4601.18 -5956.68,-5414.42 -11698.98,-8131.74 -4415.89,-2089.69 -9323.77,-5049.85 -14293.94,-5852.02l-2268.97 -466.38c-143.23,190.66 -291.21,465.43 -378.16,607.71 -2920.64,4770.66 -2644.6,5506.74 -3535.31,12327.88 -573.57,4391.86 -2524.45,10023.18 -2381.53,12831.89 5756.53,1082.95 128625.25,1600.55 133366.81,663.05z"/>
  <path class="fil6" d="M192119.1 154109.74l9451.51 -716.48 5270.55 -1236.93c-898.92,-6216.9 -559.65,-17137.11 -546.69,-23823.55 10.12,-5168.42 -1667.58,-19237.24 1114.57,-22560.38l-3064.82 -7955.31c-1667.26,-5107.71 -954.89,-5244.94 -5333.47,-6980.5l-10316.92 -2600.97c-4777.93,-734.19 -1606.87,-1588.22 -3433.49,1107.29 -670.95,1880.37 4673.27,4350.44 5778.98,5041.31 2910.83,1818.4 5086.84,2829.26 7130.69,5265.81l4065.55 -3940.03c-1736.19,8104.87 -7019.71,8928.22 -10462.37,26236.71 -1583.47,7961.95 -2169.37,16597.06 -1476.29,24823.34 592.54,7033.93 155.88,6059.76 1822.2,7339.69z"/>
  <path class="fil9" d="M65232.26 315727.07c2679.38,-2808.39 3554.28,-4381.11 8621.83,-5408.41 920.74,3399.03 3430.65,7639.75 4520.23,11264.22l-6513.49 1947.41c-2839.06,-1624.89 -4989.14,-4377.32 -6628.58,-7803.22zm-9007.27 6700.67c1917.05,445.19 802.8,-836.32 2942.77,2604.45 548.9,882.48 1078.52,2068.51 1703.62,3252.32 2599.07,1910.73 2434.02,2631.64 5310.39,4111.4l-112.56 2644.92c3878.05,-1599.91 1155.99,3271.92 8998.41,407.88 6322.51,-731.98 4646.08,133.75 5098.54,7201.2 14577.25,9241.88 8476.39,7168.95 25570.18,9412.31 -1291.63,-2253.48 -2312.29,-5263.91 -3654.51,-7612.88l3892.6 -223.55 0 -777.19c-2970.91,-93.28 -4335.26,248.21 -6370.89,-1150.61 -5017.91,-577.99 -9854.97,-3625.74 -13455.73,-5666.42 477.13,-6674.43 2216.48,-4149.66 -4276.14,-16644.49 -2692.66,-5182.02 -5453.62,-10562.28 -7971.43,-15035.09 -3130.9,663.05 -6598.54,3579.89 -9136.59,6247.89 -2866.57,3013.59 -5694.87,4558.49 -9304.8,6002.21l766.13 5225.65z"/>
  <path class="fil2" d="M139225.79 247332.92c-34.46,276.35 -170.43,1418.74 -137.23,1629 445.83,2819.45 351.92,1594.22 643.76,2343.91 8465.95,1690.98 5797.32,-4112.98 5019.5,-10629.32 3385.12,-585.27 4064.92,516.65 4960.05,-1074.41 2.21,1.9 5210.47,263.7 1672.95,3346.54 792.37,-2882.69 604.55,-6810.7 672.85,-10077.25 97.39,-4644.18 -196.35,-5127 1588.53,-6969.75l1734.93 -1362.14c-863.51,-7850.33 -1616.36,-3909.04 -2025.82,-9856.55l4706.47 3127.74c135.96,160.31 646.61,1112.98 788.89,1352.66l4872.47 -1717.54c-36.05,-65.13 -167.9,-264.97 -216.59,-336.11l-1836.11 -2271.18c-80.94,-198.25 -183.07,-418 -236.19,-632.38 -289,-1164.21 -250.74,-1277.72 193.51,-3051.85 1035.83,-340.54 1482.29,-165.68 2362.56,-352.23l4058.28 -1321.04 -346.54 -11354.34 5009.38 58.49 -448.99 -5858.98c1673.59,444.25 1241.36,-779.09 334.21,1735.56l7767.18 2271.82c261.49,4186.34 -2261.38,3843.27 1940.13,4907.56 1529.72,387.33 2173.48,-21.18 3843.59,525.82 1388.38,454.68 416.1,-357.93 1205.63,782.57 1886.07,2725.23 619.41,185.92 -54.7,1079.78 178.01,-97.39 433.81,-503.06 510.64,-331.37 458.47,1021.29 -2681.28,437.61 1032.67,-529.62 3158.09,-822.09 -360.14,-607.08 1512.65,-46.48 1167.37,-3092.96 3209.63,-4462.69 1903.14,-6293.1 -3588.74,-1085.79 -6931.8,-2365.41 -9936.23,-3618.78 -4103.18,-1711.21 -5640.81,-3335.79 -9248.84,-4531.93 -4103.81,2285.41 -10692.24,7067.13 -14692.34,10327.36 -407.25,4298.27 2337.58,9678.22 2240.51,15155.24 -2308.18,-2811.87 -2256.32,-4624.26 -3536.57,-6687.39 -1408.94,-2270.23 -500.84,-940.66 -1691.29,-2109.61l-12243.78 26568.7c-356.66,836.95 -456.89,1385.22 -824.62,2402.72 -4817.45,13326.72 -3753.48,4307.44 -607.4,14353.07l-2491.25 -955.21z"/>
  <path class="fil10" d="M189458.37 191076.31l1277.09 -585.9c1671.06,109.09 860.98,45.53 1924.96,585.9 -2633.85,4497.47 -2127.32,988.41 -3202.04,0zm-29974.37 -1769.71c1522.13,2419.48 7289.41,-11339.48 11915.26,-16611.29l4893.02 6001.26c5521.92,7147.13 10360.87,11805.54 15965.32,17732.18 1306.49,1830.42 -735.77,3200.15 -1903.14,6293.1 -2031.83,3245.68 -3113.83,6924.85 -5565.87,9173.9l-337.06 3259.27c3418.95,6880.9 10377,15179.27 12859.08,21555.85 3789.52,-6319.98 -9430.64,-16683.38 1758.64,-44055.52 77.47,-2681.91 -49.96,-2107.71 1909.78,-3756.01 818.3,-688.34 2478.29,-1636.28 3792.68,-2440.98l717.12 -693.09c2211.11,-1629 699.73,-248.21 2481.45,-2437.18l-5059.34 -4878.79 1995.78 -9105.92c-2948.78,4457.63 -495.15,4869.31 -4610.35,7340.64 1140.18,1135.43 642.81,418 1274.56,2047.32l-2717.96 1210.69c-1905.35,2589.9 -8958.26,8019.49 -12710.15,8977.23 -2436.23,-4396.6 -6129.63,-8727.12 -9310.81,-14178.85 -1787.1,-3062.6 -6320.93,-13631.21 -7722.28,-15286.14l-9625.73 29852.32z"/>
  <path class="fil8" d="M233347.26 321408.03c-1966.06,1221.44 -297.22,-1524.98 -1949.3,2502 -244.73,596.65 -813.55,3515.07 -1024.14,4365.62l990.62 1025.08c102.13,100.23 654.83,649.14 864.46,832.84 4970.17,802.17 9878.05,3762.33 14293.94,5852.02 5742.3,2717.33 9075.56,3530.56 11698.98,8131.74l17207.62 -3457.84c361.4,-2894.39 -1313.13,-5286.99 -3035.1,-7506l-2657.57 693.09c2135.54,-3808.18 -2526.03,3132.8 389.54,-776.88 39.84,-53.44 222.6,-307.02 268.13,-366.46 49.64,-65.13 261.8,-328.84 308.6,-388.6 49.33,-63.24 228.29,-265.91 342.43,-399.03l-326.31 -1111.09 -3067.35 1436.76c812.6,-2170 -565.66,-23.4 1421.27,-2396.08l-520.76 -596.96 -3328.83 995.99 1461.42 -1945.19 -568.82 -637.44 -2341.38 1169.27 -614.04 -1865.83 4.11 -234.61c-3597.6,338.32 -1581.58,655.46 -2226.92,-1376.37l-157.15 -201.73c-3304.8,-72.41 -1649.56,458.47 -2138.7,-1407.04l-311.76 -200.15c-2413.47,-1291.31 -1992.62,1609.4 -1976.5,-1371.63l1099.39 -659.25 -560.92 -616.88c-1810.81,986.19 116.67,322.83 -2714.48,881.53 681.7,-965.32 -223.86,-964.38 1013.38,-1706.47l-1844.01 -1212.9c-148.61,-419.9 -488.2,-402.19 -718.7,-618.78 -1180.65,3570.09 -5392.91,7787.41 -9186.86,9330.73 -4705.84,1914.52 -7651.77,-3835.37 -10094.32,-6163.47z"/>
  <path class="fil11" d="M73900.26 304951.99c2517.81,4472.81 5278.77,9853.07 7971.43,15035.09 6492.62,12494.83 4753.26,9970.06 4276.14,16644.49 3600.76,2040.68 8437.81,5088.42 13455.73,5666.42 4245.15,556.81 684.55,225.44 2056.49,-637.12 -120.47,-4014.65 312.39,-7402.93 -1278.35,-10847.17l3964.69 -896.71c-605.19,53.44 -2780.88,296.9 -3214.69,189.71 -2893.76,-715.85 -264.33,1720.7 -1995.15,-1546.16l-12.33 -438.24 -945.09 -1115.2c3094.86,-566.93 5024.55,71.14 7079.47,-1500.32l-1676.43 253.58c6295.63,-712.69 2751.79,571.04 3440.45,-2547.85 -2596.23,-270.03 -6202.67,56.28 -9612.45,105.92 -1048.48,-1236.3 -1356.45,803.44 -757.9,-1200.25l7601.18 -1189.19 579.26 -2688.24 -9141.65 346.23c-1624.58,-1115.2 -176.12,662.1 -1280.56,-1450.99l1615.72 -389.23 -2840.96 -2754.32c-5475.12,645.02 -8201.62,716.48 -12386.06,-1276.14 -2854.24,-9239.67 -73.04,-8382.16 2972.49,-13562.91 -4584.1,411.99 -8162.1,2701.52 -9871.41,5798.58z"/>
  <path class="fil1" d="M189924.44 61671.66c5299.01,330.1 3103.71,4352.97 9677.27,1206.26 4035.52,-1931.91 4384.27,-4319.14 8554.8,-6048.06l7869.62 -2125.1c-1081.05,-9071.14 -6495.46,-11604.76 -15898.92,-12696.56 -3687.39,2244.31 -8148.5,-1497.15 -10886.38,5356.24 -2196.25,5497.26 -499.26,8869.09 683.6,14307.22z"/>
  <path class="fil12" d="M123426.79 307749.31l1945.19 -332c730.4,-2999.05 1811.45,-3301.01 4607.5,-7170.53l16097.8 -20216.79c1325.15,-2929.17 3910.94,-5811.23 5675.59,-8212.69 8097.28,-11018.54 21477.12,-39239.02 29652.18,-53145l2473.86 -3043.32c89.48,-337.37 370.57,-330.73 572.62,-473.97l337.06 -3259.27c-785.41,-1216.38 278.88,-3402.19 -3749.68,3914.42 -3414.21,6201.09 -8654.4,12807.86 -11563.34,18557.43l-7372.57 11851.07c-1528.46,2599.7 -2580.73,4101.6 -4016.86,6013.91l-19148.7 30232.38c-2668.63,3854.02 -14931.7,22354.54 -15510.64,25284.35z"/>
  <path class="fil13" d="M199595.38 175505.28l700.99 1178.75c4115.2,-2471.33 1661.57,-2883.01 4610.35,-7340.64l-1995.78 9105.92 5059.34 4878.79c-1781.72,2188.97 -270.34,808.18 -2481.45,2437.18 3389.54,1156.62 1883.22,1658.73 5958.89,2091.59 4644.5,643.76 1309.34,425.27 2636.7,-1085.79l-4383.32 -2387.54c3384.17,-2539.63 2263.91,-4338.74 2065.98,-10057.01 -236.19,-6827.15 -2186.13,-6797.42 -2702.46,-11936.12l-1882.27 -9182.12 -2465.96 -60.71 -12001.89 5461.53c1672.01,6661.46 4919.58,11515.91 6880.9,16896.18z"/>
  <path class="fil1" d="M260466.77 289432.5l6277.61 11141.54 3232.71 -1654.3c16826.3,-9336.1 29739.44,-21289.93 40013.05,-33135.94 -10829.15,6601.7 -33163.45,21377.2 -49523.37,23648.7z"/>
  <path class="fil14" d="M208156.51 56829.86c-1583.47,3389.54 -3123.94,3086.32 -5354.97,5870.68 -1716.9,2142.81 -3010.75,4270.44 -3115.41,7912.31 -283.62,9871.41 6232.08,9695.29 8993.67,13571.45 5394.81,-1941.4 5333.47,-5151.03 6263.07,-11631.32 871.1,-6073.67 1021.29,-11716.06 1083.26,-17848.22l-7869.62 2125.1z"/>
  <path class="fil4" d="M184496.74 74233.84c3291.84,-264.02 4424.43,-2592.43 3939.4,-5763.17 -609.93,-3989.04 -1846.23,-4162.62 1488.3,-6799.01 -1182.86,-5438.13 -2879.85,-8809.97 -683.6,-14307.22 2737.88,-6853.39 7198.98,-3111.93 10886.38,-5356.24 -10430.75,-658.3 -17694.55,2621.2 -21635.53,9768.97 -2079.57,3771.5 -3164.1,8935.49 -2123.84,13724.49 1069.03,4921.16 3653.88,6995.36 8128.9,8732.18z"/>
  <path class="fil15" d="M189924.44 61671.66c-3334.53,2636.38 -2098.23,2809.97 -1488.3,6799.01 485.03,3170.74 -647.55,5499.15 -3939.4,5763.17 2335.37,2905.46 -102.13,2073.88 2227.87,5687.6l12110.66 2649.35c3185.92,-1648.92 4997.05,1395.02 9844.54,1613.51 -2761.59,-3876.16 -9277.29,-3700.04 -8993.67,-13571.45 104.66,-3641.86 1398.5,-5769.5 3115.41,-7912.31 2231.03,-2784.36 3771.5,-2481.13 5354.97,-5870.68 -4170.53,1728.92 -4519.29,4116.14 -8554.8,6048.06 -6573.56,3146.71 -4378.26,-876.16 -9677.27,-1206.26z"/>
  <path class="fil12" d="M255949.38 281081.32c-3850.55,-13704.88 -14932.01,-22252.1 -14744.83,-37293.83 139.12,-11145.65 -9829.36,-23784.03 -14975.33,-36907.76 -3159.99,-284.89 -997.26,-214.38 -3960.58,-1543.32 1296.06,4531.62 3820.51,8474.81 5685.39,12807.86l5481.45 12173.58c7442.13,17555.11 1268.87,17299.32 3518.55,33017.37l2840.01 -8674.32 16155.35 26420.41z"/>
  <path class="fil1" d="M83771.67 299153.41c-3045.53,5180.75 -5826.73,4323.25 -2972.49,13562.91 4184.44,1992.62 6910.94,1921.16 12386.06,1276.14 905.88,-6162.52 1068.72,-9993.78 8023.6,-8667.36l-1794.37 -2129.21c-3432.86,-3502.42 -9379.74,-7406.09 -10694.45,-10485.77 -762.96,2417.26 -3427.17,5075.78 -4948.35,6443.29z"/>
  <path class="fil16" d="M276998.38 340659.5c105.61,2726.81 676.64,3337.69 1960.05,6369.31 343.38,811.02 954.57,2338.22 1265.39,2753.69 1303.65,1742.2 -127.74,981.77 2263.91,1561.66 5554.49,-58.18 13511.06,-5705.63 16891.75,-8846.64 -387.96,-4069.98 -3280.77,-8453.94 -5761.59,-10024.76 -3180.54,3799.64 -10798.16,5866.25 -16619.51,8186.76z"/>
  <path class="fil14" d="M226229.22 206879.74c1668.21,-2090.01 -2673.06,-6530.56 -4467.43,-8428.01 -1718.49,-1510.12 -2762.86,-2501.05 -4610.66,-4865.83 1506.64,-1042.47 -1826.94,-847.07 2404.3,-727.87 1533.52,-1465.85 1123.42,1421.58 1361.82,-2005.9l-3536.89 -1309.97 -5932.65 -1685.29c-4075.67,-432.86 -2569.35,-934.97 -5958.89,-2091.59l-717.12 693.09c-438.24,6881.53 -2899.13,7280.88 2279.72,12479.02 3950.46,3964.69 7790.26,3311.13 12869.51,1512.01 1517.07,1080.1 2254.43,1610.35 3729.13,2841.59 1663.47,1388.7 1810.81,1150.93 2579.15,3588.74z"/>
  <path class="fil17" d="M99603.55 342297.99c2035.62,1398.82 3399.98,1057.34 6370.89,1150.61 4114.56,69.56 8469.75,694.35 12427.8,-450.25 217.85,-7891.12 -3069.24,-11247.46 -9212.79,-13336.52l-4843.06 255.16 -3964.69 896.71c1590.75,3444.24 1157.88,6832.52 1278.35,10847.17 -1371.94,862.56 2188.66,1193.93 -2056.49,637.12z"/>
  <path class="fil18" d="M233064.59 318964.21l282.67 2443.82c2442.56,2328.1 5388.49,8077.99 10094.32,6163.47 3793.95,-1543.32 8006.21,-5760.64 9186.86,-9330.73 -2083.68,-2352.13 -1715.01,-5148.82 -878.69,-7978.71 -5754.63,1395.34 -12691.81,6182.44 -18685.17,8702.15z"/>
  <path class="fil1" d="M112221.38 194422.54c2861.82,8999.68 18030.03,5149.45 14924.11,-5703.73 -2492.2,-8707.84 -18488.5,-5506.11 -14924.11,5703.73z"/>
  <path class="fil11" d="M206841.17 152156.33l76.52 -36955.19c186.55,232.4 349.39,529.3 469.22,761.07 116.99,226.39 304.81,479.03 436.34,757.9 2338.22,4965.43 -830.63,-2842.22 658.3,1522.45 157.78,462.27 368.04,1660.31 455.63,2206.05 1159.46,7224.6 3221.96,28409.87 4678.64,32558.58l-1666.31 331.37 7132.58 1705.52 -1379.85 -9637.43c-2791.95,-3161.57 -1985.67,-5344.22 -3301.64,-9960.58 -1008.33,-3537.84 -1752.32,-6370.57 -2568.08,-9846.43 -1417.16,-6040.15 -3754.42,-13644.49 -4423.48,-19827.25 -2782.14,3323.14 -1104.45,17391.96 -1114.57,22560.38 -12.96,6686.44 -352.23,17606.65 546.69,23823.55z"/>
  <path class="fil8" d="M163674.45 156461.55c24.35,-5428.96 -994.1,-10831.68 -710.79,-17264.85 252.95,-5740.41 1702.36,-10388.06 2027.72,-15845.8 -2731.87,2749.89 -11691.71,27181.16 -11982.92,29242.71 3445.82,2179.49 6314.6,2862.14 10665.99,3867.94z"/>
  <path class="fil19" d="M188744.42 241466.36c-91.69,3494.2 -1216.69,5138.38 -3959.95,6508.74 -5117.83,654.83 -10184.44,-3996.63 -6970.7,-7544.58 -1765.6,-6399.66 -10041.2,11933.28 1800.06,15182.75 8993.67,2467.85 13934.44,-6854.02 11404.93,-12142.59 -1866.78,-3903.67 -240.94,-1323.57 -2274.35,-2004.32z"/>
  <path class="fil20" d="M177813.78 240430.52c-3213.74,3547.95 1852.87,8199.41 6970.7,7544.58 2743.25,-1370.36 3868.25,-3014.54 3959.95,-6508.74 -4380.16,-4407.67 1088.01,-1196.14 1357.08,-5963.95 288.68,-5116.25 -3050.27,-4203.73 -6139.75,-2455.84 -2209.53,1250.21 645.34,1019.08 -3360.14,-418.63 -1079.47,4790.89 -5584.21,3568.19 -840.75,4464.58 0,6732.61 362.04,721.23 -1947.09,3338z"/>
  <path class="fil4" d="M66069.21 335040.82c-3451.52,2490.93 -6375,3430.02 -7402.61,7927.8l-1867.09 5429.59c-97.39,203.63 -701.94,1218.59 -844.22,1457.95l5010.96 17.71c1436.13,-1411.47 5539.31,-3175.48 7925.9,-5320.82 2767.28,-2487.46 4929.07,-4889.23 6175.48,-9104.34 -7842.43,2864.04 -5120.36,-2007.8 -8998.41,-407.88z"/>
  <path class="fil21" d="M206841.17 152156.33l-5270.55 1236.93 3145.76 -245.68 2465.96 60.71 4767.18 130.27 1666.31 -331.37c-1456.68,-4148.71 -3519.18,-25333.99 -4678.64,-32558.58 -87.58,-545.74 -297.85,-1743.78 -455.63,-2206.05 -1488.93,-4364.67 1679.91,3442.98 -658.3,-1522.45 -131.53,-278.88 -319.35,-531.51 -436.34,-757.9 -119.84,-231.77 -282.67,-528.67 -469.22,-761.07l-76.52 36955.19z"/>
  <path class="fil17" d="M272394.36 333153.49c1721.96,2219.01 3396.5,4611.61 3035.1,7506l1568.93 0c5821.35,-2320.51 13438.97,-4387.12 16619.51,-8186.76 -1084.21,-1491.78 -1310.6,-2189.92 -4266.02,-2673.38 -1582.52,-258.64 -4997.99,-107.82 -6717.75,-53.12 -4377.63,139.44 -8118.46,694.35 -10239.77,3407.25z"/>
  <path class="fil4" d="M49733.01 304584.26c396.82,1811.45 451.2,437.29 131.85,2628.48 -617.83,4236.3 173.9,768.34 -598.23,919.16l2705.94 632.38c6436.65,-2275.61 10231.55,-11051.11 10736.5,-20901.34 -5574.41,1649.56 -13117.72,9759.48 -12976.07,16721.32z"/>
  <path class="fil6" d="M217702.25 145406.65l-2068.82 -16203.09c-1050.7,-8690.13 -1574.3,-21013.27 -8224.38,-23431.16 669.06,6182.75 3006.32,13787.09 4423.48,19827.25 815.77,3475.86 1559.76,6308.6 2568.08,9846.43 1315.98,4616.36 509.7,6799.01 3301.64,9960.58z"/>
  <path class="fil15" d="M199069.25 192655.36c1851.92,1210.69 2931.7,2911.47 4047.85,5181.07 2013.81,2866.57 2650.61,6691.82 7626.79,7567.66 7278.35,1280.56 8442.24,-4493.67 11524.76,-67.66 2963.32,1328.94 800.59,1258.43 3960.58,1543.32 -768.34,-2437.81 -915.68,-2200.04 -2579.15,-3588.74 -1474.7,-1231.24 -2212.06,-1761.49 -3729.13,-2841.59 -5079.26,1799.11 -8919.05,2452.68 -12869.51,-1512.01 -5178.85,-5198.14 -2717.96,-5597.49 -2279.72,-12479.02 -1314.4,804.7 -2974.39,1752.63 -3792.68,2440.98 -1959.74,1648.29 -1832.31,1074.09 -1909.78,3756.01z"/>
  <path class="fil22" d="M105736.35 352062.21l3319.67 -415.47 9036.99 35.1 738.93 -1994.83 -289 -5411.57 -12568.5 -49.64 -3892.6 223.55c1342.22,2348.97 2362.88,5359.4 3654.51,7612.88z"/>
  <path class="fil23" d="M93185.24 313992.46l2840.96 2754.32 7602.44 -845.49c-2259.48,2394.81 2085.26,1047.85 -3463.85,2196.25 -581.15,120.15 -3380.37,296.9 -4473.75,489.46l9141.65 -346.23c-1890.49,159.99 -1293.21,-1582.84 -1256.53,-4051.01 42.37,-2839.37 457.21,-4085.79 233.35,-7197.09l-2600.65 -1667.58c-6954.89,-1326.41 -7117.72,2504.85 -8023.6,8667.36z"/>
  <path class="fil4" d="M229459.72 344654.86c2117.83,-61.34 7946.77,248.52 9568.5,-327.57 1890.81,-671.58 3200.15,-2591.8 4700.46,-5176.01l-11141.86 -5841.9c-1933.49,3291.52 -2802.7,6824.62 -3127.11,11345.48z"/>
  <path class="fil4" d="M65232.26 315727.07c1639.44,3425.9 3789.52,6178.33 6628.58,7803.22l6513.49 -1947.41c-1089.59,-3624.47 -3599.49,-7865.19 -4520.23,-11264.22 -5067.56,1027.3 -5942.45,2600.02 -8621.83,5408.41z"/>
  <path class="fil4" d="M174681.61 72804.98c-1116.15,-2102.65 -1627.74,-951.41 -2053.01,-3338.95 -806.91,-4532.88 688.66,-384.17 1567.98,-4837.37 1136.7,-5756.85 -3365.51,-6528.98 -6521.39,-4475.02 -1833.26,1192.98 -9340.21,12189.07 7006.43,12651.34z"/>
  <path class="fil21" d="M164991.38 123350.91c-325.36,5457.73 -1774.77,10105.39 -2027.72,15845.8 -283.31,6433.18 735.14,11835.89 710.79,17264.85l3633.64 363.3 1253.06 -885.01c-5845.06,-12447.08 -693.72,-38756.2 -1199.3,-39756.3l-2370.47 7167.37z"/>
  <path class="fil1" d="M140746.34 96960.85c-6928.64,-3314.92 -13114.24,1753.58 -9035.41,7455.41 2985.14,4173.06 12262.11,3031.62 9035.41,-7455.41z"/>
  <path class="fil24" d="M211447.72 187856.88l5932.65 1685.29c-2675.59,-7446.88 -3044.58,-4555.01 -2897.55,-14365.4 78.41,-5203.2 -804.38,-8479.55 -5418.21,-12786.36 516.34,5138.7 2466.27,5108.98 2702.46,11936.12 197.93,5718.27 1318.19,7517.39 -2065.98,10057.01l4383.32 2387.54c-1327.36,1511.07 2007.8,1729.55 -2636.7,1085.79z"/>
  <path class="fil25" d="M155669.19 40600.84c3386.06,-5444.14 -867.62,-11399.55 -6070.19,-7705.52 -2174.75,1544.27 -2187.71,5028.03 -874.89,6837.58 1576.52,2173.16 4540.15,1423.48 6945.08,867.94z"/>
  <path class="fil22" d="M198901.35 90040.74c991.88,-1486.4 1278.98,-726.29 1392.81,-3564.4 210.58,-5247.47 626.37,-879 -1458.89,-3905.56l-12110.66 -2649.35 -798.06 774.98c1937.29,2276.56 10125.31,7651.77 12974.8,9344.32z"/>
  <path class="fil26" d="M101601.23 124217.89c5062.5,634.27 8438.13,-662.1 8503.26,-5685.71 -2351.81,2576.94 -3383.22,2248.42 -6719.64,930.23 -526.14,-3178.96 188.45,-4343.8 1286.57,-6518.23 -3171.69,490.41 -5284.46,1577.78 -5830.52,4739.98 -565.03,3271.6 1316.93,4563.24 2760.33,6533.72z"/>
  <path class="fil23" d="M251749.76 310262.06c-836.32,2829.89 -1205,5626.58 878.69,7978.71 230.5,216.59 570.09,198.88 718.7,618.78l1844.01 1212.9c1660.62,-765.81 1089.27,-917.58 2298.69,-1264.44 5502,-1578.1 1078.52,-1121.52 3018.02,824.62 1885.43,431.91 1281.2,591.27 720.59,-1395.97 -4838.95,-2759.38 -1166.42,-794.27 -3352.55,-5314.5 -984.3,-2035.62 -1652.4,-1935.71 -3138.81,-2736.93l-2185.18 -1187.92c146.4,2959.21 -193.19,986.82 -802.17,1264.75z"/>
  <path class="fil26" d="M270623.07 213983.87c7860.77,2932.33 10076.3,-3552.38 6679.8,-6667.16 -3894.18,-3571.04 -8755.27,226.07 -6679.8,6667.16z"/>
  <path class="fil19" d="M86583.22 90092.91c2699.3,497.68 4569.56,1148.4 6407.25,-891.65 1259.7,-1397.87 1678.96,-4343.48 -225.13,-6060.07 -4616.67,-4161.68 -8860.24,499.58 -6182.12,6951.72z"/>
  <path class="fil26" d="M192119.1 154109.74l-1918.95 685.81 523.92 2551.64c1534.46,7274.24 5639.23,13025.39 8871.31,18158.08 -1961.32,-5380.27 -5208.89,-10234.71 -6880.9,-16896.18l12001.89 -5461.53 -3145.76 245.68 -9451.51 716.48z"/>
  <path class="fil3" d="M260699.48 355928.88c-1062.08,-2413.78 -1859.82,-4155.67 -5670.84,-4273.29 -4016.86,-123.95 -4272.66,1245.15 -5344.22,4489.88l11015.07 -216.59z"/>
  <path class="fil18" d="M177378.39 269314.36l4883.53 -154.3c647.55,-5741.04 -1622.05,-4759.9 -4129.42,-4364.99l-754.11 4519.29z"/>
  <path class="fil26" d="M92280.31 161442.47c3972.91,1243.89 4541.42,-998.84 4229.97,-4512.96l-4984.71 548.59 754.74 3964.37z"/>
  <path class="fil26" d="M120648.76 141717.99c568.82,2815.98 5724.28,2243.99 4531.3,-1422.22 -784.46,-2411.57 -5257.27,-2171.27 -4531.3,1422.22z"/>
  <path class="fil19" d="M267448.53 231237.02c-3338.32,-1270.45 -2691.71,448.04 -3128.05,486.61l416.74 3147.34c725.02,354.76 746.52,1809.55 3219.43,169.16 239.04,-158.73 1014.02,-1336.53 930.54,-2008.11 -123.31,-989.67 -466.69,-1425.06 -1438.66,-1795z"/>
  <path class="fil27" d="M99136.54 328560.54c1730.82,3266.86 -898.61,830.31 1995.15,1546.16 433.81,107.19 2609.51,-136.28 3214.69,-189.71l4843.06 -255.16 -540.37 -1484.19 -9512.54 382.9z"/>
  <path class="fil28" d="M95691.03 318587c1093.38,-192.56 3892.6,-369.31 4473.75,-489.46 5549.11,-1148.4 1204.36,198.57 3463.85,-2196.25l-7602.44 845.49 -1615.72 389.23c1104.45,2113.09 -344.01,335.79 1280.56,1450.99z"/>
  <path class="fil27" d="M97410.15 323318.44l8349.28 -900.51c-955.21,-3153.35 125.21,-241.88 -1506.01,-1488.93l-7601.18 1189.19c-598.55,2003.69 -290.58,-36.05 757.9,1200.25z"/>
  <path class="fil27" d="M260937.89 325354.07c645.34,2031.83 -1370.68,1714.69 2226.92,1376.37 2128.27,-1785.2 2459.32,-919.48 4388.07,-3633.32 -4211.32,77.78 -3182.12,1387.12 -6614.98,2256.95z"/>
  <path class="fil27" d="M263160.7 326965.05l614.04 1865.83 2341.38 -1169.27c896.71,-441.08 1325.46,-462.27 2207,-1182.23 1455.42,-1188.87 350.02,-273.82 1132.27,-1549.96 -2570.61,-704.78 -3107.5,1227.44 -6294.68,2035.62z"/>
  <path class="fil27" d="M257453.18 321514.27l-1099.39 659.25c-16.13,2981.03 -436.97,80.31 1976.5,1371.63 1772.24,-1581.58 1789.94,-627.95 4173.37,-3434.44 149.56,-176.43 324.41,-479.03 486.3,-718.7l-5536.78 2122.26z"/>
  <path class="fil27" d="M258642.04 323745.3c489.14,1865.51 -1166.1,1334.63 2138.7,1407.04 1419.05,-1578.73 1873.73,-1002 3183.07,-2205.42 1464.59,-1345.7 207.1,-7.27 1345.38,-1798.17l-6667.16 2596.54z"/>
  <path class="fil27" d="M255191.16 320072.45c-1237.25,742.09 -331.68,741.15 -1013.38,1706.47 2831.15,-558.71 903.67,104.66 2714.48,-881.53l3615.62 -1264.75c-1939.5,-1946.14 2483.98,-2402.72 -3018.02,-824.62 -1209.42,346.86 -638.07,498.63 -2298.69,1264.44z"/>
  <path class="fil27" d="M269073.11 329845.21c-1986.93,2372.68 -608.66,226.07 -1421.27,2396.08l3067.35 -1436.76c2997.47,-1250.21 1899.98,-112.88 3436.97,-3042.37l-5083.05 2083.05z"/>
  <path class="fil29" d="M221761.79 198451.73l-2206.36 -5593.69c-4231.24,-119.2 -897.66,-314.61 -2404.3,727.87 1847.81,2364.78 2892.18,3355.71 4610.66,4865.83z"/>
  <path class="fil27" d="M266684.94 328299.05l-1461.42 1945.19 3328.83 -995.99c581.15,-327.57 1554.7,-742.09 2129.53,-1238.51 1539.21,-1328.31 148.29,61.02 1266.97,-2068.51l-5263.91 2357.82z"/>
  <path class="fil30" d="M101905.41 39296.88c1303.01,3213.11 1659.36,3961.53 3347.17,117.94 -1477.23,-796.48 -1056.39,-1594.22 -3347.17,-117.94z"/>
  <path class="fil27" d="M99124.21 328122.3l7739.35 -2260.75c-165.68,-52.49 -1331.47,-302.59 -1604.97,-354.76 -2054.91,1571.46 -3984.61,933.39 -7079.47,1500.32l945.09 1115.2z"/>
  <path class="fil31" d="M190735.46 190490.41l-1277.09 585.9c1074.73,988.41 568.19,4497.47 3202.04,0 -1063.97,-540.37 -253.9,-476.81 -1924.96,-585.9z"/>
  <path class="fil32" d="M284471.18 63288.96c645.66,1927.49 1051.01,3733.56 1243.25,5417.89 192.24,1684.65 144.18,3301.33 -130.27,4850.33 -288.36,1548.69 -803.44,3082.84 -1572.41,4575.88 -769.29,1493.04 -1791.84,3011.38 -3069.24,4555.33l14089.05 12803.75 -15624.46 8836.84 -10983.45 -13911.04 -4551.54 1674.85 4467.11 15670 -15968.16 5320.82c-1749.47,-5687.92 -3499.26,-11335.37 -5262.64,-16969.85 -1749.79,-5634.48 -3485.98,-11295.53 -5222.17,-16996.41 -894.5,-2864.35 -1789.63,-5701.51 -2671.16,-8512.12 -881.53,-2810.6 -1722.91,-5674.32 -2524.13,-8564.6 1515.81,-1222.07 3044.9,-2323.99 4599.6,-3305.12 1541.74,-981.13 3123,-1868.99 4730.5,-2676.54 1620.47,-793.63 3294.69,-1533.83 5008.43,-2193.72 1713.43,-673.17 3494.2,-1305.86 5327.78,-1924.96 2810.6,-935.29 5673.06,-1455.42 8573.14,-1548.38 2900.72,-106.24 5611.08,294.69 8172.53,1175.59 2548.16,880.9 4813.34,2281.62 6821.46,4202.46 1995.15,1920.53 3519.81,4426.96 4546.79,7518.97zm-16241.98 6722.8c-342.43,-1030.78 -805.65,-1941.71 -1376.37,-2706.26 -570.72,-777.82 -1249.58,-1382.38 -2009.06,-1826.94 -772.77,-444.88 -1627.11,-716.48 -2575.04,-801.22 -948.57,-84.74 -1991.67,70.51 -3102.44,439.5 -495.15,157.46 -963.74,355.71 -1419.37,567.56 -442.03,225.13 -870.78,463.53 -1273.29,742.09l4007.69 14010.64 883.43 -303.22c1070.93,-355.4 2102.02,-844.86 3120.78,-1481.34 1005.48,-636.49 1850.97,-1394.08 2550.06,-2259.17 685.5,-851.81 1157.88,-1825.36 1417.16,-2906.41 259.27,-1081.05 184.97,-2230.4 -223.55,-3475.23z"/>
  <path id="1" class="fil32" d="M325732.55 30953.93c1786.15,9095.8 3733.56,18085.05 5815.03,26968.68 2081.47,8896.29 4216.06,17833.36 6404.09,26810.59l-14849.8 6181.49 -1240.72 -5938.97c-310.81,733.24 -715.22,1412.73 -1225.86,2051.43 -524.24,639.33 -1101.92,1224.28 -1758.96,1728.92 -657.36,504.64 -1367.83,941.93 -2118.15,1326.1 -763.6,370.26 -1499.68,660.83 -2222.49,884.38 -1699.51,526.14 -3384.17,731.98 -5080.52,590.01 -1696.98,-128.69 -3338.64,-524.24 -4925.59,-1159.78 -1587.27,-635.86 -3119.83,-1498.73 -4570.82,-2561.44 -1451.62,-1076.31 -2781.83,-2271.82 -3977.97,-3587.16 -1196.46,-1315.66 -2245.57,-2723.65 -3133.75,-4211.32 -901.14,-1487.67 -1588.53,-2987.67 -2102.34,-4500.31 -737.67,-2235.14 -1461.42,-4550.59 -2171.27,-6972.91 -709.53,-2422.01 -1352.34,-4870.57 -1928.43,-7345.38 -576.1,-2475.13 -1085.16,-4949.93 -1500.63,-7410.83 -429.07,-2473.86 -724.39,-4881.01 -900.19,-7220.17 3064.18,-853.71 6141.97,-1720.7 9233.03,-2614.25 3091.38,-893.55 6129.63,-1867.73 9141.33,-2922.22 148.92,2339.16 297.85,4691.92 460.05,7044.68 162.2,2352.76 391.44,4692.56 674.11,7032.04 282.67,2340.11 658.62,4666.95 1115.2,6954.57 469.86,2300.59 1073.78,4561.97 1824.09,6823.98 171.37,521.71 448.36,1244.83 817.98,2195.61 369.62,950.46 819.24,1861.4 1336.21,2732.5 530.25,871.1 1128.16,1582.21 1793.74,2146.61 665.58,564.4 1399.77,715.22 2189.29,451.52 936.87,-315.56 1648.61,-993.78 2121.63,-2047.32 472.7,-1053.54 773.08,-2361.61 887.23,-3910.94 114.46,-1549.64 83.16,-3287.1 -108.14,-5198.77 -177.7,-1925.27 -448.67,-3904.3 -812.92,-5937.08 -364.25,-2033.09 -795.21,-4080.1 -1279.62,-6113.51 -484.72,-2047.01 -969.75,-3946.67 -1469.01,-5726.49 -498.95,-1766.23 -959,-3358.87 -1379.85,-4750.42 -420.85,-1405.14 -762.96,-2489.67 -1026.35,-3252.63 -158.09,-494.84 -329.47,-977.02 -514.44,-1432.02 -184.65,-468.59 -382.9,-937.18 -594.43,-1419.37 1632.8,-486.61 3238.72,-973.23 4831.36,-1486.4 1592.64,-500.21 3185.29,-1013.38 4804.8,-1553.75 1231.56,-408.2 2476.39,-829.68 3721.22,-1264.44 1244.83,-421.8 2489.99,-883.43 3721.86,-1385.22z"/>
  <polygon id="2" class="fil32" points="371321.9,51726.26 375248.01,68729.94 344797.78,81596.92 328327.19,28171.15 347641.58,21743.98 356250.45,56744.17 "/>
  <path id="3" class="fil32" d="M411018.12 26832.72c711.11,2155.14 1288.47,4362.46 1705.21,6609.61 -4137.65,1690.34 -8208.89,3528.03 -12187.49,5526.35 -3978.6,1998.63 -7970.48,3996.94 -11948.77,5981.97 1235.03,1569.56 2712.9,2659.15 4447.19,3269.08 1734.3,596.33 3551.43,591.91 5452.36,-53.75 990.62,-329.15 2008.75,-872.05 3067.98,-1628.37 1046.27,-770.24 2065.98,-1620.78 3046.16,-2564.61 966.59,-944.14 1893.34,-1915.15 2740.09,-2913.05 846.75,-998.21 1572.72,-1889.86 2164.31,-2661.99l3830.63 17457.41c-713.64,1065.56 -1546.8,2036.89 -2499.79,2927.59 -953.31,903.98 -1986.3,1714.06 -3098.97,2443.82 -1099.07,716.17 -2251.58,1365.3 -3443.61,1920.85 -1178.75,568.51 -2370.47,1044.06 -3561.55,1439.29 -2449.51,816.4 -4803.22,1232.5 -7048.48,1235.03 -2258.22,2.21 -4408.3,-315.56 -6449.62,-966.91 -2054.59,-651.35 -3961.21,-1596.12 -5745.78,-2807.44 -1784.57,-1224.6 -3407.88,-2662.63 -4856.66,-4326.41 -1461.74,-1650.82 -2762.22,-3487.88 -3901.77,-5511.17 -1139.54,-2010.33 -2077.68,-4112.67 -2815.34,-6321.24 -763.91,-2302.17 -1313.76,-4670.11 -1662.52,-7117.41 -349.07,-2446.98 -443.93,-4866.14 -298.48,-7284.04 145.13,-2418.21 557.44,-4741.57 1249.89,-6996.31 692.45,-2255.06 1678.33,-4348.23 2970.59,-6292.79 1278.98,-1931.6 2877.32,-3647.55 4808.91,-5148.18 1945.19,-1500.63 4235.98,-2692.03 6886.27,-3574.51 2195.3,-737.67 4308.39,-1101.6 6339.27,-1105.08 2017.92,9.8 3914.1,313.03 5701.83,909.67 1787.73,610.24 3440.45,1473.44 4998.63,2603.5 1544.27,1143.65 2954.15,2486.51 4216.38,4029.51 1275.19,1543 2402.72,3232.08 3395.87,5094.43 993.46,1862.35 1825.67,3804.07 2497.26,5825.14zm-15502.42 3024.98c-223.86,-696.25 -541.32,-1379.22 -925.48,-2062.5 -397.45,-683.6 -862.56,-1260.33 -1394.71,-1744.1 -532.15,-483.77 -1131.64,-834.11 -1798.8,-1037.73 -680.44,-190.35 -1415.58,-167.26 -2232.29,109.09 -990.3,329.47 -1781.72,886.91 -2360.03,1672.64 -578.31,785.73 -996.94,1665.68 -1282.15,2652.82 -272.24,987.77 -424.33,2002.42 -455.94,3071.14 -31.94,1055.75 -9.8,2004.32 79.68,2846.96l10646.07 -4691.92 -276.35 -816.4z"/>
  <polygon id="4" class="fil32" points="297142.13,114416.68 302022.82,130289.03 291098.5,134418.46 299995.73,170568.63 284598.92,176600.56 272957.49,141372.4 262085.97,145648.85 256693.06,127970.11 "/>
  <polygon id="5" class="fil32" points="360394.42,150448.28 342132.94,157521.73 336756.78,141901.06 328217.47,144745.81 333108.28,161192.69 316484.34,166737.69 300504.8,114049.27 318449.45,108978.55 326215.37,136009.84 334460.3,133270.69 325229.17,105323.41 342319.17,100128.43 "/>
  <path id="6" class="fil32" d="M395797.43 106698.51c711.42,2155.14 1288.47,4362.46 1705.21,6609.61 -4137.33,1690.34 -8208.57,3528.03 -12187.18,5526.35 -3978.6,1998.63 -7970.48,3996.63 -11949.09,5981.97 1235.03,1569.56 2713.22,2659.15 4447.51,3269.08 1733.98,596.33 3551.43,591.91 5452.36,-53.75 990.3,-329.15 2008.43,-872.36 3067.98,-1628.69 1045.95,-769.92 2065.98,-1620.47 3046.16,-2564.29 966.59,-944.14 1893.02,-1915.15 2740.09,-2913.36 846.44,-997.89 1572.72,-1889.54 2164.31,-2661.68l3830.63 17457.41c-713.64,1065.24 -1547.11,2036.89 -2500.1,2927.59 -953.31,903.98 -1985.98,1714.06 -3098.97,2443.82 -1099.07,716.17 -2251.58,1365.3 -3443.29,1920.53 -1178.75,568.82 -2370.47,1044.06 -3561.55,1439.61 -2449.51,816.4 -4803.54,1232.5 -7048.79,1235.03 -2257.9,2.21 -4408.3,-315.56 -6449.3,-966.91 -2054.59,-651.35 -3961.21,-1596.12 -5746.1,-2807.44 -1784.57,-1224.92 -3407.88,-2662.63 -4856.34,-4326.41 -1461.74,-1651.14 -2762.54,-3488.19 -3901.77,-5511.49 -1139.86,-2010.01 -2077.99,-4112.67 -2815.66,-6320.93 -763.91,-2302.17 -1313.45,-4670.42 -1662.52,-7117.41 -348.76,-2446.98 -443.93,-4866.14 -298.48,-7284.36 145.45,-2418.21 557.76,-4741.25 1250.21,-6995.99 692.14,-2255.06 1678.33,-4348.23 2970.59,-6293.1 1278.67,-1931.28 2877.32,-3647.55 4808.91,-5147.87 1944.88,-1500.63 4235.98,-2692.35 6886.27,-3574.83 2194.98,-737.35 4308.07,-1101.29 6339.27,-1104.76 2017.6,9.8 3913.78,313.03 5701.51,909.67 1788.05,609.93 3440.45,1473.12 4998.63,2603.5 1544.27,1143.34 2954.47,2486.51 4216.38,4029.51 1275.51,1543 2403.03,3232.08 3396.18,5094.43 993.15,1862.04 1825.36,3804.07 2496.94,5825.14zm-15502.1 3024.66c-223.86,-695.93 -541.32,-1378.9 -925.48,-2062.18 -397.77,-683.6 -862.56,-1260.64 -1394.71,-1744.1 -532.15,-483.77 -1131.64,-834.11 -1799.11,-1037.73 -680.44,-190.35 -1415.26,-167.26 -2231.98,109.09 -990.62,329.47 -1781.72,886.91 -2360.03,1672.64 -578.63,785.41 -997.26,1665.37 -1282.46,2652.82 -271.92,987.46 -424.01,2002.42 -455.94,3071.14 -31.94,1055.75 -9.8,2004.32 79.68,2846.65l10646.39 -4691.92 -276.35 -816.4z"/>
  <polygon id="7" class="fil32" points="348112.07,173748.54 356559.68,228110.55 335623.56,235585.56 322209.25,210424.22 325916.57,236673.89 305072.46,244443.59 279408.05,196625.42 297285.36,188868.37 311265.96,218442.13 305972.02,185971.13 320454.72,181150.52 336641.69,210400.82 329221.69,178226.72 "/>
  <path id="8" class="fil32" d="M402519.29 180890.29c750.95,2248.73 1221.12,4509.17 1396.92,6781.93 176.12,2259.17 85.37,4476.92 -286.15,6626.68 -371.52,2163.05 -995.99,4231.24 -1887.65,6218.17 -891.65,2000.21 -2036.57,3825.25 -3407.88,5488.72 -1384.27,1677.06 -3008.54,3152.72 -4859.19,4453.2 -1850.34,1287.2 -3926.43,2319.24 -6228.6,3083.16 -2235.45,737.35 -4455.73,1167.68 -6661.15,1263.81 -2205.42,109.4 -4355.82,-61.34 -6451.83,-512.54 -2108.98,-437.92 -4110.14,-1142.39 -6016.12,-2114.04 -1906.3,-984.93 -3651.03,-2182.65 -5247.47,-3620.36 -1583.16,-1437.39 -3005.06,-3074.62 -4239.14,-4924.64 -1233.45,-1836.74 -2212.69,-3859.4 -2950.36,-6067.98 -711.11,-2154.83 -1154.72,-4348.54 -1330.84,-6594.43 -162.84,-2232.29 -58.49,-4436.76 299.43,-6599.81 371.21,-2149.77 995.99,-4231.24 1874.37,-6231.76 864.78,-1986.61 1983.45,-3838.53 3327.57,-5515.6 1358.03,-1690.98 2928.86,-3179.59 4725.44,-4467.43 1797.22,-1287.2 3819.88,-2293 6041.73,-3043.95 3587.16,-1198.36 7050.69,-1729.55 10377.63,-1592.96 3326.62,123 6383.22,873 9169.16,2249.37 2772.97,1363.41 5235.77,3326.31 7361.51,5875.73 2125.74,2549.11 3794.26,5631 4992.62,9244.73zm-16160.72 6455.94c-355.4,-1057.34 -858.45,-2048.9 -1495.57,-2947.19 -650.4,-898.29 -1395.02,-1637.23 -2247.47,-2216.17 -852.44,-578.31 -1799.43,-970.7 -2840.64,-1162.94 -1041.21,-191.93 -2124.16,-90.43 -3262.12,291.53 -1164.21,381.96 -2142.49,938.45 -2921.27,1669.48 -764.86,718.06 -1370.36,1556.91 -1776.03,2503.9 -418.95,959.95 -624.47,1974.6 -656.41,3070.19 -18.66,1095.59 149.87,2178.86 518.55,3276.66 342.43,1030.46 845.17,2021.71 1482.29,2960.16 650.08,952.04 1407.99,1744.1 2273.4,2376.47 879,645.66 1838.95,1091.17 2893.44,1309.97 1054.81,232.71 2164.31,144.5 3328.52,-237.46 1164.52,-381.96 2129.53,-965.01 2908.3,-1736.51 778.77,-757.59 1357.71,-1650.19 1736.82,-2637.33 378.79,-1000.42 584.32,-2054.91 590.01,-3190.98 5.69,-1122.15 -162.84,-2232.29 -531.83,-3329.78z"/>
  <path id="9" class="fil32" d="M446122.03 157922.98c645.66,1927.49 1051.01,3733.56 1243.25,5417.89 192.24,1684.65 144.18,3301.33 -130.59,4850.33 -288.36,1548.69 -803.44,3082.84 -1572.41,4575.88 -768.97,1493.04 -1791.84,3011.38 -3068.93,4555.33l14089.05 12803.43 -15624.46 8837.16 -10983.45 -13911.04 -4551.54 1674.85 4466.8 15670 -15967.85 5320.82c-1749.79,-5687.92 -3499.26,-11335.68 -5262.64,-16970.16 -1749.79,-5634.17 -3485.98,-11295.21 -5222.17,-16996.09 -894.5,-2864.35 -1789.63,-5701.51 -2671.48,-8512.12 -881.22,-2810.6 -1722.6,-5674.32 -2523.82,-8564.6 1515.81,-1222.39 3044.9,-2323.99 4599.6,-3305.12 1541.74,-981.13 3122.68,-1868.99 4730.18,-2676.54 1620.78,-793.63 3295,-1533.83 5008.75,-2193.72 1713.43,-673.17 3494.2,-1305.86 5327.78,-1924.96 2810.6,-935.29 5673.06,-1455.42 8573.14,-1548.38 2900.4,-106.24 5611.08,294.69 8172.53,1175.59 2547.85,880.9 4813.02,2281.62 6821.46,4202.46 1994.83,1920.53 3519.81,4426.96 4546.79,7518.97zm-16242.3 6722.8c-342.12,-1030.78 -805.33,-1941.71 -1376.37,-2706.26 -570.72,-777.82 -1249.26,-1382.38 -2009.06,-1826.94 -772.45,-444.88 -1626.79,-716.48 -2575.04,-801.22 -948.25,-84.74 -1991.36,70.51 -3102.44,439.19 -495.15,157.78 -963.74,356.03 -1419.05,567.87 -442.35,224.81 -870.78,463.22 -1273.29,741.78l4007.69 14010.95 883.43 -303.22c1070.61,-355.4 2102.02,-844.86 3120.47,-1481.34 1005.48,-636.49 1851.28,-1394.39 2550.38,-2259.17 685.5,-851.81 1157.88,-1825.36 1417.16,-2906.41 259.27,-1081.05 184.65,-2230.71 -223.86,-3475.23z"/>
  <polygon id="10" class="fil32" points="486550.55,162091.93 490476.66,179095.61 460026.43,191962.59 443555.84,138537.13 462870.23,132109.96 471479.41,167109.84 "/>
  <path id="11" class="fil32" d="M527047.36 137509.84c1158.83,3466.69 1744.1,6730.08 1769.71,9763.59 25.3,3047.11 -402.82,5891.23 -1297.64,8546.26 -894.81,2641.44 -2189.61,5080.2 -3897.66,7303.64 -1721.33,2209.84 -3722.17,4244.83 -6029.72,6064.18 -2307.23,1832.95 -4867.73,3464.16 -7680.54,4893.65 -2800.17,1429.49 -5772.66,2657.88 -8891.54,3698.46 -1164.21,395.24 -2315.13,737.04 -3439.18,1051.96 -1137.33,301.96 -2314.82,590.32 -3518.86,851.81l-15063.55 -48688.32c2440.98,-1778.88 5041,-3329.47 7800.06,-4639.12 2772.66,-1322.93 5570.93,-2458.37 8422,-3406.62 3533.41,-1185.39 6957.42,-1770.34 10258.11,-1767.49 3300.69,2.85 6344.64,605.5 9145.13,1808.6 2786.89,1202.78 5250,3005.37 7389.96,5407.78 2139.65,2415.68 3822.09,5457.73 5033.72,9111.61zm-20502.62 22670.73c1419.69,-714.59 2613.93,-1617.31 3621.31,-2708.47 994.1,-1090.85 1774.77,-2276.24 2329.05,-3583.37 554.28,-1293.21 868.25,-2668 928.96,-4097.81 60.08,-1443.09 -159.99,-2873.84 -633.96,-4305.86 -474.28,-1419.05 -1056.07,-2691.4 -1758.64,-3817.35 -716.17,-1125.95 -1553.75,-2025.19 -2512.44,-2711.32 -972.28,-673.17 -2092.85,-1106.03 -3361.4,-1272.66 -1268.87,-166.63 -2699.3,-12.96 -4291.63,460.37l5678.75 22036.46z"/>
  <path id="12" class="fil32" d="M538916.14 104750.47l9974.17 40084.19 -13746.3 4570.19 -14417.57 -38595.89 18189.7 -6058.49zm14382.48 51317.43c355.71,1097.49 484.08,2180.75 371.84,3262.44 -98.65,1082 -397.45,2082.74 -856.56,3029.09 -472.07,946.67 -1118.04,1771.92 -1923.06,2489.67 -805.33,731.34 -1729.87,1261.28 -2800.48,1616.67 -1084.21,368.68 -2167.47,497.05 -3249.47,398.4 -1081.68,-85.37 -2082.74,-370.89 -3029.4,-843.28 -933.07,-472.39 -1771.61,-1104.45 -2489.67,-1909.78 -717.43,-805.33 -1260.64,-1756.74 -1629.64,-2840.64 -355.4,-1070.93 -483.77,-2154.19 -398.4,-3249.47 85.69,-1108.56 371.21,-2122.89 843.28,-3069.56 459.11,-933.07 1104.76,-1771.61 1896.5,-2502.63 805.33,-744.31 1743.78,-1287.84 2841.27,-1656.83 1057.34,-355.4 2140.28,-470.49 3222.28,-371.84 1068.4,112.25 2082.74,397.77 3029.09,870.15 933.07,472.39 1785.2,1117.73 2516.23,1949.94 744.31,818.93 1300.8,1770.34 1656.2,2827.68z"/>
 </g>
</svg>
