<?xml version="1.0" encoding="UTF-8" standalone="no" ?>
<!DOCTYPE svg PUBLIC "-//W3C//DTD SVG 1.1//EN" "http://www.w3.org/Graphics/SVG/1.1/DTD/svg11.dtd">
<svg xmlns="http://www.w3.org/2000/svg" xmlns:xlink="http://www.w3.org/1999/xlink" version="1.1" width="1080" height="1080" viewBox="0 0 1080 1080" xml:space="preserve">
<desc>Created with Fabric.js 5.2.4</desc>
<defs>
</defs>
<rect x="0" y="0" width="100%" height="100%" fill="transparent"></rect>
<g transform="matrix(1 0 0 1 540 540)" id="79850bee-fa0f-4970-aba9-5d257932f520"  >
<rect style="stroke: none; stroke-width: 1; stroke-dasharray: none; stroke-linecap: butt; stroke-dashoffset: 0; stroke-linejoin: miter; stroke-miterlimit: 4; fill: rgb(255,255,255); fill-rule: nonzero; opacity: 1; visibility: hidden;" vector-effect="non-scaling-stroke"  x="-540" y="-540" rx="0" ry="0" width="1080" height="1080" />
</g>
<g transform="matrix(1 0 0 1 540 540)" id="f0b4dcb7-5b55-4aba-8c98-7cd5bdc1c623"  >
</g>
<g transform="matrix(0.16 0 0 0.16 382.28 602.68)"  >
<path style="stroke: none; stroke-width: 1; stroke-dasharray: none; stroke-linecap: butt; stroke-dashoffset: 0; stroke-linejoin: miter; stroke-miterlimit: 4; fill: rgb(0,0,0); fill-rule: nonzero; opacity: 1;" vector-effect="non-scaling-stroke"  transform=" translate(-1234.64, -1310.77)" d="M 1545.3 1086.41 C 1497.74 1019.33 1435.53 962.0000000000001 1364.79 921.7500000000001 C 1269.6599999999999 865.6500000000001 1135.5 870.5300000000001 1135.5 870.5300000000001 C 1096.47 960.7800000000001 991.58 1001.0300000000001 901.33 960.7800000000001 C 900.11 960.7800000000001 898.89 959.5600000000001 897.6700000000001 959.5600000000001 C 794.0000000000001 1094.95 803.7500000000001 1208.3700000000001 804.97 1215.69 C 811.07 1390.1000000000001 979.38 1749.91 1655.0700000000002 1751.12 C 1656.2900000000002 1737.7099999999998 1712.4 1305.9499999999998 1545.3000000000002 1086.4099999999999 z" stroke-linecap="round" />
</g>
<g transform="matrix(0.16 0 0 0.16 275.8 457.28)"  >
<path style="stroke: none; stroke-width: 1; stroke-dasharray: none; stroke-linecap: butt; stroke-dashoffset: 0; stroke-linejoin: miter; stroke-miterlimit: 4; fill: rgb(0,0,0); fill-rule: nonzero; opacity: 1;" vector-effect="non-scaling-stroke"  transform=" translate(-561.7, -391.96)" d="M 998.9 172.89 C 811.0699999999999 -10.060000000000002 463.47 -78.37 18.289999999999964 120.43999999999998 C 19.509999999999962 125.30999999999999 152.45999999999995 691.2399999999999 750.0899999999999 780.27 L 751.31 780.28 C 764.7299999999999 781.5 779.3599999999999 782.72 796.4399999999999 783.93 L 796.4399999999999 783.93 C 803.76 691.2299999999999 880.5999999999999 620.5 973.29 620.5 C 992.8 620.5 1013.54 624.16 1031.83 630.26 C 1205.02 370.46999999999997 1019.6299999999999 192.39999999999998 998.9 172.89 z" stroke-linecap="round" />
</g>
<g transform="matrix(0.16 0 0 0.16 258.03 571.82)"  >
<path style="stroke: none; stroke-width: 1; stroke-dasharray: none; stroke-linecap: butt; stroke-dashoffset: 0; stroke-linejoin: miter; stroke-miterlimit: 4; fill: rgb(0,0,0); fill-rule: nonzero; opacity: 1;" vector-effect="non-scaling-stroke"  transform=" translate(-449.45, -1115.78)" d="M 898.89 959.57 L 898.89 959.57 C 836.6899999999999 930.3000000000001 796.4399999999999 868.1 796.4399999999999 799.7900000000001 C 796.4399999999999 794.9200000000001 796.4399999999999 790.0400000000001 797.66 785.1600000000001 C 767.17 781.5000000000001 736.68 780.2900000000001 706.1899999999999 780.2900000000001 C 550.0699999999999 782.7300000000001 398.8299999999999 833.95 273.2099999999999 927.8600000000001 C 21.959999999999923 1124.23 0.009999999999934062 1444.9900000000002 0.009999999999934062 1444.9900000000002 C 13.429999999999934 1446.2100000000003 457.37999999999994 1504.7500000000002 726.9299999999998 1238.8700000000003 C 754.9799999999998 1210.8200000000004 779.3799999999999 1180.3200000000004 800.1099999999999 1146.1700000000003 C 800.1099999999999 1146.1700000000003 807.43 1135.1900000000003 818.3999999999999 1115.6800000000003 L 818.3999999999999 1115.6800000000003 C 834.2599999999999 1059.5800000000004 862.3099999999998 1007.1400000000003 898.8999999999999 959.5700000000003 L 898.8999999999999 959.5700000000003 z" stroke-linecap="round" />
</g>
<g transform="matrix(0.16 0 0 0.16 786.58 566.5)"  >
<path style="stroke: none; stroke-width: 1; stroke-dasharray: none; stroke-linecap: butt; stroke-dashoffset: 0; stroke-linejoin: miter; stroke-miterlimit: 4; fill: rgb(0,0,0); fill-rule: nonzero; opacity: 1;" vector-effect="non-scaling-stroke"  transform=" translate(-3789.48, -1082.14)" d="M 3817.53 413.16 C 3687.03 413.16 3576.03 468.05 3508.9500000000003 557.08 L 3508.9500000000003 513.1700000000001 C 3508.9500000000003 457.07000000000005 3463.8300000000004 413.1600000000001 3407.7200000000003 413.1600000000001 L 3407.7200000000003 413.1600000000001 C 3351.6200000000003 413.1600000000001 3306.4900000000002 458.2900000000001 3306.4900000000002 513.1700000000001 L 3306.4900000000002 1648.68 C 3306.4900000000002 1704.78 3352.84 1751.13 3408.94 1751.13 L 3408.94 1751.13 C 3465.04 1751.13 3511.39 1704.7800000000002 3511.39 1648.68 L 3511.39 1248.63 C 3590.67 1335.22 3702.88 1384.02 3819.97 1381.5700000000002 C 4049.27 1381.5700000000002 4272.469999999999 1210.8100000000002 4272.469999999999 894.9300000000002 C 4273.69 574.1600000000002 4035.859999999999 413.1600000000002 3817.5399999999995 413.1600000000002 z M 3794.36 1196.18 C 3654.1000000000004 1196.18 3511.4 1094.95 3511.4 892.49 C 3511.4 694.9 3651.66 596.11 3793.1400000000003 596.11 C 3934.6200000000003 596.11 4071.2200000000003 692.46 4071.2200000000003 893.7 C 4071.2200000000003 1094.95 3935.84 1196.17 3794.36 1196.17 z" stroke-linecap="round" />
</g>
<g transform="matrix(0.16 0 0 0.16 609.3 508.21)"  >
<path style="stroke: none; stroke-width: 1; stroke-dasharray: none; stroke-linecap: butt; stroke-dashoffset: 0; stroke-linejoin: miter; stroke-miterlimit: 4; fill: rgb(0,0,0); fill-rule: nonzero; opacity: 1;" vector-effect="non-scaling-stroke"  transform=" translate(-2669.22, -713.8)" d="M 2641.78 1382.79 C 2773.5 1382.79 2883.28 1327.9099999999999 2950.36 1238.87 L 2950.36 1281.56 C 2950.36 1337.6599999999999 2995.4900000000002 1381.57 3051.59 1381.57 L 3051.59 1381.57 C 3107.69 1381.57 3152.82 1336.4399999999998 3152.82 1281.56 L 3152.82 146.04999999999995 C 3151.6000000000004 89.94999999999996 3106.4700000000003 44.81999999999995 3050.3700000000003 44.81999999999995 L 3050.3700000000003 44.81999999999995 C 2994.2700000000004 44.81999999999995 2947.9200000000005 89.93999999999994 2947.9200000000005 147.26999999999995 L 2947.9200000000005 546.0999999999999 C 2868.6400000000003 460.7199999999999 2755.2100000000005 411.93999999999994 2638.1200000000003 413.1599999999999 C 2408.82 413.1599999999999 2185.6200000000003 582.6999999999999 2185.6200000000003 899.8 C 2185.6300000000006 1221.79 2423.4500000000003 1382.79 2641.7700000000004 1382.79 z M 2664.9500000000003 600.99 C 2805.21 600.99 2947.9100000000003 702.22 2947.9100000000003 904.69 C 2947.9100000000003 1102.27 2807.6500000000005 1201.0700000000002 2667.3900000000003 1201.0700000000002 C 2527.13 1201.0700000000002 2389.3100000000004 1104.7200000000003 2389.3100000000004 903.4700000000001 C 2389.3100000000004 702.2300000000001 2523.4700000000003 601.0000000000001 2664.9500000000003 601.0000000000001 z" stroke-linecap="round" />
</g>
<g transform="matrix(0.16 0 0 0.16 497.55 418.56)"  >
<path style="stroke: none; stroke-width: 1; stroke-dasharray: none; stroke-linecap: butt; stroke-dashoffset: 0; stroke-linejoin: miter; stroke-miterlimit: 4; fill: rgb(0,0,0); fill-rule: nonzero; opacity: 1;" vector-effect="non-scaling-stroke"  transform=" translate(-1963.04, -147.31)" d="M 1962.43 0.92 C 1883.15 -0.29999999999999993 1818.51 61.9 1816.0700000000002 141.17999999999998 C 1816.0700000000002 143.61999999999998 1816.0700000000002 146.04999999999998 1816.0700000000002 147.27999999999997 C 1814.8500000000001 226.55999999999997 1877.0500000000002 291.19999999999993 1956.3300000000002 293.64 C 1958.7700000000002 293.64 1961.2100000000003 293.64 1962.43 293.64 C 2041.71 296.08 2108.79 232.66 2110.01 152.16 C 2110.01 150.94 2110.01 148.51 2110.01 147.29 C 2111.23 68.00999999999999 2046.5900000000001 2.1500000000000057 1967.3100000000002 0.9299999999999784 C 1966.0900000000001 0.9299999999999784 1963.65 0.9299999999999784 1962.43 0.9299999999999784 z" stroke-linecap="round" />
</g>
<g transform="matrix(0.16 0 0 0.16 497.45 537.35)"  >
<path style="stroke: none; stroke-width: 1; stroke-dasharray: none; stroke-linecap: butt; stroke-dashoffset: 0; stroke-linejoin: miter; stroke-miterlimit: 4; fill: rgb(0,0,0); fill-rule: nonzero; opacity: 1;" vector-effect="non-scaling-stroke"  transform=" translate(-1962.43, -897.97)" d="M 1962.43 413.16 L 1962.43 413.16 C 1906.3300000000002 413.16 1859.98 459.51000000000005 1859.98 515.62 L 1859.98 1284 L 1859.98 1284 C 1862.42 1338.88 1907.55 1382.79 1962.43 1382.79 L 1962.43 1382.79 C 2017.3200000000002 1382.79 2062.44 1338.8799999999999 2064.89 1284 L 2064.89 1284 L 2064.89 1280.34 L 2064.89 1280.34 L 2064.89 515.6099999999999 C 2064.89 459.5099999999999 2018.54 414.3799999999999 1962.4299999999998 413.1499999999999 z" stroke-linecap="round" />
</g>
</svg>