<?xml version="1.0" encoding="UTF-8" standalone="no" ?>
<!DOCTYPE svg PUBLIC "-//W3C//DTD SVG 1.1//EN" "http://www.w3.org/Graphics/SVG/1.1/DTD/svg11.dtd">
<svg xmlns="http://www.w3.org/2000/svg" xmlns:xlink="http://www.w3.org/1999/xlink" version="1.1" width="1080" height="1080" viewBox="0 0 1080 1080" xml:space="preserve">
<desc>Created with Fabric.js 5.2.4</desc>
<defs>
</defs>
<rect x="0" y="0" width="100%" height="100%" fill="transparent"></rect>
<g transform="matrix(1 0 0 1 540 540)" id="af5fd1e3-897f-4495-b8d7-52955d9d1da8"  >
</g>
<g transform="matrix(1 0 0 1 540 540)" id="92f5c52b-5881-4802-a583-6f31291c12d8"  >
<rect style="stroke: none; stroke-width: 1; stroke-dasharray: none; stroke-linecap: butt; stroke-dashoffset: 0; stroke-linejoin: miter; stroke-miterlimit: 4; fill: rgb(255,255,255); fill-rule: nonzero; opacity: 1; visibility: hidden;" vector-effect="non-scaling-stroke"  x="-540" y="-540" rx="0" ry="0" width="1080" height="1080" />
</g>
<g transform="matrix(0.06 0 0 0.06 617.1 526.02)"  >
<path style="stroke: none; stroke-width: 1; stroke-dasharray: none; stroke-linecap: butt; stroke-dashoffset: 0; stroke-linejoin: miter; stroke-miterlimit: 4; fill: rgb(0,0,0); fill-rule: nonzero; opacity: 1;" vector-effect="non-scaling-stroke"  transform=" translate(-8672.05, -2526.03)" d="M 8849.61 2931.09 C 8814.28 2980.1200000000003 8698.94 3126.4500000000003 8555.470000000001 3126.4500000000003 C 8361.43 3126.4500000000003 8320.720000000001 2990.26 8320.720000000001 2876.0200000000004 C 8320.720000000001 2688.1800000000003 8464.53 2601.2900000000004 8849.62 2506.1800000000003 L 8849.62 2931.09 z M 9329.02 3161.21 C 9323.43 3146.63 9308.27 3138.34 9293.390000000001 3141.85 L 9288.680000000002 3143.04 C 9244.450000000003 3152.62 9210.410000000002 3149.96 9186.570000000002 3133.86 C 9152.770000000002 3110.9300000000003 9136.270000000002 3059.31 9136.270000000002 2976.02 L 9136.270000000002 2222.91 C 9136.270000000002 1928.77 8960.860000000002 1779.62 8614.880000000003 1779.62 C 8304.920000000004 1779.62 8062.150000000003 1926.32 8062.150000000003 2113.56 C 8062.150000000003 2209.84 8120.800000000003 2279.43 8207.470000000003 2289.89 C 8264.080000000004 2296.73 8318.030000000002 2271.0899999999997 8357.250000000004 2229.69 C 8433.460000000003 2149.3 8423.590000000004 2053.7 8331.210000000003 1951.03 C 8385.840000000002 1893.84 8482.620000000003 1860.02 8592.960000000003 1860.02 C 8772.840000000002 1860.02 8849.600000000002 1966.68 8849.600000000002 2216.7 L 8849.600000000002 2407.02 C 8807.430000000002 2420.02 8767.970000000003 2432.4 8695.820000000002 2449.32 C 8550.170000000002 2483.4900000000002 8350.360000000002 2529.02 8199.660000000002 2612.28 C 8075.260000000002 2680.46 8012.180000000002 2788.11 8012.180000000002 2932.26 C 8012.180000000002 3089.21 8115.190000000002 3272.4300000000003 8405.480000000001 3272.4300000000003 C 8567.990000000002 3272.4300000000003 8713.670000000002 3195.2900000000004 8863.160000000002 3029.9400000000005 C 8876.030000000002 3201.8400000000006 8941.180000000002 3266.2300000000005 9099.180000000002 3266.2300000000005 C 9175.160000000002 3266.2300000000005 9235.950000000003 3248.5100000000007 9308.210000000003 3213.5100000000007 C 9327.780000000002 3204.060000000001 9337.100000000002 3181.310000000001 9329.010000000002 3161.1800000000007 z" stroke-linecap="round" />
</g>
<g transform="matrix(0.06 0 0 0.06 868.17 525.9)"  >
<path style="stroke: none; stroke-width: 1; stroke-dasharray: none; stroke-linecap: butt; stroke-dashoffset: 0; stroke-linejoin: miter; stroke-miterlimit: 4; fill: rgb(0,0,0); fill-rule: nonzero; opacity: 1;" vector-effect="non-scaling-stroke"  transform=" translate(-12567.86, -2524.52)" d="M 12553.82 1850.65 C 12376.09 1850.65 12172.15 1927.1100000000001 12172.15 2522.96 C 12172.15 2977.41 12306.199999999999 3198.29 12581.96 3198.29 C 12845.869999999999 3198.29 12963.55 2990 12963.55 2522.96 C 12963.55 2070.54 12829.519999999999 1850.65 12553.83 1850.65 z M 12569.39 3278.76 C 12158.16 3278.76 11848 2956.53 11848 2529.17 C 11848 2110.71 12171.63 1770.27 12569.39 1770.27 C 12972.199999999999 1770.27 13287.72 2098.12 13287.72 2516.68 C 13287.72 2987.37 12914.869999999999 3278.7599999999998 12569.39 3278.7599999999998 z" stroke-linecap="round" />
</g>
<g transform="matrix(0.06 0 0 0.06 425.19 506.02)"  >
<path style="stroke: none; stroke-width: 1; stroke-dasharray: none; stroke-linecap: butt; stroke-dashoffset: 0; stroke-linejoin: miter; stroke-miterlimit: 4; fill: rgb(0,0,0); fill-rule: nonzero; opacity: 1;" vector-effect="non-scaling-stroke"  transform=" translate(-5704.85, -2227.85)" d="M 5457.8 2976.03 L 5457.8 2431.2400000000002 L 5667.54 2431.2400000000002 C 5980.53 2431.2400000000002 6218.64 2365.0000000000005 6375.27 2234.3100000000004 C 6538.9800000000005 2097.7400000000002 6573.320000000001 1924.7100000000005 6573.320000000001 1803.5800000000004 C 6573.320000000001 1305.4100000000003 6092.660000000001 1200.8600000000004 5689.43 1200.8600000000004 L 5691.04 1200.8200000000004 L 4873.15 1200.8200000000004 C 4854.639999999999 1200.8200000000004 4839.589999999999 1215.8700000000003 4839.589999999999 1234.3900000000003 L 4839.589999999999 1236.6200000000003 L 4839.5599999999995 1235.9100000000003 C 4839.5599999999995 1253.0200000000002 4849.98 1268.2300000000002 4866.039999999999 1274.1400000000003 C 4938.879999999999 1300.9300000000003 5136.769999999999 1263.2500000000002 5136.769999999999 1475.4600000000003 L 5136.799999999998 2975.76 C 5136.799999999998 3084.9 5088.3899999999985 3161.8700000000003 4867.1799999999985 3182.76 C 4849.649999999999 3184.4500000000003 4836.379999999998 3198.8300000000004 4836.379999999998 3216.19 L 4836.379999999998 3221.33 C 4836.379999999998 3239.83 4851.459999999998 3254.87 4869.969999999998 3254.87 L 5743.769999999999 3254.87 C 5762.279999999999 3254.87 5777.3499999999985 3239.83 5777.3499999999985 3221.33 L 5777.3499999999985 3216.74 C 5777.3499999999985 3199.37 5763.589999999998 3184.7099999999996 5746.069999999999 3183.33 C 5505.739999999999 3164.0699999999997 5457.499999999999 3089.63 5457.499999999999 2975.7599999999998 L 5457.499999999999 2432.18 L 5457.799999999999 2976.0299999999997 z M 6211.71 1797.3300000000002 C 6211.71 2143.9300000000003 6126.25 2334.9 5689.4400000000005 2334.9 L 5457.8 2334.9 L 5457.8 1287.5500000000002 L 5698.820000000001 1287.5500000000002 C 6150.750000000001 1287.5500000000002 6211.710000000001 1545.2100000000003 6211.710000000001 1797.3300000000002 z" stroke-linecap="round" />
</g>
<g transform="matrix(0.06 0 0 0.06 521.62 525.81)"  >
<path style="stroke: none; stroke-width: 1; stroke-dasharray: none; stroke-linecap: butt; stroke-dashoffset: 0; stroke-linejoin: miter; stroke-miterlimit: 4; fill: rgb(0,0,0); fill-rule: nonzero; opacity: 1;" vector-effect="non-scaling-stroke"  transform=" translate(-7190.52, -2523.16)" d="M 6867.77 2335.98 C 6899.64 2023.71 7021.52 1852.51 7212.910000000001 1852.51 C 7308.720000000001 1852.51 7379.7300000000005 1879.02 7429.930000000001 1933.55 C 7498.930000000001 2008.52 7528.0700000000015 2143.88 7516.600000000001 2335.98 L 6867.760000000001 2335.98 z M 7234.72 1769.53 C 6854.37 1769.53 6544.93 2113.9 6544.93 2537.25 C 6544.93 2965.77 6835.05 3276.8 7234.72 3276.8 C 7570.59 3276.8 7734.01 3076.1600000000003 7827.71 2925.25 C 7836.91 2910.36 7832.89 2890.71 7818.52 2880.43 L 7814.09 2877.27 C 7799.62 2866.94 7779.4400000000005 2869.86 7768.26 2883.91 C 7644.74 3038.77 7536.6900000000005 3128.39 7350.01 3128.39 C 7113.92 3128.39 6861.68 2965.7 6861.68 2509.2 L 6861.68 2505.7999999999997 C 6861.280000000001 2485.5899999999997 6861.77 2457.95 6862.490000000001 2432.1899999999996 L 7828.4400000000005 2432.1899999999996 C 7831.09 2432.1899999999996 7833.2300000000005 2430.1399999999994 7833.460000000001 2427.5099999999998 L 7834.010000000001 2419.7599999999998 C 7847.630000000001 2232.5 7794.6500000000015 2064.33 7684.8600000000015 1946.1899999999998 C 7577.440000000001 1830.6299999999999 7421.750000000002 1769.5399999999997 7234.710000000002 1769.5399999999997 z" stroke-linecap="round" />
</g>
<g transform="matrix(0.06 0 0 0.06 779.06 525.82)"  >
<path style="stroke: none; stroke-width: 1; stroke-dasharray: none; stroke-linecap: butt; stroke-dashoffset: 0; stroke-linejoin: miter; stroke-miterlimit: 4; fill: rgb(0,0,0); fill-rule: nonzero; opacity: 1;" vector-effect="non-scaling-stroke"  transform=" translate(-11177.09, -2523.18)" d="M 11238.47 2352.87 C 11238.359999999999 2352.8399999999997 11238.25 2352.8399999999997 11238.17 2352.79 C 10973.99 2278.71 10871.08 2203.69 10871.08 2085.33 C 10871.08 1950.3999999999999 10978.14 1852.51 11125.67 1852.51 C 11299.24 1852.51 11373.57 1935.44 11556.78 2241.73 L 11559.18 2245.81 C 11560.09 2247.38 11561.74 2248.32 11563.53 2248.32 L 11588.640000000001 2248.32 C 11607.170000000002 2248.32 11622.240000000002 2233.2400000000002 11622.240000000002 2214.7200000000003 L 11622.240000000002 1774.5900000000001 C 11622.240000000002 1771.7800000000002 11619.980000000001 1769.5300000000002 11617.180000000002 1769.5300000000002 L 11584.040000000003 1769.5300000000002 C 11573.960000000003 1769.5300000000002 11564.480000000003 1774.0100000000002 11558.080000000004 1781.8100000000002 L 11499.590000000004 1852.9700000000003 C 11425.800000000003 1812.2900000000002 11305.550000000003 1769.5300000000002 11184.920000000004 1769.5300000000002 C 10881.570000000003 1769.5300000000002 10669.640000000003 1957.0600000000002 10669.640000000003 2225.55 C 10669.640000000003 2477.53 10836.760000000004 2571.9700000000003 11125.230000000003 2649.8900000000003 C 11405.590000000004 2726.6400000000003 11504.930000000004 2806.4800000000005 11504.930000000004 2954.8600000000006 C 11504.930000000004 3119.7100000000005 11345.150000000003 3193.890000000001 11231.690000000004 3193.890000000001 C 11020.610000000004 3193.890000000001 10931.370000000004 3115.4300000000007 10729.090000000004 2752.000000000001 L 10726.720000000003 2747.670000000001 C 10725.840000000004 2746.080000000001 10724.180000000002 2745.070000000001 10722.320000000003 2745.070000000001 L 10697.010000000004 2745.070000000001 C 10678.480000000003 2745.070000000001 10663.440000000004 2760.110000000001 10663.440000000004 2778.630000000001 L 10663.440000000004 3271.800000000001 C 10663.440000000004 3274.550000000001 10665.710000000005 3276.820000000001 10668.480000000005 3276.820000000001 L 10702.790000000005 3276.820000000001 C 10711.670000000004 3276.820000000001 10720.290000000005 3273.230000000001 10726.550000000005 3267.000000000001 L 10819.010000000004 3174.480000000001 C 10927.290000000005 3241.710000000001 11089.110000000004 3276.820000000001 11194.250000000004 3276.820000000001 C 11352.080000000004 3276.820000000001 11481.810000000003 3226.8500000000013 11569.470000000003 3132.240000000001 C 11647.630000000003 3047.990000000001 11690.740000000003 2928.5200000000013 11690.740000000003 2795.8700000000013 C 11690.740000000003 2566.200000000001 11568.130000000003 2446.1400000000012 11238.460000000003 2352.880000000001 z" stroke-linecap="round" />
</g>
<g transform="matrix(0.06 0 0 0.06 704.09 525.22)"  >
<path style="stroke: none; stroke-width: 1; stroke-dasharray: none; stroke-linecap: butt; stroke-dashoffset: 0; stroke-linejoin: miter; stroke-miterlimit: 4; fill: rgb(0,0,0); fill-rule: nonzero; opacity: 1;" vector-effect="non-scaling-stroke"  transform=" translate(-10016.17, -2513.37)" d="M 9639.98 3077.86 C 9639.98 3153.88 9620.63 3178.79 9499.64 3186.3900000000003 C 9482.09 3187.5200000000004 9468.279999999999 3202.1800000000003 9468.279999999999 3219.8500000000004 C 9468.279999999999 3238.3100000000004 9483.32 3253.3600000000006 9501.8 3253.3600000000006 L 10099.619999999999 3253.3600000000006 C 10117.769999999999 3253.3600000000006 10132.579999999998 3238.5600000000004 10132.579999999998 3220.4100000000008 C 10132.579999999998 3202.4900000000007 10118.639999999998 3187.7800000000007 10100.769999999999 3186.890000000001 C 9962.399999999998 3180.230000000001 9926.589999999998 3157.850000000001 9926.589999999998 3077.850000000001 L 9926.589999999998 2201.290000000001 C 10024.979999999998 2037.650000000001 10095.719999999998 1952.0400000000009 10215.079999999998 1926.170000000001 C 10209.289999999997 1946.810000000001 10205.489999999998 1971.610000000001 10205.489999999998 1991.700000000001 C 10205.489999999998 2098.220000000001 10279.929999999998 2172.550000000001 10386.389999999998 2172.550000000001 C 10490.999999999998 2172.550000000001 10564.069999999998 2098.220000000001 10564.069999999998 1991.7000000000012 C 10564.069999999998 1891.0000000000011 10501.179999999998 1773.3800000000012 10323.889999999998 1773.3800000000012 C 10178.539999999997 1773.3800000000012 10039.639999999998 1856.6800000000012 9920.359999999997 2056.050000000001 L 9920.359999999997 1830.610000000001 C 9920.359999999997 1807.630000000001 9901.429999999997 1789.170000000001 9878.449999999997 1789.7500000000011 L 9501.799999999997 1799.790000000001 C 9483.559999999998 1800.320000000001 9469.279999999997 1814.9800000000012 9469.279999999997 1833.2000000000012 L 9469.279999999997 1838.0800000000013 C 9469.279999999997 1854.6200000000013 9481.299999999997 1868.7700000000013 9497.229999999998 1871.0100000000014 C 9622.789999999997 1888.8500000000013 9640.099999999999 1948.5600000000013 9639.989999999998 2010.4200000000014 L 9639.989999999998 3077.8500000000013 z" stroke-linecap="round" />
</g>
<g transform="matrix(0.06 0 0 0.06 968.4 525.36)"  >
<path style="stroke: none; stroke-width: 1; stroke-dasharray: none; stroke-linecap: butt; stroke-dashoffset: 0; stroke-linejoin: miter; stroke-miterlimit: 4; fill: rgb(0,0,0); fill-rule: nonzero; opacity: 1;" vector-effect="non-scaling-stroke"  transform=" translate(-14124.52, -2515.38)" d="M 13774.15 1788.77 C 13782.869999999999 1788.77 13791.1 1792.1 13797.39 1798.19 C 13803.949999999999 1804.49 13807.56 1813.01 13807.64 1822.14 L 13808.99 2072.15 C 13808.99 2072.15 13931.63 1778.89 14329.84 1778.89 L 14333.34 1778.89 C 14581.51 1778.89 14723.880000000001 1937.16 14723.880000000001 2213.06 L 14723.880000000001 3076.38 C 14723.880000000001 3152.4700000000003 14743.2 3177.36 14864.150000000001 3184.96 C 14881.770000000002 3186.04 14895.54 3200.73 14895.54 3218.39 C 14895.54 3236.8599999999997 14880.5 3251.87 14862.03 3251.87 L 14325.01 3251.87 C 14306.52 3251.87 14291.45 3236.7999999999997 14291.45 3218.2999999999997 C 14291.45 3200.39 14304.890000000001 3185.7599999999998 14322.060000000001 3184.2699999999995 C 14419.600000000002 3175.9399999999996 14435.19 3151.3199999999997 14435.19 3076.3699999999994 L 14435.19 2297.2199999999993 C 14435.19 2039.9599999999994 14362.07 1939.7699999999993 14174.34 1939.7699999999993 C 14047.51 1939.7699999999993 13943.61 2050.499999999999 13878.78 2143.4099999999994 C 13878.78 2143.4099999999994 13845.7 2184.9399999999996 13809.820000000002 2263.0099999999993 L 13813.79 3076.3399999999992 C 13813.79 3151.1399999999994 13828.94 3175.749999999999 13923.720000000001 3184.1799999999994 C 13940.810000000001 3185.6899999999996 13954.250000000002 3200.3299999999995 13954.250000000002 3217.5199999999995 C 13954.250000000002 3236.7899999999995 13939.210000000001 3251.8599999999997 13920.720000000001 3251.8599999999997 L 13387.010000000002 3251.8599999999997 C 13368.540000000003 3251.8599999999997 13353.490000000002 3236.8499999999995 13353.490000000002 3218.3399999999997 C 13353.490000000002 3200.7099999999996 13367.300000000001 3186.0199999999995 13384.850000000002 3184.9199999999996 C 13505.840000000002 3177.2899999999995 13525.160000000002 3152.3999999999996 13525.160000000002 3076.3599999999997 L 13525.160000000002 2010.6499999999996 C 13525.160000000002 1948.4099999999996 13507.79 1888.3599999999997 13381.54 1870.4899999999996 C 13365.59 1868.2299999999996 13353.490000000002 1853.9999999999995 13353.490000000002 1837.4199999999996 L 13353.490000000002 1832.4699999999996 C 13353.490000000002 1814.1699999999996 13367.880000000001 1799.4299999999996 13386.170000000002 1798.9099999999996 L 13774.150000000001 1788.7499999999995 z" stroke-linecap="round" />
</g>
<g transform="matrix(0.06 0 0 0.06 185.81 503.41)"  >
<path style="stroke: none; stroke-width: 1; stroke-dasharray: none; stroke-linecap: butt; stroke-dashoffset: 0; stroke-linejoin: miter; stroke-miterlimit: 4; fill: rgb(0,0,0); fill-rule: nonzero; opacity: 1;" vector-effect="non-scaling-stroke"  transform=" translate(-2043.12, -2239.8)" d="M 3199.4 288.4 C 4145.92 827.68 4366.26 2036.9899999999998 3707.6800000000003 3260.4300000000003 C 3128.88 4335.93 1865.0000000000002 4795.26 923.3100000000004 4247.72 C -18.60999999999956 3700.0600000000004 -202.4299999999996 2172.3900000000003 202.36000000000035 1293.2500000000005 C 790.0900000000004 16.68000000000052 2153.55 -307.5599999999995 3199.4000000000005 288.40000000000043 z" stroke-linecap="round" />
</g>
<g transform="matrix(0.06 0 0 0.06 188.97 510.08)"  >
<path style="stroke: none; stroke-width: 1; stroke-dasharray: none; stroke-linecap: butt; stroke-dashoffset: 0; stroke-linejoin: miter; stroke-miterlimit: 4; fill: rgb(205,200,200); fill-rule: nonzero; opacity: 1;" vector-effect="non-scaling-stroke"  transform=" translate(-2061.76, -2312.11)" d="M 1980.85 3474.9 C 1952.02 3452.44 1919.6299999999999 3437.04 1887.03 3430.48 C 1875.92 3428.33 1864.52 3427.11 1853.27 3427.11 C 1791.7 3427.11 1731.35 3460.9900000000002 1691.8899999999999 3517.9300000000003 C 1658.87 3565.1900000000005 1645.3999999999999 3621.6600000000003 1654.1299999999999 3676.53 C 1659.6899999999998 3711.3900000000003 1672.78 3741.73 1692.1 3764.3300000000004 C 1713.79 3789.8900000000003 1747 3809.3900000000003 1788.09 3821.1400000000003 C 1811.8999999999999 3827.7200000000003 1836.32 3831.2200000000003 1860.6799999999998 3831.2200000000003 L 1860.7099999999998 3831.2200000000003 C 1913.84 3831.2200000000003 1961.6499999999999 3815.3300000000004 1998.7799999999997 3785.17 C 2041.9699999999998 3750.01 2065.4799999999996 3699.82 2064.95 3643.98 C 2064.48 3578.83 2033.0199999999998 3515.53 1980.85 3474.9 z M 3177.4399999999996 1216.25 C 3362.6899999999996 1414.07 3420.3999999999996 1714.28 3388.1899999999996 1960.44 C 3351.3699999999994 2241.21 3181.2499999999995 2500.95 2898.2199999999993 2673.2 C 2673.7499999999995 2809.77 2378.879999999999 2864.27 2088.7399999999993 2866.89 C 2086.4299999999994 2912.8799999999997 2077.2199999999993 3071.35 2072.6199999999994 3096.3999999999996 C 2065.7799999999993 3133.3799999999997 2052.859999999999 3153.3099999999995 2037.0099999999995 3173.9999999999995 C 2005.8699999999994 3214.5999999999995 1951.7999999999995 3240.8299999999995 1898.1099999999994 3256.1299999999997 C 1855.4499999999994 3268.2499999999995 1813.2299999999996 3273.4999999999995 1783.3099999999995 3273.4999999999995 C 1778.2299999999996 3273.4999999999995 1773.2999999999995 3273.1899999999996 1768.4799999999996 3272.5899999999997 C 1736.8999999999996 3269.0099999999998 1701.8899999999996 3254.2099999999996 1680.2399999999996 3230.0199999999995 C 1658.5999999999995 3205.8399999999997 1646.3399999999995 3175.3099999999995 1643.4699999999996 3140.6799999999994 L 1641.0699999999995 3109.399999999999 C 1634.8899999999994 3082.4499999999994 1601.2699999999995 1718.3399999999992 1607.8099999999995 1742.5999999999992 C 1612.6799999999994 1579.1599999999992 1876.5699999999995 1550.6499999999992 2019.7299999999996 1579.4999999999993 C 2163.2299999999996 1608.4299999999994 2126.9099999999994 1782.7499999999993 2123.0199999999995 1997.0499999999993 C 2123.0199999999995 1997.0499999999993 2116.2099999999996 2278.8699999999994 2102.9799999999996 2576.6399999999994 C 2285.6099999999997 2569.4799999999996 2430.7499999999995 2517.4499999999994 2566.5799999999995 2449.9299999999994 C 2840.8799999999997 2313.9799999999996 2986.0599999999995 2105.4099999999994 2986.0599999999995 1798.2099999999994 C 2986.0599999999995 1490.9999999999993 2686.9899999999993 1146.9799999999993 2135.2699999999995 1146.9799999999993 C 1583.5899999999997 1146.9799999999993 1346.7999999999995 1286.1199999999994 1079.6799999999996 1507.1199999999994 C 1019.4599999999996 1556.9499999999994 973.0499999999996 1607.1599999999994 929.1999999999996 1640.2099999999994 C 885.3199999999996 1673.2799999999993 768.7999999999996 1678.3299999999992 737.6099999999996 1600.9999999999993 C 699.9599999999996 1507.7299999999993 770.2899999999995 1403.7799999999993 811.5999999999996 1353.4799999999993 C 876.4499999999996 1274.5199999999993 1036.4899999999996 1115.4499999999994 1213.8699999999994 1023.0499999999993 C 1417.0099999999993 917.0099999999993 1665.5299999999995 802.8299999999992 2011.5099999999993 794.0799999999992 C 2324.5599999999995 786.1799999999993 2818.749999999999 811.5299999999993 3174.7599999999993 1213.6099999999992 L 3177.439999999999 1216.2599999999993 z" stroke-linecap="round" />
</g>
</svg>