<?xml version="1.0" encoding="UTF-8"?>
<!DOCTYPE svg PUBLIC "-//W3C//DTD SVG 1.1//EN" "http://www.w3.org/Graphics/SVG/1.1/DTD/svg11.dtd">
<!-- Creator: CorelDRAW 2020 (64-Bit) -->
<svg xmlns="http://www.w3.org/2000/svg" xml:space="preserve" width="929px" height="745px" version="1.1" style="shape-rendering:geometricPrecision; text-rendering:geometricPrecision; image-rendering:optimizeQuality; fill-rule:evenodd; clip-rule:evenodd"
viewBox="0 0 525.729 421.577"
 xmlns:xlink="http://www.w3.org/1999/xlink"
 xmlns:xodm="http://www.corel.com/coreldraw/odm/2003">
 <defs>
  <style type="text/css">
   <![CDATA[
    .fil1 {fill:#234582}
    .fil2 {fill:#FDD15A}
    .fil0 {fill:#FDFDFD}
   ]]>
  </style>
 </defs>
 <g id="Layer_x0020_1">
  <metadata id="CorelCorpID_0Corel-Layer"/>
  <path class="fil0" d="M97.553 204.104c6.525,-3.091 28.338,-4.189 34.534,-1.512 1.332,8.491 -7.637,20.772 -16.852,19.1 -7.133,-1.294 -18.374,-10.895 -17.682,-17.588zm-38.95 0.817c5.283,-3.644 8.544,-4.236 12.642,0.439 0.039,5.163 -0.574,1.693 -0.81,4.86 -0.315,4.215 2.291,-1.176 -0.293,3.917 -7.428,-0.655 -2.348,-4.275 -4.78,-8.32 -6.084,2.209 -1.11,2.869 -5.737,4.869 -2.262,-2.707 -1.387,-2.207 -1.022,-5.765zm24.216 -19.106c1.77,-14.148 17.609,-20.418 20.462,-3.728 -3.503,-2.314 -6.058,-4.984 -11.314,-2.742 -3.594,1.533 -4.912,4.306 -9.148,6.47zm35.999 -7.385c-3.872,-13.259 10.334,-13.606 14.097,-2.341 -11.175,-4.207 -7.262,-4.258 -14.097,2.341zm4.142 6.619c-1.813,-1.777 -4.922,0.524 -9.167,0.537 -1.26,-3.551 -9.114,-15.638 -7.319,-19.209 2.875,0.918 3.491,2.908 5.625,6.649 1.845,3.234 2.648,5.33 4.519,7.922 4.248,0.579 8.914,-3.455 11.31,2.979 1.839,4.934 -0.334,10.548 -4.821,10.524 -0.59,-4.12 2.561,-6.747 -0.147,-9.402zm-28.545 -28.797c0.793,5.036 -0.825,7.591 -5.253,9.814 -2.04,1.025 -10.176,4.504 -12.005,3.507 -7.077,-3.86 12.44,-13.283 17.258,-13.321zm41.168 70.575c5.93,-9.264 7.063,-24.35 4.547,-36.905 -2.95,-14.712 -6.956,-19.353 -12.254,-29.629 -6.997,0.06 -15.412,1.017 -14.775,-6.563 3.356,-1.33 5.456,0.269 7.878,-1.058 -5.401,-2.221 -19.89,-14.001 -36.82,-4.951 -12.353,6.605 -18.06,16.616 -16.698,31.015 -21.381,-7.261 -6.826,-2.465 -24.587,-6.266 -2.807,-30.85 38.656,-45.813 69.352,-44.183 59.458,3.156 21.958,62.271 53.849,58.487 3.671,-18.293 -1.123,-41.743 -4.907,-60.038 -2.652,-12.821 -4.319,-11.341 1.428,-16.03 -6.98,-8.342 -17.233,-19.555 -14.352,-29.931 3.445,-12.408 1.618,-0.097 1.598,-14.05 -0.019,-14.731 4.821,-9.975 12.243,-8.706 4.783,0.818 5.094,-1.137 9.702,1.73 5.785,3.599 3.708,0.982 8.457,3.052 3.743,1.632 1.608,2.04 8.055,4.234 13.256,4.513 12.776,22.386 11.537,34.436 -0.808,7.861 -0.418,3.727 2.003,8.517 1.556,3.078 2.527,15.559 3.011,19.984 4.356,39.846 4.459,32.38 1.824,69.652 9.979,6.036 13.015,4.777 19.91,13.757 2.6,3.386 11.026,16.164 8.009,22.18 -6.514,-2.053 -6.256,-8.334 -17.92,-13.204 -6.826,-2.849 -7.107,-1.228 -8.465,-0.342 15.205,7.702 27.231,34.923 22.047,58.35 -6.296,28.453 -25.466,40.33 -53.985,37.541l-1.236 2.81c-0.421,1.099 -0.422,1.535 -1.002,2.828 -2.08,4.632 -6.316,5.515 -13.339,8.808 -6.518,3.056 -13.737,5.871 -20.878,8.682 -9.383,3.693 -36.839,11.303 -41.892,17.339 -9.223,11.021 -18.03,22.062 -28.265,31.05 -1.68,1.475 -2.045,2.082 -3.83,3.803 -8.669,8.364 -22.258,17.241 -35.658,15.395 -18.684,-2.572 -20.269,-19.678 -18.138,-38.762 1.785,-15.975 4.637,-35.047 9.439,-49.672 6.153,-18.738 10.367,-25.929 24.424,-34.856 6.172,-3.92 12.089,-7.513 18.201,-11.447 5.814,-3.742 3.332,-2.258 6.795,-8.471 2.185,-3.921 4.53,-5.191 6.01,-8.477 -19.569,-5.156 -30.004,-15.988 -38.257,-30.599 -9.357,-16.566 -9.872,-40.173 4.727,-51.051 7.706,0.178 16.583,2.387 21.209,5.989 2.664,2.075 12.055,11.578 7.304,17.254 -2.737,2.236 -9.765,-0.107 -15.597,1.569 -2.579,6.432 -2.24,11.57 2.847,15.299 7.978,5.847 9.181,2.787 17.813,3.335 11.604,11.521 45.976,27.872 58.636,8.095zm-59.388 -146.188c-6.37,-5.403 -18.86,-10.722 -17.526,-29.193 1.978,-27.364 37.738,-37.404 54.272,-16.982 11.148,13.77 5.85,24.213 2.5,33.977 11.744,12.646 16.266,9.669 16.897,15.945 -10.018,5.014 -8.866,-2.644 -11.084,13.21 -0.398,0.184 -0.33,0.804 -3.005,0.426l-16.342 -11.46c-1.766,-1.578 -0.273,-0.579 -2.329,-1.935 0.535,7.479 0.892,15.565 -0.488,22.428 -7.058,-0.09 -6.489,-5.981 -11.738,-8.935 -3.258,2.027 -6.663,8.51 -11.418,7.216l0.261 -24.697zm62.133 -47.611c1.414,2.56 2.84,4.196 3.918,6.926 -1.444,2.199 -2.841,4.219 -3.787,7.096l-3.019 -4.576c-1.177,-2.101 -1.072,-1.388 -2.046,-3.561 1.359,-1.245 1.135,-0.963 2.529,-2.859l2.405 -3.026zm-19.509 -10.285c10.098,-10.9 4.684,-8.447 8.643,-13.292 4.027,10.75 3.851,8.137 8.491,13.292 -2.491,2.955 -3.643,3.274 -5.476,6.807 -1.642,3.162 -2.043,6.012 -3.778,8.457 -1.285,-7.543 -4.347,-11.737 -7.88,-15.264zm100.474 171.296c-0.54,-15.438 1.263,-30.904 -0.96,-46.053l-7.062 -38.711c-2.225,-10.134 10.17,-44.604 -30.086,-60.787 -18.246,-7.336 -26.119,-4.891 -38.608,-31.316 -5.18,-10.959 -12.463,-24.933 -23.961,-11.94 -3.802,4.297 -4.996,10.647 -13.996,9.286 -8.552,-1.293 -10.287,-3.468 -21.151,-2.203 -26.564,3.093 -51.944,42.568 -26.19,69.208 5.18,5.359 8.882,6.227 8.872,14.823 -0.008,6.775 -1.108,13.789 -3.745,19.268 -6.499,13.505 -11.064,14.019 -20.475,25.157 -3.862,4.57 -6.897,8.101 -9.609,14.373 -2.615,6.045 -2.492,14.306 -4.246,18.878 -0.756,1.969 -3.465,4.135 -4.843,6.415 -12.028,19.892 -4.216,46.238 7.453,62.415 4.285,5.939 10.895,13.282 17.216,17.238 8.125,5.086 5.133,2.457 6.485,5.907 -23.108,9.659 -33.225,22.946 -42.001,46.076 -6.815,17.963 -14.04,54.145 -12.051,75.714 1.215,13.17 3.377,20.862 15.042,29.148 25.906,18.401 66.771,-22.662 81.658,-40.327 2.962,-3.516 6.202,-8.909 11.125,-10.814 27.212,-10.536 91.808,-30.386 109.147,-44.825 22.624,-18.841 20.97,-41.327 21.883,-65.945 0.432,-11.659 12.981,-46.295 -19.897,-60.985z"/>
  <path class="fil0" d="M437.595 202.06c0.856,6.405 -5.693,17.23 -9.827,18.691 -11.239,3.97 -26.921,-13.178 -27.375,-15.819 -0.536,-3.12 0.648,-2.687 3.456,-3.404 1.826,-0.466 4.878,-0.743 6.793,-0.947 8.831,-0.942 19.83,-1.395 26.953,1.479zm-73.928 8.329c-4.688,-7.552 5.366,-10.49 11.745,-6.484 0.458,4.485 -0.097,1.637 -0.781,4.791l0.024 4.866c-5.41,0.586 -4.349,-3.805 -3.888,-7.641 -6.264,-0.96 -2.405,1.987 -7.1,4.468zm23.307 -25.421c2.355,-14.533 19.081,-15.557 20.16,-3.422 -12.371,-5.079 -7.155,-3.565 -20.16,3.422zm36.224 -9.495c-2.522,-14.331 11.988,-10.398 14.093,-1.298 -3.396,-1.257 -5.559,-2.79 -9.565,-2.802 -1.505,1.298 -2.959,2.85 -4.528,4.1zm-13.324 -9.072c3.966,0.064 4.34,3.052 6.341,6.536 1.705,2.969 3.52,6.046 5.069,8.037 3.786,-0.848 8.114,-3.105 10.65,2.078 2.233,4.563 0.509,9.795 -4.073,11.474 -2.852,-4.613 1.901,-2.922 -0.608,-9.902 -3.251,-1.474 -3.692,0.39 -8.132,0.575 -3.096,-3.111 -8.449,-13.95 -9.247,-18.798zm-30.098 2.627c-0.211,-5.439 5.099,-7.31 12.773,-10.396 2.792,-1.122 4.741,-2.266 6.15,0.272 3.706,6.679 -14.649,12.571 -18.923,10.124zm80.288 -115.659c7.03,-1.101 5.629,0.991 9.916,1.583 5.667,0.783 4.745,-1.435 10.36,2.156 5.675,3.628 4.054,0.474 8.43,3.058l8.234 4.217c5.854,2.429 8.46,6.208 9.748,14.05 2.765,16.851 -1.558,22.25 1.251,26.49 7.171,10.82 8.222,73.326 6.775,86.112 -3.2,28.29 -9.824,53.574 -21.513,75.979 -13.887,26.618 -15.193,16.077 -12.282,33.443 0.855,5.107 2.763,17.315 0.637,21.852 -4.508,9.626 -77.679,31.172 -78.864,32.087l-16.871 19.436c-8.527,10.188 -27.204,29.372 -39.654,33.986 -14.998,5.558 -29.027,0.763 -33.225,-11.236 -6.679,-19.097 6.296,-77.11 19.415,-98.155 4.579,-7.345 5.509,-7.209 13.168,-11.733l22.255 -14.088c3.483,-2.356 15.28,-19.183 15.465,-21.425 0.449,-5.408 -1.038,-16.842 -1.286,-23.051 -10.315,-2.096 -19.153,-7.208 -25.112,-13.117 -5.28,-5.236 -13.426,-12.788 -13.945,-24.046 -0.653,-14.171 10.047,-17.709 22.463,-15.071 14.793,3.144 17.569,24.261 11.681,24.328 -2.139,0.025 -0.417,0.163 -2.865,-0.556 -24.368,-7.155 -17.044,20.471 0.88,19.205 10.592,-0.748 2.517,0.248 18.895,8.732 5.923,3.069 16.038,6.689 23.321,7.069 18.806,0.982 27.478,-12.524 28.043,-31.216 0.547,-18.094 -6.451,-34.491 -14.09,-46.732 -6.425,0.017 -16.176,4.444 -16.832,-3.952 3.328,-2.563 7.311,-1.305 11.854,-2.222 -6.595,-6.37 -12.155,-7.085 -23.828,-5.512 -10.314,1.39 -16.625,4.342 -25.52,6.74 0.008,9.807 -0.355,14.457 -4.67,21.91 -12.558,-1.595 -13.966,-0.245 -25.329,1.722 -4.446,-17.123 -3.078,-24.52 16.648,-38.001 8.445,-5.772 30.469,-17.441 39.924,-19.302 5.767,-1.136 11.433,0.152 16.138,2.504 18.974,9.488 19.066,22.454 20.896,38.693 0.722,6.402 20.1,34.738 6.16,64.055 -4.714,9.914 -10.247,15.145 -22.393,17.849l0.132 8.593c11.892,8.883 22.086,-7.18 28.887,-16.883 6.408,-9.143 12.742,-21.858 16.173,-34.485 5.52,-20.323 1.644,-57.923 -2.432,-80.485 -1.145,-6.338 -2.577,-8.483 3.112,-9.576 -3.336,-5.635 -13.67,-17.064 -14.816,-23.613 -1.327,-7.586 2.569,-9.338 2.344,-15.64 -0.276,-7.738 -1.339,-10.117 2.322,-15.752zm-69.698 26.495c-24.381,-10.784 -22.969,-44.686 2.463,-54.751 14.133,-5.594 28.011,1.484 34.09,8.971 12.575,15.488 4.235,27.307 2.761,34.52 2.862,2.374 4.721,4.359 8.156,7.116 6.888,5.527 6.853,2.385 8.659,7.258 -2.798,3.095 -5.796,2.626 -9.825,3.945 -0.305,3.768 -0.472,8.256 -1.702,10.922 -6.536,0.802 -16.183,-9.78 -21.051,-13.042 -0.04,6.819 1.699,17.133 -1.286,21.994 -5.579,-0.328 -7.507,-6.003 -10.724,-9.129 -3.371,2.021 -6.626,7.891 -10.994,7.741 -1.787,-3.043 -0.415,-19.711 -0.547,-25.545zm61.263 -46.584c2.428,1.237 3.786,4.14 5.025,5.717 -1.141,1.981 -3.102,5.175 -4.078,7.673 -1.933,-2.367 -3.72,-5.4 -4.953,-7.673 1.309,-1.599 2.51,-3.389 4.006,-5.717zm-18.89 -10.537c4.545,-6.178 3.866,-2.059 8.971,-14.072 1.738,6.482 3.598,10.509 8.443,12.836 -3.665,6.753 -1.096,-1.59 -8.085,14.728 -0.914,-0.758 -0.38,-0.067 -1.406,-1.601 -3.332,-4.984 -0.273,-4.684 -7.923,-11.891zm-60.752 217.993c0.968,21.321 -26.662,27.203 -43.671,44.966 -20.5,21.408 -29.28,79.964 -27.779,106.12 0.74,12.904 6.508,20.031 18.065,25.856 16.848,8.494 35.781,-1.39 49.351,-11.045 4.665,-3.32 7.141,-6.256 11.903,-10.082 19.306,-15.512 19.765,-28.666 33.655,-33.455 17.433,-6.011 68.527,-24.757 75.48,-34.32 8.347,-11.478 -2.893,-28.528 2.551,-38.544 2.737,-5.036 5.346,-8.357 8.137,-13.924 14.69,-29.306 21.038,-48.658 25.084,-84.627 2.559,-22.752 -0.211,-62.711 -5.423,-82.775 -3.096,-11.923 -1.831,-26.679 -5.509,-39.312 -5.312,-18.241 -22.613,-15.913 -37.402,-29.62 -21.675,-20.091 -27.631,-52.512 -43.706,-34.23 -3.471,3.948 -4.819,10.367 -13.527,8.596 -2.82,-0.574 -5.465,-2.153 -8.833,-2.802 -34.55,-6.659 -61.964,34.084 -41.065,64.747 4.642,6.811 8.985,5.958 9.242,13.311 0.232,6.638 -1.246,13.159 -3.906,18.572 -3.053,6.216 -5.725,8.396 -9.548,12.532 -9.713,10.506 -27.023,15.393 -31.448,35.434 -0.765,3.463 -0.661,7.411 -0.482,11.04 0.224,4.531 1.574,5.236 1.457,8.457 -0.211,5.829 -12.9,23.128 11.107,47.671 12.048,12.318 17.994,11.66 26.267,17.434z"/>
  <path class="fil1" d="M108.242 347.043c3.537,-8.826 5.708,-3.496 9.632,-19.185 0.694,-2.772 12.975,-14.767 14.415,-15.376 2.594,5.896 3.381,18.588 2.775,25.777 -4.476,2.835 -20.542,7.433 -26.822,8.784zm-78.944 33.891c3.01,-2.843 7.023,-9.792 9.969,-13.305l22.516 -26.254c3.725,-4.673 6.979,-9.381 11.227,-13.697 3.272,1.93 9.283,10.807 18.786,15.746 1.474,0.766 2.673,1.223 3.896,1.793 0.109,0.051 1.938,0.941 1.97,0.959l1.789 1.202c0.125,0.088 0.387,0.277 0.557,0.442 -7.014,12.46 -38.025,44.896 -52.097,52.366 -13.997,7.43 -30.641,3.323 -31.919,-12.439 -1.593,-19.663 9.165,-69.511 18.893,-85.715 3.037,-5.06 9.718,-8.847 18.709,-6.579 13.638,3.44 13.965,30.119 7.55,38.602 -4.09,5.408 -7.365,9.687 -12.02,14.733 -6.21,6.73 -21.041,22.54 -19.826,32.146zm46.375 -57.016c1.254,-3.228 5.465,-9.315 7.855,-11.405 4.514,4.29 9.204,9.136 14.26,12.467 4.477,2.949 15.774,5.703 10.457,14.058 -7.513,11.807 -29.666,-11.011 -32.572,-15.12zm-7.162 -0.75c-0.442,-22.339 0.853,-19.923 -10.746,-30.802 1.486,-3.838 8.394,-8.261 12.214,-11.636 3.966,-3.504 3.272,-3.57 9.692,-3.058 3.402,0.272 8.052,0.187 10.946,1.787l-0.568 2.204c-0.932,1.566 -2.802,2.231 -4.667,7.732 -1.77,5.222 -1.548,9.087 -2.441,14.543 -0.765,4.666 -3.874,6.994 -6.319,10.209l-5.286 7.166c-1.531,1.505 -0.626,1.208 -2.825,1.855zm31.271 -36.717c-3.243,-7.96 14.078,-22.002 16.518,-8.032l1.648 5.746c1.118,-3.23 -0.159,-3.393 1.732,-5.678 4.997,3.104 1.045,5.913 3.099,9.965 0.087,0.028 0.251,-0.137 0.267,-0.06l1.126 -1.129c1.753,-2.027 -0.035,-1.424 2.44,-2.335 3.444,5.315 -1.442,18.242 4.455,7.615 6.069,11.859 -5.109,19.221 -14.569,28.984 -4.143,4.275 -4.803,4.312 -10.879,1.347 -5.397,-2.634 -16.535,-10.285 -17.775,-14.606 -2.33,-8.117 1.576,-22.135 7.157,-24.939 0.73,1.321 0.5,0.209 0.567,2.328 0.059,1.85 -0.123,1.017 -0.224,2.38 -0.257,3.465 -1.628,1.059 0.522,4.38 5.247,2.961 12.226,-9.203 12.242,-13.191 -5.434,1.976 -1.967,6.959 -8.326,7.225zm-53.213 4.317c1.895,-3.287 -0.461,-0.91 5.746,-4.783 2.443,-1.524 4.009,-2.439 5.916,-3.619 4.289,-2.652 7.231,-5.39 11.714,-7.047 -0.469,2.737 -5.268,6.048 -9.404,9.368 -4.497,3.61 -5.838,6.33 -13.972,6.081zm73.259 -21.314c3.6,2.032 7.338,7.287 10.496,5.586 4.843,-7.804 -5.3,-14.92 6.746,-19.773 11.32,5.014 26.718,27.347 31.339,42.094 3.038,9.694 6.132,22.799 -2.153,28.071 -3.485,2.218 -21.676,10.163 -26.501,10.994 -0.022,-7.737 -0.11,-13.188 -1.309,-20.442 -0.524,-3.168 -1.717,-5.677 -1.983,-8.543 -0.299,-3.231 0.846,-6.318 0.266,-9.956 -0.541,-3.395 -7.452,-13.511 -7.931,-14.022 -3.702,-3.952 -2.417,0.423 -5.446,-6.129 -1.205,-2.607 -2.137,-5.088 -3.524,-7.88zm-47.536 1.811c0.108,-4.046 5.155,-9.55 7.411,-11.638 4.741,0.469 9.722,2.583 14.842,3.599 4.578,0.909 11.428,1.282 15.456,2.369 -0.262,5.78 -2.251,2.963 -7.096,5.952 -4.589,2.831 -2.026,4.712 -8.4,4.199 -6.54,-0.526 -17.526,-2.007 -22.213,-4.481zm48.179 -7.582l0.169 -6.186c7.91,0.526 8.538,3.632 6.741,11.69 -2.49,-1.371 -4.997,-3.531 -6.91,-5.504zm-37.23 -32.598c5.002,2.402 9.049,5.731 15.001,8.391 4.285,1.916 13.381,4.533 16.205,6.531l0.211 15.584c-6.128,0.763 -20.534,-2.103 -26.153,-3.832 -5.987,-1.842 -4.445,-3.592 -4.631,-10.303 -0.15,-5.464 -0.485,-10.903 -0.633,-16.371zm84.6 -99.074c5.806,0.319 10.092,1.597 17.074,0.954 5.368,-0.494 11.091,-2.649 15.055,-2.887 5.989,22.623 3.688,66.017 -1.516,88.945 -4.097,18.047 -17.694,54.461 -29.833,65.584l-5.869 -9.325c-8.03,-13.076 -17.985,-18.726 -21.529,-23.073 6.856,-11.947 18.168,-16.965 26.743,-50.401 8.878,-34.618 0.833,-47.618 -0.125,-69.797zm31.399 -6.759c-7.174,3.397 -31.307,7.893 -33.323,-2.386 -1.763,-8.984 6.661,-5.716 14.099,-6.417 5.995,-0.566 12.51,-2.427 18.448,-2.782l0.776 11.585zm-14.307 -54.765c12.595,-0.931 11.61,18.263 11.272,28.756 -0.321,9.948 1.684,10.131 -8.081,11.882 -5.217,0.935 -14.463,2.429 -18.879,-0.056 -2.118,-1.192 -15.916,-18.291 -17.21,-22.965 -1.982,-7.167 1.258,-10.543 6.068,-12.813 3.135,-1.479 11.362,-6.01 13.387,-6.431 2.112,7.424 -4.479,11.754 -7.514,15.216 -1.732,1.977 0.19,-1.718 -1.163,1.771 2.705,2.801 6.355,3.649 10.068,5.271 2.023,0.884 3.047,1.373 4.921,2.649l5.039 3.133c-4.939,-12.084 -7.538,-6.591 -13.756,-12.01 1.847,-2.415 2.22,-2.35 3.487,-4.481 5.79,8.259 2.81,0.399 10.486,6.234 6.587,5.007 9.779,-2.748 9.02,-7.809 -4.482,2.834 -1.262,3.911 -5.291,6.214 -3.972,-2.77 -2.688,-9.445 -1.854,-14.561zm-31.37 -5.675c0.01,-2.959 1.206,-6.479 5.02,-4.409 2.678,1.454 1.174,1.157 1.394,9.144 -5.838,2.297 -6.445,4.618 -6.414,-4.735zm21.527 2.465c-0.193,-1.626 -0.133,-1.038 0.041,-1.763 3.386,-1.088 3.087,-0.299 6.319,0.944l-0.73 15.115c-8.317,1.116 -4.09,-1.347 -5.63,-14.296zm-11.173 0.361c-0.821,-8.72 3.899,-7.591 7.43,-3.701 -2.31,1.87 -3.613,2.709 -7.43,3.701zm-14.075 -0.913c0.02,13.953 1.847,1.642 -1.598,14.05 -2.881,10.376 7.372,21.589 14.352,29.931 -5.747,4.689 -4.08,3.209 -1.428,16.03 3.784,18.295 8.578,41.745 4.907,60.038 -31.891,3.784 5.609,-55.331 -53.849,-58.487 -30.696,-1.63 -72.159,13.333 -69.352,44.183 17.761,3.801 3.206,-0.995 24.587,6.266 -1.362,-14.399 4.345,-24.41 16.698,-31.015 16.93,-9.05 31.419,2.73 36.82,4.951 -2.422,1.327 -4.522,-0.272 -7.878,1.058 -0.637,7.58 7.778,6.623 14.775,6.563 5.298,10.276 9.304,14.917 12.254,29.629 2.516,12.555 1.383,27.641 -4.547,36.905 -12.66,19.777 -47.032,3.426 -58.636,-8.095 -8.632,-0.548 -9.835,2.512 -17.813,-3.335 -5.087,-3.729 -5.426,-8.867 -2.847,-15.299 5.832,-1.676 12.86,0.667 15.597,-1.569 4.751,-5.676 -4.64,-15.179 -7.304,-17.254 -4.626,-3.602 -13.503,-5.811 -21.209,-5.989 -14.599,10.878 -14.084,34.485 -4.727,51.051 8.253,14.611 18.688,25.443 38.257,30.599 -1.48,3.286 -3.825,4.556 -6.01,8.477 -3.463,6.213 -0.981,4.729 -6.795,8.471 -6.112,3.934 -12.029,7.527 -18.201,11.447 -14.057,8.927 -18.271,16.118 -24.424,34.856 -4.802,14.625 -7.654,33.697 -9.439,49.672 -2.131,19.084 -0.546,36.19 18.138,38.762 13.4,1.846 26.989,-7.031 35.658,-15.395 1.785,-1.721 2.15,-2.328 3.83,-3.803 10.235,-8.988 19.042,-20.029 28.265,-31.05 5.053,-6.036 32.509,-13.646 41.892,-17.339 7.141,-2.811 14.36,-5.626 20.878,-8.682 7.023,-3.293 11.259,-4.176 13.339,-8.808 0.58,-1.293 0.581,-1.729 1.002,-2.828l1.236 -2.81c28.519,2.789 47.689,-9.088 53.985,-37.541 5.184,-23.427 -6.842,-50.648 -22.047,-58.35 1.358,-0.886 1.639,-2.507 8.465,0.342 11.664,4.87 11.406,11.151 17.92,13.204 3.017,-6.016 -5.409,-18.794 -8.009,-22.18 -6.895,-8.98 -9.931,-7.721 -19.91,-13.757 2.635,-37.272 2.532,-29.806 -1.824,-69.652 -0.484,-4.425 -1.455,-16.906 -3.011,-19.984 -2.421,-4.79 -2.811,-0.656 -2.003,-8.517 1.239,-12.05 1.719,-29.923 -11.537,-34.436 -6.447,-2.194 -4.312,-2.602 -8.055,-4.234 -4.749,-2.07 -2.672,0.547 -8.457,-3.052 -4.608,-2.867 -4.919,-0.912 -9.702,-1.73 -7.422,-1.269 -12.262,-6.025 -12.243,8.706z"/>
  <path class="fil1" d="M409.871 346.453c1.435,-3.842 3.715,-6.062 5.505,-9.06 3.236,-5.418 1.315,-6.644 3.088,-10.081 0.007,-0.014 12.263,-13.004 13.087,-13.637 3.502,4.083 3.594,18.717 3.575,25.42 -6.005,2.572 -18.485,6.353 -25.255,7.358zm-80.644 35.619l10.336 -13.408c4.303,-5.239 7.214,-8.148 11.558,-13.304l22.108 -26.584c20.036,17.991 1.113,4.759 26.802,20 -4.279,9.92 -37.996,45.077 -51.813,52.481 -14.202,7.61 -30.532,4.101 -32.316,-12.317 -1.947,-17.913 9.715,-71.598 19.248,-85.885 6.559,-9.829 26.549,-12.452 29.15,9.637 2.263,19.22 -1.905,21.965 -14.921,37.093 -5.44,6.324 -20.372,20.835 -20.152,32.287zm46.641 -57.198c1.043,-2.593 5.397,-9.289 7.878,-10.726 4.886,3.961 8.215,8.502 14.516,12.449 4.673,2.927 15.72,5.249 9.863,14.038 -5.716,8.577 -20.333,-3.484 -25.585,-7.865 -4.25,-3.546 -3.482,-3.716 -6.672,-7.896zm-6.836 0.293c-1.205,-6.505 0.305,-12.301 -1.667,-19.303 -1.805,-6.411 -5.912,-8.896 -9.654,-12.542 3.379,-4.757 9.253,-8.334 14.469,-12.52 3.237,-2.598 4.046,-3.976 9.083,-3.127l10.593 2.851c0.13,0.067 0.406,0.226 0.59,0.367 -10.508,8.581 -6.443,12.139 -9.516,25.382 -1.006,4.336 -11.876,15.211 -13.898,18.892zm31.175 -37.01c-3.687,-5.751 6.139,-16.499 14.052,-15.675 2.277,4.341 1.215,8.691 2.95,12.996 1.533,-1.411 1.607,-4.293 1.912,-5.659 5.056,2.266 2.461,4.972 3.166,10.367 2.3,-0.577 -1.835,2.114 1.062,-0.727 2.989,-2.932 0.404,-2.031 2.968,-3.243 2.639,3.313 0.845,6.901 1.826,11.445 1.931,-0.651 0.036,-0.02 1.603,-1.568 1.72,-1.7 -1.564,-2.006 1.416,-1.017 1.707,0.567 1.75,5.217 1.57,6.786 -0.753,6.555 -10.423,15.16 -15.043,19.664 -3.325,3.241 -4.796,5.849 -10.172,3.541 -6.607,-2.836 -17.806,-10.459 -19.459,-15.011 -1.171,-3.227 -0.701,-25.083 7.839,-25.148 0.065,4.695 -1.763,4.204 -0.435,9.042 5.117,1.306 6.266,-1.6 8.304,-4.554 1.914,-2.776 3.853,-5.057 4.639,-8.619 -6.124,0.454 -1.543,4.446 -8.198,7.38zm22.742 -19.782c4.844,1.93 6.308,6.899 11.47,6.753 4.902,-10.368 -6.102,-16.128 7.649,-20.702 13.793,7.468 29.372,27.158 34.013,45.015 5.734,22.06 0.819,21.765 -8.296,26.219 -6.935,3.388 -21.824,10.761 -29.118,11.887 -0.108,-7.396 0.813,-13.048 -0.416,-20.317 -0.424,-2.509 -1.633,-6.872 -1.805,-8.818 -0.336,-3.775 1.319,-5.211 0.335,-9.915 -0.565,-2.706 -1.938,-4.442 -3.714,-6.696 -2.151,-2.729 -2.494,-4.951 -4.434,-7.075 -3.302,-3.618 -6.433,-1.415 -5.684,-16.351zm-77.517 23.802c1.507,-2.395 10.994,-6.981 13.984,-8.817 2.468,-1.515 4.934,-3.086 7.058,-4.446 3.245,-2.077 3.475,-3.58 7.682,-3.867 -1.651,3.692 -13.713,11.32 -19.136,15.35 -3.578,2.658 -3.907,2.031 -9.588,1.78zm31.173 -21.308c-0.297,-4.203 5.163,-9.547 7.197,-11.795 4.615,0.745 9.21,2.429 14.458,3.621 4.607,1.046 12.265,1.429 15.86,2.9 -0.454,4.886 -2.136,2.833 -7.14,5.028 -4.559,1.999 -3.845,4.424 -8.888,4.541 -5.782,0.134 -17.265,-1.774 -21.487,-4.295zm47.813 -8.142l0.525 -5.72 6.569 1.742 0.564 9.957c-4.932,-2.149 -4.264,-3.014 -7.658,-5.979zm-36.618 -30.373c4.631,2.239 8.882,5.228 14.454,8.069 4.963,2.531 11.704,4.455 16.067,7l0.236 14.181c-7.114,-0.394 -25.055,-2.611 -30.224,-6.166l-0.533 -23.084zm98.249 -102.404c8.385,0.738 16.444,-3.075 21.588,-2.796 6.459,42.177 3.489,86.765 -14.404,125.502 -2.074,4.489 -12.881,26.675 -17.701,29.92 -2.528,-3.068 -3.739,-5.925 -5.961,-9.085 -2.036,-2.896 -4.5,-5.938 -6.849,-8.457 -2.545,-2.729 -4.674,-4.801 -7.703,-7.618 -2.406,-2.238 -6.203,-4.159 -8.017,-7.119 5.326,-6.574 11.876,-12.742 16.886,-22.154 10.74,-20.175 15.772,-39.998 14.746,-63.897 -0.512,-11.943 -3.795,-24.543 -4.012,-35.141l11.427 0.845zm-12.031 -15.99c5.336,-1.046 11.309,-0.255 16.946,-1.026 4.303,-0.589 11.952,-2.408 15.15,-2.364l0.124 11.609c-5.507,2.478 -36.896,11.101 -32.22,-8.219zm29.236 -7.802c-6.321,1.501 -17.758,4.173 -24.721,2.461 -1.34,-0.329 -27.581,-23.781 -16.878,-33.793 1.39,-1.3 15.389,-8.645 17.693,-9.444 0.792,9.472 -5.247,13.059 -9.185,16.775 3.648,4.9 8.432,4.052 14.957,8.374l5.225 3.335c-2.816,-8.92 -5.829,-7.852 -13.8,-11.844 1.042,-1.672 1.721,-2.972 3.767,-4.496 1.842,3.145 1.58,3.111 5.121,3.968 7.161,1.732 2.646,0.944 6.534,3.227 5.202,3.056 8.013,-3.449 7.864,-8.987 -5.506,2.935 -0.743,3.842 -6.591,6.33 -1.572,-3.26 -3.023,-10.76 -0.095,-13.939 0.857,-0.779 -1.642,-1.446 2.711,-0.667 10.675,1.909 7.862,28.609 7.398,38.7zm-14.23 -42.535c-0.372,16.002 0.123,16.16 -5.568,14.452 -1.291,-3.065 -0.486,-4.056 -0.244,-7.568 0.298,-4.318 -0.852,-4.717 -0.904,-8.35 3.387,-0.32 4.554,0.481 6.716,1.466zm-17.557 0.549c-0.815,-6.369 2.002,-7.978 7.073,-4.14 -1.398,2.654 -4.265,4.215 -7.073,4.14zm-9.874 4.359c-0.528,-4.489 -0.766,-7.503 0.534,-11.281 7.42,-0.689 5.332,2.234 5.125,9.35l-5.659 1.931zm53.185 122.504c1.447,-12.786 0.396,-75.292 -6.775,-86.112 -2.809,-4.24 1.514,-9.639 -1.251,-26.49 -1.288,-7.842 -3.894,-11.621 -9.748,-14.05l-8.234 -4.217c-4.376,-2.584 -2.755,0.57 -8.43,-3.058 -5.615,-3.591 -4.693,-1.373 -10.36,-2.156 -4.287,-0.592 -2.886,-2.684 -9.916,-1.583 -3.661,5.635 -2.598,8.014 -2.322,15.752 0.225,6.302 -3.671,8.054 -2.344,15.64 1.146,6.549 11.48,17.978 14.816,23.613 -5.689,1.093 -4.257,3.238 -3.112,9.576 4.076,22.562 7.952,60.162 2.432,80.485 -3.431,12.627 -9.765,25.342 -16.173,34.485 -6.801,9.703 -16.995,25.766 -28.887,16.883l-0.132 -8.593c12.146,-2.704 17.679,-7.935 22.393,-17.849 13.94,-29.317 -5.438,-57.653 -6.16,-64.055 -1.83,-16.239 -1.922,-29.205 -20.896,-38.693 -4.705,-2.352 -10.371,-3.64 -16.138,-2.504 -9.455,1.861 -31.479,13.53 -39.924,19.302 -19.726,13.481 -21.094,20.878 -16.648,38.001 11.363,-1.967 12.771,-3.317 25.329,-1.722 4.315,-7.453 4.678,-12.103 4.67,-21.91 8.895,-2.398 15.206,-5.35 25.52,-6.74 11.673,-1.573 17.233,-0.858 23.828,5.512 -4.543,0.917 -8.526,-0.341 -11.854,2.222 0.656,8.396 10.407,3.969 16.832,3.952 7.639,12.241 14.637,28.638 14.09,46.732 -0.565,18.692 -9.237,32.198 -28.043,31.216 -7.283,-0.38 -17.398,-4 -23.321,-7.069 -16.378,-8.484 -8.303,-9.48 -18.895,-8.732 -17.924,1.266 -25.248,-26.36 -0.88,-19.205 2.448,0.719 0.726,0.581 2.865,0.556 5.888,-0.067 3.112,-21.184 -11.681,-24.328 -12.416,-2.638 -23.116,0.9 -22.463,15.071 0.519,11.258 8.665,18.81 13.945,24.046 5.959,5.909 14.797,11.021 25.112,13.117 0.248,6.209 1.735,17.643 1.286,23.051 -0.185,2.242 -11.982,19.069 -15.465,21.425l-22.255 14.088c-7.659,4.524 -8.589,4.388 -13.168,11.733 -13.119,21.045 -26.094,79.058 -19.415,98.155 4.198,11.999 18.227,16.794 33.225,11.236 12.45,-4.614 31.127,-23.798 39.654,-33.986l16.871 -19.436c1.185,-0.915 74.356,-22.461 78.864,-32.087 2.126,-4.537 0.218,-16.745 -0.637,-21.852 -2.911,-17.366 -1.605,-6.825 12.282,-33.443 11.689,-22.405 18.313,-47.689 21.513,-75.979z"/>
  <path class="fil2" d="M329.227 382.072c-0.22,-11.452 14.712,-25.963 20.152,-32.287 13.016,-15.128 17.184,-17.873 14.921,-37.093 -2.601,-22.089 -22.591,-19.466 -29.15,-9.637 -9.533,14.287 -21.195,67.972 -19.248,85.885 1.784,16.418 18.114,19.927 32.316,12.317 13.817,-7.404 47.534,-42.561 51.813,-52.481 -25.689,-15.241 -6.766,-2.009 -26.802,-20l-22.108 26.584c-4.344,5.156 -7.255,8.065 -11.558,13.304l-10.336 13.408z"/>
  <path class="fil2" d="M29.298 380.934c-1.215,-9.606 13.616,-25.416 19.826,-32.146 4.655,-5.046 7.93,-9.325 12.02,-14.733 6.415,-8.483 6.088,-35.162 -7.55,-38.602 -8.991,-2.268 -15.672,1.519 -18.709,6.579 -9.728,16.204 -20.486,66.052 -18.893,85.715 1.278,15.762 17.922,19.869 31.919,12.439 14.072,-7.47 45.083,-39.906 52.097,-52.366 -0.17,-0.165 -0.432,-0.354 -0.557,-0.442l-1.789 -1.202c-0.032,-0.018 -1.861,-0.908 -1.97,-0.959 -1.223,-0.57 -2.422,-1.027 -3.896,-1.793 -9.503,-4.939 -15.514,-13.816 -18.786,-15.746 -4.248,4.316 -7.502,9.024 -11.227,13.697l-22.516 26.254c-2.946,3.513 -6.959,10.462 -9.969,13.305z"/>
  <path class="fil2" d="M486.049 129.95l-11.427 -0.845c0.217,10.598 3.5,23.198 4.012,35.141 1.026,23.899 -4.006,43.722 -14.746,63.897 -5.01,9.412 -11.56,15.58 -16.886,22.154 1.814,2.96 5.611,4.881 8.017,7.119 3.029,2.817 5.158,4.889 7.703,7.618 2.349,2.519 4.813,5.561 6.849,8.457 2.222,3.16 3.433,6.017 5.961,9.085 4.82,-3.245 15.627,-25.431 17.701,-29.92 17.893,-38.737 20.863,-83.325 14.404,-125.502 -5.144,-0.279 -13.203,3.534 -21.588,2.796z"/>
  <path class="fil2" d="M167.841 132.011c0.958,22.179 9.003,35.179 0.125,69.797 -8.575,33.436 -19.887,38.454 -26.743,50.401 3.544,4.347 13.499,9.997 21.529,23.073l5.869 9.325c12.139,-11.123 25.736,-47.537 29.833,-65.584 5.204,-22.928 7.505,-66.322 1.516,-88.945 -3.964,0.238 -9.687,2.393 -15.055,2.887 -6.982,0.643 -11.268,-0.635 -17.074,-0.954z"/>
  <path class="fil2" d="M422.949 268.375c-0.749,14.936 2.382,12.733 5.684,16.351 1.94,2.124 2.283,4.346 4.434,7.075 1.776,2.254 3.149,3.99 3.714,6.696 0.984,4.704 -0.671,6.14 -0.335,9.915 0.172,1.946 1.381,6.309 1.805,8.818 1.229,7.269 0.308,12.921 0.416,20.317 7.294,-1.126 22.183,-8.499 29.118,-11.887 9.115,-4.454 14.03,-4.159 8.296,-26.219 -4.641,-17.857 -20.22,-37.547 -34.013,-45.015 -13.751,4.574 -2.747,10.334 -7.649,20.702 -5.162,0.146 -6.626,-4.823 -11.47,-6.753z"/>
  <path class="fil2" d="M119.828 269.454c1.387,2.792 2.319,5.273 3.524,7.88 3.029,6.552 1.744,2.177 5.446,6.129 0.479,0.511 7.39,10.627 7.931,14.022 0.58,3.638 -0.565,6.725 -0.266,9.956 0.266,2.866 1.459,5.375 1.983,8.543 1.199,7.254 1.287,12.705 1.309,20.442 4.825,-0.831 23.016,-8.776 26.501,-10.994 8.285,-5.272 5.191,-18.377 2.153,-28.071 -4.621,-14.747 -20.019,-37.08 -31.339,-42.094 -12.046,4.853 -1.903,11.969 -6.746,19.773 -3.158,1.701 -6.896,-3.554 -10.496,-5.586z"/>
  <path class="fil1" d="M390.737 73.71l-4.135 -3.173 -2.172 -2.204c-2.652,-2.73 -2.283,-1.349 -3.953,-5.753 -5.043,-11.442 0.289,-21.864 6.561,-27.931 2.988,-2.891 7.553,-5.54 12.99,-6.114 5.067,-0.535 12.119,-0.006 15.494,3.826 3.084,0.663 3.789,2.143 5.44,3.985 2.788,1.662 0.739,-0.176 2.813,2.784 1.814,2.012 1.171,1.88 2.768,4.289 10.024,24.953 -22.349,43.244 -35.806,30.291zm-0.371 6.154c0.132,5.834 -1.24,22.502 0.547,25.545 4.368,0.15 7.623,-5.72 10.994,-7.741 3.217,3.126 5.145,8.801 10.724,9.129 2.985,-4.861 1.246,-15.175 1.286,-21.994 4.868,3.262 14.515,13.844 21.051,13.042 1.23,-2.666 1.397,-7.154 1.702,-10.922 4.029,-1.319 7.027,-0.85 9.825,-3.945 -1.806,-4.873 -1.771,-1.731 -8.659,-7.258 -3.435,-2.757 -5.294,-4.742 -8.156,-7.116 1.474,-7.213 9.814,-19.032 -2.761,-34.52 -6.079,-7.487 -19.957,-14.565 -34.09,-8.971 -25.432,10.065 -26.844,43.967 -2.463,54.751z"/>
  <path class="fil1" d="M76.861 73.997c-2.819,-1.175 -3.07,-1.225 -4.56,-3.365 -2.56,-1.018 -1.385,-0.118 -2.273,-2.305 -2.044,-2.105 -2.633,-2.529 -3.836,-5.865 -6.352,-9.797 2.088,-23.111 6.68,-27.432 5.802,-5.46 20.213,-9.998 27.881,-2.684l5.791 3.889c1.96,1.435 1.864,0.879 2.776,3.526 1.248,1.094 0.269,-0.759 1.86,2.139 1.035,1.887 0.094,-0.122 0.556,2.117 1.802,1.613 0.284,-2.03 1.934,3.045 6.644,20.429 -23.393,40.406 -36.809,26.935zm-0.666 6.642l-0.261 24.697c4.755,1.294 8.16,-5.189 11.418,-7.216 5.249,2.954 4.68,8.845 11.738,8.935 1.38,-6.863 1.023,-14.949 0.488,-22.428 2.056,1.356 0.563,0.357 2.329,1.935l16.342 11.46c2.675,0.378 2.607,-0.242 3.005,-0.426 2.218,-15.854 1.066,-8.196 11.084,-13.21 -0.631,-6.276 -5.153,-3.299 -16.897,-15.945 3.35,-9.764 8.648,-20.207 -2.5,-33.977 -16.534,-20.422 -52.294,-10.382 -54.272,16.982 -1.334,18.471 11.156,23.79 17.526,29.193z"/>
  <path class="fil0" d="M95.344 288.037c0.101,-1.363 0.283,-0.53 0.224,-2.38 -0.067,-2.119 0.163,-1.007 -0.567,-2.328 -5.581,2.804 -9.487,16.822 -7.157,24.939 1.24,4.321 12.378,11.972 17.775,14.606 6.076,2.965 6.736,2.928 10.879,-1.347 9.46,-9.763 20.638,-17.125 14.569,-28.984 -5.897,10.627 -1.011,-2.3 -4.455,-7.615 -2.475,0.911 -0.687,0.308 -2.44,2.335l-1.126 1.129c-0.016,-0.077 -0.18,0.088 -0.267,0.06 -2.054,-4.052 1.898,-6.861 -3.099,-9.965 -1.891,2.285 -0.614,2.448 -1.732,5.678l-1.648 -5.746c-2.44,-13.97 -19.761,0.072 -16.518,8.032 6.359,-0.266 2.892,-5.249 8.326,-7.225 -0.016,3.988 -6.995,16.152 -12.242,13.191 -2.15,-3.321 -0.779,-0.915 -0.522,-4.38z"/>
  <path class="fil0" d="M395.897 284.908c-8.54,0.065 -9.01,21.921 -7.839,25.148 1.653,4.552 12.852,12.175 19.459,15.011 5.376,2.308 6.847,-0.3 10.172,-3.541 4.62,-4.504 14.29,-13.109 15.043,-19.664 0.18,-1.569 0.137,-6.219 -1.57,-6.786 -2.98,-0.989 0.304,-0.683 -1.416,1.017 -1.567,1.548 0.328,0.917 -1.603,1.568 -0.981,-4.544 0.813,-8.132 -1.826,-11.445 -2.564,1.212 0.021,0.311 -2.968,3.243 -2.897,2.841 1.238,0.15 -1.062,0.727 -0.705,-5.395 1.89,-8.101 -3.166,-10.367 -0.305,1.366 -0.379,4.248 -1.912,5.659 -1.735,-4.305 -0.673,-8.655 -2.95,-12.996 -7.913,-0.824 -17.739,9.924 -14.052,15.675 6.655,-2.934 2.074,-6.926 8.198,-7.38 -0.786,3.562 -2.725,5.843 -4.639,8.619 -2.038,2.954 -3.187,5.86 -8.304,4.554 -1.328,-4.838 0.5,-4.347 0.435,-9.042z"/>
  <path class="fil0" d="M184.933 70.487c-0.834,5.116 -2.118,11.791 1.854,14.561 4.029,-2.303 0.809,-3.38 5.291,-6.214 0.759,5.061 -2.433,12.816 -9.02,7.809 -7.676,-5.835 -4.696,2.025 -10.486,-6.234 -1.267,2.131 -1.64,2.066 -3.487,4.481 6.218,5.419 8.817,-0.074 13.756,12.01l-5.039 -3.133c-1.874,-1.276 -2.898,-1.765 -4.921,-2.649 -3.713,-1.622 -7.363,-2.47 -10.068,-5.271 1.353,-3.489 -0.569,0.206 1.163,-1.771 3.035,-3.462 9.626,-7.792 7.514,-15.216 -2.025,0.421 -10.252,4.952 -13.387,6.431 -4.81,2.27 -8.05,5.646 -6.068,12.813 1.294,4.674 15.092,21.773 17.21,22.965 4.416,2.485 13.662,0.991 18.879,0.056 9.765,-1.751 7.76,-1.934 8.081,-11.882 0.338,-10.493 1.323,-29.687 -11.272,-28.756z"/>
  <path class="fil0" d="M503.254 106.158c0.464,-10.091 3.277,-36.791 -7.398,-38.7 -4.353,-0.779 -1.854,-0.112 -2.711,0.667 -2.928,3.179 -1.477,10.679 0.095,13.939 5.848,-2.488 1.085,-3.395 6.591,-6.33 0.149,5.538 -2.662,12.043 -7.864,8.987 -3.888,-2.283 0.627,-1.495 -6.534,-3.227 -3.541,-0.857 -3.279,-0.823 -5.121,-3.968 -2.046,1.524 -2.725,2.824 -3.767,4.496 7.971,3.992 10.984,2.924 13.8,11.844l-5.225 -3.335c-6.525,-4.322 -11.309,-3.474 -14.957,-8.374 3.938,-3.716 9.977,-7.303 9.185,-16.775 -2.304,0.799 -16.303,8.144 -17.693,9.444 -10.703,10.012 15.538,33.464 16.878,33.793 6.963,1.712 18.4,-0.96 24.721,-2.461z"/>
  <path class="fil2" d="M369.032 325.167c2.022,-3.681 12.892,-14.556 13.898,-18.892 3.073,-13.243 -0.992,-16.801 9.516,-25.382 -0.184,-0.141 -0.46,-0.3 -0.59,-0.367l-10.593 -2.851c-5.037,-0.849 -5.846,0.529 -9.083,3.127 -5.216,4.186 -11.09,7.763 -14.469,12.52 3.742,3.646 7.849,6.131 9.654,12.542 1.972,7.002 0.462,12.798 1.667,19.303z"/>
  <path class="fil2" d="M68.511 323.168c2.199,-0.647 1.294,-0.35 2.825,-1.855l5.286 -7.166c2.445,-3.215 5.554,-5.543 6.319,-10.209 0.893,-5.456 0.671,-9.321 2.441,-14.543 1.865,-5.501 3.735,-6.166 4.667,-7.732l0.568 -2.204c-2.894,-1.6 -7.544,-1.515 -10.946,-1.787 -6.42,-0.512 -5.726,-0.446 -9.692,3.058 -3.82,3.375 -10.728,7.798 -12.214,11.636 11.599,10.879 10.304,8.463 10.746,30.802z"/>
  <path class="fil0" d="M83.241 231.085c0.148,5.468 0.483,10.907 0.633,16.371 0.186,6.711 -1.356,8.461 4.631,10.303 5.619,1.729 20.025,4.595 26.153,3.832l-0.211 -15.584c-2.824,-1.998 -11.92,-4.615 -16.205,-6.531 -5.952,-2.66 -9.999,-5.989 -15.001,-8.391z"/>
  <path class="fil0" d="M388.333 255.438c5.169,3.555 23.11,5.772 30.224,6.166l-0.236 -14.181c-4.363,-2.545 -11.104,-4.469 -16.067,-7 -5.572,-2.841 -9.823,-5.83 -14.454,-8.069l0.533 23.084z"/>
  <path class="fil2" d="M408.679 57.845c0.721,8.535 2.771,3.602 3.413,8.663 -3.235,1.616 -5.944,2.601 -9.585,1.554 -1.4,-4.541 1.145,-1.094 0.491,-4.896 -2.774,0.762 -10.475,7.764 -12.261,10.544 13.457,12.953 45.83,-5.338 35.806,-30.291 -3.27,1.048 -2.281,1.13 -5.082,3.677 -1.581,1.438 -2.487,2.001 -4.204,3.399 -3.927,3.199 -4.942,3.974 -8.578,7.35z"/>
  <path class="fil2" d="M94.903 58.152c0.002,7.87 1.411,3.57 3.022,8.711 -2.849,1.43 -5.765,1.93 -10.043,1.786l0.909 -5.694c-2.453,2.554 -3.878,3.364 -6.524,5.372 -2.062,1.565 -4.4,3.401 -5.406,5.67 13.416,13.471 43.453,-6.506 36.809,-26.935 -1.65,-5.075 -0.132,-1.432 -1.934,-3.045 -4.074,2.235 -13.604,11.004 -16.833,14.135z"/>
  <path class="fil2" d="M66.192 62.462c4.668,-4.056 14.924,-11.464 17.57,-15.371l-2.865 -1.075c1.062,-3.659 4.278,-6.334 7.411,-8.153 2.37,1.075 1.383,0.438 3.089,2.224 3.445,-0.601 2.51,-0.784 5.249,-3.252 1.725,-1.554 2.823,-1.912 4.107,-4.489 -7.668,-7.314 -22.079,-2.776 -27.881,2.684 -4.592,4.321 -13.032,17.635 -6.68,27.432z"/>
  <path class="fil2" d="M380.477 62.58c2.892,-4.216 13.419,-10.858 17.708,-15.758l-2.802 -0.792c0.498,-4.294 4.41,-7.895 8.299,-8.572 1.574,1.903 0.805,0.968 1.939,3.339 3.94,-2.969 5.813,-5.065 9.901,-8.436 -3.375,-3.832 -10.427,-4.361 -15.494,-3.826 -5.437,0.574 -10.002,3.223 -12.99,6.114 -6.272,6.067 -11.604,16.489 -6.561,27.931z"/>
  <path class="fil2" d="M101.305 334.072l5.143 -1.21c0.835,8.839 -5.921,7.022 -5.143,1.21zm-25.632 -10.154c2.906,4.109 25.059,26.927 32.572,15.12 5.317,-8.355 -5.98,-11.109 -10.457,-14.058 -5.056,-3.331 -9.746,-8.177 -14.26,-12.467 -2.39,2.09 -6.601,8.177 -7.855,11.405z"/>
  <path class="fil2" d="M401.997 334.587l4.35 -0.246c1.352,8.617 -7.407,7.272 -4.35,0.246zm-26.129 -9.713c3.19,4.18 2.422,4.35 6.672,7.896 5.252,4.381 19.869,16.442 25.585,7.865 5.857,-8.789 -5.19,-11.111 -9.863,-14.038 -6.301,-3.947 -9.63,-8.488 -14.516,-12.449 -2.481,1.437 -6.835,8.133 -7.878,10.726z"/>
  <path class="fil2" d="M108.242 347.043c6.28,-1.351 22.346,-5.949 26.822,-8.784 0.606,-7.189 -0.181,-19.881 -2.775,-25.777 -1.44,0.609 -13.721,12.604 -14.415,15.376 -3.924,15.689 -6.095,10.359 -9.632,19.185z"/>
  <path class="fil1" d="M417.126 213.965c3.064,-1.962 6.463,-1.855 9.717,-0.078 0.53,4.495 -6.645,2.71 -9.717,0.078zm15.18 -9.039c0.666,7.734 -4.809,3.37 -11.179,3.668 -3.595,0.168 -6.787,1.601 -9.801,2.548l-4.56 -4.826c6.052,-3.776 17.979,-2.2 25.54,-1.39zm5.289 -2.866c-7.123,-2.874 -18.122,-2.421 -26.953,-1.479 -1.915,0.204 -4.967,0.481 -6.793,0.947 -2.808,0.717 -3.992,0.284 -3.456,3.404 0.454,2.641 16.136,19.789 27.375,15.819 4.134,-1.461 10.683,-12.286 9.827,-18.691z"/>
  <path class="fil2" d="M409.871 346.453c6.77,-1.005 19.25,-4.786 25.255,-7.358 0.019,-6.703 -0.073,-21.337 -3.575,-25.42 -0.824,0.633 -13.08,13.623 -13.087,13.637 -1.773,3.437 0.148,4.663 -3.088,10.081 -1.79,2.998 -4.07,5.218 -5.505,9.06z"/>
  <path class="fil2" d="M72.292 271.265c4.687,2.474 15.673,3.955 22.213,4.481 6.374,0.513 3.811,-1.368 8.4,-4.199 4.845,-2.989 6.834,-0.172 7.096,-5.952 -4.028,-1.087 -10.878,-1.46 -15.456,-2.369 -5.12,-1.016 -10.101,-3.13 -14.842,-3.599 -2.256,2.088 -7.303,7.592 -7.411,11.638z"/>
  <path class="fil2" d="M376.605 270.869c4.222,2.521 15.705,4.429 21.487,4.295 5.043,-0.117 4.329,-2.542 8.888,-4.541 5.004,-2.195 6.686,-0.142 7.14,-5.028 -3.595,-1.471 -11.253,-1.854 -15.86,-2.9 -5.248,-1.192 -9.843,-2.876 -14.458,-3.621 -2.034,2.248 -7.494,7.592 -7.197,11.795z"/>
  <path class="fil2" d="M169.283 120.051c4.899,-2.141 5.729,0.175 5.05,5.027l-3.799 0.546c-1.822,-2.365 -1.989,-2.276 -1.251,-5.573zm29.957 5.201l-0.776 -11.585c-5.938,0.355 -12.453,2.216 -18.448,2.782 -7.438,0.701 -15.862,-2.567 -14.099,6.417 2.016,10.279 26.149,5.783 33.323,2.386z"/>
  <path class="fil2" d="M480.194 122.32c-4.187,1.193 -3.08,-0.948 -3.529,-0.958l0.128 -4.81c7.588,-1.755 6.284,4.945 3.401,5.768zm-6.176 -8.36c-4.676,19.32 26.713,10.697 32.22,8.219l-0.124 -11.609c-3.198,-0.044 -10.847,1.775 -15.15,2.364 -5.637,0.771 -11.61,-0.02 -16.946,1.026z"/>
  <path class="fil1" d="M124.64 205.288l3.728 0.135c-0.706,2.55 -1.746,4.423 -3.113,6.283 -7.634,10.385 -11.754,3.463 -19.239,0.594 1.816,-1.485 0.351,-0.77 3.306,-1.418 0.095,-0.021 3.084,-0.191 3.567,-0.236l-7.089 -3.887c4.438,-1.416 14.436,-1.664 18.84,-1.471zm-27.087 -1.184c-0.692,6.693 10.549,16.294 17.682,17.588 9.215,1.672 18.184,-10.609 16.852,-19.1 -6.196,-2.677 -28.009,-1.579 -34.534,1.512z"/>
  <path class="fil1" d="M398.185 46.822l1.904 -0.199 0.909 7.448 1.058 4.029 0.942 5.066c0.654,3.802 -1.891,0.355 -0.491,4.896 3.641,1.047 6.35,0.062 9.585,-1.554 -0.642,-5.061 -2.692,-0.128 -3.413,-8.663l-1.073 -5.44 -0.789 -4.836 -1.196 -6.772c-1.134,-2.371 -0.365,-1.436 -1.939,-3.339 -3.889,0.677 -7.801,4.278 -8.299,8.572l2.802 0.792z"/>
  <path class="fil1" d="M83.762 47.091c3.438,-1.362 1.779,-1.04 2.828,2.271 0.332,1.048 0.346,4.607 0.34,5.781l1.047 3.149 0.814 4.663 -0.909 5.694c4.278,0.144 7.194,-0.356 10.043,-1.786 -1.611,-5.141 -3.02,-0.841 -3.022,-8.711l-1.375 -5.702 -0.572 -4.028 -1.559 -8.335c-1.706,-1.786 -0.719,-1.149 -3.089,-2.224 -3.133,1.819 -6.349,4.494 -7.411,8.153l2.865 1.075z"/>
  <path class="fil2" d="M432.739 22.743c7.65,7.207 4.591,6.907 7.923,11.891 1.026,1.534 0.492,0.843 1.406,1.601 6.989,-16.318 4.42,-7.975 8.085,-14.728 -4.845,-2.327 -6.705,-6.354 -8.443,-12.836 -5.105,12.013 -4.426,7.894 -8.971,14.072z"/>
  <path class="fil2" d="M118.819 22.743c3.533,3.527 6.595,7.721 7.88,15.264 1.735,-2.445 2.136,-5.295 3.778,-8.457 1.833,-3.533 2.985,-3.852 5.476,-6.807 -4.64,-5.155 -4.464,-2.542 -8.491,-13.292 -3.959,4.845 1.455,2.392 -8.643,13.292z"/>
  <path class="fil0" d="M125.255 211.706c1.367,-1.86 2.407,-3.733 3.113,-6.283l-3.728 -0.135c-4.404,-0.193 -14.402,0.055 -18.84,1.471l7.089 3.887c-0.483,0.045 -3.472,0.215 -3.567,0.236 -2.955,0.648 -1.49,-0.067 -3.306,1.418 7.485,2.869 11.605,9.791 19.239,-0.594z"/>
  <path class="fil1" d="M416.215 172.937c-2.001,-3.484 -2.375,-6.472 -6.341,-6.536 0.798,4.848 6.151,15.687 9.247,18.798 4.44,-0.185 4.881,-2.049 8.132,-0.575 2.509,6.98 -2.244,5.289 0.608,9.902 4.582,-1.679 6.306,-6.911 4.073,-11.474 -2.536,-5.183 -6.864,-2.926 -10.65,-2.078 -1.549,-1.991 -3.364,-5.068 -5.069,-8.037z"/>
  <path class="fil1" d="M113.793 185.586c4.245,-0.013 7.354,-2.314 9.167,-0.537 2.708,2.655 -0.443,5.282 0.147,9.402 4.487,0.024 6.66,-5.59 4.821,-10.524 -2.396,-6.434 -7.062,-2.4 -11.31,-2.979 -1.871,-2.592 -2.674,-4.688 -4.519,-7.922 -2.134,-3.741 -2.75,-5.731 -5.625,-6.649 -1.795,3.571 6.059,15.658 7.319,19.209z"/>
  <path class="fil0" d="M66.192 62.462c1.203,3.336 1.792,3.76 3.836,5.865 1.498,-2.441 5.876,-5.425 7.914,-7.142 2.831,-2.386 5.136,-5.96 8.988,-6.042 0.006,-1.174 -0.008,-4.733 -0.34,-5.781 -1.049,-3.311 0.61,-3.633 -2.828,-2.271 -2.646,3.907 -12.902,11.315 -17.57,15.371z"/>
  <path class="fil0" d="M380.477 62.58c1.67,4.404 1.301,3.023 3.953,5.753 1.183,-3.051 1.204,-1.971 3.582,-4.05 1.697,-1.484 2.248,-2.127 4.121,-3.519 3.456,-2.569 5.031,-5.362 8.865,-6.693l-0.909 -7.448 -1.904 0.199c-4.289,4.9 -14.816,11.542 -17.708,15.758z"/>
  <path class="fil1" d="M379.776 169.028c4.274,2.447 22.629,-3.445 18.923,-10.124 -1.409,-2.538 -3.358,-1.394 -6.15,-0.272 -7.674,3.086 -12.984,4.957 -12.773,10.396z"/>
  <path class="fil1" d="M94.415 156.252c-4.818,0.038 -24.335,9.461 -17.258,13.321 1.829,0.997 9.965,-2.482 12.005,-3.507 4.428,-2.223 6.046,-4.778 5.253,-9.814z"/>
  <path class="fil0" d="M406.766 206.316l4.56 4.826c3.014,-0.947 6.206,-2.38 9.801,-2.548 6.37,-0.298 11.845,4.066 11.179,-3.668 -7.561,-0.81 -19.488,-2.386 -25.54,1.39z"/>
  <path class="fil1" d="M82.819 185.815c4.236,-2.164 5.554,-4.937 9.148,-6.47 5.256,-2.242 7.811,0.428 11.314,2.742 -2.853,-16.69 -18.692,-10.42 -20.462,3.728z"/>
  <path class="fil0" d="M405.621 40.797l1.196 6.772c3.3,-1.32 11.206,-8.627 14.145,-11.223 -1.651,-1.842 -2.356,-3.322 -5.44,-3.985 -4.088,3.371 -5.961,5.467 -9.901,8.436z"/>
  <path class="fil1" d="M386.974 184.968c13.005,-6.987 7.789,-8.501 20.16,-3.422 -1.079,-12.135 -17.805,-11.111 -20.16,3.422z"/>
  <path class="fil0" d="M91.397 40.087l1.559 8.335c2.036,-1.649 4.94,-3.961 6.794,-5.646l5.194 -4.351c1.676,-1.654 0.763,-0.614 1.6,-2.19l-5.791 -3.889c-1.284,2.577 -2.382,2.935 -4.107,4.489 -2.739,2.468 -1.804,2.651 -5.249,3.252z"/>
  <path class="fil2" d="M345.432 292.177c5.681,0.251 6.01,0.878 9.588,-1.78 5.423,-4.03 17.485,-11.658 19.136,-15.35 -4.207,0.287 -4.437,1.79 -7.682,3.867 -2.124,1.36 -4.59,2.931 -7.058,4.446 -2.99,1.836 -12.477,6.422 -13.984,8.817z"/>
  <path class="fil0" d="M483.456 78.075c5.691,1.708 5.196,1.55 5.568,-14.452 -2.162,-0.985 -3.329,-1.786 -6.716,-1.466 0.052,3.633 1.202,4.032 0.904,8.35 -0.242,3.512 -1.047,4.503 0.244,7.568z"/>
  <path class="fil0" d="M175.131 65.514c-0.174,0.725 -0.234,0.137 -0.041,1.763 1.54,12.949 -2.687,15.412 5.63,14.296l0.73 -15.115c-3.232,-1.243 -2.933,-2.032 -6.319,-0.944z"/>
  <path class="fil2" d="M70.028 68.327c0.888,2.187 -0.287,1.287 2.273,2.305 3.434,-1.091 5.392,-3.575 8.241,-5.944 2.365,-1.967 5.51,-4.643 7.435,-6.396l-1.047 -3.149c-3.852,0.082 -6.157,3.656 -8.988,6.042 -2.038,1.717 -6.416,4.701 -7.914,7.142z"/>
  <path class="fil0" d="M407.606 52.405l1.073 5.44c3.636,-3.376 4.651,-4.151 8.578,-7.35 1.717,-1.398 2.623,-1.961 4.204,-3.399 2.801,-2.547 1.812,-2.629 5.082,-3.677 -1.597,-2.409 -0.954,-2.277 -2.768,-4.289 -2.666,3.043 -12.673,11.986 -16.169,13.275z"/>
  <path class="fil2" d="M384.43 68.333l2.172 2.204c2.121,-1.047 5.823,-4.228 7.632,-5.759 2.872,-2.431 5.492,-4.629 7.822,-6.678l-1.058 -4.029c-3.834,1.331 -5.409,4.124 -8.865,6.693 -1.873,1.392 -2.424,2.035 -4.121,3.519 -2.378,2.079 -2.399,0.999 -3.582,4.05z"/>
  <path class="fil1" d="M58.603 204.921c-0.365,3.558 -1.24,3.058 1.022,5.765 4.627,-2 -0.347,-2.66 5.737,-4.869 2.432,4.045 -2.648,7.665 4.78,8.32 2.584,-5.093 -0.022,0.298 0.293,-3.917 0.236,-3.167 0.849,0.303 0.81,-4.86 -4.098,-4.675 -7.359,-4.083 -12.642,-0.439z"/>
  <path class="fil0" d="M93.528 52.45l1.375 5.702c3.229,-3.131 12.759,-11.9 16.833,-14.135 -0.462,-2.239 0.479,-0.23 -0.556,-2.117 -1.591,-2.898 -0.612,-1.045 -1.86,-2.139 -2.889,3.294 -12.35,12.035 -15.792,12.689z"/>
  <path class="fil2" d="M406.817 47.569l0.789 4.836c3.496,-1.289 13.503,-10.232 16.169,-13.275 -2.074,-2.96 -0.025,-1.122 -2.813,-2.784 -2.939,2.596 -10.845,9.903 -14.145,11.223z"/>
  <path class="fil2" d="M92.956 48.422l0.572 4.028c3.442,-0.654 12.903,-9.395 15.792,-12.689 -0.912,-2.647 -0.816,-2.091 -2.776,-3.526 -0.837,1.576 0.076,0.536 -1.6,2.19l-5.194 4.351c-1.854,1.685 -4.758,3.997 -6.794,5.646z"/>
  <path class="fil1" d="M363.667 210.389c4.695,-2.481 0.836,-5.428 7.1,-4.468 -0.461,3.836 -1.522,8.227 3.888,7.641l-0.024 -4.866c0.684,-3.154 1.239,-0.306 0.781,-4.791 -6.379,-4.006 -16.433,-1.068 -11.745,6.484z"/>
  <path class="fil2" d="M46.569 290.768c8.134,0.249 9.475,-2.471 13.972,-6.081 4.136,-3.32 8.935,-6.631 9.404,-9.368 -4.483,1.657 -7.425,4.395 -11.714,7.047 -1.907,1.18 -3.473,2.095 -5.916,3.619 -6.207,3.873 -3.851,1.496 -5.746,4.783z"/>
  <path class="fil0" d="M72.301 70.632c1.49,2.14 1.741,2.19 4.56,3.365 1.006,-2.269 3.344,-4.105 5.406,-5.67 2.646,-2.008 4.071,-2.818 6.524,-5.372l-0.814 -4.663c-1.925,1.753 -5.07,4.429 -7.435,6.396 -2.849,2.369 -4.807,4.853 -8.241,5.944z"/>
  <path class="fil1" d="M118.818 178.43c6.835,-6.599 2.922,-6.548 14.097,-2.341 -3.763,-11.265 -17.969,-10.918 -14.097,2.341z"/>
  <path class="fil0" d="M386.602 70.537l4.135 3.173c1.786,-2.78 9.487,-9.782 12.261,-10.544l-0.942 -5.066c-2.33,2.049 -4.95,4.247 -7.822,6.678 -1.809,1.531 -5.511,4.712 -7.632,5.759z"/>
  <path class="fil1" d="M423.198 175.473c1.569,-1.25 3.023,-2.802 4.528,-4.1 4.006,0.012 6.169,1.545 9.565,2.802 -2.105,-9.1 -16.615,-13.033 -14.093,1.298z"/>
  <path class="fil0" d="M153.563 64.812c-0.031,9.353 0.576,7.032 6.414,4.735 -0.22,-7.987 1.284,-7.69 -1.394,-9.144 -3.814,-2.07 -5.01,1.45 -5.02,4.409z"/>
  <path class="fil2" d="M120.471 263.683c1.913,1.973 4.42,4.133 6.91,5.504 1.797,-8.058 1.169,-11.164 -6.741,-11.69l-0.169 6.186z"/>
  <path class="fil2" d="M447.623 38.997c1.233,2.273 3.02,5.306 4.953,7.673 0.976,-2.498 2.937,-5.692 4.078,-7.673 -1.239,-1.577 -2.597,-4.48 -5.025,-5.717 -1.496,2.328 -2.697,4.118 -4.006,5.717z"/>
  <path class="fil0" d="M461.593 68.531l5.659 -1.931c0.207,-7.116 2.295,-10.039 -5.125,-9.35 -1.3,3.778 -1.062,6.792 -0.534,11.281z"/>
  <path class="fil2" d="M133.394 38.913c0.974,2.173 0.869,1.46 2.046,3.561l3.019 4.576c0.946,-2.877 2.343,-4.897 3.787,-7.096 -1.078,-2.73 -2.504,-4.366 -3.918,-6.926l-2.405 3.026c-1.394,1.896 -1.17,1.614 -2.529,2.859z"/>
  <path class="fil2" d="M424.418 262.727c3.394,2.965 2.726,3.83 7.658,5.979l-0.564 -9.957 -6.569 -1.742 -0.525 5.72z"/>
  <path class="fil0" d="M163.917 67.638c3.817,-0.992 5.12,-1.831 7.43,-3.701 -3.531,-3.89 -8.251,-5.019 -7.43,3.701z"/>
  <path class="fil0" d="M476.665 121.362c0.449,0.01 -0.658,2.151 3.529,0.958 2.883,-0.823 4.187,-7.523 -3.401,-5.768l-0.128 4.81z"/>
  <path class="fil0" d="M471.467 64.172c2.808,0.075 5.675,-1.486 7.073,-4.14 -5.071,-3.838 -7.888,-2.229 -7.073,4.14z"/>
  <path class="fil0" d="M170.534 125.624l3.799 -0.546c0.679,-4.852 -0.151,-7.168 -5.05,-5.027 -0.738,3.297 -0.571,3.208 1.251,5.573z"/>
  <path class="fil0" d="M417.126 213.965c3.072,2.632 10.247,4.417 9.717,-0.078 -3.254,-1.777 -6.653,-1.884 -9.717,0.078z"/>
  <path class="fil0" d="M401.997 334.587c-3.057,7.026 5.702,8.371 4.35,-0.246l-4.35 0.246z"/>
  <path class="fil0" d="M101.305 334.072c-0.778,5.812 5.978,7.629 5.143,-1.21l-5.143 1.21z"/>
 </g>
</svg>
