<?xml version="1.0" encoding="UTF-8" standalone="no" ?>
<!DOCTYPE svg PUBLIC "-//W3C//DTD SVG 1.1//EN" "http://www.w3.org/Graphics/SVG/1.1/DTD/svg11.dtd">
<svg xmlns="http://www.w3.org/2000/svg" xmlns:xlink="http://www.w3.org/1999/xlink" version="1.1" width="1080" height="1080" viewBox="0 0 1080 1080" xml:space="preserve">
<desc>Created with Fabric.js 5.2.4</desc>
<defs>
</defs>
<rect x="0" y="0" width="100%" height="100%" fill="transparent"></rect>
<g transform="matrix(1 0 0 1 540 540)" id="f0b4dcb7-5b55-4aba-8c98-7cd5bdc1c623"  >
</g>
<g transform="matrix(1 0 0 1 540 540)" id="79850bee-fa0f-4970-aba9-5d257932f520"  >
<rect style="stroke: none; stroke-width: 1; stroke-dasharray: none; stroke-linecap: butt; stroke-dashoffset: 0; stroke-linejoin: miter; stroke-miterlimit: 4; fill: rgb(255,255,255); fill-rule: nonzero; opacity: 1; visibility: hidden;" vector-effect="non-scaling-stroke"  x="-540" y="-540" rx="0" ry="0" width="1080" height="1080" />
</g>
<g transform="matrix(0.17 0 0 0.17 540 513.4)" id="7ba8d8e8-c9e6-41c1-89ba-c6daa05d9896"  >
<path style="stroke: rgb(0,0,0); stroke-width: 0; stroke-dasharray: none; stroke-linecap: butt; stroke-dashoffset: 0; stroke-linejoin: miter; stroke-miterlimit: 4; fill: rgb(0,0,0); fill-rule: nonzero; opacity: 1;" vector-effect="non-scaling-stroke"  transform=" translate(-1946.62, -840.84)" d="M 3467.86 701.16 C 3347.69 701.16 3263.6000000000004 797.28 3234.7400000000002 948.67 L 3657.7400000000002 943.87 C 3657.7400000000002 816.51 3578.4 701.1700000000001 3467.86 701.1700000000001 z M 2756.73 0 L 2754.08 0 L 2316.72 109.95 L 2316.72 158.01 C 2482.5299999999997 172.44 2494.56 206.07 2494.56 287.78 L 2494.56 1532.66 C 2475.31 1573.53 2444.09 1597.5700000000002 2335.95 1604.76 L 2335.95 1660.04 L 2869.45 1660.04 L 2869.45 1604.76 C 2770.9199999999996 1597.56 2725.2799999999997 1580.74 2701.24 1532.66 L 2701.24 126.77999999999997 L 2770.93 40.26999999999997 L 2756.74 0.009999999999969589 z M 3446.21 1679.27 C 3193.9 1679.27 2999.21 1479.79 2999.21 1201.01 C 2999.21 859.76 3208.32 626.63 3503.92 626.63 C 3741.82 626.63 3874 761.24 3874 975.12 L 3874 1018.37 L 3225.13 1013.57 C 3220.32 1040 3217.9100000000003 1083.27 3217.9100000000003 1136.13 C 3217.9100000000003 1381.2600000000002 3371.7100000000005 1542.2800000000002 3576.0200000000004 1542.2800000000002 C 3698.5700000000006 1542.2800000000002 3761.0700000000006 1499.0300000000002 3857.1800000000003 1417.3200000000002 L 3893.2300000000005 1472.5700000000002 C 3756.2400000000007 1597.5600000000002 3643.2800000000007 1679.2700000000002 3446.2000000000007 1679.2700000000002 z M 1602.96 1289.95 C 1593.3500000000001 1328.39 1586.15 1362.03 1586.15 1414.91 C 1586.15 1487 1627 1559.0700000000002 1706.2900000000002 1559.0700000000002 C 1778.39 1559.0700000000002 1819.2300000000002 1535.0700000000002 1884.14 1484.5900000000001 L 1886.5400000000002 1160.13 C 1824.0700000000002 1188.98 1670.2600000000002 1256.2900000000002 1602.9600000000003 1289.94 z M 2083.6 1681.67 C 1953.83 1681.67 1891.34 1592.73 1886.54 1530.27 C 1804.82 1616.78 1699.1 1681.67 1598.1599999999999 1681.67 C 1468.3899999999999 1681.67 1357.83 1602.3600000000001 1357.83 1465.39 C 1357.83 1398.0900000000001 1374.6499999999999 1328.39 1408.31 1273.1200000000001 L 1886.54 1100.0700000000002 L 1886.54 922.2300000000001 C 1886.54 814.0900000000001 1836.07 710.7500000000001 1727.9299999999998 710.7500000000001 C 1663.0499999999997 710.7500000000001 1600.56 790.0400000000001 1595.7699999999998 912.6200000000001 L 1379.4599999999998 948.6500000000001 L 1379.4599999999998 924.6500000000001 C 1451.5599999999997 708.3300000000002 1689.4899999999998 624.24 1804.83 624.24 C 2023.53 624.24 2102.84 739.58 2100.44 917.4300000000001 L 2093.2400000000002 1422.1100000000001 C 2090.84 1520.65 2143.69 1544.67 2191.7700000000004 1544.67 C 2230.2100000000005 1544.67 2268.6500000000005 1520.65 2314.3400000000006 1474.99 L 2314.3400000000006 1544.67 C 2261.4600000000005 1607.17 2167.7500000000005 1681.66 2083.6100000000006 1681.66 z M 1295.35 352.68000000000006 L 898.8199999999999 1020.7700000000001 L 898.8199999999999 1470.19 C 944.4699999999999 1578.3300000000002 1059.83 1592.73 1170.3899999999999 1597.56 L 1170.3899999999999 1660.04 L 394.1299999999999 1660.04 L 394.1299999999999 1597.56 C 504.6699999999999 1592.73 639.2699999999999 1575.9299999999998 675.31 1503.84 L 675.31 1040 L 271.56999999999994 357.48 C 201.88999999999993 242.11 134.58999999999995 203.68 -5.684341886080802e-14 194.06000000000003 L -5.684341886080802e-14 131.57000000000002 L 675.31 131.57000000000002 L 675.31 194.06000000000003 C 547.9399999999999 201.26000000000002 507.0899999999999 225.31000000000003 471.03999999999996 254.16000000000003 L 845.95 903 L 1213.63 256.53999999999996 C 1175.2 227.70999999999998 1124.72 201.24999999999997 997.3500000000001 194.05999999999997 L 997.3500000000001 131.56999999999996 L 1574.1200000000001 131.56999999999996 L 1574.1200000000001 194.05999999999997 C 1444.3500000000001 198.87999999999997 1362.64 242.10999999999996 1295.3600000000001 352.67999999999995 z" stroke-linecap="round" />
</g>
</svg>